%TF.GenerationSoftware,KiCad,Pcbnew,8.0.6*%
%TF.CreationDate,2025-01-21T00:38:57+01:00*%
%TF.ProjectId,3458A Ref A9 Clone,33343538-4120-4526-9566-20413920436c,B*%
%TF.SameCoordinates,Original*%
%TF.FileFunction,Profile,NP*%
%FSLAX46Y46*%
G04 Gerber Fmt 4.6, Leading zero omitted, Abs format (unit mm)*
G04 Created by KiCad (PCBNEW 8.0.6) date 2025-01-21 00:38:57*
%MOMM*%
%LPD*%
G01*
G04 APERTURE LIST*
%TA.AperFunction,Profile*%
%ADD10C,0.050000*%
%TD*%
%ADD11C,0.350000*%
G04 APERTURE END LIST*
D10*
X180170000Y-95330000D02*
X180170000Y-132750000D01*
X130170000Y-95330000D02*
G75*
G02*
X132710000Y-92790000I2540000J0D01*
G01*
X177630000Y-92790000D02*
G75*
G02*
X180170000Y-95330000I0J-2540000D01*
G01*
X130170000Y-132750000D02*
X130170000Y-95330000D01*
X132710000Y-135290000D02*
G75*
G02*
X130170000Y-132750000I0J2540000D01*
G01*
X132710000Y-92790000D02*
X177630000Y-92790000D01*
X180170000Y-132750000D02*
G75*
G02*
X177630000Y-135290000I-2540000J0D01*
G01*
X177630000Y-135290000D02*
X132710000Y-135290000D01*
D11*
X135001000Y-109270800D03*
X138811000Y-109270800D03*
X171577000Y-109601000D03*
X167767000Y-109601000D03*
X172543018Y-124519986D03*
X171687770Y-122455234D03*
X169623018Y-121599986D03*
X167558266Y-122455234D03*
X166703018Y-124519986D03*
X167558266Y-126584738D03*
X169623018Y-127439986D03*
X171687770Y-126584738D03*
X148080000Y-125130000D03*
X153160000Y-125130000D03*
X155700000Y-125130000D03*
X158240000Y-125130000D03*
X148080000Y-128940000D03*
X150620000Y-128940000D03*
X153160000Y-128940000D03*
X155700000Y-128940000D03*
X158240000Y-128940000D03*
X138811000Y-116890800D03*
X135001000Y-116890800D03*
X174713949Y-131466051D03*
X164563949Y-117576051D03*
X143713200Y-131445000D03*
X174955200Y-100177600D03*
X144145000Y-121031000D03*
X144144999Y-118491000D03*
X171704000Y-94615000D03*
X173984001Y-94615000D03*
X176264000Y-94615000D03*
X134073840Y-96696051D03*
X177495200Y-100177600D03*
X143713200Y-128905000D03*
X158250000Y-103020000D03*
X155710000Y-103020000D03*
X153170000Y-103020000D03*
X150630000Y-103020000D03*
X148090000Y-103020000D03*
X148090000Y-99210000D03*
X150630000Y-99210000D03*
X153170000Y-99210000D03*
X155710000Y-99210000D03*
X158250000Y-99210000D03*
M02*
