%TF.GenerationSoftware,KiCad,Pcbnew,8.0.6*%
%TF.CreationDate,2024-11-19T20:08:17+01:00*%
%TF.ProjectId,3458A Ref A9 Clone,33343538-4120-4526-9566-20413920436c,rev?*%
%TF.SameCoordinates,Original*%
%TF.FileFunction,Copper,L1,Top*%
%TF.FilePolarity,Positive*%
%FSLAX46Y46*%
G04 Gerber Fmt 4.6, Leading zero omitted, Abs format (unit mm)*
G04 Created by KiCad (PCBNEW 8.0.6) date 2024-11-19 20:08:17*
%MOMM*%
%LPD*%
G01*
G04 APERTURE LIST*
G04 Aperture macros list*
%AMRoundRect*
0 Rectangle with rounded corners*
0 $1 Rounding radius*
0 $2 $3 $4 $5 $6 $7 $8 $9 X,Y pos of 4 corners*
0 Add a 4 corners polygon primitive as box body*
4,1,4,$2,$3,$4,$5,$6,$7,$8,$9,$2,$3,0*
0 Add four circle primitives for the rounded corners*
1,1,$1+$1,$2,$3*
1,1,$1+$1,$4,$5*
1,1,$1+$1,$6,$7*
1,1,$1+$1,$8,$9*
0 Add four rect primitives between the rounded corners*
20,1,$1+$1,$2,$3,$4,$5,0*
20,1,$1+$1,$4,$5,$6,$7,0*
20,1,$1+$1,$6,$7,$8,$9,0*
20,1,$1+$1,$8,$9,$2,$3,0*%
G04 Aperture macros list end*
%TA.AperFunction,EtchedComponent*%
%ADD10C,0.000000*%
%TD*%
%TA.AperFunction,ComponentPad*%
%ADD11C,1.500000*%
%TD*%
%TA.AperFunction,SMDPad,CuDef*%
%ADD12RoundRect,0.250000X-0.362500X-1.425000X0.362500X-1.425000X0.362500X1.425000X-0.362500X1.425000X0*%
%TD*%
%TA.AperFunction,SMDPad,CuDef*%
%ADD13RoundRect,0.405613X-0.588137X-0.919387X0.588137X-0.919387X0.588137X0.919387X-0.588137X0.919387X0*%
%TD*%
%TA.AperFunction,SMDPad,CuDef*%
%ADD14RoundRect,0.420919X-0.610331X-0.904081X0.610331X-0.904081X0.610331X0.904081X-0.610331X0.904081X0*%
%TD*%
%TA.AperFunction,SMDPad,CuDef*%
%ADD15RoundRect,0.250000X0.362500X1.425000X-0.362500X1.425000X-0.362500X-1.425000X0.362500X-1.425000X0*%
%TD*%
%TA.AperFunction,SMDPad,CuDef*%
%ADD16RoundRect,0.405613X0.588137X0.919387X-0.588137X0.919387X-0.588137X-0.919387X0.588137X-0.919387X0*%
%TD*%
%TA.AperFunction,SMDPad,CuDef*%
%ADD17RoundRect,0.420919X0.610331X0.904081X-0.610331X0.904081X-0.610331X-0.904081X0.610331X-0.904081X0*%
%TD*%
%TA.AperFunction,SMDPad,CuDef*%
%ADD18RoundRect,0.150000X0.825000X0.150000X-0.825000X0.150000X-0.825000X-0.150000X0.825000X-0.150000X0*%
%TD*%
%TA.AperFunction,SMDPad,CuDef*%
%ADD19RoundRect,0.225000X-0.375000X0.225000X-0.375000X-0.225000X0.375000X-0.225000X0.375000X0.225000X0*%
%TD*%
%TA.AperFunction,SMDPad,CuDef*%
%ADD20RoundRect,0.250000X0.262500X0.450000X-0.262500X0.450000X-0.262500X-0.450000X0.262500X-0.450000X0*%
%TD*%
%TA.AperFunction,SMDPad,CuDef*%
%ADD21RoundRect,0.250000X-0.450000X0.262500X-0.450000X-0.262500X0.450000X-0.262500X0.450000X0.262500X0*%
%TD*%
%TA.AperFunction,SMDPad,CuDef*%
%ADD22RoundRect,0.250000X-0.650000X0.325000X-0.650000X-0.325000X0.650000X-0.325000X0.650000X0.325000X0*%
%TD*%
%TA.AperFunction,SMDPad,CuDef*%
%ADD23RoundRect,0.250000X-0.262500X-0.450000X0.262500X-0.450000X0.262500X0.450000X-0.262500X0.450000X0*%
%TD*%
%TA.AperFunction,SMDPad,CuDef*%
%ADD24RoundRect,0.250000X0.650000X-0.325000X0.650000X0.325000X-0.650000X0.325000X-0.650000X-0.325000X0*%
%TD*%
%TA.AperFunction,ComponentPad*%
%ADD25R,1.700000X1.524000*%
%TD*%
%TA.AperFunction,ComponentPad*%
%ADD26C,1.700000*%
%TD*%
%TA.AperFunction,SMDPad,CuDef*%
%ADD27RoundRect,0.150000X-0.825000X-0.150000X0.825000X-0.150000X0.825000X0.150000X-0.825000X0.150000X0*%
%TD*%
%TA.AperFunction,SMDPad,CuDef*%
%ADD28RoundRect,0.250000X-0.312500X-0.625000X0.312500X-0.625000X0.312500X0.625000X-0.312500X0.625000X0*%
%TD*%
%TA.AperFunction,SMDPad,CuDef*%
%ADD29RoundRect,0.250000X-0.325000X-0.650000X0.325000X-0.650000X0.325000X0.650000X-0.325000X0.650000X0*%
%TD*%
%TA.AperFunction,SMDPad,CuDef*%
%ADD30RoundRect,0.250000X0.325000X0.650000X-0.325000X0.650000X-0.325000X-0.650000X0.325000X-0.650000X0*%
%TD*%
%TA.AperFunction,SMDPad,CuDef*%
%ADD31RoundRect,0.225000X0.225000X0.375000X-0.225000X0.375000X-0.225000X-0.375000X0.225000X-0.375000X0*%
%TD*%
%TA.AperFunction,SMDPad,CuDef*%
%ADD32RoundRect,0.250000X0.450000X-0.262500X0.450000X0.262500X-0.450000X0.262500X-0.450000X-0.262500X0*%
%TD*%
%TA.AperFunction,ComponentPad*%
%ADD33R,1.710000X1.800000*%
%TD*%
%TA.AperFunction,ComponentPad*%
%ADD34O,1.710000X1.800000*%
%TD*%
%TA.AperFunction,SMDPad,CuDef*%
%ADD35RoundRect,0.150000X-0.587500X-0.150000X0.587500X-0.150000X0.587500X0.150000X-0.587500X0.150000X0*%
%TD*%
%TA.AperFunction,SMDPad,CuDef*%
%ADD36R,0.500000X0.500000*%
%TD*%
%TA.AperFunction,ViaPad*%
%ADD37C,0.600000*%
%TD*%
%TA.AperFunction,Conductor*%
%ADD38C,0.508000*%
%TD*%
%TA.AperFunction,Conductor*%
%ADD39C,0.200000*%
%TD*%
%TA.AperFunction,Conductor*%
%ADD40C,0.600000*%
%TD*%
%ADD41C,0.300000*%
%ADD42C,0.350000*%
G04 APERTURE END LIST*
D10*
%TA.AperFunction,EtchedComponent*%
%TO.C,JP1*%
G36*
X171041799Y-111502000D02*
G01*
X168179799Y-111502000D01*
X168179799Y-111002000D01*
X171041799Y-111002000D01*
X171041799Y-111502000D01*
G37*
%TD.AperFunction*%
%TD*%
D11*
%TO.P,R3,2*%
%TO.N,Net-(JP1-A)*%
X171551600Y-109524800D03*
%TO.P,R3,1*%
%TO.N,+7V REF*%
X167741600Y-109524800D03*
D12*
X166709500Y-111252000D03*
D13*
X167740750Y-111252000D03*
D14*
%TO.P,R3,2*%
%TO.N,Net-(JP1-A)*%
X171565750Y-111252000D03*
D12*
X172634500Y-111252000D03*
%TD*%
%TO.P,R415,2*%
%TO.N,Net-(U402B-+)*%
X139893900Y-110998000D03*
D14*
X138861800Y-110998000D03*
D11*
X138811000Y-109270800D03*
D13*
%TO.P,R415,1*%
%TO.N,+7V REF*%
X135036800Y-110998000D03*
D11*
X135001000Y-109270800D03*
D12*
X133968900Y-110998000D03*
%TD*%
%TO.P,R413,2*%
%TO.N,Net-(C414-Pad1)*%
X172634500Y-104444800D03*
D14*
X171602400Y-104444800D03*
D11*
X171577000Y-106172000D03*
D13*
%TO.P,R413,1*%
%TO.N,+7V REF*%
X167777400Y-104444800D03*
D11*
X167767000Y-106172000D03*
D12*
X166709500Y-104444800D03*
%TD*%
D11*
%TO.P,R414,2*%
%TO.N,J400 (2): REF GND*%
X135001000Y-116890800D03*
%TO.P,R414,1*%
%TO.N,ZD-*%
X138811000Y-116890800D03*
D15*
X139868500Y-118618000D03*
D16*
X138800600Y-118618000D03*
D17*
%TO.P,R414,2*%
%TO.N,J400 (2): REF GND*%
X134975600Y-118618000D03*
D15*
X133943500Y-118618000D03*
%TD*%
D18*
%TO.P,U402,1*%
%TO.N,Net-(C1-Pad1)*%
X155637000Y-112776000D03*
%TO.P,U402,2,-*%
%TO.N,Net-(U402A--)*%
X155637000Y-111506000D03*
%TO.P,U402,3,+*%
%TO.N,Net-(U402A-+)*%
X155637000Y-110236000D03*
%TO.P,U402,4,V-*%
%TO.N,J400 (2): REF GND*%
X155637000Y-108966000D03*
%TO.P,U402,5,+*%
%TO.N,Net-(U402B-+)*%
X150687000Y-108966000D03*
%TO.P,U402,6,-*%
%TO.N,Net-(U402B--)*%
X150687000Y-110236000D03*
%TO.P,U402,7*%
%TO.N,Net-(D400-A)*%
X150687000Y-111506000D03*
%TO.P,U402,8,V+*%
%TO.N,+18*%
X150687000Y-112776000D03*
%TD*%
D19*
%TO.P,D401,1,K*%
%TO.N,J401 (3): GND Heater*%
X167894000Y-95251000D03*
%TO.P,D401,2,A*%
%TO.N,Net-(D401-A)*%
X167894000Y-98551000D03*
%TD*%
D20*
%TO.P,R416,1*%
%TO.N,Net-(U402A--)*%
X154074500Y-114935000D03*
%TO.P,R416,2*%
%TO.N,J400 (1): Temp*%
X152249500Y-114935000D03*
%TD*%
D21*
%TO.P,R1,1*%
%TO.N,Net-(U402B--)*%
X145542000Y-110847500D03*
%TO.P,R1,2*%
%TO.N,ZD-*%
X145542000Y-112672500D03*
%TD*%
D22*
%TO.P,C412,1*%
%TO.N,Net-(C412-Pad1)*%
X161163000Y-109776999D03*
%TO.P,C412,2*%
%TO.N,Net-(U402A--)*%
X161163000Y-112727001D03*
%TD*%
D23*
%TO.P,R5,1*%
%TO.N,J400 (2): REF GND*%
X135993500Y-102997000D03*
%TO.P,R5,2*%
%TO.N,-15*%
X137818500Y-102997000D03*
%TD*%
D24*
%TO.P,C1,1*%
%TO.N,Net-(C1-Pad1)*%
X158369000Y-115013001D03*
%TO.P,C1,2*%
%TO.N,Net-(U402A--)*%
X158369000Y-112062999D03*
%TD*%
D11*
%TO.P,U401,1*%
%TO.N,Net-(Q401-E)*%
X172543018Y-124519986D03*
%TO.P,U401,2*%
%TO.N,Net-(D401-A)*%
X171687770Y-122455234D03*
%TO.P,U401,3*%
%TO.N,Net-(JP1-A)*%
X169623018Y-121599986D03*
%TO.P,U401,4*%
%TO.N,ZD-*%
X167558266Y-122455234D03*
%TO.P,U401,5*%
%TO.N,Net-(U402B-+)*%
X166703018Y-124519986D03*
%TO.P,U401,6*%
%TO.N,J400 (1): Temp*%
X167558266Y-126584738D03*
%TO.P,U401,7*%
%TO.N,J400 (2): REF GND*%
X169623018Y-127439986D03*
%TO.P,U401,8*%
%TO.N,Net-(C414-Pad1)*%
X171687770Y-126584738D03*
%TD*%
D25*
%TO.P,J400,1,Pin_1*%
%TO.N,J400 (1): Temp*%
X148080000Y-128940000D03*
D26*
%TO.P,J400,2,Pin_2*%
%TO.N,unconnected-(J400-Pin_2-Pad2)*%
X150620000Y-128940000D03*
%TO.P,J400,3,Pin_3*%
%TO.N,J400 (2): REF GND*%
X153160000Y-128940000D03*
%TO.P,J400,4,Pin_4*%
%TO.N,+7V REF*%
X155700000Y-128940000D03*
%TO.P,J400,5,Pin_5*%
%TO.N,J400 (2): REF GND*%
X158240000Y-128940000D03*
%TD*%
D20*
%TO.P,R6,1*%
%TO.N,J400 (2): REF GND*%
X144295500Y-104267000D03*
%TO.P,R6,2*%
%TO.N,-15*%
X142470500Y-104267000D03*
%TD*%
D27*
%TO.P,RN1,1,R1.1*%
%TO.N,Net-(RN1A-R1.1)*%
X134431000Y-122682000D03*
%TO.P,RN1,2,R2.1*%
%TO.N,J400 (2): REF GND*%
X134431000Y-123952000D03*
%TO.P,RN1,3,R3.1*%
%TO.N,Net-(RN1A-R1.1)*%
X134431000Y-125222000D03*
%TO.P,RN1,4,R4.1*%
%TO.N,J400 (2): REF GND*%
X134431000Y-126492000D03*
%TO.P,RN1,5,R5.1*%
X134431000Y-127762000D03*
%TO.P,RN1,6,R6.1*%
%TO.N,Net-(RN1F-R6.1)*%
X134431000Y-129032000D03*
%TO.P,RN1,7,R7.1*%
%TO.N,J400 (2): REF GND*%
X134431000Y-130302000D03*
%TO.P,RN1,8,R8.1*%
%TO.N,Net-(RN1F-R6.1)*%
X134431000Y-131572000D03*
%TO.P,RN1,9,R8.2*%
%TO.N,J400 (1): Temp*%
X139381000Y-131572000D03*
%TO.P,RN1,10,R7.2*%
X139381000Y-130302000D03*
%TO.P,RN1,11,R6.2*%
%TO.N,Net-(RN1C-R3.2)*%
X139381000Y-129032000D03*
%TO.P,RN1,12,R5.2*%
%TO.N,J400 (1): Temp*%
X139381000Y-127762000D03*
%TO.P,RN1,13,R4.2*%
%TO.N,unconnected-(RN1D-R4.2-Pad13)*%
X139381000Y-126492000D03*
%TO.P,RN1,14,R3.2*%
%TO.N,Net-(RN1C-R3.2)*%
X139381000Y-125222000D03*
%TO.P,RN1,15,R2.2*%
%TO.N,J400 (1): Temp*%
X139381000Y-123952000D03*
%TO.P,RN1,16,R1.2*%
%TO.N,+7V REF*%
X139381000Y-122682000D03*
%TD*%
D28*
%TO.P,R2,2*%
%TO.N,Net-(U402B-+)*%
X138368500Y-106807000D03*
%TO.P,R2,1*%
%TO.N,+7V REF*%
X135443500Y-106807000D03*
%TD*%
D21*
%TO.P,R417,1*%
%TO.N,Net-(Q401-E)*%
X158369000Y-117705500D03*
%TO.P,R417,2*%
%TO.N,ZD-*%
X158369000Y-119530500D03*
%TD*%
D26*
%TO.P,TP2,1,1*%
%TO.N,J400 (2): REF GND*%
X143891000Y-131445000D03*
%TD*%
D28*
%TO.P,R419,1*%
%TO.N,J400 (2): REF GND*%
X139888500Y-100203000D03*
%TO.P,R419,2*%
%TO.N,-15*%
X142813500Y-100203000D03*
%TD*%
D22*
%TO.P,C3,1*%
%TO.N,Net-(U402B--)*%
X147955000Y-110284999D03*
%TO.P,C3,2*%
%TO.N,Net-(D400-A)*%
X147955000Y-113235001D03*
%TD*%
D29*
%TO.P,C413,1*%
%TO.N,+18*%
X151686999Y-106934000D03*
%TO.P,C413,2*%
%TO.N,J400 (2): REF GND*%
X154637001Y-106934000D03*
%TD*%
D30*
%TO.P,C414,1*%
%TO.N,Net-(C414-Pad1)*%
X161163000Y-106172000D03*
%TO.P,C414,2*%
%TO.N,J400 (2): REF GND*%
X158212998Y-106172000D03*
%TD*%
D26*
%TO.P,TP6,1,1*%
%TO.N,Net-(D401-A)*%
X174955200Y-100177600D03*
%TD*%
D31*
%TO.P,D400,1,K*%
%TO.N,+7V REF*%
X154812000Y-117475000D03*
%TO.P,D400,2,A*%
%TO.N,Net-(D400-A)*%
X151512000Y-117475000D03*
%TD*%
D32*
%TO.P,R421,1*%
%TO.N,Net-(Q1-S)*%
X161036000Y-97940500D03*
%TO.P,R421,2*%
%TO.N,+7V REF*%
X161036000Y-96115500D03*
%TD*%
D26*
%TO.P,TP3,1,1*%
%TO.N,ZD-*%
X143129000Y-115443000D03*
%TD*%
%TO.P,TP4,1,1*%
%TO.N,J400 (2): REF GND*%
X143129000Y-117983000D03*
%TD*%
D33*
%TO.P,Q401,1,B*%
%TO.N,J401 (1): Heater*%
X171715000Y-95122000D03*
D34*
%TO.P,Q401,2,C*%
%TO.N,+18H*%
X173994999Y-95122000D03*
%TO.P,Q401,3,E*%
%TO.N,Net-(Q401-E)*%
X176275000Y-95122000D03*
%TD*%
D26*
%TO.P,TP5,1,1*%
%TO.N,Net-(Q401-E)*%
X177495200Y-100177600D03*
%TD*%
D32*
%TO.P,R420,1*%
%TO.N,Net-(Q401-E)*%
X163703000Y-112037500D03*
%TO.P,R420,2*%
%TO.N,Net-(C412-Pad1)*%
X163703000Y-110212500D03*
%TD*%
%TO.P,R4,1*%
%TO.N,Net-(U402A-+)*%
X158369000Y-110132500D03*
%TO.P,R4,2*%
%TO.N,Net-(C414-Pad1)*%
X158369000Y-108307500D03*
%TD*%
D30*
%TO.P,C411,1*%
%TO.N,Net-(U402B-+)*%
X145620001Y-108331000D03*
%TO.P,C411,2*%
%TO.N,J400 (2): REF GND*%
X142669999Y-108331000D03*
%TD*%
D26*
%TO.P,TP1,1,1*%
%TO.N,J400 (1): Temp*%
X143891000Y-128905000D03*
%TD*%
D21*
%TO.P,R418,1*%
%TO.N,J401 (1): Heater*%
X170688000Y-97616000D03*
%TO.P,R418,2*%
%TO.N,Net-(C1-Pad1)*%
X170688000Y-99441000D03*
%TD*%
D35*
%TO.P,Q1,1,D*%
%TO.N,+18*%
X163400500Y-94554000D03*
%TO.P,Q1,2,S*%
%TO.N,Net-(Q1-S)*%
X163400500Y-96454000D03*
%TO.P,Q1,3,G*%
%TO.N,+7V REF*%
X165275501Y-95504000D03*
%TD*%
D29*
%TO.P,C4,2*%
%TO.N,J400 (2): REF GND*%
X145239001Y-124460000D03*
%TO.P,C4,1*%
%TO.N,J400 (1): Temp*%
X142288999Y-124460000D03*
%TD*%
D36*
%TO.P,JP1,2,B*%
%TO.N,+7V REF*%
X168340799Y-111252000D03*
%TO.P,JP1,1,A*%
%TO.N,Net-(JP1-A)*%
X170880799Y-111252000D03*
%TD*%
D30*
%TO.P,C5,1*%
%TO.N,ZD-*%
X138381001Y-114427000D03*
%TO.P,C5,2*%
%TO.N,J400 (2): REF GND*%
X135430999Y-114427000D03*
%TD*%
D25*
%TO.P,J401,1,Pin_1*%
%TO.N,J401 (1): Heater*%
X148090000Y-99210000D03*
D26*
%TO.P,J401,2,Pin_2*%
%TO.N,+18*%
X150630000Y-99210000D03*
%TO.P,J401,3,Pin_3*%
%TO.N,J401 (3): GND Heater*%
X153170000Y-99210000D03*
%TO.P,J401,4,Pin_4*%
%TO.N,-15*%
X155710000Y-99210000D03*
%TO.P,J401,5,Pin_5*%
%TO.N,+18H*%
X158250000Y-99210000D03*
%TD*%
D37*
%TO.N,J400 (2): REF GND*%
X145948499Y-123952001D03*
X145948500Y-124968001D03*
X145948500Y-124459998D03*
%TO.N,Net-(Q401-E)*%
X176657000Y-112903000D03*
X176657001Y-113918999D03*
X176657000Y-113411000D03*
%TO.N,Net-(D401-A)*%
X175768000Y-110998000D03*
X175768000Y-111506000D03*
X175768001Y-112013999D03*
%TO.N,J400 (2): REF GND*%
X153924000Y-106425999D03*
X153924001Y-107441999D03*
X153924000Y-106934000D03*
%TO.N,+7V REF*%
X160553400Y-95453201D03*
X137718800Y-122682000D03*
X154178000Y-116967000D03*
X165862000Y-110744001D03*
X154178000Y-117983000D03*
X154178000Y-117475000D03*
X138226800Y-122682000D03*
X137210801Y-122682001D03*
X165862001Y-111760000D03*
X165862000Y-111252001D03*
X161061399Y-95453200D03*
X161569399Y-95453200D03*
%TO.N,J400 (2): REF GND*%
X139215500Y-100203001D03*
X159052999Y-106172000D03*
X159052999Y-106680000D03*
X145033999Y-103759001D03*
X159052998Y-105664000D03*
X145034000Y-104267000D03*
X141554199Y-107822998D03*
X145034000Y-104775000D03*
X132588000Y-127635000D03*
X132588000Y-127127000D03*
X141554199Y-108330999D03*
X141554200Y-108838998D03*
X139215501Y-100710998D03*
X132588000Y-126619000D03*
X139215500Y-99694998D03*
%TO.N,J400 (1): Temp*%
X141224000Y-127254000D03*
X151511000Y-114935000D03*
X151511000Y-114427000D03*
X141224000Y-127762000D03*
X141224000Y-128270000D03*
X151511000Y-115443000D03*
%TO.N,Net-(D401-A)*%
X167386000Y-99314000D03*
X167894000Y-99314000D03*
X168402000Y-99314000D03*
%TO.N,unconnected-(J400-Pin_2-Pad2)*%
X167672582Y-129230870D03*
X168660411Y-129536199D03*
X173263271Y-126836632D03*
X170688000Y-124519986D03*
X168216436Y-124941614D03*
X167352836Y-120871572D03*
X170599625Y-120329957D03*
X168660411Y-128710015D03*
X165981604Y-126797168D03*
X170561000Y-128727200D03*
X173176832Y-123063000D03*
X164610004Y-125450968D03*
X165422804Y-125450968D03*
X170561000Y-129540000D03*
X168216436Y-124103414D03*
X173837232Y-123589004D03*
X164613805Y-123550379D03*
X164914804Y-126466968D03*
X173168239Y-125997718D03*
X174646231Y-125489593D03*
X168173032Y-120973172D03*
X171946664Y-120886733D03*
X174650032Y-123589004D03*
X166768636Y-120287372D03*
X171587454Y-119809102D03*
X171107750Y-120981765D03*
X165422028Y-121628604D03*
X165439989Y-123550379D03*
X171907200Y-128168400D03*
X166083204Y-125976972D03*
X167683036Y-119804772D03*
X170180000Y-124519986D03*
X173278432Y-122242804D03*
X173820047Y-125489593D03*
X172521400Y-120311996D03*
X171043600Y-124942600D03*
X168699036Y-120312772D03*
X171043600Y-124104400D03*
X174340902Y-126477422D03*
X166091797Y-123042254D03*
X164919134Y-122562550D03*
X173862632Y-121658604D03*
X174345232Y-122573004D03*
X166738636Y-128727976D03*
X167313372Y-128153239D03*
X165996765Y-122203340D03*
X172491400Y-128752600D03*
X169630018Y-124519986D03*
X165397404Y-127381368D03*
X173838008Y-127411368D03*
X171577000Y-129235200D03*
X170599625Y-119503773D03*
X168572036Y-124519000D03*
X169080036Y-124519000D03*
X171087004Y-128066800D03*
X168699036Y-119499972D03*
X168152286Y-128058207D03*
%TO.N,-15*%
X141743750Y-104267000D03*
X138545250Y-103505000D03*
X143510000Y-100710999D03*
X141743751Y-104774999D03*
X143509999Y-99695000D03*
X138545250Y-102997000D03*
X138545249Y-102489001D03*
X143510000Y-100203001D03*
X141743750Y-103759000D03*
%TO.N,Net-(Q401-E)*%
X163195000Y-111379000D03*
X164211000Y-111379000D03*
X172339000Y-100330000D03*
X171577000Y-101092000D03*
X163703000Y-111379000D03*
X171958000Y-100711000D03*
%TO.N,Net-(C1-Pad1)*%
X170149185Y-100077900D03*
X171226815Y-100077900D03*
X156210000Y-113284000D03*
X155067000Y-113284000D03*
X155637000Y-113284000D03*
X170688000Y-100077900D03*
%TD*%
D38*
%TO.N,Net-(JP1-A)*%
X171565750Y-111771250D02*
X171565750Y-111252000D01*
X169623018Y-113713982D02*
X171565750Y-111771250D01*
D39*
%TO.N,ZD-*%
X165499032Y-120396000D02*
X167558266Y-122455234D01*
X159385000Y-120396000D02*
X165499032Y-120396000D01*
X158519500Y-119530500D02*
X159385000Y-120396000D01*
X158369000Y-119530500D02*
X158519500Y-119530500D01*
%TO.N,Net-(JP1-A)*%
X169623018Y-121599986D02*
X169623018Y-113713982D01*
D38*
X171565750Y-111898250D02*
X171565750Y-111517250D01*
%TO.N,ZD-*%
X148844000Y-118745000D02*
X148844000Y-119530500D01*
X145542000Y-115443000D02*
X148844000Y-118745000D01*
X139713100Y-119530500D02*
X138800600Y-118618000D01*
X158369000Y-119530500D02*
X139713100Y-119530500D01*
%TO.N,J401 (1): Heater*%
X171715000Y-96636000D02*
X171715000Y-95122000D01*
%TO.N,Net-(Q401-E)*%
X176276000Y-96393000D02*
X176276000Y-95123000D01*
%TO.N,Net-(JP1-A)*%
X171565750Y-112025250D02*
X171565750Y-111252000D01*
%TO.N,Net-(C414-Pad1)*%
X171704000Y-107823000D02*
X160100000Y-107823000D01*
X174498000Y-107823000D02*
X171704000Y-107823000D01*
X171577000Y-106172000D02*
X171577000Y-107823000D01*
%TO.N,ZD-*%
X143129000Y-115443000D02*
X145542000Y-115443000D01*
X145542000Y-112672500D02*
X145542000Y-115443000D01*
%TO.N,Net-(U402A--)*%
X157782999Y-112062999D02*
X158369000Y-112062999D01*
X157226000Y-111506000D02*
X157782999Y-112062999D01*
X155637000Y-111506000D02*
X157226000Y-111506000D01*
X159463001Y-112727001D02*
X161163000Y-112727001D01*
X158798999Y-112062999D02*
X159463001Y-112727001D01*
X158369000Y-112062999D02*
X158798999Y-112062999D01*
%TO.N,J400 (1): Temp*%
X142288999Y-124460000D02*
X141224000Y-124460000D01*
X141224000Y-131064000D02*
X141224000Y-124460000D01*
X140716000Y-131572000D02*
X141224000Y-131064000D01*
X139381000Y-131572000D02*
X140716000Y-131572000D01*
X140716000Y-123952000D02*
X141224000Y-124460000D01*
X140716000Y-123952000D02*
X139381000Y-123952000D01*
D39*
%TO.N,J400 (2): REF GND*%
X169613014Y-130106986D02*
X169613014Y-127439986D01*
X167386000Y-132334000D02*
X169613014Y-130106986D01*
X163322000Y-132334000D02*
X167386000Y-132334000D01*
%TO.N,J400 (1): Temp*%
X165619004Y-128524000D02*
X167558266Y-126584738D01*
X161163000Y-128524000D02*
X165619004Y-128524000D01*
X159512000Y-126873000D02*
X161163000Y-128524000D01*
D38*
X159512000Y-126873000D02*
X150147000Y-126873000D01*
X150147000Y-126873000D02*
X148080000Y-128940000D01*
%TO.N,Net-(U402B-+)*%
X136906000Y-113157000D02*
X138861800Y-111201200D01*
X136906000Y-120396000D02*
X136906000Y-113157000D01*
X138861800Y-111201200D02*
X138861800Y-110998000D01*
D39*
X160968986Y-124519986D02*
X166703018Y-124519986D01*
X159385000Y-122936000D02*
X160968986Y-124519986D01*
D38*
X137922000Y-121412000D02*
X136906000Y-120396000D01*
X159385000Y-122936000D02*
X157861000Y-121412000D01*
X157861000Y-121412000D02*
X137922000Y-121412000D01*
%TO.N,J400 (2): REF GND*%
X163322000Y-132334000D02*
X156464000Y-132334000D01*
X156464000Y-132334000D02*
X153160000Y-129030000D01*
D40*
X145718000Y-123952001D02*
X145210000Y-124460001D01*
D38*
X145440500Y-124460000D02*
X145210000Y-124460001D01*
D40*
X145718000Y-124968001D02*
X145210000Y-124460001D01*
X145948499Y-123952001D02*
X145718000Y-123952001D01*
X145948500Y-124968001D02*
X145718000Y-124968001D01*
D38*
X135255000Y-102997000D02*
X135993500Y-102997000D01*
X131445000Y-106807000D02*
X135255000Y-102997000D01*
X131445000Y-126619000D02*
X131445000Y-106807000D01*
X131953000Y-127127000D02*
X131445000Y-126619000D01*
X132588000Y-127127000D02*
X131953000Y-127127000D01*
D39*
%TO.N,Net-(Q401-E)*%
X176657000Y-123190000D02*
X175327014Y-124519986D01*
X175327014Y-124519986D02*
X172543018Y-124519986D01*
X176657000Y-117475000D02*
X176657000Y-123190000D01*
%TO.N,Net-(C414-Pad1)*%
X173627032Y-128524000D02*
X171687770Y-126584738D01*
X176657000Y-128524000D02*
X173627032Y-128524000D01*
X178054000Y-127127000D02*
X176657000Y-128524000D01*
X178054000Y-120015000D02*
X178054000Y-127127000D01*
D38*
X159615500Y-108307500D02*
X158369000Y-108307500D01*
X160100000Y-107823000D02*
X159615500Y-108307500D01*
X178054000Y-111379000D02*
X174498000Y-107823000D01*
X178054000Y-120015000D02*
X178054000Y-111379000D01*
%TO.N,Net-(Q401-E)*%
X176657000Y-117475000D02*
X176657000Y-112903000D01*
D39*
%TO.N,Net-(D401-A)*%
X175768000Y-118375004D02*
X171687770Y-122455234D01*
D38*
X175768000Y-116586000D02*
X175768000Y-110998000D01*
D39*
X175768000Y-116586000D02*
X175768000Y-118375004D01*
D38*
%TO.N,Net-(U402B--)*%
X146962500Y-110847500D02*
X147574000Y-110236000D01*
X145542000Y-110847500D02*
X146962500Y-110847500D01*
X147574000Y-110236000D02*
X150687000Y-110236000D01*
%TO.N,+18*%
X153162000Y-108458000D02*
X153162000Y-111506000D01*
X151686999Y-106982999D02*
X153162000Y-108458000D01*
X153162000Y-111506000D02*
X151892000Y-112776000D01*
X151892000Y-112776000D02*
X150687000Y-112776000D01*
X151686999Y-106934000D02*
X151686999Y-106982999D01*
%TO.N,J401 (3): GND Heater*%
X167894000Y-96012000D02*
X167894000Y-95251000D01*
X162814000Y-101092000D02*
X167894000Y-96012000D01*
X155052000Y-101092000D02*
X162814000Y-101092000D01*
X153170000Y-99210000D02*
X155052000Y-101092000D01*
%TO.N,Net-(Q1-S)*%
X162536500Y-97940500D02*
X161036000Y-97940500D01*
X163400500Y-97076500D02*
X162536500Y-97940500D01*
X163400500Y-96454000D02*
X163400500Y-97076500D01*
%TO.N,+7V REF*%
X161620199Y-95504000D02*
X161569399Y-95453200D01*
X165275501Y-95504000D02*
X161620199Y-95504000D01*
%TO.N,J400 (1): Temp*%
X139381000Y-127762000D02*
X141224000Y-127762000D01*
%TO.N,Net-(U402A--)*%
X154074500Y-112244500D02*
X154074500Y-114935000D01*
X154813000Y-111506000D02*
X154074500Y-112244500D01*
X155637000Y-111506000D02*
X154813000Y-111506000D01*
%TO.N,J401 (1): Heater*%
X170735000Y-97616000D02*
X171715000Y-96636000D01*
X170688000Y-97616000D02*
X170862000Y-97616000D01*
%TO.N,Net-(D400-A)*%
X148844000Y-111506000D02*
X147955000Y-112395000D01*
X147955000Y-112395000D02*
X147955000Y-113235001D01*
X150687000Y-111506000D02*
X148844000Y-111506000D01*
X150749000Y-117475000D02*
X151512000Y-117475000D01*
X147955000Y-114681000D02*
X150749000Y-117475000D01*
X147955000Y-113235001D02*
X147955000Y-114681000D01*
D40*
%TO.N,+7V REF*%
X135443500Y-108828300D02*
X135443500Y-106934000D01*
X135001000Y-109270800D02*
X135443500Y-108828300D01*
%TO.N,Net-(U402B-+)*%
X138368500Y-108828300D02*
X138368500Y-106934000D01*
X138811000Y-109270800D02*
X138368500Y-108828300D01*
D38*
%TO.N,J400 (2): REF GND*%
X135430999Y-116460801D02*
X135430999Y-114554000D01*
X134258300Y-117633500D02*
X135430999Y-116460801D01*
X133943500Y-117633500D02*
X134258300Y-117633500D01*
%TO.N,ZD-*%
X139868500Y-117948300D02*
X139868500Y-118618000D01*
X138381001Y-114554000D02*
X138381001Y-116460801D01*
X138381001Y-116460801D02*
X139868500Y-117948300D01*
%TO.N,Net-(U402B-+)*%
X145034000Y-108966000D02*
X150687000Y-108966000D01*
X142494000Y-111506000D02*
X145034000Y-108966000D01*
X139893900Y-111506000D02*
X142494000Y-111506000D01*
%TO.N,Net-(U402A-+)*%
X158265500Y-110236000D02*
X158369000Y-110132500D01*
X155637000Y-110236000D02*
X158265500Y-110236000D01*
D40*
%TO.N,J400 (2): REF GND*%
X153924000Y-106425999D02*
X154154499Y-106425999D01*
X153924001Y-107441999D02*
X153924001Y-106426001D01*
X154154499Y-106425999D02*
X154662500Y-106934000D01*
X153924001Y-106426001D02*
X153924000Y-106425999D01*
X154154501Y-107441999D02*
X154662500Y-106934000D01*
X153924001Y-107441999D02*
X154154501Y-107441999D01*
D38*
X154432000Y-106934000D02*
X154662500Y-106934000D01*
%TO.N,Net-(Q401-E)*%
X163703000Y-113411000D02*
X163703000Y-112037500D01*
X159408500Y-117705500D02*
X163703000Y-113411000D01*
X158369000Y-117705500D02*
X159408500Y-117705500D01*
X171577000Y-101092000D02*
X176276000Y-96393000D01*
D40*
%TO.N,Net-(C1-Pad1)*%
X170149185Y-100077900D02*
X171226815Y-100077900D01*
X171226815Y-99979815D02*
X170688000Y-99441000D01*
X171226815Y-100077900D02*
X171226815Y-99979815D01*
X170149185Y-99979815D02*
X170688000Y-99441000D01*
X170149185Y-100077900D02*
X170149185Y-99979815D01*
D38*
X170688000Y-99925500D02*
X170688000Y-99441000D01*
D40*
%TO.N,+7V REF*%
X160553401Y-95453200D02*
X160553400Y-95453201D01*
X166201501Y-110744001D02*
X165862000Y-110744001D01*
X161569399Y-95453200D02*
X161569399Y-95582101D01*
X161569399Y-95582101D02*
X161036000Y-96115500D01*
D38*
X165862000Y-111759999D02*
X165862001Y-111760000D01*
D40*
X154686000Y-117475000D02*
X154178000Y-117983000D01*
X160553400Y-95453201D02*
X160553400Y-95632900D01*
X139381000Y-122682000D02*
X137210802Y-122682000D01*
X160553400Y-95632900D02*
X161036000Y-96115500D01*
X161569399Y-95453200D02*
X160553401Y-95453200D01*
X154812000Y-117475000D02*
X154686000Y-117475000D01*
X166709500Y-111252000D02*
X166201500Y-111760000D01*
X166709500Y-111252000D02*
X166201501Y-110744001D01*
X165862000Y-110744001D02*
X165862000Y-111759999D01*
X154178000Y-116967000D02*
X154178000Y-117983000D01*
X166201500Y-111760000D02*
X165862001Y-111760000D01*
X154686000Y-117475000D02*
X154178000Y-116967000D01*
%TO.N,J400 (2): REF GND*%
X159052999Y-106680000D02*
X158720999Y-106679999D01*
D38*
X144526000Y-104267000D02*
X144295500Y-104267000D01*
X132715000Y-127762000D02*
X132588000Y-127635000D01*
X133096000Y-130302000D02*
X134431000Y-130302000D01*
X154432000Y-108966000D02*
X154051000Y-108585000D01*
D40*
X158720999Y-106679999D02*
X158212998Y-106172000D01*
D38*
X132588000Y-127127000D02*
X132588000Y-127635000D01*
D40*
X145033999Y-104774999D02*
X145034000Y-104775000D01*
X158720999Y-105664000D02*
X158212998Y-106172000D01*
X139215500Y-99694998D02*
X139446000Y-99694998D01*
X141935199Y-107823000D02*
X141935200Y-108838999D01*
D38*
X154051000Y-108585000D02*
X154051000Y-107950000D01*
D40*
X159052999Y-106680000D02*
X159052998Y-105664000D01*
X142161998Y-107823001D02*
X142669998Y-108330999D01*
X145033999Y-103759001D02*
X144803499Y-103759001D01*
D38*
X134431000Y-126492000D02*
X132842000Y-126492000D01*
D40*
X144803499Y-103759001D02*
X144295500Y-104267000D01*
X144803500Y-104775000D02*
X144295500Y-104267000D01*
X139215501Y-100710998D02*
X139446001Y-100710998D01*
D38*
X132588000Y-124460000D02*
X132588000Y-126619000D01*
X132588000Y-127635000D02*
X132588000Y-129794000D01*
D40*
X141935200Y-108838999D02*
X142161998Y-108838999D01*
X139446000Y-99694998D02*
X139954000Y-100202999D01*
D38*
X134431000Y-123952000D02*
X133096000Y-123952000D01*
X133096000Y-123952000D02*
X132588000Y-124460000D01*
D40*
X145034000Y-104775000D02*
X144803500Y-104775000D01*
D38*
X139723500Y-100202999D02*
X139954000Y-100202999D01*
X132588000Y-126619000D02*
X132588000Y-127127000D01*
D40*
X141935199Y-107823000D02*
X142161998Y-107823001D01*
D38*
X154051000Y-107950000D02*
X154637001Y-107363999D01*
X155637000Y-108966000D02*
X154432000Y-108966000D01*
X132588000Y-129794000D02*
X133096000Y-130302000D01*
X132715000Y-126492000D02*
X132588000Y-126619000D01*
D40*
X145033999Y-103759001D02*
X145033999Y-104774999D01*
X139446001Y-100710998D02*
X139954000Y-100202999D01*
D38*
X134431000Y-127762000D02*
X132842000Y-127762000D01*
D40*
X159052998Y-105664000D02*
X158720999Y-105664000D01*
%TO.N,J400 (1): Temp*%
X151511000Y-114935000D02*
X151511000Y-115443000D01*
D38*
X139381000Y-130302000D02*
X141097000Y-130302000D01*
D40*
X151511000Y-114935000D02*
X151511000Y-114427000D01*
X152019000Y-114935000D02*
X151511000Y-114427000D01*
X152019000Y-114935000D02*
X151511000Y-115443000D01*
X152249500Y-114935000D02*
X152019000Y-114935000D01*
D38*
%TO.N,ZD-*%
X140122500Y-118364000D02*
X139868500Y-118618000D01*
%TO.N,Net-(C412-Pad1)*%
X162354999Y-109776999D02*
X162790500Y-110212500D01*
X162790500Y-110212500D02*
X163703000Y-110212500D01*
X161163000Y-109776999D02*
X162354999Y-109776999D01*
%TO.N,+18*%
X151900000Y-106720999D02*
X151686999Y-106934000D01*
X151900000Y-104013000D02*
X151900000Y-106720999D01*
X151686999Y-106934000D02*
X151686999Y-106631001D01*
X150630000Y-100846000D02*
X150630000Y-99210000D01*
X151384000Y-101600000D02*
X150630000Y-100846000D01*
D39*
X151900000Y-104013000D02*
X151900000Y-102116000D01*
X151900000Y-102116000D02*
X151384000Y-101600000D01*
D40*
%TO.N,Net-(D401-A)*%
X168402000Y-99059000D02*
X167894000Y-98551000D01*
X167386000Y-99059000D02*
X167894000Y-98551000D01*
X167386000Y-99314000D02*
X167386000Y-99059000D01*
X168402000Y-99314000D02*
X168402000Y-99059000D01*
D38*
X167894000Y-99314000D02*
X167894000Y-98551000D01*
D40*
%TO.N,-15*%
X138314749Y-102489001D02*
X137806750Y-102997000D01*
X143509999Y-99695000D02*
X143509999Y-100710998D01*
X138545249Y-102489001D02*
X138545249Y-103504999D01*
X138545249Y-102489001D02*
X138314749Y-102489001D01*
X143279499Y-99695000D02*
X142771500Y-100202999D01*
X143509999Y-100710998D02*
X143510000Y-100710999D01*
X143279500Y-100710999D02*
X142771500Y-100202999D01*
X138545249Y-103504999D02*
X138545250Y-103505000D01*
X138314750Y-103505000D02*
X137806750Y-102997000D01*
X141974251Y-104774999D02*
X142482250Y-104267000D01*
X141743750Y-103759000D02*
X141974250Y-103759000D01*
X141743751Y-104774999D02*
X141743751Y-103759001D01*
X141743751Y-103759001D02*
X141743750Y-103759000D01*
D38*
X138037250Y-102997000D02*
X137806750Y-102997000D01*
D40*
X143509999Y-99695000D02*
X143279499Y-99695000D01*
D38*
X142251750Y-104267000D02*
X142482250Y-104267000D01*
D40*
X141743751Y-104774999D02*
X141974251Y-104774999D01*
D38*
X143002000Y-100202999D02*
X142771500Y-100202999D01*
D40*
X141974250Y-103759000D02*
X142482250Y-104267000D01*
X138545250Y-103505000D02*
X138314750Y-103505000D01*
X143510000Y-100710999D02*
X143279500Y-100710999D01*
%TO.N,Net-(Q401-E)*%
X176276000Y-95123000D02*
X176275000Y-95122000D01*
X163195000Y-111379000D02*
X164211000Y-111379000D01*
X163195000Y-111379000D02*
X163195000Y-111529500D01*
X164211000Y-111529500D02*
X163703000Y-112037500D01*
X163195000Y-111529500D02*
X163703000Y-112037500D01*
X164211000Y-111379000D02*
X164211000Y-111529500D01*
%TO.N,Net-(C1-Pad1)*%
X156311600Y-112776000D02*
X156311600Y-113182400D01*
X154965400Y-113182400D02*
X155067000Y-113284000D01*
X155637000Y-112776000D02*
X156311600Y-112776000D01*
D38*
X158369000Y-115013001D02*
X157939001Y-115013001D01*
D40*
X155637000Y-112776000D02*
X154965400Y-112776000D01*
X154965400Y-112776000D02*
X154965400Y-113182400D01*
D38*
X157939001Y-115013001D02*
X156210000Y-113284000D01*
D40*
X156210000Y-113284000D02*
X155067000Y-113284000D01*
X156311600Y-113182400D02*
X156210000Y-113284000D01*
D38*
%TO.N,Net-(RN1C-R3.2)*%
X139381000Y-125222000D02*
X138176000Y-125222000D01*
X138176000Y-129032000D02*
X139381000Y-129032000D01*
X137541000Y-128397000D02*
X138176000Y-129032000D01*
X137541000Y-125857000D02*
X137541000Y-128397000D01*
X138176000Y-125222000D02*
X137541000Y-125857000D01*
%TO.N,Net-(RN1F-R6.1)*%
X135636000Y-131572000D02*
X134431000Y-131572000D01*
X134431000Y-129032000D02*
X135636000Y-129032000D01*
X135636000Y-129032000D02*
X136271000Y-129667000D01*
X136271000Y-129667000D02*
X136271000Y-130937000D01*
X136271000Y-130937000D02*
X135636000Y-131572000D01*
%TO.N,Net-(RN1A-R1.1)*%
X136271000Y-123317000D02*
X136271000Y-124587000D01*
X135636000Y-125222000D02*
X134431000Y-125222000D01*
X134431000Y-122682000D02*
X135636000Y-122682000D01*
X136271000Y-124587000D02*
X135636000Y-125222000D01*
X135636000Y-122682000D02*
X136271000Y-123317000D01*
%TO.N,Net-(C414-Pad1)*%
X161163000Y-106172000D02*
X161163000Y-107793999D01*
D39*
%TO.N,+18*%
X163007000Y-94554000D02*
X163400500Y-94554000D01*
D38*
X162179000Y-93726000D02*
X163007000Y-94554000D01*
X154194000Y-93726000D02*
X162179000Y-93726000D01*
X150630000Y-97290000D02*
X154194000Y-93726000D01*
X150630000Y-99210000D02*
X150630000Y-97290000D01*
%TD*%
%TA.AperFunction,Conductor*%
%TO.N,unconnected-(J400-Pin_2-Pad2)*%
G36*
X171000785Y-127630359D02*
G01*
X171003630Y-127632277D01*
X171060131Y-127671840D01*
X171258440Y-127764313D01*
X171469793Y-127820945D01*
X171469797Y-127820945D01*
X171469800Y-127820946D01*
X171687767Y-127840015D01*
X171687770Y-127840015D01*
X171687773Y-127840015D01*
X171905737Y-127820946D01*
X171905737Y-127820945D01*
X171905747Y-127820945D01*
X171983819Y-127800025D01*
X172044918Y-127803227D01*
X172079444Y-127825648D01*
X172953287Y-128699491D01*
X172981064Y-128754008D01*
X172971493Y-128814440D01*
X172942071Y-128849150D01*
X172705242Y-129023937D01*
X172699125Y-129028108D01*
X172360053Y-129241162D01*
X172353658Y-129244854D01*
X171999617Y-129431969D01*
X171992961Y-129435175D01*
X171625911Y-129595317D01*
X171619020Y-129598021D01*
X171241056Y-129730277D01*
X171233981Y-129732460D01*
X170847181Y-129836102D01*
X170839963Y-129837749D01*
X170446503Y-129912196D01*
X170439182Y-129913300D01*
X170323598Y-129926323D01*
X170263657Y-129914049D01*
X170222377Y-129868887D01*
X170213514Y-129827945D01*
X170213514Y-128604631D01*
X170232421Y-128546440D01*
X170255727Y-128523537D01*
X170429895Y-128401584D01*
X170584616Y-128246863D01*
X170710120Y-128067625D01*
X170802593Y-127869316D01*
X170851240Y-127687761D01*
X170884563Y-127636450D01*
X170941685Y-127614523D01*
X171000785Y-127630359D01*
G37*
%TD.AperFunction*%
%TA.AperFunction,Conductor*%
G36*
X168358748Y-127634322D02*
G01*
X168393843Y-127684441D01*
X168394796Y-127687764D01*
X168443443Y-127869316D01*
X168535916Y-128067625D01*
X168661420Y-128246863D01*
X168816141Y-128401584D01*
X168970299Y-128509527D01*
X169007120Y-128558389D01*
X169012514Y-128590621D01*
X169012514Y-129817243D01*
X168993607Y-129875434D01*
X168983520Y-129887244D01*
X168977341Y-129893422D01*
X168922826Y-129921199D01*
X168896255Y-129921796D01*
X168820851Y-129913300D01*
X168813530Y-129912196D01*
X168420071Y-129837749D01*
X168412853Y-129836102D01*
X168026053Y-129732460D01*
X168018978Y-129730277D01*
X167641014Y-129598021D01*
X167634123Y-129595317D01*
X167267073Y-129435175D01*
X167260427Y-129431974D01*
X166906365Y-129244847D01*
X166899989Y-129241167D01*
X166649187Y-129083577D01*
X166560909Y-129028108D01*
X166554792Y-129023937D01*
X166309908Y-128843205D01*
X166274315Y-128793438D01*
X166274773Y-128732254D01*
X166298690Y-128693548D01*
X167166592Y-127825646D01*
X167221107Y-127797871D01*
X167262214Y-127800024D01*
X167340289Y-127820945D01*
X167340293Y-127820945D01*
X167340296Y-127820946D01*
X167558263Y-127840015D01*
X167558266Y-127840015D01*
X167558269Y-127840015D01*
X167776235Y-127820946D01*
X167776236Y-127820945D01*
X167776243Y-127820945D01*
X167987596Y-127764313D01*
X168185905Y-127671840D01*
X168242388Y-127632289D01*
X168300896Y-127614402D01*
X168358748Y-127634322D01*
G37*
%TD.AperFunction*%
%TA.AperFunction,Conductor*%
G36*
X174994253Y-125139393D02*
G01*
X175030217Y-125188893D01*
X175034439Y-125230571D01*
X175023331Y-125329153D01*
X175022228Y-125336473D01*
X174947781Y-125729931D01*
X174946134Y-125737149D01*
X174842492Y-126123949D01*
X174840309Y-126131024D01*
X174708053Y-126508988D01*
X174705349Y-126515879D01*
X174545207Y-126882929D01*
X174542001Y-126889585D01*
X174354886Y-127243626D01*
X174351194Y-127250021D01*
X174138140Y-127589093D01*
X174133969Y-127595210D01*
X173953237Y-127840094D01*
X173903470Y-127875687D01*
X173842286Y-127875229D01*
X173803578Y-127851310D01*
X172928680Y-126976412D01*
X172900903Y-126921895D01*
X172903057Y-126880787D01*
X172923977Y-126802715D01*
X172927864Y-126758284D01*
X172943047Y-126584741D01*
X172943047Y-126584734D01*
X172923978Y-126366768D01*
X172923977Y-126366765D01*
X172923977Y-126366761D01*
X172867345Y-126155408D01*
X172774872Y-125957100D01*
X172735322Y-125900617D01*
X172717434Y-125842106D01*
X172737354Y-125784254D01*
X172787475Y-125749160D01*
X172790752Y-125748219D01*
X172972348Y-125699561D01*
X173170657Y-125607088D01*
X173349895Y-125481584D01*
X173504616Y-125326863D01*
X173619563Y-125162702D01*
X173668428Y-125125880D01*
X173700659Y-125120486D01*
X174936062Y-125120486D01*
X174994253Y-125139393D01*
G37*
%TD.AperFunction*%
%TA.AperFunction,Conductor*%
G36*
X165603568Y-125139393D02*
G01*
X165626473Y-125162702D01*
X165738848Y-125323191D01*
X165741420Y-125326863D01*
X165896141Y-125481584D01*
X165896144Y-125481586D01*
X165896145Y-125481587D01*
X165935836Y-125509379D01*
X166075379Y-125607088D01*
X166273688Y-125699561D01*
X166455240Y-125748207D01*
X166506553Y-125781531D01*
X166528480Y-125838653D01*
X166512644Y-125897753D01*
X166510713Y-125900617D01*
X166471161Y-125957104D01*
X166471158Y-125957110D01*
X166378692Y-126155404D01*
X166322057Y-126366768D01*
X166302989Y-126584734D01*
X166302989Y-126584741D01*
X166322057Y-126802710D01*
X166342977Y-126880787D01*
X166339774Y-126941888D01*
X166317354Y-126976411D01*
X165450512Y-127843255D01*
X165395995Y-127871033D01*
X165335563Y-127861462D01*
X165300853Y-127832040D01*
X165126065Y-127595210D01*
X165121894Y-127589093D01*
X165063221Y-127495716D01*
X164908830Y-127250004D01*
X164905159Y-127243646D01*
X164718022Y-126889564D01*
X164714834Y-126882944D01*
X164554683Y-126515875D01*
X164551981Y-126508988D01*
X164517413Y-126410200D01*
X164419724Y-126131021D01*
X164417542Y-126123949D01*
X164356933Y-125897753D01*
X164313899Y-125737146D01*
X164312253Y-125729931D01*
X164306507Y-125699561D01*
X164237805Y-125336466D01*
X164236702Y-125329152D01*
X164236030Y-125323191D01*
X164233876Y-125304071D01*
X164225595Y-125230570D01*
X164237869Y-125170628D01*
X164283031Y-125129349D01*
X164323973Y-125120486D01*
X165545377Y-125120486D01*
X165603568Y-125139393D01*
G37*
%TD.AperFunction*%
%TA.AperFunction,Conductor*%
G36*
X170423500Y-122649570D02*
G01*
X170458595Y-122699689D01*
X170459548Y-122703012D01*
X170508195Y-122884564D01*
X170522864Y-122916021D01*
X170600667Y-123082871D01*
X170723600Y-123258439D01*
X170726172Y-123262111D01*
X170880893Y-123416832D01*
X170880896Y-123416834D01*
X170880897Y-123416835D01*
X170920588Y-123444627D01*
X171060131Y-123542336D01*
X171258440Y-123634809D01*
X171439992Y-123683455D01*
X171491305Y-123716779D01*
X171513232Y-123773901D01*
X171497396Y-123833001D01*
X171495465Y-123835865D01*
X171455913Y-123892352D01*
X171455910Y-123892358D01*
X171363444Y-124090652D01*
X171306809Y-124302016D01*
X171287741Y-124519982D01*
X171287741Y-124519989D01*
X171306809Y-124737955D01*
X171306810Y-124737962D01*
X171306811Y-124737963D01*
X171363443Y-124949316D01*
X171424178Y-125079563D01*
X171455915Y-125147623D01*
X171495464Y-125204105D01*
X171513353Y-125262617D01*
X171493433Y-125320469D01*
X171443313Y-125355563D01*
X171439992Y-125356516D01*
X171258434Y-125405164D01*
X171060142Y-125497630D01*
X171060134Y-125497634D01*
X170880897Y-125623136D01*
X170726168Y-125777865D01*
X170600666Y-125957102D01*
X170600662Y-125957110D01*
X170508196Y-126155402D01*
X170459548Y-126336960D01*
X170426223Y-126388274D01*
X170369102Y-126410200D01*
X170310001Y-126394364D01*
X170307145Y-126392437D01*
X170250657Y-126352884D01*
X170052348Y-126260411D01*
X169840995Y-126203779D01*
X169840994Y-126203778D01*
X169840987Y-126203777D01*
X169623021Y-126184709D01*
X169623015Y-126184709D01*
X169405048Y-126203777D01*
X169193684Y-126260412D01*
X168995390Y-126352878D01*
X168995384Y-126352881D01*
X168938897Y-126392433D01*
X168880384Y-126410321D01*
X168822533Y-126390400D01*
X168787439Y-126340279D01*
X168786495Y-126336988D01*
X168737841Y-126155408D01*
X168645368Y-125957100D01*
X168561558Y-125837406D01*
X168519867Y-125777865D01*
X168519866Y-125777864D01*
X168519864Y-125777861D01*
X168365143Y-125623140D01*
X168365139Y-125623137D01*
X168365138Y-125623136D01*
X168265701Y-125553510D01*
X168185905Y-125497636D01*
X167987596Y-125405163D01*
X167850315Y-125368378D01*
X167806044Y-125356516D01*
X167754729Y-125323191D01*
X167732803Y-125266070D01*
X167748639Y-125206969D01*
X167750521Y-125204178D01*
X167790120Y-125147625D01*
X167882593Y-124949316D01*
X167939225Y-124737963D01*
X167953389Y-124576072D01*
X167958295Y-124519989D01*
X167958295Y-124519982D01*
X167939226Y-124302016D01*
X167939225Y-124302013D01*
X167939225Y-124302009D01*
X167882593Y-124090656D01*
X167821858Y-123960409D01*
X167790125Y-123892358D01*
X167790121Y-123892350D01*
X167750571Y-123835866D01*
X167732682Y-123777354D01*
X167752602Y-123719502D01*
X167802723Y-123684408D01*
X167806000Y-123683467D01*
X167987596Y-123634809D01*
X168185905Y-123542336D01*
X168365143Y-123416832D01*
X168519864Y-123262111D01*
X168645368Y-123082873D01*
X168737841Y-122884564D01*
X168786488Y-122703009D01*
X168819811Y-122651698D01*
X168876933Y-122629771D01*
X168936033Y-122645607D01*
X168938878Y-122647525D01*
X168995379Y-122687088D01*
X169193688Y-122779561D01*
X169405041Y-122836193D01*
X169405045Y-122836193D01*
X169405048Y-122836194D01*
X169623015Y-122855263D01*
X169623018Y-122855263D01*
X169623021Y-122855263D01*
X169840987Y-122836194D01*
X169840988Y-122836193D01*
X169840995Y-122836193D01*
X170052348Y-122779561D01*
X170250657Y-122687088D01*
X170307140Y-122647537D01*
X170365648Y-122629650D01*
X170423500Y-122649570D01*
G37*
%TD.AperFunction*%
%TA.AperFunction,Conductor*%
G36*
X165411803Y-121172796D02*
G01*
X165450511Y-121196715D01*
X166317354Y-122063558D01*
X166345131Y-122118075D01*
X166342977Y-122159183D01*
X166322057Y-122237261D01*
X166322057Y-122237263D01*
X166302989Y-122455230D01*
X166302989Y-122455237D01*
X166322057Y-122673203D01*
X166322058Y-122673210D01*
X166322059Y-122673211D01*
X166378691Y-122884564D01*
X166393360Y-122916021D01*
X166471163Y-123082871D01*
X166510712Y-123139353D01*
X166528601Y-123197865D01*
X166508681Y-123255717D01*
X166458561Y-123290811D01*
X166455240Y-123291764D01*
X166273682Y-123340412D01*
X166075390Y-123432878D01*
X166075382Y-123432882D01*
X165896145Y-123558384D01*
X165741416Y-123713113D01*
X165626474Y-123877270D01*
X165577610Y-123914092D01*
X165545378Y-123919486D01*
X164323973Y-123919486D01*
X164265782Y-123900579D01*
X164229818Y-123851079D01*
X164225595Y-123809402D01*
X164236702Y-123710820D01*
X164237806Y-123703499D01*
X164265263Y-123558388D01*
X164312254Y-123310030D01*
X164313900Y-123302821D01*
X164417545Y-122916010D01*
X164419725Y-122908946D01*
X164428257Y-122884563D01*
X164551986Y-122530968D01*
X164554679Y-122524104D01*
X164714839Y-122157015D01*
X164718016Y-122150417D01*
X164905165Y-121796312D01*
X164908823Y-121789977D01*
X165121902Y-121450864D01*
X165126055Y-121444773D01*
X165300853Y-121207930D01*
X165350619Y-121172338D01*
X165411803Y-121172796D01*
G37*
%TD.AperFunction*%
%TA.AperFunction,Conductor*%
G36*
X173918527Y-121170454D02*
G01*
X173953237Y-121199876D01*
X174133969Y-121444760D01*
X174138140Y-121450877D01*
X174351194Y-121789949D01*
X174354879Y-121796333D01*
X174542006Y-122150395D01*
X174545205Y-122157037D01*
X174546142Y-122159185D01*
X174705349Y-122524091D01*
X174708053Y-122530982D01*
X174840309Y-122908946D01*
X174842492Y-122916021D01*
X174946134Y-123302821D01*
X174947781Y-123310039D01*
X175022228Y-123703499D01*
X175023331Y-123710819D01*
X175034439Y-123809401D01*
X175022167Y-123869343D01*
X174977005Y-123910623D01*
X174936062Y-123919486D01*
X173700658Y-123919486D01*
X173642467Y-123900579D01*
X173619562Y-123877270D01*
X173504619Y-123713113D01*
X173504618Y-123713112D01*
X173504616Y-123713109D01*
X173349895Y-123558388D01*
X173349891Y-123558385D01*
X173349890Y-123558384D01*
X173250453Y-123488758D01*
X173170657Y-123432884D01*
X172972348Y-123340411D01*
X172826347Y-123301290D01*
X172790796Y-123291764D01*
X172739481Y-123258439D01*
X172717555Y-123201318D01*
X172733391Y-123142217D01*
X172735273Y-123139426D01*
X172774872Y-123082873D01*
X172867345Y-122884564D01*
X172923977Y-122673211D01*
X172926046Y-122649570D01*
X172943047Y-122455237D01*
X172943047Y-122455230D01*
X172923978Y-122237264D01*
X172923977Y-122237261D01*
X172923977Y-122237257D01*
X172903057Y-122159183D01*
X172906260Y-122098084D01*
X172928678Y-122063560D01*
X173803580Y-121188658D01*
X173858095Y-121160883D01*
X173918527Y-121170454D01*
G37*
%TD.AperFunction*%
%TA.AperFunction,Conductor*%
G36*
X170439192Y-119126671D02*
G01*
X170446467Y-119127767D01*
X170839972Y-119202222D01*
X170847178Y-119203867D01*
X171233984Y-119307511D01*
X171241053Y-119309692D01*
X171619025Y-119441951D01*
X171625907Y-119444651D01*
X171992976Y-119604802D01*
X171999596Y-119607990D01*
X172353678Y-119795127D01*
X172360036Y-119798798D01*
X172699125Y-120011862D01*
X172705241Y-120016032D01*
X172942072Y-120190821D01*
X172977665Y-120240587D01*
X172977207Y-120301771D01*
X172953288Y-120340479D01*
X172079444Y-121214322D01*
X172024927Y-121242099D01*
X171983819Y-121239945D01*
X171905742Y-121219025D01*
X171687773Y-121199957D01*
X171687767Y-121199957D01*
X171469800Y-121219025D01*
X171258436Y-121275660D01*
X171060142Y-121368126D01*
X171060136Y-121368129D01*
X171003649Y-121407681D01*
X170945136Y-121425569D01*
X170887285Y-121405648D01*
X170852191Y-121355527D01*
X170851247Y-121352236D01*
X170802593Y-121170656D01*
X170773433Y-121108123D01*
X170710125Y-120972358D01*
X170710121Y-120972350D01*
X170584619Y-120793113D01*
X170584618Y-120793112D01*
X170584616Y-120793109D01*
X170429895Y-120638388D01*
X170429891Y-120638385D01*
X170429890Y-120638384D01*
X170265734Y-120523440D01*
X170228912Y-120474575D01*
X170223518Y-120442344D01*
X170223518Y-119213150D01*
X170242425Y-119154959D01*
X170291925Y-119118995D01*
X170333599Y-119114773D01*
X170439192Y-119126671D01*
G37*
%TD.AperFunction*%
%TA.AperFunction,Conductor*%
G36*
X168972375Y-119128622D02*
G01*
X169013655Y-119173784D01*
X169022518Y-119214727D01*
X169022518Y-120442346D01*
X169003611Y-120500537D01*
X168980302Y-120523442D01*
X168816145Y-120638384D01*
X168661416Y-120793113D01*
X168535914Y-120972350D01*
X168535910Y-120972358D01*
X168443444Y-121170650D01*
X168394796Y-121352208D01*
X168361471Y-121403522D01*
X168304350Y-121425448D01*
X168245249Y-121409612D01*
X168242393Y-121407685D01*
X168185905Y-121368132D01*
X167987596Y-121275659D01*
X167776243Y-121219027D01*
X167776242Y-121219026D01*
X167776235Y-121219025D01*
X167558269Y-121199957D01*
X167558263Y-121199957D01*
X167340295Y-121219025D01*
X167340293Y-121219025D01*
X167262215Y-121239945D01*
X167201113Y-121236742D01*
X167166590Y-121214322D01*
X166745377Y-120793109D01*
X166298690Y-120346423D01*
X166270914Y-120291907D01*
X166280485Y-120231475D01*
X166309904Y-120196767D01*
X166554805Y-120016023D01*
X166560896Y-120011870D01*
X166900009Y-119798791D01*
X166906344Y-119795133D01*
X167260449Y-119607984D01*
X167267047Y-119604807D01*
X167634136Y-119444647D01*
X167641000Y-119441954D01*
X168018989Y-119309689D01*
X168026042Y-119307513D01*
X168412862Y-119203865D01*
X168420056Y-119202223D01*
X168813571Y-119127766D01*
X168820838Y-119126671D01*
X168912436Y-119116350D01*
X168972375Y-119128622D01*
G37*
%TD.AperFunction*%
%TD*%
%TA.AperFunction,Conductor*%
%TO.N,-15*%
G36*
X146755039Y-93310185D02*
G01*
X146800794Y-93362989D01*
X146812000Y-93414500D01*
X146812000Y-98145091D01*
X146798715Y-98197139D01*
X146799303Y-98197359D01*
X146797264Y-98202824D01*
X146796832Y-98204519D01*
X146796202Y-98205671D01*
X146745908Y-98340517D01*
X146739501Y-98400116D01*
X146739500Y-98400135D01*
X146739500Y-100019870D01*
X146739501Y-100019876D01*
X146745908Y-100079481D01*
X146745909Y-100079483D01*
X146796204Y-100214331D01*
X146796205Y-100214332D01*
X146796831Y-100215478D01*
X146797260Y-100217162D01*
X146799304Y-100222640D01*
X146798715Y-100222859D01*
X146812000Y-100274907D01*
X146812000Y-104955800D01*
X146792315Y-105022839D01*
X146739511Y-105068594D01*
X146688000Y-105079800D01*
X145943979Y-105079800D01*
X145876940Y-105060115D01*
X145831185Y-105007311D01*
X145820758Y-104941921D01*
X145823588Y-104916795D01*
X145825110Y-104903287D01*
X145826707Y-104893017D01*
X145834500Y-104853842D01*
X145834500Y-104826914D01*
X145835280Y-104813029D01*
X145839565Y-104775001D01*
X145839565Y-104774998D01*
X145835280Y-104736969D01*
X145834500Y-104723085D01*
X145834500Y-104691048D01*
X145834499Y-104691022D01*
X145834499Y-104318923D01*
X145835279Y-104305038D01*
X145839565Y-104267001D01*
X145839565Y-104266998D01*
X145835279Y-104228960D01*
X145834499Y-104215076D01*
X145834499Y-103810915D01*
X145835279Y-103797030D01*
X145839564Y-103759002D01*
X145839564Y-103758999D01*
X145835279Y-103720970D01*
X145834499Y-103707086D01*
X145834499Y-103680158D01*
X145826710Y-103641004D01*
X145825109Y-103630715D01*
X145819367Y-103579746D01*
X145811022Y-103555899D01*
X145806448Y-103539140D01*
X145803736Y-103525504D01*
X145783483Y-103476608D01*
X145781027Y-103470176D01*
X145759788Y-103409479D01*
X145753288Y-103399135D01*
X145743718Y-103380607D01*
X145743393Y-103379822D01*
X145706789Y-103325041D01*
X145704904Y-103322132D01*
X145663814Y-103256738D01*
X145536259Y-103129183D01*
X145536256Y-103129181D01*
X145470899Y-103088115D01*
X145467981Y-103086224D01*
X145413178Y-103049606D01*
X145413172Y-103049604D01*
X145412364Y-103049269D01*
X145393864Y-103039710D01*
X145383523Y-103033213D01*
X145383522Y-103033212D01*
X145383521Y-103033212D01*
X145322866Y-103011987D01*
X145316376Y-103009510D01*
X145267495Y-102989263D01*
X145253859Y-102986551D01*
X145237103Y-102981977D01*
X145213259Y-102973634D01*
X145213255Y-102973633D01*
X145213254Y-102973633D01*
X145192574Y-102971302D01*
X145162302Y-102967891D01*
X145152002Y-102966289D01*
X145112843Y-102958501D01*
X145112841Y-102958501D01*
X145085914Y-102958501D01*
X145072030Y-102957721D01*
X145034001Y-102953436D01*
X145033997Y-102953436D01*
X144995968Y-102957721D01*
X144982084Y-102958501D01*
X144724654Y-102958501D01*
X144570009Y-102989262D01*
X144569997Y-102989265D01*
X144424327Y-103049603D01*
X144420106Y-103051860D01*
X144361655Y-103066500D01*
X143982998Y-103066500D01*
X143982980Y-103066501D01*
X143880203Y-103077000D01*
X143880200Y-103077001D01*
X143713668Y-103132185D01*
X143713663Y-103132187D01*
X143564342Y-103224289D01*
X143440289Y-103348342D01*
X143348187Y-103497663D01*
X143348186Y-103497666D01*
X143293001Y-103664203D01*
X143293001Y-103664204D01*
X143293000Y-103664204D01*
X143282500Y-103766983D01*
X143282500Y-104767001D01*
X143282501Y-104767019D01*
X143293000Y-104869796D01*
X143308575Y-104916795D01*
X143310977Y-104986624D01*
X143275246Y-105046666D01*
X143212725Y-105077859D01*
X143190869Y-105079800D01*
X134538586Y-105079800D01*
X134471547Y-105060115D01*
X134425792Y-105007311D01*
X134415848Y-104938153D01*
X134444873Y-104874597D01*
X134450905Y-104868119D01*
X135013985Y-104305038D01*
X135203511Y-104115511D01*
X135264832Y-104082028D01*
X135334523Y-104087012D01*
X135356287Y-104097656D01*
X135411657Y-104131809D01*
X135411660Y-104131810D01*
X135411666Y-104131814D01*
X135578203Y-104186999D01*
X135680991Y-104197500D01*
X136306008Y-104197499D01*
X136306016Y-104197498D01*
X136306019Y-104197498D01*
X136362302Y-104191748D01*
X136408797Y-104186999D01*
X136575334Y-104131814D01*
X136724656Y-104039712D01*
X136848712Y-103915656D01*
X136940814Y-103766334D01*
X136995999Y-103599797D01*
X137006500Y-103497009D01*
X137006499Y-102496992D01*
X136995999Y-102394203D01*
X136940814Y-102227666D01*
X136848712Y-102078344D01*
X136724656Y-101954288D01*
X136575334Y-101862186D01*
X136408797Y-101807001D01*
X136408795Y-101807000D01*
X136306010Y-101796500D01*
X135680998Y-101796500D01*
X135680980Y-101796501D01*
X135578203Y-101807000D01*
X135578200Y-101807001D01*
X135411668Y-101862185D01*
X135411663Y-101862187D01*
X135262342Y-101954289D01*
X135138289Y-102078342D01*
X135046181Y-102227673D01*
X135043926Y-102232510D01*
X134997749Y-102284944D01*
X134979122Y-102294605D01*
X134978164Y-102295003D01*
X134978045Y-102295053D01*
X134897608Y-102328371D01*
X134774033Y-102410941D01*
X134721487Y-102463487D01*
X134668941Y-102516034D01*
X132141494Y-105043481D01*
X132080171Y-105076966D01*
X132053813Y-105079800D01*
X130794500Y-105079800D01*
X130727461Y-105060115D01*
X130681706Y-105007311D01*
X130670500Y-104955800D01*
X130670500Y-99123715D01*
X130690185Y-99056676D01*
X130742989Y-99010921D01*
X130812147Y-99000977D01*
X130875703Y-99030002D01*
X130892556Y-99047814D01*
X131055767Y-99258666D01*
X131063745Y-99268972D01*
X131298318Y-99515743D01*
X131339421Y-99558983D01*
X131643018Y-99819613D01*
X131643021Y-99819615D01*
X131971432Y-100048196D01*
X132321283Y-100242379D01*
X132688984Y-100400172D01*
X132688994Y-100400175D01*
X132688999Y-100400177D01*
X133070751Y-100519953D01*
X133070754Y-100519953D01*
X133070762Y-100519956D01*
X133462700Y-100600501D01*
X133773933Y-100632150D01*
X133860775Y-100640981D01*
X133860776Y-100640981D01*
X134260905Y-100640981D01*
X134347747Y-100632150D01*
X134658980Y-100600501D01*
X135050918Y-100519956D01*
X135142784Y-100491133D01*
X135432680Y-100400177D01*
X135432679Y-100400177D01*
X135432696Y-100400172D01*
X135800397Y-100242379D01*
X136150248Y-100048196D01*
X136478659Y-99819615D01*
X136623823Y-99694996D01*
X138409935Y-99694996D01*
X138409935Y-99694999D01*
X138414220Y-99733027D01*
X138415000Y-99746912D01*
X138415000Y-99773842D01*
X138422788Y-99813001D01*
X138424390Y-99823301D01*
X138430132Y-99874250D01*
X138430133Y-99874258D01*
X138438476Y-99898102D01*
X138443050Y-99914859D01*
X138445573Y-99927542D01*
X138440999Y-99992686D01*
X138430131Y-100023747D01*
X138409935Y-100202997D01*
X138409935Y-100203004D01*
X138430130Y-100382247D01*
X138430133Y-100382259D01*
X138440998Y-100413312D01*
X138445574Y-100478453D01*
X138443052Y-100491133D01*
X138438476Y-100507896D01*
X138430135Y-100531733D01*
X138430133Y-100531740D01*
X138424391Y-100582694D01*
X138422789Y-100592992D01*
X138415001Y-100632150D01*
X138415001Y-100659083D01*
X138414221Y-100672967D01*
X138409936Y-100710996D01*
X138409936Y-100710999D01*
X138414221Y-100749027D01*
X138415001Y-100762912D01*
X138415001Y-100789842D01*
X138422789Y-100829001D01*
X138424391Y-100839301D01*
X138430133Y-100890250D01*
X138430134Y-100890258D01*
X138438477Y-100914102D01*
X138443051Y-100930858D01*
X138445763Y-100944494D01*
X138466010Y-100993375D01*
X138468489Y-100999870D01*
X138489713Y-101060522D01*
X138496210Y-101070863D01*
X138505769Y-101089363D01*
X138506104Y-101090171D01*
X138506106Y-101090177D01*
X138542724Y-101144980D01*
X138544615Y-101147898D01*
X138585681Y-101213255D01*
X138585683Y-101213258D01*
X138585685Y-101213260D01*
X138713239Y-101340814D01*
X138778632Y-101381903D01*
X138781541Y-101383788D01*
X138836322Y-101420392D01*
X138837107Y-101420717D01*
X138855635Y-101430287D01*
X138865979Y-101436787D01*
X138926676Y-101458026D01*
X138933108Y-101460482D01*
X138961522Y-101472251D01*
X138981998Y-101480733D01*
X138981999Y-101480733D01*
X138982004Y-101480735D01*
X138995640Y-101483447D01*
X139012399Y-101488021D01*
X139036246Y-101496366D01*
X139087215Y-101502108D01*
X139097493Y-101503707D01*
X139124641Y-101509107D01*
X139136658Y-101511498D01*
X139136659Y-101511498D01*
X139163586Y-101511498D01*
X139177469Y-101512277D01*
X139215501Y-101516563D01*
X139227612Y-101515198D01*
X139280500Y-101520711D01*
X139423203Y-101567999D01*
X139525991Y-101578500D01*
X140251008Y-101578499D01*
X140251016Y-101578498D01*
X140251019Y-101578498D01*
X140307302Y-101572748D01*
X140353797Y-101567999D01*
X140520334Y-101512814D01*
X140669656Y-101420712D01*
X140793712Y-101296656D01*
X140885814Y-101147334D01*
X140940999Y-100980797D01*
X140951500Y-100878009D01*
X140951499Y-99527992D01*
X140950247Y-99515740D01*
X140940999Y-99425203D01*
X140940998Y-99425200D01*
X140914580Y-99345476D01*
X140885814Y-99258666D01*
X140793712Y-99109344D01*
X140669656Y-98985288D01*
X140560520Y-98917973D01*
X140520336Y-98893187D01*
X140520331Y-98893185D01*
X140518862Y-98892698D01*
X140353797Y-98838001D01*
X140353795Y-98838000D01*
X140251010Y-98827500D01*
X139525998Y-98827500D01*
X139525980Y-98827501D01*
X139423203Y-98838000D01*
X139423199Y-98838001D01*
X139280510Y-98885284D01*
X139227626Y-98890799D01*
X139221435Y-98890101D01*
X139215500Y-98889433D01*
X139215499Y-98889433D01*
X139215498Y-98889433D01*
X139177469Y-98893718D01*
X139163585Y-98894498D01*
X139136652Y-98894498D01*
X139097494Y-98902286D01*
X139087196Y-98903888D01*
X139036242Y-98909630D01*
X139036235Y-98909632D01*
X139012398Y-98917973D01*
X138995640Y-98922548D01*
X138982002Y-98925261D01*
X138981996Y-98925262D01*
X138933131Y-98945502D01*
X138926640Y-98947980D01*
X138865977Y-98969208D01*
X138865974Y-98969210D01*
X138855627Y-98975711D01*
X138837139Y-98985264D01*
X138836332Y-98985598D01*
X138836324Y-98985602D01*
X138836321Y-98985603D01*
X138836321Y-98985604D01*
X138798431Y-99010921D01*
X138781547Y-99022202D01*
X138778632Y-99024090D01*
X138713242Y-99065178D01*
X138713235Y-99065184D01*
X138585686Y-99192733D01*
X138585680Y-99192740D01*
X138544592Y-99258130D01*
X138542704Y-99261045D01*
X138506104Y-99315822D01*
X138506100Y-99315830D01*
X138505766Y-99316637D01*
X138496213Y-99335125D01*
X138489712Y-99345472D01*
X138489710Y-99345475D01*
X138468482Y-99406138D01*
X138466004Y-99412629D01*
X138445764Y-99461494D01*
X138445763Y-99461500D01*
X138443050Y-99475138D01*
X138438475Y-99491896D01*
X138430134Y-99515733D01*
X138430132Y-99515740D01*
X138424390Y-99566694D01*
X138422788Y-99576992D01*
X138415000Y-99616150D01*
X138415000Y-99643083D01*
X138414220Y-99656967D01*
X138409935Y-99694996D01*
X136623823Y-99694996D01*
X136782259Y-99558983D01*
X137057935Y-99268972D01*
X137302856Y-98952560D01*
X137514509Y-98612994D01*
X137690723Y-98253757D01*
X137829690Y-97878535D01*
X137929983Y-97491180D01*
X137990574Y-97095666D01*
X138010840Y-96696051D01*
X137990574Y-96296436D01*
X137929983Y-95900922D01*
X137829690Y-95513567D01*
X137690723Y-95138345D01*
X137514509Y-94779108D01*
X137514504Y-94779099D01*
X137302855Y-94439541D01*
X137057939Y-94123135D01*
X137057938Y-94123134D01*
X137057935Y-94123130D01*
X136782259Y-93833119D01*
X136594289Y-93671752D01*
X136478661Y-93572488D01*
X136397897Y-93516275D01*
X136354118Y-93461821D01*
X136346730Y-93392343D01*
X136378076Y-93329900D01*
X136438206Y-93294317D01*
X136468734Y-93290500D01*
X146688000Y-93290500D01*
X146755039Y-93310185D01*
G37*
%TD.AperFunction*%
%TD*%
D41*
X145948499Y-123952001D03*
X145948500Y-124968001D03*
X145948500Y-124459998D03*
X176657000Y-112903000D03*
X176657001Y-113918999D03*
X176657000Y-113411000D03*
X175768000Y-110998000D03*
X175768000Y-111506000D03*
X175768001Y-112013999D03*
X153924000Y-106425999D03*
X153924001Y-107441999D03*
X153924000Y-106934000D03*
X160553400Y-95453201D03*
X137718800Y-122682000D03*
X154178000Y-116967000D03*
X165862000Y-110744001D03*
X154178000Y-117983000D03*
X154178000Y-117475000D03*
X138226800Y-122682000D03*
X137210801Y-122682001D03*
X165862001Y-111760000D03*
X165862000Y-111252001D03*
X161061399Y-95453200D03*
X161569399Y-95453200D03*
X139215500Y-100203001D03*
X159052999Y-106172000D03*
X159052999Y-106680000D03*
X145033999Y-103759001D03*
X159052998Y-105664000D03*
X145034000Y-104267000D03*
X141554199Y-107822998D03*
X145034000Y-104775000D03*
X132588000Y-127635000D03*
X132588000Y-127127000D03*
X141554199Y-108330999D03*
X141554200Y-108838998D03*
X139215501Y-100710998D03*
X132588000Y-126619000D03*
X139215500Y-99694998D03*
X141224000Y-127254000D03*
X151511000Y-114935000D03*
X151511000Y-114427000D03*
X141224000Y-127762000D03*
X141224000Y-128270000D03*
X151511000Y-115443000D03*
X167386000Y-99314000D03*
X167894000Y-99314000D03*
X168402000Y-99314000D03*
X167672582Y-129230870D03*
X168660411Y-129536199D03*
X173263271Y-126836632D03*
X170688000Y-124519986D03*
X168216436Y-124941614D03*
X167352836Y-120871572D03*
X170599625Y-120329957D03*
X168660411Y-128710015D03*
X165981604Y-126797168D03*
X170561000Y-128727200D03*
X173176832Y-123063000D03*
X164610004Y-125450968D03*
X165422804Y-125450968D03*
X170561000Y-129540000D03*
X168216436Y-124103414D03*
X173837232Y-123589004D03*
X164613805Y-123550379D03*
X164914804Y-126466968D03*
X173168239Y-125997718D03*
X174646231Y-125489593D03*
X168173032Y-120973172D03*
X171946664Y-120886733D03*
X174650032Y-123589004D03*
X166768636Y-120287372D03*
X171587454Y-119809102D03*
X171107750Y-120981765D03*
X165422028Y-121628604D03*
X165439989Y-123550379D03*
X171907200Y-128168400D03*
X166083204Y-125976972D03*
X167683036Y-119804772D03*
X170180000Y-124519986D03*
X173278432Y-122242804D03*
X173820047Y-125489593D03*
X172521400Y-120311996D03*
X171043600Y-124942600D03*
X168699036Y-120312772D03*
X171043600Y-124104400D03*
X174340902Y-126477422D03*
X166091797Y-123042254D03*
X164919134Y-122562550D03*
X173862632Y-121658604D03*
X174345232Y-122573004D03*
X166738636Y-128727976D03*
X167313372Y-128153239D03*
X165996765Y-122203340D03*
X172491400Y-128752600D03*
X169630018Y-124519986D03*
X165397404Y-127381368D03*
X173838008Y-127411368D03*
X171577000Y-129235200D03*
X170599625Y-119503773D03*
X168572036Y-124519000D03*
X169080036Y-124519000D03*
X171087004Y-128066800D03*
X168699036Y-119499972D03*
X168152286Y-128058207D03*
X141743750Y-104267000D03*
X138545250Y-103505000D03*
X143510000Y-100710999D03*
X141743751Y-104774999D03*
X143509999Y-99695000D03*
X138545250Y-102997000D03*
X138545249Y-102489001D03*
X143510000Y-100203001D03*
X141743750Y-103759000D03*
X163195000Y-111379000D03*
X164211000Y-111379000D03*
X172339000Y-100330000D03*
X171577000Y-101092000D03*
X163703000Y-111379000D03*
X171958000Y-100711000D03*
X170149185Y-100077900D03*
X171226815Y-100077900D03*
X156210000Y-113284000D03*
X155067000Y-113284000D03*
X155637000Y-113284000D03*
X170688000Y-100077900D03*
D42*
X171551600Y-109524800D03*
X167741600Y-109524800D03*
X134073840Y-96696051D03*
X138811000Y-109270800D03*
X135001000Y-109270800D03*
X171577000Y-106172000D03*
X167767000Y-106172000D03*
X135001000Y-116890800D03*
X138811000Y-116890800D03*
X172543018Y-124519986D03*
X171687770Y-122455234D03*
X169623018Y-121599986D03*
X167558266Y-122455234D03*
X166703018Y-124519986D03*
X167558266Y-126584738D03*
X169623018Y-127439986D03*
X171687770Y-126584738D03*
X148080000Y-125130000D03*
X153160000Y-125130000D03*
X155700000Y-125130000D03*
X158240000Y-125130000D03*
X148080000Y-128940000D03*
X150620000Y-128940000D03*
X153160000Y-128940000D03*
X155700000Y-128940000D03*
X158240000Y-128940000D03*
X174713949Y-131466051D03*
X164563949Y-117576051D03*
X143891000Y-131445000D03*
X174955200Y-100177600D03*
X143129000Y-115443000D03*
X143129000Y-117983000D03*
X171715000Y-95122000D03*
X173994999Y-95122000D03*
X176275000Y-95122000D03*
X177495200Y-100177600D03*
X143891000Y-128905000D03*
X158250000Y-103020000D03*
X155710000Y-103020000D03*
X153170000Y-103020000D03*
X150630000Y-103020000D03*
X148090000Y-103020000D03*
X148090000Y-99210000D03*
X150630000Y-99210000D03*
X153170000Y-99210000D03*
X155710000Y-99210000D03*
X158250000Y-99210000D03*
M02*
