<?xml version="1.0" standalone="no"?>
 <!DOCTYPE svg PUBLIC "-//W3C//DTD SVG 1.1//EN" 
 "http://www.w3.org/Graphics/SVG/1.1/DTD/svg11.dtd"> 
<svg
  xmlns:svg="http://www.w3.org/2000/svg"
  xmlns="http://www.w3.org/2000/svg"
  xmlns:xlink="http://www.w3.org/1999/xlink"
  version="1.1"
  width="50.0380mm" height="44.3992mm" viewBox="0.0000 0.0000 50.0380 44.3992">
<title>SVG Image created as 3458A Ref A9 Clone-B_Fab.svg date 2024/11/06 00:15:03 </title>
  <desc>Image generated by PCBNEW </desc>
<g style="fill:#000000; fill-opacity:1.0000;stroke:#000000; stroke-opacity:1.0000;
stroke-linecap:round; stroke-linejoin:round;"
 transform="translate(0 0) scale(1 1)">
</g>
<g style="fill:none; 
stroke:#000084; stroke-width:0.1500; stroke-opacity:1; 
stroke-linecap:round; stroke-linejoin:round;">
<g transform="rotate(-90.000000 41.4150 33.4922)">
<text x="41.4150" y="33.9922"
transform="scale(-1 1) translate(-82.830038 0)"
textLength="4.0119" font-size="1.3333" lengthAdjust="spacingAndGlyphs"
text-anchor="middle" opacity="0" stroke-opacity="0">100n</text>
</g>
<g class="stroked-text"><desc>100n</desc>
<path d="M41.8698 32.3732
L41.8698 31.8018
" />
<path d="M41.8698 32.0875
L40.8698 32.0875
" />
<path d="M40.8698 32.0875
L41.0127 31.9922
" />
<path d="M41.0127 31.9922
L41.1079 31.8970
" />
<path d="M41.1079 31.8970
L41.1556 31.8018
" />
<path d="M40.8698 32.9922
L40.8698 33.0875
" />
<path d="M40.8698 33.0875
L40.9175 33.1827
" />
<path d="M40.9175 33.1827
L40.9651 33.2303
" />
<path d="M40.9651 33.2303
L41.0603 33.2779
" />
<path d="M41.0603 33.2779
L41.2508 33.3256
" />
<path d="M41.2508 33.3256
L41.4889 33.3256
" />
<path d="M41.4889 33.3256
L41.6794 33.2779
" />
<path d="M41.6794 33.2779
L41.7746 33.2303
" />
<path d="M41.7746 33.2303
L41.8222 33.1827
" />
<path d="M41.8222 33.1827
L41.8698 33.0875
" />
<path d="M41.8698 33.0875
L41.8698 32.9922
" />
<path d="M41.8698 32.9922
L41.8222 32.8970
" />
<path d="M41.8222 32.8970
L41.7746 32.8494
" />
<path d="M41.7746 32.8494
L41.6794 32.8018
" />
<path d="M41.6794 32.8018
L41.4889 32.7541
" />
<path d="M41.4889 32.7541
L41.2508 32.7541
" />
<path d="M41.2508 32.7541
L41.0603 32.8018
" />
<path d="M41.0603 32.8018
L40.9651 32.8494
" />
<path d="M40.9651 32.8494
L40.9175 32.8970
" />
<path d="M40.9175 32.8970
L40.8698 32.9922
" />
<path d="M40.8698 33.9446
L40.8698 34.0399
" />
<path d="M40.8698 34.0399
L40.9175 34.1351
" />
<path d="M40.9175 34.1351
L40.9651 34.1827
" />
<path d="M40.9651 34.1827
L41.0603 34.2303
" />
<path d="M41.0603 34.2303
L41.2508 34.2779
" />
<path d="M41.2508 34.2779
L41.4889 34.2779
" />
<path d="M41.4889 34.2779
L41.6794 34.2303
" />
<path d="M41.6794 34.2303
L41.7746 34.1827
" />
<path d="M41.7746 34.1827
L41.8222 34.1351
" />
<path d="M41.8222 34.1351
L41.8698 34.0399
" />
<path d="M41.8698 34.0399
L41.8698 33.9446
" />
<path d="M41.8698 33.9446
L41.8222 33.8494
" />
<path d="M41.8222 33.8494
L41.7746 33.8018
" />
<path d="M41.7746 33.8018
L41.6794 33.7541
" />
<path d="M41.6794 33.7541
L41.4889 33.7065
" />
<path d="M41.4889 33.7065
L41.2508 33.7065
" />
<path d="M41.2508 33.7065
L41.0603 33.7541
" />
<path d="M41.0603 33.7541
L40.9651 33.8018
" />
<path d="M40.9651 33.8018
L40.9175 33.8494
" />
<path d="M40.9175 33.8494
L40.8698 33.9446
" />
<path d="M41.2032 34.7065
L41.8698 34.7065
" />
<path d="M41.2984 34.7065
L41.2508 34.7541
" />
<path d="M41.2508 34.7541
L41.2032 34.8494
" />
<path d="M41.2032 34.8494
L41.2032 34.9922
" />
<path d="M41.2032 34.9922
L41.2508 35.0875
" />
<path d="M41.2508 35.0875
L41.3460 35.1351
" />
<path d="M41.3460 35.1351
L41.8698 35.1351
" />
</g></g>
<g style="fill:none; 
stroke:#000084; stroke-width:0.1200; stroke-opacity:1; 
stroke-linecap:round; stroke-linejoin:round;">
<g transform="rotate(-90.000000 39.5650 33.4922)">
<text x="39.5650" y="33.8922"
transform="scale(-1 1) translate(-79.130036 0)"
textLength="1.7619" font-size="1.0667" lengthAdjust="spacingAndGlyphs"
text-anchor="middle" opacity="0" stroke-opacity="0">C2</text>
</g>
<g class="stroked-text"><desc>C2</desc>
<path d="M39.8527 33.3589
L39.8908 33.3208
" />
<path d="M39.8908 33.3208
L39.9289 33.2065
" />
<path d="M39.9289 33.2065
L39.9289 33.1303
" />
<path d="M39.9289 33.1303
L39.8908 33.0160
" />
<path d="M39.8908 33.0160
L39.8146 32.9399
" />
<path d="M39.8146 32.9399
L39.7384 32.9018
" />
<path d="M39.7384 32.9018
L39.5860 32.8637
" />
<path d="M39.5860 32.8637
L39.4717 32.8637
" />
<path d="M39.4717 32.8637
L39.3193 32.9018
" />
<path d="M39.3193 32.9018
L39.2432 32.9399
" />
<path d="M39.2432 32.9399
L39.1670 33.0160
" />
<path d="M39.1670 33.0160
L39.1289 33.1303
" />
<path d="M39.1289 33.1303
L39.1289 33.2065
" />
<path d="M39.1289 33.2065
L39.1670 33.3208
" />
<path d="M39.1670 33.3208
L39.2051 33.3589
" />
<path d="M39.2051 33.6637
L39.1670 33.7018
" />
<path d="M39.1670 33.7018
L39.1289 33.7779
" />
<path d="M39.1289 33.7779
L39.1289 33.9684
" />
<path d="M39.1289 33.9684
L39.1670 34.0446
" />
<path d="M39.1670 34.0446
L39.2051 34.0827
" />
<path d="M39.2051 34.0827
L39.2813 34.1208
" />
<path d="M39.2813 34.1208
L39.3574 34.1208
" />
<path d="M39.3574 34.1208
L39.4717 34.0827
" />
<path d="M39.4717 34.0827
L39.9289 33.6256
" />
<path d="M39.9289 33.6256
L39.9289 34.1208
" />
</g></g>
<g style="fill:none; 
stroke:#000084; stroke-width:0.1000; stroke-opacity:1; 
stroke-linecap:round; stroke-linejoin:round;">
<path d="M38.7650 31.8922
L40.3650 31.8922
" />
<path d="M38.7650 35.0922
L38.7650 31.8922
" />
<path d="M40.3650 31.8922
L40.3650 35.0922
" />
<path d="M40.3650 35.0922
L38.7650 35.0922
" />
</g>
<g style="fill:none; 
stroke:#C2C200; stroke-width:0.0500; stroke-opacity:1; 
stroke-linecap:round; stroke-linejoin:round;">
<path d="M50.0250 4.3022
L50.0250 41.7222
" />
<path d="M2.5650 1.7622 A2.5400 2.5400 0.0 0 0 0.0250 4.3022" />
<path d="M50.0250 4.3022 A2.5400 2.5400 0.0 0 0 47.4850 1.7622" />
<path d="M0.0250 41.7222
L0.0250 4.3022
" />
<path d="M0.0250 41.7222 A2.5400 2.5400 0.0 0 0 2.5650 44.2622" />
<path d="M2.5650 1.7622
L47.4850 1.7622
" />
<path d="M47.4850 44.2622 A2.5400 2.5400 0.0 0 0 50.0250 41.7222" />
<path d="M47.4850 44.2622
L2.5650 44.2622
" />
</g> 
</svg>
