<?xml version="1.0" standalone="no"?>
 <!DOCTYPE svg PUBLIC "-//W3C//DTD SVG 1.1//EN" 
 "http://www.w3.org/Graphics/SVG/1.1/DTD/svg11.dtd"> 
<svg
  xmlns:svg="http://www.w3.org/2000/svg"
  xmlns="http://www.w3.org/2000/svg"
  xmlns:xlink="http://www.w3.org/1999/xlink"
  version="1.1"
  width="50.0380mm" height="44.3992mm" viewBox="0.0000 0.0000 50.0380 44.3992">
<title>SVG Image created as 3458A Ref A9 Clone-F_Courtyard.svg date 2024/11/06 00:15:03 </title>
  <desc>Image generated by PCBNEW </desc>
<g style="fill:#000000; fill-opacity:1.0000;stroke:#000000; stroke-opacity:1.0000;
stroke-linecap:round; stroke-linejoin:round;"
 transform="translate(0 0) scale(1 1)">
</g>
<g style="fill:none; 
stroke:#C2C2C2; stroke-width:0.1500; stroke-opacity:1; 
stroke-linecap:round; stroke-linejoin:round;">
<text x="13.0640" y="23.8062"
textLength="2.9643" font-size="1.3333" lengthAdjust="spacingAndGlyphs"
text-anchor="middle" opacity="0" stroke-opacity="0">TP3</text>
<g class="stroked-text"><desc>TP3</desc>
<path d="M11.8021 22.7611
L12.3735 22.7611
" />
<path d="M12.0878 23.7611
L12.0878 22.7611
" />
<path d="M12.7069 23.7611
L12.7069 22.7611
" />
<path d="M12.7069 22.7611
L13.0878 22.7611
" />
<path d="M13.0878 22.7611
L13.1830 22.8087
" />
<path d="M13.1830 22.8087
L13.2307 22.8563
" />
<path d="M13.2307 22.8563
L13.2783 22.9515
" />
<path d="M13.2783 22.9515
L13.2783 23.0944
" />
<path d="M13.2783 23.0944
L13.2307 23.1896
" />
<path d="M13.2307 23.1896
L13.1830 23.2373
" />
<path d="M13.1830 23.2373
L13.0878 23.2849
" />
<path d="M13.0878 23.2849
L12.7069 23.2849
" />
<path d="M13.6116 22.7611
L14.2307 22.7611
" />
<path d="M14.2307 22.7611
L13.8973 23.1420
" />
<path d="M13.8973 23.1420
L14.0402 23.1420
" />
<path d="M14.0402 23.1420
L14.1354 23.1896
" />
<path d="M14.1354 23.1896
L14.1830 23.2373
" />
<path d="M14.1830 23.2373
L14.2307 23.3325
" />
<path d="M14.2307 23.3325
L14.2307 23.5706
" />
<path d="M14.2307 23.5706
L14.1830 23.6658
" />
<path d="M14.1830 23.6658
L14.1354 23.7134
" />
<path d="M14.1354 23.7134
L14.0402 23.7611
" />
<path d="M14.0402 23.7611
L13.7545 23.7611
" />
<path d="M13.7545 23.7611
L13.6592 23.7134
" />
<path d="M13.6592 23.7134
L13.6116 23.6658
" />
</g><text x="13.0640" y="26.3462"
textLength="2.9643" font-size="1.3333" lengthAdjust="spacingAndGlyphs"
text-anchor="middle" opacity="0" stroke-opacity="0">TP4</text>
<g class="stroked-text"><desc>TP4</desc>
<path d="M11.8021 25.3011
L12.3735 25.3011
" />
<path d="M12.0878 26.3011
L12.0878 25.3011
" />
<path d="M12.7069 26.3011
L12.7069 25.3011
" />
<path d="M12.7069 25.3011
L13.0878 25.3011
" />
<path d="M13.0878 25.3011
L13.1830 25.3487
" />
<path d="M13.1830 25.3487
L13.2307 25.3963
" />
<path d="M13.2307 25.3963
L13.2783 25.4915
" />
<path d="M13.2783 25.4915
L13.2783 25.6344
" />
<path d="M13.2783 25.6344
L13.2307 25.7296
" />
<path d="M13.2307 25.7296
L13.1830 25.7773
" />
<path d="M13.1830 25.7773
L13.0878 25.8249
" />
<path d="M13.0878 25.8249
L12.7069 25.8249
" />
<path d="M14.1354 25.6344
L14.1354 26.3011
" />
<path d="M13.8973 25.2534
L13.6592 25.9677
" />
<path d="M13.6592 25.9677
L14.2783 25.9677
" />
</g><text x="46.2110" y="5.5183"
textLength="2.9643" font-size="1.3333" lengthAdjust="spacingAndGlyphs"
text-anchor="middle" opacity="0" stroke-opacity="0">TP5</text>
<g class="stroked-text"><desc>TP5</desc>
<path d="M44.9491 4.4731
L45.5205 4.4731
" />
<path d="M45.2348 5.4731
L45.2348 4.4731
" />
<path d="M45.8539 5.4731
L45.8539 4.4731
" />
<path d="M45.8539 4.4731
L46.2348 4.4731
" />
<path d="M46.2348 4.4731
L46.3300 4.5207
" />
<path d="M46.3300 4.5207
L46.3777 4.5683
" />
<path d="M46.3777 4.5683
L46.4253 4.6635
" />
<path d="M46.4253 4.6635
L46.4253 4.8064
" />
<path d="M46.4253 4.8064
L46.3777 4.9016
" />
<path d="M46.3777 4.9016
L46.3300 4.9493
" />
<path d="M46.3300 4.9493
L46.2348 4.9969
" />
<path d="M46.2348 4.9969
L45.8539 4.9969
" />
<path d="M47.3300 4.4731
L46.8539 4.4731
" />
<path d="M46.8539 4.4731
L46.8062 4.9493
" />
<path d="M46.8062 4.9493
L46.8539 4.9016
" />
<path d="M46.8539 4.9016
L46.9491 4.8540
" />
<path d="M46.9491 4.8540
L47.1872 4.8540
" />
<path d="M47.1872 4.8540
L47.2824 4.9016
" />
<path d="M47.2824 4.9016
L47.3300 4.9493
" />
<path d="M47.3300 4.9493
L47.3777 5.0445
" />
<path d="M47.3777 5.0445
L47.3777 5.2826
" />
<path d="M47.3777 5.2826
L47.3300 5.3778
" />
<path d="M47.3300 5.3778
L47.2824 5.4254
" />
<path d="M47.2824 5.4254
L47.1872 5.4731
" />
<path d="M47.1872 5.4731
L46.9491 5.4731
" />
<path d="M46.9491 5.4731
L46.8539 5.4254
" />
<path d="M46.8539 5.4254
L46.8062 5.3778
" />
</g></g>
<g style="fill:none; 
stroke:#C2C2C2; stroke-width:0.0500; stroke-opacity:1; 
stroke-linecap:round; stroke-linejoin:round;">
<path d="M19.3970 17.1432
L19.3970 22.5433
" />
<path d="M19.3970 22.5433
L26.7970 22.5433
" />
<path d="M26.7970 17.1432
L19.3970 17.1432
" />
<path d="M26.7970 22.5433
L26.7970 17.1432
" />
<path d="M4.6225 36.6302
L9.1825 36.6302
" />
<path d="M4.6225 38.8702
L4.6225 36.6302
" />
<path d="M9.1825 36.6302
L9.1825 38.8702
" />
<path d="M9.1825 38.8702
L4.6225 38.8702
" />
<path d="M34.9010 8.2233
L34.9010 3.5232
" />
<path d="M37.2010 3.5232
L34.9010 3.5232
" />
<path d="M37.2010 3.5232
L37.2010 8.2233
" />
<path d="M37.2010 8.2233
L34.9010 8.2233
" />
<path d="M19.8930 22.5762
L23.2530 22.5762
" />
<path d="M19.8930 24.4763
L19.8930 22.5762
" />
<path d="M23.2530 22.5762
L23.2530 24.4763
" />
<path d="M23.2530 24.4763
L19.8930 24.4763
" />
<path d="M13.8920 20.5762
L15.7920 20.5762
" />
<path d="M13.8920 23.9362
L13.8920 20.5762
" />
<path d="M15.7920 20.5762
L15.7920 23.9362
" />
<path d="M15.7920 23.9362
L13.8920 23.9362
" />
<path d="M37.9270 14.5752
L41.2870 14.5752
" />
<path d="M37.9270 16.4752
L37.9270 14.5752
" />
<path d="M41.2870 14.5752
L41.2870 16.4752
" />
<path d="M41.2870 16.4752
L37.9270 16.4752
" />
<path d="M29.6940 17.9243
L31.9940 17.9243
" />
<path d="M29.6940 22.5242
L29.6940 17.9243
" />
<path d="M31.9940 17.9243
L31.9940 22.5242
" />
<path d="M31.9940 22.5242
L29.6940 22.5242
" />
<path d="M34.6080 28.5422
L34.6080 38.4422
" />
<path d="M34.6080 38.4422
L44.5180 38.4422
" />
<path d="M44.5180 28.5422
L34.6080 28.5422
" />
<path d="M44.5180 38.4422
L44.5180 28.5422
" />
<path d="M3.0825 28.9207
L10.7225 28.9207
" />
<path d="M3.0825 32.7608
L3.0825 28.9207
" />
<path d="M10.7225 28.9207
L10.7225 32.7608
" />
<path d="M10.7225 32.7608
L3.0825 32.7608
" />
<path d="M3.1410 13.8812
L3.1410 24.2812
" />
<path d="M3.1410 24.2812
L10.5410 24.2812
" />
<path d="M10.5410 13.8812
L3.1410 13.8812
" />
<path d="M10.5410 24.2812
L10.5410 13.8812
" />
<circle cx="44.6489" cy="40.4383" r="3.9500" /> 
<circle cx="34.4989" cy="26.5483" r="3.9500" /> 
<path d="M4.6225 33.9632
L9.1825 33.9632
" />
<path d="M4.6225 36.2032
L4.6225 33.9632
" />
<path d="M9.1825 33.9632
L9.1825 36.2032
" />
<path d="M9.1825 36.2032
L4.6225 36.2032
" />
<path d="M27.1000 23.7512
L29.0000 23.7512
" />
<path d="M27.1000 27.1112
L27.1000 23.7512
" />
<path d="M29.0000 23.7512
L29.0000 27.1112
" />
<path d="M29.0000 27.1112
L27.1000 27.1112
" />
<circle cx="13.0640" cy="40.5442" r="1.5000" /> 
<path d="M18.8770 3.2722
L22.2370 3.2722
" />
<path d="M18.8770 5.1723
L18.8770 3.2722
" />
<path d="M22.2370 3.2722
L22.2370 5.1723
" />
<path d="M22.2370 5.1723
L18.8770 5.1723
" />
<path d="M16.1050 18.4322
L18.4050 18.4322
" />
<path d="M16.1050 23.0322
L16.1050 18.4322
" />
<path d="M18.4050 18.4322
L18.4050 23.0322
" />
<path d="M18.4050 23.0322
L16.1050 23.0322
" />
<path d="M35.7870 17.2882
L43.4270 17.2882
" />
<path d="M35.7870 21.1282
L35.7870 17.2882
" />
<path d="M43.4270 17.2882
L43.4270 21.1282
" />
<path d="M43.4270 21.1282
L35.7870 21.1282
" />
<path d="M20.7970 14.7562
L25.3970 14.7562
" />
<path d="M20.7970 17.0562
L20.7970 14.7562
" />
<path d="M25.3970 14.7562
L25.3970 17.0562
" />
<path d="M25.3970 17.0562
L20.7970 17.0562
" />
<path d="M27.2250 13.9942
L31.8250 13.9942
" />
<path d="M27.2250 16.2942
L27.2250 13.9942
" />
<path d="M31.8250 13.9942
L31.8250 16.2942
" />
<path d="M31.8250 16.2942
L27.2250 16.2942
" />
<circle cx="46.2110" cy="9.5563" r="1.5000" /> 
<path d="M20.7470 24.9162
L25.4470 24.9162
" />
<path d="M20.7470 27.2162
L20.7470 24.9162
" />
<path d="M25.4470 27.2162
L20.7470 27.2162
" />
<path d="M25.4470 27.2162
L25.4470 24.9162
" />
<path d="M25.7350 3.2722
L29.0950 3.2722
" />
<path d="M25.7350 5.1723
L25.7350 3.2722
" />
<path d="M29.0950 3.2722
L29.0950 5.1723
" />
<path d="M29.0950 5.1723
L25.7350 5.1723
" />
<circle cx="13.0640" cy="25.3042" r="1.5000" /> 
<circle cx="13.0640" cy="27.8442" r="1.5000" /> 
<path d="M41.4480 1.7182
L41.4480 5.4682
" />
<path d="M41.4480 5.4682
L49.9580 5.4682
" />
<path d="M49.9580 1.7182
L41.4480 1.7182
" />
<path d="M49.9580 5.4682
L49.9580 1.7182
" />
<circle cx="4.0088" cy="5.6683" r="3.9500" /> 
<circle cx="46.2110" cy="7.0162" r="1.5000" /> 
<path d="M32.6880 18.4172
L34.5880 18.4172
" />
<path d="M32.6880 21.7772
L32.6880 18.4172
" />
<path d="M34.5880 18.4172
L34.5880 21.7772
" />
<path d="M34.5880 21.7772
L32.6880 21.7772
" />
<path d="M27.2270 16.5122
L29.1270 16.5122
" />
<path d="M27.2270 19.8722
L27.2270 16.5122
" />
<path d="M29.1270 16.5122
L29.1270 19.8722
" />
<path d="M29.1270 19.8722
L27.2270 19.8722
" />
<path d="M13.0500 16.0263
L17.6500 16.0263
" />
<path d="M13.0500 18.3262
L13.0500 16.0263
" />
<path d="M17.6500 16.0263
L17.6500 18.3262
" />
<path d="M17.6500 18.3262
L13.0500 18.3262
" />
<circle cx="13.0640" cy="38.0042" r="1.5000" /> 
<path d="M39.5460 6.6062
L41.4460 6.6062
" />
<path d="M39.5460 9.9662
L39.5460 6.6062
" />
<path d="M41.4460 6.6062
L41.4460 9.9662
" />
<path d="M41.4460 9.9662
L39.5460 9.9662
" />
<path d="M30.5750 2.7762
L30.5750 6.1763
" />
<path d="M30.5750 6.1763
L34.4150 6.1763
" />
<path d="M34.4150 2.7762
L30.5750 2.7762
" />
<path d="M34.4150 6.1763
L34.4150 2.7762
" />
<path d="M30.2020 35.5772
L32.5020 35.5772
" />
<path d="M30.2020 40.1773
L30.2020 35.5772
" />
<path d="M32.5020 35.5772
L32.5020 40.1773
" />
<path d="M32.5020 40.1773
L30.2020 40.1773
" />
<path d="M37.8958 21.1333
L37.8958 23.6333
" />
<path d="M37.8958 21.1333
L41.1958 21.1333
" />
<path d="M41.1958 23.6333
L37.8958 23.6333
" />
<path d="M41.1958 23.6333
L41.1958 21.1333
" />
<path d="M4.6025 26.1348
L9.2025 26.1348
" />
<path d="M4.6025 28.4347
L4.6025 26.1348
" />
<path d="M9.2025 26.1348
L9.2025 28.4347
" />
<path d="M9.2025 28.4347
L4.6025 28.4347
" />
</g>
<g style="fill:none; 
stroke:#C2C200; stroke-width:0.0500; stroke-opacity:1; 
stroke-linecap:round; stroke-linejoin:round;">
<path d="M50.0250 4.3022
L50.0250 41.7222
" />
<path d="M2.5650 1.7622 A2.5400 2.5400 0.0 0 0 0.0250 4.3022" />
<path d="M50.0250 4.3022 A2.5400 2.5400 0.0 0 0 47.4850 1.7622" />
<path d="M0.0250 41.7222
L0.0250 4.3022
" />
<path d="M0.0250 41.7222 A2.5400 2.5400 0.0 0 0 2.5650 44.2622" />
<path d="M2.5650 1.7622
L47.4850 1.7622
" />
<path d="M47.4850 44.2622 A2.5400 2.5400 0.0 0 0 50.0250 41.7222" />
<path d="M47.4850 44.2622
L2.5650 44.2622
" />
</g> 
</svg>
