<?xml version="1.0" standalone="no"?>
 <!DOCTYPE svg PUBLIC "-//W3C//DTD SVG 1.1//EN" 
 "http://www.w3.org/Graphics/SVG/1.1/DTD/svg11.dtd"> 
<svg
  xmlns:svg="http://www.w3.org/2000/svg"
  xmlns="http://www.w3.org/2000/svg"
  xmlns:xlink="http://www.w3.org/1999/xlink"
  version="1.1"
  width="50.0380mm" height="44.3992mm" viewBox="0.0000 0.0000 50.0380 44.3992">
<title>SVG Image created as 3458A Ref A9 Clone-B_Courtyard.svg date 2024/11/06 00:15:03 </title>
  <desc>Image generated by PCBNEW </desc>
<g style="fill:#000000; fill-opacity:1.0000;stroke:#000000; stroke-opacity:1.0000;
stroke-linecap:round; stroke-linejoin:round;"
 transform="translate(0 0) scale(1 1)">
</g>
<g style="fill:none; 
stroke:#848484; stroke-width:0.0500; stroke-opacity:1; 
stroke-linecap:round; stroke-linejoin:round;">
<path d="M38.4150 31.1922
L40.7150 31.1922
" />
<path d="M38.4150 35.7922
L38.4150 31.1922
" />
<path d="M40.7150 31.1922
L40.7150 35.7922
" />
<path d="M40.7150 35.7922
L38.4150 35.7922
" />
</g>
<g style="fill:none; 
stroke:#C2C200; stroke-width:0.0500; stroke-opacity:1; 
stroke-linecap:round; stroke-linejoin:round;">
<path d="M50.0250 4.3022
L50.0250 41.7222
" />
<path d="M2.5650 1.7622 A2.5400 2.5400 0.0 0 0 0.0250 4.3022" />
<path d="M50.0250 4.3022 A2.5400 2.5400 0.0 0 0 47.4850 1.7622" />
<path d="M0.0250 41.7222
L0.0250 4.3022
" />
<path d="M0.0250 41.7222 A2.5400 2.5400 0.0 0 0 2.5650 44.2622" />
<path d="M2.5650 1.7622
L47.4850 1.7622
" />
<path d="M47.4850 44.2622 A2.5400 2.5400 0.0 0 0 50.0250 41.7222" />
<path d="M47.4850 44.2622
L2.5650 44.2622
" />
</g> 
</svg>
