<?xml version="1.0" standalone="no"?>
 <!DOCTYPE svg PUBLIC "-//W3C//DTD SVG 1.1//EN" 
 "http://www.w3.org/Graphics/SVG/1.1/DTD/svg11.dtd"> 
<svg
  xmlns:svg="http://www.w3.org/2000/svg"
  xmlns="http://www.w3.org/2000/svg"
  xmlns:xlink="http://www.w3.org/1999/xlink"
  version="1.1"
  width="50.0380mm" height="42.5704mm" viewBox="0.0000 0.0000 50.0380 42.5704">
<title>SVG Image created as 3458A Ref A9 Clone-brd.svg date 2024/11/21 00:30:26 </title>
  <desc>Image generated by PCBNEW </desc>
<g style="fill:#000000; fill-opacity:1.0000;stroke:#000000; stroke-opacity:1.0000;
stroke-linecap:round; stroke-linejoin:round;"
 transform="translate(0 0) scale(1 1)">
</g>
<g style="fill:none; 
stroke:#D0D2CD; stroke-width:0.0500; stroke-opacity:1; 
stroke-linecap:round; stroke-linejoin:round;">
<path d="M50.0250 2.5902
L50.0250 40.0102
" />
<path d="M2.5650 0.0502 A2.5400 2.5400 0.0 0 0 0.0250 2.5902" />
<path d="M50.0250 2.5902 A2.5400 2.5400 0.0 0 0 47.4850 0.0502" />
<path d="M0.0250 40.0102
L0.0250 2.5902
" />
<path d="M0.0250 40.0102 A2.5400 2.5400 0.0 0 0 2.5650 42.5502" />
<path d="M2.5650 0.0502
L47.4850 0.0502
" />
<path d="M47.4850 42.5502 A2.5400 2.5400 0.0 0 0 50.0250 40.0102" />
<path d="M47.4850 42.5502
L2.5650 42.5502
" />
</g>
<g style="fill:#D0D2CD; fill-opacity:1.0000; stroke:none;">
<circle cx="4.8560" cy="16.5310" r="0.4000" /> 
</g>
<g style="fill:#D0D2CD; fill-opacity:1.0000; stroke:none;">
<circle cx="8.6660" cy="16.5310" r="0.4000" /> 
</g>
<g style="fill:#D0D2CD; fill-opacity:1.0000; stroke:none;">
<circle cx="41.4320" cy="16.8612" r="0.4000" /> 
</g>
<g style="fill:#D0D2CD; fill-opacity:1.0000; stroke:none;">
<circle cx="37.6220" cy="16.8612" r="0.4000" /> 
</g>
<g style="fill:#D0D2CD; fill-opacity:1.0000; stroke:none;">
<circle cx="42.3980" cy="31.7802" r="0.3500" /> 
</g>
<g style="fill:#D0D2CD; fill-opacity:1.0000; stroke:none;">
<circle cx="41.5428" cy="29.7154" r="0.3500" /> 
</g>
<g style="fill:#D0D2CD; fill-opacity:1.0000; stroke:none;">
<circle cx="39.4780" cy="28.8602" r="0.3500" /> 
</g>
<g style="fill:#D0D2CD; fill-opacity:1.0000; stroke:none;">
<circle cx="37.4133" cy="29.7154" r="0.3500" /> 
</g>
<g style="fill:#D0D2CD; fill-opacity:1.0000; stroke:none;">
<circle cx="36.5580" cy="31.7802" r="0.3500" /> 
</g>
<g style="fill:#D0D2CD; fill-opacity:1.0000; stroke:none;">
<circle cx="37.4133" cy="33.8449" r="0.3500" /> 
</g>
<g style="fill:#D0D2CD; fill-opacity:1.0000; stroke:none;">
<circle cx="39.4780" cy="34.7002" r="0.3500" /> 
</g>
<g style="fill:#D0D2CD; fill-opacity:1.0000; stroke:none;">
<circle cx="41.5428" cy="33.8449" r="0.3500" /> 
</g>
<g style="fill:#D0D2CD; fill-opacity:1.0000; stroke:none;">
<circle cx="17.9350" cy="32.3902" r="0.9000" /> 
</g>
<g style="fill:#D0D2CD; fill-opacity:1.0000; stroke:none;">
<circle cx="23.0150" cy="32.3902" r="0.9000" /> 
</g>
<g style="fill:#D0D2CD; fill-opacity:1.0000; stroke:none;">
<circle cx="25.5550" cy="32.3902" r="0.9000" /> 
</g>
<g style="fill:#D0D2CD; fill-opacity:1.0000; stroke:none;">
<circle cx="28.0950" cy="32.3902" r="0.9000" /> 
</g>
<g style="fill:#D0D2CD; fill-opacity:1.0000; stroke:none;">
<circle cx="17.9350" cy="36.2002" r="0.5000" /> 
</g>
<g style="fill:#D0D2CD; fill-opacity:1.0000; stroke:none;">
<circle cx="20.4750" cy="36.2002" r="0.5000" /> 
</g>
<g style="fill:#D0D2CD; fill-opacity:1.0000; stroke:none;">
<circle cx="23.0150" cy="36.2002" r="0.5000" /> 
</g>
<g style="fill:#D0D2CD; fill-opacity:1.0000; stroke:none;">
<circle cx="25.5550" cy="36.2002" r="0.5000" /> 
</g>
<g style="fill:#D0D2CD; fill-opacity:1.0000; stroke:none;">
<circle cx="28.0950" cy="36.2002" r="0.5000" /> 
</g>
<g style="fill:#D0D2CD; fill-opacity:1.0000; stroke:none;">
<circle cx="8.6660" cy="24.1510" r="0.4000" /> 
</g>
<g style="fill:#D0D2CD; fill-opacity:1.0000; stroke:none;">
<circle cx="4.8560" cy="24.1510" r="0.4000" /> 
</g>
<g style="fill:#D0D2CD; fill-opacity:1.0000; stroke:none;">
<circle cx="44.5689" cy="38.7262" r="1.8500" /> 
</g>
<g style="fill:#D0D2CD; fill-opacity:1.0000; stroke:none;">
<circle cx="34.4189" cy="24.8362" r="1.8500" /> 
</g>
<g style="fill:#D0D2CD; fill-opacity:1.0000; stroke:none;">
<circle cx="13.5682" cy="38.7052" r="0.5000" /> 
</g>
<g style="fill:#D0D2CD; fill-opacity:1.0000; stroke:none;">
<circle cx="44.8102" cy="7.4378" r="0.5000" /> 
</g>
<g style="fill:#D0D2CD; fill-opacity:1.0000; stroke:none;">
<circle cx="13.5700" cy="22.7032" r="0.5000" /> 
</g>
<g style="fill:#D0D2CD; fill-opacity:1.0000; stroke:none;">
<circle cx="13.5700" cy="25.2432" r="0.5000" /> 
</g>
<g style="fill:#D0D2CD; fill-opacity:1.0000; stroke:none;">
<circle cx="41.5700" cy="2.3822" r="0.5000" /> 
</g>
<g style="fill:#D0D2CD; fill-opacity:1.0000; stroke:none;">
<circle cx="43.8500" cy="2.3822" r="0.5000" /> 
</g>
<g style="fill:#D0D2CD; fill-opacity:1.0000; stroke:none;">
<circle cx="46.1300" cy="2.3822" r="0.5000" /> 
</g>
<g style="fill:#D0D2CD; fill-opacity:1.0000; stroke:none;">
<circle cx="3.9288" cy="3.9562" r="1.8500" /> 
</g>
<g style="fill:#D0D2CD; fill-opacity:1.0000; stroke:none;">
<circle cx="47.3502" cy="7.4378" r="0.5000" /> 
</g>
<g style="fill:#D0D2CD; fill-opacity:1.0000; stroke:none;">
<circle cx="13.5682" cy="36.1652" r="0.5000" /> 
</g>
<g style="fill:#D0D2CD; fill-opacity:1.0000; stroke:none;">
<circle cx="28.1050" cy="10.2802" r="0.9000" /> 
</g>
<g style="fill:#D0D2CD; fill-opacity:1.0000; stroke:none;">
<circle cx="25.5650" cy="10.2802" r="0.9000" /> 
</g>
<g style="fill:#D0D2CD; fill-opacity:1.0000; stroke:none;">
<circle cx="23.0250" cy="10.2802" r="0.9000" /> 
</g>
<g style="fill:#D0D2CD; fill-opacity:1.0000; stroke:none;">
<circle cx="20.4850" cy="10.2802" r="0.9000" /> 
</g>
<g style="fill:#D0D2CD; fill-opacity:1.0000; stroke:none;">
<circle cx="17.9450" cy="10.2802" r="0.9000" /> 
</g>
<g style="fill:#D0D2CD; fill-opacity:1.0000; stroke:none;">
<circle cx="17.9450" cy="6.4702" r="0.5000" /> 
</g>
<g style="fill:#D0D2CD; fill-opacity:1.0000; stroke:none;">
<circle cx="20.4850" cy="6.4702" r="0.5000" /> 
</g>
<g style="fill:#D0D2CD; fill-opacity:1.0000; stroke:none;">
<circle cx="23.0250" cy="6.4702" r="0.5000" /> 
</g>
<g style="fill:#D0D2CD; fill-opacity:1.0000; stroke:none;">
<circle cx="25.5650" cy="6.4702" r="0.5000" /> 
</g>
<g style="fill:#D0D2CD; fill-opacity:1.0000; stroke:none;">
<circle cx="28.1050" cy="6.4702" r="0.5000" /> 
</g>
<g style="fill:#7FC87F; fill-opacity:1.0000; stroke:none;">
<circle cx="39.4780" cy="34.7002" r="0.7500" /> 
</g>
<g style="fill:#7FC87F; fill-opacity:1.0000; stroke:none;">
<circle cx="28.0950" cy="36.2002" r="0.8500" /> 
</g>
<g style="fill:#7FC87F; fill-opacity:1.0000; stroke:none;">
<circle cx="4.8560" cy="24.1510" r="0.7500" /> 
</g>
<g style="fill:#7FC87F; fill-opacity:1.0000; stroke:none;">
<circle cx="13.5682" cy="38.7052" r="0.8500" /> 
</g>
<g style="fill:#7FC87F; fill-opacity:1.0000; stroke:none;">
<circle cx="13.5700" cy="25.2432" r="0.8500" /> 
</g>
<g style="fill:#ECECEC; fill-opacity:1.0000; stroke:none;">
<circle cx="28.8590" cy="13.4322" r="0.3000" /> 
</g>
<g style="fill:#ECECEC; fill-opacity:1.0000; stroke:none;">
<circle cx="15.7780" cy="31.2122" r="0.3000" /> 
</g>
<g style="fill:#ECECEC; fill-opacity:1.0000; stroke:none;">
<circle cx="28.8590" cy="13.9402" r="0.3000" /> 
</g>
<g style="fill:#ECECEC; fill-opacity:1.0000; stroke:none;">
<circle cx="28.8590" cy="12.9242" r="0.3000" /> 
</g>
<g style="fill:#ECECEC; fill-opacity:1.0000; stroke:none;">
<circle cx="11.7902" cy="15.0832" r="0.3000" /> 
</g>
<g style="fill:#ECECEC; fill-opacity:1.0000; stroke:none;">
<circle cx="2.4430" cy="34.8952" r="0.3000" /> 
</g>
<g style="fill:#ECECEC; fill-opacity:1.0000; stroke:none;">
<circle cx="15.7780" cy="30.1962" r="0.3000" /> 
</g>
<g style="fill:#ECECEC; fill-opacity:1.0000; stroke:none;">
<circle cx="2.4430" cy="34.3872" r="0.3000" /> 
</g>
<g style="fill:#ECECEC; fill-opacity:1.0000; stroke:none;">
<circle cx="11.7902" cy="15.5912" r="0.3000" /> 
</g>
<g style="fill:#ECECEC; fill-opacity:1.0000; stroke:none;">
<circle cx="11.7902" cy="16.0992" r="0.3000" /> 
</g>
<g style="fill:#ECECEC; fill-opacity:1.0000; stroke:none;">
<circle cx="2.4430" cy="33.8792" r="0.3000" /> 
</g>
<g style="fill:#ECECEC; fill-opacity:1.0000; stroke:none;">
<circle cx="15.7780" cy="30.7042" r="0.3000" /> 
</g>
<g style="fill:#ECECEC; fill-opacity:1.0000; stroke:none;">
<circle cx="37.5276" cy="36.4911" r="0.3000" /> 
</g>
<g style="fill:#ECECEC; fill-opacity:1.0000; stroke:none;">
<circle cx="38.5154" cy="36.7964" r="0.3000" /> 
</g>
<g style="fill:#ECECEC; fill-opacity:1.0000; stroke:none;">
<circle cx="43.1183" cy="34.0968" r="0.3000" /> 
</g>
<g style="fill:#ECECEC; fill-opacity:1.0000; stroke:none;">
<circle cx="40.5430" cy="31.7802" r="0.3000" /> 
</g>
<g style="fill:#ECECEC; fill-opacity:1.0000; stroke:none;">
<circle cx="38.0714" cy="32.2018" r="0.3000" /> 
</g>
<g style="fill:#ECECEC; fill-opacity:1.0000; stroke:none;">
<circle cx="37.2078" cy="28.1318" r="0.3000" /> 
</g>
<g style="fill:#ECECEC; fill-opacity:1.0000; stroke:none;">
<circle cx="40.4546" cy="27.5901" r="0.3000" /> 
</g>
<g style="fill:#ECECEC; fill-opacity:1.0000; stroke:none;">
<circle cx="38.5154" cy="35.9702" r="0.3000" /> 
</g>
<g style="fill:#ECECEC; fill-opacity:1.0000; stroke:none;">
<circle cx="35.8366" cy="34.0574" r="0.3000" /> 
</g>
<g style="fill:#ECECEC; fill-opacity:1.0000; stroke:none;">
<circle cx="40.4160" cy="35.9874" r="0.3000" /> 
</g>
<g style="fill:#ECECEC; fill-opacity:1.0000; stroke:none;">
<circle cx="43.0318" cy="30.3232" r="0.3000" /> 
</g>
<g style="fill:#ECECEC; fill-opacity:1.0000; stroke:none;">
<circle cx="34.4650" cy="32.7112" r="0.3000" /> 
</g>
<g style="fill:#ECECEC; fill-opacity:1.0000; stroke:none;">
<circle cx="35.2778" cy="32.7112" r="0.3000" /> 
</g>
<g style="fill:#ECECEC; fill-opacity:1.0000; stroke:none;">
<circle cx="40.4160" cy="36.8002" r="0.3000" /> 
</g>
<g style="fill:#ECECEC; fill-opacity:1.0000; stroke:none;">
<circle cx="38.0714" cy="31.3636" r="0.3000" /> 
</g>
<g style="fill:#ECECEC; fill-opacity:1.0000; stroke:none;">
<circle cx="43.6922" cy="30.8492" r="0.3000" /> 
</g>
<g style="fill:#ECECEC; fill-opacity:1.0000; stroke:none;">
<circle cx="34.4688" cy="30.8106" r="0.3000" /> 
</g>
<g style="fill:#ECECEC; fill-opacity:1.0000; stroke:none;">
<circle cx="34.7698" cy="33.7272" r="0.3000" /> 
</g>
<g style="fill:#ECECEC; fill-opacity:1.0000; stroke:none;">
<circle cx="43.0232" cy="33.2579" r="0.3000" /> 
</g>
<g style="fill:#ECECEC; fill-opacity:1.0000; stroke:none;">
<circle cx="44.5012" cy="32.7498" r="0.3000" /> 
</g>
<g style="fill:#ECECEC; fill-opacity:1.0000; stroke:none;">
<circle cx="38.0280" cy="28.2334" r="0.3000" /> 
</g>
<g style="fill:#ECECEC; fill-opacity:1.0000; stroke:none;">
<circle cx="41.8017" cy="28.1469" r="0.3000" /> 
</g>
<g style="fill:#ECECEC; fill-opacity:1.0000; stroke:none;">
<circle cx="44.5050" cy="30.8492" r="0.3000" /> 
</g>
<g style="fill:#ECECEC; fill-opacity:1.0000; stroke:none;">
<circle cx="36.6236" cy="27.5476" r="0.3000" /> 
</g>
<g style="fill:#ECECEC; fill-opacity:1.0000; stroke:none;">
<circle cx="41.4425" cy="27.0693" r="0.3000" /> 
</g>
<g style="fill:#ECECEC; fill-opacity:1.0000; stroke:none;">
<circle cx="40.9627" cy="28.2420" r="0.3000" /> 
</g>
<g style="fill:#ECECEC; fill-opacity:1.0000; stroke:none;">
<circle cx="35.2770" cy="28.8888" r="0.3000" /> 
</g>
<g style="fill:#ECECEC; fill-opacity:1.0000; stroke:none;">
<circle cx="35.2950" cy="30.8106" r="0.3000" /> 
</g>
<g style="fill:#ECECEC; fill-opacity:1.0000; stroke:none;">
<circle cx="41.7622" cy="35.4286" r="0.3000" /> 
</g>
<g style="fill:#ECECEC; fill-opacity:1.0000; stroke:none;">
<circle cx="35.9382" cy="33.2372" r="0.3000" /> 
</g>
<g style="fill:#ECECEC; fill-opacity:1.0000; stroke:none;">
<circle cx="37.5380" cy="27.0650" r="0.3000" /> 
</g>
<g style="fill:#ECECEC; fill-opacity:1.0000; stroke:none;">
<circle cx="40.0350" cy="31.7802" r="0.3000" /> 
</g>
<g style="fill:#ECECEC; fill-opacity:1.0000; stroke:none;">
<circle cx="43.1334" cy="29.5030" r="0.3000" /> 
</g>
<g style="fill:#ECECEC; fill-opacity:1.0000; stroke:none;">
<circle cx="43.6750" cy="32.7498" r="0.3000" /> 
</g>
<g style="fill:#ECECEC; fill-opacity:1.0000; stroke:none;">
<circle cx="42.3764" cy="27.5722" r="0.3000" /> 
</g>
<g style="fill:#ECECEC; fill-opacity:1.0000; stroke:none;">
<circle cx="40.8986" cy="32.2028" r="0.3000" /> 
</g>
<g style="fill:#ECECEC; fill-opacity:1.0000; stroke:none;">
<circle cx="38.5540" cy="27.5730" r="0.3000" /> 
</g>
<g style="fill:#ECECEC; fill-opacity:1.0000; stroke:none;">
<circle cx="40.8986" cy="31.3646" r="0.3000" /> 
</g>
<g style="fill:#ECECEC; fill-opacity:1.0000; stroke:none;">
<circle cx="44.1959" cy="33.7376" r="0.3000" /> 
</g>
<g style="fill:#ECECEC; fill-opacity:1.0000; stroke:none;">
<circle cx="35.9468" cy="30.3024" r="0.3000" /> 
</g>
<g style="fill:#ECECEC; fill-opacity:1.0000; stroke:none;">
<circle cx="34.7741" cy="29.8227" r="0.3000" /> 
</g>
<g style="fill:#ECECEC; fill-opacity:1.0000; stroke:none;">
<circle cx="43.7176" cy="28.9188" r="0.3000" /> 
</g>
<g style="fill:#ECECEC; fill-opacity:1.0000; stroke:none;">
<circle cx="44.2002" cy="29.8332" r="0.3000" /> 
</g>
<g style="fill:#ECECEC; fill-opacity:1.0000; stroke:none;">
<circle cx="36.5936" cy="35.9882" r="0.3000" /> 
</g>
<g style="fill:#ECECEC; fill-opacity:1.0000; stroke:none;">
<circle cx="37.1684" cy="35.4134" r="0.3000" /> 
</g>
<g style="fill:#ECECEC; fill-opacity:1.0000; stroke:none;">
<circle cx="35.8518" cy="29.4635" r="0.3000" /> 
</g>
<g style="fill:#ECECEC; fill-opacity:1.0000; stroke:none;">
<circle cx="42.3464" cy="36.0128" r="0.3000" /> 
</g>
<g style="fill:#ECECEC; fill-opacity:1.0000; stroke:none;">
<circle cx="39.4850" cy="31.7802" r="0.3000" /> 
</g>
<g style="fill:#ECECEC; fill-opacity:1.0000; stroke:none;">
<circle cx="35.2524" cy="34.6416" r="0.3000" /> 
</g>
<g style="fill:#ECECEC; fill-opacity:1.0000; stroke:none;">
<circle cx="43.6930" cy="34.6716" r="0.3000" /> 
</g>
<g style="fill:#ECECEC; fill-opacity:1.0000; stroke:none;">
<circle cx="41.4320" cy="36.4954" r="0.3000" /> 
</g>
<g style="fill:#ECECEC; fill-opacity:1.0000; stroke:none;">
<circle cx="40.4546" cy="26.7640" r="0.3000" /> 
</g>
<g style="fill:#ECECEC; fill-opacity:1.0000; stroke:none;">
<circle cx="38.4270" cy="31.7792" r="0.3000" /> 
</g>
<g style="fill:#ECECEC; fill-opacity:1.0000; stroke:none;">
<circle cx="38.9350" cy="31.7792" r="0.3000" /> 
</g>
<g style="fill:#ECECEC; fill-opacity:1.0000; stroke:none;">
<circle cx="40.9420" cy="35.3270" r="0.3000" /> 
</g>
<g style="fill:#ECECEC; fill-opacity:1.0000; stroke:none;">
<circle cx="38.5540" cy="26.7602" r="0.3000" /> 
</g>
<g style="fill:#ECECEC; fill-opacity:1.0000; stroke:none;">
<circle cx="38.0073" cy="35.3184" r="0.3000" /> 
</g>
<g style="fill:none; 
stroke:#7FC87F; stroke-width:0.2000; stroke-opacity:1; 
stroke-linecap:round; stroke-linejoin:round;">
<path d="M39.4780 34.7002
L39.4780 40.5612
" />
<path style="fill:#7FC87F; fill-opacity:1.0000; stroke:none;fill-rule:evenodd;"
d="M 39.8889,26.3415
39.8963,26.3420
40.2942,26.3869
40.3015,26.3880
40.3976,26.4061
40.6950,26.4624
40.7022,26.4641
41.0890,26.5677
41.0961,26.5699
41.4740,26.7021
41.4809,26.7048
41.8480,26.8650
41.8546,26.8682
42.2087,27.0553
42.2150,27.0590
42.5541,27.2721
42.5602,27.2762
42.8824,27.5140
42.8882,27.5186
43.1917,27.7798
43.1972,27.7849
43.4803,28.0680
43.4854,28.0734
43.7466,28.3770
43.7512,28.3828
43.9890,28.7050
43.9931,28.7111
44.0842,28.8560
44.1526,28.9649
44.2062,29.0501
44.2099,29.0565
44.3970,29.4106
44.4002,29.4172
44.5603,29.7843
44.5631,29.7912
44.6953,30.1691
44.6975,30.1762
44.8011,30.5630
44.8028,30.5702
44.8772,30.9637
44.8783,30.9710
44.9232,31.3689
44.9237,31.3763
44.9387,31.7765
44.9387,31.7839
44.9237,32.1840
44.9232,32.1914
44.8783,32.5893
44.8772,32.5967
44.8028,32.9901
44.8011,32.9973
44.6975,33.3841
44.6953,33.3912
44.5631,33.7692
44.5603,33.7761
44.4002,34.1431
44.3970,34.1498
44.2099,34.5038
44.2062,34.5102
43.9931,34.8493
43.9890,34.8554
43.7512,35.1776
43.7466,35.1834
43.4854,35.4869
43.4803,35.4923
43.1972,35.7755
43.1917,35.7805
42.8882,36.0417
42.8824,36.0463
42.5602,36.2841
42.5541,36.2883
42.2151,36.5014
42.2087,36.5050
41.8546,36.6922
41.8480,36.6954
41.4809,36.8555
41.4740,36.8582
41.0961,36.9905
41.0890,36.9926
40.7022,37.0963
40.6950,37.0979
40.3015,37.1724
40.2942,37.1735
40.0886,37.1967
40.0287,37.1844
39.9874,37.1392
39.9785,37.0983
39.9785,35.7986
39.9974,35.7404
40.0254,35.7144
40.1743,35.6222
40.1743,35.6222
40.1743,35.6222
40.3319,35.4786
40.4604,35.3084
40.5554,35.1176
40.6138,34.9125
40.6334,34.7002
40.6138,34.4879
40.5554,34.2828
40.4604,34.0919
40.3319,33.9218
40.2776,33.8723
40.1743,33.7781
40.1743,33.7781
40.1628,33.7710
40.7923,33.7710
40.7923,33.9188
40.8211,34.0638
40.8777,34.2004
40.8777,34.2004
40.9598,34.3233
41.0644,34.4279
41.1873,34.5100
41.3239,34.5666
41.4689,34.5954
41.4689,34.5954
41.6167,34.5954
41.6167,34.5954
41.7617,34.5666
41.8983,34.5100
42.0212,34.4279
42.1257,34.3233
42.2079,34.2004
42.2644,34.0638
42.2933,33.9188
42.2933,33.7710
42.2644,33.6260
42.2079,33.4894
42.1257,33.3665
42.0212,33.2620
41.8983,33.1798
41.8983,33.1798
41.7617,33.1233
41.6167,33.0944
41.4689,33.0944
41.4689,33.0944
41.3239,33.1233
41.1873,33.1798
41.0644,33.2620
40.9598,33.3665
40.8777,33.4894
40.8211,33.6260
40.7923,33.7710
40.1628,33.7710
39.9930,33.6659
39.9930,33.6659
39.8901,33.6260
39.7942,33.5889
39.7942,33.5889
39.7942,33.5889
39.5846,33.5497
39.3714,33.5497
39.1618,33.5889
38.9630,33.6659
38.9630,33.6659
38.7817,33.7781
38.7817,33.7781
38.6242,33.9218
38.6241,33.9218
38.6241,33.9218
38.6241,33.9218
38.4957,34.0919
38.4956,34.0919
38.4006,34.2828
38.3423,34.4879
38.3226,34.7002
38.3364,34.8493
38.3423,34.9125
38.4006,35.1176
38.4957,35.3084
38.6241,35.4786
38.6242,35.4786
38.7817,35.6222
38.7817,35.6222
38.9306,35.7144
38.9702,35.7611
38.9775,35.7986
38.9775,37.0967
38.9586,37.1549
38.9091,37.1909
38.8674,37.1951
38.6759,37.1735
38.6685,37.1724
38.2751,37.0979
38.2679,37.0963
37.8811,36.9926
37.8740,36.9905
37.4960,36.8582
37.4891,36.8555
37.1221,36.6954
37.1154,36.6922
36.7614,36.5050
36.7550,36.5014
36.5609,36.3794
36.4159,36.2883
36.4098,36.2841
36.0876,36.0463
36.0818,36.0417
35.7783,35.7805
35.7729,35.7755
35.4897,35.4923
35.4847,35.4869
35.2235,35.1834
35.2188,35.1776
34.9811,34.8554
34.9769,34.8493
34.7638,34.5102
34.7602,34.5038
34.5730,34.1498
34.5698,34.1431
34.4097,33.7761
34.4077,33.7710
36.6628,33.7710
36.6628,33.9188
36.6916,34.0638
36.7482,34.2004
36.7482,34.2004
36.8303,34.3233
36.9348,34.4279
37.0578,34.5100
37.1944,34.5666
37.3393,34.5954
37.3393,34.5954
37.4872,34.5954
37.4872,34.5954
37.6322,34.5666
37.7688,34.5100
37.8917,34.4279
37.9962,34.3233
38.0784,34.2004
38.1349,34.0638
38.1638,33.9188
38.1638,33.7710
38.1349,33.6260
38.0784,33.4894
37.9962,33.3665
37.8917,33.2620
37.7688,33.1798
37.7688,33.1798
37.6322,33.1233
37.4872,33.0944
37.3393,33.0944
37.3393,33.0944
37.1944,33.1233
37.0578,33.1798
36.9349,33.2620
36.8303,33.3665
36.7482,33.4894
36.6916,33.6260
36.6628,33.7710
34.4077,33.7710
34.4070,33.7692
34.3091,33.4894
34.2747,33.3912
34.2725,33.3841
34.2178,33.1798
34.1689,32.9973
34.1673,32.9901
34.0928,32.5967
34.0917,32.5893
34.0662,32.3631
34.0469,32.1914
34.0463,32.1840
34.0313,31.7839
34.0313,31.7765
34.0340,31.7063
35.8075,31.7063
35.8075,31.8541
35.8364,31.9991
35.8929,32.1357
35.9751,32.2586
36.0796,32.3631
36.2025,32.4453
36.3391,32.5018
36.4841,32.5307
36.4841,32.5307
36.6319,32.5307
36.6319,32.5307
36.7769,32.5018
36.9135,32.4453
37.0364,32.3631
37.1410,32.2586
37.2231,32.1357
37.2797,31.9991
37.3085,31.8541
37.3085,31.7063
41.6475,31.7063
41.6475,31.8541
41.6764,31.9991
41.7329,32.1357
41.8151,32.2586
41.9196,32.3631
42.0425,32.4453
42.1791,32.5018
42.3241,32.5307
42.3241,32.5307
42.4719,32.5307
42.4719,32.5307
42.6169,32.5018
42.7535,32.4453
42.8764,32.3631
42.9810,32.2586
43.0631,32.1357
43.1197,31.9991
43.1485,31.8541
43.1485,31.7063
43.1197,31.5613
43.0631,31.4247
42.9810,31.3018
42.8764,31.1972
42.7535,31.1151
42.7535,31.1151
42.6169,31.0585
42.4719,31.0297
42.3241,31.0297
42.3241,31.0297
42.1791,31.0585
42.0425,31.1151
41.9196,31.1972
41.8151,31.3018
41.7329,31.4247
41.6764,31.5613
41.6764,31.5613
41.6475,31.7063
37.3085,31.7063
37.2797,31.5613
37.2231,31.4247
37.1410,31.3018
37.0364,31.1972
36.9135,31.1151
36.9135,31.1151
36.7769,31.0585
36.6319,31.0297
36.4841,31.0297
36.4841,31.0297
36.3391,31.0585
36.2025,31.1151
36.0796,31.1972
35.9751,31.3018
35.8929,31.4247
35.8364,31.5613
35.8364,31.5613
35.8075,31.7063
34.0340,31.7063
34.0463,31.3763
34.0469,31.3689
34.0917,30.9710
34.0928,30.9637
34.1673,30.5702
34.1689,30.5630
34.2725,30.1762
34.2747,30.1691
34.3091,30.0709
34.4070,29.7912
34.4097,29.7843
34.4720,29.6415
36.6628,29.6415
36.6628,29.6415
36.6628,29.7893
36.6916,29.9343
36.7482,30.0709
36.8303,30.1938
36.9348,30.2984
37.0578,30.3805
37.1944,30.4371
37.3393,30.4659
37.3393,30.4659
37.4872,30.4659
37.4872,30.4659
37.6322,30.4371
37.7688,30.3805
37.8917,30.2984
37.9962,30.1938
38.0784,30.0709
38.1349,29.9343
38.1638,29.7893
38.1638,29.6415
38.1638,29.6415
40.7923,29.6415
40.7923,29.6415
40.7923,29.7893
40.8211,29.9343
40.8777,30.0709
40.9598,30.1938
41.0644,30.2984
41.1873,30.3805
41.3239,30.4371
41.4689,30.4659
41.4689,30.4659
41.6167,30.4659
41.6167,30.4659
41.7617,30.4371
41.8983,30.3805
42.0212,30.2984
42.1257,30.1938
42.2079,30.0709
42.2644,29.9343
42.2933,29.7893
42.2933,29.6415
42.2644,29.4965
42.2079,29.3599
42.1257,29.2370
42.0212,29.1325
41.8983,29.0503
41.8978,29.0501
41.7617,28.9938
41.6167,28.9649
41.4689,28.9649
41.4689,28.9649
41.3239,28.9938
41.1873,29.0503
41.0644,29.1325
40.9598,29.2370
40.8777,29.3599
40.8211,29.4965
40.7923,29.6415
38.1638,29.6415
38.1349,29.4965
38.0784,29.3599
37.9962,29.2370
37.8917,29.1325
37.7688,29.0503
37.7683,29.0501
37.6322,28.9938
37.4872,28.9649
37.3393,28.9649
37.3393,28.9649
37.1944,28.9938
37.0578,29.0503
36.9349,29.1325
36.8303,29.2370
36.7482,29.3599
36.6916,29.4965
36.6628,29.6415
34.4720,29.6415
34.5698,29.4172
34.5730,29.4106
34.7602,29.0565
34.7638,29.0502
34.9296,28.7863
38.7275,28.7863
38.7275,28.9341
38.7512,29.0533
38.7564,29.0791
38.8129,29.2157
38.8951,29.3386
38.9996,29.4431
39.1225,29.5253
39.2591,29.5818
39.4041,29.6107
39.4041,29.6107
39.5519,29.6107
39.5519,29.6107
39.6969,29.5818
39.8335,29.5253
39.9564,29.4431
40.0610,29.3386
40.1431,29.2157
40.1997,29.0791
40.2285,28.9341
40.2285,28.7863
40.1997,28.6413
40.1431,28.5047
40.0610,28.3818
39.9564,28.2772
39.8335,28.1951
39.8335,28.1951
39.6969,28.1385
39.5519,28.1097
39.4041,28.1097
39.4041,28.1097
39.2591,28.1385
39.1225,28.1951
38.9996,28.2772
38.8951,28.3818
38.8129,28.5047
38.7564,28.6413
38.7275,28.7863
34.9296,28.7863
34.9769,28.7111
34.9811,28.7050
35.2189,28.3827
35.2234,28.3770
35.4847,28.0734
35.4897,28.0680
35.7729,27.7849
35.7783,27.7798
36.0818,27.5186
36.0876,27.5140
36.4098,27.2762
36.4159,27.2721
36.7550,27.0590
36.7613,27.0553
37.1154,26.8682
37.1220,26.8650
37.4891,26.7048
37.4960,26.7021
37.8740,26.5699
37.8810,26.5677
38.2679,26.4641
38.2751,26.4624
38.6685,26.3880
38.6758,26.3869
39.0738,26.3420
39.0811,26.3415
39.4813,26.3265
39.4887,26.3265
Z" /> 
<path style="fill:#7FC87F; fill-opacity:1.0000; stroke:none;fill-rule:evenodd;"
d="M 47.4882,0.5509
47.7447,0.5677
47.7576,0.5694
48.0065,0.6189
48.0190,0.6223
48.2593,0.7039
48.2713,0.7088
48.4989,0.8211
48.5101,0.8275
48.7212,0.9685
48.7314,0.9764
48.9223,1.1438
48.9314,1.1529
49.0988,1.3437
49.1066,1.3540
49.2477,1.5650
49.2541,1.5763
49.3664,1.8039
49.3713,1.8158
49.4529,2.0562
49.4563,2.0687
49.5058,2.3176
49.5075,2.3305
49.5243,2.5870
49.5245,2.5934
49.5245,40.0069
49.5243,40.0134
49.5075,40.2699
49.5058,40.2828
49.4563,40.5317
49.4529,40.5442
49.3713,40.7845
49.3664,40.7965
49.2541,41.0241
49.2477,41.0353
49.1066,41.2464
49.0988,41.2566
48.9314,41.4475
48.9223,41.4566
48.7314,41.6240
48.7212,41.6318
48.5101,41.7728
48.4989,41.7793
48.2713,41.8916
48.2593,41.8965
48.0190,41.9781
48.0065,41.9815
47.7576,42.0310
47.7447,42.0327
47.4882,42.0495
47.4818,42.0497
2.5682,42.0497
2.5618,42.0495
2.3053,42.0327
2.2924,42.0310
2.0435,41.9815
2.0310,41.9781
1.7907,41.8965
1.7787,41.8916
1.5511,41.7793
1.5399,41.7728
1.3288,41.6318
1.3186,41.6240
1.1277,41.4566
1.1186,41.4475
0.9512,41.2566
0.9434,41.2464
0.8023,41.0353
0.7959,41.0241
0.6836,40.7965
0.6787,40.7845
0.5971,40.5442
0.5937,40.5317
0.5897,40.5113
0.5442,40.2828
0.5425,40.2699
0.5407,40.2420
0.5257,40.0134
0.5255,40.0069
0.5255,36.0666
12.5677,36.0666
12.5677,36.2637
12.6061,36.4570
12.6061,36.4570
12.6816,36.6391
12.7179,36.6935
12.7911,36.8030
12.9304,36.9423
13.0943,37.0518
13.2764,37.1272
13.4697,37.1657
13.4697,37.1657
13.6667,37.1657
13.6667,37.1657
13.8600,37.1272
14.0421,37.0518
14.2060,36.9423
14.3453,36.8030
14.4548,36.6391
14.5303,36.4570
14.5687,36.2637
14.5687,36.1016
16.9345,36.1016
16.9345,36.2987
16.9729,36.4920
16.9729,36.4920
17.0484,36.6741
17.0484,36.6741
17.1579,36.8380
17.2972,36.9773
17.4611,37.0868
17.6432,37.1622
17.8365,37.2007
17.8365,37.2007
18.0335,37.2007
18.0335,37.2007
18.2268,37.1622
18.4089,37.0868
18.5728,36.9773
18.7121,36.8380
18.8216,36.6741
18.8971,36.4920
18.9355,36.2987
18.9355,36.1016
18.9355,36.1016
19.4745,36.1016
19.4745,36.2987
19.5129,36.4920
19.5129,36.4920
19.5884,36.6741
19.5884,36.6741
19.6979,36.8380
19.8372,36.9773
20.0011,37.0868
20.1832,37.1622
20.3765,37.2007
20.3765,37.2007
20.5735,37.2007
20.5735,37.2007
20.7668,37.1622
20.9489,37.0868
21.1128,36.9773
21.2521,36.8380
21.3616,36.6741
21.4371,36.4920
21.4755,36.2987
21.4755,36.1016
21.4755,36.1016
22.0145,36.1016
22.0145,36.2987
22.0529,36.4920
22.0529,36.4920
22.1284,36.6741
22.1284,36.6741
22.2379,36.8380
22.3772,36.9773
22.5411,37.0868
22.7232,37.1622
22.9165,37.2007
22.9165,37.2007
23.1135,37.2007
23.1135,37.2007
23.3068,37.1622
23.3926,37.1267
23.3977,37.1249
23.4017,37.1232
23.4066,37.1209
23.4889,37.0868
23.5630,37.0373
23.5714,37.0323
23.5726,37.0317
23.5736,37.0308
23.5814,37.0250
23.6528,36.9773
23.7135,36.9166
23.7207,36.9101
23.7241,36.9073
23.7269,36.9038
23.7335,36.8967
23.7921,36.8380
23.8382,36.7690
23.8440,36.7612
23.8485,36.7558
23.8518,36.7496
23.8568,36.7412
23.9016,36.6741
23.9225,36.6236
23.9325,36.5995
23.9367,36.5907
23.9409,36.5829
23.9435,36.5744
23.9467,36.5652
23.9771,36.4920
23.9925,36.4143
23.9949,36.4049
23.9978,36.3953
23.9988,36.3853
24.0002,36.3757
24.0155,36.2987
24.0155,36.2203
24.0160,36.2106
24.0170,36.2002
24.0170,36.2002
24.0160,36.1898
24.0155,36.1801
24.0155,36.1016
24.0155,36.1016
24.5545,36.1016
24.5545,36.2987
24.5929,36.4920
24.5929,36.4920
24.6684,36.6741
24.6684,36.6741
24.7779,36.8380
24.9172,36.9773
25.0811,37.0868
25.2632,37.1622
25.4565,37.2007
25.4565,37.2007
25.6535,37.2007
25.6535,37.2007
25.8468,37.1622
26.0289,37.0868
26.1928,36.9773
26.3321,36.8380
26.4416,36.6741
26.5171,36.4920
26.5555,36.2987
26.5555,36.1016
26.5171,35.9084
26.4416,35.7263
26.3321,35.5624
26.1928,35.4231
26.0289,35.3136
26.0289,35.3136
25.8468,35.2381
25.6535,35.1997
25.6535,35.1997
25.4565,35.1997
25.4565,35.1997
25.2632,35.2381
25.2632,35.2381
25.0811,35.3136
24.9172,35.4231
24.9172,35.4231
24.7779,35.5624
24.7779,35.5624
24.6684,35.7263
24.5929,35.9084
24.5929,35.9084
24.5545,36.1016
24.0155,36.1016
24.0155,36.1016
24.0002,36.0247
23.9988,36.0151
23.9978,36.0051
23.9949,35.9955
23.9925,35.9861
23.9771,35.9084
23.9467,35.8352
23.9435,35.8260
23.9409,35.8175
23.9409,35.8175
23.9409,35.8175
23.9367,35.8097
23.9325,35.8009
23.9016,35.7263
23.9016,35.7263
23.8568,35.6591
23.8518,35.6508
23.8485,35.6446
23.8485,35.6446
23.8485,35.6446
23.8440,35.6392
23.8382,35.6314
23.7979,35.5711
23.7921,35.5624
23.7630,35.5333
23.7335,35.5037
23.7269,35.4965
23.7241,35.4931
23.7241,35.4931
23.7241,35.4931
23.7241,35.4931
23.7207,35.4903
23.7135,35.4837
23.6528,35.4230
23.6004,35.3881
23.5814,35.3754
23.5736,35.3696
23.5726,35.3687
23.5726,35.3687
23.5713,35.3681
23.5630,35.3631
23.4889,35.3136
23.4889,35.3136
23.4889,35.3136
23.4889,35.3136
23.4373,35.2922
23.4066,35.2794
23.4017,35.2771
23.3977,35.2755
23.3926,35.2737
23.3068,35.2381
23.1135,35.1997
23.1135,35.1997
22.9165,35.1997
22.9165,35.1997
22.7232,35.2381
22.7232,35.2381
22.5411,35.3136
22.3772,35.4231
22.3772,35.4231
22.2379,35.5624
22.2379,35.5624
22.1284,35.7263
22.0529,35.9084
22.0529,35.9084
22.0145,36.1016
21.4755,36.1016
21.4371,35.9084
21.3616,35.7263
21.2521,35.5624
21.1128,35.4231
20.9489,35.3136
20.9489,35.3136
20.7668,35.2381
20.5735,35.1997
20.5735,35.1997
20.3765,35.1997
20.3765,35.1997
20.1832,35.2381
20.1832,35.2381
20.0011,35.3136
19.8372,35.4231
19.8372,35.4231
19.6979,35.5624
19.6979,35.5624
19.5884,35.7263
19.5129,35.9084
19.5129,35.9084
19.4745,36.1016
18.9355,36.1016
18.8971,35.9084
18.8216,35.7263
18.7121,35.5624
18.5728,35.4231
18.4089,35.3136
18.4089,35.3136
18.2268,35.2381
18.0335,35.1997
18.0335,35.1997
17.8365,35.1997
17.8365,35.1997
17.6432,35.2381
17.6432,35.2381
17.4611,35.3136
17.2972,35.4231
17.2972,35.4231
17.1579,35.5624
17.1579,35.5624
17.0484,35.7263
16.9729,35.9084
16.9729,35.9084
16.9345,36.1016
14.5687,36.1016
14.5687,36.0666
14.5303,35.8734
14.4548,35.6913
14.3453,35.5274
14.2060,35.3881
14.0421,35.2786
14.0421,35.2786
14.0421,35.2786
13.8600,35.2031
13.6667,35.1647
13.6667,35.1647
13.4697,35.1647
13.4697,35.1647
13.2764,35.2031
13.2764,35.2031
13.0943,35.2786
12.9304,35.3881
12.9304,35.3881
12.7911,35.5274
12.7911,35.5274
12.6816,35.6913
12.6061,35.8734
12.6061,35.8734
12.5677,36.0666
0.5255,36.0666
0.5255,33.9046
10.4237,33.9046
10.4237,33.9046
10.4428,34.0614
10.4526,34.0874
10.4663,34.1235
10.4693,34.1846
10.4663,34.1937
10.4463,34.2464
10.4428,34.2558
10.4237,34.4126
10.4428,34.5694
10.4526,34.5954
10.4663,34.6315
10.4693,34.6926
10.4663,34.7017
10.4428,34.7638
10.4237,34.9206
10.4237,34.9206
10.4428,35.0774
10.4428,35.0774
10.4988,35.2251
10.5885,35.3551
10.5885,35.3551
10.5885,35.3551
10.7068,35.4599
10.8466,35.5333
11.0000,35.5711
11.0000,35.5711
11.1580,35.5711
11.1580,35.5711
11.3114,35.5333
11.4512,35.4599
11.5695,35.3551
11.6592,35.2251
11.7152,35.0774
11.7343,34.9206
11.7259,34.8512
11.7152,34.7638
11.7152,34.7638
11.6917,34.7017
11.6887,34.6406
11.6917,34.6315
11.7152,34.5694
11.7343,34.4126
11.7152,34.2558
11.6917,34.1937
11.6887,34.1326
11.6917,34.1235
11.7152,34.0614
11.7343,33.9046
11.7152,33.7478
11.6592,33.6001
11.5695,33.4701
11.4512,33.3653
11.3813,33.3286
11.3114,33.2919
11.1580,33.2541
11.1580,33.2541
11.0000,33.2541
11.0000,33.2541
10.8466,33.2919
10.7068,33.3653
10.5885,33.4701
10.4988,33.6001
10.4428,33.7478
10.4428,33.7478
10.4237,33.9046
0.5255,33.9046
0.5255,32.2996
16.7845,32.2996
16.7845,32.4807
16.8128,32.6596
16.8128,32.6596
16.8688,32.8318
16.9510,32.9932
17.0574,33.1397
17.1855,33.2677
17.3320,33.3742
17.4934,33.4564
17.6656,33.5124
17.7371,33.5237
17.8445,33.5407
17.8445,33.5407
18.0255,33.5407
18.1150,33.5265
18.2044,33.5124
18.3766,33.4564
18.5380,33.3742
18.6845,33.2677
18.8126,33.1397
18.9190,32.9932
19.0012,32.8318
19.0572,32.6596
19.0855,32.4807
19.0855,32.2996
19.0855,32.2996
21.8645,32.2996
21.8645,32.4807
21.8928,32.6596
21.8928,32.6596
21.9488,32.8318
22.0310,32.9932
22.1374,33.1397
22.2655,33.2677
22.4120,33.3742
22.5734,33.4564
22.7456,33.5124
22.8171,33.5237
22.9245,33.5407
22.9245,33.5407
23.1055,33.5407
23.1950,33.5265
23.2844,33.5124
23.4566,33.4564
23.6180,33.3742
23.7645,33.2677
23.8926,33.1397
23.9990,32.9932
24.0812,32.8318
24.1372,32.6596
24.1655,32.4807
24.1655,32.2996
24.1655,32.2996
24.4045,32.2996
24.4045,32.4807
24.4328,32.6596
24.4328,32.6596
24.4888,32.8318
24.5710,32.9932
24.6774,33.1397
24.8055,33.2677
24.9520,33.3742
25.1134,33.4564
25.2856,33.5124
25.3571,33.5237
25.4645,33.5407
25.4645,33.5407
25.6455,33.5407
25.7350,33.5265
25.8244,33.5124
25.9966,33.4564
26.1580,33.3742
26.3045,33.2677
26.4326,33.1397
26.5390,32.9932
26.6212,32.8318
26.6772,32.6596
26.7055,32.4807
26.7055,32.2996
26.7055,32.2996
26.9445,32.2996
26.9445,32.4807
26.9728,32.6596
26.9728,32.6596
27.0288,32.8318
27.1110,32.9932
27.2174,33.1397
27.3455,33.2677
27.4920,33.3742
27.6534,33.4564
27.8256,33.5124
27.8971,33.5237
28.0045,33.5407
28.0045,33.5407
28.1855,33.5407
28.2750,33.5265
28.3644,33.5124
28.5366,33.4564
28.6980,33.3742
28.8445,33.2677
28.9726,33.1397
29.0790,32.9932
29.1612,32.8318
29.2172,32.6596
29.2455,32.4807
29.2455,32.2996
29.2455,32.2996
29.2172,32.1208
29.2172,32.1208
29.1612,31.9486
29.0790,31.7872
29.0332,31.7241
30.9361,31.7241
30.9361,31.8363
30.9558,32.3631
30.9642,32.4750
31.0232,32.9989
31.0399,33.1098
31.1379,33.6278
31.1629,33.7372
31.2993,34.2464
31.3324,34.3536
31.4759,34.7638
31.5065,34.8512
31.5475,34.9557
31.7583,35.4389
31.7831,35.4903
31.8070,35.5400
32.0534,36.0061
32.1095,36.1032
32.3318,36.4570
32.3899,36.5496
32.4531,36.6423
32.4531,36.6423
32.4531,36.6423
32.5466,36.7690
32.7662,37.0665
32.8165,37.1296
32.8362,37.1542
33.1800,37.5538
33.2240,37.6012
33.2563,37.6361
33.6291,38.0089
33.6292,38.0089
33.6292,38.0089
33.7114,38.0852
34.1110,38.4290
34.1110,38.4290
34.1110,38.4290
34.1987,38.4990
34.6229,38.8121
34.7156,38.8752
34.9388,39.0155
35.1620,39.1557
35.1620,39.1557
35.2591,39.2118
35.7252,39.4582
35.8263,39.5069
36.3095,39.7177
36.4139,39.7587
36.5764,39.8155
36.9116,39.9328
36.9116,39.9328
37.0188,39.9659
37.5280,40.1023
37.6072,40.1204
37.6374,40.1273
37.8608,40.1695
38.1554,40.2253
38.2663,40.2420
38.7902,40.3010
38.9021,40.3094
39.4289,40.3291
39.4289,40.3291
39.5411,40.3291
39.5411,40.3291
40.0680,40.3094
40.1798,40.3010
40.7037,40.2420
40.8146,40.2253
41.1866,40.1549
41.3326,40.1273
41.3327,40.1273
41.4420,40.1023
41.9513,39.9659
42.0585,39.9328
42.4893,39.7820
42.5504,39.7807
42.6007,39.8155
42.6108,39.8317
42.6204,39.8512
42.7839,40.0959
42.7839,40.0960
42.9779,40.3172
42.9780,40.3172
42.9780,40.3172
42.9780,40.3172
43.1992,40.5113
43.1992,40.5113
43.1992,40.5113
43.1992,40.5113
43.1992,40.5113
43.4439,40.6748
43.4439,40.6748
43.7079,40.8050
43.7079,40.8050
43.7079,40.8050
43.8818,40.8640
43.9866,40.8996
43.9866,40.8996
43.9866,40.8996
44.2753,40.9570
44.5689,40.9762
44.8626,40.9570
45.1513,40.8996
45.4300,40.8050
45.6939,40.6748
45.9387,40.5113
46.1599,40.3172
46.3540,40.0960
46.5175,39.8512
46.6477,39.5873
46.7423,39.3086
46.7997,39.0199
46.8189,38.7262
46.7997,38.4326
46.7423,38.1439
46.7223,38.0852
46.6964,38.0089
46.6477,37.8652
46.5175,37.6012
46.3540,37.3565
46.3540,37.3565
46.3540,37.3565
46.2088,37.1909
46.1846,37.1347
46.1981,37.0750
46.2036,37.0669
46.2038,37.0665
46.2038,37.0665
46.5169,36.6423
46.5801,36.5496
46.8606,36.1032
46.9167,36.0061
47.1630,35.5400
47.2117,35.4389
47.4225,34.9557
47.4635,34.8512
47.6070,34.4413
47.6376,34.3536
47.6376,34.3536
47.6707,34.2464
47.8071,33.7372
47.8321,33.6278
47.8374,33.6001
47.8645,33.4564
47.9301,33.1098
47.9468,32.9989
48.0059,32.4750
48.0143,32.3631
48.0340,31.8363
48.0340,31.7241
48.0143,31.1972
48.0059,31.0854
47.9468,30.5615
47.9301,30.4506
47.8636,30.0990
47.8321,29.9325
47.8071,29.8232
47.8071,29.8232
47.6707,29.3139
47.6376,29.2067
47.4635,28.7091
47.4225,28.6047
47.2117,28.1215
47.1630,28.0204
46.9167,27.5543
46.8606,27.4571
46.5801,27.0107
46.5169,26.9180
46.2038,26.4938
46.1339,26.4061
46.1339,26.4061
45.7900,26.0065
45.7137,25.9243
45.7137,25.9243
45.7137,25.9243
45.3409,25.5515
45.2587,25.4752
45.2587,25.4752
44.8591,25.1313
44.7713,25.0614
44.3472,24.7483
44.3472,24.7483
44.3472,24.7483
44.2545,24.6851
44.2395,24.6757
43.8081,24.4046
43.7109,24.3485
43.2448,24.1022
43.1620,24.0623
43.1437,24.0535
42.6605,23.8427
42.5561,23.8017
42.5561,23.8017
42.5561,23.8017
42.0585,23.6276
41.9513,23.5945
41.9338,23.5898
41.5252,23.4803
41.4420,23.4580
41.3326,23.4331
40.8146,23.3351
40.7037,23.3183
40.1798,23.2593
40.0680,23.2509
39.7716,23.2398
39.5411,23.2312
39.4289,23.2312
39.2120,23.2393
38.9021,23.2509
38.7902,23.2593
38.2663,23.3183
38.1554,23.3351
37.6374,23.4331
37.5280,23.4580
37.0188,23.5945
36.9116,23.6276
36.4140,23.8017
36.3572,23.8240
36.2962,23.8276
36.2446,23.7947
36.2353,23.7813
36.1692,23.6668
36.0016,23.4483
35.8069,23.2536
35.5884,23.0860
35.3500,22.9483
35.3500,22.9483
35.0956,22.8429
34.9745,22.8105
34.8296,22.7717
34.8296,22.7717
34.5566,22.7357
34.5566,22.7357
34.2813,22.7357
34.2813,22.7357
34.0083,22.7717
34.0083,22.7717
34.0083,22.7717
33.9078,22.7986
33.7423,22.8429
33.4879,22.9483
33.2495,23.0860
33.0310,23.2536
32.8363,23.4483
32.6687,23.6668
32.5310,23.9052
32.4257,24.1596
32.4042,24.2397
32.3544,24.4256
32.3544,24.4256
32.3544,24.4256
32.3202,24.6851
32.3184,24.6986
32.3184,24.9739
32.3544,25.2469
32.3932,25.3918
32.4257,25.5129
32.5310,25.7673
32.5310,25.7673
32.6687,26.0057
32.8363,26.2242
32.8363,26.2242
32.8554,26.2433
32.8832,26.2978
32.8736,26.3582
32.8605,26.3779
32.8361,26.4061
32.7662,26.4939
32.4531,26.9180
32.3899,27.0107
32.1095,27.4571
32.0534,27.5543
31.8070,28.0204
31.7648,28.1080
31.7583,28.1215
31.5475,28.6047
31.5065,28.7091
31.3324,29.2067
31.2993,29.3139
31.1629,29.8232
31.1379,29.9325
31.0399,30.4506
31.0232,30.5615
30.9642,31.0854
30.9558,31.1972
30.9361,31.7241
29.0332,31.7241
28.9726,31.6407
28.8445,31.5126
28.6980,31.4062
28.6980,31.4062
28.6980,31.4062
28.5366,31.3240
28.3644,31.2680
28.1855,31.2397
28.1855,31.2397
28.0045,31.2397
28.0045,31.2397
27.8256,31.2680
27.6534,31.3240
27.4920,31.4062
27.4188,31.4594
27.3455,31.5126
27.2174,31.6407
27.1642,31.7139
27.1110,31.7872
27.0288,31.9486
26.9728,32.1208
26.9445,32.2996
26.7055,32.2996
26.6772,32.1208
26.6772,32.1208
26.6212,31.9486
26.5390,31.7872
26.4326,31.6407
26.3045,31.5126
26.1580,31.4062
26.1580,31.4062
26.1580,31.4062
25.9966,31.3240
25.8244,31.2680
25.6455,31.2397
25.6455,31.2397
25.4645,31.2397
25.4645,31.2397
25.2856,31.2680
25.1134,31.3240
24.9520,31.4062
24.8788,31.4594
24.8055,31.5126
24.6774,31.6407
24.6242,31.7139
24.5710,31.7872
24.4888,31.9486
24.4328,32.1208
24.4045,32.2996
24.1655,32.2996
24.1372,32.1208
24.1372,32.1208
24.0812,31.9486
23.9990,31.7872
23.8926,31.6407
23.7645,31.5126
23.6180,31.4062
23.6180,31.4062
23.6180,31.4062
23.4566,31.3240
23.2844,31.2680
23.1055,31.2397
23.1055,31.2397
22.9245,31.2397
22.9245,31.2397
22.7456,31.2680
22.5734,31.3240
22.4120,31.4062
22.3388,31.4594
22.2655,31.5126
22.1374,31.6407
22.0842,31.7139
22.0310,31.7872
21.9488,31.9486
21.8928,32.1208
21.8645,32.2996
19.0855,32.2996
19.0572,32.1208
19.0572,32.1208
19.0012,31.9486
18.9190,31.7872
18.8126,31.6407
18.6845,31.5126
18.5380,31.4062
18.5380,31.4062
18.5380,31.4062
18.3766,31.3240
18.2044,31.2680
18.0255,31.2397
18.0255,31.2397
17.8445,31.2397
17.8445,31.2397
17.6656,31.2680
17.4934,31.3240
17.3320,31.4062
17.2588,31.4594
17.1855,31.5126
17.0574,31.6407
17.0042,31.7139
16.9510,31.7872
16.8688,31.9486
16.8128,32.1208
16.7845,32.2996
0.5255,32.2996
0.5255,29.9422
6.4105,29.9422
6.4105,29.9422
6.4296,30.0990
6.4296,30.0990
6.4856,30.2467
6.5753,30.3767
6.5753,30.3767
6.5753,30.3767
6.6936,30.4815
6.8334,30.5549
6.9868,30.5927
6.9868,30.5927
7.1448,30.5927
7.1448,30.5927
7.2961,30.5554
7.3435,30.5554
7.4948,30.5927
7.4948,30.5927
7.6528,30.5927
7.6528,30.5927
7.8041,30.5554
7.8515,30.5554
8.0028,30.5927
8.0028,30.5927
8.1608,30.5927
8.1608,30.5927
8.3142,30.5549
8.4540,30.4815
8.5723,30.3767
8.6620,30.2467
8.7180,30.0990
8.7371,29.9422
8.7180,29.7854
8.6620,29.6377
8.6172,29.5727
8.5723,29.5077
8.4540,29.4029
8.4540,29.4029
8.3358,29.3408
8.3142,29.3295
8.1608,29.2917
8.1608,29.2917
8.0028,29.2917
8.0028,29.2917
7.8515,29.3290
7.8041,29.3290
7.6528,29.2917
7.6528,29.2917
7.4948,29.2917
7.4948,29.2917
7.3435,29.3290
7.2961,29.3290
7.1448,29.2917
7.1448,29.2917
6.9868,29.2917
6.9868,29.2917
6.8334,29.3295
6.6936,29.4029
6.5753,29.5077
6.4856,29.6377
6.4296,29.7854
6.4296,29.7854
6.4105,29.9422
0.5255,29.9422
0.5255,24.0623
7.7655,24.0623
7.7655,24.0623
7.7655,24.2397
7.7983,24.4046
7.8001,24.4137
7.8001,24.4137
7.8680,24.5775
7.8680,24.5775
7.9489,24.6986
7.9665,24.7250
8.0920,24.8505
8.2395,24.9490
8.4033,25.0169
8.5773,25.0515
8.5773,25.0515
8.7547,25.0515
8.7547,25.0515
8.9287,25.0169
9.0925,24.9490
9.2400,24.8505
9.3655,24.7250
9.4640,24.5775
9.5319,24.4137
9.5665,24.2397
9.5665,24.2272
23.3777,24.2272
23.3777,24.2272
23.3968,24.3840
23.4046,24.4046
23.4203,24.4461
23.4233,24.5072
23.4203,24.5163
23.3968,24.5784
23.3777,24.7352
23.3777,24.7352
23.3872,24.8136
23.3968,24.8920
23.4066,24.9180
23.4203,24.9541
23.4233,25.0152
23.4203,25.0243
23.3968,25.0864
23.3777,25.2432
23.3777,25.2432
23.3968,25.4000
23.3968,25.4000
23.4528,25.5477
23.5425,25.6777
23.5425,25.6777
23.5425,25.6777
23.6608,25.7825
23.8006,25.8559
23.9540,25.8937
23.9540,25.8937
24.1120,25.8937
24.1120,25.8937
24.2654,25.8559
24.4052,25.7825
24.5235,25.6777
24.6132,25.5477
24.6692,25.4000
24.6883,25.2432
24.6692,25.0864
24.6457,25.0243
24.6427,24.9632
24.6457,24.9541
24.6692,24.8920
24.6819,24.7875
24.6883,24.7352
24.6883,24.7352
24.6692,24.5784
24.6692,24.5784
24.6689,24.5775
24.6457,24.5163
24.6427,24.4552
24.6457,24.4461
24.6692,24.3840
24.6883,24.2272
24.6692,24.0704
24.6132,23.9227
24.5580,23.8427
24.5235,23.7927
24.4231,23.7037
24.4052,23.6879
24.3353,23.6512
24.2654,23.6145
24.1120,23.5767
24.1120,23.5767
23.9540,23.5767
23.9540,23.5767
23.8006,23.6145
23.6608,23.6879
23.5425,23.7927
23.4528,23.9227
23.3968,24.0704
23.3968,24.0704
23.3777,24.2272
9.5665,24.2272
9.5665,24.0623
9.5319,23.8883
9.4640,23.7244
9.4640,23.7244
9.3655,23.5770
9.2400,23.4515
9.0925,23.3530
8.9287,23.2851
8.7547,23.2505
8.7547,23.2505
8.5773,23.2505
8.5773,23.2505
8.4033,23.2851
8.4033,23.2851
8.2395,23.3530
8.2395,23.3530
8.0920,23.4515
7.9665,23.5770
7.8680,23.7244
7.8680,23.7244
7.8001,23.8883
7.8001,23.8883
7.7655,24.0623
0.5255,24.0623
0.5255,22.6046
12.5695,22.6046
12.5695,22.8017
12.6079,22.9950
12.6079,22.9950
12.6834,23.1771
12.6834,23.1771
12.7929,23.3410
12.9322,23.4803
13.0961,23.5898
13.2782,23.6652
13.4715,23.7037
13.4715,23.7037
13.6685,23.7037
13.6685,23.7037
13.8618,23.6652
14.0439,23.5898
14.2078,23.4803
14.3471,23.3410
14.4566,23.1771
14.5321,22.9950
14.5705,22.8017
14.5705,22.6046
14.5321,22.4114
14.4566,22.2293
14.3471,22.0654
14.2078,21.9261
14.0636,21.8297
14.0439,21.8166
13.8618,21.7411
13.6685,21.7027
13.6685,21.7027
13.4715,21.7027
13.4715,21.7027
13.2782,21.7411
13.2782,21.7411
13.0961,21.8166
12.9322,21.9261
12.9322,21.9261
12.7929,22.0654
12.7929,22.0654
12.6834,22.2293
12.6079,22.4114
12.6079,22.4114
12.5695,22.6046
0.5255,22.6046
0.5255,21.6872
20.7596,21.6872
20.7596,21.6872
20.7787,21.8440
20.7885,21.8700
20.8022,21.9061
20.8052,21.9672
20.8022,21.9763
20.7787,22.0384
20.7787,22.0384
20.7596,22.1952
20.7787,22.3520
20.7885,22.3780
20.8022,22.4141
20.8052,22.4752
20.8022,22.4843
20.7787,22.5464
20.7596,22.7032
20.7596,22.7032
20.7787,22.8600
20.7787,22.8600
20.8299,22.9950
20.8347,23.0077
20.9244,23.1377
20.9244,23.1377
20.9244,23.1377
21.0427,23.2425
21.1825,23.3159
21.3359,23.3537
21.3359,23.3537
21.4939,23.3537
21.4939,23.3537
21.6473,23.3159
21.7871,23.2425
21.9054,23.1377
21.9951,23.0077
22.0511,22.8600
22.0702,22.7032
22.0511,22.5464
22.0276,22.4843
22.0246,22.4232
22.0276,22.4141
22.0511,22.3520
22.0702,22.1952
22.0511,22.0384
22.0276,21.9763
22.0246,21.9152
22.0276,21.9061
22.0511,21.8440
22.0702,21.6872
22.0511,21.5304
21.9951,21.3827
21.9054,21.2527
21.7871,21.1479
21.7172,21.1112
21.6473,21.0745
21.4939,21.0367
21.4939,21.0367
21.3359,21.0367
21.3359,21.0367
21.1825,21.0745
21.0427,21.1479
20.9244,21.2527
20.8347,21.3827
20.7787,21.5304
20.7787,21.5304
20.7596,21.6872
0.5255,21.6872
0.5255,20.5442
24.2667,20.5442
24.2667,20.5442
24.2858,20.7010
24.2858,20.7010
24.3418,20.8487
24.4315,20.9787
24.4315,20.9787
24.4315,20.9787
24.5498,21.0835
24.6896,21.1569
24.8430,21.1947
24.8430,21.1947
25.0010,21.1947
25.0010,21.1947
25.1544,21.1569
25.1610,21.1534
25.2213,21.1431
25.2530,21.1534
25.2596,21.1569
25.4130,21.1947
25.4130,21.1947
25.5710,21.1947
25.5710,21.1947
25.7244,21.1569
25.7325,21.1526
25.7928,21.1423
25.8245,21.1526
25.8326,21.1569
25.9860,21.1947
25.9860,21.1947
26.1440,21.1947
26.1440,21.1947
26.2974,21.1569
26.4372,21.0835
26.5555,20.9787
26.6452,20.8487
26.7012,20.7010
26.7049,20.6712
38.3129,20.6712
38.3129,20.6712
38.3320,20.8280
38.3320,20.8280
38.3688,20.9252
38.3880,20.9757
38.4777,21.1057
38.4777,21.1057
38.4777,21.1057
38.5960,21.2105
38.7358,21.2839
38.8892,21.3217
38.8892,21.3217
39.0472,21.3217
39.0472,21.3217
39.1985,21.2844
39.2459,21.2844
39.3972,21.3217
39.3972,21.3217
39.5552,21.3217
39.5552,21.3217
39.7065,21.2844
39.7539,21.2844
39.9052,21.3217
39.9052,21.3217
40.0632,21.3217
40.0632,21.3217
40.2166,21.2839
40.3564,21.2105
40.4747,21.1057
40.5644,20.9757
40.6204,20.8280
40.6359,20.7010
40.6395,20.6712
40.6395,20.6712
40.6204,20.5144
40.6204,20.5144
40.5644,20.3667
40.5195,20.3017
40.4747,20.2367
40.3564,20.1319
40.3564,20.1319
40.2382,20.0698
40.2166,20.0585
40.0632,20.0207
40.0632,20.0207
39.9052,20.0207
39.9052,20.0207
39.7539,20.0580
39.7065,20.0580
39.5552,20.0207
39.5552,20.0207
39.3972,20.0207
39.3972,20.0207
39.2459,20.0580
39.1985,20.0580
39.0472,20.0207
39.0472,20.0207
38.8892,20.0207
38.8892,20.0207
38.7358,20.0585
38.5960,20.1319
38.4777,20.2367
38.3880,20.3667
38.3320,20.5144
38.3320,20.5144
38.3129,20.6712
26.7049,20.6712
26.7203,20.5442
26.7167,20.5144
26.7076,20.4396
26.7012,20.3874
26.6452,20.2397
26.5555,20.1097
26.4372,20.0049
26.3515,19.9599
26.2974,19.9315
26.1440,19.8937
26.1440,19.8937
25.9860,19.8937
25.9860,19.8937
25.8326,19.9315
25.8245,19.9358
25.7642,19.9461
25.7325,19.9358
25.7244,19.9315
25.5710,19.8937
25.5710,19.8937
25.4130,19.8937
25.4130,19.8937
25.2596,19.9315
25.2530,19.9350
25.1927,19.9453
25.1610,19.9350
25.1544,19.9315
25.0010,19.8937
25.0010,19.8937
24.8430,19.8937
24.8430,19.8937
24.6896,19.9315
24.5498,20.0049
24.4315,20.1097
24.3418,20.2397
24.2858,20.3874
24.2858,20.3874
24.2667,20.5442
0.5255,20.5442
0.5255,19.4774
32.3947,19.4774
32.3947,19.4774
32.4138,19.6342
32.4138,19.6342
32.4420,19.7087
32.4698,19.7819
32.5595,19.9119
32.5595,19.9119
32.5595,19.9119
32.6778,20.0167
32.8176,20.0901
32.9710,20.1279
32.9710,20.1279
33.1290,20.1279
33.1290,20.1279
33.2803,20.0906
33.3277,20.0906
33.4790,20.1279
33.4790,20.1279
33.6370,20.1279
33.6370,20.1279
33.7883,20.0906
33.8357,20.0906
33.9870,20.1279
33.9870,20.1279
34.1450,20.1279
34.1450,20.1279
34.2984,20.0901
34.4382,20.0167
34.5565,19.9119
34.6462,19.7819
34.7022,19.6342
34.7213,19.4774
34.7145,19.4217
34.7022,19.3206
34.7022,19.3206
34.6462,19.1729
34.5565,19.0429
34.4382,18.9381
34.3200,18.8760
34.2984,18.8647
34.1450,18.8269
34.1450,18.8269
33.9870,18.8269
33.9870,18.8269
33.8357,18.8642
33.7883,18.8642
33.6370,18.8269
33.6370,18.8269
33.4790,18.8269
33.4790,18.8269
33.3277,18.8642
33.2803,18.8642
33.1290,18.8269
33.1290,18.8269
32.9710,18.8269
32.9710,18.8269
32.8176,18.8647
32.6778,18.9381
32.5595,19.0429
32.4698,19.1729
32.4138,19.3206
32.4138,19.3206
32.3947,19.4774
0.5255,19.4774
0.5255,18.2582
44.9677,18.2582
44.9677,18.2582
44.9868,18.4150
44.9966,18.4410
45.0103,18.4771
45.0133,18.5382
45.0103,18.5473
44.9868,18.6094
44.9868,18.6094
44.9677,18.7662
44.9868,18.9230
44.9925,18.9381
45.0103,18.9851
45.0133,19.0462
45.0103,19.0553
44.9868,19.1174
44.9677,19.2742
44.9677,19.2742
44.9868,19.4310
44.9868,19.4310
45.0428,19.5787
45.1325,19.7087
45.1325,19.7087
45.1325,19.7087
45.2508,19.8135
45.3906,19.8869
45.5440,19.9247
45.5440,19.9247
45.7020,19.9247
45.7020,19.9247
45.7521,19.9123
45.8131,19.9168
45.8599,19.9562
45.8745,20.0156
45.8741,20.0204
45.8605,20.1319
45.8567,20.1632
45.8758,20.3200
45.8856,20.3460
45.8993,20.3821
45.9023,20.4432
45.8993,20.4523
45.8758,20.5144
45.8567,20.6712
45.8567,20.6712
45.8662,20.7496
45.8758,20.8280
45.8836,20.8487
45.8993,20.8901
45.9023,20.9512
45.8993,20.9603
45.8758,21.0224
45.8567,21.1792
45.8567,21.1792
45.8758,21.3360
45.8758,21.3360
45.8935,21.3827
45.9318,21.4837
46.0215,21.6137
46.0215,21.6137
46.0215,21.6137
46.1398,21.7185
46.2796,21.7919
46.4330,21.8297
46.4330,21.8297
46.5910,21.8297
46.5910,21.8297
46.7444,21.7919
46.8842,21.7185
47.0025,21.6137
47.0922,21.4837
47.1482,21.3360
47.1609,21.2315
47.1673,21.1792
47.1673,21.1792
47.1482,21.0224
47.1482,21.0224
47.1247,20.9603
47.1217,20.8992
47.1247,20.8901
47.1482,20.8280
47.1609,20.7235
47.1673,20.6712
47.1673,20.6712
47.1519,20.5442
47.1482,20.5144
47.1247,20.4523
47.1217,20.3912
47.1247,20.3821
47.1482,20.3200
47.1673,20.1632
47.1635,20.1319
47.1545,20.0580
47.1482,20.0064
47.0922,19.8587
47.0025,19.7287
46.8842,19.6239
46.7981,19.5787
46.7444,19.5505
46.5910,19.5127
46.5910,19.5127
46.4330,19.5127
46.3829,19.5250
46.3219,19.5206
46.2751,19.4812
46.2605,19.4217
46.2609,19.4170
46.2783,19.2742
46.2592,19.1174
46.2357,19.0553
46.2327,18.9942
46.2357,18.9851
46.2592,18.9230
46.2783,18.7662
46.2592,18.6094
46.2357,18.5473
46.2327,18.4862
46.2357,18.4771
46.2592,18.4150
46.2783,18.2582
46.2592,18.1014
46.2032,17.9537
46.1135,17.8237
45.9952,17.7189
45.8815,17.6592
45.8554,17.6455
45.7020,17.6077
45.7020,17.6077
45.5440,17.6077
45.5440,17.6077
45.3906,17.6455
45.2508,17.7189
45.1325,17.8237
45.0428,17.9537
44.9868,18.1014
44.9868,18.1014
44.9677,18.2582
0.5255,18.2582
0.5255,16.4423
3.9555,16.4423
3.9555,16.6197
3.9901,16.7937
3.9901,16.7937
4.0580,16.9575
4.0580,16.9575
4.1565,17.1050
4.1565,17.1050
4.2820,17.2305
4.4295,17.3290
4.5933,17.3969
4.7673,17.4315
4.7673,17.4315
4.9447,17.4315
4.9447,17.4315
5.1187,17.3969
5.2825,17.3290
5.4300,17.2305
5.5555,17.1050
5.6540,16.9575
5.7219,16.7937
5.7565,16.6197
5.7565,16.4423
5.7565,16.4423
7.7655,16.4423
7.7655,16.6197
7.8001,16.7937
7.8001,16.7937
7.8680,16.9575
7.8680,16.9575
7.9665,17.1050
7.9665,17.1050
8.0920,17.2305
8.2395,17.3290
8.4033,17.3969
8.5773,17.4315
8.5773,17.4315
8.7547,17.4315
8.7547,17.4315
8.9287,17.3969
9.0925,17.3290
9.2400,17.2305
9.3655,17.1050
9.4640,16.9575
9.5319,16.7937
9.5361,16.7725
36.7215,16.7725
36.7215,16.9499
36.7561,17.1239
36.7561,17.1239
36.8240,17.2877
36.8240,17.2877
36.9200,17.4315
36.9225,17.4352
37.0480,17.5607
37.1955,17.6592
37.3593,17.7271
37.5333,17.7617
37.5333,17.7617
37.7107,17.7617
37.7107,17.7617
37.8847,17.7271
38.0485,17.6592
38.1960,17.5607
38.3215,17.4352
38.4200,17.2877
38.4879,17.1239
38.5225,16.9499
38.5225,16.7725
38.5225,16.7725
40.5315,16.7725
40.5315,16.9499
40.5661,17.1239
40.5661,17.1239
40.6340,17.2877
40.6340,17.2877
40.7300,17.4315
40.7325,17.4352
40.8580,17.5607
41.0055,17.6592
41.1693,17.7271
41.3433,17.7617
41.3433,17.7617
41.5207,17.7617
41.5207,17.7617
41.6947,17.7271
41.8585,17.6592
42.0060,17.5607
42.1315,17.4352
42.2300,17.2877
42.2979,17.1239
42.3325,16.9499
42.3325,16.7725
42.2979,16.5985
42.2300,16.4346
42.2300,16.4346
42.1315,16.2872
42.0060,16.1617
41.8585,16.0632
41.6947,15.9953
41.5207,15.9607
41.5207,15.9607
41.3433,15.9607
41.3433,15.9607
41.1693,15.9953
41.1693,15.9953
41.0055,16.0632
41.0055,16.0632
40.8580,16.1617
40.7325,16.2872
40.6340,16.4346
40.6340,16.4346
40.5661,16.5985
40.5661,16.5985
40.5315,16.7725
38.5225,16.7725
38.4879,16.5985
38.4200,16.4346
38.4200,16.4346
38.3215,16.2872
38.1960,16.1617
38.0485,16.0632
37.8847,15.9953
37.7107,15.9607
37.7107,15.9607
37.5333,15.9607
37.5333,15.9607
37.3593,15.9953
37.3593,15.9953
37.1955,16.0632
37.1955,16.0632
37.0480,16.1617
36.9225,16.2872
36.8240,16.4346
36.8240,16.4346
36.7561,16.5985
36.7561,16.5985
36.7215,16.7725
9.5361,16.7725
9.5665,16.6197
9.5665,16.4423
9.5319,16.2683
9.4640,16.1044
9.4640,16.1044
9.3655,15.9570
9.2400,15.8315
9.0925,15.7330
8.9287,15.6651
8.7547,15.6305
8.7547,15.6305
8.5773,15.6305
8.5773,15.6305
8.4033,15.6651
8.4033,15.6651
8.2395,15.7330
8.2395,15.7330
8.0920,15.8315
7.9665,15.9570
7.8680,16.1044
7.8680,16.1044
7.8001,16.2683
7.8001,16.2683
7.7655,16.4423
5.7565,16.4423
5.7219,16.2683
5.6540,16.1044
5.6540,16.1044
5.5555,15.9570
5.4300,15.8315
5.2825,15.7330
5.1187,15.6651
4.9447,15.6305
4.9447,15.6305
4.7673,15.6305
4.7673,15.6305
4.5933,15.6651
4.5933,15.6651
4.4295,15.7330
4.4295,15.7330
4.2820,15.8315
4.1565,15.9570
4.0580,16.1044
4.0580,16.1044
3.9901,16.2683
3.9901,16.2683
3.9555,16.4423
0.5255,16.4423
0.5255,13.6862
23.0964,13.6862
23.0964,13.6862
23.1155,13.8430
23.1390,13.9051
23.1420,13.9662
23.1390,13.9753
23.1155,14.0374
23.1155,14.0374
23.0964,14.1942
23.1155,14.3510
23.1171,14.3553
23.1390,14.4131
23.1420,14.4742
23.1390,14.4833
23.1155,14.5454
23.0964,14.7022
23.0964,14.7022
23.1155,14.8590
23.1155,14.8590
23.1715,15.0067
23.2612,15.1367
23.2612,15.1367
23.2612,15.1367
23.3795,15.2415
23.5193,15.3149
23.6727,15.3527
23.6727,15.3527
23.8307,15.3527
23.8307,15.3527
23.9841,15.3149
24.1239,15.2415
24.1239,15.2415
24.1271,15.2393
24.1373,15.2331
24.1443,15.2294
24.2616,15.1255
24.3506,14.9966
24.4062,14.8501
24.4251,14.6945
24.4062,14.5389
24.3847,14.4822
24.3817,14.4211
24.3847,14.4120
24.4062,14.3553
24.4251,14.1998
24.4062,14.0442
24.3861,13.9912
24.3831,13.9301
24.3861,13.9210
24.4062,13.8679
24.4251,13.7124
24.4219,13.6862
24.4062,13.5568
24.4062,13.5568
24.3506,13.4103
24.3449,13.4020
24.3387,13.3930
24.3325,13.3828
24.3319,13.3817
24.3319,13.3817
24.2422,13.2517
24.1239,13.1469
24.0540,13.1102
23.9841,13.0735
23.8307,13.0357
23.8307,13.0357
23.6727,13.0357
23.6727,13.0357
23.5193,13.0735
23.3795,13.1469
23.2612,13.2517
23.1715,13.3817
23.1155,13.5294
23.1155,13.5294
23.0964,13.6862
0.5255,13.6862
0.5255,11.9863
13.7257,11.9863
13.7257,11.9863
13.7448,12.1431
13.7448,12.1431
13.8008,12.2908
13.8905,12.4208
13.8905,12.4208
13.8905,12.4208
14.0088,12.5256
14.1486,12.5990
14.3020,12.6368
14.3020,12.6368
14.4600,12.6368
14.4600,12.6368
14.5147,12.6233
14.5264,12.6212
14.5553,12.6177
14.5824,12.6074
14.5938,12.6038
14.6113,12.5995
14.6587,12.5995
14.7243,12.6157
14.7273,12.6166
14.7316,12.6177
14.7316,12.6177
14.7316,12.6177
14.7359,12.6187
14.7390,12.6193
14.8066,12.6360
14.8100,12.6368
14.8100,12.6368
14.9680,12.6368
14.9680,12.6368
15.1193,12.5995
15.1667,12.5995
15.1944,12.6063
15.2058,12.6099
15.2263,12.6177
15.2481,12.6203
15.2598,12.6225
15.3180,12.6368
15.3180,12.6368
15.4760,12.6368
15.4760,12.6368
15.6294,12.5990
15.7692,12.5256
15.8875,12.4208
15.9772,12.2908
16.0332,12.1431
16.0523,11.9863
16.0332,11.8295
15.9772,11.6818
15.9323,11.6168
15.8875,11.5518
15.7692,11.4470
15.7692,11.4470
15.6375,11.3779
15.6294,11.3736
15.4760,11.3358
15.4760,11.3358
15.3180,11.3358
15.2558,11.3511
15.2441,11.3533
15.2263,11.3554
15.2263,11.3554
15.2096,11.3618
15.1982,11.3653
15.1667,11.3731
15.1193,11.3731
14.9680,11.3358
14.9680,11.3358
14.8100,11.3358
14.8100,11.3358
14.8100,11.3358
14.6587,11.3731
14.6113,11.3731
14.5942,11.3689
14.5901,11.3678
14.5786,11.3643
14.5553,11.3554
14.5304,11.3524
14.5187,11.3503
14.5030,11.3464
14.4600,11.3358
14.3020,11.3358
14.3020,11.3358
14.1486,11.3736
14.0088,11.4470
13.8905,11.5518
13.8008,11.6818
13.7448,11.8295
13.7448,11.8295
13.7257,11.9863
0.5255,11.9863
0.5255,9.7492
7.7313,9.7492
7.7504,9.9060
7.7602,9.9320
7.7739,9.9681
7.7769,10.0292
7.7739,10.0383
7.7504,10.1004
7.7395,10.1896
7.7313,10.2572
7.7504,10.4140
7.7602,10.4400
7.7739,10.4761
7.7769,10.5372
7.7739,10.5463
7.7504,10.6084
7.7313,10.7652
7.7313,10.7652
7.7504,10.9220
7.7504,10.9220
7.8064,11.0697
7.8961,11.1997
7.8961,11.1997
7.8961,11.1997
8.0144,11.3045
8.1542,11.3779
8.3076,11.4157
8.3076,11.4157
8.4656,11.4157
8.4656,11.4157
8.6190,11.3779
8.7588,11.3045
8.8771,11.1997
8.9668,11.0697
9.0228,10.9220
9.0419,10.7652
9.0228,10.6084
8.9993,10.5463
8.9963,10.4852
8.9993,10.4761
9.0228,10.4140
9.0419,10.2572
9.0337,10.1896
9.0337,10.1896
16.7945,10.1896
16.7945,10.3707
16.8228,10.5496
16.8419,10.6084
16.8788,10.7218
16.9610,10.8832
17.0674,11.0297
17.1955,11.1577
17.3420,11.2642
17.5034,11.3464
17.6756,11.4024
17.7471,11.4137
17.8545,11.4307
17.8545,11.4307
18.0355,11.4307
18.1250,11.4165
18.2144,11.4024
18.3866,11.3464
18.5480,11.2642
18.6945,11.1577
18.8226,11.0297
18.9290,10.8832
19.0112,10.7218
19.0672,10.5496
19.0886,10.4140
19.0955,10.3707
19.0955,10.1896
19.3345,10.1896
19.3345,10.3707
19.3628,10.5496
19.3819,10.6084
19.4188,10.7218
19.5010,10.8832
19.6074,11.0297
19.7355,11.1577
19.8820,11.2642
20.0434,11.3464
20.2156,11.4024
20.2871,11.4137
20.3945,11.4307
20.3945,11.4307
20.5755,11.4307
20.6650,11.4165
20.7544,11.4024
20.9266,11.3464
21.0880,11.2642
21.2345,11.1577
21.3626,11.0297
21.4690,10.8832
21.5512,10.7218
21.6072,10.5496
21.6286,10.4140
21.6355,10.3707
21.6355,10.1896
21.8745,10.1896
21.8745,10.3707
21.9028,10.5496
21.9219,10.6084
21.9588,10.7218
22.0410,10.8832
22.1474,11.0297
22.2755,11.1577
22.4220,11.2642
22.5834,11.3464
22.7556,11.4024
22.8271,11.4137
22.9345,11.4307
22.9345,11.4307
23.1155,11.4307
23.2050,11.4165
23.2944,11.4024
23.4666,11.3464
23.6280,11.2642
23.7745,11.1577
23.9026,11.0297
24.0090,10.8832
24.0912,10.7218
24.1472,10.5496
24.1686,10.4140
24.1755,10.3707
24.1755,10.1896
24.4145,10.1896
24.4145,10.3707
24.4428,10.5496
24.4619,10.6084
24.4988,10.7218
24.5810,10.8832
24.6874,11.0297
24.8155,11.1577
24.9620,11.2642
25.1234,11.3464
25.2956,11.4024
25.3671,11.4137
25.4745,11.4307
25.4745,11.4307
25.6555,11.4307
25.7450,11.4165
25.8344,11.4024
26.0066,11.3464
26.1680,11.2642
26.3145,11.1577
26.4426,11.0297
26.5490,10.8832
26.6312,10.7218
26.6872,10.5496
26.7086,10.4140
26.7155,10.3707
26.7155,10.1896
26.9545,10.1896
26.9545,10.3707
26.9828,10.5496
27.0019,10.6084
27.0388,10.7218
27.1210,10.8832
27.2274,11.0297
27.3555,11.1577
27.5020,11.2642
27.6634,11.3464
27.8356,11.4024
27.9071,11.4137
28.0145,11.4307
28.0145,11.4307
28.1955,11.4307
28.2850,11.4165
28.3744,11.4024
28.5466,11.3464
28.7080,11.2642
28.8545,11.1577
28.9826,11.0297
29.0890,10.8832
29.1712,10.7218
29.2272,10.5496
29.2486,10.4140
29.2555,10.3707
29.2555,10.1896
29.2272,10.0108
29.2272,10.0108
29.1712,9.8386
29.0890,9.6772
28.9826,9.5307
28.8545,9.4026
28.7080,9.2962
28.7080,9.2962
28.7080,9.2962
28.5466,9.2140
28.3744,9.1580
28.1955,9.1297
28.1955,9.1297
28.0145,9.1297
28.0145,9.1297
27.8356,9.1580
27.6634,9.2140
27.5020,9.2962
27.4288,9.3494
27.3555,9.4026
27.2274,9.5307
27.1742,9.6039
27.1210,9.6772
27.0388,9.8386
26.9828,10.0108
26.9545,10.1896
26.7155,10.1896
26.6872,10.0108
26.6872,10.0108
26.6312,9.8386
26.5490,9.6772
26.4426,9.5307
26.3145,9.4026
26.1680,9.2962
26.1680,9.2962
26.1680,9.2962
26.0066,9.2140
25.8344,9.1580
25.6555,9.1297
25.6555,9.1297
25.4745,9.1297
25.4745,9.1297
25.2956,9.1580
25.1234,9.2140
24.9620,9.2962
24.8888,9.3494
24.8155,9.4026
24.6874,9.5307
24.6342,9.6039
24.5810,9.6772
24.4988,9.8386
24.4428,10.0108
24.4145,10.1896
24.1755,10.1896
24.1472,10.0108
24.1472,10.0108
24.0912,9.8386
24.0090,9.6772
23.9026,9.5307
23.7745,9.4026
23.6280,9.2962
23.6280,9.2962
23.6280,9.2962
23.4666,9.2140
23.2944,9.1580
23.1155,9.1297
23.1155,9.1297
22.9345,9.1297
22.9345,9.1297
22.7556,9.1580
22.5834,9.2140
22.4220,9.2962
22.3488,9.3494
22.2755,9.4026
22.1474,9.5307
22.0942,9.6039
22.0410,9.6772
21.9588,9.8386
21.9028,10.0108
21.8745,10.1896
21.6355,10.1896
21.6072,10.0108
21.6072,10.0108
21.5512,9.8386
21.4690,9.6772
21.3626,9.5307
21.2345,9.4026
21.0880,9.2962
21.0880,9.2962
21.0880,9.2962
20.9266,9.2140
20.7544,9.1580
20.5755,9.1297
20.5755,9.1297
20.3945,9.1297
20.3945,9.1297
20.2156,9.1580
20.0434,9.2140
19.8820,9.2962
19.8088,9.3494
19.7355,9.4026
19.6074,9.5307
19.5542,9.6039
19.5010,9.6772
19.4188,9.8386
19.3628,10.0108
19.3345,10.1896
19.0955,10.1896
19.0672,10.0108
19.0672,10.0108
19.0112,9.8386
18.9290,9.6772
18.8226,9.5307
18.6945,9.4026
18.5480,9.2962
18.5480,9.2962
18.5480,9.2962
18.3866,9.2140
18.2144,9.1580
18.0355,9.1297
18.0355,9.1297
17.8545,9.1297
17.8545,9.1297
17.6756,9.1580
17.5034,9.2140
17.3420,9.2962
17.2688,9.3494
17.1955,9.4026
17.0674,9.5307
17.0142,9.6039
16.9610,9.6772
16.8788,9.8386
16.8228,10.0108
16.7945,10.1896
9.0337,10.1896
9.0228,10.1004
9.0228,10.1004
8.9993,10.0383
8.9963,9.9772
8.9993,9.9681
9.0228,9.9060
9.0419,9.7492
9.0228,9.5924
8.9668,9.4447
8.8817,9.3214
8.8771,9.3147
8.8562,9.2962
8.7588,9.2099
8.6600,9.1580
8.6190,9.1365
8.4656,9.0987
8.4656,9.0987
8.3076,9.0987
8.3076,9.0987
8.1542,9.1365
8.0144,9.2099
7.8961,9.3147
7.8064,9.4447
7.7504,9.5924
7.7504,9.5924
7.7401,9.6772
7.7313,9.7492
0.5255,9.7492
0.5255,6.3108
0.5444,6.2526
0.5939,6.2166
0.6551,6.2166
0.7028,6.2502
0.9187,6.5292
1.1944,6.8192
1.4980,7.0798
1.8264,7.3084
1.8264,7.3084
1.8264,7.3084
1.8820,7.3392
2.1188,7.4707
2.1763,7.5026
2.1763,7.5026
2.1763,7.5026
2.1763,7.5026
2.5440,7.6604
2.9258,7.7801
3.3177,7.8607
3.5565,7.8850
3.7158,7.9012
3.7158,7.9012
4.1159,7.9012
4.2486,7.8877
4.5140,7.8607
4.9059,7.7801
5.2877,7.6604
5.6554,7.5026
6.0052,7.3084
6.3337,7.0798
6.4788,6.9552
8.3644,6.9552
8.3644,6.9552
8.3838,7.1147
8.3850,7.1211
8.3866,7.1346
8.3866,7.1346
8.4043,7.1812
8.4072,7.2424
8.4043,7.2515
8.3835,7.3064
8.3644,7.4632
8.3644,7.4632
8.3835,7.6200
8.3835,7.6200
8.3837,7.6207
8.3856,7.6266
8.4067,7.6824
8.4097,7.7435
8.4067,7.7526
8.3850,7.8100
8.3842,7.8125
8.3835,7.8144
8.3644,7.9712
8.3644,7.9712
8.3835,8.1280
8.3835,8.1280
8.4270,8.2428
8.4395,8.2757
8.5292,8.4057
8.5292,8.4057
8.5292,8.4057
8.6475,8.5105
8.7873,8.5839
8.9407,8.6217
8.9407,8.6217
9.0987,8.6217
9.0987,8.6217
9.2521,8.5839
9.3919,8.5105
9.5102,8.4057
9.5999,8.2757
9.6559,8.1280
9.6720,7.9960
9.6750,7.9712
9.6750,7.9712
9.6559,7.8144
9.6559,7.8144
9.6324,7.7523
9.6294,7.6912
9.6324,7.6821
9.6559,7.6200
9.6702,7.5026
9.6750,7.4632
9.6750,7.4632
9.6559,7.3064
9.6559,7.3064
9.6331,7.2462
9.6302,7.1851
9.6331,7.1760
9.6333,7.1755
9.6488,7.1346
9.6488,7.1346
9.6501,7.1294
9.6537,7.1180
9.6559,7.1120
9.6750,6.9552
12.7605,6.9552
12.7605,6.9552
12.7796,7.1120
12.8031,7.1741
12.8061,7.2352
12.8031,7.2443
12.7796,7.3064
12.7605,7.4632
12.7605,7.4632
12.7796,7.6200
12.8031,7.6821
12.8061,7.7432
12.8031,7.7523
12.7796,7.8144
12.7605,7.9712
12.7605,7.9712
12.7796,8.1280
12.7796,8.1280
12.8125,8.2149
12.8356,8.2757
12.9253,8.4057
12.9253,8.4057
12.9253,8.4057
13.0436,8.5105
13.1834,8.5839
13.3368,8.6217
13.3368,8.6217
13.4948,8.6217
13.4948,8.6217
13.6137,8.5924
13.6747,8.5968
13.7215,8.6363
13.7361,8.6957
13.7356,8.7004
13.7257,8.7821
13.7257,8.7821
13.7448,8.9389
13.7448,8.9389
13.8008,9.0866
13.8905,9.2166
13.8905,9.2166
13.8905,9.2166
14.0088,9.3214
14.1486,9.3948
14.3020,9.4326
14.3020,9.4326
14.4600,9.4326
14.4600,9.4326
14.6113,9.3953
14.6587,9.3953
14.8100,9.4326
14.8100,9.4326
14.9680,9.4326
14.9680,9.4326
15.1193,9.3953
15.1667,9.3953
15.3180,9.4326
15.3180,9.4326
15.4760,9.4326
15.4760,9.4326
15.6294,9.3948
15.7692,9.3214
15.8875,9.2166
15.9772,9.0866
16.0332,8.9389
16.0523,8.7821
16.0332,8.6253
15.9772,8.4776
15.8907,8.3522
15.8875,8.3476
15.8064,8.2757
15.7692,8.2428
15.6789,8.1954
15.6294,8.1694
15.4760,8.1316
15.4760,8.1316
15.3180,8.1316
15.3180,8.1316
15.1667,8.1689
15.1193,8.1689
14.9680,8.1316
14.9680,8.1316
14.8100,8.1316
14.8100,8.1316
14.6587,8.1689
14.6113,8.1689
14.4600,8.1316
14.4600,8.1316
14.3020,8.1316
14.3020,8.1316
14.1831,8.1609
14.1221,8.1565
14.0753,8.1170
14.0607,8.0576
14.0612,8.0528
14.0630,8.0375
14.0711,7.9712
14.0520,7.8144
14.0285,7.7523
14.0255,7.6912
14.0285,7.6821
14.0520,7.6200
14.0663,7.5026
14.0711,7.4632
14.0711,7.4632
14.0520,7.3064
14.0520,7.3064
14.0285,7.2443
14.0255,7.1832
14.0285,7.1741
14.0520,7.1120
14.0711,6.9552
14.0520,6.7984
13.9960,6.6507
13.9273,6.5512
13.9063,6.5207
13.7880,6.4159
13.7880,6.4159
13.7181,6.3792
13.7037,6.3716
16.9445,6.3716
16.9445,6.5687
16.9829,6.7620
16.9829,6.7620
17.0584,6.9441
17.0658,6.9552
17.1679,7.1080
17.3072,7.2473
17.4711,7.3568
17.6532,7.4322
17.8465,7.4707
17.8465,7.4707
18.0435,7.4707
18.0435,7.4707
18.2368,7.4322
18.4189,7.3568
18.5828,7.2473
18.7221,7.1080
18.8316,6.9441
18.9071,6.7620
18.9455,6.5687
18.9455,6.3716
18.9455,6.3716
19.4845,6.3716
19.4845,6.5687
19.5229,6.7620
19.5229,6.7620
19.5984,6.9441
19.6058,6.9552
19.7079,7.1080
19.8472,7.2473
20.0111,7.3568
20.1932,7.4322
20.3865,7.4707
20.3865,7.4707
20.5835,7.4707
20.5835,7.4707
20.7768,7.4322
20.9589,7.3568
21.1228,7.2473
21.2621,7.1080
21.3716,6.9441
21.4471,6.7620
21.4855,6.5687
21.4855,6.3716
21.4855,6.3716
22.0245,6.3716
22.0245,6.5687
22.0629,6.7620
22.0629,6.7620
22.1384,6.9441
22.1458,6.9552
22.2479,7.1080
22.3872,7.2473
22.5511,7.3568
22.7332,7.4322
22.9265,7.4707
22.9265,7.4707
23.1235,7.4707
23.1235,7.4707
23.3168,7.4322
23.4989,7.3568
23.6628,7.2473
23.8021,7.1080
23.9116,6.9441
23.9871,6.7620
24.0255,6.5687
24.0255,6.3716
24.0255,6.3716
24.5645,6.3716
24.5645,6.5687
24.6029,6.7620
24.6029,6.7620
24.6784,6.9441
24.6858,6.9552
24.7879,7.1080
24.9272,7.2473
25.0911,7.3568
25.2732,7.4322
25.4665,7.4707
25.4665,7.4707
25.6635,7.4707
25.6635,7.4707
25.8568,7.4322
26.0389,7.3568
26.2028,7.2473
26.3421,7.1080
26.4516,6.9441
26.5271,6.7620
26.5655,6.5687
26.5655,6.3716
26.5655,6.3716
27.1045,6.3716
27.1045,6.5687
27.1429,6.7620
27.1429,6.7620
27.2184,6.9441
27.2258,6.9552
27.3279,7.1080
27.4672,7.2473
27.6311,7.3568
27.8132,7.4322
28.0065,7.4707
28.0065,7.4707
28.2035,7.4707
28.2035,7.4707
28.3968,7.4322
28.5061,7.3870
39.3489,7.3870
39.3489,7.3870
39.3679,7.5438
39.3679,7.5438
39.3971,7.6207
39.4240,7.6915
39.5137,7.8215
39.5137,7.8215
39.5137,7.8215
39.6319,7.9263
39.7718,7.9997
39.9252,8.0375
39.9252,8.0375
40.0832,8.0375
40.0832,8.0375
40.2366,7.9997
40.2366,7.9997
40.2385,7.9990
40.2398,7.9989
40.2424,7.9983
40.2425,7.9988
40.2996,7.9960
40.3087,7.9989
40.3106,7.9997
40.3106,7.9997
40.4640,8.0375
40.4640,8.0375
40.6220,8.0375
40.6220,8.0375
40.6966,8.0191
40.7576,8.0235
40.8044,8.0630
40.8190,8.1224
40.8128,8.1503
40.7958,8.1954
40.7958,8.1954
40.7767,8.3522
40.7767,8.3522
40.7958,8.5090
40.7958,8.5090
40.8385,8.6217
40.8518,8.6567
40.9415,8.7867
40.9415,8.7867
40.9415,8.7867
41.0598,8.8915
41.1996,8.9649
41.3530,9.0027
41.3530,9.0027
41.5110,9.0027
41.5110,9.0027
41.6644,8.9649
41.8042,8.8915
41.9225,8.7867
42.0122,8.6567
42.0252,8.6226
42.0635,8.5749
42.0717,8.5701
42.1852,8.5105
42.3035,8.4057
42.3932,8.2757
42.4062,8.2416
42.4445,8.1939
42.4527,8.1891
42.5662,8.1295
42.6845,8.0247
42.7742,7.8947
42.8302,7.7470
42.8493,7.5902
42.8427,7.5363
42.8302,7.4334
42.8302,7.4334
42.7945,7.3392
43.8097,7.3392
43.8097,7.5363
43.8282,7.6293
43.8457,7.7172
43.8481,7.7296
43.8481,7.7296
43.9236,7.9117
43.9599,7.9661
44.0331,8.0756
44.1724,8.2149
44.3363,8.3244
44.5184,8.3998
44.7117,8.4383
44.7117,8.4383
44.9087,8.4383
44.9087,8.4383
45.1020,8.3998
45.2841,8.3244
45.4480,8.2149
45.5873,8.0756
45.6968,7.9117
45.7723,7.7296
45.8107,7.5363
45.8107,7.3392
45.8107,7.3392
46.3497,7.3392
46.3497,7.5363
46.3682,7.6293
46.3857,7.7172
46.3881,7.7296
46.3881,7.7296
46.4636,7.9117
46.4999,7.9661
46.5731,8.0756
46.7124,8.2149
46.8763,8.3244
47.0584,8.3998
47.2517,8.4383
47.2517,8.4383
47.4487,8.4383
47.4487,8.4383
47.6420,8.3998
47.8241,8.3244
47.9880,8.2149
48.1273,8.0756
48.2368,7.9117
48.3123,7.7296
48.3507,7.5363
48.3507,7.3392
48.3123,7.1460
48.2368,6.9639
48.1273,6.8000
47.9880,6.6607
47.8785,6.5875
47.8241,6.5512
47.6420,6.4757
47.4487,6.4373
47.4487,6.4373
47.2517,6.4373
47.2517,6.4373
47.0584,6.4757
47.0584,6.4757
46.8763,6.5512
46.7124,6.6607
46.7124,6.6607
46.5731,6.8000
46.5731,6.8000
46.4636,6.9639
46.3881,7.1460
46.3881,7.1460
46.3497,7.3392
45.8107,7.3392
45.7723,7.1460
45.6968,6.9639
45.5873,6.8000
45.4480,6.6607
45.3385,6.5875
45.2841,6.5512
45.1020,6.4757
44.9087,6.4373
44.9087,6.4373
44.7117,6.4373
44.7117,6.4373
44.5184,6.4757
44.5184,6.4757
44.3363,6.5512
44.1724,6.6607
44.1724,6.6607
44.0331,6.8000
44.0331,6.8000
43.9236,6.9639
43.8481,7.1460
43.8481,7.1460
43.8097,7.3392
42.7945,7.3392
42.7742,7.2857
42.6845,7.1557
42.5662,7.0509
42.4963,7.0142
42.4264,6.9775
42.2730,6.9397
42.2730,6.9397
42.1150,6.9397
42.1150,6.9397
41.9616,6.9775
41.8218,7.0509
41.7928,7.0766
41.7367,7.1010
41.6769,7.0878
41.6456,7.0587
41.5742,6.9552
41.5723,6.9525
41.4541,6.8477
41.4541,6.8477
41.3841,6.8110
41.3142,6.7743
41.1608,6.7365
41.1608,6.7365
41.0028,6.7365
41.0028,6.7365
40.8494,6.7743
40.8475,6.7750
40.8462,6.7751
40.8436,6.7757
40.8435,6.7752
40.7864,6.7780
40.7773,6.7750
40.7754,6.7743
40.6220,6.7365
40.6220,6.7365
40.4640,6.7365
40.4640,6.7365
40.3106,6.7743
40.3087,6.7750
40.3074,6.7751
40.3048,6.7757
40.3047,6.7752
40.2476,6.7780
40.2385,6.7750
40.2366,6.7743
40.0832,6.7365
40.0832,6.7365
39.9252,6.7365
39.9252,6.7365
39.7718,6.7743
39.6319,6.8477
39.5137,6.9525
39.4240,7.0825
39.3679,7.2302
39.3679,7.2302
39.3489,7.3870
28.5061,7.3870
28.5789,7.3568
28.7428,7.2473
28.8821,7.1080
28.9916,6.9441
29.0671,6.7620
29.1044,6.5742
36.5857,6.5742
36.5857,6.5742
36.6048,6.7310
36.6048,6.7310
36.6303,6.7984
36.6608,6.8787
36.7505,7.0087
36.7505,7.0087
36.7505,7.0087
36.8688,7.1135
37.0086,7.1869
37.1620,7.2247
37.1620,7.2247
37.3200,7.2247
37.3200,7.2247
37.4713,7.1874
37.5187,7.1874
37.6700,7.2247
37.6700,7.2247
37.8280,7.2247
37.8280,7.2247
37.9793,7.1874
38.0267,7.1874
38.1780,7.2247
38.1780,7.2247
38.3360,7.2247
38.3360,7.2247
38.4894,7.1869
38.6292,7.1135
38.7475,7.0087
38.8372,6.8787
38.8932,6.7310
38.9123,6.5742
38.9116,6.5687
38.8932,6.4174
38.8932,6.4174
38.8372,6.2697
38.7475,6.1397
38.6292,6.0349
38.5556,5.9963
38.4894,5.9615
38.3360,5.9237
38.3360,5.9237
38.1780,5.9237
38.1780,5.9237
38.0267,5.9610
37.9793,5.9610
37.8280,5.9237
37.8280,5.9237
37.6700,5.9237
37.6700,5.9237
37.5187,5.9610
37.4713,5.9610
37.3200,5.9237
37.3200,5.9237
37.1620,5.9237
37.1620,5.9237
37.0086,5.9615
36.8688,6.0349
36.7505,6.1397
36.6608,6.2697
36.6048,6.4174
36.6048,6.4174
36.5857,6.5742
29.1044,6.5742
29.1055,6.5687
29.1055,6.3716
29.0671,6.1784
28.9916,5.9963
28.8821,5.8324
28.7428,5.6931
28.5789,5.5836
28.5789,5.5836
28.5789,5.5836
28.3968,5.5081
28.2035,5.4697
28.2035,5.4697
28.0065,5.4697
28.0065,5.4697
27.8132,5.5081
27.8132,5.5081
27.6311,5.5836
27.4672,5.6931
27.4672,5.6931
27.3279,5.8324
27.3279,5.8324
27.2184,5.9963
27.1429,6.1784
27.1429,6.1784
27.1045,6.3716
26.5655,6.3716
26.5271,6.1784
26.4516,5.9963
26.3421,5.8324
26.2028,5.6931
26.0389,5.5836
26.0389,5.5836
26.0389,5.5836
25.8568,5.5081
25.6635,5.4697
25.6635,5.4697
25.4665,5.4697
25.4665,5.4697
25.2732,5.5081
25.2732,5.5081
25.0911,5.5836
24.9272,5.6931
24.9272,5.6931
24.7879,5.8324
24.7879,5.8324
24.6784,5.9963
24.6029,6.1784
24.6029,6.1784
24.5645,6.3716
24.0255,6.3716
23.9871,6.1784
23.9116,5.9963
23.8021,5.8324
23.6628,5.6931
23.4989,5.5836
23.4989,5.5836
23.4989,5.5836
23.3168,5.5081
23.1235,5.4697
23.1235,5.4697
22.9265,5.4697
22.9265,5.4697
22.7332,5.5081
22.7332,5.5081
22.5511,5.5836
22.3872,5.6931
22.3872,5.6931
22.2479,5.8324
22.2479,5.8324
22.1384,5.9963
22.0629,6.1784
22.0629,6.1784
22.0245,6.3716
21.4855,6.3716
21.4471,6.1784
21.3716,5.9963
21.2621,5.8324
21.1228,5.6931
20.9589,5.5836
20.9589,5.5836
20.9589,5.5836
20.7768,5.5081
20.5835,5.4697
20.5835,5.4697
20.3865,5.4697
20.3865,5.4697
20.1932,5.5081
20.1932,5.5081
20.0111,5.5836
19.8472,5.6931
19.8472,5.6931
19.7079,5.8324
19.7079,5.8324
19.5984,5.9963
19.5229,6.1784
19.5229,6.1784
19.4845,6.3716
18.9455,6.3716
18.9071,6.1784
18.8316,5.9963
18.7221,5.8324
18.5828,5.6931
18.4189,5.5836
18.4189,5.5836
18.4189,5.5836
18.2368,5.5081
18.0435,5.4697
18.0435,5.4697
17.8465,5.4697
17.8465,5.4697
17.6532,5.5081
17.6532,5.5081
17.4711,5.5836
17.3072,5.6931
17.3072,5.6931
17.1679,5.8324
17.1679,5.8324
17.0584,5.9963
16.9829,6.1784
16.9829,6.1784
16.9445,6.3716
13.7037,6.3716
13.6482,6.3425
13.4948,6.3047
13.4948,6.3047
13.3368,6.3047
13.3368,6.3047
13.1834,6.3425
13.0436,6.4159
12.9253,6.5207
12.8356,6.6507
12.7796,6.7984
12.7796,6.7984
12.7605,6.9552
9.6750,6.9552
9.6559,6.7984
9.5999,6.6507
9.5102,6.5207
9.5102,6.5207
9.3919,6.4159
9.3919,6.4159
9.3076,6.3716
9.2521,6.3425
9.0987,6.3047
9.0987,6.3047
8.9407,6.3047
8.9407,6.3047
8.7873,6.3425
8.6475,6.4159
8.5292,6.5207
8.4395,6.6507
8.3835,6.7984
8.3835,6.7984
8.3644,6.9552
6.4788,6.9552
6.6373,6.8192
6.9129,6.5292
7.1579,6.2127
7.3695,5.8732
7.5457,5.5139
7.6847,5.1387
7.7850,4.7514
7.8456,4.3559
7.8658,3.9562
7.8456,3.5566
7.7850,3.1611
7.6847,2.7738
7.6847,2.7738
7.6847,2.7737
7.6847,2.7737
7.6811,2.7642
31.7597,2.7642
31.7597,2.7642
31.7788,2.9210
31.7788,2.9210
31.8348,3.0687
31.9245,3.1987
31.9245,3.1987
31.9245,3.1987
32.0428,3.3035
32.1826,3.3769
32.3360,3.4147
32.3360,3.4147
32.4940,3.4147
32.4940,3.4147
32.6453,3.3774
32.6927,3.3774
32.8440,3.4147
32.8440,3.4147
33.0020,3.4147
33.0020,3.4147
33.1533,3.3774
33.2007,3.3774
33.3520,3.4147
33.3520,3.4147
33.5100,3.4147
33.5100,3.4147
33.6634,3.3769
33.8032,3.3035
33.9215,3.1987
34.0112,3.0687
34.0672,2.9210
34.0863,2.7642
34.0672,2.6074
34.0112,2.4597
33.9220,2.3305
33.9215,2.3297
33.8695,2.2836
40.5695,2.2836
40.5695,2.4807
40.6079,2.6740
40.6079,2.6740
40.6834,2.8561
40.6834,2.8561
40.7929,3.0200
40.9322,3.1593
41.0961,3.2688
41.2782,3.3442
41.4715,3.3827
41.4715,3.3827
41.6685,3.3827
41.6685,3.3827
41.8618,3.3442
42.0439,3.2688
42.2078,3.1593
42.3471,3.0200
42.4566,2.8561
42.5321,2.6740
42.5705,2.4807
42.5705,2.2836
42.5705,2.2836
42.8495,2.2836
42.8495,2.4807
42.8879,2.6740
42.8879,2.6740
42.9634,2.8561
42.9634,2.8561
43.0729,3.0200
43.2122,3.1593
43.3761,3.2688
43.5582,3.3442
43.7515,3.3827
43.7515,3.3827
43.9485,3.3827
43.9485,3.3827
44.1418,3.3442
44.3239,3.2688
44.4878,3.1593
44.6271,3.0200
44.7366,2.8561
44.8120,2.6740
44.8505,2.4807
44.8505,2.2836
44.8505,2.2836
45.1295,2.2836
45.1295,2.4807
45.1679,2.6740
45.1679,2.6740
45.2434,2.8561
45.2434,2.8561
45.3529,3.0200
45.4922,3.1593
45.6561,3.2688
45.8382,3.3442
46.0315,3.3827
46.0315,3.3827
46.2285,3.3827
46.2285,3.3827
46.4218,3.3442
46.6039,3.2688
46.7678,3.1593
46.9071,3.0200
47.0166,2.8561
47.0921,2.6740
47.1305,2.4807
47.1305,2.2836
47.0921,2.0904
47.0166,1.9083
46.9071,1.7444
46.7678,1.6051
46.6039,1.4956
46.6039,1.4956
46.6039,1.4956
46.4218,1.4201
46.2285,1.3817
46.2285,1.3817
46.0315,1.3817
46.0315,1.3817
45.8382,1.4201
45.8382,1.4201
45.6561,1.4956
45.4922,1.6051
45.4922,1.6051
45.3529,1.7444
45.3529,1.7444
45.2434,1.9083
45.1679,2.0904
45.1679,2.0904
45.1295,2.2836
44.8505,2.2836
44.8120,2.0904
44.7366,1.9083
44.6271,1.7444
44.4878,1.6051
44.3239,1.4956
44.3239,1.4956
44.3239,1.4956
44.1418,1.4201
43.9485,1.3817
43.9485,1.3817
43.7515,1.3817
43.7515,1.3817
43.5582,1.4201
43.5582,1.4201
43.3761,1.4956
43.2122,1.6051
43.2122,1.6051
43.0729,1.7444
43.0729,1.7444
42.9634,1.9083
42.8879,2.0904
42.8879,2.0904
42.8495,2.2836
42.5705,2.2836
42.5321,2.0904
42.4566,1.9083
42.3471,1.7444
42.2078,1.6051
42.0439,1.4956
42.0439,1.4956
42.0439,1.4956
41.8618,1.4201
41.6685,1.3817
41.6685,1.3817
41.4715,1.3817
41.4715,1.3817
41.2782,1.4201
41.2782,1.4201
41.0961,1.4956
40.9322,1.6051
40.9322,1.6051
40.7929,1.7444
40.7929,1.7444
40.6834,1.9083
40.6079,2.0904
40.6079,2.0904
40.5695,2.2836
33.8695,2.2836
33.8032,2.2249
33.8032,2.2249
33.6850,2.1628
33.6634,2.1515
33.5100,2.1137
33.5100,2.1137
33.3520,2.1137
33.3520,2.1137
33.2007,2.1510
33.1533,2.1510
33.0020,2.1137
33.0020,2.1137
32.8440,2.1137
32.8440,2.1137
32.6927,2.1510
32.6453,2.1510
32.4940,2.1137
32.4940,2.1137
32.3360,2.1137
32.3360,2.1137
32.1826,2.1515
32.0428,2.2249
31.9245,2.3297
31.8348,2.4597
31.7788,2.6074
31.7788,2.6074
31.7597,2.7642
7.6811,2.7642
7.5457,2.3985
7.5457,2.3985
7.5119,2.3297
7.3695,2.0393
7.1579,1.6997
6.9129,1.3833
6.6373,1.0933
6.5011,0.9764
6.3337,0.8327
6.3337,0.8327
6.1875,0.7309
6.1505,0.6822
6.1493,0.6210
6.1843,0.5708
6.2420,0.5507
6.2441,0.5507
47.4191,0.5507
47.4818,0.5507
Z" /> 
</g>
<g style="fill:#FFFFFF; fill-opacity:1.0000; stroke:none;">
<circle cx="32.4150" cy="2.7642" r="0.1500" /> 
</g>
<g style="fill:#FFFFFF; fill-opacity:1.0000; stroke:none;">
<circle cx="7.5738" cy="29.9422" r="0.1500" /> 
</g>
<g style="fill:#FFFFFF; fill-opacity:1.0000; stroke:none;">
<circle cx="24.0330" cy="24.2272" r="0.1500" /> 
</g>
<g style="fill:#FFFFFF; fill-opacity:1.0000; stroke:none;">
<circle cx="38.9682" cy="20.6712" r="0.1500" /> 
</g>
<g style="fill:#FFFFFF; fill-opacity:1.0000; stroke:none;">
<circle cx="24.0330" cy="25.2432" r="0.1500" /> 
</g>
<g style="fill:#FFFFFF; fill-opacity:1.0000; stroke:none;">
<circle cx="24.0330" cy="24.7352" r="0.1500" /> 
</g>
<g style="fill:#FFFFFF; fill-opacity:1.0000; stroke:none;">
<circle cx="8.0818" cy="29.9422" r="0.1500" /> 
</g>
<g style="fill:#FFFFFF; fill-opacity:1.0000; stroke:none;">
<circle cx="7.0658" cy="29.9422" r="0.1500" /> 
</g>
<g style="fill:#FFFFFF; fill-opacity:1.0000; stroke:none;">
<circle cx="39.9842" cy="20.6712" r="0.1500" /> 
</g>
<g style="fill:#FFFFFF; fill-opacity:1.0000; stroke:none;">
<circle cx="39.4762" cy="20.6712" r="0.1500" /> 
</g>
<g style="fill:#FFFFFF; fill-opacity:1.0000; stroke:none;">
<circle cx="32.9230" cy="2.7642" r="0.1500" /> 
</g>
<g style="fill:#FFFFFF; fill-opacity:1.0000; stroke:none;">
<circle cx="33.4310" cy="2.7642" r="0.1500" /> 
</g>
<g style="fill:#FFFFFF; fill-opacity:1.0000; stroke:none;">
<circle cx="9.0197" cy="7.4632" r="0.1500" /> 
</g>
<g style="fill:#FFFFFF; fill-opacity:1.0000; stroke:none;">
<circle cx="28.8590" cy="13.4322" r="0.1500" /> 
</g>
<g style="fill:#FFFFFF; fill-opacity:1.0000; stroke:none;">
<circle cx="23.7517" cy="13.6862" r="0.1500" /> 
</g>
<g style="fill:#FFFFFF; fill-opacity:1.0000; stroke:none;">
<circle cx="15.7780" cy="31.2122" r="0.1500" /> 
</g>
<g style="fill:#FFFFFF; fill-opacity:1.0000; stroke:none;">
<circle cx="28.8590" cy="13.9402" r="0.1500" /> 
</g>
<g style="fill:#FFFFFF; fill-opacity:1.0000; stroke:none;">
<circle cx="15.3970" cy="11.9863" r="0.1500" /> 
</g>
<g style="fill:#FFFFFF; fill-opacity:1.0000; stroke:none;">
<circle cx="28.8590" cy="12.9242" r="0.1500" /> 
</g>
<g style="fill:#FFFFFF; fill-opacity:1.0000; stroke:none;">
<circle cx="14.8890" cy="11.9863" r="0.1500" /> 
</g>
<g style="fill:#FFFFFF; fill-opacity:1.0000; stroke:none;">
<circle cx="11.7902" cy="15.0832" r="0.1500" /> 
</g>
<g style="fill:#FFFFFF; fill-opacity:1.0000; stroke:none;">
<circle cx="14.3810" cy="11.9863" r="0.1500" /> 
</g>
<g style="fill:#FFFFFF; fill-opacity:1.0000; stroke:none;">
<circle cx="2.4430" cy="34.8952" r="0.1500" /> 
</g>
<g style="fill:#FFFFFF; fill-opacity:1.0000; stroke:none;">
<circle cx="15.7780" cy="30.1962" r="0.1500" /> 
</g>
<g style="fill:#FFFFFF; fill-opacity:1.0000; stroke:none;">
<circle cx="2.4430" cy="34.3872" r="0.1500" /> 
</g>
<g style="fill:#FFFFFF; fill-opacity:1.0000; stroke:none;">
<circle cx="11.7902" cy="15.5912" r="0.1500" /> 
</g>
<g style="fill:#FFFFFF; fill-opacity:1.0000; stroke:none;">
<circle cx="11.7902" cy="16.0992" r="0.1500" /> 
</g>
<g style="fill:#FFFFFF; fill-opacity:1.0000; stroke:none;">
<circle cx="9.0197" cy="7.9712" r="0.1500" /> 
</g>
<g style="fill:#FFFFFF; fill-opacity:1.0000; stroke:none;">
<circle cx="23.7517" cy="14.7022" r="0.1500" /> 
</g>
<g style="fill:#FFFFFF; fill-opacity:1.0000; stroke:none;">
<circle cx="2.4430" cy="33.8792" r="0.1500" /> 
</g>
<g style="fill:#FFFFFF; fill-opacity:1.0000; stroke:none;">
<circle cx="9.0197" cy="6.9552" r="0.1500" /> 
</g>
<g style="fill:#FFFFFF; fill-opacity:1.0000; stroke:none;">
<circle cx="23.7517" cy="14.1942" r="0.1500" /> 
</g>
<g style="fill:#FFFFFF; fill-opacity:1.0000; stroke:none;">
<circle cx="15.7780" cy="30.7042" r="0.1500" /> 
</g>
<g style="fill:#FFFFFF; fill-opacity:1.0000; stroke:none;">
<circle cx="11.0790" cy="33.9046" r="0.1500" /> 
</g>
<g style="fill:#FFFFFF; fill-opacity:1.0000; stroke:none;">
<circle cx="21.4149" cy="22.1952" r="0.1500" /> 
</g>
<g style="fill:#FFFFFF; fill-opacity:1.0000; stroke:none;">
<circle cx="21.4149" cy="21.6872" r="0.1500" /> 
</g>
<g style="fill:#FFFFFF; fill-opacity:1.0000; stroke:none;">
<circle cx="11.0790" cy="34.4126" r="0.1500" /> 
</g>
<g style="fill:#FFFFFF; fill-opacity:1.0000; stroke:none;">
<circle cx="11.0790" cy="34.9206" r="0.1500" /> 
</g>
<g style="fill:#FFFFFF; fill-opacity:1.0000; stroke:none;">
<circle cx="21.4149" cy="22.7032" r="0.1500" /> 
</g>
<g style="fill:#FFFFFF; fill-opacity:1.0000; stroke:none;">
<circle cx="37.2410" cy="6.5742" r="0.1500" /> 
</g>
<g style="fill:#FFFFFF; fill-opacity:1.0000; stroke:none;">
<circle cx="45.6230" cy="18.7662" r="0.1500" /> 
</g>
<g style="fill:#FFFFFF; fill-opacity:1.0000; stroke:none;">
<circle cx="37.7490" cy="6.5742" r="0.1500" /> 
</g>
<g style="fill:#FFFFFF; fill-opacity:1.0000; stroke:none;">
<circle cx="38.2570" cy="6.5742" r="0.1500" /> 
</g>
<g style="fill:#FFFFFF; fill-opacity:1.0000; stroke:none;">
<circle cx="45.6230" cy="19.2742" r="0.1500" /> 
</g>
<g style="fill:#FFFFFF; fill-opacity:1.0000; stroke:none;">
<circle cx="45.6230" cy="18.2582" r="0.1500" /> 
</g>
<g style="fill:#FFFFFF; fill-opacity:1.0000; stroke:none;">
<circle cx="37.5276" cy="36.4911" r="0.1500" /> 
</g>
<g style="fill:#FFFFFF; fill-opacity:1.0000; stroke:none;">
<circle cx="38.5154" cy="36.7964" r="0.1500" /> 
</g>
<g style="fill:#FFFFFF; fill-opacity:1.0000; stroke:none;">
<circle cx="43.1183" cy="34.0968" r="0.1500" /> 
</g>
<g style="fill:#FFFFFF; fill-opacity:1.0000; stroke:none;">
<circle cx="40.5430" cy="31.7802" r="0.1500" /> 
</g>
<g style="fill:#FFFFFF; fill-opacity:1.0000; stroke:none;">
<circle cx="38.0714" cy="32.2018" r="0.1500" /> 
</g>
<g style="fill:#FFFFFF; fill-opacity:1.0000; stroke:none;">
<circle cx="37.2078" cy="28.1318" r="0.1500" /> 
</g>
<g style="fill:#FFFFFF; fill-opacity:1.0000; stroke:none;">
<circle cx="40.4546" cy="27.5901" r="0.1500" /> 
</g>
<g style="fill:#FFFFFF; fill-opacity:1.0000; stroke:none;">
<circle cx="38.5154" cy="35.9702" r="0.1500" /> 
</g>
<g style="fill:#FFFFFF; fill-opacity:1.0000; stroke:none;">
<circle cx="35.8366" cy="34.0574" r="0.1500" /> 
</g>
<g style="fill:#FFFFFF; fill-opacity:1.0000; stroke:none;">
<circle cx="40.4160" cy="35.9874" r="0.1500" /> 
</g>
<g style="fill:#FFFFFF; fill-opacity:1.0000; stroke:none;">
<circle cx="43.0318" cy="30.3232" r="0.1500" /> 
</g>
<g style="fill:#FFFFFF; fill-opacity:1.0000; stroke:none;">
<circle cx="34.4650" cy="32.7112" r="0.1500" /> 
</g>
<g style="fill:#FFFFFF; fill-opacity:1.0000; stroke:none;">
<circle cx="35.2778" cy="32.7112" r="0.1500" /> 
</g>
<g style="fill:#FFFFFF; fill-opacity:1.0000; stroke:none;">
<circle cx="40.4160" cy="36.8002" r="0.1500" /> 
</g>
<g style="fill:#FFFFFF; fill-opacity:1.0000; stroke:none;">
<circle cx="38.0714" cy="31.3636" r="0.1500" /> 
</g>
<g style="fill:#FFFFFF; fill-opacity:1.0000; stroke:none;">
<circle cx="43.6922" cy="30.8492" r="0.1500" /> 
</g>
<g style="fill:#FFFFFF; fill-opacity:1.0000; stroke:none;">
<circle cx="34.4688" cy="30.8106" r="0.1500" /> 
</g>
<g style="fill:#FFFFFF; fill-opacity:1.0000; stroke:none;">
<circle cx="34.7698" cy="33.7272" r="0.1500" /> 
</g>
<g style="fill:#FFFFFF; fill-opacity:1.0000; stroke:none;">
<circle cx="43.0232" cy="33.2579" r="0.1500" /> 
</g>
<g style="fill:#FFFFFF; fill-opacity:1.0000; stroke:none;">
<circle cx="44.5012" cy="32.7498" r="0.1500" /> 
</g>
<g style="fill:#FFFFFF; fill-opacity:1.0000; stroke:none;">
<circle cx="38.0280" cy="28.2334" r="0.1500" /> 
</g>
<g style="fill:#FFFFFF; fill-opacity:1.0000; stroke:none;">
<circle cx="41.8017" cy="28.1469" r="0.1500" /> 
</g>
<g style="fill:#FFFFFF; fill-opacity:1.0000; stroke:none;">
<circle cx="44.5050" cy="30.8492" r="0.1500" /> 
</g>
<g style="fill:#FFFFFF; fill-opacity:1.0000; stroke:none;">
<circle cx="36.6236" cy="27.5476" r="0.1500" /> 
</g>
<g style="fill:#FFFFFF; fill-opacity:1.0000; stroke:none;">
<circle cx="41.4425" cy="27.0693" r="0.1500" /> 
</g>
<g style="fill:#FFFFFF; fill-opacity:1.0000; stroke:none;">
<circle cx="40.9627" cy="28.2420" r="0.1500" /> 
</g>
<g style="fill:#FFFFFF; fill-opacity:1.0000; stroke:none;">
<circle cx="35.2770" cy="28.8888" r="0.1500" /> 
</g>
<g style="fill:#FFFFFF; fill-opacity:1.0000; stroke:none;">
<circle cx="35.2950" cy="30.8106" r="0.1500" /> 
</g>
<g style="fill:#FFFFFF; fill-opacity:1.0000; stroke:none;">
<circle cx="41.7622" cy="35.4286" r="0.1500" /> 
</g>
<g style="fill:#FFFFFF; fill-opacity:1.0000; stroke:none;">
<circle cx="35.9382" cy="33.2372" r="0.1500" /> 
</g>
<g style="fill:#FFFFFF; fill-opacity:1.0000; stroke:none;">
<circle cx="37.5380" cy="27.0650" r="0.1500" /> 
</g>
<g style="fill:#FFFFFF; fill-opacity:1.0000; stroke:none;">
<circle cx="40.0350" cy="31.7802" r="0.1500" /> 
</g>
<g style="fill:#FFFFFF; fill-opacity:1.0000; stroke:none;">
<circle cx="43.1334" cy="29.5030" r="0.1500" /> 
</g>
<g style="fill:#FFFFFF; fill-opacity:1.0000; stroke:none;">
<circle cx="43.6750" cy="32.7498" r="0.1500" /> 
</g>
<g style="fill:#FFFFFF; fill-opacity:1.0000; stroke:none;">
<circle cx="42.3764" cy="27.5722" r="0.1500" /> 
</g>
<g style="fill:#FFFFFF; fill-opacity:1.0000; stroke:none;">
<circle cx="40.8986" cy="32.2028" r="0.1500" /> 
</g>
<g style="fill:#FFFFFF; fill-opacity:1.0000; stroke:none;">
<circle cx="38.5540" cy="27.5730" r="0.1500" /> 
</g>
<g style="fill:#FFFFFF; fill-opacity:1.0000; stroke:none;">
<circle cx="40.8986" cy="31.3646" r="0.1500" /> 
</g>
<g style="fill:#FFFFFF; fill-opacity:1.0000; stroke:none;">
<circle cx="44.1959" cy="33.7376" r="0.1500" /> 
</g>
<g style="fill:#FFFFFF; fill-opacity:1.0000; stroke:none;">
<circle cx="35.9468" cy="30.3024" r="0.1500" /> 
</g>
<g style="fill:#FFFFFF; fill-opacity:1.0000; stroke:none;">
<circle cx="34.7741" cy="29.8227" r="0.1500" /> 
</g>
<g style="fill:#FFFFFF; fill-opacity:1.0000; stroke:none;">
<circle cx="43.7176" cy="28.9188" r="0.1500" /> 
</g>
<g style="fill:#FFFFFF; fill-opacity:1.0000; stroke:none;">
<circle cx="44.2002" cy="29.8332" r="0.1500" /> 
</g>
<g style="fill:#FFFFFF; fill-opacity:1.0000; stroke:none;">
<circle cx="36.5936" cy="35.9882" r="0.1500" /> 
</g>
<g style="fill:#FFFFFF; fill-opacity:1.0000; stroke:none;">
<circle cx="37.1684" cy="35.4134" r="0.1500" /> 
</g>
<g style="fill:#FFFFFF; fill-opacity:1.0000; stroke:none;">
<circle cx="35.8518" cy="29.4635" r="0.1500" /> 
</g>
<g style="fill:#FFFFFF; fill-opacity:1.0000; stroke:none;">
<circle cx="42.3464" cy="36.0128" r="0.1500" /> 
</g>
<g style="fill:#FFFFFF; fill-opacity:1.0000; stroke:none;">
<circle cx="39.4850" cy="31.7802" r="0.1500" /> 
</g>
<g style="fill:#FFFFFF; fill-opacity:1.0000; stroke:none;">
<circle cx="35.2524" cy="34.6416" r="0.1500" /> 
</g>
<g style="fill:#FFFFFF; fill-opacity:1.0000; stroke:none;">
<circle cx="43.6930" cy="34.6716" r="0.1500" /> 
</g>
<g style="fill:#FFFFFF; fill-opacity:1.0000; stroke:none;">
<circle cx="41.4320" cy="36.4954" r="0.1500" /> 
</g>
<g style="fill:#FFFFFF; fill-opacity:1.0000; stroke:none;">
<circle cx="40.4546" cy="26.7640" r="0.1500" /> 
</g>
<g style="fill:#FFFFFF; fill-opacity:1.0000; stroke:none;">
<circle cx="38.4270" cy="31.7792" r="0.1500" /> 
</g>
<g style="fill:#FFFFFF; fill-opacity:1.0000; stroke:none;">
<circle cx="38.9350" cy="31.7792" r="0.1500" /> 
</g>
<g style="fill:#FFFFFF; fill-opacity:1.0000; stroke:none;">
<circle cx="40.9420" cy="35.3270" r="0.1500" /> 
</g>
<g style="fill:#FFFFFF; fill-opacity:1.0000; stroke:none;">
<circle cx="38.5540" cy="26.7602" r="0.1500" /> 
</g>
<g style="fill:#FFFFFF; fill-opacity:1.0000; stroke:none;">
<circle cx="38.0073" cy="35.3184" r="0.1500" /> 
</g>
<g style="fill:#FFFFFF; fill-opacity:1.0000; stroke:none;">
<circle cx="14.8890" cy="8.7821" r="0.1500" /> 
</g>
<g style="fill:#FFFFFF; fill-opacity:1.0000; stroke:none;">
<circle cx="8.3866" cy="10.7652" r="0.1500" /> 
</g>
<g style="fill:#FFFFFF; fill-opacity:1.0000; stroke:none;">
<circle cx="13.4158" cy="7.9712" r="0.1500" /> 
</g>
<g style="fill:#FFFFFF; fill-opacity:1.0000; stroke:none;">
<circle cx="14.3810" cy="8.7821" r="0.1500" /> 
</g>
<g style="fill:#FFFFFF; fill-opacity:1.0000; stroke:none;">
<circle cx="13.4158" cy="6.9552" r="0.1500" /> 
</g>
<g style="fill:#FFFFFF; fill-opacity:1.0000; stroke:none;">
<circle cx="8.3866" cy="10.2572" r="0.1500" /> 
</g>
<g style="fill:#FFFFFF; fill-opacity:1.0000; stroke:none;">
<circle cx="8.3866" cy="9.7492" r="0.1500" /> 
</g>
<g style="fill:#FFFFFF; fill-opacity:1.0000; stroke:none;">
<circle cx="13.4158" cy="7.4632" r="0.1500" /> 
</g>
<g style="fill:#FFFFFF; fill-opacity:1.0000; stroke:none;">
<circle cx="15.3970" cy="8.7821" r="0.1500" /> 
</g>
<g style="fill:#FFFFFF; fill-opacity:1.0000; stroke:none;">
<circle cx="34.0660" cy="19.4774" r="0.1500" /> 
</g>
<g style="fill:#FFFFFF; fill-opacity:1.0000; stroke:none;">
<circle cx="46.5120" cy="21.1792" r="0.1500" /> 
</g>
<g style="fill:#FFFFFF; fill-opacity:1.0000; stroke:none;">
<circle cx="46.5120" cy="20.1632" r="0.1500" /> 
</g>
<g style="fill:#FFFFFF; fill-opacity:1.0000; stroke:none;">
<circle cx="33.0500" cy="19.4774" r="0.1500" /> 
</g>
<g style="fill:#FFFFFF; fill-opacity:1.0000; stroke:none;">
<circle cx="42.1940" cy="7.5902" r="0.1500" /> 
</g>
<g style="fill:#FFFFFF; fill-opacity:1.0000; stroke:none;">
<circle cx="46.5120" cy="20.6712" r="0.1500" /> 
</g>
<g style="fill:#FFFFFF; fill-opacity:1.0000; stroke:none;">
<circle cx="41.4320" cy="8.3522" r="0.1500" /> 
</g>
<g style="fill:#FFFFFF; fill-opacity:1.0000; stroke:none;">
<circle cx="33.5580" cy="19.4774" r="0.1500" /> 
</g>
<g style="fill:#FFFFFF; fill-opacity:1.0000; stroke:none;">
<circle cx="41.8130" cy="7.9712" r="0.1500" /> 
</g>
<g style="fill:#FFFFFF; fill-opacity:1.0000; stroke:none;">
<circle cx="40.0042" cy="7.3870" r="0.1500" /> 
</g>
<g style="fill:#FFFFFF; fill-opacity:1.0000; stroke:none;">
<circle cx="41.0818" cy="7.3870" r="0.1500" /> 
</g>
<g style="fill:#FFFFFF; fill-opacity:1.0000; stroke:none;">
<circle cx="26.0650" cy="20.5442" r="0.1500" /> 
</g>
<g style="fill:#FFFFFF; fill-opacity:1.0000; stroke:none;">
<circle cx="24.9220" cy="20.5442" r="0.1500" /> 
</g>
<g style="fill:#FFFFFF; fill-opacity:1.0000; stroke:none;">
<circle cx="25.4920" cy="20.5442" r="0.1500" /> 
</g>
<g style="fill:#FFFFFF; fill-opacity:1.0000; stroke:none;">
<circle cx="40.5430" cy="7.3870" r="0.1500" /> 
</g>
<g style="fill:#FFFFFF; fill-opacity:1.0000; stroke:none;">
<circle cx="4.8560" cy="16.5310" r="0.4000" /> 
</g>
<g style="fill:#FFFFFF; fill-opacity:1.0000; stroke:none;">
<circle cx="8.6660" cy="16.5310" r="0.4000" /> 
</g>
<g style="fill:#FFFFFF; fill-opacity:1.0000; stroke:none;">
<circle cx="41.4320" cy="16.8612" r="0.4000" /> 
</g>
<g style="fill:#FFFFFF; fill-opacity:1.0000; stroke:none;">
<circle cx="37.6220" cy="16.8612" r="0.4000" /> 
</g>
<g style="fill:#FFFFFF; fill-opacity:1.0000; stroke:none;">
<circle cx="42.3980" cy="31.7802" r="0.3500" /> 
</g>
<g style="fill:#FFFFFF; fill-opacity:1.0000; stroke:none;">
<circle cx="41.5428" cy="29.7154" r="0.3500" /> 
</g>
<g style="fill:#FFFFFF; fill-opacity:1.0000; stroke:none;">
<circle cx="39.4780" cy="28.8602" r="0.3500" /> 
</g>
<g style="fill:#FFFFFF; fill-opacity:1.0000; stroke:none;">
<circle cx="37.4133" cy="29.7154" r="0.3500" /> 
</g>
<g style="fill:#FFFFFF; fill-opacity:1.0000; stroke:none;">
<circle cx="36.5580" cy="31.7802" r="0.3500" /> 
</g>
<g style="fill:#FFFFFF; fill-opacity:1.0000; stroke:none;">
<circle cx="37.4133" cy="33.8449" r="0.3500" /> 
</g>
<g style="fill:#FFFFFF; fill-opacity:1.0000; stroke:none;">
<circle cx="39.4780" cy="34.7002" r="0.3500" /> 
</g>
<g style="fill:#FFFFFF; fill-opacity:1.0000; stroke:none;">
<circle cx="41.5428" cy="33.8449" r="0.3500" /> 
</g>
<g style="fill:#FFFFFF; fill-opacity:1.0000; stroke:none;">
<circle cx="17.9350" cy="32.3902" r="0.9000" /> 
</g>
<g style="fill:#FFFFFF; fill-opacity:1.0000; stroke:none;">
<circle cx="23.0150" cy="32.3902" r="0.9000" /> 
</g>
<g style="fill:#FFFFFF; fill-opacity:1.0000; stroke:none;">
<circle cx="25.5550" cy="32.3902" r="0.9000" /> 
</g>
<g style="fill:#FFFFFF; fill-opacity:1.0000; stroke:none;">
<circle cx="28.0950" cy="32.3902" r="0.9000" /> 
</g>
<g style="fill:#FFFFFF; fill-opacity:1.0000; stroke:none;">
<circle cx="17.9350" cy="36.2002" r="0.5000" /> 
</g>
<g style="fill:#FFFFFF; fill-opacity:1.0000; stroke:none;">
<circle cx="20.4750" cy="36.2002" r="0.5000" /> 
</g>
<g style="fill:#FFFFFF; fill-opacity:1.0000; stroke:none;">
<circle cx="23.0150" cy="36.2002" r="0.5000" /> 
</g>
<g style="fill:#FFFFFF; fill-opacity:1.0000; stroke:none;">
<circle cx="25.5550" cy="36.2002" r="0.5000" /> 
</g>
<g style="fill:#FFFFFF; fill-opacity:1.0000; stroke:none;">
<circle cx="28.0950" cy="36.2002" r="0.5000" /> 
</g>
<g style="fill:#FFFFFF; fill-opacity:1.0000; stroke:none;">
<circle cx="8.6660" cy="24.1510" r="0.4000" /> 
</g>
<g style="fill:#FFFFFF; fill-opacity:1.0000; stroke:none;">
<circle cx="4.8560" cy="24.1510" r="0.4000" /> 
</g>
<g style="fill:#FFFFFF; fill-opacity:1.0000; stroke:none;">
<circle cx="44.5689" cy="38.7262" r="1.8500" /> 
</g>
<g style="fill:#FFFFFF; fill-opacity:1.0000; stroke:none;">
<circle cx="34.4189" cy="24.8362" r="1.8500" /> 
</g>
<g style="fill:#FFFFFF; fill-opacity:1.0000; stroke:none;">
<circle cx="13.5682" cy="38.7052" r="0.5000" /> 
</g>
<g style="fill:#FFFFFF; fill-opacity:1.0000; stroke:none;">
<circle cx="44.8102" cy="7.4378" r="0.5000" /> 
</g>
<g style="fill:#FFFFFF; fill-opacity:1.0000; stroke:none;">
<circle cx="13.5700" cy="22.7032" r="0.5000" /> 
</g>
<g style="fill:#FFFFFF; fill-opacity:1.0000; stroke:none;">
<circle cx="13.5700" cy="25.2432" r="0.5000" /> 
</g>
<g style="fill:#FFFFFF; fill-opacity:1.0000; stroke:none;">
<circle cx="41.5700" cy="2.3822" r="0.5000" /> 
</g>
<g style="fill:#FFFFFF; fill-opacity:1.0000; stroke:none;">
<circle cx="43.8500" cy="2.3822" r="0.5000" /> 
</g>
<g style="fill:#FFFFFF; fill-opacity:1.0000; stroke:none;">
<circle cx="46.1300" cy="2.3822" r="0.5000" /> 
</g>
<g style="fill:#FFFFFF; fill-opacity:1.0000; stroke:none;">
<circle cx="3.9288" cy="3.9562" r="1.8500" /> 
</g>
<g style="fill:#FFFFFF; fill-opacity:1.0000; stroke:none;">
<circle cx="47.3502" cy="7.4378" r="0.5000" /> 
</g>
<g style="fill:#FFFFFF; fill-opacity:1.0000; stroke:none;">
<circle cx="13.5682" cy="36.1652" r="0.5000" /> 
</g>
<g style="fill:#FFFFFF; fill-opacity:1.0000; stroke:none;">
<circle cx="28.1050" cy="10.2802" r="0.9000" /> 
</g>
<g style="fill:#FFFFFF; fill-opacity:1.0000; stroke:none;">
<circle cx="25.5650" cy="10.2802" r="0.9000" /> 
</g>
<g style="fill:#FFFFFF; fill-opacity:1.0000; stroke:none;">
<circle cx="23.0250" cy="10.2802" r="0.9000" /> 
</g>
<g style="fill:#FFFFFF; fill-opacity:1.0000; stroke:none;">
<circle cx="20.4850" cy="10.2802" r="0.9000" /> 
</g>
<g style="fill:#FFFFFF; fill-opacity:1.0000; stroke:none;">
<circle cx="17.9450" cy="10.2802" r="0.9000" /> 
</g>
<g style="fill:#FFFFFF; fill-opacity:1.0000; stroke:none;">
<circle cx="17.9450" cy="6.4702" r="0.5000" /> 
</g>
<g style="fill:#FFFFFF; fill-opacity:1.0000; stroke:none;">
<circle cx="20.4850" cy="6.4702" r="0.5000" /> 
</g>
<g style="fill:#FFFFFF; fill-opacity:1.0000; stroke:none;">
<circle cx="23.0250" cy="6.4702" r="0.5000" /> 
</g>
<g style="fill:#FFFFFF; fill-opacity:1.0000; stroke:none;">
<circle cx="25.5650" cy="6.4702" r="0.5000" /> 
</g>
<g style="fill:#FFFFFF; fill-opacity:1.0000; stroke:none;">
<circle cx="28.1050" cy="6.4702" r="0.5000" /> 
</g> 
</svg>
