<?xml version="1.0" standalone="no"?>
 <!DOCTYPE svg PUBLIC "-//W3C//DTD SVG 1.1//EN" 
 "http://www.w3.org/Graphics/SVG/1.1/DTD/svg11.dtd"> 
<svg
  xmlns:svg="http://www.w3.org/2000/svg"
  xmlns="http://www.w3.org/2000/svg"
  xmlns:xlink="http://www.w3.org/1999/xlink"
  version="1.1"
  width="297.0022mm" height="210.0072mm" viewBox="0.0000 0.0000 297.0022 210.0072">
<title>SVG Image created as 3458A Ref A9 Clone-B_Cu.svg date 2025/01/21 00:57:33 </title>
  <desc>Image generated by PCBNEW </desc>
<g style="fill:#000000; fill-opacity:1.0000;stroke:#000000; stroke-opacity:1.0000;
stroke-linecap:round; stroke-linejoin:round;"
 transform="translate(0 0) scale(1 1)">
<path style="fill:#4D7FC4; fill-opacity:1.0000; stroke:none;fill-rule:evenodd;"
d="M 176.6570,99.3340
177.5460,99.3340
177.5460,101.0258
176.6570,101.0258
Z" /> 
<path style="fill:#4D7FC4; fill-opacity:1.0000; stroke:none;fill-rule:evenodd;"
d="M 175.5400,100.7300
175.5400,101.0200
174.9400,101.0200
174.1100,100.1900
174.1100,99.5600
174.3700,99.5600
Z" /> 
</g>
<g style="fill:#4D7FC4; fill-opacity:1.0000; stroke:none;">
<circle cx="135.0010" cy="109.2708" r="0.7500" /> 
</g>
<g style="fill:#4D7FC4; fill-opacity:1.0000; stroke:none;">
<circle cx="138.8110" cy="109.2708" r="0.7500" /> 
</g>
<g style="fill:#4D7FC4; fill-opacity:1.0000; stroke:none;">
<circle cx="171.5770" cy="109.6010" r="0.7500" /> 
</g>
<g style="fill:#4D7FC4; fill-opacity:1.0000; stroke:none;">
<circle cx="167.7670" cy="109.6010" r="0.7500" /> 
</g>
<g style="fill:#4D7FC4; fill-opacity:1.0000; stroke:none;">
<circle cx="172.5430" cy="124.5200" r="0.7500" /> 
</g>
<g style="fill:#4D7FC4; fill-opacity:1.0000; stroke:none;">
<circle cx="171.6878" cy="122.4552" r="0.7500" /> 
</g>
<g style="fill:#4D7FC4; fill-opacity:1.0000; stroke:none;">
<circle cx="169.6230" cy="121.6000" r="0.7500" /> 
</g>
<g style="fill:#4D7FC4; fill-opacity:1.0000; stroke:none;">
<circle cx="167.5583" cy="122.4552" r="0.7500" /> 
</g>
<g style="fill:#4D7FC4; fill-opacity:1.0000; stroke:none;">
<circle cx="166.7030" cy="124.5200" r="0.7500" /> 
</g>
<g style="fill:#4D7FC4; fill-opacity:1.0000; stroke:none;">
<circle cx="167.5583" cy="126.5847" r="0.7500" /> 
</g>
<g style="fill:#4D7FC4; fill-opacity:1.0000; stroke:none;">
<circle cx="169.6230" cy="127.4400" r="0.7500" /> 
</g>
<g style="fill:#4D7FC4; fill-opacity:1.0000; stroke:none;">
<circle cx="171.6878" cy="126.5847" r="0.7500" /> 
<path style="fill:#4D7FC4; fill-opacity:1.0000; stroke:none;fill-rule:evenodd;"
d="M 147.2300,129.7020
147.2300,128.1780
148.9300,128.1780
148.9300,129.7020
Z" /> 
</g>
<g style="fill:#4D7FC4; fill-opacity:1.0000; stroke:none;">
<circle cx="150.6200" cy="128.9400" r="0.8500" /> 
</g>
<g style="fill:#4D7FC4; fill-opacity:1.0000; stroke:none;">
<circle cx="153.1600" cy="128.9400" r="0.8500" /> 
</g>
<g style="fill:#4D7FC4; fill-opacity:1.0000; stroke:none;">
<circle cx="155.7000" cy="128.9400" r="0.8500" /> 
</g>
<g style="fill:#4D7FC4; fill-opacity:1.0000; stroke:none;">
<circle cx="158.2400" cy="128.9400" r="0.8500" /> 
</g>
<g style="fill:#4D7FC4; fill-opacity:1.0000; stroke:none;">
<circle cx="138.8110" cy="116.8908" r="0.7500" /> 
</g>
<g style="fill:#4D7FC4; fill-opacity:1.0000; stroke:none;">
<circle cx="135.0010" cy="116.8908" r="0.7500" /> 
</g>
<g style="fill:#4D7FC4; fill-opacity:1.0000; stroke:none;">
<circle cx="143.7132" cy="131.4450" r="0.8500" /> 
</g>
<g style="fill:#4D7FC4; fill-opacity:1.0000; stroke:none;">
<circle cx="174.9552" cy="100.1776" r="0.8500" /> 
</g>
<g style="fill:#4D7FC4; fill-opacity:1.0000; stroke:none;">
<circle cx="144.1450" cy="121.0310" r="0.8500" /> 
</g>
<g style="fill:#4D7FC4; fill-opacity:1.0000; stroke:none;">
<circle cx="144.1450" cy="118.4910" r="0.8500" /> 
<path style="fill:#4D7FC4; fill-opacity:1.0000; stroke:none;fill-rule:evenodd;"
d="M 172.5590,93.7600
172.5590,95.4700
170.8490,95.4700
170.8490,93.7600
Z" /> 
</g>
<g style="fill:none; 
stroke:#4D7FC4; stroke-width:1.7100; stroke-opacity:1; 
stroke-linecap:round; stroke-linejoin:round;">
<path d="M173.9840 94.6600
L173.9840 94.5700
" />
<path d="M176.2640 94.6600
L176.2640 94.5700
" />
</g>
<g style="fill:#4D7FC4; fill-opacity:1.0000; stroke:none;">
<circle cx="177.4952" cy="100.1776" r="0.8500" /> 
</g>
<g style="fill:#4D7FC4; fill-opacity:1.0000; stroke:none;">
<circle cx="143.7132" cy="128.9050" r="0.8500" /> 
<path style="fill:#4D7FC4; fill-opacity:1.0000; stroke:none;fill-rule:evenodd;"
d="M 148.9400,98.4480
148.9400,99.9720
147.2400,99.9720
147.2400,98.4480
Z" /> 
</g>
<g style="fill:#4D7FC4; fill-opacity:1.0000; stroke:none;">
<circle cx="150.6300" cy="99.2100" r="0.8500" /> 
</g>
<g style="fill:#4D7FC4; fill-opacity:1.0000; stroke:none;">
<circle cx="153.1700" cy="99.2100" r="0.8500" /> 
</g>
<g style="fill:#4D7FC4; fill-opacity:1.0000; stroke:none;">
<circle cx="155.7100" cy="99.2100" r="0.8500" /> 
</g>
<g style="fill:#4D7FC4; fill-opacity:1.0000; stroke:none;">
<circle cx="158.2500" cy="99.2100" r="0.8500" /> 
<path style="fill:#4D7FC4; fill-opacity:1.0000; stroke:none;fill-rule:evenodd;"
d="M 170.2800,122.4700
170.3757,122.4890
170.4568,122.5432
170.5110,122.6243
170.5300,122.7200
170.5300,123.3700
170.5110,123.4657
170.4568,123.5468
170.3757,123.6010
170.2800,123.6200
168.9800,123.6200
168.8843,123.6010
168.8032,123.5468
168.7490,123.4657
168.7300,123.3700
168.7300,122.7200
168.7490,122.6243
168.8032,122.5432
168.8843,122.4890
168.9800,122.4700
Z" /> 
<path style="fill:#4D7FC4; fill-opacity:1.0000; stroke:none;fill-rule:evenodd;"
d="M 170.2800,125.4200
170.3757,125.4390
170.4568,125.4932
170.5110,125.5743
170.5300,125.6700
170.5300,126.3200
170.5110,126.4157
170.4568,126.4968
170.3757,126.5510
170.2800,126.5700
168.9800,126.5700
168.8843,126.5510
168.8032,126.4968
168.7490,126.4157
168.7300,126.3200
168.7300,125.6700
168.7490,125.5743
168.8032,125.4932
168.8843,125.4390
168.9800,125.4200
Z" /> 
</g>
<g style="fill:#ECECEC; fill-opacity:1.0000; stroke:none;">
<circle cx="169.1132" cy="113.4110" r="0.3000" /> 
</g>
<g style="fill:#ECECEC; fill-opacity:1.0000; stroke:none;">
<circle cx="170.1292" cy="113.4110" r="0.3000" /> 
</g>
<g style="fill:#ECECEC; fill-opacity:1.0000; stroke:none;">
<circle cx="169.6212" cy="113.4110" r="0.3000" /> 
</g>
<g style="fill:#ECECEC; fill-opacity:1.0000; stroke:none;">
<circle cx="139.1647" cy="100.2030" r="0.3000" /> 
</g>
<g style="fill:#ECECEC; fill-opacity:1.0000; stroke:none;">
<circle cx="152.4084" cy="107.3206" r="0.3000" /> 
</g>
<g style="fill:#ECECEC; fill-opacity:1.0000; stroke:none;">
<circle cx="139.1647" cy="100.7110" r="0.3000" /> 
</g>
<g style="fill:#ECECEC; fill-opacity:1.0000; stroke:none;">
<circle cx="152.4084" cy="106.3046" r="0.3000" /> 
</g>
<g style="fill:#ECECEC; fill-opacity:1.0000; stroke:none;">
<circle cx="139.1647" cy="99.6950" r="0.3000" /> 
</g>
<g style="fill:#ECECEC; fill-opacity:1.0000; stroke:none;">
<circle cx="152.4084" cy="106.8126" r="0.3000" /> 
</g>
<g style="fill:#ECECEC; fill-opacity:1.0000; stroke:none;">
<circle cx="151.5599" cy="120.1420" r="0.3000" /> 
</g>
<g style="fill:#ECECEC; fill-opacity:1.0000; stroke:none;">
<circle cx="151.5599" cy="119.6340" r="0.3000" /> 
</g>
<g style="fill:#ECECEC; fill-opacity:1.0000; stroke:none;">
<circle cx="151.5599" cy="120.6500" r="0.3000" /> 
</g>
<g style="fill:#ECECEC; fill-opacity:1.0000; stroke:none;">
<circle cx="167.3860" cy="99.3140" r="0.3000" /> 
</g>
<g style="fill:#ECECEC; fill-opacity:1.0000; stroke:none;">
<circle cx="175.7680" cy="111.5060" r="0.3000" /> 
</g>
<g style="fill:#ECECEC; fill-opacity:1.0000; stroke:none;">
<circle cx="167.8940" cy="99.3140" r="0.3000" /> 
</g>
<g style="fill:#ECECEC; fill-opacity:1.0000; stroke:none;">
<circle cx="168.4020" cy="99.3140" r="0.3000" /> 
</g>
<g style="fill:#ECECEC; fill-opacity:1.0000; stroke:none;">
<circle cx="175.7680" cy="112.0140" r="0.3000" /> 
</g>
<g style="fill:#ECECEC; fill-opacity:1.0000; stroke:none;">
<circle cx="175.7680" cy="110.9980" r="0.3000" /> 
</g>
<g style="fill:#ECECEC; fill-opacity:1.0000; stroke:none;">
<circle cx="167.6726" cy="129.2309" r="0.3000" /> 
</g>
<g style="fill:#ECECEC; fill-opacity:1.0000; stroke:none;">
<circle cx="168.6604" cy="129.5362" r="0.3000" /> 
</g>
<g style="fill:#ECECEC; fill-opacity:1.0000; stroke:none;">
<circle cx="173.2633" cy="126.8366" r="0.3000" /> 
</g>
<g style="fill:#ECECEC; fill-opacity:1.0000; stroke:none;">
<circle cx="170.6880" cy="124.5200" r="0.3000" /> 
</g>
<g style="fill:#ECECEC; fill-opacity:1.0000; stroke:none;">
<circle cx="168.2164" cy="124.9416" r="0.3000" /> 
</g>
<g style="fill:#ECECEC; fill-opacity:1.0000; stroke:none;">
<circle cx="167.3528" cy="120.8716" r="0.3000" /> 
</g>
<g style="fill:#ECECEC; fill-opacity:1.0000; stroke:none;">
<circle cx="170.5996" cy="120.3300" r="0.3000" /> 
</g>
<g style="fill:#ECECEC; fill-opacity:1.0000; stroke:none;">
<circle cx="168.6604" cy="128.7100" r="0.3000" /> 
</g>
<g style="fill:#ECECEC; fill-opacity:1.0000; stroke:none;">
<circle cx="165.9816" cy="126.7972" r="0.3000" /> 
</g>
<g style="fill:#ECECEC; fill-opacity:1.0000; stroke:none;">
<circle cx="170.5610" cy="128.7272" r="0.3000" /> 
</g>
<g style="fill:#ECECEC; fill-opacity:1.0000; stroke:none;">
<circle cx="173.1768" cy="123.0630" r="0.3000" /> 
</g>
<g style="fill:#ECECEC; fill-opacity:1.0000; stroke:none;">
<circle cx="164.6100" cy="125.4510" r="0.3000" /> 
</g>
<g style="fill:#ECECEC; fill-opacity:1.0000; stroke:none;">
<circle cx="165.4228" cy="125.4510" r="0.3000" /> 
</g>
<g style="fill:#ECECEC; fill-opacity:1.0000; stroke:none;">
<circle cx="170.5610" cy="129.5400" r="0.3000" /> 
</g>
<g style="fill:#ECECEC; fill-opacity:1.0000; stroke:none;">
<circle cx="168.2164" cy="124.1034" r="0.3000" /> 
</g>
<g style="fill:#ECECEC; fill-opacity:1.0000; stroke:none;">
<circle cx="173.8372" cy="123.5890" r="0.3000" /> 
</g>
<g style="fill:#ECECEC; fill-opacity:1.0000; stroke:none;">
<circle cx="164.6138" cy="123.5504" r="0.3000" /> 
</g>
<g style="fill:#ECECEC; fill-opacity:1.0000; stroke:none;">
<circle cx="164.9148" cy="126.4670" r="0.3000" /> 
</g>
<g style="fill:#ECECEC; fill-opacity:1.0000; stroke:none;">
<circle cx="173.1682" cy="125.9977" r="0.3000" /> 
</g>
<g style="fill:#ECECEC; fill-opacity:1.0000; stroke:none;">
<circle cx="174.6462" cy="125.4896" r="0.3000" /> 
</g>
<g style="fill:#ECECEC; fill-opacity:1.0000; stroke:none;">
<circle cx="168.1730" cy="120.9732" r="0.3000" /> 
</g>
<g style="fill:#ECECEC; fill-opacity:1.0000; stroke:none;">
<circle cx="171.9467" cy="120.8867" r="0.3000" /> 
</g>
<g style="fill:#ECECEC; fill-opacity:1.0000; stroke:none;">
<circle cx="174.6500" cy="123.5890" r="0.3000" /> 
</g>
<g style="fill:#ECECEC; fill-opacity:1.0000; stroke:none;">
<circle cx="166.7686" cy="120.2874" r="0.3000" /> 
</g>
<g style="fill:#ECECEC; fill-opacity:1.0000; stroke:none;">
<circle cx="171.5875" cy="119.8091" r="0.3000" /> 
</g>
<g style="fill:#ECECEC; fill-opacity:1.0000; stroke:none;">
<circle cx="171.1077" cy="120.9818" r="0.3000" /> 
</g>
<g style="fill:#ECECEC; fill-opacity:1.0000; stroke:none;">
<circle cx="165.4220" cy="121.6286" r="0.3000" /> 
</g>
<g style="fill:#ECECEC; fill-opacity:1.0000; stroke:none;">
<circle cx="165.4400" cy="123.5504" r="0.3000" /> 
</g>
<g style="fill:#ECECEC; fill-opacity:1.0000; stroke:none;">
<circle cx="171.9072" cy="128.1684" r="0.3000" /> 
</g>
<g style="fill:#ECECEC; fill-opacity:1.0000; stroke:none;">
<circle cx="166.0832" cy="125.9770" r="0.3000" /> 
</g>
<g style="fill:#ECECEC; fill-opacity:1.0000; stroke:none;">
<circle cx="167.6830" cy="119.8048" r="0.3000" /> 
</g>
<g style="fill:#ECECEC; fill-opacity:1.0000; stroke:none;">
<circle cx="170.1800" cy="124.5200" r="0.3000" /> 
</g>
<g style="fill:#ECECEC; fill-opacity:1.0000; stroke:none;">
<circle cx="173.2784" cy="122.2428" r="0.3000" /> 
</g>
<g style="fill:#ECECEC; fill-opacity:1.0000; stroke:none;">
<circle cx="173.8200" cy="125.4896" r="0.3000" /> 
</g>
<g style="fill:#ECECEC; fill-opacity:1.0000; stroke:none;">
<circle cx="172.5214" cy="120.3120" r="0.3000" /> 
</g>
<g style="fill:#ECECEC; fill-opacity:1.0000; stroke:none;">
<circle cx="171.0436" cy="124.9426" r="0.3000" /> 
</g>
<g style="fill:#ECECEC; fill-opacity:1.0000; stroke:none;">
<circle cx="168.6990" cy="120.3128" r="0.3000" /> 
</g>
<g style="fill:#ECECEC; fill-opacity:1.0000; stroke:none;">
<circle cx="171.0436" cy="124.1044" r="0.3000" /> 
</g>
<g style="fill:#ECECEC; fill-opacity:1.0000; stroke:none;">
<circle cx="174.3409" cy="126.4774" r="0.3000" /> 
</g>
<g style="fill:#ECECEC; fill-opacity:1.0000; stroke:none;">
<circle cx="166.0918" cy="123.0423" r="0.3000" /> 
</g>
<g style="fill:#ECECEC; fill-opacity:1.0000; stroke:none;">
<circle cx="164.9191" cy="122.5625" r="0.3000" /> 
</g>
<g style="fill:#ECECEC; fill-opacity:1.0000; stroke:none;">
<circle cx="173.8626" cy="121.6586" r="0.3000" /> 
</g>
<g style="fill:#ECECEC; fill-opacity:1.0000; stroke:none;">
<circle cx="174.3452" cy="122.5730" r="0.3000" /> 
</g>
<g style="fill:#ECECEC; fill-opacity:1.0000; stroke:none;">
<circle cx="166.7386" cy="128.7280" r="0.3000" /> 
</g>
<g style="fill:#ECECEC; fill-opacity:1.0000; stroke:none;">
<circle cx="167.3134" cy="128.1532" r="0.3000" /> 
</g>
<g style="fill:#ECECEC; fill-opacity:1.0000; stroke:none;">
<circle cx="165.9968" cy="122.2033" r="0.3000" /> 
</g>
<g style="fill:#ECECEC; fill-opacity:1.0000; stroke:none;">
<circle cx="172.4914" cy="128.7526" r="0.3000" /> 
</g>
<g style="fill:#ECECEC; fill-opacity:1.0000; stroke:none;">
<circle cx="169.6300" cy="124.5200" r="0.3000" /> 
</g>
<g style="fill:#ECECEC; fill-opacity:1.0000; stroke:none;">
<circle cx="165.3974" cy="127.3814" r="0.3000" /> 
</g>
<g style="fill:#ECECEC; fill-opacity:1.0000; stroke:none;">
<circle cx="173.8380" cy="127.4114" r="0.3000" /> 
</g>
<g style="fill:#ECECEC; fill-opacity:1.0000; stroke:none;">
<circle cx="171.5770" cy="129.2352" r="0.3000" /> 
</g>
<g style="fill:#ECECEC; fill-opacity:1.0000; stroke:none;">
<circle cx="170.5996" cy="119.5038" r="0.3000" /> 
</g>
<g style="fill:#ECECEC; fill-opacity:1.0000; stroke:none;">
<circle cx="168.5720" cy="124.5190" r="0.3000" /> 
</g>
<g style="fill:#ECECEC; fill-opacity:1.0000; stroke:none;">
<circle cx="169.0800" cy="124.5190" r="0.3000" /> 
</g>
<g style="fill:#ECECEC; fill-opacity:1.0000; stroke:none;">
<circle cx="171.0870" cy="128.0668" r="0.3000" /> 
</g>
<g style="fill:#ECECEC; fill-opacity:1.0000; stroke:none;">
<circle cx="168.6990" cy="119.5000" r="0.3000" /> 
</g>
<g style="fill:#ECECEC; fill-opacity:1.0000; stroke:none;">
<circle cx="168.1523" cy="128.0582" r="0.3000" /> 
</g>
<g style="fill:#ECECEC; fill-opacity:1.0000; stroke:none;">
<circle cx="145.0340" cy="101.5219" r="0.3000" /> 
</g>
<g style="fill:#ECECEC; fill-opacity:1.0000; stroke:none;">
<circle cx="138.5316" cy="103.5050" r="0.3000" /> 
</g>
<g style="fill:#ECECEC; fill-opacity:1.0000; stroke:none;">
<circle cx="143.5608" cy="100.7110" r="0.3000" /> 
</g>
<g style="fill:#ECECEC; fill-opacity:1.0000; stroke:none;">
<circle cx="144.5260" cy="101.5219" r="0.3000" /> 
</g>
<g style="fill:#ECECEC; fill-opacity:1.0000; stroke:none;">
<circle cx="143.5608" cy="99.6950" r="0.3000" /> 
</g>
<g style="fill:#ECECEC; fill-opacity:1.0000; stroke:none;">
<circle cx="138.5316" cy="102.9970" r="0.3000" /> 
</g>
<g style="fill:#ECECEC; fill-opacity:1.0000; stroke:none;">
<circle cx="138.5316" cy="102.4890" r="0.3000" /> 
</g>
<g style="fill:#ECECEC; fill-opacity:1.0000; stroke:none;">
<circle cx="143.5608" cy="100.2030" r="0.3000" /> 
</g>
<g style="fill:#ECECEC; fill-opacity:1.0000; stroke:none;">
<circle cx="145.5420" cy="101.5219" r="0.3000" /> 
</g>
<g style="fill:#ECECEC; fill-opacity:1.0000; stroke:none;">
<circle cx="164.2110" cy="111.4552" r="0.3000" /> 
</g>
<g style="fill:#ECECEC; fill-opacity:1.0000; stroke:none;">
<circle cx="176.6570" cy="113.9190" r="0.3000" /> 
</g>
<g style="fill:#ECECEC; fill-opacity:1.0000; stroke:none;">
<circle cx="176.6570" cy="112.9030" r="0.3000" /> 
</g>
<g style="fill:#ECECEC; fill-opacity:1.0000; stroke:none;">
<circle cx="163.1950" cy="111.4552" r="0.3000" /> 
</g>
<g style="fill:#ECECEC; fill-opacity:1.0000; stroke:none;">
<circle cx="172.3390" cy="100.4570" r="0.3000" /> 
</g>
<g style="fill:#ECECEC; fill-opacity:1.0000; stroke:none;">
<circle cx="176.6570" cy="113.4110" r="0.3000" /> 
</g>
<g style="fill:#ECECEC; fill-opacity:1.0000; stroke:none;">
<circle cx="171.5770" cy="101.2190" r="0.3000" /> 
</g>
<g style="fill:#ECECEC; fill-opacity:1.0000; stroke:none;">
<circle cx="163.7030" cy="111.4552" r="0.3000" /> 
</g>
<g style="fill:#ECECEC; fill-opacity:1.0000; stroke:none;">
<circle cx="171.9580" cy="100.8380" r="0.3000" /> 
</g>
<g style="fill:#ECECEC; fill-opacity:1.0000; stroke:none;">
<circle cx="170.1492" cy="100.2538" r="0.3000" /> 
</g>
<g style="fill:#ECECEC; fill-opacity:1.0000; stroke:none;">
<circle cx="171.2268" cy="100.2538" r="0.3000" /> 
</g>
<g style="fill:#ECECEC; fill-opacity:1.0000; stroke:none;">
<circle cx="157.7960" cy="111.1740" r="0.3000" /> 
</g>
<g style="fill:#ECECEC; fill-opacity:1.0000; stroke:none;">
<circle cx="158.9390" cy="111.1740" r="0.3000" /> 
</g>
<g style="fill:#ECECEC; fill-opacity:1.0000; stroke:none;">
<circle cx="158.3690" cy="111.1740" r="0.3000" /> 
</g>
<g style="fill:#ECECEC; fill-opacity:1.0000; stroke:none;">
<circle cx="170.6880" cy="100.2538" r="0.3000" /> 
</g>
<g style="fill:#ECECEC; fill-opacity:1.0000; stroke:none;">
<circle cx="145.7960" cy="108.9660" r="0.3000" /> 
</g>
<g style="fill:#ECECEC; fill-opacity:1.0000; stroke:none;">
<circle cx="145.7960" cy="108.4580" r="0.3000" /> 
</g>
<g style="fill:#ECECEC; fill-opacity:1.0000; stroke:none;">
<circle cx="161.8630" cy="104.7750" r="0.3000" /> 
</g>
<g style="fill:#ECECEC; fill-opacity:1.0000; stroke:none;">
<circle cx="162.4330" cy="104.7750" r="0.3000" /> 
</g>
<g style="fill:#ECECEC; fill-opacity:1.0000; stroke:none;">
<circle cx="145.7960" cy="109.4740" r="0.3000" /> 
</g>
<g style="fill:#ECECEC; fill-opacity:1.0000; stroke:none;">
<circle cx="161.2900" cy="104.7750" r="0.3000" /> 
</g>
<g style="fill:none; 
stroke:#4D7FC4; stroke-width:0.5080; stroke-opacity:1; 
stroke-linecap:round; stroke-linejoin:round;">
<path d="M157.7670 126.8730
L155.7000 128.9400
" />
<path d="M160.0200 125.7935
L158.9405 126.8730
" />
<path d="M163.7030 113.4110
L160.0200 117.0940
" />
<path d="M170.1292 113.4110
L169.1132 113.4110
" />
<path d="M158.9405 126.8730
L157.7670 126.8730
" />
<path d="M170.1292 113.4110
L170.1292 113.4110
" />
</g>
<g style="fill:none; 
stroke:#4D7FC4; stroke-width:1.5000; stroke-opacity:1; 
stroke-linecap:round; stroke-linejoin:round;">
<path d="M169.6230 121.6000
L169.6230 122.5380
" />
</g>
<g style="fill:none; 
stroke:#4D7FC4; stroke-width:0.5080; stroke-opacity:1; 
stroke-linecap:round; stroke-linejoin:round;">
<path d="M160.0200 117.0940
L160.0200 125.7935
" />
<path d="M170.1292 113.4110
L163.7030 113.4110
" />
</g>
<g style="fill:none; 
stroke:#4D7FC4; stroke-width:0.2000; stroke-opacity:1; 
stroke-linecap:round; stroke-linejoin:round;">
<path d="M169.5739 121.5509
L169.6230 121.6000
" />
</g>
<g style="fill:none; 
stroke:#4D7FC4; stroke-width:0.5080; stroke-opacity:1; 
stroke-linecap:round; stroke-linejoin:round;">
<path d="M169.6230 123.0380
L169.6300 123.0450
" />
</g>
<g style="fill:none; 
stroke:#4D7FC4; stroke-width:0.2000; stroke-opacity:1; 
stroke-linecap:round; stroke-linejoin:round;">
<path d="M151.9240 126.9970
L151.9240 129.9530
" />
</g>
<g style="fill:none; 
stroke:#4D7FC4; stroke-width:0.5080; stroke-opacity:1; 
stroke-linecap:round; stroke-linejoin:round;">
<path d="M151.6380 126.7110
L151.6380 123.6980
" />
<path d="M151.9240 126.9970
L151.6380 126.7110
" />
<path d="M135.0010 116.8908
L131.4450 113.3348
" />
<path d="M151.9700 129.9990
L152.5270 130.5560
" />
<path d="M151.6380 123.6980
L153.1620 122.1740
" />
<path d="M137.5410 100.7110
L139.1647 100.7110
" />
<path d="M131.4450 106.8070
L137.5410 100.7110
" />
<path d="M152.4084 107.3206
L152.4084 106.3046
" />
<path d="M139.1647 100.7110
L139.1647 99.6950
" />
<path d="M156.6240 130.5560
L158.2400 128.9400
" />
<path d="M152.5270 130.5560
L156.6240 130.5560
" />
<path d="M153.1620 122.1740
L153.1620 108.0742
" />
<path d="M139.1647 99.6950
L139.1647 99.6950
" />
<path d="M131.4450 113.3348
L131.4450 106.8070
" />
</g>
<g style="fill:none; 
stroke:#4D7FC4; stroke-width:1.5000; stroke-opacity:1; 
stroke-linecap:round; stroke-linejoin:round;">
<path d="M169.6230 127.4400
L169.6230 126.5020
" />
</g>
<g style="fill:none; 
stroke:#4D7FC4; stroke-width:0.5080; stroke-opacity:1; 
stroke-linecap:round; stroke-linejoin:round;">
<path d="M153.1620 108.0742
L152.4084 107.3206
" />
<path d="M151.9240 129.9530
L151.9700 129.9990
" />
<path d="M169.6230 126.0020
L169.6300 125.9950
" />
<path d="M149.6060 127.4140
L149.6060 122.6039
" />
<path d="M148.0800 128.9400
L149.6060 127.4140
" />
<path d="M151.5599 120.6500
L151.5599 119.6340
" />
<path d="M149.6060 122.6039
L151.5599 120.6500
" />
<path d="M175.7426 100.1776
L175.7680 100.2030
" />
<path d="M175.7680 99.8220
L175.2600 99.3140
" />
<path d="M175.7680 112.0140
L175.7680 100.2030
" />
<path d="M175.2600 99.3140
L167.3860 99.3140
" />
<path d="M175.7680 112.0140
L175.7680 112.0140
" />
<path d="M174.9552 100.1776
L175.7426 100.1776
" />
<path d="M175.7680 100.2030
L175.7680 99.8220
" />
<path d="M148.0900 97.2740
L151.6380 93.7260
" />
<path d="M148.0900 99.2100
L148.0900 97.2740
" />
<path d="M151.6380 93.7260
L170.8150 93.7260
" />
<path d="M170.8150 93.7260
L171.7040 94.6150
" />
<path d="M159.0350 98.4250
L175.3870 98.4250
" />
<path d="M175.7730 98.0390
L175.7730 96.4040
" />
<path d="M158.2500 99.2100
L159.0350 98.4250
" />
<path d="M175.7730 96.4040
L173.9840 94.6150
" />
<path d="M175.3870 98.4250
L175.7730 98.0390
" />
<path d="M153.3981 101.5219
L155.7100 99.2100
" />
<path d="M144.5260 101.5219
L153.3981 101.5219
" />
<path d="M177.4952 100.1776
L176.6824 100.1776
" />
<path d="M176.6570 100.2030
L176.6570 95.0080
" />
<path d="M171.5770 101.2190
L172.3390 100.4570
" />
<path d="M176.6570 113.9190
L176.6570 100.2030
" />
<path d="M170.1800 101.2190
L161.5440 109.8550
" />
<path d="M171.5770 101.2190
L170.1800 101.2190
" />
<path d="M161.5440 109.8550
L163.1442 111.4552
" />
<path d="M176.6570 113.9190
L176.6570 113.9190
" />
<path d="M176.6570 95.0080
L176.2640 94.6150
" />
<path d="M176.6824 100.1776
L176.6570 100.2030
" />
<path d="M163.1442 111.4552
L164.2110 111.4552
" />
<path d="M158.8770 111.2520
L169.8752 100.2538
" />
<path d="M169.8752 100.2538
L171.2268 100.2538
" />
<path d="M157.7960 111.1740
L158.8770 111.1740
" />
<path d="M147.1930 108.9660
L145.7960 108.9660
" />
<path d="M151.3840 104.7750
L147.1930 108.9660
" />
<path d="M145.7960 109.4740
L145.7960 109.4740
" />
<path d="M162.4330 104.7750
L151.3840 104.7750
" />
<path d="M145.7960 108.4580
L145.7960 109.4740
" />
<path style="fill:#4D7FC4; fill-opacity:1.0000; stroke:none;fill-rule:evenodd;"
d="M 168.3023,123.4282
168.3335,123.4761
168.3597,123.5666
168.3783,123.6304
168.4619,123.7719
168.5782,123.8881
168.7196,123.9717
168.8774,124.0176
168.9143,124.0205
168.9143,124.0205
170.3457,124.0205
170.3457,124.0205
170.3826,124.0176
170.5404,123.9717
170.6819,123.8881
170.7981,123.7719
170.8818,123.6304
170.9244,123.4835
170.9588,123.4329
171.0164,123.4121
171.0716,123.4269
171.1728,123.4895
171.3716,123.5666
171.5812,123.6057
171.5929,123.6057
171.6511,123.6246
171.6871,123.6741
171.6871,123.7353
171.6719,123.7644
171.5607,123.9117
171.5606,123.9117
171.5065,124.0205
171.4656,124.1026
171.4628,124.1124
171.4073,124.3077
171.4073,124.3077
171.3876,124.5200
171.4073,124.7323
171.4656,124.9374
171.5607,125.1282
171.5785,125.1519
171.6719,125.2756
171.6919,125.3334
171.6741,125.3919
171.6252,125.4288
171.5929,125.4342
171.5812,125.4342
171.3716,125.4734
171.2985,125.5017
171.1728,125.5504
171.0716,125.6131
171.0122,125.6276
170.9556,125.6045
170.9244,125.5565
170.9227,125.5504
170.8818,125.4096
170.7981,125.2681
170.6819,125.1519
170.5404,125.0682
170.3826,125.0224
170.3826,125.0224
170.3826,125.0224
170.3592,125.0205
170.3457,125.0195
168.9143,125.0195
168.9018,125.0205
168.8775,125.0224
168.8774,125.0224
168.7196,125.0682
168.5782,125.1519
168.4619,125.2681
168.3783,125.4096
168.3335,125.5638
168.2991,125.6145
168.2415,125.6352
168.1863,125.6204
168.0733,125.5504
168.0733,125.5504
167.8745,125.4734
167.6649,125.4342
167.6531,125.4342
167.5949,125.4153
167.5590,125.3658
167.5590,125.3046
167.5741,125.2756
167.6200,125.2148
167.6854,125.1282
167.7804,124.9374
167.8388,124.7323
167.8584,124.5200
167.8388,124.3077
167.7804,124.1026
167.6854,123.9117
167.5741,123.7644
167.5541,123.7066
167.5720,123.6480
167.6208,123.6112
167.6531,123.6057
167.6649,123.6057
167.8745,123.5666
168.0733,123.4895
168.1863,123.4196
168.2457,123.4050
Z" /> 
<path style="fill:#4D7FC4; fill-opacity:1.0000; stroke:none;fill-rule:evenodd;"
d="M 170.0339,119.0813
170.0413,119.0818
170.4392,119.1267
170.4465,119.1278
170.5426,119.1460
170.8400,119.2022
170.8472,119.2039
171.2340,119.3075
171.2411,119.3097
171.6190,119.4420
171.6259,119.4447
171.9930,119.6048
171.9996,119.6080
172.3537,119.7951
172.3600,119.7988
172.6991,120.0119
172.7052,120.0160
173.0274,120.2538
173.0332,120.2584
173.3310,120.5147
173.3367,120.5196
173.3422,120.5247
173.6253,120.8078
173.6304,120.8133
173.8916,121.1168
173.8962,121.1226
174.1340,121.4448
174.1381,121.4509
174.1984,121.5468
174.3304,121.7568
174.3512,121.7899
174.3549,121.7963
174.5420,122.1504
174.5452,122.1570
174.7053,122.5241
174.7081,122.5310
174.8403,122.9089
174.8425,122.9160
174.9461,123.3028
174.9478,123.3100
175.0222,123.7035
175.0233,123.7108
175.0682,124.1087
175.0687,124.1161
175.0837,124.5163
175.0837,124.5237
175.0687,124.9238
175.0682,124.9312
175.0233,125.3292
175.0222,125.3365
174.9478,125.7299
174.9461,125.7371
174.8425,126.1239
174.8403,126.1310
174.7081,126.5090
174.7053,126.5159
174.5452,126.8829
174.5420,126.8896
174.3549,127.2436
174.3512,127.2500
174.1381,127.5891
174.1340,127.5952
173.8962,127.9174
173.8916,127.9232
173.6304,128.2267
173.6253,128.2321
173.3422,128.5153
173.3367,128.5203
173.0332,128.7815
173.0274,128.7862
172.7052,129.0239
172.6991,129.0281
172.3601,129.2412
172.3537,129.2449
171.9996,129.4320
171.9930,129.4352
171.6259,129.5953
171.6190,129.5980
171.2411,129.7303
171.2340,129.7325
170.8472,129.8361
170.8400,129.8377
170.4465,129.9122
170.4392,129.9133
170.0413,129.9581
170.0339,129.9587
169.6337,129.9737
169.6263,129.9737
169.2262,129.9587
169.2188,129.9581
168.8209,129.9133
168.8135,129.9122
168.4201,129.8377
168.4129,129.8361
168.0261,129.7325
168.0190,129.7303
167.6410,129.5980
167.6341,129.5953
167.2671,129.4352
167.2604,129.4320
166.9064,129.2448
166.9000,129.2412
166.7059,129.1192
166.5609,129.0281
166.5548,129.0239
166.2326,128.7862
166.2268,128.7815
165.9233,128.5203
165.9179,128.5153
165.6347,128.2321
165.6297,128.2267
165.5426,128.1255
165.3685,127.9232
165.3638,127.9174
165.3374,127.8816
165.1261,127.5952
165.1219,127.5891
165.0702,127.5068
164.9088,127.2500
164.9052,127.2436
164.7180,126.8896
164.7148,126.8829
164.5547,126.5159
164.5520,126.5090
164.5042,126.3724
164.4197,126.1310
164.4175,126.1239
164.3139,125.7371
164.3123,125.7299
164.2995,125.6627
164.2637,125.4734
164.2378,125.3365
164.2367,125.3292
164.2073,125.0682
164.1919,124.9312
164.1913,124.9238
164.1841,124.7323
164.1763,124.5237
164.1763,124.5200
165.5476,124.5200
165.5673,124.7323
165.6256,124.9374
165.7207,125.1282
165.8491,125.2984
165.8909,125.3365
166.0067,125.4420
166.0067,125.4420
166.1104,125.5062
166.1880,125.5543
166.3868,125.6313
166.5964,125.6705
166.6082,125.6705
166.6664,125.6894
166.7023,125.7389
166.7023,125.8001
166.6872,125.8291
166.5759,125.9765
166.5759,125.9765
166.4809,126.1673
166.4225,126.3724
166.4092,126.5159
166.4028,126.5847
166.4225,126.7970
166.4809,127.0021
166.5759,127.1930
166.7044,127.3631
166.7750,127.4275
166.8620,127.5068
166.8620,127.5068
166.9657,127.5710
167.0432,127.6190
167.2421,127.6961
167.4517,127.7352
167.6649,127.7352
167.8745,127.6961
168.0733,127.6190
168.2546,127.5068
168.3068,127.4592
168.3626,127.4339
168.4225,127.4463
168.4637,127.4915
168.4713,127.5267
168.4722,127.5267
168.4725,127.5305
168.4804,127.5800
168.4812,127.5864
168.4873,127.6523
168.4959,127.6826
168.4984,127.6942
168.5008,127.7094
168.5008,127.7094
168.5217,127.7736
168.5228,127.7770
168.5423,127.8456
168.5456,127.8574
168.5519,127.8700
168.5552,127.8781
168.5553,127.8780
168.5568,127.8816
168.5953,127.9573
168.5958,127.9581
168.6406,128.0482
168.6407,128.0482
168.6980,128.1241
168.6990,128.1255
168.7455,128.1895
168.7455,128.1895
168.7482,128.1922
168.7572,128.2025
168.7691,128.2184
168.7691,128.2184
168.7691,128.2184
168.7842,128.2321
168.8266,128.2707
168.8299,128.2739
168.8735,128.3175
168.8907,128.3300
168.8992,128.3369
168.8992,128.3369
168.9267,128.3620
168.9267,128.3620
168.9781,128.3938
168.9841,128.3979
169.0200,128.4240
169.0200,128.4240
169.0544,128.4415
169.0615,128.4455
169.1080,128.4743
169.1080,128.4743
169.1080,128.4743
169.1203,128.4790
169.1481,128.4898
169.1573,128.4939
169.1814,128.5062
169.2174,128.5179
169.2345,128.5235
169.2397,128.5253
169.3068,128.5513
169.3321,128.5560
169.3445,128.5592
169.3536,128.5622
169.4260,128.5736
169.4286,128.5741
169.5164,128.5905
169.5164,128.5905
169.7296,128.5905
169.7296,128.5905
169.8175,128.5741
169.8200,128.5736
169.8924,128.5622
169.9016,128.5592
169.9140,128.5560
169.9392,128.5513
170.0063,128.5253
170.0115,128.5235
170.0647,128.5062
170.0887,128.4939
170.0979,128.4898
170.1380,128.4743
170.1845,128.4455
170.1916,128.4415
170.2260,128.4240
170.2619,128.3979
170.2680,128.3938
170.3193,128.3620
170.3469,128.3369
170.3554,128.3300
170.3725,128.3175
170.4162,128.2739
170.4194,128.2708
170.4769,128.2184
170.4889,128.2025
170.4979,128.1922
170.5006,128.1895
170.5471,128.1255
170.5481,128.1241
170.6054,128.0482
170.6417,127.9754
170.6503,127.9580
170.6507,127.9572
170.6892,127.8816
170.6892,127.8816
170.6907,127.8780
170.6908,127.8781
170.6941,127.8700
170.7004,127.8574
170.7233,127.7770
170.7243,127.7736
170.7452,127.7094
170.7452,127.7094
170.7452,127.7094
170.7476,127.6942
170.7502,127.6826
170.7588,127.6523
170.7649,127.5864
170.7657,127.5800
170.7735,127.5305
170.7735,127.5305
170.7738,127.5266
170.7753,127.5268
170.7924,127.4741
170.8419,127.4382
170.9031,127.4382
170.9392,127.4592
170.9747,127.4915
170.9915,127.5068
170.9915,127.5068
171.0952,127.5710
171.1728,127.6190
171.3716,127.6961
171.5812,127.7352
171.7944,127.7352
172.0040,127.6961
172.2028,127.6190
172.3841,127.5068
172.5416,127.3631
172.6701,127.1930
172.7652,127.0021
172.8235,126.7970
172.8432,126.5847
172.8235,126.3724
172.7652,126.1673
172.6701,125.9765
172.5589,125.8291
172.5389,125.7713
172.5567,125.7128
172.6055,125.6759
172.6379,125.6705
172.6496,125.6705
172.8592,125.6313
173.0580,125.5543
173.2393,125.4420
173.3969,125.2984
173.5254,125.1282
173.6204,124.9374
173.6788,124.7323
173.6984,124.5200
173.6788,124.3077
173.6204,124.1026
173.5254,123.9117
173.3969,123.7416
173.2686,123.6246
173.2393,123.5979
173.2393,123.5979
173.0580,123.4857
173.0580,123.4857
172.9063,123.4269
172.8592,123.4087
172.8592,123.4087
172.8592,123.4087
172.6496,123.3695
172.6379,123.3695
172.5797,123.3506
172.5437,123.3011
172.5437,123.2399
172.5589,123.2108
172.6701,123.0635
172.7652,122.8726
172.8235,122.6675
172.8432,122.4552
172.8235,122.2429
172.7652,122.0378
172.6701,121.8470
172.5416,121.6768
172.4009,121.5485
172.3841,121.5332
172.3841,121.5332
172.2028,121.4209
172.2028,121.4209
172.0040,121.3439
172.0040,121.3439
172.0040,121.3439
171.7944,121.3047
171.5812,121.3047
171.3716,121.3439
171.1727,121.4209
171.1727,121.4209
170.9915,121.5332
170.9915,121.5332
170.9392,121.5808
170.8835,121.6060
170.8235,121.5937
170.7823,121.5485
170.7747,121.5132
170.7738,121.5133
170.7735,121.5094
170.7735,121.5094
170.7657,121.4599
170.7649,121.4536
170.7646,121.4509
170.7588,121.3877
170.7502,121.3574
170.7476,121.3458
170.7452,121.3306
170.7243,121.2664
170.7233,121.2629
170.7233,121.2629
170.7004,121.1826
170.6942,121.1700
170.6908,121.1619
170.6907,121.1619
170.6892,121.1584
170.6892,121.1583
170.6507,121.0827
170.6503,121.0819
170.6054,120.9917
170.6054,120.9917
170.6054,120.9917
170.6054,120.9917
170.5481,120.9159
170.5470,120.9144
170.5006,120.8505
170.5006,120.8505
170.4979,120.8478
170.4889,120.8374
170.4796,120.8252
170.4769,120.8216
170.4194,120.7692
170.4162,120.7661
170.3725,120.7224
170.3554,120.7100
170.3469,120.7030
170.3193,120.6779
170.3193,120.6779
170.2680,120.6461
170.2619,120.6421
170.2260,120.6160
170.2260,120.6160
170.2081,120.6068
170.1917,120.5985
170.1845,120.5944
170.1380,120.5657
170.1380,120.5657
170.0979,120.5501
170.0887,120.5460
170.0647,120.5338
170.0286,120.5221
170.0115,120.5165
170.0063,120.5147
170.0063,120.5147
169.9392,120.4887
169.9392,120.4887
169.9392,120.4887
169.9140,120.4839
169.9016,120.4808
169.8924,120.4778
169.8201,120.4664
169.8174,120.4659
169.7296,120.4495
169.5164,120.4495
169.4286,120.4659
169.4259,120.4664
169.3536,120.4778
169.3536,120.4778
169.3444,120.4808
169.3321,120.4839
169.3068,120.4887
169.3068,120.4887
169.2397,120.5147
169.2346,120.5165
169.1814,120.5338
169.1573,120.5460
169.1481,120.5501
169.1080,120.5657
169.1080,120.5657
169.0615,120.5944
169.0544,120.5985
169.0363,120.6077
169.0200,120.6160
169.0200,120.6160
169.0200,120.6160
168.9841,120.6421
168.9781,120.6461
168.9267,120.6779
168.8992,120.7030
168.8907,120.7100
168.8735,120.7224
168.8299,120.7661
168.8266,120.7692
168.7814,120.8104
168.7691,120.8216
168.7691,120.8216
168.7691,120.8216
168.7572,120.8374
168.7482,120.8478
168.7455,120.8505
168.7455,120.8505
168.6990,120.9144
168.6979,120.9159
168.6406,120.9917
168.5957,121.0820
168.5953,121.0828
168.5568,121.1583
168.5553,121.1619
168.5552,121.1619
168.5519,121.1700
168.5505,121.1728
168.5456,121.1826
168.5456,121.1826
168.5228,121.2629
168.5217,121.2664
168.5008,121.3306
168.5008,121.3306
168.4984,121.3458
168.4959,121.3574
168.4873,121.3877
168.4873,121.3877
168.4817,121.4477
168.4812,121.4536
168.4804,121.4599
168.4725,121.5094
168.4722,121.5133
168.4707,121.5132
168.4536,121.5658
168.4041,121.6018
168.3429,121.6018
168.3068,121.5808
168.2546,121.5332
168.2546,121.5332
168.0733,121.4209
168.0733,121.4209
167.8745,121.3439
167.8745,121.3439
167.8745,121.3439
167.6649,121.3047
167.4517,121.3047
167.2421,121.3439
167.0432,121.4209
167.0432,121.4209
166.8620,121.5332
166.8620,121.5332
166.7044,121.6768
166.7044,121.6768
166.7044,121.6768
166.7044,121.6768
166.5759,121.8470
166.5759,121.8470
166.4809,122.0378
166.4225,122.2429
166.4028,122.4552
166.4225,122.6675
166.4457,122.7491
166.4809,122.8726
166.5759,123.0635
166.6872,123.2108
166.7071,123.2687
166.6893,123.3272
166.6405,123.3641
166.6082,123.3695
166.5964,123.3695
166.3868,123.4087
166.1880,123.4857
166.1880,123.4857
166.0067,123.5979
166.0067,123.5979
165.8492,123.7416
165.8491,123.7416
165.8491,123.7416
165.8491,123.7416
165.7207,123.9117
165.7206,123.9117
165.6665,124.0205
165.6256,124.1026
165.6228,124.1124
165.5673,124.3077
165.5673,124.3077
165.5476,124.5200
164.1763,124.5200
164.1763,124.5163
164.1913,124.1161
164.1919,124.1088
164.2367,123.7108
164.2378,123.7035
164.2578,123.5979
164.3123,123.3100
164.3139,123.3028
164.4175,122.9160
164.4197,122.9089
164.5520,122.5310
164.5547,122.5241
164.7148,122.1570
164.7180,122.1504
164.9052,121.7963
164.9088,121.7900
165.1219,121.4509
165.1261,121.4448
165.3639,121.1226
165.3684,121.1168
165.6297,120.8132
165.6347,120.8078
165.9179,120.5247
165.9233,120.5197
166.2268,120.2584
166.2326,120.2538
166.5548,120.0160
166.5609,120.0119
166.9000,119.7988
166.9063,119.7951
167.2604,119.6080
167.2670,119.6048
167.6341,119.4446
167.6410,119.4420
168.0190,119.3097
168.0260,119.3075
168.4129,119.2039
168.4201,119.2022
168.8135,119.1278
168.8208,119.1267
169.2188,119.0818
169.2261,119.0813
169.6263,119.0663
169.6337,119.0663
Z" /> 
<path style="fill:#4D7FC4; fill-opacity:1.0000; stroke:none;fill-rule:evenodd;"
d="M 146.5772,93.3102
146.6230,93.3630
146.6342,93.4145
146.6342,104.1938
146.6145,104.2608
146.5617,104.3066
146.5102,104.3178
135.3006,104.3178
135.2335,104.2981
135.1878,104.2453
135.1778,104.1762
135.2069,104.1126
135.2129,104.1061
137.8172,101.5018
137.8785,101.4683
137.9049,101.4655
138.8762,101.4655
138.9171,101.4725
138.9854,101.4964
138.9854,101.4964
138.9854,101.4964
138.9854,101.4964
138.9854,101.4964
139.1647,101.5166
139.1647,101.5166
139.1647,101.5166
139.3439,101.4964
139.3440,101.4964
139.3440,101.4964
139.5142,101.4368
139.6670,101.3408
139.7945,101.2133
139.8905,101.0605
139.9501,100.8903
139.9703,100.7110
139.9578,100.6005
139.9501,100.5317
139.9501,100.5317
139.9501,100.5317
139.9382,100.4980
139.9347,100.4282
139.9382,100.4160
139.9501,100.3823
139.9501,100.3822
139.9703,100.2030
139.9703,100.2030
139.9501,100.0238
139.9501,100.0237
139.9382,99.9900
139.9347,99.9202
139.9382,99.9081
139.9501,99.8743
139.9703,99.6950
139.9501,99.5157
139.8905,99.3455
139.7945,99.1927
139.6670,99.0652
139.6393,99.0478
139.5142,98.9692
139.3440,98.9096
139.3439,98.9096
139.1647,98.8894
139.1647,98.8894
138.9854,98.9096
138.9854,98.9096
138.8152,98.9692
138.6624,99.0652
138.5349,99.1927
138.4389,99.3455
138.3793,99.5157
138.3793,99.5157
138.3591,99.6950
138.3591,99.6950
138.3731,99.8186
138.3610,99.8874
138.3137,99.9388
138.2498,99.9565
137.6214,99.9565
137.6214,99.9565
137.6153,99.9565
137.4667,99.9565
137.4667,99.9565
137.3451,99.9807
137.3209,99.9855
137.2871,99.9995
137.2871,99.9995
137.1836,100.0424
137.1836,100.0424
137.1749,100.0482
137.1749,100.0482
137.0600,100.1249
137.0600,100.1249
137.0600,100.1249
137.0600,100.1249
136.9549,100.2300
132.9035,104.2815
132.8422,104.3150
132.8158,104.3178
130.7945,104.3178
130.7275,104.2981
130.6817,104.2453
130.6705,104.1938
130.6705,99.1237
130.6902,99.0567
130.7430,99.0109
130.8121,99.0010
130.8757,99.0300
130.8926,99.0478
131.0637,99.2690
131.2983,99.5157
131.3394,99.5590
131.6430,99.8196
131.6430,99.8196
131.9714,100.0482
132.3213,100.2424
132.6890,100.4002
132.6890,100.4002
132.6890,100.4002
133.0708,100.5200
133.0708,100.5200
133.0708,100.5200
133.4627,100.6005
133.7812,100.6329
133.8608,100.6410
133.8608,100.6410
134.2609,100.6410
134.3272,100.6342
134.6590,100.6005
135.0509,100.5200
135.1210,100.4980
135.4327,100.4002
135.4327,100.4002
135.4327,100.4002
135.8004,100.2424
136.1502,100.0482
136.4787,99.8196
136.7823,99.5590
137.0579,99.2690
137.3029,98.9526
137.5145,98.6130
137.6907,98.2538
137.8297,97.8785
137.9300,97.4912
137.9906,97.0957
138.0108,96.6961
137.9906,96.2964
137.9300,95.9009
137.8297,95.5136
137.6907,95.1383
137.5145,94.7791
137.5145,94.7791
137.3029,94.4395
137.0579,94.1231
137.0579,94.1231
137.0579,94.1231
136.7823,93.8331
136.5943,93.6718
136.4787,93.5725
136.3979,93.5163
136.3541,93.4618
136.3467,93.3923
136.3781,93.3299
136.4382,93.2943
136.4687,93.2905
146.5102,93.2905
Z" /> 
</g>
<g style="fill:#02FFEE; fill-opacity:0.4000; stroke:none;">
<circle cx="135.0010" cy="109.2708" r="0.7500" /> 
</g>
<g style="fill:#02FFEE; fill-opacity:0.4000; stroke:none;">
<circle cx="138.8110" cy="109.2708" r="0.7500" /> 
</g>
<g style="fill:#02FFEE; fill-opacity:0.4000; stroke:none;">
<circle cx="171.5770" cy="109.6010" r="0.7500" /> 
</g>
<g style="fill:#02FFEE; fill-opacity:0.4000; stroke:none;">
<circle cx="167.7670" cy="109.6010" r="0.7500" /> 
</g>
<g style="fill:#02FFEE; fill-opacity:0.4000; stroke:none;">
<circle cx="172.5430" cy="124.5200" r="0.7500" /> 
</g>
<g style="fill:#02FFEE; fill-opacity:0.4000; stroke:none;">
<circle cx="171.6878" cy="122.4552" r="0.7500" /> 
</g>
<g style="fill:#02FFEE; fill-opacity:0.4000; stroke:none;">
<circle cx="169.6230" cy="121.6000" r="0.7500" /> 
</g>
<g style="fill:#02FFEE; fill-opacity:0.4000; stroke:none;">
<circle cx="167.5583" cy="122.4552" r="0.7500" /> 
</g>
<g style="fill:#02FFEE; fill-opacity:0.4000; stroke:none;">
<circle cx="166.7030" cy="124.5200" r="0.7500" /> 
</g>
<g style="fill:#02FFEE; fill-opacity:0.4000; stroke:none;">
<circle cx="167.5583" cy="126.5847" r="0.7500" /> 
</g>
<g style="fill:#02FFEE; fill-opacity:0.4000; stroke:none;">
<circle cx="169.6230" cy="127.4400" r="0.7500" /> 
</g>
<g style="fill:#02FFEE; fill-opacity:0.4000; stroke:none;">
<circle cx="171.6878" cy="126.5847" r="0.7500" /> 
</g>
<g style="fill:#02FFEE; fill-opacity:0.4000; stroke:none;">
<circle cx="148.0800" cy="125.1300" r="1.0000" /> 
</g>
<g style="fill:#02FFEE; fill-opacity:0.4000; stroke:none;">
<circle cx="153.1600" cy="125.1300" r="1.0000" /> 
</g>
<g style="fill:#02FFEE; fill-opacity:0.4000; stroke:none;">
<circle cx="155.7000" cy="125.1300" r="1.0000" /> 
</g>
<g style="fill:#02FFEE; fill-opacity:0.4000; stroke:none;">
<circle cx="158.2400" cy="125.1300" r="1.0000" /> 
<path style="fill:#02FFEE; fill-opacity:0.4000; stroke:none;fill-rule:evenodd;"
d="M 147.2300,129.7020
147.2300,128.1780
148.9300,128.1780
148.9300,129.7020
Z" /> 
</g>
<g style="fill:#02FFEE; fill-opacity:0.4000; stroke:none;">
<circle cx="150.6200" cy="128.9400" r="0.8500" /> 
</g>
<g style="fill:#02FFEE; fill-opacity:0.4000; stroke:none;">
<circle cx="153.1600" cy="128.9400" r="0.8500" /> 
</g>
<g style="fill:#02FFEE; fill-opacity:0.4000; stroke:none;">
<circle cx="155.7000" cy="128.9400" r="0.8500" /> 
</g>
<g style="fill:#02FFEE; fill-opacity:0.4000; stroke:none;">
<circle cx="158.2400" cy="128.9400" r="0.8500" /> 
</g>
<g style="fill:#02FFEE; fill-opacity:0.4000; stroke:none;">
<circle cx="138.8110" cy="116.8908" r="0.7500" /> 
</g>
<g style="fill:#02FFEE; fill-opacity:0.4000; stroke:none;">
<circle cx="135.0010" cy="116.8908" r="0.7500" /> 
</g>
<g style="fill:#02FFEE; fill-opacity:0.4000; stroke:none;">
<circle cx="174.7139" cy="131.4661" r="2.0000" /> 
</g>
<g style="fill:#02FFEE; fill-opacity:0.4000; stroke:none;">
<circle cx="164.5639" cy="117.5761" r="2.0000" /> 
</g>
<g style="fill:#02FFEE; fill-opacity:0.4000; stroke:none;">
<circle cx="143.7132" cy="131.4450" r="0.8500" /> 
</g>
<g style="fill:#02FFEE; fill-opacity:0.4000; stroke:none;">
<circle cx="174.9552" cy="100.1776" r="0.8500" /> 
</g>
<g style="fill:#02FFEE; fill-opacity:0.4000; stroke:none;">
<circle cx="144.1450" cy="121.0310" r="0.8500" /> 
</g>
<g style="fill:#02FFEE; fill-opacity:0.4000; stroke:none;">
<circle cx="144.1450" cy="118.4910" r="0.8500" /> 
<path style="fill:#02FFEE; fill-opacity:0.4000; stroke:none;fill-rule:evenodd;"
d="M 172.5590,93.7600
172.5590,95.4700
170.8490,95.4700
170.8490,93.7600
Z" /> 
</g>
<g style="fill:none; 
stroke:#02FFEE; stroke-width:1.7100; stroke-opacity:1; 
stroke-linecap:round; stroke-linejoin:round;">
<path d="M173.9840 94.6600
L173.9840 94.5700
" />
<path d="M176.2640 94.6600
L176.2640 94.5700
" />
</g>
<g style="fill:#02FFEE; fill-opacity:0.4000; stroke:none;">
<circle cx="134.0738" cy="96.6961" r="3.6000" /> 
</g>
<g style="fill:#02FFEE; fill-opacity:0.4000; stroke:none;">
<circle cx="177.4952" cy="100.1776" r="0.8500" /> 
</g>
<g style="fill:#02FFEE; fill-opacity:0.4000; stroke:none;">
<circle cx="143.7132" cy="128.9050" r="0.8500" /> 
</g>
<g style="fill:#02FFEE; fill-opacity:0.4000; stroke:none;">
<circle cx="158.2500" cy="103.0200" r="1.0000" /> 
</g>
<g style="fill:#02FFEE; fill-opacity:0.4000; stroke:none;">
<circle cx="155.7100" cy="103.0200" r="1.0000" /> 
</g>
<g style="fill:#02FFEE; fill-opacity:0.4000; stroke:none;">
<circle cx="153.1700" cy="103.0200" r="1.0000" /> 
</g>
<g style="fill:#02FFEE; fill-opacity:0.4000; stroke:none;">
<circle cx="150.6300" cy="103.0200" r="1.0000" /> 
</g>
<g style="fill:#02FFEE; fill-opacity:0.4000; stroke:none;">
<circle cx="148.0900" cy="103.0200" r="1.0000" /> 
<path style="fill:#02FFEE; fill-opacity:0.4000; stroke:none;fill-rule:evenodd;"
d="M 148.9400,98.4480
148.9400,99.9720
147.2400,99.9720
147.2400,98.4480
Z" /> 
</g>
<g style="fill:#02FFEE; fill-opacity:0.4000; stroke:none;">
<circle cx="150.6300" cy="99.2100" r="0.8500" /> 
</g>
<g style="fill:#02FFEE; fill-opacity:0.4000; stroke:none;">
<circle cx="153.1700" cy="99.2100" r="0.8500" /> 
</g>
<g style="fill:#02FFEE; fill-opacity:0.4000; stroke:none;">
<circle cx="155.7100" cy="99.2100" r="0.8500" /> 
</g>
<g style="fill:#02FFEE; fill-opacity:0.4000; stroke:none;">
<circle cx="158.2500" cy="99.2100" r="0.8500" /> 
<path style="fill:#02FFEE; fill-opacity:0.4000; stroke:none;fill-rule:evenodd;"
d="M 170.2800,122.4700
170.3757,122.4890
170.4568,122.5432
170.5110,122.6243
170.5300,122.7200
170.5300,123.3700
170.5110,123.4657
170.4568,123.5468
170.3757,123.6010
170.2800,123.6200
168.9800,123.6200
168.8843,123.6010
168.8032,123.5468
168.7490,123.4657
168.7300,123.3700
168.7300,122.7200
168.7490,122.6243
168.8032,122.5432
168.8843,122.4890
168.9800,122.4700
Z" /> 
<path style="fill:#02FFEE; fill-opacity:0.4000; stroke:none;fill-rule:evenodd;"
d="M 170.2800,125.4200
170.3757,125.4390
170.4568,125.4932
170.5110,125.5743
170.5300,125.6700
170.5300,126.3200
170.5110,126.4157
170.4568,126.4968
170.3757,126.5510
170.2800,126.5700
168.9800,126.5700
168.8843,126.5510
168.8032,126.4968
168.7490,126.4157
168.7300,126.3200
168.7300,125.6700
168.7490,125.5743
168.8032,125.4932
168.8843,125.4390
168.9800,125.4200
Z" /> 
</g>
<g style="fill:none; 
stroke:#E8B2A7; stroke-width:0.3000; stroke-opacity:1; 
stroke-linecap:round; stroke-linejoin:round;">
<text x="165.4810" y="134.3660"
transform="scale(-1 1) translate(-330.962000 0)"
textLength="31.3571" font-size="2.6667" lengthAdjust="spacingAndGlyphs"
text-anchor="start" opacity="0" stroke-opacity="0">Michael D. 12/2024</text>
<g class="stroked-text"><desc>Michael D. 12/2024</desc>
<path d="M164.8074 134.1056
L164.8074 132.1056
" />
<path d="M164.8074 132.1056
L164.1408 133.5342
" />
<path d="M164.1408 133.5342
L163.4741 132.1056
" />
<path d="M163.4741 132.1056
L163.4741 134.1056
" />
<path d="M162.5217 134.1056
L162.5217 132.7723
" />
<path d="M162.5217 132.1056
L162.6170 132.2009
" />
<path d="M162.6170 132.2009
L162.5217 132.2961
" />
<path d="M162.5217 132.2961
L162.4265 132.2009
" />
<path d="M162.4265 132.2009
L162.5217 132.1056
" />
<path d="M162.5217 132.1056
L162.5217 132.2961
" />
<path d="M160.7122 134.0104
L160.9027 134.1056
" />
<path d="M160.9027 134.1056
L161.2836 134.1056
" />
<path d="M161.2836 134.1056
L161.4741 134.0104
" />
<path d="M161.4741 134.0104
L161.5693 133.9152
" />
<path d="M161.5693 133.9152
L161.6646 133.7247
" />
<path d="M161.6646 133.7247
L161.6646 133.1533
" />
<path d="M161.6646 133.1533
L161.5693 132.9628
" />
<path d="M161.5693 132.9628
L161.4741 132.8675
" />
<path d="M161.4741 132.8675
L161.2836 132.7723
" />
<path d="M161.2836 132.7723
L160.9027 132.7723
" />
<path d="M160.9027 132.7723
L160.7122 132.8675
" />
<path d="M159.8551 134.1056
L159.8551 132.1056
" />
<path d="M158.9979 134.1056
L158.9979 133.0580
" />
<path d="M158.9979 133.0580
L159.0932 132.8675
" />
<path d="M159.0932 132.8675
L159.2836 132.7723
" />
<path d="M159.2836 132.7723
L159.5693 132.7723
" />
<path d="M159.5693 132.7723
L159.7598 132.8675
" />
<path d="M159.7598 132.8675
L159.8551 132.9628
" />
<path d="M157.1884 134.1056
L157.1884 133.0580
" />
<path d="M157.1884 133.0580
L157.2836 132.8675
" />
<path d="M157.2836 132.8675
L157.4741 132.7723
" />
<path d="M157.4741 132.7723
L157.8551 132.7723
" />
<path d="M157.8551 132.7723
L158.0455 132.8675
" />
<path d="M157.1884 134.0104
L157.3789 134.1056
" />
<path d="M157.3789 134.1056
L157.8551 134.1056
" />
<path d="M157.8551 134.1056
L158.0455 134.0104
" />
<path d="M158.0455 134.0104
L158.1408 133.8199
" />
<path d="M158.1408 133.8199
L158.1408 133.6294
" />
<path d="M158.1408 133.6294
L158.0455 133.4390
" />
<path d="M158.0455 133.4390
L157.8551 133.3437
" />
<path d="M157.8551 133.3437
L157.3789 133.3437
" />
<path d="M157.3789 133.3437
L157.1884 133.2485
" />
<path d="M155.4741 134.0104
L155.6646 134.1056
" />
<path d="M155.6646 134.1056
L156.0455 134.1056
" />
<path d="M156.0455 134.1056
L156.2360 134.0104
" />
<path d="M156.2360 134.0104
L156.3312 133.8199
" />
<path d="M156.3312 133.8199
L156.3312 133.0580
" />
<path d="M156.3312 133.0580
L156.2360 132.8675
" />
<path d="M156.2360 132.8675
L156.0455 132.7723
" />
<path d="M156.0455 132.7723
L155.6646 132.7723
" />
<path d="M155.6646 132.7723
L155.4741 132.8675
" />
<path d="M155.4741 132.8675
L155.3789 133.0580
" />
<path d="M155.3789 133.0580
L155.3789 133.2485
" />
<path d="M155.3789 133.2485
L156.3312 133.4390
" />
<path d="M154.2360 134.1056
L154.4265 134.0104
" />
<path d="M154.4265 134.0104
L154.5217 133.8199
" />
<path d="M154.5217 133.8199
L154.5217 132.1056
" />
<path d="M151.9503 134.1056
L151.9503 132.1056
" />
<path d="M151.9503 132.1056
L151.4741 132.1056
" />
<path d="M151.4741 132.1056
L151.1884 132.2009
" />
<path d="M151.1884 132.2009
L150.9979 132.3914
" />
<path d="M150.9979 132.3914
L150.9027 132.5818
" />
<path d="M150.9027 132.5818
L150.8074 132.9628
" />
<path d="M150.8074 132.9628
L150.8074 133.2485
" />
<path d="M150.8074 133.2485
L150.9027 133.6294
" />
<path d="M150.9027 133.6294
L150.9979 133.8199
" />
<path d="M150.9979 133.8199
L151.1884 134.0104
" />
<path d="M151.1884 134.0104
L151.4741 134.1056
" />
<path d="M151.4741 134.1056
L151.9503 134.1056
" />
<path d="M149.9503 133.9152
L149.8551 134.0104
" />
<path d="M149.8551 134.0104
L149.9503 134.1056
" />
<path d="M149.9503 134.1056
L150.0455 134.0104
" />
<path d="M150.0455 134.0104
L149.9503 133.9152
" />
<path d="M149.9503 133.9152
L149.9503 134.1056
" />
<path d="M146.4265 134.1056
L147.5693 134.1056
" />
<path d="M146.9979 134.1056
L146.9979 132.1056
" />
<path d="M146.9979 132.1056
L147.1884 132.3914
" />
<path d="M147.1884 132.3914
L147.3789 132.5818
" />
<path d="M147.3789 132.5818
L147.5693 132.6771
" />
<path d="M145.6646 132.2961
L145.5693 132.2009
" />
<path d="M145.5693 132.2009
L145.3789 132.1056
" />
<path d="M145.3789 132.1056
L144.9027 132.1056
" />
<path d="M144.9027 132.1056
L144.7122 132.2009
" />
<path d="M144.7122 132.2009
L144.6170 132.2961
" />
<path d="M144.6170 132.2961
L144.5217 132.4866
" />
<path d="M144.5217 132.4866
L144.5217 132.6771
" />
<path d="M144.5217 132.6771
L144.6170 132.9628
" />
<path d="M144.6170 132.9628
L145.7598 134.1056
" />
<path d="M145.7598 134.1056
L144.5217 134.1056
" />
<path d="M142.2360 132.0104
L143.9503 134.5818
" />
<path d="M141.6646 132.2961
L141.5693 132.2009
" />
<path d="M141.5693 132.2009
L141.3789 132.1056
" />
<path d="M141.3789 132.1056
L140.9027 132.1056
" />
<path d="M140.9027 132.1056
L140.7122 132.2009
" />
<path d="M140.7122 132.2009
L140.6170 132.2961
" />
<path d="M140.6170 132.2961
L140.5217 132.4866
" />
<path d="M140.5217 132.4866
L140.5217 132.6771
" />
<path d="M140.5217 132.6771
L140.6170 132.9628
" />
<path d="M140.6170 132.9628
L141.7598 134.1056
" />
<path d="M141.7598 134.1056
L140.5217 134.1056
" />
<path d="M139.2836 132.1056
L139.0932 132.1056
" />
<path d="M139.0932 132.1056
L138.9027 132.2009
" />
<path d="M138.9027 132.2009
L138.8074 132.2961
" />
<path d="M138.8074 132.2961
L138.7122 132.4866
" />
<path d="M138.7122 132.4866
L138.6170 132.8675
" />
<path d="M138.6170 132.8675
L138.6170 133.3437
" />
<path d="M138.6170 133.3437
L138.7122 133.7247
" />
<path d="M138.7122 133.7247
L138.8074 133.9152
" />
<path d="M138.8074 133.9152
L138.9027 134.0104
" />
<path d="M138.9027 134.0104
L139.0932 134.1056
" />
<path d="M139.0932 134.1056
L139.2836 134.1056
" />
<path d="M139.2836 134.1056
L139.4741 134.0104
" />
<path d="M139.4741 134.0104
L139.5693 133.9152
" />
<path d="M139.5693 133.9152
L139.6646 133.7247
" />
<path d="M139.6646 133.7247
L139.7598 133.3437
" />
<path d="M139.7598 133.3437
L139.7598 132.8675
" />
<path d="M139.7598 132.8675
L139.6646 132.4866
" />
<path d="M139.6646 132.4866
L139.5693 132.2961
" />
<path d="M139.5693 132.2961
L139.4741 132.2009
" />
<path d="M139.4741 132.2009
L139.2836 132.1056
" />
<path d="M137.8551 132.2961
L137.7598 132.2009
" />
<path d="M137.7598 132.2009
L137.5693 132.1056
" />
<path d="M137.5693 132.1056
L137.0932 132.1056
" />
<path d="M137.0932 132.1056
L136.9027 132.2009
" />
<path d="M136.9027 132.2009
L136.8074 132.2961
" />
<path d="M136.8074 132.2961
L136.7122 132.4866
" />
<path d="M136.7122 132.4866
L136.7122 132.6771
" />
<path d="M136.7122 132.6771
L136.8074 132.9628
" />
<path d="M136.8074 132.9628
L137.9503 134.1056
" />
<path d="M137.9503 134.1056
L136.7122 134.1056
" />
<path d="M134.9979 132.7723
L134.9979 134.1056
" />
<path d="M135.4741 132.0104
L135.9503 133.4390
" />
<path d="M135.9503 133.4390
L134.7122 133.4390
" />
</g></g>
<g style="fill:none; 
stroke:#E8B2A7; stroke-width:0.1500; stroke-opacity:1; 
stroke-linecap:round; stroke-linejoin:round;">
<text x="169.6720" y="133.8500"
transform="scale(-1 1) translate(-339.344000 0)"
textLength="2.2024" font-size="1.3333" lengthAdjust="spacingAndGlyphs"
text-anchor="middle" opacity="0" stroke-opacity="0">C2</text>
<g class="stroked-text"><desc>C2</desc>
<path d="M169.8387 133.7096
L169.8863 133.7572
" />
<path d="M169.8863 133.7572
L170.0291 133.8048
" />
<path d="M170.0291 133.8048
L170.1244 133.8048
" />
<path d="M170.1244 133.8048
L170.2672 133.7572
" />
<path d="M170.2672 133.7572
L170.3625 133.6620
" />
<path d="M170.3625 133.6620
L170.4101 133.5667
" />
<path d="M170.4101 133.5667
L170.4577 133.3762
" />
<path d="M170.4577 133.3762
L170.4577 133.2334
" />
<path d="M170.4577 133.2334
L170.4101 133.0429
" />
<path d="M170.4101 133.0429
L170.3625 132.9477
" />
<path d="M170.3625 132.9477
L170.2672 132.8524
" />
<path d="M170.2672 132.8524
L170.1244 132.8048
" />
<path d="M170.1244 132.8048
L170.0291 132.8048
" />
<path d="M170.0291 132.8048
L169.8863 132.8524
" />
<path d="M169.8863 132.8524
L169.8387 132.9001
" />
<path d="M169.4577 132.9001
L169.4101 132.8524
" />
<path d="M169.4101 132.8524
L169.3149 132.8048
" />
<path d="M169.3149 132.8048
L169.0768 132.8048
" />
<path d="M169.0768 132.8048
L168.9815 132.8524
" />
<path d="M168.9815 132.8524
L168.9339 132.9001
" />
<path d="M168.9339 132.9001
L168.8863 132.9953
" />
<path d="M168.8863 132.9953
L168.8863 133.0905
" />
<path d="M168.8863 133.0905
L168.9339 133.2334
" />
<path d="M168.9339 133.2334
L169.5053 133.8048
" />
<path d="M169.5053 133.8048
L168.8863 133.8048
" />
</g><path style="fill:#E8B2A7; fill-opacity:1.0000; 
stroke:#E8B2A7; stroke-width:0.0100; stroke-opacity:1; 
stroke-linecap:round; stroke-linejoin:round;fill-rule:evenodd;"
d="M 155.6223,93.1818
155.7050,93.2090
155.7801,93.2544
155.8520,93.3202
155.8905,93.3645
155.9300,93.4229
155.9551,93.4835
155.9686,93.5528
155.9726,93.6372
155.9724,93.6832
155.9702,93.7244
155.9646,93.7565
155.9543,93.7871
155.9378,93.8234
155.9239,93.8507
155.8654,93.9364
155.7933,94.0056
155.7096,94.0567
155.6162,94.0882
155.5831,94.0952
155.5427,94.1020
155.5097,94.1039
155.4754,94.1009
155.4309,94.0934
155.3796,94.0809
155.2891,94.0430
155.2100,93.9888
155.1442,93.9207
155.0935,93.8414
155.0598,93.7536
155.0450,93.6597
155.0508,93.5625
155.0771,93.4662
155.1221,93.3774
155.1831,93.3024
155.2579,93.2426
155.3445,93.1997
155.4407,93.1755
155.5446,93.1715
Z" /> 
<path style="fill:#E8B2A7; fill-opacity:1.0000; 
stroke:#E8B2A7; stroke-width:0.0100; stroke-opacity:1; 
stroke-linecap:round; stroke-linejoin:round;fill-rule:evenodd;"
d="M 153.1564,94.1110
153.2520,94.1285
153.4163,94.1735
153.5703,94.2366
153.7162,94.3189
153.8562,94.4214
153.9923,94.5453
154.0362,94.5906
154.1485,94.7228
154.2417,94.8608
154.3184,95.0087
154.3813,95.1707
154.3851,95.1823
154.4352,95.3683
154.4686,95.5645
154.4853,95.7665
154.4852,95.9703
154.4685,96.1715
154.4350,96.3661
154.3847,96.5497
154.3409,96.6670
154.2630,96.8299
154.1695,96.9838
154.0625,97.1256
153.9442,97.2522
153.8168,97.3604
153.7393,97.4131
153.6124,97.4827
153.4749,97.5414
153.3334,97.5865
153.1944,97.6154
153.1803,97.6170
153.1369,97.6204
153.0794,97.6232
153.0138,97.6253
152.9459,97.6264
152.8191,97.6241
152.6714,97.6111
152.5335,97.5861
152.3997,97.5483
152.3763,97.5398
152.3283,97.5203
152.2718,97.4954
152.2101,97.4667
152.1463,97.4357
152.0836,97.4043
152.0254,97.3739
151.9748,97.3462
151.9351,97.3229
151.9096,97.3057
151.9013,97.2960
151.9028,97.2929
151.9139,97.2730
151.9348,97.2374
151.9640,97.1884
151.9999,97.1286
152.0411,97.0604
152.0862,96.9862
152.2675,96.6889
152.3140,96.7335
152.4054,96.8118
152.5190,96.8864
152.6368,96.9404
152.7573,96.9732
152.8788,96.9841
152.9203,96.9828
153.0378,96.9646
153.1478,96.9256
153.2491,96.8666
153.3406,96.7885
153.4211,96.6920
153.4893,96.5779
153.5056,96.5437
153.5517,96.4202
153.5868,96.2819
153.6109,96.1325
153.6239,95.9759
153.6256,95.8159
153.6161,95.6563
153.5953,95.5008
153.5630,95.3533
153.5191,95.2176
153.4817,95.1310
153.4169,95.0176
153.3415,94.9240
153.2551,94.8499
153.1575,94.7950
153.0483,94.7591
152.9271,94.7420
152.8577,94.7408
152.7349,94.7551
152.6194,94.7902
152.5127,94.8456
152.4162,94.9209
152.4004,94.9354
152.3698,94.9619
152.3475,94.9791
152.3374,94.9837
152.3354,94.9815
152.3209,94.9627
152.2971,94.9293
152.2657,94.8843
152.2287,94.8304
152.1878,94.7702
152.1449,94.7067
152.1019,94.6424
152.0606,94.5803
152.0228,94.5229
151.9904,94.4732
151.9653,94.4338
151.9492,94.4075
151.9441,94.3971
151.9487,94.3929
151.9680,94.3879
151.9775,94.3853
152.0055,94.3742
152.0471,94.3557
152.0987,94.3317
152.1564,94.3036
152.1677,94.2981
152.3454,94.2188
152.5152,94.1593
152.6791,94.1192
152.8393,94.0980
152.9977,94.0954
Z" /> 
<path style="fill:#E8B2A7; fill-opacity:1.0000; 
stroke:#E8B2A7; stroke-width:0.0100; stroke-opacity:1; 
stroke-linecap:round; stroke-linejoin:round;fill-rule:evenodd;"
d="M 149.3537,96.3916
149.3530,96.4691
149.3444,96.6205
149.3255,96.7572
149.2955,96.8832
149.2535,97.0026
149.1987,97.1193
149.1319,97.2301
149.0411,97.3437
148.9374,97.4391
148.8216,97.5160
148.6943,97.5737
148.5562,97.6118
148.5185,97.6176
148.4394,97.6233
148.3513,97.6235
148.2619,97.6185
148.1791,97.6085
148.1106,97.5939
148.0797,97.5843
148.0024,97.5541
147.9254,97.5166
147.8559,97.4756
147.8013,97.4348
147.7786,97.4154
147.7559,97.3976
147.7445,97.3907
147.7432,97.3924
147.7404,97.4101
147.7385,97.4433
147.7377,97.4867
147.7377,97.5826
146.8796,97.5826
146.9139,97.5219
146.9191,97.5128
146.9274,97.4982
146.9350,97.4841
146.9418,97.4695
146.9479,97.4532
146.9534,97.4341
146.9582,97.4112
146.9624,97.3834
146.9661,97.3494
146.9692,97.3083
146.9719,97.2590
146.9742,97.2002
146.9760,97.1310
146.9775,97.0503
146.9787,96.9568
146.9795,96.8496
146.9802,96.7276
146.9806,96.5895
146.9809,96.4344
146.9811,96.2611
146.9811,96.0685
146.9812,95.8556
146.9812,95.7195
147.7829,95.7195
147.7829,96.8697
147.8535,96.9160
147.8941,96.9397
147.9482,96.9656
147.9974,96.9838
148.0609,96.9995
148.1570,97.0105
148.2416,97.0023
148.3149,96.9747
148.3773,96.9276
148.4292,96.8606
148.4709,96.7736
148.5027,96.6663
148.5052,96.6539
148.5137,96.5927
148.5194,96.5156
148.5223,96.4279
148.5225,96.3349
148.5200,96.2417
148.5150,96.1535
148.5073,96.0757
148.4971,96.0135
148.4959,96.0076
148.4668,95.8971
148.4323,95.8065
148.3912,95.7339
148.3422,95.6771
148.2843,95.6341
148.2523,95.6186
148.1795,95.5997
148.0981,95.5964
148.0130,95.6083
147.9288,95.6350
147.8503,95.6759
147.7829,95.7195
146.9812,95.7195
146.9812,95.6212
146.9814,93.9363
147.8867,93.9363
147.8623,93.9730
147.8560,93.9826
147.8299,94.0289
147.8122,94.0760
147.8006,94.1312
147.7930,94.2016
147.7925,94.2086
147.7908,94.2466
147.7891,94.3005
147.7877,94.3676
147.7864,94.4452
147.7854,94.5305
147.7845,94.6207
147.7839,94.7130
147.7835,94.8049
147.7834,94.8934
147.7835,94.9758
147.7839,95.0494
147.7846,95.1115
147.7855,95.1592
147.7868,95.1898
147.7884,95.2007
147.7967,95.1963
147.8183,95.1813
147.8477,95.1594
147.8966,95.1252
147.9848,95.0787
148.0836,95.0450
148.1962,95.0232
148.3259,95.0122
148.4184,95.0112
148.5397,95.0210
148.6498,95.0451
148.7531,95.0847
148.8540,95.1409
148.8992,95.1718
149.0046,95.2631
149.0962,95.3720
149.1740,95.4987
149.2379,95.6428
149.2879,95.8043
149.3239,95.9830
149.3458,96.1788
149.3516,96.3349
Z" /> 
<path style="fill:#E8B2A7; fill-opacity:1.0000; 
stroke:#E8B2A7; stroke-width:0.0100; stroke-opacity:1; 
stroke-linecap:round; stroke-linejoin:round;fill-rule:evenodd;"
d="M 151.8955,96.7924
151.8950,96.8263
151.8913,96.9011
151.8837,96.9633
151.8714,97.0199
151.8270,97.1460
151.7641,97.2606
151.6839,97.3615
151.5874,97.4479
151.4755,97.5189
151.3491,97.5737
151.2091,97.6116
151.1728,97.6173
151.0939,97.6233
151.0055,97.6236
150.9158,97.6186
150.8324,97.6086
150.7633,97.5939
150.6769,97.5637
150.5670,97.5090
150.4697,97.4415
150.4076,97.3905
150.4043,97.4866
150.4010,97.5826
149.9781,97.5826
149.9672,97.5826
149.8728,97.5823
149.7860,97.5816
149.7095,97.5804
149.6457,97.5789
149.5971,97.5771
149.5661,97.5751
149.5553,97.5729
149.5553,97.5724
149.5623,97.5568
149.5781,97.5340
149.5824,97.5286
149.5935,97.5145
149.6030,97.5011
149.6112,97.4867
149.6180,97.4695
149.6238,97.4480
149.6286,97.4204
149.6324,97.3852
149.6355,97.3407
149.6380,97.2852
149.6400,97.2170
149.6416,97.1346
149.6429,97.0362
149.6441,96.9202
149.6453,96.7849
149.6463,96.6735
150.4471,96.6735
150.4471,96.8694
150.4917,96.9259
150.5045,96.9411
150.5513,96.9838
150.6120,97.0196
150.6226,97.0248
150.6614,97.0417
150.6964,97.0518
150.7364,97.0573
150.7902,97.0599
150.8083,97.0603
150.8837,97.0575
150.9444,97.0456
150.9962,97.0230
151.0444,96.9881
151.0495,96.9837
151.0980,96.9281
151.1262,96.8643
151.1354,96.7892
151.1282,96.7176
151.1035,96.6546
151.0589,96.5967
151.0040,96.5497
150.9316,96.5099
150.8450,96.4822
150.7424,96.4660
150.6216,96.4608
150.6127,96.4608
150.5574,96.4616
150.5104,96.4634
150.4767,96.4660
150.4607,96.4692
150.4566,96.4757
150.4523,96.4978
150.4493,96.5369
150.4476,96.5949
150.4471,96.6735
149.6463,96.6735
149.6467,96.6287
149.6479,96.4860
149.6493,96.3409
149.6509,96.2150
149.6526,96.1064
149.6547,96.0133
149.6574,95.9338
149.6606,95.8662
149.6646,95.8086
149.6694,95.7591
149.6753,95.7160
149.6823,95.6773
149.6906,95.6414
149.7003,95.6062
149.7115,95.5701
149.7243,95.5311
149.7398,95.4880
149.7827,95.3958
149.8364,95.3160
149.9053,95.2419
149.9829,95.1783
150.0875,95.1167
150.2069,95.0691
150.3422,95.0355
150.4941,95.0155
150.6636,95.0088
150.7216,95.0092
150.7871,95.0113
150.8484,95.0156
150.9098,95.0230
150.9756,95.0339
151.0502,95.0491
151.1379,95.0691
151.2429,95.0947
151.2715,95.1018
151.3468,95.1197
151.4171,95.1358
151.4783,95.1490
151.5261,95.1584
151.5562,95.1632
151.5845,95.1668
151.6108,95.1721
151.6208,95.1769
151.6176,95.1857
151.6069,95.2130
151.5896,95.2558
151.5668,95.3114
151.5398,95.3767
151.5098,95.4490
151.5032,95.4648
151.4646,95.5554
151.4335,95.6252
151.4096,95.6743
151.3929,95.7033
151.3832,95.7124
151.3755,95.7103
151.3491,95.7007
151.3107,95.6851
151.2655,95.6658
151.1710,95.6278
151.0342,95.5867
150.8930,95.5615
150.8550,95.5575
150.7518,95.5554
150.6646,95.5686
150.5928,95.5977
150.5354,95.6434
150.4916,95.7063
150.4605,95.7870
150.4412,95.8862
150.4337,95.9452
150.5956,95.9384
150.7222,95.9368
150.8736,95.9431
151.0221,95.9577
151.1583,95.9798
151.2229,95.9948
151.3552,96.0377
151.4775,96.0943
151.5874,96.1630
151.6826,96.2421
151.7607,96.3301
151.8193,96.4254
151.8433,96.4778
151.8689,96.5485
151.8852,96.6197
151.8935,96.6987
151.8954,96.7892
Z" /> 
<path style="fill:#E8B2A7; fill-opacity:1.0000; 
stroke:#E8B2A7; stroke-width:0.0100; stroke-opacity:1; 
stroke-linecap:round; stroke-linejoin:round;fill-rule:evenodd;"
d="M 159.4433,94.2607
159.4438,94.3919
159.4441,94.5392
159.4442,94.7033
159.4443,94.8853
159.4444,95.0861
159.4444,95.3067
159.4443,95.5479
159.4443,95.8108
159.4443,95.8530
159.4443,96.1136
159.4444,96.3527
159.4444,96.5713
159.4444,96.7702
159.4443,96.9505
159.4441,97.1130
159.4438,97.2586
159.4433,97.3884
159.4426,97.5032
159.4417,97.6040
159.4405,97.6917
159.4391,97.7672
159.4373,97.8315
159.4352,97.8856
159.4328,97.9303
159.4299,97.9666
159.4266,97.9954
159.4229,98.0177
159.4187,98.0343
159.4139,98.0463
159.4086,98.0546
159.4028,98.0600
159.3963,98.0636
159.3892,98.0662
159.3814,98.0688
159.3730,98.0724
159.3686,98.0741
159.3601,98.0760
159.3474,98.0778
159.3296,98.0795
159.3057,98.0810
159.2750,98.0823
159.2363,98.0835
159.1889,98.0846
159.1317,98.0856
159.0640,98.0864
158.9847,98.0872
158.8929,98.0878
158.7877,98.0884
158.6683,98.0889
158.5336,98.0892
158.3828,98.0896
158.2149,98.0898
158.0290,98.0900
157.8243,98.0902
157.5997,98.0903
157.3544,98.0903
157.0874,98.0904
157.0490,98.0904
156.7836,98.0904
156.5397,98.0905
156.3165,98.0905
156.1129,98.0905
155.9281,98.0904
155.7611,98.0902
155.6110,98.0899
155.4769,98.0894
155.3579,98.0888
155.2530,98.0880
155.1613,98.0870
155.0819,98.0858
155.0139,98.0843
154.9564,98.0825
154.9084,98.0804
154.8689,98.0780
154.8372,98.0752
154.8122,98.0721
154.7931,98.0685
154.7788,98.0645
154.7686,98.0601
154.7614,98.0552
154.7563,98.0498
154.7525,98.0439
154.7490,98.0375
154.7448,98.0305
154.7437,98.0286
154.7415,98.0231
154.7395,98.0148
154.7376,98.0027
154.7360,97.9860
154.7344,97.9636
154.7331,97.9347
154.7319,97.8982
154.7308,97.8533
154.7298,97.7990
154.7290,97.7343
154.7283,97.6584
154.7277,97.5703
154.7276,97.5614
155.0191,97.5614
155.0230,97.5627
155.0462,97.5647
155.0886,97.5666
155.1478,97.5682
155.2218,97.5695
155.3083,97.5705
155.4051,97.5711
155.5101,97.5713
156.2083,97.5713
157.3628,97.5713
157.3622,97.4951
157.3633,97.4531
157.3690,97.4173
157.3816,97.3797
157.4033,97.3315
157.4065,97.3248
157.4319,97.2753
157.4587,97.2273
157.4816,97.1904
157.4862,97.1838
157.5082,97.1525
157.5404,97.1076
157.5812,97.0511
157.6289,96.9851
157.6822,96.9119
157.7394,96.8335
157.7989,96.7520
157.8591,96.6696
157.9186,96.5885
157.9758,96.5107
158.0291,96.4384
158.0769,96.3737
158.1177,96.3187
158.1499,96.2756
158.1719,96.2465
158.1823,96.2336
158.1867,96.2293
158.1909,96.2272
158.1943,96.2299
158.1970,96.2389
158.1990,96.2562
158.2004,96.2836
158.2013,96.3227
158.2017,96.3755
158.2016,96.4436
158.2012,96.5290
158.2004,96.6334
158.1994,96.7585
158.1990,96.8032
158.1979,96.9243
158.1967,97.0256
158.1953,97.1092
158.1938,97.1771
158.1919,97.2315
158.1897,97.2745
158.1869,97.3080
158.1837,97.3343
158.1798,97.3554
158.1752,97.3733
158.1669,97.3997
158.1433,97.4617
158.1174,97.5145
158.0922,97.5516
158.0910,97.5530
158.0889,97.5574
158.0910,97.5610
158.0993,97.5639
158.1156,97.5662
158.1417,97.5680
158.1795,97.5693
158.2307,97.5702
158.2971,97.5708
158.3807,97.5712
158.4832,97.5713
158.6064,97.5713
159.1380,97.5713
159.0992,97.5137
159.0931,97.5048
159.0827,97.4900
159.0733,97.4764
159.0649,97.4627
159.0574,97.4478
159.0509,97.4306
159.0451,97.4098
159.0402,97.3842
159.0360,97.3527
159.0324,97.3140
159.0294,97.2670
159.0270,97.2105
159.0251,97.1433
159.0237,97.0643
159.0226,96.9721
159.0218,96.8657
159.0213,96.7438
159.0211,96.6053
159.0209,96.4489
159.0209,96.2736
159.0210,96.0780
159.0210,95.8611
159.0210,95.7385
159.0209,95.5334
159.0209,95.3491
159.0210,95.1843
159.0212,95.0379
159.0216,94.9086
159.0222,94.7954
159.0231,94.6969
159.0244,94.6121
159.0262,94.5397
159.0284,94.4785
159.0311,94.4274
159.0344,94.3852
159.0384,94.3507
159.0430,94.3226
159.0484,94.2999
159.0547,94.2813
159.0618,94.2656
159.0698,94.2517
159.0789,94.2384
159.0889,94.2244
159.1001,94.2086
159.1399,94.1508
158.0800,94.1508
158.1180,94.2139
158.1327,94.2389
158.1472,94.2665
158.1593,94.2946
158.1692,94.3255
158.1772,94.3613
158.1835,94.4042
158.1883,94.4565
158.1919,94.5204
158.1946,94.5980
158.1966,94.6915
158.1981,94.8033
158.1994,94.9354
158.2003,95.0554
158.2007,95.1720
158.2005,95.2675
158.1996,95.3415
158.1980,95.3938
158.1958,95.4241
158.1929,95.4321
158.1899,95.4288
158.1717,95.4073
158.1420,95.3708
158.1023,95.3214
158.0545,95.2611
158.0000,95.1923
157.9407,95.1169
157.8782,95.0371
157.8141,94.9552
157.7502,94.8731
157.6880,94.7931
157.6294,94.7173
157.5758,94.6479
157.5291,94.5870
157.4909,94.5366
157.4629,94.4991
157.4466,94.4764
157.4013,94.4042
157.3614,94.3244
157.3398,94.2561
157.3365,94.1988
157.3418,94.1508
156.2101,94.1511
156.2496,94.1817
156.2589,94.1890
156.3219,94.2434
156.3907,94.3112
156.4673,94.3945
156.5536,94.4951
156.5708,94.5158
156.6115,94.5653
156.6613,94.6263
156.7187,94.6968
156.7823,94.7754
156.8508,94.8601
156.9228,94.9495
156.9970,95.0417
157.0122,95.0606
157.0719,95.1350
157.1464,95.2278
157.2188,95.3183
157.2880,95.4049
157.3525,95.4859
157.4110,95.5594
157.4622,95.6240
157.5045,95.6778
157.5368,95.7191
157.5576,95.7463
157.5656,95.7576
157.5638,95.7617
157.5509,95.7823
157.5266,95.8185
157.4919,95.8688
157.4482,95.9314
157.3965,96.0049
157.3380,96.0875
157.2739,96.1776
157.2053,96.2736
157.1335,96.3738
157.0596,96.4767
156.9848,96.5806
156.9102,96.6838
156.8371,96.7848
156.7665,96.8819
156.6997,96.9735
156.6378,97.0579
156.5821,97.1336
156.5336,97.1989
156.4935,97.2521
156.4631,97.2916
156.4426,97.3170
156.3966,97.3712
156.3463,97.4277
156.2995,97.4776
156.2083,97.5713
155.5101,97.5713
155.5791,97.5713
155.6773,97.5710
155.7667,97.5706
155.8450,97.5699
155.9099,97.5692
155.9591,97.5683
155.9903,97.5673
156.0012,97.5662
156.0000,97.5630
155.9899,97.5454
155.9727,97.5191
155.9642,97.5066
155.9550,97.4926
155.9469,97.4783
155.9399,97.4624
155.9338,97.4435
155.9287,97.4203
155.9243,97.3912
155.9208,97.3550
155.9180,97.3101
155.9158,97.2553
155.9142,97.1890
155.9131,97.1100
155.9125,97.0168
155.9122,96.9080
155.9122,96.7822
155.9125,96.6381
155.9129,96.4741
155.9134,96.2890
155.9140,96.1102
155.9145,95.9513
155.9150,95.8123
155.9156,95.6916
155.9163,95.5880
155.9171,95.4999
155.9180,95.4262
155.9191,95.3652
155.9204,95.3157
155.9219,95.2762
155.9237,95.2454
155.9258,95.2219
155.9282,95.2042
155.9309,95.1910
155.9341,95.1809
155.9376,95.1724
155.9415,95.1643
155.9611,95.1275
155.9799,95.0973
155.9810,95.0958
155.9953,95.0736
156.0012,95.0606
156.0002,95.0602
155.9830,95.0587
155.9464,95.0574
155.8927,95.0563
155.8243,95.0553
155.7438,95.0545
155.6534,95.0541
155.5556,95.0539
155.1099,95.0539
155.1068,96.2308
155.1037,97.4076
155.0771,97.4666
155.0652,97.4911
155.0479,97.5214
155.0348,97.5385
155.0268,97.5465
155.0191,97.5614
154.7276,97.5614
154.7272,97.4690
154.7267,97.3536
154.7264,97.2231
154.7261,97.0767
154.7259,96.9133
154.7258,96.7320
154.7257,96.5320
154.7256,96.3122
154.7256,96.0717
154.7256,95.8095
154.7256,93.6180
154.7639,93.5796
154.7911,93.5558
154.8180,93.5440
154.8543,93.5412
154.9062,93.5412
154.9062,93.6291
154.9081,93.6790
154.9269,93.7895
154.9639,93.8909
155.0171,93.9821
155.0842,94.0616
155.1633,94.1281
155.2522,94.1803
155.3488,94.2169
155.4510,94.2364
155.5566,94.2375
155.6637,94.2189
155.7699,94.1793
155.8669,94.1215
155.9520,94.0466
156.0207,93.9586
156.0716,93.8596
156.1032,93.7519
156.1141,93.6380
156.1141,93.5412
157.7345,93.5412
157.9456,93.5412
158.1497,93.5413
158.3334,93.5414
158.4977,93.5415
158.6437,93.5418
158.7726,93.5421
158.8854,93.5425
158.9832,93.5430
159.0671,93.5437
159.1382,93.5445
159.1976,93.5454
159.2465,93.5465
159.2858,93.5478
159.3167,93.5493
159.3402,93.5509
159.3576,93.5528
159.3698,93.5549
159.3780,93.5572
159.3832,93.5598
159.3892,93.5634
159.3960,93.5669
159.4022,93.5704
159.4078,93.5749
159.4129,93.5811
159.4176,93.5902
159.4217,93.6031
159.4254,93.6206
159.4287,93.6438
159.4316,93.6735
159.4341,93.7107
159.4362,93.7564
159.4381,93.8115
159.4396,93.8769
159.4409,93.9536
159.4419,94.0425
159.4427,94.1446
159.4427,94.1508
Z" /> 
</g>
<g style="fill:none; 
stroke:#E8B2A7; stroke-width:0.1200; stroke-opacity:1; 
stroke-linecap:round; stroke-linejoin:round;">
<path d="M168.7200 125.2312
L168.7200 123.8087
" />
<path d="M170.5400 125.2312
L170.5400 123.8087
" />
<path style="fill:#E8B2A7; fill-opacity:1.0000; 
stroke:#E8B2A7; stroke-width:0.0100; stroke-opacity:1; 
stroke-linecap:round; stroke-linejoin:round;fill-rule:evenodd;"
d="M 177.9220,108.8088
174.4012,108.8088
174.4012,107.9412
177.9220,107.9412
Z" /> 
<path style="fill:#E8B2A7; fill-opacity:1.0000; 
stroke:#E8B2A7; stroke-width:0.0100; stroke-opacity:1; 
stroke-linecap:round; stroke-linejoin:round;fill-rule:evenodd;"
d="M 176.8909,103.2667
176.8914,103.2797
176.8978,103.3014
176.9161,103.3199
176.9518,103.3418
176.9832,103.3619
177.0309,103.4004
177.0741,103.4436
177.1072,103.4856
177.1244,103.5206
177.1287,103.5341
177.1365,103.5433
177.1391,103.5465
177.1607,103.5517
177.2003,103.5528
177.2681,103.5528
177.2681,103.6660
177.1086,103.6660
177.0937,103.8437
177.0917,103.8680
177.0870,103.9289
177.0837,103.9784
177.0821,104.0120
177.0824,104.0251
177.0867,104.0213
177.1065,104.0017
177.1407,103.9668
177.1875,103.9186
177.2454,103.8588
177.3124,103.7892
177.3869,103.7116
177.4672,103.6279
177.5515,103.5398
177.6381,103.4492
177.7253,103.3579
177.8113,103.2677
177.8945,103.1803
177.9730,103.0976
178.0452,103.0214
178.1093,102.9535
178.1636,102.8957
178.2606,102.7920
178.2610,102.8803
178.2615,102.9686
177.6609,103.6002
177.0604,104.2317
177.0484,104.3757
177.0004,104.9516
176.9919,105.0538
176.9813,105.1816
176.9716,105.3008
176.9629,105.4089
176.9554,105.5037
176.9492,105.5828
176.9446,105.6439
176.9417,105.6846
176.9408,105.7026
176.9433,105.7108
176.9545,105.7286
176.9758,105.7554
176.9860,105.7671
177.0082,105.7925
177.0530,105.8410
177.1113,105.9022
177.1841,105.9773
177.2727,106.0675
177.3781,106.1741
177.4475,106.2441
177.5442,106.3417
177.6405,106.4389
177.7336,106.5330
177.8206,106.6209
177.8986,106.6998
177.9646,106.7667
178.0158,106.8187
178.2165,107.0226
178.1801,107.0607
178.1715,107.0692
178.1461,107.0903
178.1287,107.0987
178.1151,107.0915
178.0897,107.0699
178.0594,107.0390
178.0409,107.0194
178.0064,106.9838
177.9577,106.9337
177.8965,106.8710
177.8244,106.7975
177.7433,106.7148
177.6548,106.6248
177.5606,106.5292
177.4626,106.4298
176.9202,105.8803
176.8981,106.1657
176.8932,106.2267
176.8862,106.3085
176.8799,106.3706
176.8737,106.4160
176.8674,106.4481
176.8603,106.4701
176.8520,106.4852
176.8404,106.5064
176.8308,106.5454
176.8280,106.6015
176.8280,106.6838
176.6017,106.6838
176.6017,106.5077
175.7561,106.5077
175.7072,106.5633
175.6938,106.5777
175.6214,106.6358
175.5395,106.6716
175.4509,106.6838
175.3727,106.6773
175.2842,106.6500
175.2085,106.6013
175.1937,106.5874
175.1569,106.5423
175.1245,106.4898
175.1013,106.4381
175.0919,106.3952
175.0917,106.3890
175.0903,106.3662
175.0868,106.3505
175.0794,106.3431
175.0664,106.3452
175.0462,106.3580
175.0171,106.3829
174.9775,106.4211
174.9255,106.4737
174.8596,106.5421
174.7780,106.6275
174.7346,106.6731
174.6620,106.7494
174.5933,106.8218
174.5312,106.8874
174.4784,106.9433
174.4376,106.9867
174.4115,107.0148
174.3401,107.0924
174.2519,107.0044
174.7977,106.4323
174.8321,106.3962
174.9545,106.2673
175.0597,106.1558
175.1477,106.0613
175.2191,105.9835
175.2696,105.9272
175.4762,105.9272
175.4779,105.9404
175.4782,105.9418
175.4917,105.9732
175.5187,105.9879
175.6021,106.0191
175.6764,106.0710
175.7348,106.1398
175.7749,106.2223
175.7940,106.3156
175.8004,106.3946
176.7498,106.3946
176.7565,106.3663
176.7576,106.3593
176.7613,106.3283
176.7662,106.2781
176.7722,106.2127
176.7787,106.1362
176.7854,106.0526
176.8077,105.7671
176.5068,105.4616
176.4516,105.4057
176.3841,105.3379
176.3235,105.2776
176.2720,105.2271
176.2317,105.1882
176.2047,105.1632
176.1932,105.1540
176.1854,105.1584
176.1624,105.1782
176.1277,105.2114
176.0845,105.2548
176.0358,105.3056
176.0231,105.3191
175.9662,105.3793
175.8984,105.4509
175.8248,105.5284
175.7505,105.6066
175.6806,105.6800
175.6764,105.6844
175.6114,105.7528
175.5618,105.8057
175.5257,105.8458
175.5010,105.8754
175.4859,105.8972
175.4783,105.9136
175.4762,105.9272
175.2696,105.9272
175.2741,105.9221
175.3130,105.8767
175.3362,105.8470
175.3439,105.8326
175.3439,105.8326
175.3428,105.8146
175.3397,105.7744
175.3349,105.7147
175.3284,105.6382
175.3207,105.5476
175.3119,105.4457
175.3023,105.3352
175.2921,105.2188
175.2816,105.0993
175.2709,104.9795
175.2604,104.8620
175.2503,104.7496
175.2409,104.6451
175.2323,104.5511
175.2248,104.4704
175.2187,104.4058
175.2142,104.3599
175.2115,104.3355
175.2061,104.2947
175.3353,104.2947
175.3369,104.3257
175.3405,104.3777
175.3460,104.4485
175.3531,104.5359
175.3616,104.6377
175.3713,104.7516
175.3822,104.8753
175.3939,105.0066
175.4031,105.1079
175.4146,105.2335
175.4253,105.3498
175.4351,105.4544
175.4438,105.5451
175.4511,105.6198
175.4567,105.6761
175.4606,105.7119
175.4625,105.7248
175.4682,105.7208
175.4890,105.7011
175.5229,105.6673
175.5674,105.6218
175.6203,105.5671
175.6792,105.5057
175.7419,105.4400
175.8058,105.3724
175.8689,105.3055
175.9286,105.2417
175.9827,105.1835
176.0289,105.1333
176.0647,105.0936
176.0880,105.0668
176.0948,105.0575
176.2766,105.0575
176.5523,105.3330
176.6197,105.4002
176.6833,105.4632
176.7325,105.5111
176.7692,105.5456
176.7952,105.5682
176.8123,105.5805
176.8223,105.5840
176.8269,105.5802
176.8281,105.5708
176.8289,105.5557
176.8316,105.5169
176.8361,105.4579
176.8422,105.3815
176.8496,105.2903
176.8581,105.1871
176.8676,105.0745
176.8778,104.9552
176.8867,104.8501
176.8961,104.7394
176.9044,104.6388
176.9117,104.5509
176.9175,104.4782
176.9218,104.4231
176.9243,104.3881
176.9248,104.3757
176.9244,104.3759
176.9125,104.3873
176.8861,104.4142
176.8476,104.4540
176.7992,104.5044
176.7432,104.5628
176.6820,104.6269
176.6180,104.6943
176.5534,104.7624
176.4905,104.8289
176.4318,104.8914
176.3794,104.9473
176.2785,105.0554
176.2766,105.0575
176.0948,105.0575
176.0963,105.0554
176.0881,105.0444
176.0645,105.0180
176.0275,104.9785
175.9793,104.9282
175.9223,104.8692
175.8585,104.8038
175.7902,104.7343
175.7196,104.6627
175.6489,104.5914
175.5802,104.5226
175.5159,104.4586
175.4580,104.4014
175.4088,104.3534
175.3705,104.3168
175.3453,104.2939
175.3354,104.2867
175.3353,104.2947
175.2061,104.2947
175.2044,104.2821
174.9293,104.2821
174.9290,104.0715
174.9288,103.9622
175.0299,103.9622
175.0299,104.1815
175.1116,104.1815
175.1189,104.1815
175.1599,104.1806
175.1823,104.1769
175.1915,104.1683
175.1934,104.1528
175.1853,104.1302
175.1577,104.0924
175.1116,104.0432
175.0299,103.9622
174.9288,103.9622
174.9286,103.8609
174.4769,103.4019
174.0252,102.9429
174.0246,102.8558
174.0240,102.7688
174.5658,103.3180
174.6181,103.3710
174.7268,103.4808
174.8197,103.5741
174.8981,103.6522
174.9630,103.7161
175.0159,103.7670
175.0577,103.8061
175.0899,103.8345
175.1134,103.8534
175.1296,103.8639
175.1396,103.8671
175.1566,103.8662
175.1661,103.8590
175.1677,103.8394
175.1638,103.8011
175.1611,103.7770
175.1573,103.7367
175.1558,103.7100
175.1550,103.7007
175.1477,103.6908
175.1277,103.6876
175.0887,103.6890
175.0787,103.6896
175.0389,103.6889
175.0106,103.6802
174.9906,103.6660
175.2739,103.6660
175.2780,103.7131
175.2799,103.7345
175.2859,103.7929
175.2918,103.8314
175.2987,103.8539
175.3077,103.8645
175.3199,103.8671
175.3308,103.8689
175.3380,103.8775
175.3421,103.8975
175.3439,103.9334
175.3442,103.9900
175.3442,104.1128
175.3844,104.1528
175.4826,104.2507
175.6209,104.3885
175.6209,104.2821
176.3753,104.2821
176.3753,104.5210
175.7568,104.5210
175.9666,104.7379
176.0068,104.7793
176.0623,104.8362
176.1106,104.8851
176.1490,104.9234
176.1750,104.9487
176.1861,104.9584
176.1904,104.9558
176.2102,104.9378
176.2445,104.9045
176.2912,104.8577
176.3487,104.7993
176.4151,104.7312
176.4886,104.6551
176.5673,104.5729
176.6463,104.4899
176.7239,104.4081
176.7867,104.3411
176.8365,104.2870
176.8747,104.2441
176.9028,104.2107
176.9224,104.1849
176.9351,104.1649
176.9423,104.1491
176.9457,104.1355
176.9466,104.1289
176.9505,104.0925
176.9555,104.0390
176.9609,103.9744
176.9663,103.9049
176.9682,103.8806
176.9735,103.8152
176.9785,103.7587
176.9829,103.7166
176.9859,103.6942
176.9920,103.6660
175.2739,103.6660
174.9906,103.6660
174.9826,103.6603
174.9778,103.6561
174.9385,103.6054
174.9229,103.5528
175.2637,103.5528
176.6782,103.5528
176.6762,103.5025
176.8909,103.5025
176.8909,103.5528
176.9479,103.5528
176.9650,103.5527
176.9903,103.5505
176.9976,103.5433
176.9919,103.5285
176.9903,103.5257
176.9714,103.5039
176.9442,103.4798
176.9170,103.4603
176.8984,103.4522
176.8967,103.4535
176.8925,103.4710
176.8909,103.5025
176.6762,103.5025
176.6745,103.4621
176.6708,103.3714
176.5954,103.3563
176.5576,103.3494
176.4944,103.3398
176.4351,103.3325
176.3502,103.3239
176.3502,103.4270
175.7718,103.4270
175.7718,103.3361
175.6995,103.3448
175.5890,103.3632
175.4778,103.3967
175.3859,103.4433
175.3115,103.5038
175.2637,103.5528
174.9229,103.5528
174.9212,103.5469
174.9265,103.4856
174.9550,103.4263
174.9577,103.4226
174.9958,103.3909
175.0455,103.3721
175.0990,103.3671
175.1487,103.3767
175.1869,103.4017
175.1998,103.4145
175.2124,103.4176
175.2305,103.4080
175.2609,103.3841
175.2703,103.3767
175.3424,103.3303
175.4279,103.2891
175.4978,103.2636
175.8724,103.2636
175.8724,103.3264
176.2496,103.3264
176.2496,103.2636
175.8724,103.2636
175.4978,103.2636
175.5188,103.2559
175.6070,103.2339
175.6847,103.2259
175.6930,103.2258
175.7389,103.2213
175.7641,103.2088
175.7718,103.1868
175.7727,103.1798
175.7776,103.1739
175.7896,103.1695
175.8117,103.1665
175.8468,103.1646
175.8981,103.1635
175.9685,103.1631
176.0610,103.1630
176.1477,103.1632
176.2213,103.1638
176.2753,103.1652
176.3123,103.1675
176.3352,103.1708
176.3469,103.1753
176.3502,103.1813
176.3609,103.1959
176.3911,103.2052
176.4026,103.2068
176.4419,103.2126
176.4942,103.2204
176.5514,103.2290
176.5829,103.2334
176.6291,103.2381
176.6616,103.2393
176.6750,103.2365
176.6773,103.2347
176.6984,103.2302
176.7364,103.2270
176.7850,103.2259
176.8909,103.2259
176.8909,103.2636
Z" /> 
</g>
<g style="fill:none; 
stroke:#D0D2CD; stroke-width:0.0500; stroke-opacity:1; 
stroke-linecap:round; stroke-linejoin:round;">
<path d="M180.1700 95.3300
L180.1700 132.7500
" />
<path d="M132.7100 92.7900 A2.5400 2.5400 0.0 0 0 130.1700 95.3300" />
<path d="M180.1700 95.3300 A2.5400 2.5400 0.0 0 0 177.6300 92.7900" />
<path d="M130.1700 132.7500
L130.1700 95.3300
" />
<path d="M130.1700 132.7500 A2.5400 2.5400 0.0 0 0 132.7100 135.2900" />
<path d="M132.7100 92.7900
L177.6300 92.7900
" />
<path d="M177.6300 135.2900 A2.5400 2.5400 0.0 0 0 180.1700 132.7500" />
<path d="M177.6300 135.2900
L132.7100 135.2900
" />
</g> 
</svg>
