<?xml version="1.0" standalone="no"?>
 <!DOCTYPE svg PUBLIC "-//W3C//DTD SVG 1.1//EN" 
 "http://www.w3.org/Graphics/SVG/1.1/DTD/svg11.dtd"> 
<svg
  xmlns:svg="http://www.w3.org/2000/svg"
  xmlns="http://www.w3.org/2000/svg"
  xmlns:xlink="http://www.w3.org/1999/xlink"
  version="1.1"
  width="50.0380mm" height="44.3992mm" viewBox="0.0000 0.0000 50.0380 44.3992">
<title>SVG Image created as 3458A Ref A9 Clone-F_Mask.svg date 2024/11/06 00:15:03 </title>
  <desc>Image generated by PCBNEW </desc>
<g style="fill:#000000; fill-opacity:1.0000;stroke:#000000; stroke-opacity:1.0000;
stroke-linecap:round; stroke-linejoin:round;"
 transform="translate(0 0) scale(1 1)">
<path style="fill:#840084; fill-opacity:1.0000; stroke:none;fill-rule:evenodd;"
d="M 26.5470,21.8982
26.5356,21.9557
26.5031,22.0043
26.4544,22.0368
26.3970,22.0482
24.7470,22.0482
24.6896,22.0368
24.6409,22.0043
24.6084,21.9557
24.5970,21.8982
24.5970,21.5983
24.6084,21.5408
24.6409,21.4922
24.6896,21.4597
24.7470,21.4482
26.3970,21.4482
26.4544,21.4597
26.5031,21.4922
26.5356,21.5408
26.5470,21.5983
Z" /> 
<path style="fill:#840084; fill-opacity:1.0000; stroke:none;fill-rule:evenodd;"
d="M 26.5470,20.6282
26.5356,20.6857
26.5031,20.7343
26.4544,20.7668
26.3970,20.7782
24.7470,20.7782
24.6896,20.7668
24.6409,20.7343
24.6084,20.6857
24.5970,20.6282
24.5970,20.3283
24.6084,20.2708
24.6409,20.2222
24.6896,20.1897
24.7470,20.1782
26.3970,20.1782
26.4544,20.1897
26.5031,20.2222
26.5356,20.2708
26.5470,20.3283
Z" /> 
<path style="fill:#840084; fill-opacity:1.0000; stroke:none;fill-rule:evenodd;"
d="M 26.5470,19.3582
26.5356,19.4157
26.5031,19.4643
26.4544,19.4968
26.3970,19.5083
24.7470,19.5083
24.6896,19.4968
24.6409,19.4643
24.6084,19.4157
24.5970,19.3582
24.5970,19.0582
24.6084,19.0008
24.6409,18.9522
24.6896,18.9197
24.7470,18.9082
26.3970,18.9082
26.4544,18.9197
26.5031,18.9522
26.5356,19.0008
26.5470,19.0582
Z" /> 
<path style="fill:#840084; fill-opacity:1.0000; stroke:none;fill-rule:evenodd;"
d="M 26.5470,18.0882
26.5356,18.1457
26.5031,18.1943
26.4544,18.2268
26.3970,18.2383
24.7470,18.2383
24.6896,18.2268
24.6409,18.1943
24.6084,18.1457
24.5970,18.0882
24.5970,17.7882
24.6084,17.7308
24.6409,17.6822
24.6896,17.6497
24.7470,17.6382
26.3970,17.6382
26.4544,17.6497
26.5031,17.6822
26.5356,17.7308
26.5470,17.7882
Z" /> 
<path style="fill:#840084; fill-opacity:1.0000; stroke:none;fill-rule:evenodd;"
d="M 21.5970,18.0882
21.5856,18.1457
21.5531,18.1943
21.5044,18.2268
21.4470,18.2383
19.7970,18.2383
19.7396,18.2268
19.6909,18.1943
19.6584,18.1457
19.6470,18.0882
19.6470,17.7882
19.6584,17.7308
19.6909,17.6822
19.7396,17.6497
19.7970,17.6382
21.4470,17.6382
21.5044,17.6497
21.5531,17.6822
21.5856,17.7308
21.5970,17.7882
Z" /> 
<path style="fill:#840084; fill-opacity:1.0000; stroke:none;fill-rule:evenodd;"
d="M 21.5970,19.3582
21.5856,19.4157
21.5531,19.4643
21.5044,19.4968
21.4470,19.5083
19.7970,19.5083
19.7396,19.4968
19.6909,19.4643
19.6584,19.4157
19.6470,19.3582
19.6470,19.0582
19.6584,19.0008
19.6909,18.9522
19.7396,18.9197
19.7970,18.9082
21.4470,18.9082
21.5044,18.9197
21.5531,18.9522
21.5856,19.0008
21.5970,19.0582
Z" /> 
<path style="fill:#840084; fill-opacity:1.0000; stroke:none;fill-rule:evenodd;"
d="M 21.5970,20.6282
21.5856,20.6857
21.5531,20.7343
21.5044,20.7668
21.4470,20.7782
19.7970,20.7782
19.7396,20.7668
19.6909,20.7343
19.6584,20.6857
19.6470,20.6282
19.6470,20.3283
19.6584,20.2708
19.6909,20.2222
19.7396,20.1897
19.7970,20.1782
21.4470,20.1782
21.5044,20.1897
21.5531,20.2222
21.5856,20.2708
21.5970,20.3283
Z" /> 
<path style="fill:#840084; fill-opacity:1.0000; stroke:none;fill-rule:evenodd;"
d="M 21.5970,21.8982
21.5856,21.9557
21.5531,22.0043
21.5044,22.0368
21.4470,22.0482
19.7970,22.0482
19.7396,22.0368
19.6909,22.0043
19.6584,21.9557
19.6470,21.8982
19.6470,21.5983
19.6584,21.5408
19.6909,21.4922
19.7396,21.4597
19.7970,21.4482
21.4470,21.4482
21.5044,21.4597
21.5531,21.4922
21.5856,21.5408
21.5970,21.5983
Z" /> 
<path style="fill:#840084; fill-opacity:1.0000; stroke:none;fill-rule:evenodd;"
d="M 4.8775,37.1253
4.8965,37.0296
4.9507,36.9485
5.0318,36.8943
5.1275,36.8753
5.7525,36.8753
5.8482,36.8943
5.9293,36.9485
5.9835,37.0296
6.0025,37.1253
6.0025,38.3753
5.9835,38.4709
5.9293,38.5520
5.8482,38.6062
5.7525,38.6253
5.1275,38.6253
5.0318,38.6062
4.9507,38.5520
4.8965,38.4709
4.8775,38.3753
Z" /> 
<path style="fill:#840084; fill-opacity:1.0000; stroke:none;fill-rule:evenodd;"
d="M 7.8025,37.1253
7.8215,37.0296
7.8757,36.9485
7.9568,36.8943
8.0525,36.8753
8.6775,36.8753
8.7732,36.8943
8.8543,36.9485
8.9085,37.0296
8.9275,37.1253
8.9275,38.3753
8.9085,38.4709
8.8543,38.5520
8.7732,38.6062
8.6775,38.6253
8.0525,38.6253
7.9568,38.6062
7.8757,38.5520
7.8215,38.4709
7.8025,38.3753
Z" /> 
<path style="fill:#840084; fill-opacity:1.0000; stroke:none;fill-rule:evenodd;"
d="M 36.4260,3.7732
36.5121,3.7904
36.5851,3.8392
36.6339,3.9121
36.6510,3.9982
36.6510,4.4482
36.6339,4.5344
36.5851,4.6073
36.5121,4.6561
36.4260,4.6732
35.6760,4.6732
35.5899,4.6561
35.5169,4.6073
35.4681,4.5344
35.4510,4.4482
35.4510,3.9982
35.4681,3.9121
35.5169,3.8392
35.5899,3.7904
35.6760,3.7732
Z" /> 
<path style="fill:#840084; fill-opacity:1.0000; stroke:none;fill-rule:evenodd;"
d="M 36.4260,7.0732
36.5121,7.0904
36.5851,7.1392
36.6339,7.2121
36.6510,7.2982
36.6510,7.7482
36.6339,7.8344
36.5851,7.9073
36.5121,7.9561
36.4260,7.9732
35.6760,7.9732
35.5899,7.9561
35.5169,7.9073
35.4681,7.8344
35.4510,7.7482
35.4510,7.2982
35.4681,7.2121
35.5169,7.1392
35.5899,7.0904
35.6760,7.0732
Z" /> 
<path style="fill:#840084; fill-opacity:1.0000; stroke:none;fill-rule:evenodd;"
d="M 22.9980,23.9763
22.9790,24.0719
22.9248,24.1530
22.8437,24.2072
22.7480,24.2263
22.2230,24.2263
22.1273,24.2072
22.0462,24.1530
21.9920,24.0719
21.9730,23.9763
21.9730,23.0762
21.9920,22.9806
22.0462,22.8995
22.1273,22.8453
22.2230,22.8262
22.7480,22.8262
22.8437,22.8453
22.9248,22.8995
22.9790,22.9806
22.9980,23.0762
Z" /> 
<path style="fill:#840084; fill-opacity:1.0000; stroke:none;fill-rule:evenodd;"
d="M 21.1730,23.9763
21.1540,24.0719
21.0998,24.1530
21.0187,24.2072
20.9230,24.2263
20.3980,24.2263
20.3023,24.2072
20.2212,24.1530
20.1670,24.0719
20.1480,23.9763
20.1480,23.0762
20.1670,22.9806
20.2212,22.8995
20.3023,22.8453
20.3980,22.8262
20.9230,22.8262
21.0187,22.8453
21.0998,22.8995
21.1540,22.9806
21.1730,23.0762
Z" /> 
<path style="fill:#840084; fill-opacity:1.0000; stroke:none;fill-rule:evenodd;"
d="M 15.2920,20.8313
15.3877,20.8503
15.4688,20.9045
15.5230,20.9856
15.5420,21.0813
15.5420,21.6062
15.5230,21.7019
15.4688,21.7830
15.3877,21.8372
15.2920,21.8562
14.3920,21.8562
14.2963,21.8372
14.2152,21.7830
14.1610,21.7019
14.1420,21.6062
14.1420,21.0813
14.1610,20.9856
14.2152,20.9045
14.2963,20.8503
14.3920,20.8313
Z" /> 
<path style="fill:#840084; fill-opacity:1.0000; stroke:none;fill-rule:evenodd;"
d="M 15.2920,22.6562
15.3877,22.6753
15.4688,22.7295
15.5230,22.8106
15.5420,22.9062
15.5420,23.4312
15.5230,23.5269
15.4688,23.6080
15.3877,23.6622
15.2920,23.6812
14.3920,23.6812
14.2963,23.6622
14.2152,23.6080
14.1610,23.5269
14.1420,23.4312
14.1420,22.9062
14.1610,22.8106
14.2152,22.7295
14.2963,22.6753
14.3920,22.6562
Z" /> 
<path style="fill:#840084; fill-opacity:1.0000; stroke:none;fill-rule:evenodd;"
d="M 38.1820,15.0752
38.2010,14.9796
38.2552,14.8985
38.3363,14.8443
38.4320,14.8252
38.9570,14.8252
39.0527,14.8443
39.1338,14.8985
39.1880,14.9796
39.2070,15.0752
39.2070,15.9752
39.1880,16.0709
39.1338,16.1520
39.0527,16.2062
38.9570,16.2252
38.4320,16.2252
38.3363,16.2062
38.2552,16.1520
38.2010,16.0709
38.1820,15.9752
Z" /> 
<path style="fill:#840084; fill-opacity:1.0000; stroke:none;fill-rule:evenodd;"
d="M 40.0070,15.0752
40.0260,14.9796
40.0802,14.8985
40.1613,14.8443
40.2570,14.8252
40.7820,14.8252
40.8777,14.8443
40.9588,14.8985
41.0130,14.9796
41.0320,15.0752
41.0320,15.9752
41.0130,16.0709
40.9588,16.1520
40.8777,16.2062
40.7820,16.2252
40.2570,16.2252
40.1613,16.2062
40.0802,16.1520
40.0260,16.0709
40.0070,15.9752
Z" /> 
<path style="fill:#840084; fill-opacity:1.0000; stroke:none;fill-rule:evenodd;"
d="M 31.4940,18.1742
31.5897,18.1933
31.6708,18.2475
31.7250,18.3286
31.7440,18.4242
31.7440,19.0742
31.7250,19.1699
31.6708,19.2510
31.5897,19.3052
31.4940,19.3242
30.1940,19.3242
30.0983,19.3052
30.0172,19.2510
29.9630,19.1699
29.9440,19.0742
29.9440,18.4242
29.9630,18.3286
30.0172,18.2475
30.0983,18.1933
30.1940,18.1742
Z" /> 
<path style="fill:#840084; fill-opacity:1.0000; stroke:none;fill-rule:evenodd;"
d="M 31.4940,21.1243
31.5897,21.1433
31.6708,21.1975
31.7250,21.2786
31.7440,21.3743
31.7440,22.0243
31.7250,22.1199
31.6708,22.2010
31.5897,22.2552
31.4940,22.2743
30.1940,22.2743
30.0983,22.2552
30.0172,22.2010
29.9630,22.1199
29.9440,22.0243
29.9440,21.3743
29.9630,21.2786
30.0172,21.1975
30.0983,21.1433
30.1940,21.1243
Z" /> 
</g>
<g style="fill:#840084; fill-opacity:1.0000; stroke:none;">
<circle cx="42.4780" cy="33.4922" r="0.7500" /> 
</g>
<g style="fill:#840084; fill-opacity:1.0000; stroke:none;">
<circle cx="41.6228" cy="31.4275" r="0.7500" /> 
</g>
<g style="fill:#840084; fill-opacity:1.0000; stroke:none;">
<circle cx="39.5580" cy="30.5722" r="0.7500" /> 
</g>
<g style="fill:#840084; fill-opacity:1.0000; stroke:none;">
<circle cx="37.4933" cy="31.4275" r="0.7500" /> 
</g>
<g style="fill:#840084; fill-opacity:1.0000; stroke:none;">
<circle cx="36.6380" cy="33.4922" r="0.7500" /> 
</g>
<g style="fill:#840084; fill-opacity:1.0000; stroke:none;">
<circle cx="37.4933" cy="35.5570" r="0.7500" /> 
</g>
<g style="fill:#840084; fill-opacity:1.0000; stroke:none;">
<circle cx="39.5580" cy="36.4122" r="0.7500" /> 
</g>
<g style="fill:#840084; fill-opacity:1.0000; stroke:none;">
<circle cx="41.6228" cy="35.5570" r="0.7500" /> 
</g>
<g style="fill:#840084; fill-opacity:1.0000; stroke:none;">
<circle cx="18.0150" cy="34.1022" r="1.5000" /> 
</g>
<g style="fill:#840084; fill-opacity:1.0000; stroke:none;">
<circle cx="23.0950" cy="34.1022" r="1.5000" /> 
</g>
<g style="fill:#840084; fill-opacity:1.0000; stroke:none;">
<circle cx="25.6350" cy="34.1022" r="1.5000" /> 
</g>
<g style="fill:#840084; fill-opacity:1.0000; stroke:none;">
<circle cx="28.1750" cy="34.1022" r="1.5000" /> 
<path style="fill:#840084; fill-opacity:1.0000; stroke:none;fill-rule:evenodd;"
d="M 17.2530,38.6743
17.2530,37.1502
18.7770,37.1502
18.7770,38.6743
Z" /> 
</g>
<g style="fill:#840084; fill-opacity:1.0000; stroke:none;">
<circle cx="20.5550" cy="37.9123" r="0.7620" /> 
</g>
<g style="fill:#840084; fill-opacity:1.0000; stroke:none;">
<circle cx="23.0950" cy="37.9123" r="0.7620" /> 
</g>
<g style="fill:#840084; fill-opacity:1.0000; stroke:none;">
<circle cx="25.6350" cy="37.9123" r="0.7620" /> 
</g>
<g style="fill:#840084; fill-opacity:1.0000; stroke:none;">
<circle cx="28.1750" cy="37.9123" r="0.7620" /> 
<path style="fill:#840084; fill-opacity:1.0000; stroke:none;fill-rule:evenodd;"
d="M 10.4775,32.2657
10.4585,32.3614
10.4043,32.4425
10.3232,32.4967
10.2275,32.5157
9.5025,32.5157
9.4068,32.4967
9.3257,32.4425
9.2715,32.3614
9.2525,32.2657
9.2525,29.4157
9.2715,29.3201
9.3257,29.2390
9.4068,29.1848
9.5025,29.1657
10.2275,29.1657
10.3232,29.1848
10.4043,29.2390
10.4585,29.3201
10.4775,29.4157
Z" /> 
<path style="fill:#840084; fill-opacity:1.0000; stroke:none;fill-rule:evenodd;"
d="M 9.8275,31.7601
9.8076,31.8855
9.7500,31.9985
9.6603,32.0883
9.5472,32.1459
9.4219,32.1657
8.2456,32.1657
8.1203,32.1459
8.0072,32.0883
7.9175,31.9985
7.8599,31.8855
7.8400,31.7601
7.8400,29.9214
7.8599,29.7960
7.9175,29.6829
8.0072,29.5932
8.1203,29.5356
8.2456,29.5158
9.4219,29.5157
9.5472,29.5356
9.6603,29.5932
9.7500,29.6829
9.8076,29.7960
9.8275,29.9214
Z" /> 
<path style="fill:#840084; fill-opacity:1.0000; stroke:none;fill-rule:evenodd;"
d="M 6.0400,31.7448
6.0194,31.8749
5.9596,31.9922
5.8665,32.0854
5.7492,32.1451
5.6191,32.1657
4.3984,32.1657
4.2683,32.1451
4.1510,32.0854
4.0579,31.9922
3.9981,31.8749
3.9775,31.7448
3.9775,29.9367
3.9981,29.8066
4.0579,29.6893
4.1510,29.5961
4.2683,29.5364
4.3984,29.5158
5.6191,29.5157
5.7492,29.5364
5.8665,29.5961
5.9596,29.6893
6.0194,29.8066
6.0400,29.9367
Z" /> 
<path style="fill:#840084; fill-opacity:1.0000; stroke:none;fill-rule:evenodd;"
d="M 4.5525,32.2657
4.5335,32.3614
4.4793,32.4425
4.3982,32.4967
4.3025,32.5157
3.5775,32.5157
3.4818,32.4967
3.4007,32.4425
3.3465,32.3614
3.3275,32.2657
3.3275,29.4157
3.3465,29.3201
3.4007,29.2390
3.4818,29.1848
3.5775,29.1657
4.3025,29.1657
4.3982,29.1848
4.4793,29.2390
4.5335,29.3201
4.5525,29.4157
Z" /> 
<path style="fill:#840084; fill-opacity:1.0000; stroke:none;fill-rule:evenodd;"
d="M 10.2910,23.6762
10.2796,23.7337
10.2471,23.7823
10.1984,23.8148
10.1410,23.8262
8.4910,23.8262
8.4336,23.8148
8.3849,23.7823
8.3524,23.7337
8.3410,23.6762
8.3410,23.3762
8.3524,23.3188
8.3849,23.2702
8.4336,23.2377
8.4910,23.2263
10.1410,23.2263
10.1984,23.2377
10.2471,23.2702
10.2796,23.3188
10.2910,23.3762
Z" /> 
<path style="fill:#840084; fill-opacity:1.0000; stroke:none;fill-rule:evenodd;"
d="M 10.2910,22.4062
10.2796,22.4637
10.2471,22.5123
10.1984,22.5448
10.1410,22.5562
8.4910,22.5562
8.4336,22.5448
8.3849,22.5123
8.3524,22.4637
8.3410,22.4062
8.3410,22.1062
8.3524,22.0488
8.3849,22.0002
8.4336,21.9677
8.4910,21.9563
10.1410,21.9563
10.1984,21.9677
10.2471,22.0002
10.2796,22.0488
10.2910,22.1062
Z" /> 
<path style="fill:#840084; fill-opacity:1.0000; stroke:none;fill-rule:evenodd;"
d="M 10.2910,21.1363
10.2796,21.1937
10.2471,21.2423
10.1984,21.2748
10.1410,21.2862
8.4910,21.2862
8.4336,21.2748
8.3849,21.2423
8.3524,21.1937
8.3410,21.1363
8.3410,20.8362
8.3524,20.7788
8.3849,20.7302
8.4336,20.6977
8.4910,20.6862
10.1410,20.6862
10.1984,20.6977
10.2471,20.7302
10.2796,20.7788
10.2910,20.8362
Z" /> 
<path style="fill:#840084; fill-opacity:1.0000; stroke:none;fill-rule:evenodd;"
d="M 10.2910,19.8663
10.2796,19.9237
10.2471,19.9723
10.1984,20.0048
10.1410,20.0162
8.4910,20.0162
8.4336,20.0048
8.3849,19.9723
8.3524,19.9237
8.3410,19.8663
8.3410,19.5663
8.3524,19.5088
8.3849,19.4602
8.4336,19.4277
8.4910,19.4162
10.1410,19.4162
10.1984,19.4277
10.2471,19.4602
10.2796,19.5088
10.2910,19.5663
Z" /> 
<path style="fill:#840084; fill-opacity:1.0000; stroke:none;fill-rule:evenodd;"
d="M 10.2910,18.5962
10.2796,18.6537
10.2471,18.7023
10.1984,18.7348
10.1410,18.7462
8.4910,18.7462
8.4336,18.7348
8.3849,18.7023
8.3524,18.6537
8.3410,18.5962
8.3410,18.2963
8.3524,18.2388
8.3849,18.1902
8.4336,18.1577
8.4910,18.1462
10.1410,18.1462
10.1984,18.1577
10.2471,18.1902
10.2796,18.2388
10.2910,18.2963
Z" /> 
<path style="fill:#840084; fill-opacity:1.0000; stroke:none;fill-rule:evenodd;"
d="M 10.2910,17.3262
10.2796,17.3837
10.2471,17.4323
10.1984,17.4648
10.1410,17.4763
8.4910,17.4763
8.4336,17.4648
8.3849,17.4323
8.3524,17.3837
8.3410,17.3262
8.3410,17.0263
8.3524,16.9688
8.3849,16.9202
8.4336,16.8877
8.4910,16.8762
10.1410,16.8762
10.1984,16.8877
10.2471,16.9202
10.2796,16.9688
10.2910,17.0263
Z" /> 
<path style="fill:#840084; fill-opacity:1.0000; stroke:none;fill-rule:evenodd;"
d="M 10.2910,16.0562
10.2796,16.1137
10.2471,16.1623
10.1984,16.1948
10.1410,16.2063
8.4910,16.2063
8.4336,16.1948
8.3849,16.1623
8.3524,16.1137
8.3410,16.0562
8.3410,15.7562
8.3524,15.6988
8.3849,15.6502
8.4336,15.6177
8.4910,15.6062
10.1410,15.6062
10.1984,15.6177
10.2471,15.6502
10.2796,15.6988
10.2910,15.7562
Z" /> 
<path style="fill:#840084; fill-opacity:1.0000; stroke:none;fill-rule:evenodd;"
d="M 10.2910,14.7862
10.2796,14.8437
10.2471,14.8923
10.1984,14.9248
10.1410,14.9362
8.4910,14.9362
8.4336,14.9248
8.3849,14.8923
8.3524,14.8437
8.3410,14.7862
8.3410,14.4863
8.3524,14.4288
8.3849,14.3802
8.4336,14.3477
8.4910,14.3362
10.1410,14.3362
10.1984,14.3477
10.2471,14.3802
10.2796,14.4288
10.2910,14.4863
Z" /> 
<path style="fill:#840084; fill-opacity:1.0000; stroke:none;fill-rule:evenodd;"
d="M 5.3410,14.7862
5.3296,14.8437
5.2971,14.8923
5.2484,14.9248
5.1910,14.9362
3.5410,14.9362
3.4836,14.9248
3.4349,14.8923
3.4024,14.8437
3.3910,14.7862
3.3910,14.4863
3.4024,14.4288
3.4349,14.3802
3.4836,14.3477
3.5410,14.3362
5.1910,14.3362
5.2484,14.3477
5.2971,14.3802
5.3296,14.4288
5.3410,14.4863
Z" /> 
<path style="fill:#840084; fill-opacity:1.0000; stroke:none;fill-rule:evenodd;"
d="M 5.3410,16.0562
5.3296,16.1137
5.2971,16.1623
5.2484,16.1948
5.1910,16.2063
3.5410,16.2063
3.4836,16.1948
3.4349,16.1623
3.4024,16.1137
3.3910,16.0562
3.3910,15.7562
3.4024,15.6988
3.4349,15.6502
3.4836,15.6177
3.5410,15.6062
5.1910,15.6062
5.2484,15.6177
5.2971,15.6502
5.3296,15.6988
5.3410,15.7562
Z" /> 
<path style="fill:#840084; fill-opacity:1.0000; stroke:none;fill-rule:evenodd;"
d="M 5.3410,17.3262
5.3296,17.3837
5.2971,17.4323
5.2484,17.4648
5.1910,17.4763
3.5410,17.4763
3.4836,17.4648
3.4349,17.4323
3.4024,17.3837
3.3910,17.3262
3.3910,17.0263
3.4024,16.9688
3.4349,16.9202
3.4836,16.8877
3.5410,16.8762
5.1910,16.8762
5.2484,16.8877
5.2971,16.9202
5.3296,16.9688
5.3410,17.0263
Z" /> 
<path style="fill:#840084; fill-opacity:1.0000; stroke:none;fill-rule:evenodd;"
d="M 5.3410,18.5962
5.3296,18.6537
5.2971,18.7023
5.2484,18.7348
5.1910,18.7462
3.5410,18.7462
3.4836,18.7348
3.4349,18.7023
3.4024,18.6537
3.3910,18.5962
3.3910,18.2963
3.4024,18.2388
3.4349,18.1902
3.4836,18.1577
3.5410,18.1462
5.1910,18.1462
5.2484,18.1577
5.2971,18.1902
5.3296,18.2388
5.3410,18.2963
Z" /> 
<path style="fill:#840084; fill-opacity:1.0000; stroke:none;fill-rule:evenodd;"
d="M 5.3410,19.8663
5.3296,19.9237
5.2971,19.9723
5.2484,20.0048
5.1910,20.0162
3.5410,20.0162
3.4836,20.0048
3.4349,19.9723
3.4024,19.9237
3.3910,19.8663
3.3910,19.5663
3.4024,19.5088
3.4349,19.4602
3.4836,19.4277
3.5410,19.4162
5.1910,19.4162
5.2484,19.4277
5.2971,19.4602
5.3296,19.5088
5.3410,19.5663
Z" /> 
<path style="fill:#840084; fill-opacity:1.0000; stroke:none;fill-rule:evenodd;"
d="M 5.3410,21.1363
5.3296,21.1937
5.2971,21.2423
5.2484,21.2748
5.1910,21.2862
3.5410,21.2862
3.4836,21.2748
3.4349,21.2423
3.4024,21.1937
3.3910,21.1363
3.3910,20.8362
3.4024,20.7788
3.4349,20.7302
3.4836,20.6977
3.5410,20.6862
5.1910,20.6862
5.2484,20.6977
5.2971,20.7302
5.3296,20.7788
5.3410,20.8362
Z" /> 
<path style="fill:#840084; fill-opacity:1.0000; stroke:none;fill-rule:evenodd;"
d="M 5.3410,22.4062
5.3296,22.4637
5.2971,22.5123
5.2484,22.5448
5.1910,22.5562
3.5410,22.5562
3.4836,22.5448
3.4349,22.5123
3.4024,22.4637
3.3910,22.4062
3.3910,22.1062
3.4024,22.0488
3.4349,22.0002
3.4836,21.9677
3.5410,21.9563
5.1910,21.9563
5.2484,21.9677
5.2971,22.0002
5.3296,22.0488
5.3410,22.1062
Z" /> 
<path style="fill:#840084; fill-opacity:1.0000; stroke:none;fill-rule:evenodd;"
d="M 5.3410,23.6762
5.3296,23.7337
5.2971,23.7823
5.2484,23.8148
5.1910,23.8262
3.5410,23.8262
3.4836,23.8148
3.4349,23.7823
3.4024,23.7337
3.3910,23.6762
3.3910,23.3762
3.4024,23.3188
3.4349,23.2702
3.4836,23.2377
3.5410,23.2263
5.1910,23.2263
5.2484,23.2377
5.2971,23.2702
5.3296,23.3188
5.3410,23.3762
Z" /> 
</g>
<g style="fill:#840084; fill-opacity:1.0000; stroke:none;">
<circle cx="44.6489" cy="40.4383" r="2.4500" /> 
</g>
<g style="fill:#840084; fill-opacity:1.0000; stroke:none;">
<circle cx="34.4989" cy="26.5483" r="2.4500" /> 
<path style="fill:#840084; fill-opacity:1.0000; stroke:none;fill-rule:evenodd;"
d="M 4.8775,34.4582
4.8965,34.3626
4.9507,34.2815
5.0318,34.2273
5.1275,34.2082
5.7525,34.2082
5.8482,34.2273
5.9293,34.2815
5.9835,34.3626
6.0025,34.4582
6.0025,35.7082
5.9835,35.8039
5.9293,35.8850
5.8482,35.9392
5.7525,35.9582
5.1275,35.9582
5.0318,35.9392
4.9507,35.8850
4.8965,35.8039
4.8775,35.7082
Z" /> 
<path style="fill:#840084; fill-opacity:1.0000; stroke:none;fill-rule:evenodd;"
d="M 7.8025,34.4582
7.8215,34.3626
7.8757,34.2815
7.9568,34.2273
8.0525,34.2082
8.6775,34.2082
8.7732,34.2273
8.8543,34.2815
8.9085,34.3626
8.9275,34.4582
8.9275,35.7082
8.9085,35.8039
8.8543,35.8850
8.7732,35.9392
8.6775,35.9582
8.0525,35.9582
7.9568,35.9392
7.8757,35.8850
7.8215,35.8039
7.8025,35.7082
Z" /> 
<path style="fill:#840084; fill-opacity:1.0000; stroke:none;fill-rule:evenodd;"
d="M 28.5000,24.0062
28.5957,24.0253
28.6768,24.0795
28.7310,24.1606
28.7500,24.2562
28.7500,24.7812
28.7310,24.8769
28.6768,24.9580
28.5957,25.0122
28.5000,25.0312
27.6000,25.0312
27.5043,25.0122
27.4232,24.9580
27.3690,24.8769
27.3500,24.7812
27.3500,24.2562
27.3690,24.1606
27.4232,24.0795
27.5043,24.0253
27.6000,24.0062
Z" /> 
<path style="fill:#840084; fill-opacity:1.0000; stroke:none;fill-rule:evenodd;"
d="M 28.5000,25.8312
28.5957,25.8503
28.6768,25.9045
28.7310,25.9856
28.7500,26.0812
28.7500,26.6062
28.7310,26.7019
28.6768,26.7830
28.5957,26.8372
28.5000,26.8562
27.6000,26.8562
27.5043,26.8372
27.4232,26.7830
27.3690,26.7019
27.3500,26.6062
27.3500,26.0812
27.3690,25.9856
27.4232,25.9045
27.5043,25.8503
27.6000,25.8312
Z" /> 
</g>
<g style="fill:#840084; fill-opacity:1.0000; stroke:none;">
<circle cx="13.0640" cy="40.5442" r="1.0000" /> 
<path style="fill:#840084; fill-opacity:1.0000; stroke:none;fill-rule:evenodd;"
d="M 19.1320,3.7722
19.1510,3.6766
19.2052,3.5955
19.2863,3.5413
19.3820,3.5222
19.9070,3.5222
20.0027,3.5413
20.0838,3.5955
20.1380,3.6766
20.1570,3.7722
20.1570,4.6723
20.1380,4.7679
20.0838,4.8490
20.0027,4.9032
19.9070,4.9223
19.3820,4.9223
19.2863,4.9032
19.2052,4.8490
19.1510,4.7679
19.1320,4.6723
Z" /> 
<path style="fill:#840084; fill-opacity:1.0000; stroke:none;fill-rule:evenodd;"
d="M 20.9570,3.7722
20.9760,3.6766
21.0302,3.5955
21.1113,3.5413
21.2070,3.5222
21.7320,3.5222
21.8277,3.5413
21.9088,3.5955
21.9630,3.6766
21.9820,3.7722
21.9820,4.6723
21.9630,4.7679
21.9088,4.8490
21.8277,4.9032
21.7320,4.9223
21.2070,4.9223
21.1113,4.9032
21.0302,4.8490
20.9760,4.7679
20.9570,4.6723
Z" /> 
<path style="fill:#840084; fill-opacity:1.0000; stroke:none;fill-rule:evenodd;"
d="M 17.9050,18.6822
18.0007,18.7013
18.0818,18.7555
18.1360,18.8366
18.1550,18.9322
18.1550,19.5822
18.1360,19.6779
18.0818,19.7590
18.0007,19.8132
17.9050,19.8322
16.6050,19.8322
16.5093,19.8132
16.4282,19.7590
16.3740,19.6779
16.3550,19.5822
16.3550,18.9322
16.3740,18.8366
16.4282,18.7555
16.5093,18.7013
16.6050,18.6822
Z" /> 
<path style="fill:#840084; fill-opacity:1.0000; stroke:none;fill-rule:evenodd;"
d="M 17.9050,21.6323
18.0007,21.6513
18.0818,21.7055
18.1360,21.7866
18.1550,21.8823
18.1550,22.5323
18.1360,22.6279
18.0818,22.7090
18.0007,22.7632
17.9050,22.7823
16.6050,22.7823
16.5093,22.7632
16.4282,22.7090
16.3740,22.6279
16.3550,22.5323
16.3550,21.8823
16.3740,21.7866
16.4282,21.7055
16.5093,21.6513
16.6050,21.6323
Z" /> 
<path style="fill:#840084; fill-opacity:1.0000; stroke:none;fill-rule:evenodd;"
d="M 36.0320,17.7832
36.0510,17.6876
36.1052,17.6065
36.1863,17.5523
36.2820,17.5332
37.0070,17.5332
37.1027,17.5523
37.1838,17.6065
37.2380,17.6876
37.2570,17.7832
37.2570,20.6333
37.2380,20.7289
37.1838,20.8100
37.1027,20.8642
37.0070,20.8833
36.2820,20.8833
36.1863,20.8642
36.1052,20.8100
36.0510,20.7289
36.0320,20.6333
Z" /> 
<path style="fill:#840084; fill-opacity:1.0000; stroke:none;fill-rule:evenodd;"
d="M 36.6820,18.2889
36.7019,18.1635
36.7595,18.0504
36.8492,17.9607
36.9623,17.9031
37.0876,17.8833
38.2639,17.8833
38.3892,17.9031
38.5023,17.9607
38.5920,18.0504
38.6496,18.1635
38.6695,18.2889
38.6695,20.1276
38.6496,20.2530
38.5920,20.3660
38.5023,20.4558
38.3892,20.5134
38.2639,20.5332
37.0876,20.5332
36.9623,20.5134
36.8492,20.4558
36.7595,20.3660
36.7019,20.2530
36.6820,20.1276
Z" /> 
<path style="fill:#840084; fill-opacity:1.0000; stroke:none;fill-rule:evenodd;"
d="M 40.4695,18.3042
40.4901,18.1741
40.5499,18.0568
40.6430,17.9636
40.7603,17.9039
40.8904,17.8833
42.1111,17.8833
42.2412,17.9039
42.3585,17.9636
42.4516,18.0568
42.5114,18.1741
42.5320,18.3042
42.5320,20.1123
42.5114,20.2424
42.4516,20.3597
42.3585,20.4529
42.2412,20.5126
42.1111,20.5332
40.8904,20.5332
40.7603,20.5126
40.6430,20.4529
40.5499,20.3597
40.4901,20.2424
40.4695,20.1123
Z" /> 
<path style="fill:#840084; fill-opacity:1.0000; stroke:none;fill-rule:evenodd;"
d="M 41.9570,17.7832
41.9760,17.6876
42.0302,17.6065
42.1113,17.5523
42.2070,17.5332
42.9320,17.5332
43.0277,17.5523
43.1088,17.6065
43.1630,17.6876
43.1820,17.7832
43.1820,20.6333
43.1630,20.7289
43.1088,20.8100
43.0277,20.8642
42.9320,20.8833
42.2070,20.8833
42.1113,20.8642
42.0302,20.8100
41.9760,20.7289
41.9570,20.6333
Z" /> 
<path style="fill:#840084; fill-opacity:1.0000; stroke:none;fill-rule:evenodd;"
d="M 21.0470,15.2562
21.0660,15.1606
21.1202,15.0795
21.2013,15.0253
21.2970,15.0062
21.9470,15.0062
22.0427,15.0253
22.1238,15.0795
22.1780,15.1606
22.1970,15.2562
22.1970,16.5562
22.1780,16.6519
22.1238,16.7330
22.0427,16.7872
21.9470,16.8062
21.2970,16.8062
21.2013,16.7872
21.1202,16.7330
21.0660,16.6519
21.0470,16.5562
Z" /> 
<path style="fill:#840084; fill-opacity:1.0000; stroke:none;fill-rule:evenodd;"
d="M 23.9970,15.2562
24.0160,15.1606
24.0702,15.0795
24.1513,15.0253
24.2470,15.0062
24.8970,15.0062
24.9927,15.0253
25.0738,15.0795
25.1280,15.1606
25.1470,15.2562
25.1470,16.5562
25.1280,16.6519
25.0738,16.7330
24.9927,16.7872
24.8970,16.8062
24.2470,16.8062
24.1513,16.7872
24.0702,16.7330
24.0160,16.6519
23.9970,16.5562
Z" /> 
<path style="fill:#840084; fill-opacity:1.0000; stroke:none;fill-rule:evenodd;"
d="M 31.5750,15.7942
31.5560,15.8899
31.5018,15.9710
31.4207,16.0252
31.3250,16.0442
30.6750,16.0442
30.5793,16.0252
30.4982,15.9710
30.4440,15.8899
30.4250,15.7942
30.4250,14.4942
30.4440,14.3986
30.4982,14.3175
30.5793,14.2633
30.6750,14.2442
31.3250,14.2442
31.4207,14.2633
31.5018,14.3175
31.5560,14.3986
31.5750,14.4942
Z" /> 
<path style="fill:#840084; fill-opacity:1.0000; stroke:none;fill-rule:evenodd;"
d="M 28.6250,15.7942
28.6060,15.8899
28.5518,15.9710
28.4707,16.0252
28.3750,16.0442
27.7250,16.0442
27.6293,16.0252
27.5482,15.9710
27.4940,15.8899
27.4750,15.7942
27.4750,14.4942
27.4940,14.3986
27.5482,14.3175
27.6293,14.2633
27.7250,14.2442
28.3750,14.2442
28.4707,14.2633
28.5518,14.3175
28.6060,14.3986
28.6250,14.4942
Z" /> 
</g>
<g style="fill:#840084; fill-opacity:1.0000; stroke:none;">
<circle cx="46.2110" cy="9.5563" r="1.0000" /> 
<path style="fill:#840084; fill-opacity:1.0000; stroke:none;fill-rule:evenodd;"
d="M 25.1970,26.4413
25.1799,26.5274
25.1311,26.6003
25.0581,26.6491
24.9720,26.6662
24.5220,26.6662
24.4359,26.6491
24.3629,26.6003
24.3141,26.5274
24.2970,26.4413
24.2970,25.6913
24.3141,25.6051
24.3629,25.5322
24.4359,25.4834
24.5220,25.4662
24.9720,25.4662
25.0581,25.4834
25.1311,25.5322
25.1799,25.6051
25.1970,25.6913
Z" /> 
<path style="fill:#840084; fill-opacity:1.0000; stroke:none;fill-rule:evenodd;"
d="M 21.8970,26.4413
21.8799,26.5274
21.8311,26.6003
21.7581,26.6491
21.6720,26.6662
21.2220,26.6662
21.1359,26.6491
21.0629,26.6003
21.0141,26.5274
20.9970,26.4413
20.9970,25.6913
21.0141,25.6051
21.0629,25.5322
21.1359,25.4834
21.2220,25.4662
21.6720,25.4662
21.7581,25.4834
21.8311,25.5322
21.8799,25.6051
21.8970,25.6913
Z" /> 
<path style="fill:#840084; fill-opacity:1.0000; stroke:none;fill-rule:evenodd;"
d="M 25.9900,3.7722
26.0090,3.6766
26.0632,3.5955
26.1443,3.5413
26.2400,3.5222
26.7650,3.5222
26.8607,3.5413
26.9418,3.5955
26.9960,3.6766
27.0150,3.7722
27.0150,4.6723
26.9960,4.7679
26.9418,4.8490
26.8607,4.9032
26.7650,4.9223
26.2400,4.9223
26.1443,4.9032
26.0632,4.8490
26.0090,4.7679
25.9900,4.6723
Z" /> 
<path style="fill:#840084; fill-opacity:1.0000; stroke:none;fill-rule:evenodd;"
d="M 27.8150,3.7722
27.8340,3.6766
27.8882,3.5955
27.9693,3.5413
28.0650,3.5222
28.5900,3.5222
28.6857,3.5413
28.7668,3.5955
28.8210,3.6766
28.8400,3.7722
28.8400,4.6723
28.8210,4.7679
28.7668,4.8490
28.6857,4.9032
28.5900,4.9223
28.0650,4.9223
27.9693,4.9032
27.8882,4.8490
27.8340,4.7679
27.8150,4.6723
Z" /> 
</g>
<g style="fill:#840084; fill-opacity:1.0000; stroke:none;">
<circle cx="13.0640" cy="25.3042" r="1.0000" /> 
</g>
<g style="fill:#840084; fill-opacity:1.0000; stroke:none;">
<circle cx="13.0640" cy="27.8442" r="1.0000" /> 
<path style="fill:#840084; fill-opacity:1.0000; stroke:none;fill-rule:evenodd;"
d="M 42.5730,4.8682
42.5730,3.0682
44.2830,3.0682
44.2830,4.8682
Z" /> 
</g>
<g style="fill:none; 
stroke:#840084; stroke-width:1.7100; stroke-opacity:1; 
stroke-linecap:round; stroke-linejoin:round;">
<path d="M45.7080 3.9232
L45.7080 4.0133
" />
<path d="M47.9880 3.9232
L47.9880 4.0133
" />
</g>
<g style="fill:#840084; fill-opacity:1.0000; stroke:none;">
<circle cx="4.0088" cy="5.6683" r="3.6000" /> 
</g>
<g style="fill:#840084; fill-opacity:1.0000; stroke:none;">
<circle cx="46.2110" cy="7.0162" r="1.0000" /> 
<path style="fill:#840084; fill-opacity:1.0000; stroke:none;fill-rule:evenodd;"
d="M 33.1880,21.5222
33.0923,21.5032
33.0112,21.4490
32.9570,21.3679
32.9380,21.2722
32.9380,20.7472
32.9570,20.6516
33.0112,20.5705
33.0923,20.5163
33.1880,20.4972
34.0880,20.4972
34.1837,20.5163
34.2648,20.5705
34.3190,20.6516
34.3380,20.7472
34.3380,21.2722
34.3190,21.3679
34.2648,21.4490
34.1837,21.5032
34.0880,21.5222
Z" /> 
<path style="fill:#840084; fill-opacity:1.0000; stroke:none;fill-rule:evenodd;"
d="M 33.1880,19.6973
33.0923,19.6782
33.0112,19.6240
32.9570,19.5429
32.9380,19.4473
32.9380,18.9222
32.9570,18.8266
33.0112,18.7455
33.0923,18.6913
33.1880,18.6722
34.0880,18.6722
34.1837,18.6913
34.2648,18.7455
34.3190,18.8266
34.3380,18.9222
34.3380,19.4473
34.3190,19.5429
34.2648,19.6240
34.1837,19.6782
34.0880,19.6973
Z" /> 
<path style="fill:#840084; fill-opacity:1.0000; stroke:none;fill-rule:evenodd;"
d="M 27.7270,19.6172
27.6313,19.5982
27.5502,19.5440
27.4960,19.4629
27.4770,19.3672
27.4770,18.8422
27.4960,18.7466
27.5502,18.6655
27.6313,18.6113
27.7270,18.5922
28.6270,18.5922
28.7227,18.6113
28.8038,18.6655
28.8580,18.7466
28.8770,18.8422
28.8770,19.3672
28.8580,19.4629
28.8038,19.5440
28.7227,19.5982
28.6270,19.6172
Z" /> 
<path style="fill:#840084; fill-opacity:1.0000; stroke:none;fill-rule:evenodd;"
d="M 27.7270,17.7922
27.6313,17.7732
27.5502,17.7190
27.4960,17.6379
27.4770,17.5422
27.4770,17.0173
27.4960,16.9216
27.5502,16.8405
27.6313,16.7863
27.7270,16.7673
28.6270,16.7673
28.7227,16.7863
28.8038,16.8405
28.8580,16.9216
28.8770,17.0173
28.8770,17.5422
28.8580,17.6379
28.8038,17.7190
28.7227,17.7732
28.6270,17.7922
Z" /> 
<path style="fill:#840084; fill-opacity:1.0000; stroke:none;fill-rule:evenodd;"
d="M 17.4000,17.8262
17.3810,17.9219
17.3268,18.0030
17.2457,18.0572
17.1500,18.0762
16.5000,18.0762
16.4043,18.0572
16.3232,18.0030
16.2690,17.9219
16.2500,17.8262
16.2500,16.5263
16.2690,16.4306
16.3232,16.3495
16.4043,16.2953
16.5000,16.2763
17.1500,16.2763
17.2457,16.2953
17.3268,16.3495
17.3810,16.4306
17.4000,16.5263
Z" /> 
<path style="fill:#840084; fill-opacity:1.0000; stroke:none;fill-rule:evenodd;"
d="M 14.4500,17.8262
14.4310,17.9219
14.3768,18.0030
14.2957,18.0572
14.2000,18.0762
13.5500,18.0762
13.4543,18.0572
13.3732,18.0030
13.3190,17.9219
13.3000,17.8262
13.3000,16.5263
13.3190,16.4306
13.3732,16.3495
13.4543,16.2953
13.5500,16.2763
14.2000,16.2763
14.2957,16.2953
14.3768,16.3495
14.4310,16.4306
14.4500,16.5263
Z" /> 
</g>
<g style="fill:#840084; fill-opacity:1.0000; stroke:none;">
<circle cx="13.0640" cy="38.0042" r="1.0000" /> 
<path style="fill:#840084; fill-opacity:1.0000; stroke:none;fill-rule:evenodd;"
d="M 40.9460,6.8613
41.0417,6.8803
41.1228,6.9345
41.1770,7.0156
41.1960,7.1113
41.1960,7.6362
41.1770,7.7319
41.1228,7.8130
41.0417,7.8672
40.9460,7.8862
40.0460,7.8862
39.9503,7.8672
39.8692,7.8130
39.8150,7.7319
39.7960,7.6362
39.7960,7.1113
39.8150,7.0156
39.8692,6.9345
39.9503,6.8803
40.0460,6.8613
Z" /> 
<path style="fill:#840084; fill-opacity:1.0000; stroke:none;fill-rule:evenodd;"
d="M 40.9460,8.6862
41.0417,8.7053
41.1228,8.7595
41.1770,8.8406
41.1960,8.9362
41.1960,9.4612
41.1770,9.5569
41.1228,9.6380
41.0417,9.6922
40.9460,9.7112
40.0460,9.7112
39.9503,9.6922
39.8692,9.6380
39.8150,9.5569
39.7960,9.4612
39.7960,8.9362
39.8150,8.8406
39.8692,8.7595
39.9503,8.7053
40.0460,8.6862
Z" /> 
<path style="fill:#840084; fill-opacity:1.0000; stroke:none;fill-rule:evenodd;"
d="M 30.8200,3.3762
30.8314,3.3188
30.8639,3.2702
30.9126,3.2377
30.9700,3.2262
32.1450,3.2262
32.2024,3.2377
32.2511,3.2702
32.2836,3.3188
32.2950,3.3762
32.2950,3.6763
32.2836,3.7337
32.2511,3.7823
32.2024,3.8148
32.1450,3.8262
30.9700,3.8262
30.9126,3.8148
30.8639,3.7823
30.8314,3.7337
30.8200,3.6763
Z" /> 
<path style="fill:#840084; fill-opacity:1.0000; stroke:none;fill-rule:evenodd;"
d="M 30.8200,5.2763
30.8314,5.2188
30.8639,5.1702
30.9126,5.1377
30.9700,5.1262
32.1450,5.1262
32.2024,5.1377
32.2511,5.1702
32.2836,5.2188
32.2950,5.2763
32.2950,5.5762
32.2836,5.6337
32.2511,5.6823
32.2024,5.7148
32.1450,5.7262
30.9700,5.7262
30.9126,5.7148
30.8639,5.6823
30.8314,5.6337
30.8200,5.5762
Z" /> 
<path style="fill:#840084; fill-opacity:1.0000; stroke:none;fill-rule:evenodd;"
d="M 32.6950,4.3262
32.7064,4.2688
32.7389,4.2202
32.7876,4.1877
32.8450,4.1762
34.0200,4.1762
34.0774,4.1877
34.1261,4.2202
34.1586,4.2688
34.1700,4.3262
34.1700,4.6262
34.1586,4.6837
34.1261,4.7323
34.0774,4.7648
34.0200,4.7763
32.8450,4.7763
32.7876,4.7648
32.7389,4.7323
32.7064,4.6837
32.6950,4.6262
Z" /> 
<path style="fill:#840084; fill-opacity:1.0000; stroke:none;fill-rule:evenodd;"
d="M 32.0020,35.8272
32.0977,35.8463
32.1788,35.9005
32.2330,35.9816
32.2520,36.0772
32.2520,36.7272
32.2330,36.8229
32.1788,36.9040
32.0977,36.9582
32.0020,36.9772
30.7020,36.9772
30.6063,36.9582
30.5252,36.9040
30.4710,36.8229
30.4520,36.7272
30.4520,36.0772
30.4710,35.9816
30.5252,35.9005
30.6063,35.8463
30.7020,35.8272
Z" /> 
<path style="fill:#840084; fill-opacity:1.0000; stroke:none;fill-rule:evenodd;"
d="M 32.0020,38.7773
32.0977,38.7963
32.1788,38.8505
32.2330,38.9316
32.2520,39.0273
32.2520,39.6773
32.2330,39.7729
32.1788,39.8540
32.0977,39.9082
32.0020,39.9273
30.7020,39.9273
30.6063,39.9082
30.5252,39.8540
30.4710,39.7729
30.4520,39.6773
30.4520,39.0273
30.4710,38.9316
30.5252,38.8505
30.6063,38.7963
30.7020,38.7773
Z" /> 
<path style="fill:#840084; fill-opacity:1.0000; stroke:none;fill-rule:evenodd;"
d="M 40.6958,21.6333
40.6958,23.1333
39.6958,23.1333
39.6958,21.6333
Z" /> 
<path style="fill:#840084; fill-opacity:1.0000; stroke:none;fill-rule:evenodd;"
d="M 39.3958,21.6333
39.3958,23.1333
38.3958,23.1333
38.3958,21.6333
Z" /> 
<path style="fill:#840084; fill-opacity:1.0000; stroke:none;fill-rule:evenodd;"
d="M 8.9525,27.9347
8.9335,28.0304
8.8793,28.1115
8.7982,28.1657
8.7025,28.1847
8.0525,28.1847
7.9568,28.1657
7.8757,28.1115
7.8215,28.0304
7.8025,27.9347
7.8025,26.6348
7.8215,26.5391
7.8757,26.4580
7.9568,26.4038
8.0525,26.3848
8.7025,26.3848
8.7982,26.4038
8.8793,26.4580
8.9335,26.5391
8.9525,26.6348
Z" /> 
<path style="fill:#840084; fill-opacity:1.0000; stroke:none;fill-rule:evenodd;"
d="M 6.0025,27.9347
5.9835,28.0304
5.9293,28.1115
5.8482,28.1657
5.7525,28.1847
5.1025,28.1847
5.0068,28.1657
4.9257,28.1115
4.8715,28.0304
4.8525,27.9347
4.8525,26.6348
4.8715,26.5391
4.9257,26.4580
5.0068,26.4038
5.1025,26.3848
5.7525,26.3848
5.8482,26.4038
5.9293,26.4580
5.9835,26.5391
6.0025,26.6348
Z" /> 
</g>
<g style="fill:#840084; fill-opacity:1.0000; stroke:none;">
<circle cx="28.1850" cy="11.9923" r="1.5000" /> 
</g>
<g style="fill:#840084; fill-opacity:1.0000; stroke:none;">
<circle cx="25.6450" cy="11.9923" r="1.5000" /> 
</g>
<g style="fill:#840084; fill-opacity:1.0000; stroke:none;">
<circle cx="23.1050" cy="11.9923" r="1.5000" /> 
</g>
<g style="fill:#840084; fill-opacity:1.0000; stroke:none;">
<circle cx="20.5650" cy="11.9923" r="1.5000" /> 
</g>
<g style="fill:#840084; fill-opacity:1.0000; stroke:none;">
<circle cx="18.0250" cy="11.9923" r="1.5000" /> 
<path style="fill:#840084; fill-opacity:1.0000; stroke:none;fill-rule:evenodd;"
d="M 18.7870,7.4202
18.7870,8.9443
17.2630,8.9443
17.2630,7.4202
Z" /> 
</g>
<g style="fill:#840084; fill-opacity:1.0000; stroke:none;">
<circle cx="20.5650" cy="8.1822" r="0.7620" /> 
</g>
<g style="fill:#840084; fill-opacity:1.0000; stroke:none;">
<circle cx="23.1050" cy="8.1822" r="0.7620" /> 
</g>
<g style="fill:#840084; fill-opacity:1.0000; stroke:none;">
<circle cx="25.6450" cy="8.1822" r="0.7620" /> 
</g>
<g style="fill:#840084; fill-opacity:1.0000; stroke:none;">
<circle cx="28.1850" cy="8.1822" r="0.7620" /> 
</g>
<g style="fill:none; 
stroke:#C2C200; stroke-width:0.0500; stroke-opacity:1; 
stroke-linecap:round; stroke-linejoin:round;">
<path d="M50.0250 4.3022
L50.0250 41.7222
" />
<path d="M2.5650 1.7622 A2.5400 2.5400 0.0 0 0 0.0250 4.3022" />
<path d="M50.0250 4.3022 A2.5400 2.5400 0.0 0 0 47.4850 1.7622" />
<path d="M0.0250 41.7222
L0.0250 4.3022
" />
<path d="M0.0250 41.7222 A2.5400 2.5400 0.0 0 0 2.5650 44.2622" />
<path d="M2.5650 1.7622
L47.4850 1.7622
" />
<path d="M47.4850 44.2622 A2.5400 2.5400 0.0 0 0 50.0250 41.7222" />
<path d="M47.4850 44.2622
L2.5650 44.2622
" />
</g> 
</svg>
