<?xml version="1.0" standalone="no"?>
 <!DOCTYPE svg PUBLIC "-//W3C//DTD SVG 1.1//EN" 
 "http://www.w3.org/Graphics/SVG/1.1/DTD/svg11.dtd"> 
<svg
  xmlns:svg="http://www.w3.org/2000/svg"
  xmlns="http://www.w3.org/2000/svg"
  xmlns:xlink="http://www.w3.org/1999/xlink"
  version="1.1"
  width="50.0380mm" height="44.3992mm" viewBox="0.0000 0.0000 50.0380 44.3992">
<title>SVG Image created as 3458A Ref A9 Clone-brd.svg date 2024/11/06 00:17:49 </title>
  <desc>Image generated by PCBNEW </desc>
<g style="fill:#000000; fill-opacity:1.0000;stroke:#000000; stroke-opacity:1.0000;
stroke-linecap:round; stroke-linejoin:round;"
 transform="translate(0 0) scale(1 1)">
</g>
<g style="fill:none; 
stroke:#C2C200; stroke-width:0.0500; stroke-opacity:1; 
stroke-linecap:round; stroke-linejoin:round;">
<path d="M50.0250 4.3022
L50.0250 41.7222
" />
<path d="M2.5650 1.7622 A2.5400 2.5400 0.0 0 0 0.0250 4.3022" />
<path d="M50.0250 4.3022 A2.5400 2.5400 0.0 0 0 47.4850 1.7622" />
<path d="M0.0250 41.7222
L0.0250 4.3022
" />
<path d="M0.0250 41.7222 A2.5400 2.5400 0.0 0 0 2.5650 44.2622" />
<path d="M2.5650 1.7622
L47.4850 1.7622
" />
<path d="M47.4850 44.2622 A2.5400 2.5400 0.0 0 0 50.0250 41.7222" />
<path d="M47.4850 44.2622
L2.5650 44.2622
" />
</g>
<g style="fill:#C2C200; fill-opacity:1.0000; stroke:none;">
<circle cx="42.4780" cy="33.4922" r="0.3500" /> 
</g>
<g style="fill:#C2C200; fill-opacity:1.0000; stroke:none;">
<circle cx="41.6228" cy="31.4275" r="0.3500" /> 
</g>
<g style="fill:#C2C200; fill-opacity:1.0000; stroke:none;">
<circle cx="39.5580" cy="30.5722" r="0.3500" /> 
</g>
<g style="fill:#C2C200; fill-opacity:1.0000; stroke:none;">
<circle cx="37.4933" cy="31.4275" r="0.3500" /> 
</g>
<g style="fill:#C2C200; fill-opacity:1.0000; stroke:none;">
<circle cx="36.6380" cy="33.4922" r="0.3500" /> 
</g>
<g style="fill:#C2C200; fill-opacity:1.0000; stroke:none;">
<circle cx="37.4933" cy="35.5570" r="0.3500" /> 
</g>
<g style="fill:#C2C200; fill-opacity:1.0000; stroke:none;">
<circle cx="39.5580" cy="36.4122" r="0.3500" /> 
</g>
<g style="fill:#C2C200; fill-opacity:1.0000; stroke:none;">
<circle cx="41.6228" cy="35.5570" r="0.3500" /> 
</g>
<g style="fill:#C2C200; fill-opacity:1.0000; stroke:none;">
<circle cx="18.0150" cy="34.1022" r="0.9000" /> 
</g>
<g style="fill:#C2C200; fill-opacity:1.0000; stroke:none;">
<circle cx="23.0950" cy="34.1022" r="0.9000" /> 
</g>
<g style="fill:#C2C200; fill-opacity:1.0000; stroke:none;">
<circle cx="25.6350" cy="34.1022" r="0.9000" /> 
</g>
<g style="fill:#C2C200; fill-opacity:1.0000; stroke:none;">
<circle cx="28.1750" cy="34.1022" r="0.9000" /> 
</g>
<g style="fill:#C2C200; fill-opacity:1.0000; stroke:none;">
<circle cx="18.0150" cy="37.9123" r="0.5000" /> 
</g>
<g style="fill:#C2C200; fill-opacity:1.0000; stroke:none;">
<circle cx="20.5550" cy="37.9123" r="0.5000" /> 
</g>
<g style="fill:#C2C200; fill-opacity:1.0000; stroke:none;">
<circle cx="23.0950" cy="37.9123" r="0.5000" /> 
</g>
<g style="fill:#C2C200; fill-opacity:1.0000; stroke:none;">
<circle cx="25.6350" cy="37.9123" r="0.5000" /> 
</g>
<g style="fill:#C2C200; fill-opacity:1.0000; stroke:none;">
<circle cx="28.1750" cy="37.9123" r="0.5000" /> 
</g>
<g style="fill:#C2C200; fill-opacity:1.0000; stroke:none;">
<circle cx="44.6489" cy="40.4383" r="1.8500" /> 
</g>
<g style="fill:#C2C200; fill-opacity:1.0000; stroke:none;">
<circle cx="34.4989" cy="26.5483" r="1.8500" /> 
</g>
<g style="fill:#C2C200; fill-opacity:1.0000; stroke:none;">
<circle cx="43.4280" cy="3.9682" r="0.5000" /> 
</g>
<g style="fill:#C2C200; fill-opacity:1.0000; stroke:none;">
<circle cx="45.7080" cy="3.9682" r="0.5000" /> 
</g>
<g style="fill:#C2C200; fill-opacity:1.0000; stroke:none;">
<circle cx="47.9880" cy="3.9682" r="0.5000" /> 
</g>
<g style="fill:#C2C200; fill-opacity:1.0000; stroke:none;">
<circle cx="4.0088" cy="5.6683" r="1.8500" /> 
</g>
<g style="fill:#C2C200; fill-opacity:1.0000; stroke:none;">
<circle cx="28.1850" cy="11.9923" r="0.9000" /> 
</g>
<g style="fill:#C2C200; fill-opacity:1.0000; stroke:none;">
<circle cx="25.6450" cy="11.9923" r="0.9000" /> 
</g>
<g style="fill:#C2C200; fill-opacity:1.0000; stroke:none;">
<circle cx="23.1050" cy="11.9923" r="0.9000" /> 
</g>
<g style="fill:#C2C200; fill-opacity:1.0000; stroke:none;">
<circle cx="20.5650" cy="11.9923" r="0.9000" /> 
</g>
<g style="fill:#C2C200; fill-opacity:1.0000; stroke:none;">
<circle cx="18.0250" cy="11.9923" r="0.9000" /> 
</g>
<g style="fill:#C2C200; fill-opacity:1.0000; stroke:none;">
<circle cx="18.0250" cy="8.1822" r="0.5000" /> 
</g>
<g style="fill:#C2C200; fill-opacity:1.0000; stroke:none;">
<circle cx="20.5650" cy="8.1822" r="0.5000" /> 
</g>
<g style="fill:#C2C200; fill-opacity:1.0000; stroke:none;">
<circle cx="23.1050" cy="8.1822" r="0.5000" /> 
</g>
<g style="fill:#C2C200; fill-opacity:1.0000; stroke:none;">
<circle cx="25.6450" cy="8.1822" r="0.5000" /> 
</g>
<g style="fill:#C2C200; fill-opacity:1.0000; stroke:none;">
<circle cx="28.1850" cy="8.1822" r="0.5000" /> 
</g>
<g style="fill:none; 
stroke:#C2C200; stroke-width:0.0100; stroke-opacity:1; 
stroke-linecap:round; stroke-linejoin:round;">
<path d="M50.0350 4.3122 A2.5400 2.5400 0.0 0 0 47.4950 1.7722" />
<path d="M47.4950 44.2722
L2.5750 44.2722
" />
<path d="M50.0350 4.3122
L50.0350 41.7323
" />
<path d="M2.5750 1.7722
L47.4950 1.7722
" />
<path d="M0.0350 41.7323
L0.0350 4.3122
" />
<path d="M0.0350 41.7323 A2.5400 2.5400 0.0 0 0 2.5750 44.2722" />
<path d="M2.5750 1.7722 A2.5400 2.5400 0.0 0 0 0.0350 4.3122" />
<path d="M47.4950 44.2722 A2.5400 2.5400 0.0 0 0 50.0350 41.7323" />
</g>
<g style="fill:#C2C200; fill-opacity:1.0000; stroke:none;">
<circle cx="42.4780" cy="33.4922" r="0.7500" /> 
</g>
<g style="fill:#C2C200; fill-opacity:1.0000; stroke:none;">
<circle cx="41.6228" cy="31.4275" r="0.7500" /> 
</g>
<g style="fill:#C2C200; fill-opacity:1.0000; stroke:none;">
<circle cx="39.5580" cy="30.5722" r="0.7500" /> 
</g>
<g style="fill:#C2C200; fill-opacity:1.0000; stroke:none;">
<circle cx="37.4933" cy="31.4275" r="0.7500" /> 
</g>
<g style="fill:#C2C200; fill-opacity:1.0000; stroke:none;">
<circle cx="36.6380" cy="33.4922" r="0.7500" /> 
</g>
<g style="fill:#C2C200; fill-opacity:1.0000; stroke:none;">
<circle cx="37.4933" cy="35.5570" r="0.7500" /> 
</g>
<g style="fill:#C2C200; fill-opacity:1.0000; stroke:none;">
<circle cx="39.5580" cy="36.4122" r="0.7500" /> 
</g>
<g style="fill:#C2C200; fill-opacity:1.0000; stroke:none;">
<circle cx="41.6228" cy="35.5570" r="0.7500" /> 
</g>
<g style="fill:#C2C200; fill-opacity:1.0000; stroke:none;">
<circle cx="18.0150" cy="34.1022" r="1.5000" /> 
</g>
<g style="fill:#C2C200; fill-opacity:1.0000; stroke:none;">
<circle cx="23.0950" cy="34.1022" r="1.5000" /> 
</g>
<g style="fill:#C2C200; fill-opacity:1.0000; stroke:none;">
<circle cx="25.6350" cy="34.1022" r="1.5000" /> 
</g>
<g style="fill:#C2C200; fill-opacity:1.0000; stroke:none;">
<circle cx="28.1750" cy="34.1022" r="1.5000" /> 
<path style="fill:#C2C200; fill-opacity:1.0000; stroke:none;fill-rule:evenodd;"
d="M 17.2530,38.6743
17.2530,37.1502
18.7770,37.1502
18.7770,38.6743
Z" /> 
</g>
<g style="fill:#C2C200; fill-opacity:1.0000; stroke:none;">
<circle cx="20.5550" cy="37.9123" r="0.7620" /> 
</g>
<g style="fill:#C2C200; fill-opacity:1.0000; stroke:none;">
<circle cx="23.0950" cy="37.9123" r="0.7620" /> 
</g>
<g style="fill:#C2C200; fill-opacity:1.0000; stroke:none;">
<circle cx="25.6350" cy="37.9123" r="0.7620" /> 
</g>
<g style="fill:#C2C200; fill-opacity:1.0000; stroke:none;">
<circle cx="28.1750" cy="37.9123" r="0.7620" /> 
</g>
<g style="fill:#C2C200; fill-opacity:1.0000; stroke:none;">
<circle cx="44.6489" cy="40.4383" r="2.4500" /> 
</g>
<g style="fill:#C2C200; fill-opacity:1.0000; stroke:none;">
<circle cx="34.4989" cy="26.5483" r="2.4500" /> 
<path style="fill:#C2C200; fill-opacity:1.0000; stroke:none;fill-rule:evenodd;"
d="M 42.5730,4.8682
42.5730,3.0682
44.2830,3.0682
44.2830,4.8682
Z" /> 
</g>
<g style="fill:none; 
stroke:#C2C200; stroke-width:1.7100; stroke-opacity:1; 
stroke-linecap:round; stroke-linejoin:round;">
<path d="M45.7080 3.9232
L45.7080 4.0133
" />
<path d="M47.9880 3.9232
L47.9880 4.0133
" />
</g>
<g style="fill:#C2C200; fill-opacity:1.0000; stroke:none;">
<circle cx="4.0088" cy="5.6683" r="3.6000" /> 
</g>
<g style="fill:#C2C200; fill-opacity:1.0000; stroke:none;">
<circle cx="28.1850" cy="11.9923" r="1.5000" /> 
</g>
<g style="fill:#C2C200; fill-opacity:1.0000; stroke:none;">
<circle cx="25.6450" cy="11.9923" r="1.5000" /> 
</g>
<g style="fill:#C2C200; fill-opacity:1.0000; stroke:none;">
<circle cx="23.1050" cy="11.9923" r="1.5000" /> 
</g>
<g style="fill:#C2C200; fill-opacity:1.0000; stroke:none;">
<circle cx="20.5650" cy="11.9923" r="1.5000" /> 
</g>
<g style="fill:#C2C200; fill-opacity:1.0000; stroke:none;">
<circle cx="18.0250" cy="11.9923" r="1.5000" /> 
<path style="fill:#C2C200; fill-opacity:1.0000; stroke:none;fill-rule:evenodd;"
d="M 18.7870,7.4202
18.7870,8.9443
17.2630,8.9443
17.2630,7.4202
Z" /> 
</g>
<g style="fill:#C2C200; fill-opacity:1.0000; stroke:none;">
<circle cx="20.5650" cy="8.1822" r="0.7620" /> 
</g>
<g style="fill:#C2C200; fill-opacity:1.0000; stroke:none;">
<circle cx="23.1050" cy="8.1822" r="0.7620" /> 
</g>
<g style="fill:#C2C200; fill-opacity:1.0000; stroke:none;">
<circle cx="25.6450" cy="8.1822" r="0.7620" /> 
</g>
<g style="fill:#C2C200; fill-opacity:1.0000; stroke:none;">
<circle cx="28.1850" cy="8.1822" r="0.7620" /> 
</g>
<g style="fill:#C2C2C2; fill-opacity:1.0000; stroke:none;">
<circle cx="28.9898" cy="3.7396" r="0.3000" /> 
</g>
<g style="fill:#C2C2C2; fill-opacity:1.0000; stroke:none;">
<circle cx="6.0282" cy="23.5262" r="0.3000" /> 
</g>
<g style="fill:#C2C2C2; fill-opacity:1.0000; stroke:none;">
<circle cx="24.1130" cy="25.5582" r="0.3000" /> 
</g>
<g style="fill:#C2C2C2; fill-opacity:1.0000; stroke:none;">
<circle cx="35.7970" cy="18.7003" r="0.3000" /> 
</g>
<g style="fill:#C2C2C2; fill-opacity:1.0000; stroke:none;">
<circle cx="24.1130" cy="26.5742" r="0.3000" /> 
</g>
<g style="fill:#C2C2C2; fill-opacity:1.0000; stroke:none;">
<circle cx="37.9560" cy="16.0332" r="0.3000" /> 
</g>
<g style="fill:#C2C2C2; fill-opacity:1.0000; stroke:none;">
<circle cx="24.1130" cy="26.0663" r="0.3000" /> 
</g>
<g style="fill:#C2C2C2; fill-opacity:1.0000; stroke:none;">
<circle cx="5.5202" cy="23.5262" r="0.3000" /> 
</g>
<g style="fill:#C2C2C2; fill-opacity:1.0000; stroke:none;">
<circle cx="4.9360" cy="36.4040" r="0.3000" /> 
</g>
<g style="fill:#C2C2C2; fill-opacity:1.0000; stroke:none;">
<circle cx="6.5362" cy="23.5262" r="0.3000" /> 
</g>
<g style="fill:#C2C2C2; fill-opacity:1.0000; stroke:none;">
<circle cx="35.7970" cy="19.7162" r="0.3000" /> 
</g>
<g style="fill:#C2C2C2; fill-opacity:1.0000; stroke:none;">
<circle cx="35.7970" cy="19.2083" r="0.3000" /> 
</g>
<g style="fill:#C2C2C2; fill-opacity:1.0000; stroke:none;">
<circle cx="5.4440" cy="36.4040" r="0.3000" /> 
</g>
<g style="fill:#C2C2C2; fill-opacity:1.0000; stroke:none;">
<circle cx="37.9560" cy="15.5252" r="0.3000" /> 
</g>
<g style="fill:#C2C2C2; fill-opacity:1.0000; stroke:none;">
<circle cx="37.9560" cy="15.0172" r="0.3000" /> 
</g>
<g style="fill:#C2C2C2; fill-opacity:1.0000; stroke:none;">
<circle cx="28.9898" cy="4.2476" r="0.3000" /> 
</g>
<g style="fill:#C2C2C2; fill-opacity:1.0000; stroke:none;">
<circle cx="5.9520" cy="36.4040" r="0.3000" /> 
</g>
<g style="fill:#C2C2C2; fill-opacity:1.0000; stroke:none;">
<circle cx="28.9898" cy="4.7556" r="0.3000" /> 
</g>
<g style="fill:#C2C2C2; fill-opacity:1.0000; stroke:none;">
<circle cx="11.4130" cy="27.8442" r="0.3000" /> 
</g>
<g style="fill:#C2C2C2; fill-opacity:1.0000; stroke:none;">
<circle cx="28.8900" cy="15.1442" r="0.3000" /> 
</g>
<g style="fill:#C2C2C2; fill-opacity:1.0000; stroke:none;">
<circle cx="28.8900" cy="15.6522" r="0.3000" /> 
</g>
<g style="fill:#C2C2C2; fill-opacity:1.0000; stroke:none;">
<circle cx="3.1580" cy="30.8414" r="0.3000" /> 
</g>
<g style="fill:#C2C2C2; fill-opacity:1.0000; stroke:none;">
<circle cx="23.7320" cy="15.5252" r="0.3000" /> 
</g>
<g style="fill:#C2C2C2; fill-opacity:1.0000; stroke:none;">
<circle cx="28.8900" cy="14.6362" r="0.3000" /> 
</g>
<g style="fill:#C2C2C2; fill-opacity:1.0000; stroke:none;">
<circle cx="13.1402" cy="16.6683" r="0.3000" /> 
</g>
<g style="fill:#C2C2C2; fill-opacity:1.0000; stroke:none;">
<circle cx="3.1580" cy="30.3334" r="0.3000" /> 
</g>
<g style="fill:#C2C2C2; fill-opacity:1.0000; stroke:none;">
<circle cx="23.8590" cy="15.0172" r="0.3000" /> 
</g>
<g style="fill:#C2C2C2; fill-opacity:1.0000; stroke:none;">
<circle cx="23.7320" cy="16.0332" r="0.3000" /> 
</g>
<g style="fill:#C2C2C2; fill-opacity:1.0000; stroke:none;">
<circle cx="11.0320" cy="18.5732" r="0.3000" /> 
</g>
<g style="fill:#C2C2C2; fill-opacity:1.0000; stroke:none;">
<circle cx="3.1580" cy="31.3494" r="0.3000" /> 
</g>
<g style="fill:#C2C2C2; fill-opacity:1.0000; stroke:none;">
<circle cx="11.0320" cy="19.0813" r="0.3000" /> 
</g>
<g style="fill:#C2C2C2; fill-opacity:1.0000; stroke:none;">
<circle cx="13.1402" cy="17.1762" r="0.3000" /> 
</g>
<g style="fill:#C2C2C2; fill-opacity:1.0000; stroke:none;">
<circle cx="13.1402" cy="17.6842" r="0.3000" /> 
</g>
<g style="fill:#C2C2C2; fill-opacity:1.0000; stroke:none;">
<circle cx="11.0320" cy="19.5892" r="0.3000" /> 
</g>
<g style="fill:#C2C2C2; fill-opacity:1.0000; stroke:none;">
<circle cx="2.6500" cy="19.5892" r="0.3000" /> 
</g>
<g style="fill:#C2C2C2; fill-opacity:1.0000; stroke:none;">
<circle cx="19.9220" cy="23.5262" r="0.3000" /> 
</g>
<g style="fill:#C2C2C2; fill-opacity:1.0000; stroke:none;">
<circle cx="19.9220" cy="23.0182" r="0.3000" /> 
</g>
<g style="fill:#C2C2C2; fill-opacity:1.0000; stroke:none;">
<circle cx="2.6500" cy="19.0813" r="0.3000" /> 
</g>
<g style="fill:#C2C2C2; fill-opacity:1.0000; stroke:none;">
<circle cx="2.6500" cy="18.5732" r="0.3000" /> 
</g>
<g style="fill:#C2C2C2; fill-opacity:1.0000; stroke:none;">
<circle cx="19.9220" cy="24.0343" r="0.3000" /> 
</g>
<g style="fill:#C2C2C2; fill-opacity:1.0000; stroke:none;">
<circle cx="35.5430" cy="8.2862" r="0.3000" /> 
</g>
<g style="fill:#C2C2C2; fill-opacity:1.0000; stroke:none;">
<circle cx="36.0510" cy="8.2862" r="0.3000" /> 
</g>
<g style="fill:#C2C2C2; fill-opacity:1.0000; stroke:none;">
<circle cx="36.5590" cy="8.2862" r="0.3000" /> 
</g>
<g style="fill:#C2C2C2; fill-opacity:1.0000; stroke:none;">
<circle cx="45.7030" cy="11.3342" r="0.3000" /> 
</g>
<g style="fill:#C2C2C2; fill-opacity:1.0000; stroke:none;">
<circle cx="37.6076" cy="38.2031" r="0.3000" /> 
</g>
<g style="fill:#C2C2C2; fill-opacity:1.0000; stroke:none;">
<circle cx="38.5954" cy="38.5084" r="0.3000" /> 
</g>
<g style="fill:#C2C2C2; fill-opacity:1.0000; stroke:none;">
<circle cx="43.1983" cy="35.8089" r="0.3000" /> 
</g>
<g style="fill:#C2C2C2; fill-opacity:1.0000; stroke:none;">
<circle cx="40.6230" cy="33.4922" r="0.3000" /> 
</g>
<g style="fill:#C2C2C2; fill-opacity:1.0000; stroke:none;">
<circle cx="38.1514" cy="33.9139" r="0.3000" /> 
</g>
<g style="fill:#C2C2C2; fill-opacity:1.0000; stroke:none;">
<circle cx="37.2878" cy="29.8438" r="0.3000" /> 
</g>
<g style="fill:#C2C2C2; fill-opacity:1.0000; stroke:none;">
<circle cx="40.5346" cy="29.3022" r="0.3000" /> 
</g>
<g style="fill:#C2C2C2; fill-opacity:1.0000; stroke:none;">
<circle cx="38.5954" cy="37.6823" r="0.3000" /> 
</g>
<g style="fill:#C2C2C2; fill-opacity:1.0000; stroke:none;">
<circle cx="35.9166" cy="35.7694" r="0.3000" /> 
</g>
<g style="fill:#C2C2C2; fill-opacity:1.0000; stroke:none;">
<circle cx="40.4960" cy="37.6994" r="0.3000" /> 
</g>
<g style="fill:#C2C2C2; fill-opacity:1.0000; stroke:none;">
<circle cx="43.1118" cy="32.0352" r="0.3000" /> 
</g>
<g style="fill:#C2C2C2; fill-opacity:1.0000; stroke:none;">
<circle cx="34.5450" cy="34.4232" r="0.3000" /> 
</g>
<g style="fill:#C2C2C2; fill-opacity:1.0000; stroke:none;">
<circle cx="35.3578" cy="34.4232" r="0.3000" /> 
</g>
<g style="fill:#C2C2C2; fill-opacity:1.0000; stroke:none;">
<circle cx="40.4960" cy="38.5123" r="0.3000" /> 
</g>
<g style="fill:#C2C2C2; fill-opacity:1.0000; stroke:none;">
<circle cx="38.1514" cy="33.0757" r="0.3000" /> 
</g>
<g style="fill:#C2C2C2; fill-opacity:1.0000; stroke:none;">
<circle cx="43.7722" cy="32.5613" r="0.3000" /> 
</g>
<g style="fill:#C2C2C2; fill-opacity:1.0000; stroke:none;">
<circle cx="34.5488" cy="32.5226" r="0.3000" /> 
</g>
<g style="fill:#C2C2C2; fill-opacity:1.0000; stroke:none;">
<circle cx="34.8498" cy="35.4392" r="0.3000" /> 
</g>
<g style="fill:#C2C2C2; fill-opacity:1.0000; stroke:none;">
<circle cx="43.1032" cy="34.9700" r="0.3000" /> 
</g>
<g style="fill:#C2C2C2; fill-opacity:1.0000; stroke:none;">
<circle cx="44.5812" cy="34.4618" r="0.3000" /> 
</g>
<g style="fill:#C2C2C2; fill-opacity:1.0000; stroke:none;">
<circle cx="38.1080" cy="29.9454" r="0.3000" /> 
</g>
<g style="fill:#C2C2C2; fill-opacity:1.0000; stroke:none;">
<circle cx="41.8817" cy="29.8590" r="0.3000" /> 
</g>
<g style="fill:#C2C2C2; fill-opacity:1.0000; stroke:none;">
<circle cx="44.5850" cy="32.5613" r="0.3000" /> 
</g>
<g style="fill:#C2C2C2; fill-opacity:1.0000; stroke:none;">
<circle cx="36.7036" cy="29.2596" r="0.3000" /> 
</g>
<g style="fill:#C2C2C2; fill-opacity:1.0000; stroke:none;">
<circle cx="41.5225" cy="28.7814" r="0.3000" /> 
</g>
<g style="fill:#C2C2C2; fill-opacity:1.0000; stroke:none;">
<circle cx="41.0427" cy="29.9540" r="0.3000" /> 
</g>
<g style="fill:#C2C2C2; fill-opacity:1.0000; stroke:none;">
<circle cx="35.3570" cy="30.6009" r="0.3000" /> 
</g>
<g style="fill:#C2C2C2; fill-opacity:1.0000; stroke:none;">
<circle cx="35.3750" cy="32.5226" r="0.3000" /> 
</g>
<g style="fill:#C2C2C2; fill-opacity:1.0000; stroke:none;">
<circle cx="41.8422" cy="37.1407" r="0.3000" /> 
</g>
<g style="fill:#C2C2C2; fill-opacity:1.0000; stroke:none;">
<circle cx="36.0182" cy="34.9492" r="0.3000" /> 
</g>
<g style="fill:#C2C2C2; fill-opacity:1.0000; stroke:none;">
<circle cx="37.6180" cy="28.7770" r="0.3000" /> 
</g>
<g style="fill:#C2C2C2; fill-opacity:1.0000; stroke:none;">
<circle cx="40.1150" cy="33.4922" r="0.3000" /> 
</g>
<g style="fill:#C2C2C2; fill-opacity:1.0000; stroke:none;">
<circle cx="43.2134" cy="31.2151" r="0.3000" /> 
</g>
<g style="fill:#C2C2C2; fill-opacity:1.0000; stroke:none;">
<circle cx="43.7550" cy="34.4618" r="0.3000" /> 
</g>
<g style="fill:#C2C2C2; fill-opacity:1.0000; stroke:none;">
<circle cx="42.4564" cy="29.2842" r="0.3000" /> 
</g>
<g style="fill:#C2C2C2; fill-opacity:1.0000; stroke:none;">
<circle cx="40.9786" cy="33.9149" r="0.3000" /> 
</g>
<g style="fill:#C2C2C2; fill-opacity:1.0000; stroke:none;">
<circle cx="38.6340" cy="29.2850" r="0.3000" /> 
</g>
<g style="fill:#C2C2C2; fill-opacity:1.0000; stroke:none;">
<circle cx="40.9786" cy="33.0767" r="0.3000" /> 
</g>
<g style="fill:#C2C2C2; fill-opacity:1.0000; stroke:none;">
<circle cx="44.2759" cy="35.4497" r="0.3000" /> 
</g>
<g style="fill:#C2C2C2; fill-opacity:1.0000; stroke:none;">
<circle cx="36.0268" cy="32.0145" r="0.3000" /> 
</g>
<g style="fill:#C2C2C2; fill-opacity:1.0000; stroke:none;">
<circle cx="34.8541" cy="31.5348" r="0.3000" /> 
</g>
<g style="fill:#C2C2C2; fill-opacity:1.0000; stroke:none;">
<circle cx="43.7976" cy="30.6309" r="0.3000" /> 
</g>
<g style="fill:#C2C2C2; fill-opacity:1.0000; stroke:none;">
<circle cx="44.2802" cy="31.5453" r="0.3000" /> 
</g>
<g style="fill:#C2C2C2; fill-opacity:1.0000; stroke:none;">
<circle cx="36.6736" cy="37.7002" r="0.3000" /> 
</g>
<g style="fill:#C2C2C2; fill-opacity:1.0000; stroke:none;">
<circle cx="37.2484" cy="37.1255" r="0.3000" /> 
</g>
<g style="fill:#C2C2C2; fill-opacity:1.0000; stroke:none;">
<circle cx="35.9318" cy="31.1756" r="0.3000" /> 
</g>
<g style="fill:#C2C2C2; fill-opacity:1.0000; stroke:none;">
<circle cx="42.4264" cy="37.7248" r="0.3000" /> 
</g>
<g style="fill:#C2C2C2; fill-opacity:1.0000; stroke:none;">
<circle cx="39.5650" cy="33.4922" r="0.3000" /> 
</g>
<g style="fill:#C2C2C2; fill-opacity:1.0000; stroke:none;">
<circle cx="35.3324" cy="36.3536" r="0.3000" /> 
</g>
<g style="fill:#C2C2C2; fill-opacity:1.0000; stroke:none;">
<circle cx="43.7730" cy="36.3836" r="0.3000" /> 
</g>
<g style="fill:#C2C2C2; fill-opacity:1.0000; stroke:none;">
<circle cx="41.5120" cy="38.2075" r="0.3000" /> 
</g>
<g style="fill:#C2C2C2; fill-opacity:1.0000; stroke:none;">
<circle cx="40.5346" cy="28.4760" r="0.3000" /> 
</g>
<g style="fill:#C2C2C2; fill-opacity:1.0000; stroke:none;">
<circle cx="38.5070" cy="33.4913" r="0.3000" /> 
</g>
<g style="fill:#C2C2C2; fill-opacity:1.0000; stroke:none;">
<circle cx="39.0150" cy="33.4913" r="0.3000" /> 
</g>
<g style="fill:#C2C2C2; fill-opacity:1.0000; stroke:none;">
<circle cx="41.0220" cy="37.0390" r="0.3000" /> 
</g>
<g style="fill:#C2C2C2; fill-opacity:1.0000; stroke:none;">
<circle cx="38.6340" cy="28.4722" r="0.3000" /> 
</g>
<g style="fill:#C2C2C2; fill-opacity:1.0000; stroke:none;">
<circle cx="38.0873" cy="37.0305" r="0.3000" /> 
</g>
<g style="fill:#C2C2C2; fill-opacity:1.0000; stroke:none;">
<circle cx="33.1300" cy="20.3513" r="0.3000" /> 
</g>
<g style="fill:#C2C2C2; fill-opacity:1.0000; stroke:none;">
<circle cx="34.1460" cy="20.3513" r="0.3000" /> 
</g>
<g style="fill:#C2C2C2; fill-opacity:1.0000; stroke:none;">
<circle cx="38.9720" cy="12.6042" r="0.3000" /> 
</g>
<g style="fill:#C2C2C2; fill-opacity:1.0000; stroke:none;">
<circle cx="38.2100" cy="13.3662" r="0.3000" /> 
</g>
<g style="fill:#C2C2C2; fill-opacity:1.0000; stroke:none;">
<circle cx="33.6380" cy="20.3513" r="0.3000" /> 
</g>
<g style="fill:#C2C2C2; fill-opacity:1.0000; stroke:none;">
<circle cx="38.5910" cy="12.9852" r="0.3000" /> 
</g>
<g style="fill:#C2C2C2; fill-opacity:1.0000; stroke:none;">
<circle cx="38.2100" cy="11.9692" r="0.3000" /> 
</g>
<g style="fill:#C2C2C2; fill-opacity:1.0000; stroke:none;">
<circle cx="37.4480" cy="12.7312" r="0.3000" /> 
</g>
<g style="fill:#C2C2C2; fill-opacity:1.0000; stroke:none;">
<circle cx="26.1450" cy="22.2562" r="0.3000" /> 
</g>
<g style="fill:#C2C2C2; fill-opacity:1.0000; stroke:none;">
<circle cx="25.0020" cy="22.2562" r="0.3000" /> 
</g>
<g style="fill:#C2C2C2; fill-opacity:1.0000; stroke:none;">
<circle cx="25.5720" cy="22.2562" r="0.3000" /> 
</g>
<g style="fill:#C2C2C2; fill-opacity:1.0000; stroke:none;">
<circle cx="37.8290" cy="12.3502" r="0.3000" /> 
</g>
<g style="fill:#C2C2C2; fill-opacity:1.0000; stroke:none;">
<circle cx="43.4170" cy="18.7003" r="0.3000" /> 
</g>
<g style="fill:#C2C2C2; fill-opacity:1.0000; stroke:none;">
<circle cx="43.4170" cy="19.2082" r="0.3000" /> 
</g>
<g style="fill:#C2C2C2; fill-opacity:1.0000; stroke:none;">
<circle cx="43.4170" cy="19.7162" r="0.3000" /> 
</g>
<g style="fill:none; 
stroke:#C2C200; stroke-width:0.2000; stroke-opacity:1; 
stroke-linecap:round; stroke-linejoin:round;">
<path d="M39.5580 39.0692
L36.8130 41.8143
" />
<path d="M39.5580 36.4122
L39.5580 39.0692
" />
<path style="fill:#C2C200; fill-opacity:1.0000; stroke:none;fill-rule:evenodd;"
d="M 39.9689,28.0535
39.9763,28.0541
40.3742,28.0989
40.3815,28.1000
40.4776,28.1182
40.7750,28.1745
40.7822,28.1761
41.1690,28.2798
41.1761,28.2819
41.5540,28.4142
41.5609,28.4169
41.9280,28.5771
41.9346,28.5802
42.2887,28.7674
42.2950,28.7710
42.6341,28.9841
42.6402,28.9883
42.9624,29.2261
42.9682,29.2307
43.2639,29.4851
43.2717,29.4919
43.2772,29.4969
43.5603,29.7801
43.5654,29.7855
43.8266,30.0890
43.8312,30.0948
44.0690,30.4170
44.0731,30.4231
44.2862,30.7622
44.2899,30.7686
44.4770,31.1226
44.4802,31.1293
44.6403,31.4963
44.6431,31.5032
44.7753,31.8812
44.7775,31.8883
44.8811,32.2751
44.8828,32.2823
44.9572,32.6757
44.9583,32.6831
45.0032,33.0810
45.0037,33.0884
45.0187,33.4885
45.0187,33.4959
45.0037,33.8961
45.0032,33.9035
44.9583,34.3014
44.9572,34.3087
44.8828,34.7022
44.8811,34.7094
44.7775,35.0962
44.7753,35.1033
44.6431,35.4812
44.6403,35.4881
44.4802,35.8552
44.4770,35.8618
44.2899,36.2159
44.2862,36.2223
44.0731,36.5613
44.0690,36.5675
43.8312,36.8896
43.8266,36.8954
43.5654,37.1990
43.5603,37.2044
43.2772,37.4875
43.2717,37.4926
42.9682,37.7538
42.9624,37.7584
42.6402,37.9962
42.6341,38.0004
42.2951,38.2134
42.2887,38.2171
41.9346,38.4042
41.9280,38.4074
41.5609,38.5676
41.5540,38.5703
41.1761,38.7025
41.1690,38.7047
40.7822,38.8084
40.7750,38.8100
40.3815,38.8844
40.3742,38.8855
40.2686,38.8974
40.2087,38.8852
40.1674,38.8400
40.1585,38.7991
40.1585,37.5699
40.1774,37.5117
40.2007,37.4888
40.3649,37.3738
40.5196,37.2191
40.6451,37.0399
40.7376,36.8416
40.7862,36.6600
40.8196,36.6087
40.8767,36.5868
40.9358,36.6026
40.9386,36.6045
40.9951,36.6441
41.1934,36.7366
41.4048,36.7932
41.4048,36.7932
41.4048,36.7932
41.6228,36.8123
41.6228,36.8123
41.6228,36.8123
41.8407,36.7932
41.8407,36.7932
41.8407,36.7932
42.0521,36.7366
42.2504,36.6441
42.4296,36.5186
42.5844,36.3639
42.7099,36.1846
42.8023,35.9863
42.8590,35.7750
42.8780,35.5570
42.8720,35.4881
42.8590,35.3390
42.8590,35.3390
42.8590,35.3390
42.8023,35.1277
42.7099,34.9293
42.6703,34.8729
42.6524,34.8144
42.6724,34.7565
42.7225,34.7214
42.7258,34.7205
42.9073,34.6718
43.1057,34.5793
43.2849,34.4538
43.4396,34.2991
43.5651,34.1199
43.6576,33.9216
43.7142,33.7102
43.7284,33.5483
43.7333,33.4922
43.7333,33.4922
43.7142,33.2743
43.7142,33.2743
43.7142,33.2743
43.6576,33.0629
43.6312,33.0062
43.5651,32.8646
43.5651,32.8646
43.4396,32.6854
43.4396,32.6854
43.4396,32.6854
43.2849,32.5306
43.2849,32.5306
43.2849,32.5306
43.1855,32.4610
43.1057,32.4051
42.9073,32.3127
42.7613,32.2735
42.7258,32.2640
42.6745,32.2307
42.6526,32.1736
42.6684,32.1145
42.6703,32.1117
42.7099,32.0551
42.8023,31.8568
42.8590,31.6455
42.8610,31.6218
42.8780,31.4275
42.8780,31.4275
42.8590,31.2095
42.8590,31.2095
42.8590,31.2095
42.8023,30.9982
42.7099,30.7998
42.5844,30.6206
42.4296,30.4659
42.4296,30.4659
42.4296,30.4659
42.2702,30.3543
42.2504,30.3404
42.0521,30.2479
41.8407,30.1913
41.8407,30.1913
41.8407,30.1913
41.6228,30.1722
41.6228,30.1722
41.4048,30.1913
41.1934,30.2479
40.9951,30.3404
40.9951,30.3404
40.9386,30.3799
40.8801,30.3978
40.8223,30.3779
40.7872,30.3278
40.7862,30.3245
40.7376,30.1429
40.6451,29.9446
40.5337,29.7855
40.5196,29.7654
40.5196,29.7654
40.5196,29.7654
40.3649,29.6106
40.3649,29.6106
40.3649,29.6106
40.2025,29.4969
40.1857,29.4851
39.9873,29.3927
39.7760,29.3360
39.7760,29.3360
39.7760,29.3360
39.5580,29.3170
39.5580,29.3170
39.3400,29.3360
39.1287,29.3927
38.9304,29.4851
38.9304,29.4851
38.7511,29.6106
38.5964,29.7654
38.4709,29.9446
38.4709,29.9446
38.3784,30.1429
38.3298,30.3245
38.2965,30.3758
38.2394,30.3977
38.1802,30.3819
38.1774,30.3799
38.1209,30.3404
37.9226,30.2479
37.7112,30.1913
37.7112,30.1913
37.7112,30.1913
37.4933,30.1722
37.4933,30.1722
37.2753,30.1913
37.0639,30.2479
36.8656,30.3404
36.8656,30.3404
36.6864,30.4659
36.5317,30.6206
36.4062,30.7998
36.4062,30.7999
36.3137,30.9981
36.2571,31.2095
36.2380,31.4275
36.2380,31.4275
36.2571,31.6455
36.2571,31.6455
36.2571,31.6455
36.3137,31.8568
36.3284,31.8883
36.4062,32.0551
36.4457,32.1116
36.4636,32.1701
36.4437,32.2280
36.3936,32.2631
36.3902,32.2640
36.2087,32.3127
36.0104,32.4051
36.0104,32.4051
35.8311,32.5306
35.6764,32.6854
35.5509,32.8646
35.5509,32.8646
35.4584,33.0629
35.4018,33.2743
35.3827,33.4922
35.3827,33.4922
35.4018,33.7102
35.4018,33.7102
35.4018,33.7102
35.4584,33.9216
35.5301,34.0752
35.5509,34.1199
35.6738,34.2954
35.6764,34.2991
35.8311,34.4538
35.8311,34.4538
35.8311,34.4538
35.8708,34.4816
36.0104,34.5793
36.2087,34.6718
36.3902,34.7205
36.4416,34.7538
36.4635,34.8109
36.4476,34.8700
36.4457,34.8729
36.4062,34.9294
36.4062,34.9294
36.3137,35.1277
36.2571,35.3390
36.2380,35.5570
36.2380,35.5570
36.2571,35.7750
36.2571,35.7750
36.2571,35.7750
36.3137,35.9863
36.4062,36.1846
36.5317,36.3639
36.6864,36.5186
36.8656,36.6441
37.0639,36.7366
37.2753,36.7932
37.2753,36.7932
37.2753,36.7932
37.4933,36.8123
37.4933,36.8123
37.4933,36.8123
37.7112,36.7932
37.7112,36.7932
37.7112,36.7932
37.9226,36.7366
38.1209,36.6441
38.1774,36.6045
38.2359,36.5867
38.2937,36.6066
38.3288,36.6567
38.3298,36.6600
38.3784,36.8416
38.4023,36.8926
38.4709,37.0399
38.5861,37.2044
38.5964,37.2191
38.7511,37.3738
38.9153,37.4888
38.9521,37.5376
38.9575,37.5699
38.9575,38.7795
38.9386,38.8377
38.9285,38.8495
38.9123,38.8657
38.8578,38.8934
38.8313,38.8940
38.7558,38.8855
38.7485,38.8844
38.3551,38.8100
38.3479,38.8084
37.9611,38.7047
37.9540,38.7025
37.5760,38.5703
37.5691,38.5676
37.2021,38.4074
37.1954,38.4042
36.8414,38.2171
36.8350,38.2134
36.6409,38.0914
36.4959,38.0004
36.4898,37.9962
36.1676,37.7584
36.1618,37.7538
35.8583,37.4926
35.8529,37.4875
35.5697,37.2044
35.5647,37.1990
35.3035,36.8954
35.2988,36.8896
35.2634,36.8416
35.0611,36.5675
35.0569,36.5613
34.9328,36.3639
34.8438,36.2223
34.8402,36.2159
34.6530,35.8618
34.6498,35.8552
34.4897,35.4881
34.4870,35.4812
34.4524,35.3824
34.3547,35.1033
34.3525,35.0962
34.2919,34.8700
34.2489,34.7094
34.2473,34.7022
34.2415,34.6718
34.1728,34.3087
34.1717,34.3014
34.1714,34.2991
34.1269,33.9035
34.1263,33.8961
34.1194,33.7102
34.1113,33.4959
34.1113,33.4885
34.1263,33.0884
34.1269,33.0810
34.1717,32.6831
34.1728,32.6757
34.2003,32.5306
34.2473,32.2823
34.2489,32.2751
34.3525,31.8883
34.3547,31.8812
34.3633,31.8568
34.4870,31.5032
34.4897,31.4964
34.6498,31.1293
34.6530,31.1227
34.8402,30.7686
34.8438,30.7622
35.0569,30.4231
35.0611,30.4170
35.2989,30.0948
35.3034,30.0891
35.5647,29.7855
35.5697,29.7801
35.8529,29.4969
35.8583,29.4919
36.1618,29.2307
36.1676,29.2261
36.4898,28.9883
36.4959,28.9841
36.8350,28.7710
36.8413,28.7674
37.1954,28.5802
37.2020,28.5771
37.5691,28.4169
37.5760,28.4142
37.9540,28.2819
37.9610,28.2798
38.3479,28.1761
38.3551,28.1745
38.7485,28.1000
38.7558,28.0989
39.1538,28.0541
39.1611,28.0535
39.5613,28.0386
39.5687,28.0386
Z" /> 
<path style="fill:#C2C200; fill-opacity:1.0000; stroke:none;fill-rule:evenodd;"
d="M 40.3585,31.6218
40.3936,31.6719
40.3945,31.6753
40.4432,31.8568
40.4579,31.8883
40.5357,32.0551
40.6586,32.2307
40.6612,32.2344
40.8159,32.3891
40.8159,32.3891
40.8159,32.3891
40.8556,32.4169
40.9951,32.5146
41.1934,32.6071
41.3750,32.6557
41.4263,32.6890
41.4482,32.7462
41.4324,32.8053
41.4305,32.8081
41.3909,32.8646
41.3909,32.8646
41.2984,33.0629
41.2418,33.2743
41.2227,33.4922
41.2227,33.4922
41.2418,33.7102
41.2418,33.7102
41.2418,33.7102
41.2984,33.9216
41.3701,34.0752
41.3909,34.1199
41.4305,34.1764
41.4484,34.2349
41.4284,34.2927
41.3783,34.3278
41.3750,34.3288
41.1934,34.3774
40.9951,34.4699
40.9951,34.4699
40.8159,34.5954
40.6612,34.7501
40.5357,34.9294
40.5357,34.9294
40.4432,35.1277
40.3945,35.3092
40.3612,35.3605
40.3041,35.3824
40.2450,35.3666
40.2421,35.3647
40.1857,35.3251
39.9873,35.2327
39.7760,35.1760
39.7760,35.1760
39.7760,35.1760
39.5580,35.1570
39.5580,35.1570
39.3400,35.1760
39.1287,35.2327
38.9304,35.3251
38.9304,35.3251
38.8739,35.3647
38.8154,35.3826
38.7575,35.3626
38.7224,35.3125
38.7215,35.3092
38.6728,35.1277
38.5804,34.9293
38.4966,34.8097
38.4549,34.7501
38.4549,34.7501
38.4549,34.7501
38.3001,34.5954
38.3001,34.5954
38.3001,34.5954
38.2007,34.5258
38.1209,34.4699
37.9226,34.3774
37.7853,34.3406
37.7410,34.3288
37.6897,34.2954
37.6678,34.2383
37.6836,34.1792
37.6855,34.1764
37.7251,34.1199
37.8176,33.9216
37.8742,33.7102
37.8884,33.5483
37.8933,33.4922
37.8933,33.4922
37.8742,33.2743
37.8742,33.2743
37.8742,33.2743
37.8176,33.0629
37.7912,33.0062
37.7251,32.8646
37.7251,32.8646
37.6856,32.8081
37.6677,32.7496
37.6876,32.6918
37.7377,32.6567
37.7410,32.6557
37.9226,32.6071
38.1209,32.5146
38.3001,32.3891
38.4549,32.2344
38.5804,32.0551
38.6728,31.8568
38.7215,31.6753
38.7548,31.6239
38.8119,31.6020
38.8710,31.6179
38.8739,31.6198
38.9304,31.6593
39.1287,31.7518
39.3400,31.8084
39.3400,31.8084
39.3400,31.8084
39.5580,31.8275
39.5580,31.8275
39.5580,31.8275
39.7760,31.8084
39.7760,31.8084
39.7760,31.8084
39.9873,31.7518
40.1857,31.6593
40.2421,31.6198
40.3006,31.6019
Z" /> 
<path style="fill:#C2C200; fill-opacity:1.0000; stroke:none;fill-rule:evenodd;"
d="M 39.6793,35.6750
39.6962,35.6780
39.8054,35.7072
39.8216,35.7131
39.9241,35.7609
39.9390,35.7695
39.9522,35.7788
39.9594,35.7837
39.9623,35.7857
39.9819,35.7983
40.1142,35.8549
40.1733,35.8707
40.2014,35.8774
40.2014,35.8774
40.2014,35.8774
40.2858,35.8826
40.3450,35.8863
40.3450,35.8863
40.3465,35.8864
40.4034,35.9089
40.4360,35.9596
40.4432,35.9863
40.5050,36.1188
40.5124,36.1795
40.4897,36.2258
40.3956,36.3334
40.3623,36.3847
40.3546,36.3969
40.3546,36.3969
40.2980,36.5292
40.2630,36.6596
40.2571,36.6759
40.2093,36.7783
40.2007,36.7933
40.1359,36.8858
40.1248,36.8991
40.0448,36.9790
40.0316,36.9901
39.9108,37.0747
39.9108,37.0747
39.8464,37.1282
39.8231,37.1511
39.8231,37.1511
39.7601,37.2264
39.6967,37.3555
39.6777,37.4137
39.6735,37.4275
39.6735,37.4275
39.6569,37.5427
39.6299,37.5976
39.5758,37.6262
39.5153,37.6175
39.4714,37.5748
39.4603,37.5368
39.4599,37.5329
39.4561,37.4864
39.4507,37.4542
39.4252,37.3595
39.3558,37.2334
39.3558,37.2334
39.3558,37.2334
39.3190,37.1846
39.3102,37.1732
39.3102,37.1732
39.2052,37.0747
39.2052,37.0747
39.0844,36.9901
39.0712,36.9790
38.9913,36.8991
38.9802,36.8858
38.9409,36.8297
38.9153,36.7933
38.9067,36.7783
38.8604,36.6790
38.8589,36.6759
38.8530,36.6596
38.8521,36.6562
38.8181,36.5292
38.8157,36.5207
38.8148,36.5173
38.8078,36.4951
38.7429,36.3667
38.7078,36.3166
38.6906,36.2935
38.6307,36.2365
38.6015,36.1827
38.6091,36.1229
38.6728,35.9863
38.6809,35.9564
38.7142,35.9051
38.7713,35.8831
38.7895,35.8839
38.8000,35.8853
38.8210,35.8880
38.9632,35.8660
39.0217,35.8481
39.0354,35.8437
39.1253,35.7983
39.1638,35.7788
39.1638,35.7788
39.1638,35.7788
39.1770,35.7695
39.1919,35.7609
39.2944,35.7131
39.3106,35.7072
39.4198,35.6780
39.4368,35.6750
39.5494,35.6651
39.5666,35.6651
Z" /> 
<path style="fill:#C2C200; fill-opacity:1.0000; stroke:none;fill-rule:evenodd;"
d="M 47.4982,2.2780
47.7541,2.2947
47.7669,2.2964
48.0152,2.3458
48.0277,2.3492
48.1038,2.3750
48.1529,2.4116
48.1710,2.4700
48.1513,2.5280
48.1014,2.5633
48.0720,2.5677
47.8813,2.5677
47.6706,2.6011
47.4677,2.6671
47.2776,2.7639
47.1050,2.8893
46.9541,3.0402
46.9281,3.0760
46.8786,3.1119
46.8174,3.1119
46.7679,3.0760
46.7419,3.0402
46.5910,2.8893
46.4184,2.7639
46.4184,2.7639
46.4184,2.7639
46.2283,2.6671
46.0254,2.6011
45.8147,2.5677
45.8147,2.5677
45.6013,2.5677
45.6013,2.5677
45.3906,2.6011
45.1877,2.6671
44.9976,2.7639
44.8706,2.8562
44.8124,2.8751
44.7542,2.8562
44.7320,2.8309
44.7310,2.8316
44.6405,2.7107
44.6405,2.7107
44.6405,2.7107
44.5514,2.6440
44.5253,2.6245
44.3905,2.5742
44.3905,2.5742
44.3905,2.5742
44.3905,2.5742
44.3592,2.5708
44.3309,2.5677
44.3309,2.5677
42.5251,2.5677
42.5251,2.5677
42.5251,2.5678
42.5179,2.5685
42.4655,2.5742
42.4655,2.5742
42.3307,2.6245
42.2155,2.7107
42.2154,2.7107
42.1292,2.8259
42.0789,2.9608
42.0789,2.9608
42.0725,3.0204
42.0725,4.9161
42.0725,4.9161
42.0789,4.9757
42.0789,4.9757
42.1292,5.1106
42.1756,5.1726
42.2155,5.2258
42.2155,5.2258
42.2155,5.2258
42.3307,5.3120
42.4655,5.3623
42.4655,5.3623
42.4655,5.3623
42.5251,5.3687
44.3309,5.3687
44.3905,5.3623
44.4628,5.3354
44.5253,5.3120
44.5253,5.3120
44.5253,5.3120
44.6405,5.2258
44.7268,5.1106
44.7268,5.1106
44.7310,5.1049
44.7327,5.1062
44.7700,5.0710
44.8306,5.0631
44.8706,5.0803
44.9976,5.1726
45.1877,5.2694
45.3906,5.3354
45.3906,5.3354
45.3906,5.3354
45.6013,5.3687
45.6013,5.3687
45.8147,5.3687
46.0254,5.3354
46.0254,5.3354
46.0254,5.3354
46.2283,5.2694
46.4184,5.1726
46.5910,5.0472
46.7419,4.8963
46.7679,4.8605
46.8174,4.8246
46.8786,4.8246
46.9281,4.8605
46.9281,4.8605
46.9541,4.8963
46.9541,4.8963
46.9541,4.8963
47.1050,5.0472
47.2776,5.1726
47.4677,5.2694
47.6706,5.3354
47.6706,5.3354
47.6706,5.3354
47.8813,5.3687
47.8813,5.3687
48.0947,5.3687
48.3054,5.3354
48.3054,5.3354
48.3054,5.3354
48.5083,5.2694
48.6984,5.1726
48.8710,5.0472
49.0219,4.8963
49.1473,4.7237
49.2442,4.5336
49.3101,4.3307
49.3245,4.2402
49.3522,4.1857
49.4067,4.1579
49.4672,4.1675
49.5104,4.2107
49.5210,4.2492
49.5243,4.2990
49.5245,4.3055
49.5245,41.7190
49.5243,41.7255
49.5075,41.9820
49.5058,41.9948
49.4563,42.2437
49.4529,42.2563
49.3713,42.4966
49.3664,42.5086
49.2541,42.7362
49.2477,42.7474
49.1066,42.9584
49.0988,42.9687
48.9314,43.1595
48.9223,43.1687
48.7314,43.3360
48.7212,43.3439
48.5101,43.4849
48.4989,43.4914
48.2713,43.6036
48.2593,43.6086
48.0190,43.6902
48.0065,43.6935
47.7576,43.7430
47.7447,43.7447
47.4882,43.7615
47.4818,43.7617
2.5682,43.7617
2.5618,43.7615
2.3053,43.7447
2.2924,43.7430
2.0435,43.6935
2.0310,43.6902
1.7939,43.6097
1.7819,43.6047
1.5636,43.4970
1.5524,43.4906
1.3419,43.3499
1.3316,43.3420
1.1413,43.1751
1.1321,43.1660
1.1264,43.1595
1.0487,43.0708
0.9652,42.9757
0.9573,42.9654
0.8167,42.7549
0.8102,42.7437
0.6982,42.5166
0.6933,42.5047
0.6367,42.3381
0.6119,42.2650
0.6086,42.2525
0.5592,42.0042
0.5575,41.9913
0.5569,41.9820
0.5407,41.7355
0.5405,41.7290
0.5405,36.4040
4.1304,36.4040
4.1506,36.5833
4.1506,36.5833
4.2102,36.7536
4.2102,36.7536
4.2978,36.8929
4.3062,36.9063
4.4337,37.0339
4.4337,37.0339
4.4337,37.0339
4.5839,37.1282
4.5865,37.1298
4.6468,37.1510
4.7567,37.1894
4.7567,37.1894
4.7567,37.1894
4.9360,37.2096
5.1153,37.1894
5.1573,37.1747
5.2185,37.1733
5.2227,37.1747
5.2647,37.1894
5.4440,37.2096
5.6233,37.1894
5.6653,37.1747
5.7265,37.1733
5.7307,37.1747
5.7727,37.1894
5.9520,37.2096
6.1313,37.1894
6.3015,37.1298
6.3452,37.1024
16.7525,37.1024
16.7525,38.7221
16.7525,38.7221
16.7525,38.7221
16.7540,38.7365
16.7589,38.7817
16.7589,38.7817
16.8092,38.9166
16.8677,38.9948
16.8955,39.0318
16.8955,39.0318
16.8955,39.0318
17.0107,39.1180
17.1455,39.1683
17.1455,39.1683
17.1455,39.1683
17.2051,39.1747
18.8249,39.1747
18.8845,39.1683
18.9519,39.1432
19.0193,39.1180
19.0193,39.1180
19.0193,39.1180
19.1345,39.0318
19.2208,38.9166
19.2333,38.8831
19.2590,38.8142
19.2711,38.7817
19.2775,38.7221
19.2775,38.6029
19.2964,38.5447
19.3459,38.5087
19.4071,38.5087
19.4566,38.5447
19.4576,38.5461
19.5764,38.7157
19.5842,38.7269
19.7404,38.8831
19.9213,39.0098
20.1215,39.1031
20.3349,39.1603
20.3349,39.1603
20.3349,39.1603
20.5550,39.1796
20.5550,39.1796
20.5550,39.1796
20.7751,39.1603
20.7751,39.1603
20.7751,39.1603
20.9885,39.1031
21.1887,39.0098
21.3696,38.8831
21.5258,38.7269
21.6525,38.5459
21.7448,38.3481
21.7865,38.3033
21.8466,38.2916
21.9020,38.3175
21.9242,38.3481
22.0125,38.5373
22.1374,38.7157
22.2915,38.8698
22.2915,38.8698
22.2915,38.8698
22.3105,38.8831
22.4700,38.9948
22.6675,39.0869
22.8779,39.1433
22.8779,39.1433
22.8779,39.1433
23.0950,39.1623
23.0950,39.1623
23.0950,39.1623
23.3121,39.1433
23.3121,39.1433
23.3121,39.1433
23.5225,39.0869
23.7200,38.9948
23.8985,38.8698
24.0526,38.7157
24.1775,38.5373
24.2658,38.3481
24.3075,38.3033
24.3675,38.2916
24.4230,38.3175
24.4452,38.3481
24.5201,38.5087
24.5375,38.5459
24.6564,38.7157
24.6642,38.7269
24.8204,38.8831
25.0013,39.0098
25.2015,39.1031
25.4149,39.1603
25.4149,39.1603
25.4149,39.1603
25.6350,39.1796
25.6350,39.1796
25.6350,39.1796
25.8551,39.1603
25.8551,39.1603
25.8551,39.1603
26.0684,39.1031
26.2687,39.0098
26.4496,38.8831
26.6058,38.7269
26.7325,38.5459
26.8259,38.3457
26.8831,38.1323
26.9023,37.9123
26.9023,37.9122
26.8831,37.6922
26.8831,37.6922
26.8831,37.6922
26.8259,37.4788
26.7325,37.2786
26.6058,37.0976
26.4496,36.9414
26.4496,36.9414
26.4496,36.9414
26.2901,36.8297
26.2687,36.8147
26.0684,36.7214
25.8551,36.6642
25.8551,36.6642
25.8551,36.6642
25.6350,36.6449
25.6350,36.6449
25.4149,36.6642
25.3513,36.6812
25.2015,36.7214
25.1082,36.7649
25.0013,36.8147
24.8204,36.9414
24.6642,37.0976
24.5375,37.2786
24.5375,37.2786
24.4452,37.4764
24.4035,37.5212
24.3434,37.5329
24.2880,37.5070
24.2658,37.4764
24.1775,37.2873
24.0673,37.1298
24.0526,37.1088
24.0526,37.1088
24.0526,37.1088
23.8985,36.9547
23.8985,36.9547
23.8985,36.9547
23.7995,36.8854
23.7200,36.8297
23.5225,36.7376
23.3121,36.6812
23.3121,36.6812
23.3121,36.6812
23.0950,36.6623
23.0950,36.6623
22.8779,36.6812
22.6675,36.7376
22.4700,36.8297
22.2915,36.9547
22.1374,37.1088
22.0125,37.2873
22.0125,37.2873
21.9242,37.4764
21.8825,37.5212
21.8225,37.5329
21.7670,37.5070
21.7448,37.4764
21.6525,37.2786
21.5258,37.0976
21.3696,36.9414
21.3696,36.9414
21.3696,36.9414
21.2101,36.8297
21.1887,36.8147
20.9885,36.7214
20.7751,36.6642
20.7751,36.6642
20.7751,36.6642
20.5550,36.6449
20.5550,36.6449
20.3349,36.6642
20.2713,36.6812
20.1215,36.7214
20.0282,36.7649
19.9213,36.8147
19.7404,36.9414
19.5842,37.0976
19.4576,37.2784
19.4087,37.3152
19.3476,37.3163
19.2974,37.2812
19.2775,37.2233
19.2775,37.2216
19.2775,37.1024
19.2775,37.1024
19.2711,37.0428
19.2678,37.0339
19.2208,36.9079
19.1345,36.7927
19.1345,36.7927
19.1345,36.7927
19.1345,36.7927
19.0193,36.7065
18.8845,36.6562
18.8845,36.6562
18.8845,36.6562
18.8845,36.6562
18.8532,36.6528
18.8249,36.6497
18.8249,36.6497
17.2051,36.6497
17.2051,36.6497
17.2051,36.6498
17.1979,36.6505
17.1455,36.6562
17.1455,36.6562
17.0107,36.7065
16.8955,36.7927
16.8955,36.7927
16.8092,36.9079
16.7589,37.0428
16.7589,37.0428
16.7555,37.0747
16.7530,37.0976
16.7525,37.1024
6.3452,37.1024
6.4543,37.0339
6.5818,36.9063
6.6778,36.7536
6.7374,36.5833
6.7576,36.4040
6.7374,36.2248
6.6778,36.0545
6.6603,36.0266
6.5818,35.9018
6.5818,35.9018
6.5818,35.9018
6.4543,35.7742
6.4543,35.7742
6.4543,35.7742
6.3015,35.6783
6.1313,35.6187
6.1313,35.6187
5.9520,35.5985
5.7727,35.6187
5.7727,35.6187
5.7307,35.6334
5.6695,35.6348
5.6653,35.6334
5.6233,35.6187
5.6233,35.6187
5.4440,35.5985
5.2647,35.6187
5.2647,35.6187
5.2227,35.6334
5.1615,35.6348
5.1573,35.6334
5.1153,35.6187
5.1153,35.6187
4.9360,35.5985
4.7567,35.6187
4.7567,35.6187
4.5865,35.6783
4.5865,35.6783
4.4337,35.7742
4.3062,35.9018
4.2102,36.0545
4.2102,36.0545
4.1506,36.2248
4.1506,36.2248
4.1304,36.4040
0.5405,36.4040
0.5405,34.1022
16.0094,34.1022
16.0298,34.3877
16.0906,34.6673
16.1906,34.9354
16.1906,34.9354
16.3278,35.1866
16.3278,35.1866
16.4993,35.4156
16.7016,35.6180
16.9307,35.7895
16.9307,35.7895
17.1082,35.8864
17.1818,35.9266
17.4500,36.0266
17.7296,36.0874
18.0150,36.1079
18.3004,36.0874
18.5800,36.0266
18.8482,35.9266
19.0993,35.7895
19.3284,35.6180
19.5307,35.4156
19.7022,35.1866
19.8394,34.9354
19.9394,34.6673
20.0002,34.3877
20.0206,34.1022
21.0894,34.1022
21.1098,34.3877
21.1706,34.6673
21.2706,34.9354
21.2706,34.9354
21.4078,35.1866
21.4078,35.1866
21.5793,35.4156
21.7816,35.6180
22.0107,35.7895
22.0107,35.7895
22.1882,35.8864
22.2618,35.9266
22.5300,36.0266
22.8096,36.0874
23.0950,36.1079
23.3804,36.0874
23.6600,36.0266
23.9282,35.9266
24.1793,35.7895
24.3057,35.6949
24.3636,35.6751
24.4220,35.6932
24.4243,35.6949
24.5507,35.7895
24.5507,35.7895
24.7282,35.8864
24.8018,35.9266
25.0700,36.0266
25.3496,36.0874
25.6350,36.1079
25.9204,36.0874
26.2000,36.0266
26.4682,35.9266
26.7193,35.7895
26.8457,35.6949
26.9036,35.6751
26.9620,35.6932
26.9643,35.6949
27.0907,35.7895
27.0907,35.7895
27.2682,35.8864
27.3418,35.9266
27.6100,36.0266
27.8896,36.0874
28.1750,36.1079
28.4604,36.0874
28.7400,36.0266
29.0082,35.9266
29.2593,35.7895
29.4884,35.6180
29.6907,35.4156
29.8622,35.1866
29.9994,34.9354
30.0994,34.6673
30.1602,34.3877
30.1806,34.1022
30.1602,33.8168
30.0994,33.5372
30.0617,33.4362
31.0161,33.4362
31.0161,33.5483
31.0358,34.0752
31.0442,34.1870
31.1032,34.7109
31.1199,34.8218
31.2179,35.3399
31.2429,35.4492
31.3136,35.7131
31.3641,35.9018
31.3793,35.9585
31.4124,36.0657
31.5746,36.5292
31.5865,36.5633
31.6275,36.6677
31.8383,37.1510
31.8545,37.1846
31.8870,37.2520
32.1334,37.7181
32.1895,37.8153
32.2504,37.9123
32.4699,38.2617
32.5331,38.3544
32.5331,38.3544
32.5331,38.3544
32.8080,38.7269
32.8462,38.7786
32.8746,38.8142
32.9162,38.8663
33.2600,39.2659
33.2600,39.2659
33.3363,39.3481
33.7091,39.7209
33.7092,39.7209
33.7092,39.7209
33.7914,39.7972
34.1910,40.1411
34.1910,40.1411
34.1910,40.1411
34.2787,40.2110
34.7029,40.5241
34.7956,40.5873
35.0188,40.7276
35.2420,40.8678
35.2420,40.8678
35.3391,40.9239
35.8052,41.1702
35.9063,41.2189
36.3895,41.4297
36.4939,41.4707
36.6984,41.5423
36.9916,41.6448
36.9916,41.6448
37.0988,41.6779
37.6080,41.8144
37.6872,41.8324
37.7174,41.8393
37.9408,41.8816
38.2354,41.9373
38.3463,41.9541
38.8702,42.0131
38.9821,42.0215
39.5089,42.0412
39.5089,42.0412
39.6211,42.0412
39.6211,42.0412
40.1480,42.0215
40.2598,42.0131
40.7837,41.9541
40.8946,41.9373
41.2666,41.8670
41.4126,41.8393
41.4127,41.8393
41.5220,41.8144
41.8943,41.7146
41.9554,41.7178
42.0029,41.7563
42.0063,41.7623
42.0064,41.7622
42.0078,41.7647
42.0078,41.7647
42.1797,42.0624
42.3849,42.3381
42.6208,42.5881
42.8840,42.8090
43.1712,42.9978
43.4783,43.1521
43.8013,43.2696
43.8013,43.2696
43.8013,43.2696
44.1357,43.3489
44.1357,43.3489
44.1357,43.3489
44.4771,43.3888
44.4771,43.3888
44.8208,43.3888
44.8208,43.3888
45.1622,43.3489
45.1622,43.3489
45.1622,43.3489
45.3851,43.2961
45.4966,43.2696
45.8196,43.1521
46.1267,42.9978
46.4139,42.8090
46.6771,42.5881
46.9130,42.3381
47.1182,42.0624
47.2901,41.7647
47.4262,41.4491
47.5248,41.1199
47.5845,40.7814
47.6044,40.4383
47.5845,40.0952
47.5248,39.7567
47.4262,39.4275
47.2901,39.1119
47.1182,38.8142
46.9130,38.5385
46.7094,38.3227
46.6832,38.2674
46.6945,38.2073
46.6975,38.2021
46.9406,37.8153
46.9967,37.7181
47.2430,37.2520
47.2917,37.1510
47.5025,36.6677
47.5435,36.5633
47.7176,36.0657
47.7507,35.9585
47.8871,35.4492
47.9121,35.3399
48.0101,34.8218
48.0268,34.7109
48.0859,34.1870
48.0943,34.0752
48.1140,33.5483
48.1140,33.4361
48.0943,32.9093
48.0859,32.7974
48.0268,32.2735
48.0101,32.1626
47.9121,31.6446
47.8871,31.5352
47.7507,31.0260
47.7176,30.9188
47.5435,30.4212
47.5025,30.3167
47.2917,29.8335
47.2430,29.7325
46.9967,29.2663
46.9406,29.1692
46.6601,28.7228
46.5969,28.6301
46.2838,28.2059
46.2139,28.1182
46.2139,28.1182
45.8700,27.7186
45.7937,27.6364
45.7937,27.6364
45.7937,27.6364
45.4209,27.2636
45.3568,27.2041
45.3387,27.1873
44.9391,26.8434
44.8513,26.7734
44.4272,26.4604
44.4272,26.4604
44.4272,26.4604
44.3345,26.3972
44.2121,26.3202
43.8881,26.1167
43.7909,26.0606
43.3248,25.8142
43.2616,25.7838
43.2237,25.7656
42.7405,25.5547
42.6361,25.5138
42.6361,25.5137
42.6361,25.5137
42.1385,25.3396
42.0313,25.3066
41.5220,25.1701
41.4126,25.1451
40.8946,25.0471
40.7837,25.0304
40.2598,24.9714
40.1480,24.9630
39.8516,24.9519
39.6211,24.9433
39.5089,24.9433
39.2920,24.9514
38.9821,24.9630
38.8702,24.9714
38.3463,25.0304
38.2354,25.0471
37.7174,25.1451
37.6080,25.1701
37.2503,25.2660
37.1892,25.2628
37.1416,25.2243
37.1389,25.2199
36.9682,24.9242
36.7630,24.6485
36.5271,24.3985
36.2639,24.1776
36.0459,24.0343
35.9767,23.9888
35.6696,23.8345
35.6696,23.8345
35.6696,23.8345
35.3466,23.7170
35.3466,23.7170
35.3466,23.7170
35.0122,23.6377
34.9216,23.6271
34.6708,23.5978
34.3271,23.5978
34.1152,23.6226
33.9857,23.6377
33.6513,23.7170
33.4774,23.7802
33.3283,23.8345
33.3283,23.8345
33.3283,23.8345
33.0212,23.9888
32.7340,24.1776
32.4708,24.3985
32.2349,24.6485
32.0297,24.9242
32.0297,24.9242
31.8578,25.2219
31.8578,25.2219
31.7217,25.5375
31.7217,25.5375
31.6231,25.8667
31.6231,25.8667
31.5634,26.2052
31.5434,26.5483
31.5634,26.8914
31.6231,27.2299
31.6231,27.2299
31.6680,27.3798
31.7217,27.5591
31.8578,27.8747
32.0297,28.1724
32.2349,28.4481
32.2349,28.4481
32.4270,28.6517
32.4532,28.7070
32.4419,28.7671
32.4388,28.7723
32.1895,29.1692
32.1334,29.2663
31.8870,29.7325
31.8448,29.8201
31.8383,29.8335
31.6275,30.3167
31.5865,30.4212
31.4124,30.9188
31.3793,31.0260
31.2429,31.5352
31.2179,31.6446
31.1199,32.1626
31.1032,32.2735
31.0442,32.7974
31.0358,32.9093
31.0161,33.4362
30.0617,33.4362
29.9994,33.2691
29.8622,33.0179
29.6907,32.7889
29.4884,32.5865
29.2593,32.4150
29.2593,32.4150
29.0082,32.2779
29.0082,32.2779
28.7401,32.1779
28.7400,32.1779
28.4604,32.1171
28.4604,32.1171
28.4604,32.1171
28.1750,32.0966
27.8896,32.1171
27.6099,32.1779
27.3418,32.2779
27.3418,32.2779
27.0907,32.4150
26.9643,32.5096
26.9064,32.5293
26.8480,32.5113
26.8457,32.5096
26.7193,32.4150
26.4682,32.2779
26.4682,32.2779
26.2000,32.1779
26.2000,32.1779
25.9204,32.1171
25.9204,32.1171
25.9204,32.1171
25.6350,32.0966
25.3496,32.1171
25.0699,32.1779
24.8018,32.2779
24.8018,32.2779
24.5507,32.4150
24.4243,32.5096
24.3664,32.5293
24.3080,32.5113
24.3057,32.5096
24.1793,32.4150
23.9282,32.2779
23.9282,32.2779
23.6600,32.1779
23.6600,32.1779
23.3804,32.1171
23.3804,32.1171
23.3804,32.1171
23.0950,32.0966
22.8096,32.1171
22.5299,32.1779
22.2618,32.2779
22.2618,32.2779
22.0107,32.4150
21.7816,32.5865
21.5793,32.7889
21.4078,33.0179
21.2706,33.2691
21.2706,33.2691
21.1706,33.5372
21.1098,33.8168
21.0894,34.1022
20.0206,34.1022
20.0002,33.8168
19.9394,33.5372
19.8394,33.2691
19.7022,33.0179
19.5307,32.7889
19.3284,32.5865
19.0993,32.4150
19.0993,32.4150
18.8482,32.2779
18.8482,32.2779
18.5800,32.1779
18.5800,32.1779
18.3004,32.1171
18.3004,32.1171
18.3004,32.1171
18.0150,32.0966
17.7296,32.1171
17.4499,32.1779
17.1818,32.2779
17.1818,32.2779
16.9307,32.4150
16.7016,32.5865
16.4993,32.7889
16.3278,33.0179
16.1906,33.2691
16.1906,33.2691
16.0906,33.5372
16.0298,33.8168
16.0094,34.1022
0.5405,34.1022
0.5405,25.5582
23.3074,25.5582
23.3276,25.7375
23.3276,25.7375
23.3423,25.7796
23.3437,25.8407
23.3423,25.8449
23.3276,25.8870
23.3276,25.8870
23.3074,26.0663
23.3276,26.2455
23.3276,26.2455
23.3423,26.2876
23.3437,26.3487
23.3423,26.3529
23.3276,26.3950
23.3276,26.3950
23.3074,26.5742
23.3276,26.7535
23.3276,26.7535
23.3872,26.9238
23.3872,26.9238
23.4832,27.0765
23.4832,27.0765
23.6107,27.2041
23.6107,27.2041
23.6107,27.2041
23.6518,27.2299
23.7635,27.3000
23.8317,27.3239
23.9337,27.3596
23.9337,27.3596
23.9337,27.3596
24.1130,27.3798
24.2923,27.3596
24.4625,27.3000
24.6153,27.2041
24.7428,27.0765
24.8388,26.9238
24.8984,26.7535
24.9186,26.5742
24.8984,26.3950
24.8837,26.3529
24.8823,26.2918
24.8837,26.2876
24.8984,26.2455
24.8984,26.2455
24.8984,26.2455
24.9186,26.0663
24.8984,25.8870
24.8837,25.8449
24.8823,25.7838
24.8837,25.7796
24.8886,25.7656
24.8984,25.7375
24.9186,25.5582
24.8984,25.3790
24.8388,25.2087
24.7988,25.1451
24.7428,25.0560
24.7428,25.0560
24.7428,25.0560
24.6153,24.9284
24.6153,24.9284
24.6153,24.9284
24.4625,24.8325
24.2923,24.7729
24.2923,24.7729
24.1130,24.7527
23.9337,24.7729
23.9337,24.7729
23.7635,24.8325
23.7635,24.8325
23.6107,24.9284
23.4832,25.0560
23.3872,25.2087
23.3872,25.2087
23.3276,25.3790
23.3276,25.3790
23.3074,25.5582
0.5405,25.5582
0.5405,23.5262
4.7146,23.5262
4.7348,23.7055
4.7348,23.7055
4.7944,23.8758
4.7944,23.8758
4.8904,24.0285
4.8904,24.0285
5.0179,24.1561
5.0179,24.1561
5.0179,24.1561
5.1707,24.2520
5.1707,24.2520
5.2389,24.2759
5.3409,24.3116
5.3409,24.3116
5.3409,24.3116
5.5202,24.3318
5.6995,24.3116
5.7415,24.2969
5.8027,24.2955
5.8069,24.2969
5.8489,24.3116
6.0282,24.3318
6.2075,24.3116
6.2495,24.2969
6.3107,24.2955
6.3149,24.2969
6.3569,24.3116
6.5362,24.3318
6.7155,24.3116
6.8857,24.2520
7.0385,24.1561
7.1660,24.0285
7.2620,23.8758
7.3216,23.7055
7.3418,23.5262
7.3216,23.3470
7.3216,23.3470
7.2954,23.2722
7.2620,23.1767
7.1660,23.0240
7.1603,23.0182
19.1164,23.0182
19.1366,23.1975
19.1366,23.1975
19.1513,23.2396
19.1527,23.3007
19.1513,23.3049
19.1366,23.3470
19.1366,23.3470
19.1164,23.5262
19.1366,23.7055
19.1366,23.7055
19.1513,23.7476
19.1527,23.8087
19.1513,23.8129
19.1366,23.8550
19.1366,23.8550
19.1164,24.0343
19.1366,24.2135
19.1366,24.2135
19.1962,24.3838
19.1962,24.3838
19.2055,24.3985
19.2922,24.5365
19.4197,24.6641
19.5725,24.7600
19.6092,24.7729
19.7427,24.8196
19.7427,24.8196
19.7427,24.8196
19.9220,24.8398
20.1013,24.8196
20.2715,24.7600
20.4243,24.6641
20.5518,24.5365
20.6478,24.3838
20.7074,24.2135
20.7276,24.0343
20.7074,23.8550
20.6927,23.8129
20.6913,23.7518
20.6927,23.7476
20.7074,23.7055
20.7074,23.7055
20.7074,23.7055
20.7276,23.5262
20.7074,23.3470
20.7074,23.3470
20.6927,23.3049
20.6913,23.2438
20.6927,23.2396
20.7074,23.1975
20.7074,23.1975
20.7074,23.1975
20.7276,23.0182
20.7074,22.8390
20.6939,22.8005
20.6730,22.7409
20.6478,22.6687
20.5518,22.5160
20.4243,22.3884
20.4243,22.3884
20.4243,22.3884
20.2715,22.2925
20.1680,22.2562
24.1964,22.2562
24.2166,22.4355
24.2166,22.4355
24.2762,22.6058
24.2762,22.6058
24.3722,22.7585
24.3722,22.7585
24.4997,22.8861
24.4997,22.8861
24.4997,22.8861
24.5162,22.8964
24.6525,22.9820
24.7155,23.0041
24.8227,23.0416
24.8227,23.0416
24.8227,23.0416
25.0020,23.0618
25.1813,23.0416
25.2543,23.0161
25.3155,23.0147
25.3197,23.0160
25.3927,23.0416
25.5720,23.0618
25.7513,23.0416
25.8258,23.0155
25.8870,23.0142
25.8912,23.0155
25.9657,23.0416
26.1450,23.0618
26.3243,23.0416
26.4945,22.9820
26.6473,22.8861
26.7748,22.7585
26.8708,22.6058
26.9304,22.4355
26.9506,22.2562
26.9304,22.0770
26.8708,21.9067
26.7748,21.7540
26.6473,21.6264
26.6473,21.6264
26.6473,21.6264
26.4945,21.5305
26.3243,21.4709
26.3243,21.4709
26.1450,21.4507
25.9657,21.4709
25.8912,21.4970
25.8300,21.4983
25.8258,21.4970
25.7513,21.4709
25.5720,21.4507
25.3927,21.4709
25.3197,21.4964
25.2585,21.4978
25.2543,21.4964
25.1813,21.4709
25.0020,21.4507
24.8227,21.4709
24.8227,21.4709
24.6525,21.5305
24.6525,21.5305
24.4997,21.6264
24.3722,21.7540
24.2762,21.9067
24.2762,21.9067
24.2166,22.0770
24.2166,22.0770
24.1964,22.2562
20.1680,22.2562
20.1013,22.2329
20.1013,22.2329
19.9220,22.2127
19.7427,22.2329
19.7427,22.2329
19.5725,22.2925
19.5725,22.2925
19.4197,22.3884
19.2922,22.5160
19.1962,22.6687
19.1962,22.6687
19.1366,22.8390
19.1366,22.8390
19.1164,23.0182
7.1603,23.0182
7.0385,22.8964
7.0385,22.8964
7.0385,22.8964
6.8857,22.8005
6.7155,22.7409
6.7155,22.7409
6.5362,22.7207
6.3569,22.7409
6.3149,22.7556
6.2537,22.7570
6.2495,22.7556
6.2075,22.7409
6.0282,22.7207
5.8489,22.7409
5.8489,22.7409
5.8069,22.7556
5.7457,22.7570
5.7415,22.7556
5.6995,22.7409
5.6995,22.7409
5.5202,22.7207
5.3409,22.7409
5.3409,22.7409
5.1707,22.8005
5.1707,22.8005
5.0179,22.8964
4.8904,23.0240
4.7944,23.1767
4.7944,23.1767
4.7348,23.3470
4.7348,23.3470
4.7146,23.5262
0.5405,23.5262
0.5405,18.5732
1.8444,18.5732
1.8646,18.7525
1.8646,18.7525
1.8793,18.7946
1.8807,18.8557
1.8793,18.8599
1.8646,18.9020
1.8646,18.9020
1.8444,19.0813
1.8646,19.2605
1.8646,19.2605
1.8793,19.3026
1.8807,19.3637
1.8793,19.3679
1.8646,19.4100
1.8646,19.4100
1.8444,19.5892
1.8646,19.7685
1.8646,19.7685
1.9242,19.9388
1.9242,19.9388
2.0040,20.0658
2.0202,20.0915
2.1477,20.2191
2.3005,20.3150
2.3687,20.3389
2.4707,20.3746
2.4707,20.3746
2.4707,20.3746
2.6500,20.3948
2.8293,20.3746
2.8960,20.3513
32.3244,20.3513
32.3446,20.5305
32.3446,20.5305
32.4042,20.7008
32.4042,20.7008
32.5002,20.8535
32.5002,20.8535
32.6277,20.9811
32.7805,21.0770
32.8487,21.1009
32.9507,21.1366
32.9507,21.1366
32.9507,21.1366
33.1300,21.1568
33.3093,21.1366
33.3513,21.1219
33.4125,21.1205
33.4167,21.1219
33.4587,21.1366
33.6380,21.1568
33.8173,21.1366
33.8593,21.1219
33.9205,21.1205
33.9247,21.1219
33.9667,21.1366
34.1460,21.1568
34.3253,21.1366
34.4955,21.0770
34.6483,20.9811
34.7758,20.8535
34.8718,20.7008
34.9314,20.5305
34.9516,20.3513
34.9516,20.3512
34.9516,20.3512
34.9348,20.2024
34.9471,20.1425
34.9922,20.1012
35.0530,20.0943
35.1062,20.1245
35.1170,20.1386
35.1672,20.2185
35.1672,20.2185
35.1672,20.2185
35.2947,20.3461
35.2947,20.3461
35.2947,20.3461
35.3723,20.3948
35.4475,20.4420
35.5157,20.4659
35.6177,20.5016
35.6177,20.5016
35.6177,20.5016
35.7970,20.5218
35.9763,20.5016
36.1465,20.4420
36.2993,20.3461
36.4268,20.2185
36.5228,20.0658
36.5824,19.8955
36.6026,19.7162
36.5824,19.5370
36.5677,19.4949
36.5663,19.4338
36.5676,19.4296
36.5824,19.3875
36.6026,19.2083
36.5824,19.0290
36.5824,19.0290
36.5824,19.0290
36.5677,18.9869
36.5663,18.9258
36.5676,18.9216
36.5824,18.8795
36.6026,18.7003
36.6026,18.7003
42.6114,18.7003
42.6316,18.8795
42.6316,18.8795
42.6463,18.9216
42.6477,18.9827
42.6463,18.9869
42.6316,19.0290
42.6316,19.0290
42.6114,19.2082
42.6316,19.3875
42.6316,19.3875
42.6463,19.4296
42.6477,19.4907
42.6463,19.4949
42.6316,19.5370
42.6114,19.7162
42.6316,19.8955
42.6316,19.8955
42.6912,20.0658
42.6912,20.0658
42.7580,20.1720
42.7872,20.2185
42.9147,20.3461
42.9147,20.3461
42.9147,20.3461
42.9923,20.3948
43.0675,20.4420
43.1357,20.4659
43.2377,20.5016
43.2377,20.5016
43.2377,20.5016
43.4170,20.5218
43.5963,20.5016
43.7665,20.4420
43.9193,20.3461
44.0468,20.2185
44.1428,20.0658
44.2024,19.8955
44.2226,19.7162
44.2024,19.5370
44.2024,19.5370
44.2024,19.5370
44.1877,19.4949
44.1863,19.4338
44.1876,19.4296
44.2024,19.3875
44.2226,19.2082
44.2024,19.0290
44.1877,18.9869
44.1863,18.9258
44.1877,18.9216
44.2024,18.8795
44.2024,18.8795
44.2024,18.8795
44.2226,18.7003
44.2024,18.5210
44.1428,18.3507
44.0468,18.1980
43.9193,18.0704
43.9193,18.0704
43.9193,18.0704
43.7665,17.9745
43.5963,17.9149
43.5963,17.9149
43.4170,17.8947
43.2377,17.9149
43.2377,17.9149
43.0675,17.9745
43.0675,17.9745
42.9147,18.0704
42.7872,18.1980
42.6912,18.3507
42.6912,18.3507
42.6316,18.5210
42.6316,18.5210
42.6114,18.7003
36.6026,18.7003
36.5824,18.5210
36.5824,18.5210
36.5379,18.3940
36.5228,18.3507
36.4268,18.1980
36.2993,18.0704
36.2993,18.0704
36.2993,18.0704
36.1465,17.9745
35.9763,17.9149
35.9763,17.9149
35.7970,17.8947
35.6177,17.9149
35.6177,17.9149
35.4475,17.9745
35.4475,17.9745
35.2947,18.0704
35.1672,18.1980
35.0712,18.3507
35.0712,18.3507
35.0116,18.5210
35.0116,18.5210
34.9914,18.7003
35.0116,18.8795
35.0116,18.8795
35.0263,18.9216
35.0277,18.9827
35.0263,18.9869
35.0116,19.0290
34.9914,19.2083
35.0116,19.3875
35.0263,19.4296
35.0277,19.4907
35.0263,19.4949
35.0116,19.5370
34.9914,19.7162
35.0082,19.8651
34.9959,19.9250
34.9508,19.9663
34.8900,19.9732
34.8368,19.9430
34.8260,19.9289
34.7758,19.8490
34.7758,19.8490
34.7758,19.8490
34.6483,19.7214
34.6483,19.7214
34.6483,19.7214
34.4955,19.6255
34.3253,19.5659
34.3253,19.5659
34.1460,19.5457
33.9667,19.5659
33.9667,19.5659
33.9247,19.5806
33.8635,19.5820
33.8593,19.5806
33.8173,19.5659
33.8173,19.5659
33.6380,19.5457
33.4587,19.5659
33.4587,19.5659
33.4167,19.5806
33.3555,19.5820
33.3513,19.5806
33.3093,19.5659
33.3093,19.5659
33.1300,19.5457
32.9507,19.5659
32.9507,19.5659
32.7805,19.6255
32.7805,19.6255
32.6277,19.7214
32.5002,19.8490
32.4042,20.0017
32.4042,20.0017
32.3446,20.1720
32.3446,20.1720
32.3244,20.3513
2.8960,20.3513
2.9995,20.3150
3.1523,20.2191
3.2798,20.0915
3.3758,19.9388
3.4354,19.7685
3.4556,19.5892
3.4354,19.4100
3.4207,19.3679
3.4193,19.3068
3.4207,19.3026
3.4354,19.2605
3.4354,19.2605
3.4354,19.2605
3.4556,19.0813
3.4354,18.9020
3.4207,18.8599
3.4193,18.7988
3.4207,18.7946
3.4354,18.7525
3.4354,18.7525
3.4354,18.7525
3.4556,18.5732
3.4354,18.3940
3.3758,18.2237
3.3596,18.1980
3.2798,18.0710
3.2798,18.0710
3.2798,18.0710
3.1523,17.9434
3.1523,17.9434
3.1523,17.9434
2.9995,17.8475
2.8293,17.7879
2.8293,17.7879
2.6500,17.7677
2.4707,17.7879
2.4707,17.7879
2.3005,17.8475
2.3005,17.8475
2.1477,17.9434
2.0202,18.0710
1.9242,18.2237
1.9242,18.2237
1.8646,18.3940
1.8646,18.3940
1.8444,18.5732
0.5405,18.5732
0.5405,11.9923
16.0194,11.9923
16.0398,12.2777
16.0398,12.2777
16.0398,12.2777
16.0624,12.3817
16.1006,12.5573
16.2006,12.8254
16.2006,12.8254
16.2707,12.9538
16.3378,13.0766
16.5093,13.3056
16.7116,13.5080
16.9407,13.6795
17.1918,13.8166
17.4600,13.9166
17.7396,13.9774
18.0250,13.9979
18.3104,13.9774
18.5900,13.9166
18.8582,13.8166
19.1093,13.6795
19.2357,13.5849
19.2936,13.5651
19.3520,13.5832
19.3543,13.5849
19.4807,13.6795
19.7318,13.8166
20.0000,13.9166
20.2796,13.9774
20.5650,13.9979
20.8504,13.9774
21.1300,13.9166
21.3982,13.8166
21.6493,13.6795
21.7757,13.5849
21.8336,13.5651
21.8920,13.5832
21.8943,13.5849
22.0207,13.6795
22.2718,13.8166
22.5400,13.9166
22.8196,13.9774
23.1050,13.9979
23.3904,13.9774
23.6700,13.9166
23.9382,13.8166
24.1893,13.6795
24.3157,13.5849
24.3736,13.5651
24.4320,13.5832
24.4343,13.5849
24.5607,13.6795
24.8118,13.8166
25.0800,13.9166
25.3596,13.9774
25.6450,13.9979
25.9304,13.9774
26.2100,13.9166
26.4782,13.8166
26.7293,13.6795
26.8557,13.5849
26.9136,13.5651
26.9720,13.5832
26.9743,13.5849
27.1007,13.6795
27.3518,13.8166
27.6200,13.9166
27.8996,13.9774
28.1850,13.9979
28.4704,13.9774
28.7500,13.9166
29.0182,13.8166
29.2693,13.6795
29.4984,13.5080
29.7007,13.3056
29.8722,13.0766
30.0094,12.8254
30.0445,12.7312
36.6424,12.7312
36.6626,12.9105
36.6626,12.9105
36.7222,13.0808
36.7222,13.0808
36.8182,13.2335
36.8182,13.2335
36.9457,13.3611
37.0985,13.4570
37.1667,13.4809
37.2687,13.5166
37.2687,13.5166
37.2687,13.5166
37.3587,13.5268
37.4144,13.5521
37.4411,13.5924
37.4842,13.7158
37.4842,13.7158
37.5476,13.8166
37.5802,13.8685
37.7077,13.9961
37.7077,13.9961
37.7077,13.9961
37.7677,14.0337
37.7994,14.0537
37.8386,14.1006
37.8427,14.1617
37.8102,14.2135
37.7794,14.2309
37.6065,14.2915
37.6065,14.2915
37.4537,14.3874
37.3262,14.5150
37.2302,14.6677
37.2302,14.6677
37.1706,14.8380
37.1706,14.8380
37.1504,15.0172
37.1706,15.1965
37.1706,15.1965
37.1853,15.2386
37.1867,15.2997
37.1853,15.3039
37.1706,15.3460
37.1706,15.3460
37.1504,15.5252
37.1706,15.7045
37.1853,15.7466
37.1867,15.8077
37.1853,15.8119
37.1706,15.8540
37.1504,16.0332
37.1706,16.2125
37.1706,16.2125
37.2302,16.3828
37.2302,16.3828
37.3262,16.5355
37.3262,16.5355
37.4537,16.6631
37.6065,16.7590
37.6747,16.7829
37.7767,16.8186
37.7767,16.8186
37.7767,16.8186
37.9560,16.8388
38.1353,16.8186
38.3055,16.7590
38.4583,16.6631
38.5858,16.5355
38.6818,16.3828
38.7414,16.2125
38.7616,16.0332
38.7414,15.8540
38.7267,15.8119
38.7253,15.7508
38.7266,15.7466
38.7414,15.7045
38.7616,15.5252
38.7414,15.3460
38.7267,15.3039
38.7253,15.2428
38.7267,15.2386
38.7414,15.1965
38.7414,15.1965
38.7414,15.1965
38.7616,15.0172
38.7414,14.8380
38.6818,14.6677
38.5858,14.5150
38.4583,14.3874
38.4583,14.3874
38.4583,14.3874
38.3666,14.3298
38.3274,14.2829
38.3233,14.2218
38.3558,14.1700
38.3866,14.1526
38.4293,14.1376
38.5595,14.0920
38.7123,13.9961
38.8398,13.8685
38.9256,13.7320
38.9567,13.7008
39.0933,13.6151
39.2208,13.4875
39.3066,13.3510
39.3377,13.3198
39.4743,13.2341
39.6018,13.1065
39.6978,12.9538
39.7574,12.7835
39.7776,12.6042
39.7574,12.4250
39.6978,12.2547
39.6816,12.2290
39.6018,12.1020
39.6018,12.1020
39.6018,12.1020
39.4743,11.9744
39.4743,11.9744
39.4743,11.9744
39.3215,11.8785
39.1513,11.8189
39.1512,11.8189
39.0613,11.8087
39.0056,11.7834
38.9789,11.7431
38.9358,11.6197
38.8690,11.5135
38.8398,11.4670
38.8398,11.4670
38.8398,11.4670
38.7123,11.3394
38.7123,11.3394
38.7123,11.3394
38.7040,11.3342
44.8974,11.3342
44.9176,11.5135
44.9176,11.5135
44.9772,11.6838
44.9772,11.6838
45.0732,11.8365
45.0732,11.8365
45.2007,11.9641
45.2007,11.9641
45.2007,11.9641
45.2666,12.0055
45.3535,12.0600
45.4217,12.0839
45.5237,12.1196
45.5237,12.1196
45.5237,12.1196
45.7030,12.1398
45.8823,12.1196
46.0525,12.0600
46.2053,11.9641
46.3328,11.8365
46.4288,11.6838
46.4884,11.5135
46.5086,11.3342
46.4884,11.1550
46.4288,10.9847
46.3328,10.8320
46.2053,10.7044
46.2053,10.7044
46.2053,10.7044
46.0525,10.6085
45.8823,10.5489
45.8823,10.5489
45.7030,10.5287
45.5237,10.5489
45.5237,10.5489
45.3535,10.6085
45.3535,10.6085
45.2007,10.7044
45.0732,10.8320
44.9772,10.9847
44.9772,10.9847
44.9176,11.1550
44.9176,11.1550
44.8974,11.3342
38.7040,11.3342
38.5595,11.2435
38.3893,11.1839
38.3893,11.1839
38.2100,11.1637
38.0307,11.1839
38.0307,11.1839
37.8605,11.2435
37.8605,11.2435
37.7077,11.3394
37.5802,11.4670
37.4944,11.6035
37.4633,11.6347
37.3267,11.7204
37.1992,11.8480
37.1134,11.9845
37.0823,12.0157
36.9457,12.1014
36.8182,12.2290
36.7222,12.3817
36.7222,12.3817
36.6626,12.5520
36.6626,12.5520
36.6424,12.7312
30.0445,12.7312
30.1094,12.5573
30.1702,12.2777
30.1906,11.9923
30.1702,11.7068
30.1094,11.4272
30.0094,11.1591
30.0071,11.1550
29.8722,10.9079
29.8722,10.9079
29.7007,10.6789
29.4984,10.4765
29.2693,10.3050
29.2693,10.3050
29.0182,10.1679
29.0182,10.1679
28.7500,10.0679
28.7500,10.0679
28.4704,10.0071
28.4704,10.0071
28.4704,10.0071
28.1850,9.9866
27.8996,10.0071
27.6199,10.0679
27.3518,10.1679
27.3518,10.1679
27.1007,10.3050
26.9743,10.3996
26.9164,10.4193
26.8580,10.4013
26.8557,10.3996
26.7293,10.3050
26.4782,10.1679
26.4782,10.1679
26.2100,10.0679
26.2100,10.0679
25.9304,10.0071
25.9304,10.0071
25.9304,10.0071
25.6450,9.9866
25.3596,10.0071
25.0799,10.0679
24.8118,10.1679
24.8118,10.1679
24.5607,10.3050
24.4343,10.3996
24.3764,10.4193
24.3180,10.4013
24.3157,10.3996
24.1893,10.3050
23.9382,10.1679
23.9382,10.1679
23.6700,10.0679
23.6700,10.0679
23.3904,10.0071
23.3904,10.0071
23.3904,10.0071
23.1050,9.9866
22.8196,10.0071
22.5399,10.0679
22.2718,10.1679
22.2718,10.1679
22.0207,10.3050
21.8943,10.3996
21.8364,10.4193
21.7780,10.4013
21.7757,10.3996
21.6493,10.3050
21.3982,10.1679
21.3982,10.1679
21.1301,10.0679
21.1300,10.0679
20.8504,10.0071
20.8504,10.0071
20.8504,10.0071
20.5650,9.9866
20.2796,10.0071
19.9999,10.0679
19.7318,10.1679
19.7318,10.1679
19.4807,10.3050
19.3543,10.3996
19.2964,10.4193
19.2380,10.4013
19.2357,10.3996
19.1093,10.3050
18.8582,10.1679
18.8582,10.1679
18.5900,10.0679
18.5900,10.0679
18.3104,10.0071
18.3104,10.0071
18.3104,10.0071
18.0250,9.9866
17.7396,10.0071
17.4599,10.0679
17.1918,10.1679
17.1918,10.1679
16.9407,10.3050
16.7116,10.4765
16.5093,10.6789
16.3378,10.9079
16.2006,11.1591
16.2006,11.1591
16.1006,11.4272
16.0920,11.4670
16.0577,11.6245
16.0398,11.7068
16.0194,11.9923
0.5405,11.9923
0.5405,8.1750
0.5594,8.1168
0.6089,8.0808
0.6701,8.0808
0.7190,8.1160
0.7682,8.1823
0.8353,8.2728
0.8353,8.2728
1.0100,8.4655
1.1059,8.5713
1.1059,8.5713
1.1059,8.5713
1.4044,8.8418
1.4044,8.8419
1.7280,9.0819
1.7280,9.0819
1.7280,9.0819
2.0735,9.2890
2.1006,9.3018
2.4378,9.4612
2.8171,9.5970
2.8171,9.5970
3.2079,9.6949
3.3684,9.7187
3.6064,9.7540
4.0088,9.7737
4.4112,9.7540
4.8098,9.6949
5.2006,9.5970
5.5799,9.4612
5.9441,9.2890
5.9441,9.2890
5.9441,9.2890
6.2897,9.0819
6.2897,9.0819
6.2897,9.0819
6.6133,8.8419
6.9118,8.5713
7.1824,8.2728
7.4224,7.9492
7.5214,7.7840
7.6295,7.6036
7.6555,7.5486
7.7389,7.3724
16.7625,7.3724
16.7625,8.9921
16.7625,8.9921
16.7625,8.9921
16.7640,9.0065
16.7689,9.0517
16.7689,9.0517
16.8192,9.1866
16.8959,9.2890
16.9055,9.3018
16.9055,9.3018
16.9055,9.3018
17.0207,9.3880
17.1555,9.4383
17.1555,9.4383
17.1555,9.4383
17.2151,9.4447
18.8349,9.4447
18.8945,9.4383
18.9619,9.4132
19.0293,9.3880
19.0293,9.3880
19.0293,9.3880
19.1445,9.3018
19.2308,9.1866
19.2433,9.1531
19.2811,9.0517
19.2811,9.0517
19.2811,9.0517
19.2875,8.9921
19.2875,8.8729
19.3064,8.8147
19.3559,8.7787
19.4171,8.7787
19.4666,8.8147
19.4676,8.8161
19.5942,8.9969
19.7504,9.1531
19.9313,9.2798
20.1316,9.3731
20.3449,9.4303
20.3449,9.4303
20.3449,9.4303
20.5650,9.4496
20.5650,9.4496
20.5650,9.4496
20.7851,9.4303
20.7851,9.4303
20.7851,9.4303
20.9984,9.3731
21.1987,9.2798
21.3796,9.1531
21.5358,8.9969
21.6625,8.8159
21.7453,8.6385
21.7870,8.5937
21.8471,8.5820
21.9025,8.6079
21.9247,8.6385
22.0075,8.8159
22.1342,8.9969
22.2904,9.1531
22.4713,9.2798
22.6715,9.3731
22.8849,9.4303
22.8849,9.4303
22.8849,9.4303
23.1050,9.4496
23.1050,9.4496
23.1050,9.4496
23.3251,9.4303
23.3251,9.4303
23.3251,9.4303
23.5384,9.3731
23.7387,9.2798
23.9196,9.1531
24.0758,8.9969
24.2025,8.8159
24.2853,8.6385
24.3270,8.5937
24.3871,8.5820
24.4425,8.6079
24.4647,8.6385
24.5475,8.8159
24.6742,8.9969
24.8304,9.1531
25.0113,9.2798
25.2115,9.3731
25.4249,9.4303
25.4249,9.4303
25.4249,9.4303
25.6450,9.4496
25.6450,9.4496
25.6450,9.4496
25.8651,9.4303
25.8651,9.4303
25.8651,9.4303
26.0785,9.3731
26.2787,9.2798
26.4596,9.1531
26.6158,8.9969
26.7425,8.8159
26.8253,8.6385
26.8670,8.5937
26.9271,8.5820
26.9825,8.6079
27.0047,8.6385
27.0875,8.8159
27.2142,8.9969
27.3704,9.1531
27.5513,9.2798
27.7515,9.3731
27.9649,9.4303
27.9649,9.4303
27.9649,9.4303
28.1850,9.4496
28.1850,9.4496
28.1850,9.4496
28.4051,9.4303
28.4051,9.4303
28.4051,9.4303
28.6184,9.3731
28.8187,9.2798
28.9996,9.1531
29.1558,8.9969
29.2825,8.8159
29.3759,8.6157
29.4331,8.4023
29.4432,8.2862
34.7374,8.2862
34.7576,8.4655
34.7576,8.4655
34.8172,8.6358
34.8172,8.6358
34.9070,8.7787
34.9132,8.7885
35.0407,8.9161
35.0407,8.9161
35.0407,8.9161
35.1693,8.9969
35.1935,9.0120
35.2617,9.0359
35.3637,9.0716
35.3637,9.0716
35.3637,9.0716
35.5430,9.0918
35.7223,9.0716
35.7643,9.0569
35.8255,9.0555
35.8297,9.0569
35.8717,9.0716
36.0510,9.0918
36.2303,9.0716
36.2723,9.0569
36.3335,9.0555
36.3377,9.0569
36.3797,9.0716
36.5590,9.0918
36.7383,9.0716
36.9085,9.0120
37.0613,8.9161
37.1888,8.7885
37.2848,8.6358
37.3444,8.4655
37.3646,8.2862
37.3444,8.1070
37.2848,7.9367
37.1888,7.7840
37.0613,7.6564
37.0613,7.6564
37.0613,7.6564
36.9085,7.5605
36.7383,7.5009
36.7383,7.5009
36.5590,7.4807
36.3797,7.5009
36.3797,7.5009
36.3377,7.5156
36.2765,7.5170
36.2723,7.5156
36.2303,7.5009
36.2303,7.5009
36.0510,7.4807
35.8717,7.5009
35.8717,7.5009
35.8297,7.5156
35.7685,7.5170
35.7643,7.5156
35.7223,7.5009
35.7223,7.5009
35.5430,7.4807
35.3637,7.5009
35.3637,7.5009
35.1935,7.5605
35.1935,7.5605
35.0407,7.6564
34.9132,7.7840
34.8172,7.9367
34.8172,7.9367
34.7576,8.1070
34.7576,8.1070
34.7374,8.2862
29.4432,8.2862
29.4523,8.1823
29.4523,8.1822
29.4331,7.9622
29.4331,7.9622
29.4331,7.9622
29.3759,7.7488
29.2825,7.5486
29.1558,7.3676
28.9996,7.2114
28.9996,7.2114
28.9996,7.2114
28.8992,7.1411
28.8187,7.0847
28.6184,6.9914
28.4051,6.9342
28.4051,6.9342
28.4051,6.9342
28.1850,6.9149
28.1850,6.9149
27.9649,6.9342
27.9649,6.9342
27.7515,6.9914
27.6582,7.0349
27.5513,7.0847
27.3704,7.2114
27.2142,7.3676
27.0875,7.5486
27.0047,7.7260
26.9630,7.7708
26.9029,7.7825
26.8475,7.7566
26.8253,7.7260
26.7928,7.6564
26.7425,7.5486
26.6158,7.3676
26.4596,7.2114
26.4596,7.2114
26.4596,7.2114
26.3592,7.1411
26.2787,7.0847
26.0785,6.9914
25.8651,6.9342
25.8651,6.9342
25.8651,6.9342
25.6450,6.9149
25.6450,6.9149
25.4249,6.9342
25.4249,6.9342
25.2115,6.9914
25.1182,7.0349
25.0113,7.0847
24.8304,7.2114
24.6742,7.3676
24.5475,7.5486
24.4647,7.7260
24.4230,7.7708
24.3629,7.7825
24.3075,7.7566
24.2853,7.7260
24.2528,7.6564
24.2025,7.5486
24.0758,7.3676
23.9196,7.2114
23.9196,7.2114
23.9196,7.2114
23.8192,7.1411
23.7387,7.0847
23.5384,6.9914
23.3251,6.9342
23.3251,6.9342
23.3251,6.9342
23.1050,6.9149
23.1050,6.9149
22.8849,6.9342
22.8849,6.9342
22.6715,6.9914
22.5782,7.0349
22.4713,7.0847
22.2904,7.2114
22.1342,7.3676
22.0075,7.5486
21.9247,7.7260
21.8830,7.7708
21.8229,7.7825
21.7675,7.7566
21.7453,7.7260
21.7128,7.6564
21.6625,7.5486
21.5358,7.3676
21.3796,7.2114
21.3796,7.2114
21.3796,7.2114
21.2792,7.1411
21.1987,7.0847
20.9984,6.9914
20.7851,6.9342
20.7851,6.9342
20.7851,6.9342
20.5650,6.9149
20.5650,6.9149
20.3449,6.9342
20.3449,6.9342
20.1316,6.9914
20.0382,7.0349
19.9313,7.0847
19.7504,7.2114
19.5942,7.3676
19.4676,7.5484
19.4187,7.5852
19.3576,7.5863
19.3074,7.5512
19.2875,7.4933
19.2875,7.4916
19.2875,7.3724
19.2875,7.3724
19.2811,7.3128
19.2433,7.2114
19.2308,7.1779
19.1445,7.0627
19.1445,7.0627
19.1445,7.0627
19.1445,7.0627
19.0293,6.9765
18.8945,6.9262
18.8945,6.9262
18.8945,6.9262
18.8945,6.9262
18.8632,6.9228
18.8349,6.9197
18.8349,6.9197
17.2151,6.9197
17.2151,6.9197
17.2151,6.9198
17.2079,6.9205
17.1555,6.9262
17.1555,6.9262
17.0207,6.9765
16.9055,7.0627
16.9054,7.0627
16.8192,7.1779
16.7689,7.3128
16.7689,7.3128
16.7630,7.3676
16.7625,7.3724
7.7389,7.3724
7.8018,7.2394
7.9375,6.8600
8.0354,6.4692
8.0945,6.0707
8.1143,5.6683
8.0945,5.2659
8.0807,5.1726
8.0354,4.8674
8.0354,4.8674
7.9375,4.4766
7.8763,4.3055
7.8018,4.0972
7.6491,3.7744
7.6327,3.7396
28.1842,3.7396
28.2044,3.9189
28.2191,3.9610
28.2205,4.0221
28.2191,4.0263
28.2044,4.0684
28.1842,4.2476
28.2044,4.4269
28.2044,4.4269
28.2191,4.4690
28.2205,4.5301
28.2191,4.5343
28.2044,4.5764
28.2044,4.5764
28.1842,4.7556
28.2044,4.9349
28.2044,4.9349
28.2640,5.1052
28.2640,5.1052
28.3600,5.2579
28.3600,5.2579
28.4875,5.3855
28.6403,5.4814
28.7085,5.5053
28.8105,5.5410
28.8105,5.5410
28.8105,5.5410
28.9898,5.5612
29.1691,5.5410
29.3393,5.4814
29.4921,5.3855
29.6196,5.2579
29.7156,5.1052
29.7752,4.9349
29.7954,4.7556
29.7752,4.5764
29.7605,4.5343
29.7591,4.4732
29.7605,4.4689
29.7752,4.4269
29.7752,4.4269
29.7752,4.4269
29.7954,4.2476
29.7752,4.0684
29.7605,4.0263
29.7591,3.9652
29.7604,3.9610
29.7752,3.9189
29.7954,3.7396
29.7752,3.5604
29.7156,3.3901
29.7139,3.3874
29.6196,3.2374
29.6196,3.2374
29.6196,3.2374
29.4921,3.1098
29.4921,3.1098
29.4921,3.1098
29.3393,3.0139
29.1691,2.9543
29.1691,2.9543
28.9898,2.9341
28.8105,2.9543
28.8105,2.9543
28.6403,3.0139
28.6403,3.0139
28.4875,3.1098
28.3600,3.2374
28.2640,3.3901
28.2640,3.3901
28.2044,3.5604
28.2044,3.5604
28.1842,3.7396
7.6327,3.7396
7.6295,3.7330
7.4224,3.3874
7.4224,3.3874
7.4224,3.3874
7.1824,3.0638
7.0890,2.9608
6.9118,2.7653
6.9118,2.7653
6.9118,2.7653
6.9103,2.7639
6.6133,2.4948
6.6133,2.4947
6.5614,2.4563
6.5259,2.4064
6.5265,2.3452
6.5630,2.2961
6.6204,2.2777
47.4284,2.2777
47.4918,2.2777
Z" /> 
</g>
<g style="fill:#FFFFFF; fill-opacity:1.0000; stroke:none;">
<circle cx="28.9898" cy="3.7396" r="0.1500" /> 
</g>
<g style="fill:#FFFFFF; fill-opacity:1.0000; stroke:none;">
<circle cx="6.0282" cy="23.5262" r="0.1500" /> 
</g>
<g style="fill:#FFFFFF; fill-opacity:1.0000; stroke:none;">
<circle cx="24.1130" cy="25.5582" r="0.1500" /> 
</g>
<g style="fill:#FFFFFF; fill-opacity:1.0000; stroke:none;">
<circle cx="35.7970" cy="18.7003" r="0.1500" /> 
</g>
<g style="fill:#FFFFFF; fill-opacity:1.0000; stroke:none;">
<circle cx="24.1130" cy="26.5742" r="0.1500" /> 
</g>
<g style="fill:#FFFFFF; fill-opacity:1.0000; stroke:none;">
<circle cx="37.9560" cy="16.0332" r="0.1500" /> 
</g>
<g style="fill:#FFFFFF; fill-opacity:1.0000; stroke:none;">
<circle cx="24.1130" cy="26.0663" r="0.1500" /> 
</g>
<g style="fill:#FFFFFF; fill-opacity:1.0000; stroke:none;">
<circle cx="5.5202" cy="23.5262" r="0.1500" /> 
</g>
<g style="fill:#FFFFFF; fill-opacity:1.0000; stroke:none;">
<circle cx="4.9360" cy="36.4040" r="0.1500" /> 
</g>
<g style="fill:#FFFFFF; fill-opacity:1.0000; stroke:none;">
<circle cx="6.5362" cy="23.5262" r="0.1500" /> 
</g>
<g style="fill:#FFFFFF; fill-opacity:1.0000; stroke:none;">
<circle cx="35.7970" cy="19.7162" r="0.1500" /> 
</g>
<g style="fill:#FFFFFF; fill-opacity:1.0000; stroke:none;">
<circle cx="35.7970" cy="19.2083" r="0.1500" /> 
</g>
<g style="fill:#FFFFFF; fill-opacity:1.0000; stroke:none;">
<circle cx="5.4440" cy="36.4040" r="0.1500" /> 
</g>
<g style="fill:#FFFFFF; fill-opacity:1.0000; stroke:none;">
<circle cx="37.9560" cy="15.5252" r="0.1500" /> 
</g>
<g style="fill:#FFFFFF; fill-opacity:1.0000; stroke:none;">
<circle cx="37.9560" cy="15.0172" r="0.1500" /> 
</g>
<g style="fill:#FFFFFF; fill-opacity:1.0000; stroke:none;">
<circle cx="28.9898" cy="4.2476" r="0.1500" /> 
</g>
<g style="fill:#FFFFFF; fill-opacity:1.0000; stroke:none;">
<circle cx="5.9520" cy="36.4040" r="0.1500" /> 
</g>
<g style="fill:#FFFFFF; fill-opacity:1.0000; stroke:none;">
<circle cx="28.9898" cy="4.7556" r="0.1500" /> 
</g>
<g style="fill:#FFFFFF; fill-opacity:1.0000; stroke:none;">
<circle cx="11.4130" cy="27.8442" r="0.1500" /> 
</g>
<g style="fill:#FFFFFF; fill-opacity:1.0000; stroke:none;">
<circle cx="28.8900" cy="15.1442" r="0.1500" /> 
</g>
<g style="fill:#FFFFFF; fill-opacity:1.0000; stroke:none;">
<circle cx="28.8900" cy="15.6522" r="0.1500" /> 
</g>
<g style="fill:#FFFFFF; fill-opacity:1.0000; stroke:none;">
<circle cx="3.1580" cy="30.8414" r="0.1500" /> 
</g>
<g style="fill:#FFFFFF; fill-opacity:1.0000; stroke:none;">
<circle cx="23.7320" cy="15.5252" r="0.1500" /> 
</g>
<g style="fill:#FFFFFF; fill-opacity:1.0000; stroke:none;">
<circle cx="28.8900" cy="14.6362" r="0.1500" /> 
</g>
<g style="fill:#FFFFFF; fill-opacity:1.0000; stroke:none;">
<circle cx="13.1402" cy="16.6683" r="0.1500" /> 
</g>
<g style="fill:#FFFFFF; fill-opacity:1.0000; stroke:none;">
<circle cx="3.1580" cy="30.3334" r="0.1500" /> 
</g>
<g style="fill:#FFFFFF; fill-opacity:1.0000; stroke:none;">
<circle cx="23.8590" cy="15.0172" r="0.1500" /> 
</g>
<g style="fill:#FFFFFF; fill-opacity:1.0000; stroke:none;">
<circle cx="23.7320" cy="16.0332" r="0.1500" /> 
</g>
<g style="fill:#FFFFFF; fill-opacity:1.0000; stroke:none;">
<circle cx="11.0320" cy="18.5732" r="0.1500" /> 
</g>
<g style="fill:#FFFFFF; fill-opacity:1.0000; stroke:none;">
<circle cx="3.1580" cy="31.3494" r="0.1500" /> 
</g>
<g style="fill:#FFFFFF; fill-opacity:1.0000; stroke:none;">
<circle cx="11.0320" cy="19.0813" r="0.1500" /> 
</g>
<g style="fill:#FFFFFF; fill-opacity:1.0000; stroke:none;">
<circle cx="13.1402" cy="17.1762" r="0.1500" /> 
</g>
<g style="fill:#FFFFFF; fill-opacity:1.0000; stroke:none;">
<circle cx="13.1402" cy="17.6842" r="0.1500" /> 
</g>
<g style="fill:#FFFFFF; fill-opacity:1.0000; stroke:none;">
<circle cx="11.0320" cy="19.5892" r="0.1500" /> 
</g>
<g style="fill:#FFFFFF; fill-opacity:1.0000; stroke:none;">
<circle cx="2.6500" cy="19.5892" r="0.1500" /> 
</g>
<g style="fill:#FFFFFF; fill-opacity:1.0000; stroke:none;">
<circle cx="19.9220" cy="23.5262" r="0.1500" /> 
</g>
<g style="fill:#FFFFFF; fill-opacity:1.0000; stroke:none;">
<circle cx="19.9220" cy="23.0182" r="0.1500" /> 
</g>
<g style="fill:#FFFFFF; fill-opacity:1.0000; stroke:none;">
<circle cx="2.6500" cy="19.0813" r="0.1500" /> 
</g>
<g style="fill:#FFFFFF; fill-opacity:1.0000; stroke:none;">
<circle cx="2.6500" cy="18.5732" r="0.1500" /> 
</g>
<g style="fill:#FFFFFF; fill-opacity:1.0000; stroke:none;">
<circle cx="19.9220" cy="24.0343" r="0.1500" /> 
</g>
<g style="fill:#FFFFFF; fill-opacity:1.0000; stroke:none;">
<circle cx="35.5430" cy="8.2862" r="0.1500" /> 
</g>
<g style="fill:#FFFFFF; fill-opacity:1.0000; stroke:none;">
<circle cx="36.0510" cy="8.2862" r="0.1500" /> 
</g>
<g style="fill:#FFFFFF; fill-opacity:1.0000; stroke:none;">
<circle cx="36.5590" cy="8.2862" r="0.1500" /> 
</g>
<g style="fill:#FFFFFF; fill-opacity:1.0000; stroke:none;">
<circle cx="45.7030" cy="11.3342" r="0.1500" /> 
</g>
<g style="fill:#FFFFFF; fill-opacity:1.0000; stroke:none;">
<circle cx="37.6076" cy="38.2031" r="0.1500" /> 
</g>
<g style="fill:#FFFFFF; fill-opacity:1.0000; stroke:none;">
<circle cx="38.5954" cy="38.5084" r="0.1500" /> 
</g>
<g style="fill:#FFFFFF; fill-opacity:1.0000; stroke:none;">
<circle cx="43.1983" cy="35.8089" r="0.1500" /> 
</g>
<g style="fill:#FFFFFF; fill-opacity:1.0000; stroke:none;">
<circle cx="40.6230" cy="33.4922" r="0.1500" /> 
</g>
<g style="fill:#FFFFFF; fill-opacity:1.0000; stroke:none;">
<circle cx="38.1514" cy="33.9139" r="0.1500" /> 
</g>
<g style="fill:#FFFFFF; fill-opacity:1.0000; stroke:none;">
<circle cx="37.2878" cy="29.8438" r="0.1500" /> 
</g>
<g style="fill:#FFFFFF; fill-opacity:1.0000; stroke:none;">
<circle cx="40.5346" cy="29.3022" r="0.1500" /> 
</g>
<g style="fill:#FFFFFF; fill-opacity:1.0000; stroke:none;">
<circle cx="38.5954" cy="37.6823" r="0.1500" /> 
</g>
<g style="fill:#FFFFFF; fill-opacity:1.0000; stroke:none;">
<circle cx="35.9166" cy="35.7694" r="0.1500" /> 
</g>
<g style="fill:#FFFFFF; fill-opacity:1.0000; stroke:none;">
<circle cx="40.4960" cy="37.6994" r="0.1500" /> 
</g>
<g style="fill:#FFFFFF; fill-opacity:1.0000; stroke:none;">
<circle cx="43.1118" cy="32.0352" r="0.1500" /> 
</g>
<g style="fill:#FFFFFF; fill-opacity:1.0000; stroke:none;">
<circle cx="34.5450" cy="34.4232" r="0.1500" /> 
</g>
<g style="fill:#FFFFFF; fill-opacity:1.0000; stroke:none;">
<circle cx="35.3578" cy="34.4232" r="0.1500" /> 
</g>
<g style="fill:#FFFFFF; fill-opacity:1.0000; stroke:none;">
<circle cx="40.4960" cy="38.5123" r="0.1500" /> 
</g>
<g style="fill:#FFFFFF; fill-opacity:1.0000; stroke:none;">
<circle cx="38.1514" cy="33.0757" r="0.1500" /> 
</g>
<g style="fill:#FFFFFF; fill-opacity:1.0000; stroke:none;">
<circle cx="43.7722" cy="32.5613" r="0.1500" /> 
</g>
<g style="fill:#FFFFFF; fill-opacity:1.0000; stroke:none;">
<circle cx="34.5488" cy="32.5226" r="0.1500" /> 
</g>
<g style="fill:#FFFFFF; fill-opacity:1.0000; stroke:none;">
<circle cx="34.8498" cy="35.4392" r="0.1500" /> 
</g>
<g style="fill:#FFFFFF; fill-opacity:1.0000; stroke:none;">
<circle cx="43.1032" cy="34.9700" r="0.1500" /> 
</g>
<g style="fill:#FFFFFF; fill-opacity:1.0000; stroke:none;">
<circle cx="44.5812" cy="34.4618" r="0.1500" /> 
</g>
<g style="fill:#FFFFFF; fill-opacity:1.0000; stroke:none;">
<circle cx="38.1080" cy="29.9454" r="0.1500" /> 
</g>
<g style="fill:#FFFFFF; fill-opacity:1.0000; stroke:none;">
<circle cx="41.8817" cy="29.8590" r="0.1500" /> 
</g>
<g style="fill:#FFFFFF; fill-opacity:1.0000; stroke:none;">
<circle cx="44.5850" cy="32.5613" r="0.1500" /> 
</g>
<g style="fill:#FFFFFF; fill-opacity:1.0000; stroke:none;">
<circle cx="36.7036" cy="29.2596" r="0.1500" /> 
</g>
<g style="fill:#FFFFFF; fill-opacity:1.0000; stroke:none;">
<circle cx="41.5225" cy="28.7814" r="0.1500" /> 
</g>
<g style="fill:#FFFFFF; fill-opacity:1.0000; stroke:none;">
<circle cx="41.0427" cy="29.9540" r="0.1500" /> 
</g>
<g style="fill:#FFFFFF; fill-opacity:1.0000; stroke:none;">
<circle cx="35.3570" cy="30.6009" r="0.1500" /> 
</g>
<g style="fill:#FFFFFF; fill-opacity:1.0000; stroke:none;">
<circle cx="35.3750" cy="32.5226" r="0.1500" /> 
</g>
<g style="fill:#FFFFFF; fill-opacity:1.0000; stroke:none;">
<circle cx="41.8422" cy="37.1407" r="0.1500" /> 
</g>
<g style="fill:#FFFFFF; fill-opacity:1.0000; stroke:none;">
<circle cx="36.0182" cy="34.9492" r="0.1500" /> 
</g>
<g style="fill:#FFFFFF; fill-opacity:1.0000; stroke:none;">
<circle cx="37.6180" cy="28.7770" r="0.1500" /> 
</g>
<g style="fill:#FFFFFF; fill-opacity:1.0000; stroke:none;">
<circle cx="40.1150" cy="33.4922" r="0.1500" /> 
</g>
<g style="fill:#FFFFFF; fill-opacity:1.0000; stroke:none;">
<circle cx="43.2134" cy="31.2151" r="0.1500" /> 
</g>
<g style="fill:#FFFFFF; fill-opacity:1.0000; stroke:none;">
<circle cx="43.7550" cy="34.4618" r="0.1500" /> 
</g>
<g style="fill:#FFFFFF; fill-opacity:1.0000; stroke:none;">
<circle cx="42.4564" cy="29.2842" r="0.1500" /> 
</g>
<g style="fill:#FFFFFF; fill-opacity:1.0000; stroke:none;">
<circle cx="40.9786" cy="33.9149" r="0.1500" /> 
</g>
<g style="fill:#FFFFFF; fill-opacity:1.0000; stroke:none;">
<circle cx="38.6340" cy="29.2850" r="0.1500" /> 
</g>
<g style="fill:#FFFFFF; fill-opacity:1.0000; stroke:none;">
<circle cx="40.9786" cy="33.0767" r="0.1500" /> 
</g>
<g style="fill:#FFFFFF; fill-opacity:1.0000; stroke:none;">
<circle cx="44.2759" cy="35.4497" r="0.1500" /> 
</g>
<g style="fill:#FFFFFF; fill-opacity:1.0000; stroke:none;">
<circle cx="36.0268" cy="32.0145" r="0.1500" /> 
</g>
<g style="fill:#FFFFFF; fill-opacity:1.0000; stroke:none;">
<circle cx="34.8541" cy="31.5348" r="0.1500" /> 
</g>
<g style="fill:#FFFFFF; fill-opacity:1.0000; stroke:none;">
<circle cx="43.7976" cy="30.6309" r="0.1500" /> 
</g>
<g style="fill:#FFFFFF; fill-opacity:1.0000; stroke:none;">
<circle cx="44.2802" cy="31.5453" r="0.1500" /> 
</g>
<g style="fill:#FFFFFF; fill-opacity:1.0000; stroke:none;">
<circle cx="36.6736" cy="37.7002" r="0.1500" /> 
</g>
<g style="fill:#FFFFFF; fill-opacity:1.0000; stroke:none;">
<circle cx="37.2484" cy="37.1255" r="0.1500" /> 
</g>
<g style="fill:#FFFFFF; fill-opacity:1.0000; stroke:none;">
<circle cx="35.9318" cy="31.1756" r="0.1500" /> 
</g>
<g style="fill:#FFFFFF; fill-opacity:1.0000; stroke:none;">
<circle cx="42.4264" cy="37.7248" r="0.1500" /> 
</g>
<g style="fill:#FFFFFF; fill-opacity:1.0000; stroke:none;">
<circle cx="39.5650" cy="33.4922" r="0.1500" /> 
</g>
<g style="fill:#FFFFFF; fill-opacity:1.0000; stroke:none;">
<circle cx="35.3324" cy="36.3536" r="0.1500" /> 
</g>
<g style="fill:#FFFFFF; fill-opacity:1.0000; stroke:none;">
<circle cx="43.7730" cy="36.3836" r="0.1500" /> 
</g>
<g style="fill:#FFFFFF; fill-opacity:1.0000; stroke:none;">
<circle cx="41.5120" cy="38.2075" r="0.1500" /> 
</g>
<g style="fill:#FFFFFF; fill-opacity:1.0000; stroke:none;">
<circle cx="40.5346" cy="28.4760" r="0.1500" /> 
</g>
<g style="fill:#FFFFFF; fill-opacity:1.0000; stroke:none;">
<circle cx="38.5070" cy="33.4913" r="0.1500" /> 
</g>
<g style="fill:#FFFFFF; fill-opacity:1.0000; stroke:none;">
<circle cx="39.0150" cy="33.4913" r="0.1500" /> 
</g>
<g style="fill:#FFFFFF; fill-opacity:1.0000; stroke:none;">
<circle cx="41.0220" cy="37.0390" r="0.1500" /> 
</g>
<g style="fill:#FFFFFF; fill-opacity:1.0000; stroke:none;">
<circle cx="38.6340" cy="28.4722" r="0.1500" /> 
</g>
<g style="fill:#FFFFFF; fill-opacity:1.0000; stroke:none;">
<circle cx="38.0873" cy="37.0305" r="0.1500" /> 
</g>
<g style="fill:#FFFFFF; fill-opacity:1.0000; stroke:none;">
<circle cx="33.1300" cy="20.3513" r="0.1500" /> 
</g>
<g style="fill:#FFFFFF; fill-opacity:1.0000; stroke:none;">
<circle cx="34.1460" cy="20.3513" r="0.1500" /> 
</g>
<g style="fill:#FFFFFF; fill-opacity:1.0000; stroke:none;">
<circle cx="38.9720" cy="12.6042" r="0.1500" /> 
</g>
<g style="fill:#FFFFFF; fill-opacity:1.0000; stroke:none;">
<circle cx="38.2100" cy="13.3662" r="0.1500" /> 
</g>
<g style="fill:#FFFFFF; fill-opacity:1.0000; stroke:none;">
<circle cx="33.6380" cy="20.3513" r="0.1500" /> 
</g>
<g style="fill:#FFFFFF; fill-opacity:1.0000; stroke:none;">
<circle cx="38.5910" cy="12.9852" r="0.1500" /> 
</g>
<g style="fill:#FFFFFF; fill-opacity:1.0000; stroke:none;">
<circle cx="38.2100" cy="11.9692" r="0.1500" /> 
</g>
<g style="fill:#FFFFFF; fill-opacity:1.0000; stroke:none;">
<circle cx="37.4480" cy="12.7312" r="0.1500" /> 
</g>
<g style="fill:#FFFFFF; fill-opacity:1.0000; stroke:none;">
<circle cx="26.1450" cy="22.2562" r="0.1500" /> 
</g>
<g style="fill:#FFFFFF; fill-opacity:1.0000; stroke:none;">
<circle cx="25.0020" cy="22.2562" r="0.1500" /> 
</g>
<g style="fill:#FFFFFF; fill-opacity:1.0000; stroke:none;">
<circle cx="25.5720" cy="22.2562" r="0.1500" /> 
</g>
<g style="fill:#FFFFFF; fill-opacity:1.0000; stroke:none;">
<circle cx="37.8290" cy="12.3502" r="0.1500" /> 
</g>
<g style="fill:#FFFFFF; fill-opacity:1.0000; stroke:none;">
<circle cx="43.4170" cy="18.7003" r="0.1500" /> 
</g>
<g style="fill:#FFFFFF; fill-opacity:1.0000; stroke:none;">
<circle cx="43.4170" cy="19.2082" r="0.1500" /> 
</g>
<g style="fill:#FFFFFF; fill-opacity:1.0000; stroke:none;">
<circle cx="43.4170" cy="19.7162" r="0.1500" /> 
</g>
<g style="fill:#FFFFFF; fill-opacity:1.0000; stroke:none;">
<circle cx="42.4780" cy="33.4922" r="0.3500" /> 
</g>
<g style="fill:#FFFFFF; fill-opacity:1.0000; stroke:none;">
<circle cx="41.6228" cy="31.4275" r="0.3500" /> 
</g>
<g style="fill:#FFFFFF; fill-opacity:1.0000; stroke:none;">
<circle cx="39.5580" cy="30.5722" r="0.3500" /> 
</g>
<g style="fill:#FFFFFF; fill-opacity:1.0000; stroke:none;">
<circle cx="37.4933" cy="31.4275" r="0.3500" /> 
</g>
<g style="fill:#FFFFFF; fill-opacity:1.0000; stroke:none;">
<circle cx="36.6380" cy="33.4922" r="0.3500" /> 
</g>
<g style="fill:#FFFFFF; fill-opacity:1.0000; stroke:none;">
<circle cx="37.4933" cy="35.5570" r="0.3500" /> 
</g>
<g style="fill:#FFFFFF; fill-opacity:1.0000; stroke:none;">
<circle cx="39.5580" cy="36.4122" r="0.3500" /> 
</g>
<g style="fill:#FFFFFF; fill-opacity:1.0000; stroke:none;">
<circle cx="41.6228" cy="35.5570" r="0.3500" /> 
</g>
<g style="fill:#FFFFFF; fill-opacity:1.0000; stroke:none;">
<circle cx="18.0150" cy="34.1022" r="0.9000" /> 
</g>
<g style="fill:#FFFFFF; fill-opacity:1.0000; stroke:none;">
<circle cx="23.0950" cy="34.1022" r="0.9000" /> 
</g>
<g style="fill:#FFFFFF; fill-opacity:1.0000; stroke:none;">
<circle cx="25.6350" cy="34.1022" r="0.9000" /> 
</g>
<g style="fill:#FFFFFF; fill-opacity:1.0000; stroke:none;">
<circle cx="28.1750" cy="34.1022" r="0.9000" /> 
</g>
<g style="fill:#FFFFFF; fill-opacity:1.0000; stroke:none;">
<circle cx="18.0150" cy="37.9123" r="0.5000" /> 
</g>
<g style="fill:#FFFFFF; fill-opacity:1.0000; stroke:none;">
<circle cx="20.5550" cy="37.9123" r="0.5000" /> 
</g>
<g style="fill:#FFFFFF; fill-opacity:1.0000; stroke:none;">
<circle cx="23.0950" cy="37.9123" r="0.5000" /> 
</g>
<g style="fill:#FFFFFF; fill-opacity:1.0000; stroke:none;">
<circle cx="25.6350" cy="37.9123" r="0.5000" /> 
</g>
<g style="fill:#FFFFFF; fill-opacity:1.0000; stroke:none;">
<circle cx="28.1750" cy="37.9123" r="0.5000" /> 
</g>
<g style="fill:#FFFFFF; fill-opacity:1.0000; stroke:none;">
<circle cx="44.6489" cy="40.4383" r="1.8500" /> 
</g>
<g style="fill:#FFFFFF; fill-opacity:1.0000; stroke:none;">
<circle cx="34.4989" cy="26.5483" r="1.8500" /> 
</g>
<g style="fill:#FFFFFF; fill-opacity:1.0000; stroke:none;">
<circle cx="43.4280" cy="3.9682" r="0.5000" /> 
</g>
<g style="fill:#FFFFFF; fill-opacity:1.0000; stroke:none;">
<circle cx="45.7080" cy="3.9682" r="0.5000" /> 
</g>
<g style="fill:#FFFFFF; fill-opacity:1.0000; stroke:none;">
<circle cx="47.9880" cy="3.9682" r="0.5000" /> 
</g>
<g style="fill:#FFFFFF; fill-opacity:1.0000; stroke:none;">
<circle cx="4.0088" cy="5.6683" r="1.8500" /> 
</g>
<g style="fill:#FFFFFF; fill-opacity:1.0000; stroke:none;">
<circle cx="28.1850" cy="11.9923" r="0.9000" /> 
</g>
<g style="fill:#FFFFFF; fill-opacity:1.0000; stroke:none;">
<circle cx="25.6450" cy="11.9923" r="0.9000" /> 
</g>
<g style="fill:#FFFFFF; fill-opacity:1.0000; stroke:none;">
<circle cx="23.1050" cy="11.9923" r="0.9000" /> 
</g>
<g style="fill:#FFFFFF; fill-opacity:1.0000; stroke:none;">
<circle cx="20.5650" cy="11.9923" r="0.9000" /> 
</g>
<g style="fill:#FFFFFF; fill-opacity:1.0000; stroke:none;">
<circle cx="18.0250" cy="11.9923" r="0.9000" /> 
</g>
<g style="fill:#FFFFFF; fill-opacity:1.0000; stroke:none;">
<circle cx="18.0250" cy="8.1822" r="0.5000" /> 
</g>
<g style="fill:#FFFFFF; fill-opacity:1.0000; stroke:none;">
<circle cx="20.5650" cy="8.1822" r="0.5000" /> 
</g>
<g style="fill:#FFFFFF; fill-opacity:1.0000; stroke:none;">
<circle cx="23.1050" cy="8.1822" r="0.5000" /> 
</g>
<g style="fill:#FFFFFF; fill-opacity:1.0000; stroke:none;">
<circle cx="25.6450" cy="8.1822" r="0.5000" /> 
</g>
<g style="fill:#FFFFFF; fill-opacity:1.0000; stroke:none;">
<circle cx="28.1850" cy="8.1822" r="0.5000" /> 
</g> 
</svg>
