<?xml version="1.0" standalone="no"?>
 <!DOCTYPE svg PUBLIC "-//W3C//DTD SVG 1.1//EN" 
 "http://www.w3.org/Graphics/SVG/1.1/DTD/svg11.dtd"> 
<svg
  xmlns:svg="http://www.w3.org/2000/svg"
  xmlns="http://www.w3.org/2000/svg"
  xmlns:xlink="http://www.w3.org/1999/xlink"
  version="1.1"
  width="50.0380mm" height="44.3992mm" viewBox="0.0000 0.0000 50.0380 44.3992">
<title>SVG Image created as 3458A Ref A9 Clone-B_Mask.svg date 2024/11/06 00:15:03 </title>
  <desc>Image generated by PCBNEW </desc>
<g style="fill:#000000; fill-opacity:1.0000;stroke:#000000; stroke-opacity:1.0000;
stroke-linecap:round; stroke-linejoin:round;"
 transform="translate(0 0) scale(1 1)">
</g>
<g style="fill:#848400; fill-opacity:1.0000; stroke:none;">
<circle cx="42.4780" cy="33.4922" r="0.7500" /> 
</g>
<g style="fill:#848400; fill-opacity:1.0000; stroke:none;">
<circle cx="41.6228" cy="31.4275" r="0.7500" /> 
</g>
<g style="fill:#848400; fill-opacity:1.0000; stroke:none;">
<circle cx="39.5580" cy="30.5722" r="0.7500" /> 
</g>
<g style="fill:#848400; fill-opacity:1.0000; stroke:none;">
<circle cx="37.4933" cy="31.4275" r="0.7500" /> 
</g>
<g style="fill:#848400; fill-opacity:1.0000; stroke:none;">
<circle cx="36.6380" cy="33.4922" r="0.7500" /> 
</g>
<g style="fill:#848400; fill-opacity:1.0000; stroke:none;">
<circle cx="37.4933" cy="35.5570" r="0.7500" /> 
</g>
<g style="fill:#848400; fill-opacity:1.0000; stroke:none;">
<circle cx="39.5580" cy="36.4122" r="0.7500" /> 
</g>
<g style="fill:#848400; fill-opacity:1.0000; stroke:none;">
<circle cx="41.6228" cy="35.5570" r="0.7500" /> 
</g>
<g style="fill:#848400; fill-opacity:1.0000; stroke:none;">
<circle cx="18.0150" cy="34.1022" r="1.5000" /> 
</g>
<g style="fill:#848400; fill-opacity:1.0000; stroke:none;">
<circle cx="23.0950" cy="34.1022" r="1.5000" /> 
</g>
<g style="fill:#848400; fill-opacity:1.0000; stroke:none;">
<circle cx="25.6350" cy="34.1022" r="1.5000" /> 
</g>
<g style="fill:#848400; fill-opacity:1.0000; stroke:none;">
<circle cx="28.1750" cy="34.1022" r="1.5000" /> 
<path style="fill:#848400; fill-opacity:1.0000; stroke:none;fill-rule:evenodd;"
d="M 17.2530,38.6743
17.2530,37.1502
18.7770,37.1502
18.7770,38.6743
Z" /> 
</g>
<g style="fill:#848400; fill-opacity:1.0000; stroke:none;">
<circle cx="20.5550" cy="37.9123" r="0.7620" /> 
</g>
<g style="fill:#848400; fill-opacity:1.0000; stroke:none;">
<circle cx="23.0950" cy="37.9123" r="0.7620" /> 
</g>
<g style="fill:#848400; fill-opacity:1.0000; stroke:none;">
<circle cx="25.6350" cy="37.9123" r="0.7620" /> 
</g>
<g style="fill:#848400; fill-opacity:1.0000; stroke:none;">
<circle cx="28.1750" cy="37.9123" r="0.7620" /> 
</g>
<g style="fill:#848400; fill-opacity:1.0000; stroke:none;">
<circle cx="44.6489" cy="40.4383" r="2.4500" /> 
</g>
<g style="fill:#848400; fill-opacity:1.0000; stroke:none;">
<circle cx="34.4989" cy="26.5483" r="2.4500" /> 
<path style="fill:#848400; fill-opacity:1.0000; stroke:none;fill-rule:evenodd;"
d="M 42.5730,4.8682
42.5730,3.0682
44.2830,3.0682
44.2830,4.8682
Z" /> 
</g>
<g style="fill:none; 
stroke:#848400; stroke-width:1.7100; stroke-opacity:1; 
stroke-linecap:round; stroke-linejoin:round;">
<path d="M45.7080 3.9232
L45.7080 4.0133
" />
<path d="M47.9880 3.9232
L47.9880 4.0133
" />
</g>
<g style="fill:#848400; fill-opacity:1.0000; stroke:none;">
<circle cx="4.0088" cy="5.6683" r="3.6000" /> 
</g>
<g style="fill:#848400; fill-opacity:1.0000; stroke:none;">
<circle cx="28.1850" cy="11.9923" r="1.5000" /> 
</g>
<g style="fill:#848400; fill-opacity:1.0000; stroke:none;">
<circle cx="25.6450" cy="11.9923" r="1.5000" /> 
</g>
<g style="fill:#848400; fill-opacity:1.0000; stroke:none;">
<circle cx="23.1050" cy="11.9923" r="1.5000" /> 
</g>
<g style="fill:#848400; fill-opacity:1.0000; stroke:none;">
<circle cx="20.5650" cy="11.9923" r="1.5000" /> 
</g>
<g style="fill:#848400; fill-opacity:1.0000; stroke:none;">
<circle cx="18.0250" cy="11.9923" r="1.5000" /> 
<path style="fill:#848400; fill-opacity:1.0000; stroke:none;fill-rule:evenodd;"
d="M 18.7870,7.4202
18.7870,8.9443
17.2630,8.9443
17.2630,7.4202
Z" /> 
</g>
<g style="fill:#848400; fill-opacity:1.0000; stroke:none;">
<circle cx="20.5650" cy="8.1822" r="0.7620" /> 
</g>
<g style="fill:#848400; fill-opacity:1.0000; stroke:none;">
<circle cx="23.1050" cy="8.1822" r="0.7620" /> 
</g>
<g style="fill:#848400; fill-opacity:1.0000; stroke:none;">
<circle cx="25.6450" cy="8.1822" r="0.7620" /> 
</g>
<g style="fill:#848400; fill-opacity:1.0000; stroke:none;">
<circle cx="28.1850" cy="8.1822" r="0.7620" /> 
<path style="fill:#848400; fill-opacity:1.0000; stroke:none;fill-rule:evenodd;"
d="M 40.2150,31.4422
40.3107,31.4613
40.3918,31.5155
40.4460,31.5966
40.4650,31.6922
40.4650,32.3422
40.4460,32.4379
40.3918,32.5190
40.3107,32.5732
40.2150,32.5922
38.9150,32.5922
38.8193,32.5732
38.7382,32.5190
38.6840,32.4379
38.6650,32.3422
38.6650,31.6922
38.6840,31.5966
38.7382,31.5155
38.8193,31.4613
38.9150,31.4422
Z" /> 
<path style="fill:#848400; fill-opacity:1.0000; stroke:none;fill-rule:evenodd;"
d="M 40.2150,34.3922
40.3107,34.4113
40.3918,34.4655
40.4460,34.5466
40.4650,34.6422
40.4650,35.2922
40.4460,35.3879
40.3918,35.4690
40.3107,35.5232
40.2150,35.5422
38.9150,35.5422
38.8193,35.5232
38.7382,35.4690
38.6840,35.3879
38.6650,35.2922
38.6650,34.6422
38.6840,34.5466
38.7382,34.4655
38.8193,34.4113
38.9150,34.3922
Z" /> 
</g>
<g style="fill:none; 
stroke:#C2C200; stroke-width:0.0500; stroke-opacity:1; 
stroke-linecap:round; stroke-linejoin:round;">
<path d="M50.0250 4.3022
L50.0250 41.7222
" />
<path d="M2.5650 1.7622 A2.5400 2.5400 0.0 0 0 0.0250 4.3022" />
<path d="M50.0250 4.3022 A2.5400 2.5400 0.0 0 0 47.4850 1.7622" />
<path d="M0.0250 41.7222
L0.0250 4.3022
" />
<path d="M0.0250 41.7222 A2.5400 2.5400 0.0 0 0 2.5650 44.2622" />
<path d="M2.5650 1.7622
L47.4850 1.7622
" />
<path d="M47.4850 44.2622 A2.5400 2.5400 0.0 0 0 50.0250 41.7222" />
<path d="M47.4850 44.2622
L2.5650 44.2622
" />
</g> 
</svg>
