<?xml version="1.0" standalone="no"?>
 <!DOCTYPE svg PUBLIC "-//W3C//DTD SVG 1.1//EN" 
 "http://www.w3.org/Graphics/SVG/1.1/DTD/svg11.dtd"> 
<svg
  xmlns:svg="http://www.w3.org/2000/svg"
  xmlns="http://www.w3.org/2000/svg"
  xmlns:xlink="http://www.w3.org/1999/xlink"
  version="1.1"
  width="50.0380mm" height="44.3992mm" viewBox="0.0000 0.0000 50.0380 44.3992">
<title>SVG Image created as 3458A Ref A9 Clone-B_Silkscreen.svg date 2024/11/06 00:15:03 </title>
  <desc>Image generated by PCBNEW </desc>
<g style="fill:#000000; fill-opacity:1.0000;stroke:#000000; stroke-opacity:1.0000;
stroke-linecap:round; stroke-linejoin:round;"
 transform="translate(0 0) scale(1 1)">
</g>
<g style="fill:none; 
stroke:#840084; stroke-width:0.3000; stroke-opacity:1; 
stroke-linecap:round; stroke-linejoin:round;">
<text x="34.1460" y="43.3382"
transform="scale(-1 1) translate(-68.292000 0)"
textLength="31.3571" font-size="2.6667" lengthAdjust="spacingAndGlyphs"
text-anchor="start" opacity="0" stroke-opacity="0">Michael D. 11/2024</text>
<g class="stroked-text"><desc>Michael D. 11/2024</desc>
<path d="M33.4724 43.0779
L33.4724 41.0779
" />
<path d="M33.4724 41.0779
L32.8058 42.5065
" />
<path d="M32.8058 42.5065
L32.1391 41.0779
" />
<path d="M32.1391 41.0779
L32.1391 43.0779
" />
<path d="M31.1867 43.0779
L31.1867 41.7446
" />
<path d="M31.1867 41.0779
L31.2820 41.1731
" />
<path d="M31.2820 41.1731
L31.1867 41.2684
" />
<path d="M31.1867 41.2684
L31.0915 41.1731
" />
<path d="M31.0915 41.1731
L31.1867 41.0779
" />
<path d="M31.1867 41.0779
L31.1867 41.2684
" />
<path d="M29.3772 42.9826
L29.5677 43.0779
" />
<path d="M29.5677 43.0779
L29.9486 43.0779
" />
<path d="M29.9486 43.0779
L30.1391 42.9826
" />
<path d="M30.1391 42.9826
L30.2343 42.8874
" />
<path d="M30.2343 42.8874
L30.3296 42.6969
" />
<path d="M30.3296 42.6969
L30.3296 42.1255
" />
<path d="M30.3296 42.1255
L30.2343 41.9350
" />
<path d="M30.2343 41.9350
L30.1391 41.8398
" />
<path d="M30.1391 41.8398
L29.9486 41.7446
" />
<path d="M29.9486 41.7446
L29.5677 41.7446
" />
<path d="M29.5677 41.7446
L29.3772 41.8398
" />
<path d="M28.5201 43.0779
L28.5201 41.0779
" />
<path d="M27.6629 43.0779
L27.6629 42.0303
" />
<path d="M27.6629 42.0303
L27.7582 41.8398
" />
<path d="M27.7582 41.8398
L27.9486 41.7446
" />
<path d="M27.9486 41.7446
L28.2343 41.7446
" />
<path d="M28.2343 41.7446
L28.4248 41.8398
" />
<path d="M28.4248 41.8398
L28.5201 41.9350
" />
<path d="M25.8534 43.0779
L25.8534 42.0303
" />
<path d="M25.8534 42.0303
L25.9486 41.8398
" />
<path d="M25.9486 41.8398
L26.1391 41.7446
" />
<path d="M26.1391 41.7446
L26.5201 41.7446
" />
<path d="M26.5201 41.7446
L26.7105 41.8398
" />
<path d="M25.8534 42.9826
L26.0439 43.0779
" />
<path d="M26.0439 43.0779
L26.5201 43.0779
" />
<path d="M26.5201 43.0779
L26.7105 42.9826
" />
<path d="M26.7105 42.9826
L26.8058 42.7922
" />
<path d="M26.8058 42.7922
L26.8058 42.6017
" />
<path d="M26.8058 42.6017
L26.7105 42.4112
" />
<path d="M26.7105 42.4112
L26.5201 42.3160
" />
<path d="M26.5201 42.3160
L26.0439 42.3160
" />
<path d="M26.0439 42.3160
L25.8534 42.2207
" />
<path d="M24.1391 42.9826
L24.3296 43.0779
" />
<path d="M24.3296 43.0779
L24.7105 43.0779
" />
<path d="M24.7105 43.0779
L24.9010 42.9826
" />
<path d="M24.9010 42.9826
L24.9962 42.7922
" />
<path d="M24.9962 42.7922
L24.9962 42.0303
" />
<path d="M24.9962 42.0303
L24.9010 41.8398
" />
<path d="M24.9010 41.8398
L24.7105 41.7446
" />
<path d="M24.7105 41.7446
L24.3296 41.7446
" />
<path d="M24.3296 41.7446
L24.1391 41.8398
" />
<path d="M24.1391 41.8398
L24.0439 42.0303
" />
<path d="M24.0439 42.0303
L24.0439 42.2207
" />
<path d="M24.0439 42.2207
L24.9962 42.4112
" />
<path d="M22.9010 43.0779
L23.0915 42.9826
" />
<path d="M23.0915 42.9826
L23.1867 42.7922
" />
<path d="M23.1867 42.7922
L23.1867 41.0779
" />
<path d="M20.6153 43.0779
L20.6153 41.0779
" />
<path d="M20.6153 41.0779
L20.1391 41.0779
" />
<path d="M20.1391 41.0779
L19.8534 41.1731
" />
<path d="M19.8534 41.1731
L19.6629 41.3636
" />
<path d="M19.6629 41.3636
L19.5677 41.5541
" />
<path d="M19.5677 41.5541
L19.4724 41.9350
" />
<path d="M19.4724 41.9350
L19.4724 42.2207
" />
<path d="M19.4724 42.2207
L19.5677 42.6017
" />
<path d="M19.5677 42.6017
L19.6629 42.7922
" />
<path d="M19.6629 42.7922
L19.8534 42.9826
" />
<path d="M19.8534 42.9826
L20.1391 43.0779
" />
<path d="M20.1391 43.0779
L20.6153 43.0779
" />
<path d="M18.6153 42.8874
L18.5201 42.9826
" />
<path d="M18.5201 42.9826
L18.6153 43.0779
" />
<path d="M18.6153 43.0779
L18.7105 42.9826
" />
<path d="M18.7105 42.9826
L18.6153 42.8874
" />
<path d="M18.6153 42.8874
L18.6153 43.0779
" />
<path d="M15.0915 43.0779
L16.2343 43.0779
" />
<path d="M15.6629 43.0779
L15.6629 41.0779
" />
<path d="M15.6629 41.0779
L15.8534 41.3636
" />
<path d="M15.8534 41.3636
L16.0439 41.5541
" />
<path d="M16.0439 41.5541
L16.2343 41.6493
" />
<path d="M13.1867 43.0779
L14.3296 43.0779
" />
<path d="M13.7582 43.0779
L13.7582 41.0779
" />
<path d="M13.7582 41.0779
L13.9486 41.3636
" />
<path d="M13.9486 41.3636
L14.1391 41.5541
" />
<path d="M14.1391 41.5541
L14.3296 41.6493
" />
<path d="M10.9010 40.9826
L12.6153 43.5541
" />
<path d="M10.3296 41.2684
L10.2343 41.1731
" />
<path d="M10.2343 41.1731
L10.0439 41.0779
" />
<path d="M10.0439 41.0779
L9.5677 41.0779
" />
<path d="M9.5677 41.0779
L9.3772 41.1731
" />
<path d="M9.3772 41.1731
L9.2820 41.2684
" />
<path d="M9.2820 41.2684
L9.1867 41.4588
" />
<path d="M9.1867 41.4588
L9.1867 41.6493
" />
<path d="M9.1867 41.6493
L9.2820 41.9350
" />
<path d="M9.2820 41.9350
L10.4248 43.0779
" />
<path d="M10.4248 43.0779
L9.1867 43.0779
" />
<path d="M7.9486 41.0779
L7.7582 41.0779
" />
<path d="M7.7582 41.0779
L7.5677 41.1731
" />
<path d="M7.5677 41.1731
L7.4724 41.2684
" />
<path d="M7.4724 41.2684
L7.3772 41.4588
" />
<path d="M7.3772 41.4588
L7.2820 41.8398
" />
<path d="M7.2820 41.8398
L7.2820 42.3160
" />
<path d="M7.2820 42.3160
L7.3772 42.6969
" />
<path d="M7.3772 42.6969
L7.4724 42.8874
" />
<path d="M7.4724 42.8874
L7.5677 42.9826
" />
<path d="M7.5677 42.9826
L7.7582 43.0779
" />
<path d="M7.7582 43.0779
L7.9486 43.0779
" />
<path d="M7.9486 43.0779
L8.1391 42.9826
" />
<path d="M8.1391 42.9826
L8.2343 42.8874
" />
<path d="M8.2343 42.8874
L8.3296 42.6969
" />
<path d="M8.3296 42.6969
L8.4248 42.3160
" />
<path d="M8.4248 42.3160
L8.4248 41.8398
" />
<path d="M8.4248 41.8398
L8.3296 41.4588
" />
<path d="M8.3296 41.4588
L8.2343 41.2684
" />
<path d="M8.2343 41.2684
L8.1391 41.1731
" />
<path d="M8.1391 41.1731
L7.9486 41.0779
" />
<path d="M6.5201 41.2684
L6.4248 41.1731
" />
<path d="M6.4248 41.1731
L6.2343 41.0779
" />
<path d="M6.2343 41.0779
L5.7582 41.0779
" />
<path d="M5.7582 41.0779
L5.5677 41.1731
" />
<path d="M5.5677 41.1731
L5.4724 41.2684
" />
<path d="M5.4724 41.2684
L5.3772 41.4588
" />
<path d="M5.3772 41.4588
L5.3772 41.6493
" />
<path d="M5.3772 41.6493
L5.4724 41.9350
" />
<path d="M5.4724 41.9350
L6.6153 43.0779
" />
<path d="M6.6153 43.0779
L5.3772 43.0779
" />
<path d="M3.6629 41.7446
L3.6629 43.0779
" />
<path d="M4.1391 40.9826
L4.6153 42.4112
" />
<path d="M4.6153 42.4112
L3.3772 42.4112
" />
</g></g>
<g style="fill:none; 
stroke:#840084; stroke-width:0.1500; stroke-opacity:1; 
stroke-linecap:round; stroke-linejoin:round;">
<text x="38.5910" y="42.8222"
transform="scale(-1 1) translate(-77.182000 0)"
textLength="2.2024" font-size="1.3333" lengthAdjust="spacingAndGlyphs"
text-anchor="middle" opacity="0" stroke-opacity="0">C2</text>
<g class="stroked-text"><desc>C2</desc>
<path d="M38.7577 42.6818
L38.8053 42.7294
" />
<path d="M38.8053 42.7294
L38.9481 42.7771
" />
<path d="M38.9481 42.7771
L39.0434 42.7771
" />
<path d="M39.0434 42.7771
L39.1862 42.7294
" />
<path d="M39.1862 42.7294
L39.2815 42.6342
" />
<path d="M39.2815 42.6342
L39.3291 42.5390
" />
<path d="M39.3291 42.5390
L39.3767 42.3485
" />
<path d="M39.3767 42.3485
L39.3767 42.2056
" />
<path d="M39.3767 42.2056
L39.3291 42.0152
" />
<path d="M39.3291 42.0152
L39.2815 41.9199
" />
<path d="M39.2815 41.9199
L39.1862 41.8247
" />
<path d="M39.1862 41.8247
L39.0434 41.7771
" />
<path d="M39.0434 41.7771
L38.9481 41.7771
" />
<path d="M38.9481 41.7771
L38.8053 41.8247
" />
<path d="M38.8053 41.8247
L38.7577 41.8723
" />
<path d="M38.3767 41.8723
L38.3291 41.8247
" />
<path d="M38.3291 41.8247
L38.2339 41.7771
" />
<path d="M38.2339 41.7771
L37.9958 41.7771
" />
<path d="M37.9958 41.7771
L37.9005 41.8247
" />
<path d="M37.9005 41.8247
L37.8529 41.8723
" />
<path d="M37.8529 41.8723
L37.8053 41.9675
" />
<path d="M37.8053 41.9675
L37.8053 42.0628
" />
<path d="M37.8053 42.0628
L37.8529 42.2056
" />
<path d="M37.8529 42.2056
L38.4243 42.7771
" />
<path d="M38.4243 42.7771
L37.8053 42.7771
" />
</g><path style="fill:#840084; fill-opacity:1.0000; 
stroke:#840084; stroke-width:0.0100; stroke-opacity:1; 
stroke-linecap:round; stroke-linejoin:round;fill-rule:evenodd;"
d="M 25.5573,16.5050
25.6400,16.5322
25.7151,16.5777
25.7870,16.6435
25.8255,16.6878
25.8650,16.7461
25.8901,16.8068
25.9036,16.8761
25.9076,16.9604
25.9074,17.0065
25.9052,17.0476
25.8996,17.0798
25.8893,17.1103
25.8728,17.1467
25.8589,17.1739
25.8004,17.2596
25.7283,17.3288
25.6446,17.3799
25.5512,17.4114
25.5181,17.4184
25.4777,17.4253
25.4447,17.4271
25.4104,17.4241
25.3659,17.4166
25.3146,17.4042
25.2241,17.3663
25.1450,17.3120
25.0792,17.2440
25.0285,17.1647
24.9948,17.0768
24.9800,16.9830
24.9858,16.8857
25.0121,16.7894
25.0571,16.7007
25.1181,16.6256
25.1929,16.5658
25.2795,16.5230
25.3757,16.4988
25.4796,16.4948
Z" /> 
<path style="fill:#840084; fill-opacity:1.0000; 
stroke:#840084; stroke-width:0.0100; stroke-opacity:1; 
stroke-linecap:round; stroke-linejoin:round;fill-rule:evenodd;"
d="M 23.0914,17.4342
23.1870,17.4517
23.3513,17.4968
23.5053,17.5598
23.6512,17.6421
23.7912,17.7446
23.9273,17.8686
23.9712,17.9138
24.0835,18.0461
24.1767,18.1840
24.2534,18.3319
24.3163,18.4940
24.3201,18.5056
24.3702,18.6916
24.4036,18.8877
24.4203,19.0898
24.4202,19.2935
24.4035,19.4948
24.3700,19.6893
24.3197,19.8729
24.2759,19.9902
24.1980,20.1531
24.1045,20.3071
23.9975,20.4489
23.8792,20.5754
23.7518,20.6836
23.6743,20.7363
23.5474,20.8059
23.4099,20.8647
23.2684,20.9098
23.1294,20.9386
23.1153,20.9403
23.0719,20.9436
23.0144,20.9465
22.9488,20.9486
22.8809,20.9497
22.7541,20.9473
22.6064,20.9343
22.4685,20.9093
22.3347,20.8715
22.3113,20.8631
22.2633,20.8436
22.2068,20.8187
22.1451,20.7899
22.0813,20.7590
22.0186,20.7275
21.9604,20.6971
21.9098,20.6695
21.8701,20.6462
21.8446,20.6289
21.8363,20.6193
21.8378,20.6162
21.8489,20.5963
21.8698,20.5606
21.8990,20.5116
21.9349,20.4518
21.9761,20.3836
22.0212,20.3095
22.2025,20.0122
22.2490,20.0567
22.3404,20.1351
22.4540,20.2096
22.5718,20.2637
22.6923,20.2965
22.8138,20.3074
22.8553,20.3061
22.9728,20.2878
23.0828,20.2488
23.1841,20.1899
23.2756,20.1117
23.3561,20.0153
23.4243,19.9012
23.4406,19.8669
23.4867,19.7434
23.5218,19.6051
23.5459,19.4557
23.5589,19.2992
23.5606,19.1391
23.5511,18.9795
23.5303,18.8240
23.4979,18.6766
23.4541,18.5409
23.4167,18.4543
23.3519,18.3409
23.2765,18.2473
23.1901,18.1731
23.0925,18.1183
22.9833,18.0824
22.8621,18.0652
22.7927,18.0641
22.6699,18.0783
22.5544,18.1134
22.4477,18.1689
22.3512,18.2442
22.3354,18.2586
22.3048,18.2851
22.2825,18.3023
22.2724,18.3070
22.2704,18.3048
22.2559,18.2859
22.2321,18.2526
22.2007,18.2076
22.1637,18.1536
22.1228,18.0935
22.0799,18.0299
22.0369,17.9657
21.9956,17.9035
21.9578,17.8462
21.9254,17.7964
21.9003,17.7571
21.8842,17.7308
21.8791,17.7203
21.8837,17.7161
21.9030,17.7111
21.9125,17.7086
21.9405,17.6974
21.9821,17.6790
22.0337,17.6549
22.0914,17.6269
22.1027,17.6213
22.2804,17.5421
22.4502,17.4826
22.6141,17.4424
22.7743,17.4213
22.9327,17.4187
Z" /> 
<path style="fill:#840084; fill-opacity:1.0000; 
stroke:#840084; stroke-width:0.0100; stroke-opacity:1; 
stroke-linecap:round; stroke-linejoin:round;fill-rule:evenodd;"
d="M 19.2887,19.7149
19.2880,19.7923
19.2794,19.9438
19.2605,20.0805
19.2305,20.2065
19.1885,20.3258
19.1337,20.4426
19.0669,20.5534
18.9761,20.6669
18.8724,20.7624
18.7566,20.8393
18.6293,20.8970
18.4912,20.9350
18.4535,20.9409
18.3744,20.9466
18.2863,20.9468
18.1969,20.9417
18.1141,20.9318
18.0456,20.9172
18.0147,20.9076
17.9374,20.8773
17.8604,20.8398
17.7909,20.7988
17.7363,20.7581
17.7136,20.7387
17.6909,20.7208
17.6795,20.7140
17.6782,20.7156
17.6754,20.7334
17.6735,20.7666
17.6727,20.8099
17.6727,20.9059
16.8146,20.9059
16.8489,20.8452
16.8541,20.8361
16.8624,20.8214
16.8700,20.8074
16.8768,20.7927
16.8829,20.7764
16.8884,20.7574
16.8932,20.7345
16.8974,20.7066
16.9011,20.6727
16.9042,20.6316
16.9069,20.5822
16.9092,20.5235
16.9110,20.4543
16.9125,20.3735
16.9137,20.2801
16.9145,20.1729
16.9152,20.0508
16.9156,19.9128
16.9159,19.7576
16.9161,19.5844
16.9161,19.3918
16.9162,19.1789
16.9162,19.0427
17.7179,19.0427
17.7179,20.1929
17.7885,20.2393
17.8291,20.2630
17.8832,20.2888
17.9324,20.3070
17.9959,20.3227
18.0920,20.3337
18.1766,20.3256
18.2499,20.2980
18.3123,20.2508
18.3642,20.1838
18.4059,20.0968
18.4377,19.9895
18.4402,19.9772
18.4487,19.9160
18.4544,19.8389
18.4573,19.7512
18.4575,19.6581
18.4550,19.5649
18.4500,19.4768
18.4423,19.3990
18.4321,19.3367
18.4309,19.3309
18.4018,19.2203
18.3673,19.1298
18.3262,19.0571
18.2772,19.0004
18.2193,18.9574
18.1873,18.9418
18.1145,18.9229
18.0331,18.9197
17.9480,18.9316
17.8638,18.9582
17.7853,18.9992
17.7179,19.0427
16.9162,19.0427
16.9162,18.9444
16.9164,17.2596
17.8217,17.2596
17.7973,17.2963
17.7910,17.3058
17.7649,17.3522
17.7472,17.3993
17.7356,17.4544
17.7280,17.5249
17.7275,17.5318
17.7258,17.5698
17.7241,17.6238
17.7227,17.6909
17.7214,17.7685
17.7204,17.8537
17.7195,17.9439
17.7189,18.0363
17.7185,18.1281
17.7184,18.2166
17.7185,18.2990
17.7189,18.3727
17.7196,18.4347
17.7205,18.4824
17.7218,18.5131
17.7234,18.5239
17.7317,18.5195
17.7533,18.5045
17.7827,18.4826
17.8316,18.4484
17.9198,18.4019
18.0186,18.3682
18.1312,18.3464
18.2609,18.3355
18.3534,18.3344
18.4747,18.3442
18.5848,18.3684
18.6881,18.4080
18.7890,18.4641
18.8342,18.4951
18.9396,18.5863
19.0312,18.6953
19.1090,18.8219
19.1729,18.9660
19.2229,19.1275
19.2589,19.3062
19.2808,19.5021
19.2866,19.6581
Z" /> 
<path style="fill:#840084; fill-opacity:1.0000; 
stroke:#840084; stroke-width:0.0100; stroke-opacity:1; 
stroke-linecap:round; stroke-linejoin:round;fill-rule:evenodd;"
d="M 21.8305,20.1157
21.8300,20.1496
21.8263,20.2244
21.8187,20.2866
21.8064,20.3432
21.7620,20.4693
21.6991,20.5839
21.6189,20.6848
21.5224,20.7711
21.4105,20.8421
21.2841,20.8970
21.1441,20.9348
21.1078,20.9405
21.0289,20.9465
20.9405,20.9468
20.8508,20.9418
20.7674,20.9319
20.6983,20.9172
20.6119,20.8869
20.5020,20.8322
20.4047,20.7647
20.3426,20.7137
20.3393,20.8098
20.3360,20.9059
19.9131,20.9059
19.9022,20.9059
19.8078,20.9056
19.7210,20.9048
19.6445,20.9036
19.5807,20.9021
19.5321,20.9003
19.5011,20.8983
19.4903,20.8961
19.4903,20.8957
19.4973,20.8801
19.5131,20.8573
19.5174,20.8518
19.5285,20.8378
19.5380,20.8244
19.5462,20.8099
19.5530,20.7927
19.5588,20.7712
19.5636,20.7437
19.5674,20.7085
19.5705,20.6639
19.5730,20.6084
19.5750,20.5403
19.5766,20.4578
19.5779,20.3594
19.5791,20.2434
19.5803,20.1082
19.5813,19.9968
20.3821,19.9968
20.3821,20.1927
20.4267,20.2492
20.4395,20.2644
20.4863,20.3070
20.5470,20.3429
20.5576,20.3480
20.5964,20.3649
20.6314,20.3751
20.6714,20.3805
20.7252,20.3832
20.7433,20.3836
20.8187,20.3807
20.8794,20.3688
20.9311,20.3462
20.9794,20.3114
20.9845,20.3070
21.0330,20.2513
21.0612,20.1875
21.0704,20.1125
21.0632,20.0409
21.0385,19.9778
20.9939,19.9199
20.9390,19.8730
20.8666,19.8331
20.7800,19.8055
20.6774,19.7893
20.5566,19.7840
20.5477,19.7840
20.4924,19.7848
20.4454,19.7867
20.4117,19.7893
20.3957,19.7925
20.3916,19.7989
20.3873,19.8211
20.3843,19.8602
20.3826,19.9181
20.3821,19.9968
19.5813,19.9968
19.5817,19.9520
19.5829,19.8092
19.5843,19.6641
19.5859,19.5382
19.5876,19.4296
19.5897,19.3365
19.5924,19.2571
19.5956,19.1895
19.5996,19.1318
19.6044,19.0824
19.6103,19.0392
19.6173,19.0006
19.6256,18.9646
19.6353,18.9295
19.6465,18.8933
19.6593,18.8543
19.6748,18.8113
19.7177,18.7191
19.7714,18.6393
19.8403,18.5652
19.9179,18.5016
20.0225,18.4399
20.1419,18.3924
20.2772,18.3588
20.4291,18.3387
20.5986,18.3321
20.6566,18.3325
20.7221,18.3345
20.7834,18.3389
20.8448,18.3462
20.9106,18.3572
20.9852,18.3723
21.0729,18.3924
21.1779,18.4180
21.2065,18.4250
21.2818,18.4430
21.3521,18.4590
21.4133,18.4722
21.4611,18.4817
21.4912,18.4864
21.5195,18.4901
21.5458,18.4954
21.5558,18.5001
21.5526,18.5090
21.5419,18.5363
21.5246,18.5791
21.5018,18.6346
21.4748,18.7000
21.4448,18.7723
21.4382,18.7881
21.3996,18.8787
21.3685,18.9484
21.3446,18.9976
21.3279,19.0266
21.3182,19.0356
21.3105,19.0336
21.2841,19.0239
21.2457,19.0084
21.2005,18.9890
21.1060,18.9510
20.9692,18.9100
20.8280,18.8848
20.7900,18.8808
20.6868,18.8786
20.5997,18.8918
20.5278,18.9209
20.4704,18.9667
20.4266,19.0296
20.3955,19.1103
20.3762,19.2094
20.3687,19.2684
20.5306,19.2616
20.6572,19.2600
20.8086,19.2664
20.9571,19.2810
21.0933,19.3031
21.1579,19.3180
21.2902,19.3609
21.4125,19.4175
21.5224,19.4862
21.6176,19.5654
21.6957,19.6534
21.7543,19.7487
21.7783,19.8011
21.8039,19.8718
21.8202,19.9430
21.8285,20.0219
21.8304,20.1125
Z" /> 
<path style="fill:#840084; fill-opacity:1.0000; 
stroke:#840084; stroke-width:0.0100; stroke-opacity:1; 
stroke-linecap:round; stroke-linejoin:round;fill-rule:evenodd;"
d="M 29.3783,17.5840
29.3788,17.7152
29.3791,17.8624
29.3792,18.0265
29.3793,18.2085
29.3794,18.4094
29.3794,18.6299
29.3793,18.8712
29.3793,19.1341
29.3793,19.1762
29.3793,19.4369
29.3794,19.6760
29.3794,19.8945
29.3794,20.0935
29.3793,20.2737
29.3791,20.4362
29.3788,20.5819
29.3783,20.7116
29.3776,20.8264
29.3767,20.9272
29.3755,21.0149
29.3741,21.0905
29.3723,21.1548
29.3702,21.2088
29.3678,21.2536
29.3649,21.2898
29.3616,21.3187
29.3579,21.3409
29.3537,21.3576
29.3489,21.3696
29.3436,21.3778
29.3378,21.3833
29.3313,21.3868
29.3242,21.3895
29.3164,21.3921
29.3080,21.3957
29.3036,21.3973
29.2951,21.3993
29.2824,21.4011
29.2646,21.4027
29.2407,21.4042
29.2100,21.4056
29.1713,21.4068
29.1239,21.4079
29.0667,21.4088
28.9990,21.4097
28.9197,21.4104
28.8279,21.4111
28.7227,21.4116
28.6033,21.4121
28.4686,21.4125
28.3178,21.4128
28.1499,21.4131
27.9640,21.4133
27.7593,21.4134
27.5347,21.4135
27.2894,21.4136
27.0224,21.4136
26.9840,21.4136
26.7186,21.4137
26.4747,21.4137
26.2515,21.4137
26.0479,21.4137
25.8631,21.4136
25.6961,21.4134
25.5460,21.4131
25.4119,21.4127
25.2929,21.4121
25.1880,21.4113
25.0963,21.4103
25.0169,21.4090
24.9489,21.4075
24.8914,21.4057
24.8434,21.4036
24.8039,21.4012
24.7722,21.3985
24.7472,21.3953
24.7281,21.3918
24.7138,21.3878
24.7036,21.3834
24.6964,21.3785
24.6913,21.3731
24.6875,21.3672
24.6840,21.3607
24.6798,21.3537
24.6787,21.3519
24.6765,21.3464
24.6745,21.3381
24.6726,21.3260
24.6710,21.3093
24.6694,21.2869
24.6681,21.2579
24.6669,21.2215
24.6658,21.1766
24.6648,21.1222
24.6640,21.0576
24.6633,20.9817
24.6627,20.8935
24.6626,20.8847
24.9541,20.8847
24.9580,20.8860
24.9812,20.8880
25.0236,20.8898
25.0828,20.8914
25.1568,20.8927
25.2433,20.8937
25.3401,20.8944
25.4451,20.8946
26.1433,20.8946
27.2978,20.8946
27.2972,20.8184
27.2983,20.7763
27.3040,20.7405
27.3166,20.7030
27.3383,20.6548
27.3415,20.6481
27.3669,20.5985
27.3937,20.5506
27.4166,20.5137
27.4212,20.5070
27.4432,20.4758
27.4754,20.4308
27.5162,20.3743
27.5639,20.3084
27.6172,20.2351
27.6744,20.1567
27.7339,20.0753
27.7941,19.9929
27.8536,19.9117
27.9108,19.8339
27.9641,19.7616
28.0119,19.6969
28.0527,19.6419
28.0849,19.5989
28.1069,19.5698
28.1173,19.5569
28.1217,19.5525
28.1259,19.5505
28.1293,19.5531
28.1320,19.5622
28.1340,19.5795
28.1354,19.6068
28.1363,19.6460
28.1367,19.6987
28.1366,19.7669
28.1362,19.8523
28.1354,19.9566
28.1344,20.0818
28.1340,20.1265
28.1329,20.2476
28.1317,20.3489
28.1303,20.4324
28.1288,20.5004
28.1269,20.5548
28.1247,20.5977
28.1219,20.6313
28.1187,20.6575
28.1148,20.6786
28.1102,20.6965
28.1019,20.7230
28.0783,20.7850
28.0524,20.8378
28.0272,20.8748
28.0260,20.8763
28.0239,20.8806
28.0260,20.8842
28.0343,20.8871
28.0506,20.8895
28.0767,20.8912
28.1145,20.8926
28.1657,20.8935
28.2321,20.8941
28.3157,20.8944
28.4182,20.8946
28.5414,20.8946
29.0730,20.8946
29.0342,20.8370
29.0281,20.8281
29.0177,20.8133
29.0083,20.7996
28.9999,20.7860
28.9924,20.7711
28.9859,20.7539
28.9801,20.7330
28.9752,20.7075
28.9710,20.6759
28.9674,20.6373
28.9644,20.5903
28.9620,20.5338
28.9601,20.4666
28.9587,20.3875
28.9576,20.2953
28.9568,20.1889
28.9563,20.0670
28.9561,19.9285
28.9559,19.7722
28.9559,19.5968
28.9560,19.4013
28.9560,19.1843
28.9560,19.0617
28.9559,18.8566
28.9559,18.6723
28.9560,18.5075
28.9562,18.3611
28.9566,18.2319
28.9572,18.1186
28.9581,18.0202
28.9594,17.9353
28.9612,17.8629
28.9634,17.8018
28.9661,17.7507
28.9694,17.7085
28.9734,17.6739
28.9780,17.6459
28.9834,17.6231
28.9897,17.6045
28.9968,17.5889
29.0048,17.5750
29.0139,17.5616
29.0239,17.5477
29.0351,17.5319
29.0749,17.4741
28.0150,17.4741
28.0530,17.5372
28.0677,17.5622
28.0822,17.5898
28.0943,17.6179
28.1042,17.6487
28.1122,17.6845
28.1185,17.7275
28.1233,17.7798
28.1269,17.8436
28.1296,17.9212
28.1316,18.0148
28.1331,18.1265
28.1344,18.2586
28.1353,18.3786
28.1357,18.4953
28.1355,18.5907
28.1346,18.6647
28.1330,18.7170
28.1308,18.7473
28.1279,18.7553
28.1249,18.7520
28.1067,18.7306
28.0770,18.6941
28.0373,18.6446
27.9895,18.5844
27.9350,18.5155
27.8757,18.4401
27.8132,18.3604
27.7491,18.2784
27.6852,18.1964
27.6230,18.1164
27.5644,18.0406
27.5108,17.9712
27.4641,17.9102
27.4259,17.8599
27.3979,17.8223
27.3816,17.7997
27.3363,17.7274
27.2964,17.6477
27.2748,17.5794
27.2715,17.5220
27.2768,17.4741
26.1451,17.4743
26.1846,17.5049
26.1939,17.5123
26.2569,17.5666
26.3257,17.6344
26.4023,17.7177
26.4886,17.8184
26.5057,17.8390
26.5465,17.8886
26.5963,17.9495
26.6537,18.0201
26.7173,18.0986
26.7858,18.1834
26.8578,18.2727
26.9320,18.3649
26.9472,18.3839
27.0069,18.4582
27.0814,18.5510
27.1538,18.6416
27.2230,18.7282
27.2875,18.8091
27.3460,18.8827
27.3972,18.9472
27.4395,19.0010
27.4718,19.0423
27.4926,19.0695
27.5006,19.0809
27.4988,19.0850
27.4859,19.1055
27.4616,19.1417
27.4269,19.1920
27.3832,19.2547
27.3315,19.3281
27.2730,19.4107
27.2089,19.5008
27.1403,19.5968
27.0685,19.6971
26.9946,19.8000
26.9198,19.9038
26.8452,20.0071
26.7721,20.1081
26.7015,20.2052
26.6347,20.2968
26.5728,20.3812
26.5171,20.4569
26.4686,20.5221
26.4285,20.5753
26.3981,20.6149
26.3776,20.6402
26.3316,20.6945
26.2813,20.7510
26.2345,20.8009
26.1433,20.8946
25.4451,20.8946
25.5141,20.8945
25.6123,20.8943
25.7017,20.8938
25.7800,20.8932
25.8449,20.8924
25.8941,20.8915
25.9253,20.8905
25.9362,20.8894
25.9350,20.8862
25.9249,20.8686
25.9077,20.8423
25.8992,20.8299
25.8900,20.8158
25.8819,20.8015
25.8749,20.7857
25.8688,20.7668
25.8637,20.7435
25.8593,20.7145
25.8558,20.6782
25.8530,20.6334
25.8508,20.5785
25.8492,20.5123
25.8481,20.4333
25.8475,20.3401
25.8472,20.2313
25.8472,20.1055
25.8475,19.9613
25.8479,19.7974
25.8484,19.6123
25.8490,19.4334
25.8495,19.2746
25.8500,19.1355
25.8506,19.0149
25.8513,18.9112
25.8521,18.8232
25.8530,18.7494
25.8541,18.6885
25.8554,18.6389
25.8569,18.5995
25.8587,18.5687
25.8608,18.5451
25.8632,18.5274
25.8659,18.5142
25.8691,18.5041
25.8726,18.4957
25.8765,18.4876
25.8961,18.4507
25.9149,18.4206
25.9160,18.4191
25.9303,18.3968
25.9362,18.3839
25.9352,18.3834
25.9180,18.3820
25.8814,18.3807
25.8277,18.3795
25.7593,18.3785
25.6788,18.3778
25.5884,18.3773
25.4906,18.3772
25.0449,18.3772
25.0418,19.5540
25.0387,20.7309
25.0121,20.7898
25.0002,20.8144
24.9829,20.8446
24.9698,20.8617
24.9618,20.8698
24.9541,20.8847
24.6626,20.8847
24.6622,20.7922
24.6617,20.6768
24.6614,20.5463
24.6611,20.3999
24.6609,20.2365
24.6608,20.0553
24.6607,19.8552
24.6606,19.6354
24.6606,19.3949
24.6606,19.1328
24.6606,16.9412
24.6989,16.9028
24.7261,16.8791
24.7530,16.8673
24.7893,16.8645
24.8412,16.8645
24.8412,16.9524
24.8431,17.0023
24.8619,17.1127
24.8989,17.2142
24.9521,17.3053
25.0192,17.3849
25.0983,17.4514
25.1872,17.5036
25.2838,17.5401
25.3860,17.5596
25.4916,17.5608
25.5987,17.5422
25.7049,17.5026
25.8019,17.4447
25.8870,17.3699
25.9557,17.2818
26.0066,17.1828
26.0382,17.0752
26.0491,16.9612
26.0491,16.8645
27.6695,16.8645
27.8806,16.8645
28.0847,16.8645
28.2684,16.8646
28.4327,16.8648
28.5787,16.8650
28.7076,16.8653
28.8204,16.8658
28.9182,16.8663
29.0021,16.8670
29.0732,16.8677
29.1326,16.8687
29.1815,16.8698
29.2208,16.8711
29.2517,16.8725
29.2752,16.8742
29.2926,16.8761
29.3048,16.8782
29.3130,16.8805
29.3182,16.8831
29.3242,16.8866
29.3310,16.8902
29.3372,16.8937
29.3428,16.8981
29.3479,16.9044
29.3526,16.9135
29.3567,16.9263
29.3604,16.9438
29.3637,16.9670
29.3666,16.9967
29.3691,17.0340
29.3712,17.0796
29.3731,17.1347
29.3746,17.2001
29.3759,17.2768
29.3769,17.3657
29.3777,17.4678
29.3777,17.4741
Z" /> 
</g>
<g style="fill:none; 
stroke:#840084; stroke-width:0.1200; stroke-opacity:1; 
stroke-linecap:round; stroke-linejoin:round;">
<path d="M38.6550 34.2035
L38.6550 32.7810
" />
<path d="M40.4750 34.2035
L40.4750 32.7810
" />
<path style="fill:#840084; fill-opacity:1.0000; 
stroke:#840084; stroke-width:0.0100; stroke-opacity:1; 
stroke-linecap:round; stroke-linejoin:round;fill-rule:evenodd;"
d="M 43.6660,16.8921
40.1452,16.8921
40.1452,16.0244
43.6660,16.0244
Z" /> 
<path style="fill:#840084; fill-opacity:1.0000; 
stroke:#840084; stroke-width:0.0100; stroke-opacity:1; 
stroke-linecap:round; stroke-linejoin:round;fill-rule:evenodd;"
d="M 42.6349,11.3500
42.6354,11.3629
42.6418,11.3847
42.6601,11.4031
42.6958,11.4251
42.7272,11.4451
42.7749,11.4836
42.8181,11.5268
42.8512,11.5689
42.8684,11.6039
42.8727,11.6173
42.8805,11.6266
42.8831,11.6297
42.9047,11.6349
42.9443,11.6360
43.0121,11.6360
43.0121,11.7492
42.8526,11.7492
42.8377,11.9270
42.8357,11.9513
42.8310,12.0121
42.8277,12.0616
42.8261,12.0952
42.8264,12.1084
42.8307,12.1046
42.8505,12.0849
42.8847,12.0501
42.9315,12.0018
42.9894,11.9420
43.0564,11.8724
43.1309,11.7949
43.2112,11.7112
43.2955,11.6231
43.3821,11.5325
43.4693,11.4412
43.5553,11.3509
43.6385,11.2635
43.7170,11.1808
43.7892,11.1046
43.8533,11.0367
43.9076,10.9789
44.0046,10.8753
44.0050,10.9636
44.0055,11.0518
43.4049,11.6834
42.8044,12.3150
42.7924,12.4589
42.7444,13.0349
42.7359,13.1370
42.7253,13.2649
42.7156,13.3840
42.7069,13.4922
42.6994,13.5870
42.6932,13.6661
42.6886,13.7271
42.6857,13.7678
42.6848,13.7858
42.6873,13.7941
42.6985,13.8118
42.7198,13.8387
42.7300,13.8504
42.7522,13.8757
42.7970,13.9242
42.8553,13.9854
42.9281,14.0606
43.0167,14.1508
43.1221,14.2574
43.1915,14.3273
43.2882,14.4249
43.3845,14.5222
43.4776,14.6163
43.5646,14.7042
43.6426,14.7831
43.7086,14.8499
43.7598,14.9019
43.9605,15.1059
43.9241,15.1439
43.9155,15.1525
43.8901,15.1735
43.8727,15.1820
43.8591,15.1748
43.8337,15.1532
43.8034,15.1222
43.7849,15.1027
43.7504,15.0670
43.7017,15.0169
43.6405,14.9543
43.5684,14.8807
43.4873,14.7981
43.3988,14.7081
43.3046,14.6125
43.2066,14.5131
42.6642,13.9636
42.6421,14.2490
42.6372,14.3099
42.6302,14.3918
42.6239,14.4538
42.6177,14.4992
42.6114,14.5313
42.6043,14.5533
42.5960,14.5685
42.5844,14.5897
42.5748,14.6286
42.5720,14.6848
42.5720,14.7670
42.3457,14.7670
42.3457,14.5910
41.5001,14.5910
41.4512,14.6465
41.4378,14.6610
41.3654,14.7191
41.2835,14.7548
41.1949,14.7670
41.1167,14.7606
41.0282,14.7333
40.9525,14.6846
40.9377,14.6707
40.9009,14.6256
40.8685,14.5731
40.8453,14.5213
40.8359,14.4785
40.8357,14.4723
40.8343,14.4495
40.8308,14.4338
40.8234,14.4263
40.8104,14.4284
40.7902,14.4413
40.7611,14.4662
40.7215,14.5043
40.6695,14.5570
40.6036,14.6254
40.5220,14.7108
40.4786,14.7564
40.4060,14.8327
40.3373,14.9051
40.2752,14.9706
40.2224,15.0265
40.1816,15.0699
40.1555,15.0980
40.0841,15.1757
39.9959,15.0877
40.5417,14.5155
40.5761,14.4794
40.6985,14.3505
40.8037,14.2390
40.8917,14.1445
40.9631,14.0668
41.0136,14.0104
41.2202,14.0104
41.2219,14.0237
41.2222,14.0251
41.2357,14.0565
41.2627,14.0711
41.3461,14.1023
41.4204,14.1543
41.4788,14.2230
41.5189,14.3056
41.5380,14.3989
41.5444,14.4778
42.4938,14.4778
42.5005,14.4495
42.5016,14.4426
42.5053,14.4115
42.5102,14.3613
42.5162,14.2960
42.5227,14.2195
42.5294,14.1358
42.5517,13.8504
42.2508,13.5448
42.1956,13.4890
42.1281,13.4211
42.0675,13.3609
42.0160,13.3103
41.9757,13.2714
41.9487,13.2464
41.9372,13.2373
41.9294,13.2417
41.9064,13.2615
41.8717,13.2946
41.8285,13.3381
41.7798,13.3888
41.7671,13.4023
41.7102,13.4625
41.6424,13.5341
41.5688,13.6117
41.4945,13.6899
41.4246,13.7633
41.4204,13.7677
41.3554,13.8360
41.3058,13.8890
41.2697,13.9290
41.2450,13.9587
41.2299,13.9804
41.2223,13.9968
41.2202,14.0104
41.0136,14.0104
41.0181,14.0054
41.0570,13.9600
41.0802,13.9303
41.0879,13.9159
41.0879,13.9158
41.0868,13.8979
41.0837,13.8577
41.0789,13.7979
41.0724,13.7214
41.0647,13.6308
41.0559,13.5289
41.0463,13.4184
41.0361,13.3021
41.0256,13.1826
41.0149,13.0628
41.0044,12.9453
40.9943,12.8329
40.9849,12.7283
40.9763,12.6343
40.9688,12.5537
40.9627,12.4890
40.9582,12.4431
40.9555,12.4188
40.9501,12.3780
41.0793,12.3780
41.0809,12.4089
41.0845,12.4609
41.0900,12.5317
41.0971,12.6192
41.1056,12.7209
41.1153,12.8348
41.1262,12.9585
41.1379,13.0899
41.1471,13.1912
41.1586,13.3168
41.1693,13.4330
41.1791,13.5376
41.1878,13.6284
41.1951,13.7031
41.2007,13.7594
41.2046,13.7951
41.2065,13.8081
41.2122,13.8041
41.2330,13.7844
41.2669,13.7506
41.3114,13.7051
41.3643,13.6504
41.4232,13.5890
41.4859,13.5232
41.5498,13.4557
41.6129,13.3888
41.6726,13.3250
41.7267,13.2668
41.7729,13.2165
41.8087,13.1768
41.8320,13.1500
41.8388,13.1407
42.0206,13.1407
42.2963,13.4162
42.3637,13.4835
42.4273,13.5464
42.4765,13.5943
42.5132,13.6288
42.5392,13.6514
42.5563,13.6637
42.5663,13.6672
42.5709,13.6635
42.5721,13.6541
42.5729,13.6390
42.5756,13.6001
42.5801,13.5411
42.5862,13.4647
42.5936,13.3736
42.6021,13.2703
42.6116,13.1577
42.6218,13.0385
42.6307,12.9333
42.6401,12.8226
42.6484,12.7221
42.6557,12.6342
42.6615,12.5615
42.6658,12.5064
42.6683,12.4714
42.6688,12.4589
42.6684,12.4592
42.6565,12.4706
42.6301,12.4974
42.5916,12.5373
42.5432,12.5876
42.4872,12.6461
42.4260,12.7102
42.3620,12.7775
42.2974,12.8457
42.2345,12.9122
42.1758,12.9746
42.1234,13.0305
42.0225,13.1387
42.0206,13.1407
41.8388,13.1407
41.8403,13.1387
41.8321,13.1276
41.8085,13.1012
41.7715,13.0618
41.7233,13.0114
41.6663,12.9525
41.6025,12.8871
41.5342,12.8175
41.4636,12.7460
41.3929,12.6747
41.3242,12.6059
41.2599,12.5418
41.2020,12.4847
41.1528,12.4367
41.1145,12.4001
41.0893,12.3771
41.0794,12.3700
41.0793,12.3780
40.9501,12.3780
40.9484,12.3653
40.6733,12.3653
40.6730,12.1547
40.6728,12.0454
40.7739,12.0454
40.7739,12.2647
40.8556,12.2647
40.8629,12.2647
40.9039,12.2639
40.9263,12.2601
40.9355,12.2515
40.9374,12.2361
40.9293,12.2134
40.9017,12.1757
40.8556,12.1264
40.7739,12.0454
40.6728,12.0454
40.6726,11.9441
40.2209,11.4851
39.7692,11.0262
39.7686,10.9391
39.7680,10.8520
40.3098,11.4012
40.3621,11.4542
40.4708,11.5640
40.5637,11.6574
40.6421,11.7354
40.7070,11.7993
40.7599,11.8503
40.8017,11.8894
40.8339,11.9178
40.8574,11.9367
40.8736,11.9472
40.8836,11.9504
40.9006,11.9494
40.9101,11.9422
40.9117,11.9227
40.9078,11.8844
40.9051,11.8603
40.9013,11.8200
40.8998,11.7932
40.8990,11.7840
40.8917,11.7741
40.8717,11.7708
40.8327,11.7722
40.8227,11.7728
40.7829,11.7722
40.7546,11.7634
40.7346,11.7492
41.0179,11.7492
41.0220,11.7964
41.0239,11.8177
41.0299,11.8762
41.0358,11.9146
41.0427,11.9372
41.0517,11.9477
41.0639,11.9504
41.0748,11.9522
41.0820,11.9608
41.0861,11.9808
41.0879,12.0167
41.0882,12.0732
41.0882,12.1960
41.1284,12.2361
41.2266,12.3339
41.3649,12.4718
41.3649,12.3653
42.1193,12.3653
42.1193,12.6042
41.5008,12.6042
41.7106,12.8212
41.7508,12.8626
41.8063,12.9194
41.8546,12.9683
41.8930,13.0067
41.9190,13.0320
41.9301,13.0417
41.9344,13.0390
41.9542,13.0210
41.9885,12.9877
42.0352,12.9410
42.0927,12.8826
42.1591,12.8144
42.2326,12.7383
42.3113,12.6562
42.3903,12.5732
42.4679,12.4914
42.5307,12.4243
42.5805,12.3703
42.6187,12.3274
42.6468,12.2939
42.6664,12.2681
42.6791,12.2482
42.6863,12.2323
42.6897,12.2188
42.6906,12.2122
42.6945,12.1758
42.6995,12.1223
42.7049,12.0577
42.7103,11.9881
42.7122,11.9639
42.7175,11.8984
42.7225,11.8420
42.7269,11.7999
42.7299,11.7775
42.7360,11.7492
41.0179,11.7492
40.7346,11.7492
40.7266,11.7435
40.7218,11.7394
40.6825,11.6887
40.6669,11.6360
41.0077,11.6360
42.4222,11.6360
42.4202,11.5857
42.6349,11.5857
42.6349,11.6360
42.6919,11.6360
42.7090,11.6359
42.7343,11.6337
42.7416,11.6266
42.7359,11.6118
42.7343,11.6089
42.7154,11.5872
42.6882,11.5631
42.6610,11.5435
42.6424,11.5354
42.6407,11.5367
42.6365,11.5542
42.6349,11.5857
42.4202,11.5857
42.4185,11.5453
42.4148,11.4547
42.3394,11.4395
42.3016,11.4326
42.2384,11.4230
42.1791,11.4157
42.0942,11.4071
42.0942,11.5103
41.5158,11.5103
41.5158,11.4194
41.4435,11.4280
41.3330,11.4465
41.2218,11.4799
41.1298,11.5266
41.0555,11.5870
41.0077,11.6360
40.6669,11.6360
40.6652,11.6302
40.6705,11.5688
40.6990,11.5095
40.7017,11.5059
40.7398,11.4741
40.7895,11.4553
40.8430,11.4503
40.8927,11.4599
40.9309,11.4850
40.9438,11.4977
40.9564,11.5008
40.9745,11.4912
41.0049,11.4673
41.0143,11.4600
41.0864,11.4136
41.1719,11.3723
41.2418,11.3468
41.6164,11.3468
41.6164,11.4097
41.9936,11.4097
41.9936,11.3468
41.6164,11.3468
41.2418,11.3468
41.2628,11.3392
41.3510,11.3171
41.4287,11.3091
41.4370,11.3090
41.4829,11.3046
41.5081,11.2920
41.5158,11.2700
41.5167,11.2631
41.5216,11.2571
41.5336,11.2528
41.5557,11.2498
41.5908,11.2478
41.6421,11.2468
41.7125,11.2463
41.8050,11.2462
41.8917,11.2464
41.9653,11.2471
42.0193,11.2485
42.0563,11.2507
42.0792,11.2540
42.0909,11.2586
42.0942,11.2645
42.1049,11.2791
42.1351,11.2885
42.1466,11.2901
42.1859,11.2958
42.2382,11.3036
42.2954,11.3123
42.3269,11.3166
42.3731,11.3214
42.4056,11.3225
42.4190,11.3197
42.4213,11.3179
42.4424,11.3134
42.4804,11.3103
42.5290,11.3091
42.6349,11.3091
42.6349,11.3468
Z" /> 
</g>
<g style="fill:none; 
stroke:#C2C200; stroke-width:0.0500; stroke-opacity:1; 
stroke-linecap:round; stroke-linejoin:round;">
<path d="M50.0250 4.3022
L50.0250 41.7222
" />
<path d="M2.5650 1.7622 A2.5400 2.5400 0.0 0 0 0.0250 4.3022" />
<path d="M50.0250 4.3022 A2.5400 2.5400 0.0 0 0 47.4850 1.7622" />
<path d="M0.0250 41.7222
L0.0250 4.3022
" />
<path d="M0.0250 41.7222 A2.5400 2.5400 0.0 0 0 2.5650 44.2622" />
<path d="M2.5650 1.7622
L47.4850 1.7622
" />
<path d="M47.4850 44.2622 A2.5400 2.5400 0.0 0 0 50.0250 41.7222" />
<path d="M47.4850 44.2622
L2.5650 44.2622
" />
</g> 
</svg>
