<?xml version="1.0" encoding="UTF-8" standalone="no"?>
<svg
   version="1.1"
   width="50.049999mm"
   height="42.549999mm"
   viewBox="0 0 50.05 42.549999"
   id="svg85"
   sodipodi:docname="3458A Ref A9 Clone-In1_Cu.svg"
   inkscape:version="1.3.2 (091e20e, 2023-11-25, custom)"
   xmlns:inkscape="http://www.inkscape.org/namespaces/inkscape"
   xmlns:sodipodi="http://sodipodi.sourceforge.net/DTD/sodipodi-0.dtd"
   xmlns="http://www.w3.org/2000/svg"
   xmlns:svg="http://www.w3.org/2000/svg"
   xmlns:rdf="http://www.w3.org/1999/02/22-rdf-syntax-ns#"
   xmlns:cc="http://creativecommons.org/ns#"
   xmlns:dc="http://purl.org/dc/elements/1.1/">
  <defs
     id="defs85" />
  <sodipodi:namedview
     id="namedview85"
     pagecolor="#ffffff"
     bordercolor="#000000"
     borderopacity="0.25"
     inkscape:showpageshadow="2"
     inkscape:pageopacity="0.0"
     inkscape:pagecheckerboard="0"
     inkscape:deskcolor="#d1d1d1"
     inkscape:document-units="mm"
     inkscape:zoom="1.4324806"
     inkscape:cx="68.761837"
     inkscape:cy="46.422966"
     inkscape:window-width="2560"
     inkscape:window-height="1351"
     inkscape:window-x="-9"
     inkscape:window-y="707"
     inkscape:window-maximized="1"
     inkscape:current-layer="svg85" />
  <title
     id="title1">SVG Image created as 3458A Ref A9 Clone-In1_Cu.svg date 2025/01/21 00:58:14 </title>
  <desc
     id="desc1">Image generated by PCBNEW </desc>
  <g
     style="fill:#000000;fill-opacity:1;stroke:#000000;stroke-linecap:round;stroke-linejoin:round;stroke-opacity:1"
     id="g1"
     transform="translate(-130.145,-92.765)" />
  <g
     style="fill:#7fc87f;fill-opacity:1;stroke:none"
     id="g2"
     transform="translate(-130.145,-92.765)">
    <circle
       cx="169.623"
       cy="127.44"
       r="0.75"
       id="circle1" />
  </g>
  <g
     style="fill:#7fc87f;fill-opacity:1;stroke:none"
     id="g3"
     transform="translate(-130.145,-92.765)">
    <circle
       cx="158.24001"
       cy="128.94"
       r="0.85000002"
       id="circle2" />
  </g>
  <g
     style="fill:#7fc87f;fill-opacity:1;stroke:none"
     id="g4"
     transform="translate(-130.145,-92.765)">
    <circle
       cx="135.00101"
       cy="116.8908"
       r="0.75"
       id="circle3" />
  </g>
  <g
     style="fill:#7fc87f;fill-opacity:1;stroke:none"
     id="g5"
     transform="translate(-130.145,-92.765)">
    <circle
       cx="143.7132"
       cy="131.44501"
       r="0.85000002"
       id="circle4" />
  </g>
  <g
     style="fill:#7fc87f;fill-opacity:1;stroke:none"
     id="g6"
     transform="translate(-130.145,-92.765)">
    <circle
       cx="144.145"
       cy="118.491"
       r="0.85000002"
       id="circle5" />
  </g>
  <g
     style="fill:#ececec;fill-opacity:1;stroke:none"
     id="g7"
     transform="translate(-130.145,-92.765)">
    <circle
       cx="142.69901"
       cy="108.966"
       r="0.30000001"
       id="circle6" />
  </g>
  <g
     style="fill:#ececec;fill-opacity:1;stroke:none"
     id="g8"
     transform="translate(-130.145,-92.765)">
    <circle
       cx="148.463"
       cy="117.983"
       r="0.30000001"
       id="circle7" />
  </g>
  <g
     style="fill:#ececec;fill-opacity:1;stroke:none"
     id="g9"
     transform="translate(-130.145,-92.765)">
    <circle
       cx="142.69901"
       cy="109.474"
       r="0.30000001"
       id="circle8" />
  </g>
  <g
     style="fill:#ececec;fill-opacity:1;stroke:none"
     id="g10"
     transform="translate(-130.145,-92.765)">
    <circle
       cx="142.69901"
       cy="108.458"
       r="0.30000001"
       id="circle9" />
  </g>
  <g
     style="fill:#ececec;fill-opacity:1;stroke:none"
     id="g11"
     transform="translate(-130.145,-92.765)">
    <circle
       cx="144.653"
       cy="113.665"
       r="0.30000001"
       id="circle10" />
  </g>
  <g
     style="fill:#ececec;fill-opacity:1;stroke:none"
     id="g12"
     transform="translate(-130.145,-92.765)">
    <circle
       cx="132.588"
       cy="127.635"
       r="0.30000001"
       id="circle11" />
  </g>
  <g
     style="fill:#ececec;fill-opacity:1;stroke:none"
     id="g13"
     transform="translate(-130.145,-92.765)">
    <circle
       cx="149.479"
       cy="117.983"
       r="0.30000001"
       id="circle12" />
  </g>
  <g
     style="fill:#ececec;fill-opacity:1;stroke:none"
     id="g14"
     transform="translate(-130.145,-92.765)">
    <circle
       cx="132.588"
       cy="127.127"
       r="0.30000001"
       id="circle13" />
  </g>
  <g
     style="fill:#ececec;fill-opacity:1;stroke:none"
     id="g15"
     transform="translate(-130.145,-92.765)">
    <circle
       cx="144.145"
       cy="113.665"
       r="0.30000001"
       id="circle14" />
  </g>
  <g
     style="fill:#ececec;fill-opacity:1;stroke:none"
     id="g16"
     transform="translate(-130.145,-92.765)">
    <circle
       cx="143.63699"
       cy="113.665"
       r="0.30000001"
       id="circle15" />
  </g>
  <g
     style="fill:#ececec;fill-opacity:1;stroke:none"
     id="g17"
     transform="translate(-130.145,-92.765)">
    <circle
       cx="132.588"
       cy="126.619"
       r="0.30000001"
       id="circle16" />
  </g>
  <g
     style="fill:#ececec;fill-opacity:1;stroke:none"
     id="g18"
     transform="translate(-130.145,-92.765)">
    <circle
       cx="148.97099"
       cy="117.983"
       r="0.30000001"
       id="circle17" />
  </g>
  <g
     style="fill:#ececec;fill-opacity:1;stroke:none"
     id="g19"
     transform="translate(-130.145,-92.765)">
    <circle
       cx="167.67261"
       cy="129.2309"
       r="0.30000001"
       id="circle18" />
  </g>
  <g
     style="fill:#ececec;fill-opacity:1;stroke:none"
     id="g20"
     transform="translate(-130.145,-92.765)">
    <circle
       cx="168.6604"
       cy="129.53619"
       r="0.30000001"
       id="circle19" />
  </g>
  <g
     style="fill:#ececec;fill-opacity:1;stroke:none"
     id="g21"
     transform="translate(-130.145,-92.765)">
    <circle
       cx="173.26331"
       cy="126.8366"
       r="0.30000001"
       id="circle20" />
  </g>
  <g
     style="fill:#ececec;fill-opacity:1;stroke:none"
     id="g22"
     transform="translate(-130.145,-92.765)">
    <circle
       cx="170.688"
       cy="124.52"
       r="0.30000001"
       id="circle21" />
  </g>
  <g
     style="fill:#ececec;fill-opacity:1;stroke:none"
     id="g23"
     transform="translate(-130.145,-92.765)">
    <circle
       cx="168.2164"
       cy="124.9416"
       r="0.30000001"
       id="circle22" />
  </g>
  <g
     style="fill:#ececec;fill-opacity:1;stroke:none"
     id="g24"
     transform="translate(-130.145,-92.765)">
    <circle
       cx="167.3528"
       cy="120.8716"
       r="0.30000001"
       id="circle23" />
  </g>
  <g
     style="fill:#ececec;fill-opacity:1;stroke:none"
     id="g25"
     transform="translate(-130.145,-92.765)">
    <circle
       cx="170.59959"
       cy="120.33"
       r="0.30000001"
       id="circle24" />
  </g>
  <g
     style="fill:#ececec;fill-opacity:1;stroke:none"
     id="g26"
     transform="translate(-130.145,-92.765)">
    <circle
       cx="168.6604"
       cy="128.71001"
       r="0.30000001"
       id="circle25" />
  </g>
  <g
     style="fill:#ececec;fill-opacity:1;stroke:none"
     id="g27"
     transform="translate(-130.145,-92.765)">
    <circle
       cx="165.9816"
       cy="126.7972"
       r="0.30000001"
       id="circle26" />
  </g>
  <g
     style="fill:#ececec;fill-opacity:1;stroke:none"
     id="g28"
     transform="translate(-130.145,-92.765)">
    <circle
       cx="170.561"
       cy="128.7272"
       r="0.30000001"
       id="circle27" />
  </g>
  <g
     style="fill:#ececec;fill-opacity:1;stroke:none"
     id="g29"
     transform="translate(-130.145,-92.765)">
    <circle
       cx="173.1768"
       cy="123.063"
       r="0.30000001"
       id="circle28" />
  </g>
  <g
     style="fill:#ececec;fill-opacity:1;stroke:none"
     id="g30"
     transform="translate(-130.145,-92.765)">
    <circle
       cx="164.61"
       cy="125.451"
       r="0.30000001"
       id="circle29" />
  </g>
  <g
     style="fill:#ececec;fill-opacity:1;stroke:none"
     id="g31"
     transform="translate(-130.145,-92.765)">
    <circle
       cx="165.42281"
       cy="125.451"
       r="0.30000001"
       id="circle30" />
  </g>
  <g
     style="fill:#ececec;fill-opacity:1;stroke:none"
     id="g32"
     transform="translate(-130.145,-92.765)">
    <circle
       cx="170.561"
       cy="129.53999"
       r="0.30000001"
       id="circle31" />
  </g>
  <g
     style="fill:#ececec;fill-opacity:1;stroke:none"
     id="g33"
     transform="translate(-130.145,-92.765)">
    <circle
       cx="168.2164"
       cy="124.1034"
       r="0.30000001"
       id="circle32" />
  </g>
  <g
     style="fill:#ececec;fill-opacity:1;stroke:none"
     id="g34"
     transform="translate(-130.145,-92.765)">
    <circle
       cx="173.8372"
       cy="123.589"
       r="0.30000001"
       id="circle33" />
  </g>
  <g
     style="fill:#ececec;fill-opacity:1;stroke:none"
     id="g35"
     transform="translate(-130.145,-92.765)">
    <circle
       cx="164.6138"
       cy="123.5504"
       r="0.30000001"
       id="circle34" />
  </g>
  <g
     style="fill:#ececec;fill-opacity:1;stroke:none"
     id="g36"
     transform="translate(-130.145,-92.765)">
    <circle
       cx="164.91479"
       cy="126.467"
       r="0.30000001"
       id="circle35" />
  </g>
  <g
     style="fill:#ececec;fill-opacity:1;stroke:none"
     id="g37"
     transform="translate(-130.145,-92.765)">
    <circle
       cx="173.1682"
       cy="125.9977"
       r="0.30000001"
       id="circle36" />
  </g>
  <g
     style="fill:#ececec;fill-opacity:1;stroke:none"
     id="g38"
     transform="translate(-130.145,-92.765)">
    <circle
       cx="174.64619"
       cy="125.4896"
       r="0.30000001"
       id="circle37" />
  </g>
  <g
     style="fill:#ececec;fill-opacity:1;stroke:none"
     id="g39"
     transform="translate(-130.145,-92.765)">
    <circle
       cx="168.173"
       cy="120.9732"
       r="0.30000001"
       id="circle38" />
  </g>
  <g
     style="fill:#ececec;fill-opacity:1;stroke:none"
     id="g40"
     transform="translate(-130.145,-92.765)">
    <circle
       cx="171.9467"
       cy="120.8867"
       r="0.30000001"
       id="circle39" />
  </g>
  <g
     style="fill:#ececec;fill-opacity:1;stroke:none"
     id="g41"
     transform="translate(-130.145,-92.765)">
    <circle
       cx="174.64999"
       cy="123.589"
       r="0.30000001"
       id="circle40" />
  </g>
  <g
     style="fill:#ececec;fill-opacity:1;stroke:none"
     id="g42"
     transform="translate(-130.145,-92.765)">
    <circle
       cx="166.7686"
       cy="120.2874"
       r="0.30000001"
       id="circle41" />
  </g>
  <g
     style="fill:#ececec;fill-opacity:1;stroke:none"
     id="g43"
     transform="translate(-130.145,-92.765)">
    <circle
       cx="171.58749"
       cy="119.8091"
       r="0.30000001"
       id="circle42" />
  </g>
  <g
     style="fill:#ececec;fill-opacity:1;stroke:none"
     id="g44"
     transform="translate(-130.145,-92.765)">
    <circle
       cx="171.1077"
       cy="120.9818"
       r="0.30000001"
       id="circle43" />
  </g>
  <g
     style="fill:#ececec;fill-opacity:1;stroke:none"
     id="g45"
     transform="translate(-130.145,-92.765)">
    <circle
       cx="165.422"
       cy="121.6286"
       r="0.30000001"
       id="circle44" />
  </g>
  <g
     style="fill:#ececec;fill-opacity:1;stroke:none"
     id="g46"
     transform="translate(-130.145,-92.765)">
    <circle
       cx="165.44"
       cy="123.5504"
       r="0.30000001"
       id="circle45" />
  </g>
  <g
     style="fill:#ececec;fill-opacity:1;stroke:none"
     id="g47"
     transform="translate(-130.145,-92.765)">
    <circle
       cx="171.9072"
       cy="128.1684"
       r="0.30000001"
       id="circle46" />
  </g>
  <g
     style="fill:#ececec;fill-opacity:1;stroke:none"
     id="g48"
     transform="translate(-130.145,-92.765)">
    <circle
       cx="166.08321"
       cy="125.977"
       r="0.30000001"
       id="circle47" />
  </g>
  <g
     style="fill:#ececec;fill-opacity:1;stroke:none"
     id="g49"
     transform="translate(-130.145,-92.765)">
    <circle
       cx="167.683"
       cy="119.8048"
       r="0.30000001"
       id="circle48" />
  </g>
  <g
     style="fill:#ececec;fill-opacity:1;stroke:none"
     id="g50"
     transform="translate(-130.145,-92.765)">
    <circle
       cx="170.17999"
       cy="124.52"
       r="0.30000001"
       id="circle49" />
  </g>
  <g
     style="fill:#ececec;fill-opacity:1;stroke:none"
     id="g51"
     transform="translate(-130.145,-92.765)">
    <circle
       cx="173.2784"
       cy="122.2428"
       r="0.30000001"
       id="circle50" />
  </g>
  <g
     style="fill:#ececec;fill-opacity:1;stroke:none"
     id="g52"
     transform="translate(-130.145,-92.765)">
    <circle
       cx="173.82001"
       cy="125.4896"
       r="0.30000001"
       id="circle51" />
  </g>
  <g
     style="fill:#ececec;fill-opacity:1;stroke:none"
     id="g53"
     transform="translate(-130.145,-92.765)">
    <circle
       cx="172.52139"
       cy="120.312"
       r="0.30000001"
       id="circle52" />
  </g>
  <g
     style="fill:#ececec;fill-opacity:1;stroke:none"
     id="g54"
     transform="translate(-130.145,-92.765)">
    <circle
       cx="171.04359"
       cy="124.9426"
       r="0.30000001"
       id="circle53" />
  </g>
  <g
     style="fill:#ececec;fill-opacity:1;stroke:none"
     id="g55"
     transform="translate(-130.145,-92.765)">
    <circle
       cx="168.69901"
       cy="120.3128"
       r="0.30000001"
       id="circle54" />
  </g>
  <g
     style="fill:#ececec;fill-opacity:1;stroke:none"
     id="g56"
     transform="translate(-130.145,-92.765)">
    <circle
       cx="171.04359"
       cy="124.1044"
       r="0.30000001"
       id="circle55" />
  </g>
  <g
     style="fill:#ececec;fill-opacity:1;stroke:none"
     id="g57"
     transform="translate(-130.145,-92.765)">
    <circle
       cx="174.3409"
       cy="126.4774"
       r="0.30000001"
       id="circle56" />
  </g>
  <g
     style="fill:#ececec;fill-opacity:1;stroke:none"
     id="g58"
     transform="translate(-130.145,-92.765)">
    <circle
       cx="166.0918"
       cy="123.0423"
       r="0.30000001"
       id="circle57" />
  </g>
  <g
     style="fill:#ececec;fill-opacity:1;stroke:none"
     id="g59"
     transform="translate(-130.145,-92.765)">
    <circle
       cx="164.9191"
       cy="122.5625"
       r="0.30000001"
       id="circle58" />
  </g>
  <g
     style="fill:#ececec;fill-opacity:1;stroke:none"
     id="g60"
     transform="translate(-130.145,-92.765)">
    <circle
       cx="173.86259"
       cy="121.6586"
       r="0.30000001"
       id="circle59" />
  </g>
  <g
     style="fill:#ececec;fill-opacity:1;stroke:none"
     id="g61"
     transform="translate(-130.145,-92.765)">
    <circle
       cx="174.3452"
       cy="122.573"
       r="0.30000001"
       id="circle60" />
  </g>
  <g
     style="fill:#ececec;fill-opacity:1;stroke:none"
     id="g62"
     transform="translate(-130.145,-92.765)">
    <circle
       cx="166.7386"
       cy="128.728"
       r="0.30000001"
       id="circle61" />
  </g>
  <g
     style="fill:#ececec;fill-opacity:1;stroke:none"
     id="g63"
     transform="translate(-130.145,-92.765)">
    <circle
       cx="167.3134"
       cy="128.1532"
       r="0.30000001"
       id="circle62" />
  </g>
  <g
     style="fill:#ececec;fill-opacity:1;stroke:none"
     id="g64"
     transform="translate(-130.145,-92.765)">
    <circle
       cx="165.9968"
       cy="122.2033"
       r="0.30000001"
       id="circle63" />
  </g>
  <g
     style="fill:#ececec;fill-opacity:1;stroke:none"
     id="g65"
     transform="translate(-130.145,-92.765)">
    <circle
       cx="172.49139"
       cy="128.75259"
       r="0.30000001"
       id="circle64" />
  </g>
  <g
     style="fill:#ececec;fill-opacity:1;stroke:none"
     id="g66"
     transform="translate(-130.145,-92.765)">
    <circle
       cx="169.63"
       cy="124.52"
       r="0.30000001"
       id="circle65" />
  </g>
  <g
     style="fill:#ececec;fill-opacity:1;stroke:none"
     id="g67"
     transform="translate(-130.145,-92.765)">
    <circle
       cx="165.3974"
       cy="127.3814"
       r="0.30000001"
       id="circle66" />
  </g>
  <g
     style="fill:#ececec;fill-opacity:1;stroke:none"
     id="g68"
     transform="translate(-130.145,-92.765)">
    <circle
       cx="173.838"
       cy="127.4114"
       r="0.30000001"
       id="circle67" />
  </g>
  <g
     style="fill:#ececec;fill-opacity:1;stroke:none"
     id="g69"
     transform="translate(-130.145,-92.765)">
    <circle
       cx="171.577"
       cy="129.2352"
       r="0.30000001"
       id="circle68" />
  </g>
  <g
     style="fill:#ececec;fill-opacity:1;stroke:none"
     id="g70"
     transform="translate(-130.145,-92.765)">
    <circle
       cx="170.59959"
       cy="119.5038"
       r="0.30000001"
       id="circle69" />
  </g>
  <g
     style="fill:#ececec;fill-opacity:1;stroke:none"
     id="g71"
     transform="translate(-130.145,-92.765)">
    <circle
       cx="168.57201"
       cy="124.519"
       r="0.30000001"
       id="circle70" />
  </g>
  <g
     style="fill:#ececec;fill-opacity:1;stroke:none"
     id="g72"
     transform="translate(-130.145,-92.765)">
    <circle
       cx="169.08"
       cy="124.519"
       r="0.30000001"
       id="circle71" />
  </g>
  <g
     style="fill:#ececec;fill-opacity:1;stroke:none"
     id="g73"
     transform="translate(-130.145,-92.765)">
    <circle
       cx="171.08701"
       cy="128.0668"
       r="0.30000001"
       id="circle72" />
  </g>
  <g
     style="fill:#ececec;fill-opacity:1;stroke:none"
     id="g74"
     transform="translate(-130.145,-92.765)">
    <circle
       cx="168.69901"
       cy="119.5"
       r="0.30000001"
       id="circle73" />
  </g>
  <g
     style="fill:#ececec;fill-opacity:1;stroke:none"
     id="g75"
     transform="translate(-130.145,-92.765)">
    <circle
       cx="168.1523"
       cy="128.0582"
       r="0.30000001"
       id="circle74" />
  </g>
  <g
     style="fill:none;stroke:#7fc87f;stroke-width:0.2;stroke-linecap:round;stroke-linejoin:round;stroke-opacity:1"
     id="g77"
     transform="translate(-130.145,-92.765)">
    <path
       d="m 169.623,127.44 v 5.861"
       id="path75" />
    <path
       style="fill:#7fc87f;fill-opacity:1;fill-rule:evenodd;stroke:none"
       d="m 170.0339,119.0813 0.007,5e-4 0.3979,0.0449 0.007,0.001 0.0961,0.0182 0.2974,0.0562 0.007,0.002 0.3868,0.1036 0.007,0.002 0.3779,0.1323 0.007,0.003 0.3671,0.1601 0.007,0.003 0.3541,0.1871 0.006,0.004 0.3391,0.2131 0.006,0.004 0.3222,0.2378 0.006,0.005 0.3035,0.2612 0.005,0.005 0.2831,0.2831 0.005,0.005 0.2612,0.3035 0.005,0.006 0.2378,0.3222 0.004,0.006 0.0911,0.1449 0.0684,0.1089 0.0536,0.0852 0.004,0.006 0.1871,0.3541 0.003,0.007 0.1601,0.3671 0.003,0.007 0.1322,0.3779 0.002,0.007 0.1036,0.3868 0.002,0.007 0.0744,0.3935 0.001,0.007 0.0449,0.3979 5e-4,0.007 0.015,0.4002 v 0.007 l -0.015,0.4001 -5e-4,0.007 -0.0449,0.398 -0.001,0.007 -0.0744,0.3934 -0.002,0.007 -0.1036,0.3868 -0.002,0.007 -0.1322,0.378 -0.003,0.007 -0.1601,0.367 -0.003,0.007 -0.1871,0.354 -0.004,0.006 -0.2131,0.3391 -0.004,0.006 -0.2378,0.3222 -0.005,0.006 -0.2612,0.3035 -0.005,0.005 -0.2831,0.2832 -0.005,0.005 -0.3035,0.2612 -0.006,0.005 -0.3222,0.2377 -0.006,0.004 -0.339,0.2131 -0.006,0.004 -0.3541,0.1871 -0.007,0.003 -0.3671,0.1601 -0.007,0.003 -0.3779,0.1323 -0.007,0.002 -0.3868,0.1036 -0.007,0.002 -0.3935,0.0745 -0.007,10e-4 -0.2056,0.0232 -0.0599,-0.0123 -0.0413,-0.0452 -0.009,-0.0409 v -1.2997 l 0.0189,-0.0582 0.028,-0.026 0.1489,-0.0922 v 0 0 l 0.1576,-0.1436 0.1285,-0.1702 0.095,-0.1908 0.0584,-0.2051 0.0196,-0.2123 -0.0196,-0.2123 -0.0584,-0.2051 -0.095,-0.1909 -0.1285,-0.1701 -0.0543,-0.0495 -0.1033,-0.0942 v 0 l -0.0115,-0.007 h 0.6295 v 0.1479 l 0.0288,0.145 0.0566,0.1365 v 0 l 0.0821,0.123 0.1046,0.1045 0.1229,0.0821 0.1366,0.0566 0.145,0.0288 v 0 h 0.1478 v 0 l 0.145,-0.0288 0.1366,-0.0566 0.1229,-0.0821 0.1045,-0.1045 0.0822,-0.123 0.0565,-0.1365 0.0289,-0.145 v -0.1479 l -0.0289,-0.145 -0.0565,-0.1366 -0.0822,-0.1229 -0.1045,-0.1045 -0.1229,-0.0821 v 0 l -0.1366,-0.0566 -0.145,-0.0289 h -0.1478 v 0 l -0.145,0.0289 -0.1366,0.0566 -0.1229,0.0821 -0.1046,0.1045 -0.0821,0.1229 -0.0566,0.1366 -0.0288,0.145 h -0.6295 l -0.1698,-0.1051 v 0 l -0.1029,-0.0399 -0.0959,-0.0371 v 0 0 l -0.2096,-0.0392 h -0.2132 l -0.2096,0.0392 -0.1988,0.077 v 0 l -0.1813,0.1122 v 0 l -0.1575,0.1437 h -1e-4 v 0 0 l -0.1284,0.1701 h -1e-4 l -0.095,0.1909 -0.0583,0.2051 -0.0197,0.2123 0.0138,0.1491 0.006,0.0632 0.0583,0.2051 0.0951,0.1908 0.1284,0.1702 h 1e-4 l 0.1575,0.1436 v 0 l 0.1489,0.0922 0.0396,0.0468 0.007,0.0374 v 1.2981 l -0.0189,0.0582 -0.0495,0.036 -0.0417,0.004 -0.1915,-0.0216 -0.007,-10e-4 -0.3934,-0.0745 -0.007,-0.002 -0.3868,-0.1036 -0.007,-0.002 -0.378,-0.1323 -0.007,-0.003 -0.367,-0.1601 -0.007,-0.003 -0.354,-0.1872 -0.006,-0.004 -0.1941,-0.122 -0.145,-0.0911 -0.006,-0.004 -0.3222,-0.2377 -0.006,-0.005 -0.3035,-0.2612 -0.005,-0.005 -0.2832,-0.2832 -0.005,-0.005 -0.2612,-0.3035 -0.005,-0.006 -0.2377,-0.3222 -0.004,-0.006 -0.2131,-0.3391 -0.004,-0.006 -0.1872,-0.354 -0.003,-0.007 -0.1601,-0.367 -0.002,-0.005 h 2.2551 v 0.1479 l 0.0288,0.145 0.0566,0.1365 v 0 l 0.0821,0.123 0.1045,0.1045 0.123,0.0821 0.1366,0.0566 0.1449,0.0288 v 0 h 0.1479 v 0 l 0.145,-0.0288 0.1366,-0.0566 0.1229,-0.0821 0.1045,-0.1045 0.0821,-0.123 0.0566,-0.1365 0.0289,-0.145 v -0.1479 l -0.0289,-0.145 -0.0566,-0.1366 -0.0821,-0.1229 -0.1045,-0.1045 -0.1229,-0.0821 v 0 l -0.1366,-0.0566 -0.145,-0.0289 h -0.1479 v 0 l -0.1449,0.0289 -0.1366,0.0566 -0.1229,0.0821 -0.1046,0.1045 -0.0821,0.1229 -0.0566,0.1366 -0.0288,0.145 h -2.2551 l -7e-4,-0.002 -0.0979,-0.2798 -0.0344,-0.0982 -0.002,-0.007 -0.0547,-0.2042 -0.0489,-0.1826 -0.002,-0.007 -0.0745,-0.3934 -10e-4,-0.007 -0.0255,-0.2263 -0.0193,-0.1717 -6e-4,-0.007 -0.015,-0.4001 v -0.007 l 0.003,-0.0702 h 1.7735 v 0.1478 l 0.0289,0.145 0.0565,0.1366 0.0822,0.1229 0.1045,0.1045 0.1229,0.0822 0.1366,0.0565 0.145,0.0289 v 0 h 0.1478 v 0 l 0.145,-0.0289 0.1366,-0.0565 0.1229,-0.0822 0.1046,-0.1045 0.0821,-0.1229 0.0566,-0.1366 0.0288,-0.145 v -0.1478 h 4.339 v 0.1478 l 0.0289,0.145 0.0565,0.1366 0.0822,0.1229 0.1045,0.1045 0.1229,0.0822 0.1366,0.0565 0.145,0.0289 v 0 h 0.1478 v 0 l 0.145,-0.0289 0.1366,-0.0565 0.1229,-0.0822 0.1046,-0.1045 0.0821,-0.1229 0.0566,-0.1366 0.0288,-0.145 v -0.1478 l -0.0288,-0.145 -0.0566,-0.1366 -0.0821,-0.1229 -0.1046,-0.1046 -0.1229,-0.0821 v 0 l -0.1366,-0.0566 -0.145,-0.0288 h -0.1478 v 0 l -0.145,0.0288 -0.1366,0.0566 -0.1229,0.0821 -0.1045,0.1046 -0.0822,0.1229 -0.0565,0.1366 v 0 l -0.0289,0.145 h -4.339 l -0.0288,-0.145 -0.0566,-0.1366 -0.0821,-0.1229 -0.1046,-0.1046 -0.1229,-0.0821 v 0 l -0.1366,-0.0566 -0.145,-0.0288 h -0.1478 v 0 l -0.145,0.0288 -0.1366,0.0566 -0.1229,0.0821 -0.1045,0.1046 -0.0822,0.1229 -0.0565,0.1366 v 0 l -0.0289,0.145 h -1.7735 l 0.0123,-0.33 6e-4,-0.007 0.0448,-0.398 0.001,-0.007 0.0745,-0.3935 0.002,-0.007 0.1036,-0.3868 0.002,-0.007 0.0344,-0.0982 0.0979,-0.2797 0.003,-0.007 0.0623,-0.1428 h 2.1908 v 0 0.1479 l 0.0288,0.1449 0.0566,0.1366 0.0821,0.123 0.1045,0.1045 0.123,0.0821 0.1366,0.0566 0.1449,0.0288 v 0 h 0.1479 v 0 l 0.145,-0.0288 0.1366,-0.0566 0.1229,-0.0821 0.1045,-0.1045 0.0821,-0.123 0.0566,-0.1366 0.0289,-0.1449 v -0.1479 0 h 2.6285 v 0 0.1479 l 0.0288,0.1449 0.0566,0.1366 0.0821,0.123 0.1046,0.1045 0.1229,0.0821 0.1366,0.0566 0.145,0.0288 v 0 h 0.1478 v 0 l 0.145,-0.0288 0.1366,-0.0566 0.1229,-0.0821 0.1045,-0.1045 0.0822,-0.123 0.0565,-0.1366 0.0289,-0.1449 v -0.1479 l -0.0289,-0.145 -0.0565,-0.1366 -0.0822,-0.1229 -0.1045,-0.1045 -0.1229,-0.0822 -5e-4,-2e-4 -0.1361,-0.0563 -0.145,-0.0289 h -0.1478 v 0 l -0.145,0.0289 -0.1366,0.0565 -0.1229,0.0822 -0.1046,0.1045 -0.0821,0.1229 -0.0566,0.1366 -0.0288,0.145 h -2.6285 l -0.0289,-0.145 -0.0566,-0.1366 -0.0821,-0.1229 -0.1045,-0.1045 -0.1229,-0.0822 -5e-4,-2e-4 -0.1361,-0.0563 -0.145,-0.0289 h -0.1479 v 0 l -0.1449,0.0289 -0.1366,0.0565 -0.1229,0.0822 -0.1046,0.1045 -0.0821,0.1229 -0.0566,0.1366 -0.0288,0.145 h -2.1908 l 0.0978,-0.2243 0.003,-0.007 0.1872,-0.3541 0.004,-0.006 0.1658,-0.2639 h 3.7979 v 0.1478 l 0.0237,0.1192 0.005,0.0258 0.0565,0.1366 0.0822,0.1229 0.1045,0.1045 0.1229,0.0822 0.1366,0.0565 0.145,0.0289 v 0 h 0.1478 v 0 l 0.145,-0.0289 0.1366,-0.0565 0.1229,-0.0822 0.1046,-0.1045 0.0821,-0.1229 0.0566,-0.1366 0.0288,-0.145 v -0.1478 l -0.0288,-0.145 -0.0566,-0.1366 -0.0821,-0.1229 -0.1046,-0.1046 -0.1229,-0.0821 v 0 l -0.1366,-0.0566 -0.145,-0.0288 h -0.1478 v 0 l -0.145,0.0288 -0.1366,0.0566 -0.1229,0.0821 -0.1045,0.1046 -0.0822,0.1229 -0.0565,0.1366 -0.0289,0.145 h -3.7979 l 0.0473,-0.0752 0.004,-0.006 0.2378,-0.3222 0.005,-0.006 0.2613,-0.3036 0.005,-0.005 0.2832,-0.2831 0.005,-0.005 0.3035,-0.2613 0.006,-0.005 0.3222,-0.2378 0.006,-0.004 0.3391,-0.2131 0.006,-0.004 0.3541,-0.1871 0.007,-0.003 0.3671,-0.1602 0.007,-0.003 0.378,-0.1323 0.007,-0.002 0.3869,-0.1036 0.007,-0.002 0.3934,-0.0744 0.007,-10e-4 0.398,-0.0449 0.007,-5e-4 0.4002,-0.015 h 0.007 z"
       id="path76" />
    <path
       style="fill:#7fc87f;fill-opacity:1;fill-rule:evenodd;stroke:none"
       d="m 177.6332,93.2907 0.2565,0.0168 0.0129,0.0017 0.2489,0.0495 0.0125,0.0034 0.2403,0.0816 0.012,0.0049 0.2276,0.1123 0.0112,0.0064 0.2111,0.1411 0.0102,0.0078 0.1909,0.1674 0.009,0.0091 0.1674,0.1909 0.008,0.0102 0.1411,0.2111 0.006,0.0112 0.1123,0.2276 0.005,0.012 0.0816,0.2403 0.003,0.0125 0.0495,0.2489 0.002,0.0129 0.0168,0.2565 2e-4,0.0064 v 37.4136 l -2e-4,0.006 -0.0168,0.2565 -0.002,0.0129 -0.0495,0.2489 -0.003,0.0125 -0.0816,0.2403 -0.005,0.012 -0.1123,0.2276 -0.006,0.0112 -0.1411,0.2111 -0.008,0.0102 -0.1674,0.1909 -0.009,0.009 -0.1909,0.1674 -0.0102,0.008 -0.2111,0.1411 -0.0112,0.006 -0.2276,0.1123 -0.012,0.005 -0.2403,0.0816 -0.0125,0.003 -0.2489,0.0495 -0.0129,0.002 -0.2565,0.0168 -0.006,2e-4 h -44.9136 l -0.006,-2e-4 -0.2565,-0.0168 -0.0129,-0.002 -0.2489,-0.0495 -0.0125,-0.003 -0.2403,-0.0816 -0.012,-0.005 -0.2276,-0.1123 -0.0112,-0.006 -0.2111,-0.1411 -0.0102,-0.008 -0.1909,-0.1674 -0.009,-0.009 -0.1674,-0.1909 -0.008,-0.0102 -0.1411,-0.2111 -0.006,-0.0112 -0.1123,-0.2276 -0.005,-0.012 -0.0816,-0.2403 -0.003,-0.0125 -0.004,-0.0204 -0.0455,-0.2285 -0.002,-0.0129 -0.002,-0.0279 -0.015,-0.2286 -2e-4,-0.006 v -3.9403 h 12.0422 v 0.197 l 0.0384,0.1933 v 0 l 0.0755,0.1821 0.0363,0.0544 0.0732,0.1095 0.1393,0.1393 0.1639,0.1095 0.1821,0.0755 0.1933,0.0384 v 0 h 0.197 v 0 l 0.1933,-0.0384 0.1821,-0.0755 0.1639,-0.1095 0.1393,-0.1393 0.1095,-0.1639 0.0755,-0.1821 0.0384,-0.1933 v -0.162 h 2.3658 v 0.197 l 0.0384,0.1933 v 0 l 0.0755,0.1821 v 0 l 0.1095,0.1639 0.1393,0.1393 0.1639,0.1095 0.1821,0.0755 0.1933,0.0384 v 0 h 0.197 v 0 l 0.1933,-0.0384 0.1821,-0.0755 0.1639,-0.1095 0.1393,-0.1393 0.1095,-0.1639 0.0755,-0.1821 0.0384,-0.1933 v -0.197 0 h 0.539 v 0.197 l 0.0384,0.1933 v 0 l 0.0755,0.1821 v 0 l 0.1095,0.1639 0.1393,0.1393 0.1639,0.1095 0.1821,0.0755 0.1933,0.0384 v 0 h 0.197 v 0 l 0.1933,-0.0384 0.1821,-0.0755 0.1639,-0.1095 0.1393,-0.1393 0.1095,-0.1639 0.0755,-0.1821 0.0384,-0.1933 v -0.197 0 h 0.539 v 0.197 l 0.0384,0.1933 v 0 l 0.0755,0.1821 v 0 l 0.1095,0.1639 0.1393,0.1393 0.1639,0.1095 0.1821,0.0755 0.1933,0.0384 v 0 h 0.197 v 0 l 0.1933,-0.0384 0.0858,-0.0356 0.005,-0.002 0.004,-0.002 0.005,-0.002 0.0823,-0.0341 0.0741,-0.0495 0.008,-0.005 10e-4,-6e-4 0.001,-9e-4 0.008,-0.006 0.0714,-0.0477 0.0607,-0.0606 0.007,-0.007 0.003,-0.003 0.003,-0.003 0.007,-0.007 0.0586,-0.0587 0.0461,-0.069 0.006,-0.008 0.005,-0.005 0.003,-0.006 0.005,-0.008 0.0448,-0.0672 0.0209,-0.0504 0.01,-0.0242 0.004,-0.009 0.004,-0.008 0.003,-0.008 0.003,-0.009 0.0304,-0.0732 0.0154,-0.0777 0.002,-0.009 0.003,-0.01 0.001,-0.01 10e-4,-0.01 0.0153,-0.077 v -0.0784 l 5e-4,-0.01 0.001,-0.0104 v 0 l -0.001,-0.0104 -5e-4,-0.01 v -0.0784 0 h 0.539 v 0.197 l 0.0384,0.1933 v 0 l 0.0755,0.1821 v 0 l 0.1095,0.1639 0.1393,0.1393 0.1639,0.1095 0.1821,0.0755 0.1933,0.0384 v 0 h 0.197 v 0 l 0.1933,-0.0384 0.1821,-0.0755 0.1639,-0.1095 0.1393,-0.1393 0.1095,-0.1639 0.0755,-0.1821 0.0384,-0.1933 v -0.197 l -0.0384,-0.1933 -0.0755,-0.1821 -0.1095,-0.1639 -0.1393,-0.1393 -0.1639,-0.1095 v 0 l -0.1821,-0.0755 -0.1933,-0.0384 v 0 h -0.197 v 0 l -0.1933,0.0384 v 0 l -0.1821,0.0755 -0.1639,0.1095 v 0 l -0.1393,0.1393 v 0 l -0.1095,0.1639 -0.0755,0.1821 v 0 l -0.0384,0.1933 h -0.539 v -1e-4 l -0.0153,-0.0769 -10e-4,-0.01 -0.001,-0.01 -0.003,-0.01 -0.002,-0.009 -0.0154,-0.0777 -0.0304,-0.0732 -0.003,-0.009 -0.003,-0.008 v 0 0 l -0.004,-0.008 -0.004,-0.009 -0.0309,-0.0746 v 0 l -0.0448,-0.0672 -0.005,-0.008 -0.003,-0.006 v 0 0 l -0.005,-0.005 -0.006,-0.008 -0.0184,-0.0275 -0.0277,-0.0415 -0.0224,-0.0224 -0.0362,-0.0363 -0.007,-0.007 -0.003,-0.003 v 0 0 0 l -0.003,-0.003 -0.007,-0.007 -0.0607,-0.0606 -0.0524,-0.035 -0.019,-0.0127 -0.008,-0.006 -0.001,-9e-4 v 0 l -10e-4,-6e-4 -0.008,-0.005 -0.0741,-0.0495 v 0 0 0 l -0.0516,-0.0214 -0.0307,-0.0127 -0.005,-0.002 -0.004,-0.002 -0.005,-0.002 -0.0858,-0.0356 -0.1933,-0.0384 v 0 h -0.197 v 0 l -0.1933,0.0384 v 0 l -0.1821,0.0755 -0.1639,0.1095 v 0 l -0.1393,0.1393 v 0 l -0.1095,0.1639 -0.0755,0.1821 v 0 l -0.0384,0.1933 h -0.539 l -0.0384,-0.1933 -0.0755,-0.1821 -0.1095,-0.1639 -0.1393,-0.1393 -0.1639,-0.1095 v 0 l -0.1821,-0.0755 -0.1933,-0.0384 v 0 h -0.197 v 0 l -0.1933,0.0384 v 0 l -0.1821,0.0755 -0.1639,0.1095 v 0 l -0.1393,0.1393 v 0 l -0.1095,0.1639 -0.0755,0.1821 v 0 l -0.0384,0.1933 h -0.539 l -0.0384,-0.1933 -0.0755,-0.1821 -0.1095,-0.1639 -0.1393,-0.1393 -0.1639,-0.1095 v 0 l -0.1821,-0.0755 -0.1933,-0.0384 v 0 h -0.197 v 0 l -0.1933,0.0384 v 0 l -0.1821,0.0755 -0.1639,0.1095 v 0 l -0.1393,0.1393 v 0 l -0.1095,0.1639 -0.0755,0.1821 v 0 l -0.0384,0.1933 h -2.3658 v -0.035 l -0.0384,-0.1933 -0.0755,-0.1821 -0.1095,-0.1639 -0.1393,-0.1393 -0.1639,-0.1095 v 0 0 l -0.1821,-0.0755 -0.1933,-0.0384 v 0 h -0.197 v 0 l -0.1933,0.0384 v 0 l -0.1821,0.0755 -0.1639,0.1095 v 0 l -0.1393,0.1393 v 0 l -0.1095,0.1639 -0.0755,0.1821 v 0 l -0.0384,0.1933 h -12.0422 v -3.7671 h 16.259 v 0.1811 l 0.0283,0.1789 v 0 l 0.056,0.1722 0.0822,0.1614 0.1064,0.1465 0.1281,0.1281 0.1465,0.1064 0.1614,0.0822 0.1722,0.056 0.0715,0.0113 0.1074,0.017 v 0 h 0.181 l 0.0895,-0.0142 0.0894,-0.0141 0.1722,-0.056 0.1614,-0.0822 0.1465,-0.1064 0.1281,-0.1281 0.1064,-0.1465 0.0822,-0.1614 0.056,-0.1722 0.0283,-0.1789 v -0.181 -1e-4 h 2.779 v 0.1811 l 0.0283,0.1789 v 0 l 0.056,0.1722 0.0822,0.1614 0.1064,0.1465 0.1281,0.1281 0.1465,0.1064 0.1614,0.0822 0.1722,0.056 0.0715,0.0113 0.1074,0.017 v 0 h 0.181 l 0.0895,-0.0142 0.0894,-0.0141 0.1722,-0.056 0.1614,-0.0822 0.1465,-0.1064 0.1281,-0.1281 0.1064,-0.1465 0.0822,-0.1614 0.056,-0.1722 0.0283,-0.1789 v -0.181 -1e-4 h 0.239 v 0.1811 l 0.0283,0.1789 v 0 l 0.056,0.1722 0.0822,0.1614 0.1064,0.1465 0.1281,0.1281 0.1465,0.1064 0.1614,0.0822 0.1722,0.056 0.0715,0.0113 0.1074,0.017 v 0 h 0.181 l 0.0895,-0.0142 0.0894,-0.0141 0.1722,-0.056 0.1614,-0.0822 0.1465,-0.1064 0.1281,-0.1281 0.1064,-0.1465 0.0822,-0.1614 0.056,-0.1722 0.0283,-0.1789 v -0.181 -1e-4 h 0.239 v 0.1811 l 0.0283,0.1789 v 0 l 0.056,0.1722 0.0822,0.1614 0.1064,0.1465 0.1281,0.1281 0.1465,0.1064 0.1614,0.0822 0.1722,0.056 0.0715,0.0113 0.1074,0.017 v 0 h 0.181 l 0.0895,-0.0142 0.0894,-0.0141 0.1722,-0.056 0.1614,-0.0822 0.1465,-0.1064 0.1281,-0.1281 0.1064,-0.1465 0.0822,-0.1614 0.056,-0.1722 0.0283,-0.1789 v -0.181 -1e-4 l -0.0283,-0.1788 v 0 l -0.056,-0.1722 -0.0822,-0.1614 -0.0458,-0.0631 h 1.9029 v 0.1122 l 0.0197,0.5268 0.008,0.1119 0.059,0.5239 0.0167,0.1109 0.098,0.518 0.025,0.1094 0.1364,0.5092 0.0331,0.1072 0.1741,0.4976 v 1e-4 l 0.041,0.1044 0.2108,0.4832 0.0248,0.0514 0.0239,0.0497 0.2464,0.4661 0.0561,0.0971 0.2223,0.3538 0.0581,0.0926 0.0632,0.0927 v 0 0 l 0.0935,0.1267 0.2196,0.2975 0.0503,0.0631 0.0197,0.0246 0.3438,0.3996 0.044,0.0475 0.0323,0.0348 0.3728,0.3728 h 1e-4 v 0 l 0.0822,0.0763 0.3996,0.3438 v 1e-4 0 l 0.0877,0.0699 0.4242,0.3131 0.0927,0.0632 0.2232,0.1402 0.2232,0.1402 v 1e-4 l 0.0971,0.056 0.4661,0.2464 0.1011,0.0487 0.4832,0.2108 0.1044,0.041 0.1625,0.0568 0.3352,0.1173 v 0 l 0.1072,0.0331 0.5092,0.1364 0.0792,0.0181 0.0302,0.007 0.2234,0.0422 0.2946,0.0558 0.1109,0.0167 0.5239,0.059 0.1119,0.008 0.5268,0.0197 v 0 h 0.1122 v 0 l 0.5269,-0.0197 0.1118,-0.008 0.5239,-0.059 0.1109,-0.0167 0.372,-0.0704 0.146,-0.0276 h 10e-5 l 0.1093,-0.025 0.5093,-0.1364 0.1072,-0.0331 0.4308,-0.1507 0.0611,-0.001 0.0503,0.0348 0.0101,0.0162 0.01,0.0196 0.1635,0.2447 v 0 l 0.1941,0.2212 v 0 0 0 l 0.2212,0.1941 v 0 0 0 0 l 0.2447,0.1635 v 0 l 0.264,0.1302 v 0 0 l 0.1739,0.059 0.1048,0.0356 v 0 0 l 0.2887,0.0574 0.2936,0.0193 0.2937,-0.0193 0.2887,-0.0574 0.2787,-0.0946 0.2639,-0.1302 0.2448,-0.1635 0.2212,-0.1941 0.1941,-0.2212 0.1635,-0.2447 0.1302,-0.264 0.0946,-0.2787 0.0574,-0.2887 0.0192,-0.2936 -0.0192,-0.2937 -0.0574,-0.2887 -0.02,-0.0587 -0.0259,-0.0763 -0.0487,-0.1437 -0.1302,-0.2639 -0.1635,-0.2448 v 0 0 l -0.1452,-0.1656 -0.0242,-0.0562 0.0135,-0.0596 0.006,-0.008 2e-4,-4e-4 v 0 l 0.3131,-0.4242 0.0632,-0.0927 0.2805,-0.4464 0.0561,-0.0971 0.2463,-0.4661 0.0487,-0.1011 0.2108,-0.4832 0.041,-0.1044 0.1741,-0.4977 0.0331,-0.1072 0.1364,-0.5092 0.025,-0.1094 0.098,-0.518 0.0167,-0.1109 0.0591,-0.5239 0.008,-0.1119 0.0197,-0.5268 v -0.1122 l -0.0197,-0.5268 -0.008,-0.1119 -0.0591,-0.5239 -0.0167,-0.1109 -0.0665,-0.3516 -0.0315,-0.1664 -0.025,-0.1094 v 0 l -0.1364,-0.5093 -0.0331,-0.1072 -0.0101,-0.0289 -0.164,-0.4687 v 0 l -0.041,-0.1044 -0.2108,-0.4832 -0.0487,-0.1011 -0.0582,-0.1102 -0.1881,-0.3559 v 0 0 l -0.0561,-0.0972 -0.0345,-0.0549 -0.176,-0.28 -0.07,-0.1115 -0.0632,-0.0926 -0.3131,-0.4242 -0.0699,-0.0877 v -1e-4 l -0.3439,-0.3996 -0.0763,-0.0822 v 0 0 l -0.3728,-0.3728 -0.0585,-0.0543 -0.0237,-0.022 -0.3996,-0.3439 -0.0878,-0.0699 -0.4241,-0.3131 v 0 0 l -0.0927,-0.0632 -0.1712,-0.1076 -0.2752,-0.1729 -0.0972,-0.0561 -0.4661,-0.2463 -0.0828,-0.0399 -0.0183,-0.009 -0.4832,-0.2108 -0.1044,-0.041 v 0 0 l -0.4976,-0.1741 -0.1072,-0.0331 -0.5093,-0.1364 -0.1094,-0.025 -0.518,-0.098 -0.1109,-0.0167 -0.5239,-0.0591 -0.1118,-0.008 -0.2964,-0.011 -0.2305,-0.009 h -0.1122 l -0.2169,0.008 -0.3099,0.0115 -0.1119,0.008 -0.5239,0.0591 -0.1109,0.0167 -0.518,0.098 -0.1094,0.025 -0.5092,0.1364 -0.1072,0.0331 -0.4976,0.1741 -0.0568,0.0223 -0.061,0.004 -0.0516,-0.0329 -0.009,-0.0134 -0.0661,-0.1145 -0.1676,-0.2185 -0.1947,-0.1947 -0.2185,-0.1676 -0.2384,-0.1377 v 0 l -0.2544,-0.1053 -0.1211,-0.0325 -0.1449,-0.0388 v 0 l -0.273,-0.0359 v 0 h -0.2753 v 0 l -0.273,0.0359 v 0 0 l -0.1005,0.0269 -0.1655,0.0444 -0.2544,0.1053 -0.2384,0.1377 -0.2185,0.1676 -0.1947,0.1947 -0.1676,0.2185 -0.1377,0.2384 -0.1053,0.2544 -0.0215,0.0801 -0.0498,0.1859 v 0 0 l -0.0342,0.2595 -0.002,0.0135 v 0.2753 l 0.036,0.273 0.025,0.0935 0.0463,0.1725 0.1053,0.2544 v 0 l 0.1377,0.2384 0.1676,0.2185 v 0 l 0.0191,0.0191 0.0278,0.0545 -0.01,0.0605 -0.0131,0.0196 -0.0244,0.0283 -0.0699,0.0877 -0.3131,0.4241 -0.0632,0.0927 -0.2804,0.4464 -0.0561,0.0972 -0.2464,0.4661 -0.0224,0.0466 -0.0263,0.0545 -0.1916,0.4392 -0.0192,0.044 -0.041,0.1044 -0.1741,0.4976 -0.0331,0.1072 -0.1364,0.5093 -0.025,0.1094 -0.098,0.518 -0.0167,0.1109 -0.059,0.5239 -0.008,0.1118 -0.0197,0.5269 h -1.9029 l -0.0606,-0.0834 -0.1281,-0.1281 -0.1465,-0.1064 v 0 0 l -0.1614,-0.0822 -0.1722,-0.056 -0.1789,-0.0283 v 0 h -0.181 v 0 l -0.1789,0.0283 -0.1722,0.056 -0.1614,0.0822 -0.0732,0.0532 -0.0733,0.0532 -0.1281,0.1281 -0.0532,0.0733 -0.0532,0.0732 -0.0822,0.1614 -0.056,0.1722 -0.0283,0.1788 h -0.239 l -0.0283,-0.1788 v 0 l -0.056,-0.1722 -0.0822,-0.1614 -0.1064,-0.1465 -0.1281,-0.1281 -0.1465,-0.1064 v 0 0 l -0.1614,-0.0822 -0.1722,-0.056 -0.1789,-0.0283 v 0 h -0.181 v 0 l -0.1789,0.0283 -0.1722,0.056 -0.1614,0.0822 -0.0732,0.0532 -0.0733,0.0532 -0.1281,0.1281 -0.0532,0.0733 -0.0532,0.0732 -0.0822,0.1614 -0.056,0.1722 -0.0283,0.1788 h -0.239 l -0.0283,-0.1788 v 0 l -0.056,-0.1722 -0.0822,-0.1614 -0.1064,-0.1465 -0.1281,-0.1281 -0.1465,-0.1064 v 0 0 l -0.1614,-0.0822 -0.1722,-0.056 -0.1789,-0.0283 v 0 h -0.181 v 0 l -0.1789,0.0283 -0.1722,0.056 -0.1614,0.0822 -0.0732,0.0532 -0.0733,0.0532 -0.1281,0.1281 -0.0532,0.0733 -0.0532,0.0732 -0.0822,0.1614 -0.056,0.1722 -0.0283,0.1788 h -2.779 l -0.0283,-0.1788 v 0 l -0.056,-0.1722 -0.0822,-0.1614 -0.1064,-0.1465 -0.1281,-0.1281 -0.1465,-0.1064 v 0 0 l -0.1614,-0.0822 -0.1722,-0.056 -0.1789,-0.0283 v 0 h -0.181 v 0 l -0.1789,0.0283 -0.1722,0.056 -0.1614,0.0822 -0.0732,0.0532 -0.0733,0.0532 -0.1281,0.1281 -0.0532,0.0733 -0.0532,0.0732 -0.0822,0.1614 -0.056,0.1722 -0.0283,0.1788 h -16.259 v -2.3574 h 5.885 v 0 l 0.0191,0.1568 v 0 l 0.056,0.1477 0.0897,0.13 v 0 0 l 0.1183,0.1048 0.1398,0.0734 0.1534,0.0378 v 0 h 0.158 v 0 l 0.1513,-0.0373 h 0.0474 l 0.1513,0.0373 v 0 h 0.158 v 0 l 0.1513,-0.0373 h 0.0474 l 0.1513,0.0373 v 0 h 0.158 v 0 l 0.1534,-0.0378 0.1398,-0.0734 0.1183,-0.1048 0.0897,-0.13 0.056,-0.1477 0.0191,-0.1568 -0.0191,-0.1568 -0.056,-0.1477 -0.0448,-0.065 -0.0449,-0.065 -0.1183,-0.1048 v 0 l -0.1182,-0.062 -0.0216,-0.0114 -0.1534,-0.0378 v 0 h -0.158 v 0 l -0.1513,0.0373 h -0.0474 l -0.1513,-0.0373 v 0 h -0.158 v 0 l -0.1513,0.0373 h -0.0474 l -0.1513,-0.0373 v 0 h -0.158 v 0 l -0.1534,0.0378 -0.1398,0.0734 -0.1183,0.1048 -0.0897,0.13 -0.056,0.1477 v 0 l -0.0191,0.1568 h -5.885 v -1.7495 h 12.474 v 0.197 l 0.0384,0.1933 v 0 l 0.0755,0.1821 v 0 l 0.1095,0.1639 0.1393,0.1393 0.1639,0.1095 0.1821,0.0755 0.1933,0.0384 v 0 h 0.197 v 0 l 0.1933,-0.0384 0.1821,-0.0755 0.1639,-0.1095 0.1393,-0.1393 0.1095,-0.1639 0.0755,-0.1821 0.0384,-0.1933 v -0.197 l -0.0384,-0.1933 -0.0755,-0.1821 -0.1095,-0.1639 -0.1393,-0.1393 -0.1639,-0.1095 v 0 0 l -0.1821,-0.0755 -0.1933,-0.0384 v 0 h -0.197 v 0 l -0.1933,0.0384 v 0 l -0.1821,0.0755 -0.1639,0.1095 v 0 l -0.1393,0.1393 v 0 l -0.1095,0.1639 -0.0755,0.1821 v 0 l -0.0384,0.1933 h -12.474 v -1.2985 h 20.2341 v 0 l 0.0191,0.1568 0.01,0.026 0.0137,0.0361 0.003,0.0611 -0.003,0.009 -0.0235,0.0621 -0.0191,0.1568 v 0 l 0.01,0.0784 0.01,0.0784 0.01,0.026 0.0137,0.0361 0.003,0.0611 -0.003,0.009 -0.0235,0.0621 -0.0191,0.1568 v 0 l 0.0191,0.1568 v 0 l 0.0476,0.1257 0.008,0.022 0.0897,0.13 v 0 0 l 0.1183,0.1048 0.1398,0.0734 0.1534,0.0378 v 0 h 0.158 v 0 l 0.1534,-0.0378 0.1398,-0.0734 0.1183,-0.1048 0.0897,-0.13 0.056,-0.1477 0.0191,-0.1568 -0.0191,-0.1568 -0.0235,-0.0621 -0.003,-0.0611 0.003,-0.009 0.0235,-0.0621 0.0127,-0.1045 0.006,-0.0523 v 0 l -0.0191,-0.1568 v 0 l -0.0235,-0.0621 -0.003,-0.0611 0.003,-0.009 0.0235,-0.0621 0.0191,-0.1568 -0.0191,-0.1568 -0.056,-0.1477 -0.0661,-0.0958 -0.0236,-0.0342 -0.1183,-0.1048 v 0 l -0.0889,-0.0466 -0.0509,-0.0268 -0.1534,-0.0378 v 0 h -0.158 v 0 l -0.1534,0.0378 -0.1398,0.0734 -0.1183,0.1048 -0.0897,0.13 -0.056,0.1477 v 0 l -0.0191,0.1568 h -20.2341 v -2.8319 h 7.24 v 0 0.1774 l 0.0328,0.1649 0.002,0.009 v 0 l 0.0679,0.1638 v 0 l 0.088,0.1317 0.0105,0.0158 0.1255,0.1255 0.1475,0.0985 0.1638,0.0679 0.174,0.0346 v 0 h 0.1774 v 0 l 0.174,-0.0346 0.1638,-0.0679 0.1475,-0.0985 0.1255,-0.1255 0.0985,-0.1475 0.0399,-0.0963 h 10.5718 l 0.0191,0.1568 0.01,0.026 0.0137,0.0361 0.003,0.0611 -0.003,0.009 -0.0235,0.0621 -0.0191,0.1568 v 0 l 0.003,0.0277 0.0157,0.1291 0.01,0.026 0.0137,0.0361 0.003,0.0611 -0.003,0.009 -0.0235,0.0621 -0.0191,0.1568 v 0 l 0.0191,0.1568 v 0 l 0.056,0.1477 0.0897,0.13 v 0 0 l 0.1183,0.1048 0.1398,0.0734 0.1534,0.0378 v 0 h 0.158 v 0 l 0.1534,-0.0378 0.1398,-0.0734 0.1183,-0.1048 0.0897,-0.13 0.056,-0.1477 0.0191,-0.1568 -0.003,-0.022 -0.0164,-0.1348 v 0 l -0.0235,-0.0621 -0.003,-0.0611 0.003,-0.009 0.0235,-0.0621 0.0157,-0.1291 0.003,-0.0277 v 0 l -0.0127,-0.1045 -0.006,-0.0523 -0.0235,-0.0621 -0.003,-0.0611 0.003,-0.009 0.0235,-0.0621 0.0191,-0.1568 -0.0191,-0.1568 -0.056,-0.1477 -0.0514,-0.0745 -0.0383,-0.0555 -0.1183,-0.1048 v 0 l -0.0699,-0.0367 -0.0699,-0.0367 -0.1534,-0.0378 v 0 h -0.158 v 0 l -0.1534,0.0378 -0.1398,0.0734 -0.1183,0.1048 -0.0897,0.13 -0.056,0.1477 v 0 l -0.0123,0.1012 -0.007,0.0556 h -10.5718 l 0.028,-0.0675 0.0346,-0.174 v -0.1774 l -0.0346,-0.174 -0.0679,-0.1638 v 0 l -0.0985,-0.1475 -0.1255,-0.1255 -0.1475,-0.0985 -0.1638,-0.0679 -0.174,-0.0346 v 0 h -0.1774 v 0 l -0.174,0.0346 v 0 l -0.1638,0.0679 v 0 l -0.1475,0.0985 -0.1255,0.1255 -0.0985,0.1475 v 0 l -0.0679,0.1638 v 0 l -0.0346,0.174 h -7.24 v -3.3911 h 37.7874 v 0 l 0.0191,0.1568 v 0 l 0.0368,0.0972 0.0192,0.0505 0.0897,0.13 v 0 0 l 0.1183,0.1048 0.1398,0.0734 0.1534,0.0378 v 0 h 0.158 v 0 l 0.1513,-0.0373 h 0.0474 l 0.1513,0.0373 v 0 h 0.158 v 0 l 0.1513,-0.0373 h 0.0474 l 0.1513,0.0373 v 0 h 0.158 v 0 l 0.1534,-0.0378 0.1398,-0.0734 0.1183,-0.1048 0.0897,-0.13 0.056,-0.1477 0.0191,-0.1568 -0.0191,-0.1568 -0.056,-0.1477 -0.0449,-0.065 -0.0448,-0.065 -0.1183,-0.1048 v 0 l -0.1182,-0.062 -0.0216,-0.0114 -0.1534,-0.0378 v 0 h -0.158 v 0 l -0.1513,0.0373 h -0.0474 l -0.1513,-0.0373 v 0 h -0.158 v 0 l -0.1513,0.0373 h -0.0474 l -0.1513,-0.0373 v 0 h -0.158 v 0 l -0.1534,0.0378 -0.1398,0.0734 -0.1183,0.1048 -0.0897,0.13 -0.056,0.1477 v 0 l -0.0191,0.1568 h -37.7874 v -2.237 h 26.4702 v 0 l 0.0191,0.1568 v 0 l 0.0471,0.1244 0.009,0.0233 0.0897,0.13 v 0 0 l 0.1183,0.1048 0.1398,0.0734 0.1534,0.0378 v 0 h 0.158 v 0 l 0.1534,-0.0378 0.008,-0.004 0.0603,-0.0103 0.0317,0.0103 0.008,0.004 0.1534,0.0378 v 0 h 0.158 v 0 l 0.1534,-0.0378 0.007,-0.004 0.0603,-0.0103 0.0317,0.0103 0.007,0.004 0.1534,0.0378 v 0 h 0.158 v 0 l 0.1534,-0.0378 0.1398,-0.0734 0.1183,-0.1048 0.0897,-0.13 0.009,-0.0233 h 3.0116 v 0 l 0.0191,0.1568 v 0 l 0.0192,0.0508 0.0368,0.0969 0.0897,0.13 v 0 0 l 0.1183,0.1048 0.1398,0.0734 0.1534,0.0378 v 0 h 0.158 v 0 l 0.1513,-0.0373 h 0.0474 l 0.1513,0.0373 v 0 h 0.158 v 0 l 0.1513,-0.0373 h 0.0474 l 0.1513,0.0373 v 0 h 0.158 v 0 l 0.1534,-0.0378 0.1398,-0.0734 0.1183,-0.1048 0.0897,-0.13 0.056,-0.1477 0.0191,-0.1568 -0.0191,-0.1568 -0.056,-0.1477 -0.0897,-0.13 -0.0256,-0.0227 h 10.4368 l 0.0191,0.1568 0.007,0.0192 0.0163,0.0429 0.003,0.0611 -0.003,0.009 -0.0166,0.0437 -0.007,0.0184 -0.0191,0.1568 0.0191,0.1568 0.01,0.026 0.0137,0.0361 0.003,0.0611 -0.003,0.009 -0.0235,0.0621 -0.0191,0.1568 v 0 l 0.0191,0.1568 v 0 l 0.056,0.1477 0.0897,0.13 v 0 0 l 0.1183,0.1048 0.1398,0.0734 0.1534,0.0378 v 0 h 0.158 v 0 l 0.0501,-0.0124 0.061,0.004 0.0468,0.0394 0.0146,0.0594 -4e-4,0.005 -0.0136,0.1115 -0.004,0.0313 0.0191,0.1568 0.01,0.026 0.0137,0.0361 0.003,0.0611 -0.003,0.009 -0.0235,0.0621 v 0 l -0.0191,0.1568 0.0191,0.1568 0.01,0.026 0.0137,0.0361 0.003,0.0611 -0.003,0.009 -0.0235,0.0621 -0.0191,0.1568 v 0 l 0.0191,0.1568 v 0 l 0.056,0.1477 0.0897,0.13 v 0 0 l 0.1183,0.1048 0.1398,0.0734 0.1534,0.0378 v 0 h 0.158 v 0 l 0.1534,-0.0378 0.1398,-0.0734 0.1183,-0.1048 0.0897,-0.13 0.056,-0.1477 0.0127,-0.1045 0.006,-0.0523 v 0 l -0.0191,-0.1568 v 0 l -0.0235,-0.0621 -0.003,-0.0611 0.003,-0.009 0.0235,-0.0621 0.0191,-0.1568 -0.0191,-0.1568 -0.0235,-0.0621 -0.003,-0.0611 0.003,-0.009 0.0235,-0.0621 0.0191,-0.1568 -0.004,-0.0313 -0.009,-0.0739 -0.006,-0.0516 -0.056,-0.1477 -0.0897,-0.13 -0.1183,-0.1048 -0.0861,-0.0452 -0.0537,-0.0282 -0.1534,-0.0378 v 0 h -0.158 l -0.0501,0.0123 -0.061,-0.004 -0.0468,-0.0394 -0.0146,-0.0594 4e-4,-0.005 0.0174,-0.1428 -0.002,-0.0195 -0.0167,-0.1373 v 0 l -0.0235,-0.0621 -0.003,-0.0611 0.003,-0.009 0.0235,-0.0621 0.0191,-0.1568 -0.0191,-0.1568 -0.0235,-0.0621 -0.003,-0.0611 0.003,-0.009 0.0235,-0.0621 0.0191,-0.1568 -0.0191,-0.1568 -0.056,-0.1477 -0.0716,-0.1038 -0.0181,-0.0262 -0.0451,-0.04 -0.0732,-0.0648 -0.1137,-0.0597 -0.0261,-0.0137 -0.1534,-0.0378 v 0 h -0.158 v 0 l -0.1534,0.0378 -0.1398,0.0734 -0.1183,0.1048 -0.0897,0.13 -0.056,0.1477 v 0 l -0.009,0.0747 -0.01,0.0821 h -10.4368 l -0.0927,-0.0821 -0.0884,-0.0464 -0.0514,-0.027 -0.1534,-0.0378 v 0 h -0.158 v 0 l -0.1513,0.0373 h -0.0474 l -0.1513,-0.0373 v 0 h -0.158 v 0 l -0.1513,0.0373 h -0.0474 l -0.1513,-0.0373 v 0 h -0.158 v 0 l -0.1534,0.0378 -0.1398,0.0734 -0.1183,0.1048 -0.0897,0.13 -0.056,0.1477 v 0 l -0.0191,0.1568 h -3.0116 l 0.0471,-0.1244 0.0191,-0.1568 -0.002,-0.0192 -0.0167,-0.1376 v 0 l -0.056,-0.1477 -0.0897,-0.13 -0.1183,-0.1048 -0.0857,-0.045 -0.0541,-0.0284 -0.1534,-0.0378 v 0 h -0.158 v 0 l -0.1534,0.0378 -0.007,0.004 -0.0603,0.0103 -0.0317,-0.0103 -0.007,-0.004 -0.1534,-0.0378 v 0 h -0.158 v 0 l -0.1534,0.0378 -0.008,0.004 -0.0603,0.0103 -0.0317,-0.0103 -0.008,-0.004 -0.1534,-0.0378 v 0 h -0.158 v 0 l -0.1534,0.0378 -0.1398,0.0734 -0.1183,0.1048 -0.0897,0.13 -0.056,0.1477 v 0 l -0.0191,0.1568 h -26.4702 v -1.9919 h 3.43 v 0.1774 l 0.0346,0.174 v 0 l 0.0679,0.1638 v 0 l 0.0542,0.0812 0.0443,0.0663 0.1255,0.1255 0.1475,0.0985 0.1638,0.0679 0.174,0.0346 v 0 h 0.1774 v 0 l 0.174,-0.0346 0.1638,-0.0679 0.1475,-0.0985 0.1255,-0.1255 0.0985,-0.1475 0.0679,-0.1638 0.0346,-0.174 v -0.1774 0 h 2.009 v 0.1774 l 0.0346,0.174 v 0 l 0.0679,0.1638 v 0 l 0.0542,0.0812 0.0443,0.0663 0.1255,0.1255 0.1475,0.0985 0.1638,0.0679 0.174,0.0346 v 0 h 0.1774 v 0 l 0.174,-0.0346 0.1638,-0.0679 0.1475,-0.0985 0.1255,-0.1255 0.0985,-0.1475 0.0679,-0.1638 0.0346,-0.174 v -0.1774 l -0.0346,-0.174 -0.0679,-0.1638 v 0 l -0.0985,-0.1475 -0.1255,-0.1255 -0.1475,-0.0985 -0.0357,-0.0148 h 5.9389 v 0 l 0.0191,0.1568 0.0235,0.0621 0.003,0.0611 -0.003,0.009 -0.0235,0.0621 -0.004,0.0351 -0.0148,0.1217 0.0191,0.1568 0.01,0.026 0.0137,0.0361 0.003,0.0611 -0.003,0.009 -0.0235,0.0621 -0.0191,0.1568 v 0 l 0.0191,0.1568 v 0 l 0.0252,0.0665 0.0308,0.0812 0.0897,0.13 v 0 0 l 0.1183,0.1048 0.1398,0.0734 0.1534,0.0378 v 0 h 0.158 v 0 l 0.1534,-0.0378 0.1398,-0.0734 0.1183,-0.1048 0.0897,-0.13 0.056,-0.1477 0.0144,-0.1185 v 0 h 20.4199 v 0.1774 l 0.0346,0.174 v 0 l 0.0679,0.1638 v 0 l 0.096,0.1438 0.002,0.004 0.1255,0.1255 0.1475,0.0985 0.1638,0.0679 0.174,0.0346 v 0 h 0.1774 v 0 l 0.174,-0.0346 0.1638,-0.0679 0.1475,-0.0985 0.1255,-0.1255 0.0985,-0.1475 0.0679,-0.1638 0.0346,-0.174 v -0.1774 0 h 2.009 v 0.1774 l 0.0346,0.174 v 0 l 0.0679,0.1638 v 0 l 0.096,0.1438 0.002,0.004 0.1255,0.1255 0.1475,0.0985 0.1638,0.0679 0.174,0.0346 v 0 h 0.1774 v 0 l 0.174,-0.0346 0.1638,-0.0679 0.1475,-0.0985 0.1255,-0.1255 0.0985,-0.1475 0.0679,-0.1638 0.0346,-0.174 v -0.1774 l -0.0346,-0.174 -0.0679,-0.1638 v 0 l -0.0985,-0.1475 -0.1255,-0.1255 -0.1475,-0.0985 -0.1638,-0.0679 -0.174,-0.0346 v 0 h -0.1774 v 0 l -0.174,0.0346 v 0 l -0.1638,0.0679 v 0 l -0.1475,0.0985 -0.1255,0.1255 -0.0985,0.1475 v 0 l -0.0679,0.1638 v 0 l -0.0346,0.174 h -2.009 l -0.0346,-0.174 -0.0679,-0.1638 v 0 l -0.0985,-0.1475 -0.1255,-0.1255 -0.1475,-0.0985 -0.1638,-0.0679 -0.174,-0.0346 v 0 h -0.1774 v 0 l -0.174,0.0346 v 0 l -0.1638,0.0679 v 0 l -0.1475,0.0985 -0.1255,0.1255 -0.0985,0.1475 v 0 l -0.0679,0.1638 v 0 l -0.0346,0.174 h -20.4199 l 0.005,-0.0383 v 0 l -0.0191,-0.1568 v 0 l -0.0235,-0.0621 -0.003,-0.0611 0.003,-0.009 0.0235,-0.0621 0.0191,-0.1568 -0.0191,-0.1568 -0.0235,-0.0621 -0.003,-0.0611 0.003,-0.009 0.0235,-0.0621 v 0 l 0.0127,-0.1045 0.006,-0.0523 v 0 l -0.0191,-0.1568 v 0 l -0.056,-0.1477 -0.0897,-0.13 -0.1183,-0.1048 -0.0699,-0.0367 -0.0699,-0.0367 -0.1534,-0.0378 v 0 h -0.158 v 0 l -0.1534,0.0378 -0.1398,0.0734 -0.1183,0.1048 -0.0897,0.13 -0.056,0.1477 v 0 l -0.0191,0.1568 h -5.9389 l -0.1281,-0.0531 -0.174,-0.0346 v 0 h -0.1774 v 0 l -0.174,0.0346 v 0 l -0.1638,0.0679 v 0 l -0.1475,0.0985 -0.1255,0.1255 -0.0985,0.1475 v 0 l -0.0679,0.1638 v 0 l -0.0346,0.174 h -2.009 l -0.0346,-0.174 -0.0679,-0.1638 v 0 l -0.0985,-0.1475 -0.1255,-0.1255 -0.1475,-0.0985 -0.1638,-0.0679 -0.174,-0.0346 v 0 h -0.1774 v 0 l -0.174,0.0346 v 0 l -0.1638,0.0679 v 0 l -0.1475,0.0985 -0.1255,0.1255 -0.0985,0.1475 v 0 l -0.0679,0.1638 v 0 l -0.0346,0.174 h -3.43 v -1.8877 h 21.0645 v 0 l 0.0189,0.1556 0.0556,0.1465 v 0 l 0.0119,0.0172 0.006,0.0103 5e-4,0.001 0.0898,0.13 v 0 0 l 0.1182,0.1048 0.1399,0.0734 0.1534,0.0378 v 0 h 0.158 v 0 l 0.1533,-0.0378 0.1399,-0.0734 0.1183,-0.1048 0.0897,-0.13 0.056,-0.1477 0.019,-0.1568 -0.019,-0.1568 -0.0235,-0.0621 -0.003,-0.0611 0.003,-0.009 0.0235,-0.0621 0.019,-0.1568 -0.019,-0.1568 -0.0235,-0.0621 -0.003,-0.0611 0.003,-0.009 0.0235,-0.0621 0.019,-0.1568 -0.019,-0.1568 -0.056,-0.1477 -0.0449,-0.065 -0.0448,-0.065 -0.1047,-0.0928 -0.0136,-0.012 -0.0699,-0.0367 -0.07,-0.0367 -0.1533,-0.0378 v 0 h -0.158 v 0 l -0.1534,0.0378 -0.1399,0.0734 -0.003,0.002 -0.0102,0.006 -0.007,0.004 -0.1173,0.1039 -0.089,0.129 -0.0556,0.1465 -0.0189,0.1556 v 0 l 0.0189,0.1555 v 0 l 0.0215,0.0567 0.003,0.0611 -0.003,0.009 -0.0215,0.0567 v 0 l -0.0189,0.1556 v 0 l 0.0189,0.1556 v 0 l 0.0201,0.053 0.003,0.0611 -0.003,0.009 -0.0201,0.0531 v 0 l -0.0189,0.1555 h -21.0645 v -2.5194 h 29.9642 v 0 l 0.0191,0.1568 v 0 l 0.056,0.1477 0.0897,0.13 v 0 0 l 0.1183,0.1048 0.1398,0.0734 0.1534,0.0378 v 0 h 0.158 v 0 l 0.1534,-0.0378 0.008,-0.004 0.0603,-0.0103 0.0317,0.0103 0.008,0.004 0.1534,0.0378 v 0 h 0.158 v 0 l 0.1534,-0.0378 0.007,-0.003 0.0603,-0.0103 0.0317,0.0103 0.007,0.003 0.1534,0.0378 v 0 h 0.158 v 0 l 0.1534,-0.0378 0.1398,-0.0734 0.1183,-0.1048 0.0897,-0.13 0.056,-0.1477 0.0191,-0.1568 -0.0191,-0.1568 -0.056,-0.1477 -0.0897,-0.13 -0.1183,-0.1048 -0.0857,-0.045 -0.0541,-0.0284 -0.1534,-0.0378 v 0 h -0.158 v 0 l -0.1534,0.0378 -0.007,0.004 -0.0603,0.0103 -0.0317,-0.0103 -0.007,-0.004 -0.1534,-0.0378 v 0 h -0.158 v 0 l -0.1534,0.0378 -0.008,0.004 -0.0603,0.0103 -0.0317,-0.0103 -0.008,-0.004 -0.1534,-0.0378 v 0 h -0.158 v 0 l -0.1534,0.0378 -0.1398,0.0734 -0.1183,0.1048 -0.0897,0.13 -0.056,0.1477 v 0 l -0.0191,0.1568 h -29.9642 v -2.286 h 7.2058 l 0.0191,0.1568 0.01,0.026 0.0137,0.0361 0.003,0.0611 -0.003,0.009 -0.0235,0.0621 -0.0109,0.0893 -0.008,0.0675 0.0191,0.1568 0.01,0.026 0.0137,0.0361 0.003,0.0611 -0.003,0.009 -0.0235,0.0621 -0.0191,0.1568 v 0 l 0.0191,0.1568 v 0 l 0.056,0.1477 0.0897,0.13 v 0 0 l 0.1183,0.1048 0.1398,0.0734 0.1534,0.0378 v 0 h 0.158 v 0 l 0.1534,-0.0378 0.1398,-0.0734 0.1183,-0.1048 0.0897,-0.13 0.056,-0.1477 0.0191,-0.1568 -0.0191,-0.1568 -0.0235,-0.0621 -0.003,-0.0611 0.003,-0.009 0.0235,-0.0621 0.0191,-0.1568 -0.008,-0.0675 v -1e-4 h 7.7608 v 0.1811 l 0.0283,0.1789 0.0191,0.0588 0.0369,0.1134 0.0822,0.1614 0.1064,0.1465 0.1281,0.1281 0.1465,0.1064 0.1614,0.0822 0.1722,0.056 0.0715,0.0113 0.1074,0.017 v 0 h 0.181 l 0.0895,-0.0142 0.0894,-0.0141 0.1722,-0.056 0.1614,-0.0822 0.1465,-0.1064 0.1281,-0.1281 0.1064,-0.1465 0.0822,-0.1614 0.056,-0.1722 0.0214,-0.1356 0.007,-0.0433 v -0.1811 h 0.239 v 0.1811 l 0.0283,0.1789 0.0191,0.0588 0.0369,0.1134 0.0822,0.1614 0.1064,0.1465 0.1281,0.1281 0.1465,0.1064 0.1614,0.0822 0.1722,0.056 0.0715,0.0113 0.1074,0.017 v 0 h 0.181 l 0.0895,-0.0142 0.0894,-0.0141 0.1722,-0.056 0.1614,-0.0822 0.1465,-0.1064 0.1281,-0.1281 0.1064,-0.1465 0.0822,-0.1614 0.056,-0.1722 0.0214,-0.1356 0.007,-0.0433 v -0.1811 h 0.239 v 0.1811 l 0.0283,0.1789 0.0191,0.0588 0.0369,0.1134 0.0822,0.1614 0.1064,0.1465 0.1281,0.1281 0.1465,0.1064 0.1614,0.0822 0.1722,0.056 0.0715,0.0113 0.1074,0.017 v 0 h 0.181 l 0.0895,-0.0142 0.0894,-0.0141 0.1722,-0.056 0.1614,-0.0822 0.1465,-0.1064 0.1281,-0.1281 0.1064,-0.1465 0.0822,-0.1614 0.056,-0.1722 0.0214,-0.1356 0.007,-0.0433 v -0.1811 h 0.239 v 0.1811 l 0.0283,0.1789 0.0191,0.0588 0.0369,0.1134 0.0822,0.1614 0.1064,0.1465 0.1281,0.1281 0.1465,0.1064 0.1614,0.0822 0.1722,0.056 0.0715,0.0113 0.1074,0.017 v 0 h 0.181 l 0.0895,-0.0142 0.0894,-0.0141 0.1722,-0.056 0.1614,-0.0822 0.1465,-0.1064 0.1281,-0.1281 0.1064,-0.1465 0.0822,-0.1614 0.056,-0.1722 0.0214,-0.1356 0.007,-0.0433 v -0.1811 h 0.239 v 0.1811 l 0.0283,0.1789 0.0191,0.0588 0.0369,0.1134 0.0822,0.1614 0.1064,0.1465 0.1281,0.1281 0.1465,0.1064 0.1614,0.0822 0.1722,0.056 0.0715,0.0113 0.1074,0.017 v 0 h 0.181 l 0.0895,-0.0142 0.0894,-0.0141 0.1722,-0.056 0.1614,-0.0822 0.1465,-0.1064 0.1281,-0.1281 0.1064,-0.1465 0.0822,-0.1614 0.056,-0.1722 0.0214,-0.1356 0.007,-0.0433 v -0.1811 l -0.0283,-0.1788 v 0 l -0.056,-0.1722 -0.0822,-0.1614 -0.1064,-0.1465 -0.1281,-0.1281 -0.1465,-0.1064 v 0 0 l -0.1614,-0.0822 -0.1722,-0.056 -0.1789,-0.0283 v 0 h -0.181 v 0 l -0.1789,0.0283 -0.1722,0.056 -0.1614,0.0822 -0.0732,0.0532 -0.0733,0.0532 -0.1281,0.1281 -0.0532,0.0733 -0.0532,0.0732 -0.0822,0.1614 -0.056,0.1722 -0.0283,0.1788 h -0.239 l -0.0283,-0.1788 v 0 l -0.056,-0.1722 -0.0822,-0.1614 -0.1064,-0.1465 -0.1281,-0.1281 -0.1465,-0.1064 v 0 0 l -0.1614,-0.0822 -0.1722,-0.056 -0.1789,-0.0283 v 0 h -0.181 v 0 l -0.1789,0.0283 -0.1722,0.056 -0.1614,0.0822 -0.0732,0.0532 -0.0733,0.0532 -0.1281,0.1281 -0.0532,0.0733 -0.0532,0.0732 -0.0822,0.1614 -0.056,0.1722 -0.0283,0.1788 h -0.239 l -0.0283,-0.1788 v 0 l -0.056,-0.1722 -0.0822,-0.1614 -0.1064,-0.1465 -0.1281,-0.1281 -0.1465,-0.1064 v 0 0 l -0.1614,-0.0822 -0.1722,-0.056 -0.1789,-0.0283 v 0 h -0.181 v 0 l -0.1789,0.0283 -0.1722,0.056 -0.1614,0.0822 -0.0732,0.0532 -0.0733,0.0532 -0.1281,0.1281 -0.0532,0.0733 -0.0532,0.0732 -0.0822,0.1614 -0.056,0.1722 -0.0283,0.1788 h -0.239 l -0.0283,-0.1788 v 0 l -0.056,-0.1722 -0.0822,-0.1614 -0.1064,-0.1465 -0.1281,-0.1281 -0.1465,-0.1064 v 0 0 l -0.1614,-0.0822 -0.1722,-0.056 -0.1789,-0.0283 v 0 h -0.181 v 0 l -0.1789,0.0283 -0.1722,0.056 -0.1614,0.0822 -0.0732,0.0532 -0.0733,0.0532 -0.1281,0.1281 -0.0532,0.0733 -0.0532,0.0732 -0.0822,0.1614 -0.056,0.1722 -0.0283,0.1788 h -0.239 l -0.0283,-0.1788 v 0 l -0.056,-0.1722 -0.0822,-0.1614 -0.1064,-0.1465 -0.1281,-0.1281 -0.1465,-0.1064 v 0 0 l -0.1614,-0.0822 -0.1722,-0.056 -0.1789,-0.0283 v 0 h -0.181 v 0 l -0.1789,0.0283 -0.1722,0.056 -0.1614,0.0822 -0.0732,0.0532 -0.0733,0.0532 -0.1281,0.1281 -0.0532,0.0733 -0.0532,0.0732 -0.0822,0.1614 -0.056,0.1722 -0.0283,0.1788 h -7.7608 l -0.0109,-0.0892 v 0 l -0.0235,-0.0621 -0.003,-0.0611 0.003,-0.009 0.0235,-0.0621 0.0191,-0.1568 -0.0191,-0.1568 -0.056,-0.1477 -0.0851,-0.1233 -0.005,-0.007 -0.0209,-0.0185 -0.0974,-0.0863 -0.0988,-0.0519 -0.041,-0.0215 -0.1534,-0.0378 v 0 h -0.158 v 0 l -0.1534,0.0378 -0.1398,0.0734 -0.1183,0.1048 -0.0897,0.13 -0.056,0.1477 v 0 l -0.0103,0.0848 -0.009,0.072 h -7.2058 v -3.4384 l 0.0189,-0.0582 0.0495,-0.036 h 0.0612 l 0.0477,0.0336 0.2159,0.279 0.1636,0.172 0.1121,0.118 0.0957,0.0821 0.2079,0.1785 0.3284,0.2286 v 0 0 l 0.0556,0.0309 0.2368,0.1314 0.0575,0.0319 v 0 0 0 l 0.3677,0.1578 0.3818,0.1198 0.3919,0.0805 0.2388,0.0243 0.1593,0.0162 v 0 h 0.4001 l 0.1327,-0.0135 0.2654,-0.027 0.3919,-0.0805 0.3818,-0.1198 0.3677,-0.1578 0.3498,-0.1942 0.3285,-0.2286 0.1451,-0.1246 h 1.8856 v 0 l 0.0194,0.1595 0.001,0.0064 0.002,0.0135 v 0 l 0.0177,0.0467 0.003,0.0611 -0.003,0.0091 -0.0208,0.0549 -0.0191,0.1568 v 0 l 0.0191,0.1568 v 0 l 2e-4,8e-4 0.002,0.006 0.0211,0.0558 0.003,0.0611 -0.003,0.009 -0.0217,0.0574 -8e-4,0.002 -7e-4,0.002 -0.0191,0.1568 v 0 l 0.0191,0.1568 v 0 l 0.0487,0.1285 0.007,0.0192 0.0897,0.13 v 0 0 l 0.1183,0.1048 0.1398,0.0734 0.1534,0.0378 v 0 h 0.158 v 0 l 0.1534,-0.0378 0.1398,-0.0734 0.1183,-0.1048 0.0897,-0.13 0.056,-0.1477 0.0191,-0.1568 -0.003,-0.0227 -0.0163,-0.1341 v 0 l -0.0235,-0.0621 -0.003,-0.0611 0.003,-0.009 0.0235,-0.0621 0.0143,-0.1174 0.005,-0.0394 v 0 l -0.0191,-0.1568 v 0 l -0.0228,-0.0602 -0.003,-0.0611 0.003,-0.0091 2e-4,-5e-4 0.0155,-0.0409 v 0 l 0.001,-0.0052 0.004,-0.0114 0.002,-0.006 0.0191,-0.1568 h 3.0855 v 0 l 0.0191,0.1568 0.0235,0.0621 0.003,0.0611 -0.003,0.0091 -0.0235,0.0621 -0.0191,0.1568 v 0 l 0.0191,0.1568 0.0235,0.0621 0.003,0.0611 -0.003,0.009 -0.0235,0.0621 -0.0191,0.1568 v 0 l 0.0191,0.1568 v 0 l 0.0235,0.062 0.0325,0.0857 0.0897,0.13 v 0 0 l 0.1183,0.1048 0.1398,0.0734 0.1534,0.0378 v 0 h 0.158 v 0 l 0.1189,-0.0293 0.061,0.004 0.0468,0.0395 0.0146,0.0594 -5e-4,0.005 -0.01,0.0816 v 0 l 0.0191,0.1568 v 0 l 0.056,0.1477 0.0897,0.13 v 0 0 l 0.1183,0.1048 0.1398,0.0734 0.1534,0.0378 v 0 h 0.158 v 0 l 0.1513,-0.0373 h 0.0474 l 0.1513,0.0373 v 0 h 0.158 v 0 l 0.1513,-0.0373 h 0.0474 l 0.1513,0.0373 v 0 h 0.158 v 0 l 0.1534,-0.0378 0.1398,-0.0734 0.1183,-0.1048 0.0897,-0.13 0.056,-0.1477 0.0191,-0.1568 -0.01,-0.0802 -0.008,-0.0656 -0.001,-0.011 -0.056,-0.1477 -0.0897,-0.13 -0.1183,-0.1048 -0.1182,-0.062 -0.0216,-0.0114 -0.1534,-0.0378 v 0 h -0.158 v 0 l -0.1513,0.0373 h -0.0474 l -0.1513,-0.0373 v 0 h -0.158 v 0 l -0.1513,0.0373 h -0.0474 l -0.1513,-0.0373 v 0 h -0.158 v 0 l -0.1189,0.0293 -0.061,-0.004 -0.0468,-0.0395 -0.0146,-0.0594 5e-4,-0.005 0.01,-0.0816 v 0 l -0.0191,-0.1568 v 0 l -0.0235,-0.0621 -0.003,-0.0611 0.003,-0.009 0.0235,-0.0621 0.0129,-0.106 h 25.284 v 0 l 0.019,0.1568 v 0 l 0.031,0.0815 0.0251,0.0662 0.0897,0.13 v 0 0 l 0.1182,0.1048 0.1399,0.0734 0.1534,0.0378 v 0 h 0.158 v 0 l 0.148,-0.0365 0.005,-0.001 v 0 h 1e-4 v 0 l 0.002,-7e-4 0.001,-1e-4 0.003,-6e-4 10e-5,5e-4 0.0571,-0.003 0.009,0.003 0.002,7e-4 v 0 l 0.1534,0.0378 v 0 h 0.158 v 0 l 0.0746,-0.0184 0.061,0.004 0.0468,0.0395 0.0146,0.0594 -0.006,0.0279 -0.017,0.0451 v 0 l -0.0191,0.1568 v 0 l 0.0191,0.1568 v 0 l 0.0289,0.0764 0.0271,0.0713 0.0897,0.13 v 0 0 l 0.1183,0.1048 0.1398,0.0734 0.1534,0.0378 v 0 h 0.158 v 0 l 0.1534,-0.0378 0.1398,-0.0734 0.1183,-0.1048 0.0897,-0.13 0.013,-0.0341 0.0383,-0.0477 0.008,-0.005 0.1135,-0.0596 0.1183,-0.1048 0.0897,-0.13 0.013,-0.0341 0.0383,-0.0477 0.008,-0.005 0.1135,-0.0596 0.1183,-0.1048 0.0897,-0.13 0.056,-0.1477 0.0191,-0.1568 -0.0191,-0.1568 -0.056,-0.1477 -0.0507,-0.0734 h 1.0862 v 0.197 l 0.0185,0.093 0.0175,0.0879 0.002,0.0124 v 0 l 0.0755,0.1821 v 0 l 0.1095,0.1639 0.1393,0.1393 0.1639,0.1095 0.1821,0.0755 0.1933,0.0384 v 0 h 0.197 v 0 l 0.1933,-0.0384 0.1821,-0.0755 0.1639,-0.1095 0.1393,-0.1393 0.1095,-0.1639 0.0755,-0.1821 0.0384,-0.1933 v -0.197 0 h 0.539 v 0.197 l 0.0185,0.093 0.0175,0.0879 0.002,0.0124 v 0 l 0.0755,0.1821 v 0 l 0.1095,0.1639 0.1393,0.1393 0.1639,0.1095 0.1821,0.0755 0.1933,0.0384 v 0 h 0.197 v 0 l 0.1933,-0.0384 0.1821,-0.0755 0.1639,-0.1095 0.1393,-0.1393 0.1095,-0.1639 0.0755,-0.1821 0.0384,-0.1933 v -0.197 l -0.0384,-0.1933 -0.0755,-0.1821 -0.1095,-0.1639 -0.1393,-0.1393 -0.1095,-0.0732 -0.0544,-0.0363 -0.1821,-0.0755 -0.1933,-0.0384 v 0 h -0.197 v 0 l -0.1933,0.0384 v 0 l -0.1821,0.0755 -0.1639,0.1095 v 0 l -0.1393,0.1393 v 0 l -0.1095,0.1639 -0.0755,0.1821 v 0 l -0.0384,0.1933 h -0.539 l -0.0384,-0.1933 -0.0755,-0.1821 -0.1095,-0.1639 -0.1393,-0.1393 -0.1095,-0.0732 -0.0544,-0.0363 -0.1821,-0.0755 -0.1933,-0.0384 v 0 h -0.197 v 0 l -0.1933,0.0384 v 0 l -0.1821,0.0755 -0.1639,0.1095 v 0 l -0.1393,0.1393 v 0 l -0.1095,0.1639 -0.0755,0.1821 v 0 l -0.0384,0.1933 H 172.87 l -0.0171,-0.0249 -0.0219,-0.0317 -0.0399,-0.0354 -0.0784,-0.0694 -0.0803,-0.0422 -0.0595,-0.0312 -0.1534,-0.0378 v 0 h -0.158 v 0 l -0.1534,0.0378 -0.1398,0.0734 -0.029,0.0257 -0.0561,0.0244 -0.0598,-0.0132 -0.0313,-0.0291 -0.0733,-0.1062 -0.1182,-0.1048 -0.07,-0.0367 -0.0699,-0.0367 -0.1534,-0.0378 v 0 h -0.158 v 0 l -0.1534,0.0378 -0.002,7e-4 -0.001,1e-4 -0.003,6e-4 -1e-4,-5e-4 -0.0571,0.0028 -0.009,-0.003 -0.002,-7e-4 -0.1534,-0.0378 v 0 h -0.158 v 0 l -0.1534,0.0378 -0.002,7e-4 -0.001,1e-4 -0.003,6e-4 -1e-4,-5e-4 -0.0571,0.0028 -0.009,-0.003 -0.002,-7e-4 -0.1534,-0.0378 v 0 h -0.158 v 0 l -0.1534,0.0378 -0.1399,0.0734 -0.1182,0.1048 -0.0897,0.13 -0.0561,0.1477 v 0 l -0.019,0.1568 h -25.284 l 10e-4,-0.0114 0.005,-0.0394 v 0 l -0.0191,-0.1568 v 0 l -0.0235,-0.0621 -0.003,-0.0611 0.003,-0.0091 0.0235,-0.0621 0.0191,-0.1568 -0.004,-0.0345 -0.0149,-0.1223 v 0 l -0.056,-0.1477 -0.0687,-0.0995 -0.021,-0.0305 -0.1183,-0.1048 v 0 l -0.0699,-0.0367 -0.0144,-0.0075 h 3.2408 v 0.197 l 0.0384,0.1933 v 0 l 0.0755,0.1821 0.007,0.0111 0.1021,0.1528 0.1393,0.1393 0.1639,0.1095 0.1821,0.0755 0.1933,0.0384 v 0 h 0.197 v 0 l 0.1933,-0.0384 0.1821,-0.0755 0.1639,-0.1095 0.1393,-0.1393 0.1095,-0.1639 0.0755,-0.1821 0.0384,-0.1933 v -0.197 0 h 0.539 v 0.197 l 0.0384,0.1933 v 0 l 0.0755,0.1821 0.007,0.0111 0.1021,0.1528 0.1393,0.1393 0.1639,0.1095 0.1821,0.0755 0.1933,0.0384 v 0 h 0.197 v 0 l 0.1933,-0.0384 0.1821,-0.0755 0.1639,-0.1095 0.1393,-0.1393 0.1095,-0.1639 0.0755,-0.1821 0.0384,-0.1933 v -0.197 0 h 0.539 v 0.197 l 0.0384,0.1933 v 0 l 0.0755,0.1821 0.007,0.0111 0.1021,0.1528 0.1393,0.1393 0.1639,0.1095 0.1821,0.0755 0.1933,0.0384 v 0 h 0.197 v 0 l 0.1933,-0.0384 0.1821,-0.0755 0.1639,-0.1095 0.1393,-0.1393 0.1095,-0.1639 0.0755,-0.1821 0.0384,-0.1933 v -0.197 0 h 0.539 v 0.197 l 0.0384,0.1933 v 0 l 0.0755,0.1821 0.007,0.0111 0.1021,0.1528 0.1393,0.1393 0.1639,0.1095 0.1821,0.0755 0.1933,0.0384 v 0 h 0.197 v 0 l 0.1933,-0.0384 0.1821,-0.0755 0.1639,-0.1095 0.1393,-0.1393 0.1095,-0.1639 0.0755,-0.1821 0.0384,-0.1933 v -0.197 0 h 0.539 v 0.197 l 0.0384,0.1933 v 0 l 0.0755,0.1821 0.007,0.0111 0.1021,0.1528 0.1393,0.1393 0.1639,0.1095 0.1821,0.0755 0.1933,0.0384 v 0 h 0.197 v 0 l 0.1933,-0.0384 0.1821,-0.0755 0.1639,-0.1095 0.1393,-0.1393 0.1095,-0.1639 0.0755,-0.1821 0.0121,-0.0608 h 2.5535 v 0 l 0.0191,0.1568 v 0 l 0.0368,0.0972 0.0192,0.0505 0.0897,0.13 v 0 0 l 0.1183,0.1048 0.1398,0.0734 0.1534,0.0378 v 0 h 0.158 v 0 l 0.1513,-0.0373 h 0.0474 l 0.1513,0.0373 v 0 h 0.158 v 0 l 0.1513,-0.0373 h 0.0474 l 0.1513,0.0373 v 0 h 0.158 v 0 l 0.1534,-0.0378 0.1398,-0.0734 0.1183,-0.1048 0.0897,-0.13 0.056,-0.1477 0.0127,-0.1045 0.006,-0.0523 v 0 l -0.0154,-0.127 v 0 h 2.6418 v 0 l 0.0191,0.1568 v 0 l 0.0255,0.0674 0.0305,0.0803 0.0897,0.13 v 0 0 l 0.1183,0.1048 0.1398,0.0734 0.1534,0.0378 v 0 h 0.158 v 0 l 0.1513,-0.0373 h 0.0474 l 0.1513,0.0373 v 0 h 0.158 v 0 l 0.1513,-0.0373 h 0.0474 l 0.1513,0.0373 v 0 h 0.158 v 0 l 0.1534,-0.0378 0.1398,-0.0734 0.1183,-0.1048 0.0897,-0.13 0.056,-0.1477 0.0191,-0.1568 -7e-4,-0.0055 -0.0184,-0.1513 v 0 l -0.056,-0.1477 -0.063,-0.0913 -0.0267,-0.0387 -0.0583,-0.0517 -0.06,-0.0531 -0.0736,-0.0386 -0.0662,-0.0348 -0.1534,-0.0378 v 0 h -0.158 v 0 l -0.1513,0.0373 h -0.0474 l -0.1513,-0.0373 v 0 h -0.158 v 0 l -0.1513,0.0373 h -0.0474 l -0.1513,-0.0373 v 0 h -0.158 v 0 l -0.1534,0.0378 -0.1398,0.0734 -0.1183,0.1048 -0.0897,0.13 -0.056,0.1477 v 0 l -0.0191,0.1568 h -2.6418 l -0.004,-0.0298 -0.056,-0.1477 -0.0876,-0.127 -0.002,-0.003 -0.0565,-0.0501 -0.0618,-0.0547 -0.1182,-0.062 -0.0216,-0.0114 -0.1534,-0.0378 v 0 h -0.158 v 0 l -0.1513,0.0373 h -0.0474 L 163.02,98.7905 v 0 h -0.158 v 0 l -0.1513,0.0373 h -0.0474 l -0.1513,-0.0373 v 0 h -0.158 v 0 l -0.1534,0.0378 -0.1398,0.0734 -0.1183,0.1048 -0.0897,0.13 -0.056,0.1477 v 0 l -0.0191,0.1568 h -2.5535 l 0.0263,-0.1325 v -0.197 l -0.0384,-0.1933 -0.0755,-0.1821 -0.1095,-0.1639 -0.1393,-0.1393 -0.1639,-0.1095 v 0 0 l -0.1821,-0.0755 -0.1933,-0.0384 v 0 h -0.197 v 0 l -0.1933,0.0384 v 0 l -0.1821,0.0755 -0.1639,0.1095 v 0 l -0.1393,0.1393 v 0 l -0.1095,0.1639 -0.0755,0.1821 v 0 l -0.0384,0.1933 h -0.539 l -0.0384,-0.1933 -0.0755,-0.1821 -0.1095,-0.1639 -0.1393,-0.1393 -0.1639,-0.1095 v 0 0 l -0.1821,-0.0755 -0.1933,-0.0384 v 0 h -0.197 v 0 l -0.1933,0.0384 v 0 l -0.1821,0.0755 -0.1639,0.1095 v 0 l -0.1393,0.1393 v 0 l -0.1095,0.1639 -0.0755,0.1821 v 0 l -0.0384,0.1933 h -0.539 l -0.0384,-0.1933 -0.0755,-0.1821 -0.1095,-0.1639 -0.1393,-0.1393 -0.1639,-0.1095 v 0 0 l -0.1821,-0.0755 -0.1933,-0.0384 v 0 h -0.197 v 0 l -0.1933,0.0384 v 0 l -0.1821,0.0755 -0.1639,0.1095 v 0 l -0.1393,0.1393 v 0 l -0.1095,0.1639 -0.0755,0.1821 v 0 l -0.0384,0.1933 h -0.539 l -0.0384,-0.1933 -0.0755,-0.1821 -0.1095,-0.1639 -0.1393,-0.1393 -0.1639,-0.1095 v 0 0 l -0.1821,-0.0755 -0.1933,-0.0384 v 0 h -0.197 v 0 l -0.1933,0.0384 v 0 l -0.1821,0.0755 -0.1639,0.1095 v 0 l -0.1393,0.1393 v 0 l -0.1095,0.1639 -0.0755,0.1821 v 0 l -0.0384,0.1933 h -0.539 l -0.0384,-0.1933 -0.0755,-0.1821 -0.1095,-0.1639 -0.1393,-0.1393 -0.1639,-0.1095 v 0 0 l -0.1821,-0.0755 -0.1933,-0.0384 v 0 h -0.197 v 0 l -0.1933,0.0384 v 0 l -0.1821,0.0755 -0.1639,0.1095 v 0 l -0.1393,0.1393 v 0 l -0.1095,0.1639 -0.0755,0.1821 v 0 l -0.0384,0.1933 h -3.2408 l -0.0555,-0.0292 -0.1534,-0.0378 v 0 h -0.158 v 0 l -0.1534,0.0378 -0.1398,0.0734 -0.1183,0.1048 -0.0897,0.13 -0.056,0.1477 v 0 l -0.0191,0.1568 H 139.82 l -0.006,-0.0502 -0.013,-0.1066 v 0 l -0.056,-0.1477 -0.0897,-0.13 v 0 l -0.1183,-0.1048 v 0 l -0.0843,-0.0442 -0.0555,-0.0292 -0.1534,-0.0378 v 0 h -0.158 v 0 l -0.1534,0.0378 -0.1398,0.0734 -0.1183,0.1048 -0.0897,0.13 -0.056,0.1477 v 0 l -0.0191,0.1568 h -1.8856 l 0.1585,-0.136 0.2756,-0.29 0.245,-0.3164 0.2116,-0.3396 0.1762,-0.3592 0.139,-0.3753 0.1003,-0.3873 0.0606,-0.3955 0.0202,-0.3996 -0.0202,-0.3997 -0.0606,-0.3955 -0.1003,-0.3873 v 0 0 0 l -0.139,-0.3752 v -1e-4 0 l -0.1762,-0.3592 -0.1637,-0.2626 h 33.3527 v 0.197 l 0.0384,0.1933 v 0 l 0.0755,0.1821 v 0 l 0.1095,0.1639 0.1393,0.1393 0.1639,0.1095 0.1821,0.0755 0.1933,0.0384 v 0 h 0.197 v 0 l 0.1933,-0.0384 0.1821,-0.0755 0.1639,-0.1095 0.1393,-0.1393 0.1095,-0.1639 0.0755,-0.1821 0.0384,-0.1933 v -0.197 0 h 0.279 v 0.197 l 0.0385,0.1933 v 0 l 0.0754,0.1821 v 0 l 0.1095,0.1639 0.1393,0.1393 0.1639,0.1095 0.1821,0.0755 0.1933,0.0384 v 0 h 0.197 v 0 l 0.1933,-0.0384 0.1821,-0.0755 0.1639,-0.1095 0.1393,-0.1393 0.1095,-0.1639 0.0755,-0.1821 0.0384,-0.1933 v -0.197 0 h 0.279 v 0.197 l 0.0384,0.1933 v 0 l 0.0755,0.1821 v 0 l 0.1095,0.1639 0.1393,0.1393 0.1639,0.1095 0.1821,0.0755 0.1933,0.0384 v 0 h 0.197 v 0 l 0.1933,-0.0384 0.1821,-0.0755 0.1639,-0.1095 0.1393,-0.1393 0.1095,-0.1639 0.0755,-0.1821 0.0384,-0.1933 v -0.197 l -0.0384,-0.1933 -0.0755,-0.1821 -0.1095,-0.1639 -0.1393,-0.1393 -0.1639,-0.1095 v 0 0 l -0.1821,-0.0755 -0.1933,-0.0384 v 0 h -0.197 v 0 l -0.1933,0.0384 v 0 l -0.1821,0.0755 -0.1639,0.1095 v 0 l -0.1393,0.1393 v 0 l -0.1095,0.1639 -0.0755,0.1821 v 0 l -0.0384,0.1933 h -0.279 l -0.0384,-0.1933 -0.0755,-0.1821 -0.1095,-0.1639 -0.1393,-0.1393 -0.1639,-0.1095 v 0 0 l -0.1821,-0.0755 -0.1933,-0.0384 v 0 h -0.197 v 0 l -0.1933,0.0384 v 0 l -0.1821,0.0755 -0.1639,0.1095 v 0 l -0.1393,0.1393 v 0 l -0.1095,0.1639 -0.0754,0.1821 v 0 l -0.0385,0.1933 h -0.279 l -0.0384,-0.1933 -0.0755,-0.1821 -0.1095,-0.1639 -0.1393,-0.1393 -0.1639,-0.1095 v 0 0 l -0.1821,-0.0755 -0.1933,-0.0384 v 0 h -0.197 v 0 l -0.1933,0.0384 v 0 l -0.1821,0.0755 -0.1639,0.1095 v 0 l -0.1393,0.1393 v 0 l -0.1095,0.1639 -0.0755,0.1821 v 0 l -0.0384,0.1933 h -33.3527 l -0.0479,-0.077 -0.245,-0.3164 -0.2756,-0.29 -0.1362,-0.1169 -0.1674,-0.1437 v 0 l -0.1462,-0.1017 -0.037,-0.0488 -0.001,-0.0612 0.035,-0.0502 0.0577,-0.0201 h 0.002 41.175 0.0627 z"
       id="path77" />
  </g>
  <g
     style="fill:none;stroke:#d0d2cd;stroke-width:0.05;stroke-linecap:round;stroke-linejoin:round;stroke-opacity:1"
     id="g85"
     transform="translate(-130.145,-92.765)">
    <path
       d="m 180.17,95.33 v 37.42"
       id="path78" />
    <path
       d="m 132.71,92.79 a 2.54,2.54 0 0 0 -2.54,2.54"
       id="path79" />
    <path
       d="m 180.17,95.33 a 2.54,2.54 0 0 0 -2.54,-2.54"
       id="path80" />
    <path
       d="M 130.17,132.75 V 95.33"
       id="path81" />
    <path
       d="m 130.17,132.75 a 2.54,2.54 0 0 0 2.54,2.54"
       id="path82" />
    <path
       d="m 132.71,92.79 h 44.92"
       id="path83" />
    <path
       d="m 177.63,135.29 a 2.54,2.54 0 0 0 2.54,-2.54"
       id="path84" />
    <path
       d="M 177.63,135.29 H 132.71"
       id="path85" />
  </g>
  <metadata
     id="metadata85">
    <rdf:RDF>
      <cc:Work
         rdf:about="">
        <dc:title>SVG Image created as 3458A Ref A9 Clone-In1_Cu.svg date 2025/01/21 00:58:14 </dc:title>
      </cc:Work>
    </rdf:RDF>
  </metadata>
</svg>
