<?xml version="1.0" standalone="no"?>
 <!DOCTYPE svg PUBLIC "-//W3C//DTD SVG 1.1//EN" 
 "http://www.w3.org/Graphics/SVG/1.1/DTD/svg11.dtd"> 
<svg
  xmlns:svg="http://www.w3.org/2000/svg"
  xmlns="http://www.w3.org/2000/svg"
  xmlns:xlink="http://www.w3.org/1999/xlink"
  version="1.1"
  width="297.0022mm" height="210.0072mm" viewBox="0.0000 0.0000 297.0022 210.0072">
<title>SVG Image created as 3458A Ref A9 Clone-In1_Cu.svg date 2025/01/21 00:58:14 </title>
  <desc>Image generated by PCBNEW </desc>
<g style="fill:#000000; fill-opacity:1.0000;stroke:#000000; stroke-opacity:1.0000;
stroke-linecap:round; stroke-linejoin:round;"
 transform="translate(0 0) scale(1 1)">
</g>
<g style="fill:#7FC87F; fill-opacity:1.0000; stroke:none;">
<circle cx="169.6230" cy="127.4400" r="0.7500" /> 
</g>
<g style="fill:#7FC87F; fill-opacity:1.0000; stroke:none;">
<circle cx="158.2400" cy="128.9400" r="0.8500" /> 
</g>
<g style="fill:#7FC87F; fill-opacity:1.0000; stroke:none;">
<circle cx="135.0010" cy="116.8908" r="0.7500" /> 
</g>
<g style="fill:#7FC87F; fill-opacity:1.0000; stroke:none;">
<circle cx="143.7132" cy="131.4450" r="0.8500" /> 
</g>
<g style="fill:#7FC87F; fill-opacity:1.0000; stroke:none;">
<circle cx="144.1450" cy="118.4910" r="0.8500" /> 
</g>
<g style="fill:#ECECEC; fill-opacity:1.0000; stroke:none;">
<circle cx="142.6990" cy="108.9660" r="0.3000" /> 
</g>
<g style="fill:#ECECEC; fill-opacity:1.0000; stroke:none;">
<circle cx="148.4630" cy="117.9830" r="0.3000" /> 
</g>
<g style="fill:#ECECEC; fill-opacity:1.0000; stroke:none;">
<circle cx="142.6990" cy="109.4740" r="0.3000" /> 
</g>
<g style="fill:#ECECEC; fill-opacity:1.0000; stroke:none;">
<circle cx="142.6990" cy="108.4580" r="0.3000" /> 
</g>
<g style="fill:#ECECEC; fill-opacity:1.0000; stroke:none;">
<circle cx="144.6530" cy="113.6650" r="0.3000" /> 
</g>
<g style="fill:#ECECEC; fill-opacity:1.0000; stroke:none;">
<circle cx="132.5880" cy="127.6350" r="0.3000" /> 
</g>
<g style="fill:#ECECEC; fill-opacity:1.0000; stroke:none;">
<circle cx="149.4790" cy="117.9830" r="0.3000" /> 
</g>
<g style="fill:#ECECEC; fill-opacity:1.0000; stroke:none;">
<circle cx="132.5880" cy="127.1270" r="0.3000" /> 
</g>
<g style="fill:#ECECEC; fill-opacity:1.0000; stroke:none;">
<circle cx="144.1450" cy="113.6650" r="0.3000" /> 
</g>
<g style="fill:#ECECEC; fill-opacity:1.0000; stroke:none;">
<circle cx="143.6370" cy="113.6650" r="0.3000" /> 
</g>
<g style="fill:#ECECEC; fill-opacity:1.0000; stroke:none;">
<circle cx="132.5880" cy="126.6190" r="0.3000" /> 
</g>
<g style="fill:#ECECEC; fill-opacity:1.0000; stroke:none;">
<circle cx="148.9710" cy="117.9830" r="0.3000" /> 
</g>
<g style="fill:#ECECEC; fill-opacity:1.0000; stroke:none;">
<circle cx="167.6726" cy="129.2309" r="0.3000" /> 
</g>
<g style="fill:#ECECEC; fill-opacity:1.0000; stroke:none;">
<circle cx="168.6604" cy="129.5362" r="0.3000" /> 
</g>
<g style="fill:#ECECEC; fill-opacity:1.0000; stroke:none;">
<circle cx="173.2633" cy="126.8366" r="0.3000" /> 
</g>
<g style="fill:#ECECEC; fill-opacity:1.0000; stroke:none;">
<circle cx="170.6880" cy="124.5200" r="0.3000" /> 
</g>
<g style="fill:#ECECEC; fill-opacity:1.0000; stroke:none;">
<circle cx="168.2164" cy="124.9416" r="0.3000" /> 
</g>
<g style="fill:#ECECEC; fill-opacity:1.0000; stroke:none;">
<circle cx="167.3528" cy="120.8716" r="0.3000" /> 
</g>
<g style="fill:#ECECEC; fill-opacity:1.0000; stroke:none;">
<circle cx="170.5996" cy="120.3300" r="0.3000" /> 
</g>
<g style="fill:#ECECEC; fill-opacity:1.0000; stroke:none;">
<circle cx="168.6604" cy="128.7100" r="0.3000" /> 
</g>
<g style="fill:#ECECEC; fill-opacity:1.0000; stroke:none;">
<circle cx="165.9816" cy="126.7972" r="0.3000" /> 
</g>
<g style="fill:#ECECEC; fill-opacity:1.0000; stroke:none;">
<circle cx="170.5610" cy="128.7272" r="0.3000" /> 
</g>
<g style="fill:#ECECEC; fill-opacity:1.0000; stroke:none;">
<circle cx="173.1768" cy="123.0630" r="0.3000" /> 
</g>
<g style="fill:#ECECEC; fill-opacity:1.0000; stroke:none;">
<circle cx="164.6100" cy="125.4510" r="0.3000" /> 
</g>
<g style="fill:#ECECEC; fill-opacity:1.0000; stroke:none;">
<circle cx="165.4228" cy="125.4510" r="0.3000" /> 
</g>
<g style="fill:#ECECEC; fill-opacity:1.0000; stroke:none;">
<circle cx="170.5610" cy="129.5400" r="0.3000" /> 
</g>
<g style="fill:#ECECEC; fill-opacity:1.0000; stroke:none;">
<circle cx="168.2164" cy="124.1034" r="0.3000" /> 
</g>
<g style="fill:#ECECEC; fill-opacity:1.0000; stroke:none;">
<circle cx="173.8372" cy="123.5890" r="0.3000" /> 
</g>
<g style="fill:#ECECEC; fill-opacity:1.0000; stroke:none;">
<circle cx="164.6138" cy="123.5504" r="0.3000" /> 
</g>
<g style="fill:#ECECEC; fill-opacity:1.0000; stroke:none;">
<circle cx="164.9148" cy="126.4670" r="0.3000" /> 
</g>
<g style="fill:#ECECEC; fill-opacity:1.0000; stroke:none;">
<circle cx="173.1682" cy="125.9977" r="0.3000" /> 
</g>
<g style="fill:#ECECEC; fill-opacity:1.0000; stroke:none;">
<circle cx="174.6462" cy="125.4896" r="0.3000" /> 
</g>
<g style="fill:#ECECEC; fill-opacity:1.0000; stroke:none;">
<circle cx="168.1730" cy="120.9732" r="0.3000" /> 
</g>
<g style="fill:#ECECEC; fill-opacity:1.0000; stroke:none;">
<circle cx="171.9467" cy="120.8867" r="0.3000" /> 
</g>
<g style="fill:#ECECEC; fill-opacity:1.0000; stroke:none;">
<circle cx="174.6500" cy="123.5890" r="0.3000" /> 
</g>
<g style="fill:#ECECEC; fill-opacity:1.0000; stroke:none;">
<circle cx="166.7686" cy="120.2874" r="0.3000" /> 
</g>
<g style="fill:#ECECEC; fill-opacity:1.0000; stroke:none;">
<circle cx="171.5875" cy="119.8091" r="0.3000" /> 
</g>
<g style="fill:#ECECEC; fill-opacity:1.0000; stroke:none;">
<circle cx="171.1077" cy="120.9818" r="0.3000" /> 
</g>
<g style="fill:#ECECEC; fill-opacity:1.0000; stroke:none;">
<circle cx="165.4220" cy="121.6286" r="0.3000" /> 
</g>
<g style="fill:#ECECEC; fill-opacity:1.0000; stroke:none;">
<circle cx="165.4400" cy="123.5504" r="0.3000" /> 
</g>
<g style="fill:#ECECEC; fill-opacity:1.0000; stroke:none;">
<circle cx="171.9072" cy="128.1684" r="0.3000" /> 
</g>
<g style="fill:#ECECEC; fill-opacity:1.0000; stroke:none;">
<circle cx="166.0832" cy="125.9770" r="0.3000" /> 
</g>
<g style="fill:#ECECEC; fill-opacity:1.0000; stroke:none;">
<circle cx="167.6830" cy="119.8048" r="0.3000" /> 
</g>
<g style="fill:#ECECEC; fill-opacity:1.0000; stroke:none;">
<circle cx="170.1800" cy="124.5200" r="0.3000" /> 
</g>
<g style="fill:#ECECEC; fill-opacity:1.0000; stroke:none;">
<circle cx="173.2784" cy="122.2428" r="0.3000" /> 
</g>
<g style="fill:#ECECEC; fill-opacity:1.0000; stroke:none;">
<circle cx="173.8200" cy="125.4896" r="0.3000" /> 
</g>
<g style="fill:#ECECEC; fill-opacity:1.0000; stroke:none;">
<circle cx="172.5214" cy="120.3120" r="0.3000" /> 
</g>
<g style="fill:#ECECEC; fill-opacity:1.0000; stroke:none;">
<circle cx="171.0436" cy="124.9426" r="0.3000" /> 
</g>
<g style="fill:#ECECEC; fill-opacity:1.0000; stroke:none;">
<circle cx="168.6990" cy="120.3128" r="0.3000" /> 
</g>
<g style="fill:#ECECEC; fill-opacity:1.0000; stroke:none;">
<circle cx="171.0436" cy="124.1044" r="0.3000" /> 
</g>
<g style="fill:#ECECEC; fill-opacity:1.0000; stroke:none;">
<circle cx="174.3409" cy="126.4774" r="0.3000" /> 
</g>
<g style="fill:#ECECEC; fill-opacity:1.0000; stroke:none;">
<circle cx="166.0918" cy="123.0423" r="0.3000" /> 
</g>
<g style="fill:#ECECEC; fill-opacity:1.0000; stroke:none;">
<circle cx="164.9191" cy="122.5625" r="0.3000" /> 
</g>
<g style="fill:#ECECEC; fill-opacity:1.0000; stroke:none;">
<circle cx="173.8626" cy="121.6586" r="0.3000" /> 
</g>
<g style="fill:#ECECEC; fill-opacity:1.0000; stroke:none;">
<circle cx="174.3452" cy="122.5730" r="0.3000" /> 
</g>
<g style="fill:#ECECEC; fill-opacity:1.0000; stroke:none;">
<circle cx="166.7386" cy="128.7280" r="0.3000" /> 
</g>
<g style="fill:#ECECEC; fill-opacity:1.0000; stroke:none;">
<circle cx="167.3134" cy="128.1532" r="0.3000" /> 
</g>
<g style="fill:#ECECEC; fill-opacity:1.0000; stroke:none;">
<circle cx="165.9968" cy="122.2033" r="0.3000" /> 
</g>
<g style="fill:#ECECEC; fill-opacity:1.0000; stroke:none;">
<circle cx="172.4914" cy="128.7526" r="0.3000" /> 
</g>
<g style="fill:#ECECEC; fill-opacity:1.0000; stroke:none;">
<circle cx="169.6300" cy="124.5200" r="0.3000" /> 
</g>
<g style="fill:#ECECEC; fill-opacity:1.0000; stroke:none;">
<circle cx="165.3974" cy="127.3814" r="0.3000" /> 
</g>
<g style="fill:#ECECEC; fill-opacity:1.0000; stroke:none;">
<circle cx="173.8380" cy="127.4114" r="0.3000" /> 
</g>
<g style="fill:#ECECEC; fill-opacity:1.0000; stroke:none;">
<circle cx="171.5770" cy="129.2352" r="0.3000" /> 
</g>
<g style="fill:#ECECEC; fill-opacity:1.0000; stroke:none;">
<circle cx="170.5996" cy="119.5038" r="0.3000" /> 
</g>
<g style="fill:#ECECEC; fill-opacity:1.0000; stroke:none;">
<circle cx="168.5720" cy="124.5190" r="0.3000" /> 
</g>
<g style="fill:#ECECEC; fill-opacity:1.0000; stroke:none;">
<circle cx="169.0800" cy="124.5190" r="0.3000" /> 
</g>
<g style="fill:#ECECEC; fill-opacity:1.0000; stroke:none;">
<circle cx="171.0870" cy="128.0668" r="0.3000" /> 
</g>
<g style="fill:#ECECEC; fill-opacity:1.0000; stroke:none;">
<circle cx="168.6990" cy="119.5000" r="0.3000" /> 
</g>
<g style="fill:#ECECEC; fill-opacity:1.0000; stroke:none;">
<circle cx="168.1523" cy="128.0582" r="0.3000" /> 
</g>
<g style="fill:none; 
stroke:#7FC87F; stroke-width:0.2000; stroke-opacity:1; 
stroke-linecap:round; stroke-linejoin:round;">
<path d="M169.6230 127.4400
L169.6230 133.3010
" />
<path style="fill:#7FC87F; fill-opacity:1.0000; stroke:none;fill-rule:evenodd;"
d="M 170.0339,119.0813
170.0413,119.0818
170.4392,119.1267
170.4465,119.1278
170.5426,119.1460
170.8400,119.2022
170.8472,119.2039
171.2340,119.3075
171.2411,119.3097
171.6190,119.4420
171.6259,119.4447
171.9930,119.6048
171.9996,119.6080
172.3537,119.7951
172.3600,119.7988
172.6991,120.0119
172.7052,120.0160
173.0274,120.2538
173.0332,120.2584
173.3367,120.5196
173.3422,120.5247
173.6253,120.8078
173.6304,120.8133
173.8916,121.1168
173.8962,121.1226
174.1340,121.4448
174.1381,121.4509
174.2292,121.5958
174.2976,121.7047
174.3512,121.7899
174.3549,121.7963
174.5420,122.1504
174.5452,122.1570
174.7053,122.5241
174.7081,122.5310
174.8403,122.9089
174.8425,122.9160
174.9461,123.3028
174.9478,123.3100
175.0222,123.7035
175.0233,123.7108
175.0682,124.1087
175.0687,124.1161
175.0837,124.5163
175.0837,124.5237
175.0687,124.9238
175.0682,124.9312
175.0233,125.3292
175.0222,125.3365
174.9478,125.7299
174.9461,125.7371
174.8425,126.1239
174.8403,126.1310
174.7081,126.5090
174.7053,126.5159
174.5452,126.8829
174.5420,126.8896
174.3549,127.2436
174.3512,127.2500
174.1381,127.5891
174.1340,127.5952
173.8962,127.9174
173.8916,127.9232
173.6304,128.2267
173.6253,128.2321
173.3422,128.5153
173.3367,128.5203
173.0332,128.7815
173.0274,128.7862
172.7052,129.0239
172.6991,129.0281
172.3601,129.2412
172.3537,129.2449
171.9996,129.4320
171.9930,129.4352
171.6259,129.5953
171.6190,129.5980
171.2411,129.7303
171.2340,129.7325
170.8472,129.8361
170.8400,129.8377
170.4465,129.9122
170.4392,129.9133
170.2336,129.9365
170.1737,129.9242
170.1324,129.8790
170.1235,129.8381
170.1235,128.5384
170.1424,128.4802
170.1704,128.4542
170.3193,128.3620
170.3193,128.3620
170.3193,128.3620
170.4769,128.2184
170.6054,128.0482
170.7004,127.8574
170.7588,127.6523
170.7784,127.4400
170.7588,127.2277
170.7004,127.0226
170.6054,126.8317
170.4769,126.6616
170.4226,126.6121
170.3193,126.5179
170.3193,126.5179
170.3078,126.5108
170.9373,126.5108
170.9373,126.6587
170.9661,126.8037
171.0227,126.9402
171.0227,126.9402
171.1048,127.0632
171.2094,127.1677
171.3323,127.2498
171.4689,127.3064
171.6139,127.3352
171.6139,127.3352
171.7617,127.3352
171.7617,127.3352
171.9067,127.3064
172.0433,127.2498
172.1662,127.1677
172.2707,127.0632
172.3529,126.9402
172.4094,126.8037
172.4383,126.6587
172.4383,126.5108
172.4094,126.3658
172.3529,126.2292
172.2707,126.1063
172.1662,126.0018
172.0433,125.9197
172.0433,125.9197
171.9067,125.8631
171.7617,125.8342
171.6139,125.8342
171.6139,125.8342
171.4689,125.8631
171.3323,125.9197
171.2094,126.0018
171.1048,126.1063
171.0227,126.2292
170.9661,126.3658
170.9373,126.5108
170.3078,126.5108
170.1380,126.4057
170.1380,126.4057
170.0351,126.3658
169.9392,126.3287
169.9392,126.3287
169.9392,126.3287
169.7296,126.2895
169.5164,126.2895
169.3068,126.3287
169.1080,126.4057
169.1080,126.4057
168.9267,126.5179
168.9267,126.5179
168.7692,126.6616
168.7691,126.6616
168.7691,126.6616
168.7691,126.6616
168.6407,126.8317
168.6406,126.8317
168.5456,127.0226
168.4873,127.2277
168.4676,127.4400
168.4814,127.5891
168.4873,127.6523
168.5456,127.8574
168.6407,128.0482
168.7691,128.2184
168.7692,128.2184
168.9267,128.3620
168.9267,128.3620
169.0756,128.4542
169.1152,128.5010
169.1225,128.5384
169.1225,129.8365
169.1036,129.8947
169.0541,129.9307
169.0124,129.9349
168.8209,129.9133
168.8135,129.9122
168.4201,129.8377
168.4129,129.8361
168.0261,129.7325
168.0190,129.7303
167.6410,129.5980
167.6341,129.5953
167.2671,129.4352
167.2604,129.4320
166.9064,129.2448
166.9000,129.2412
166.7059,129.1192
166.5609,129.0281
166.5548,129.0239
166.2326,128.7862
166.2268,128.7815
165.9233,128.5203
165.9179,128.5153
165.6347,128.2321
165.6297,128.2267
165.3685,127.9232
165.3638,127.9174
165.1261,127.5952
165.1219,127.5891
164.9088,127.2500
164.9052,127.2436
164.7180,126.8896
164.7148,126.8829
164.5547,126.5159
164.5527,126.5108
166.8078,126.5108
166.8078,126.6587
166.8366,126.8037
166.8932,126.9402
166.8932,126.9402
166.9753,127.0632
167.0798,127.1677
167.2028,127.2498
167.3394,127.3064
167.4843,127.3352
167.4843,127.3352
167.6322,127.3352
167.6322,127.3352
167.7772,127.3064
167.9138,127.2498
168.0367,127.1677
168.1412,127.0632
168.2233,126.9402
168.2799,126.8037
168.3088,126.6587
168.3088,126.5108
168.2799,126.3658
168.2233,126.2292
168.1412,126.1063
168.0367,126.0018
167.9138,125.9197
167.9138,125.9197
167.7772,125.8631
167.6322,125.8342
167.4843,125.8342
167.4843,125.8342
167.3394,125.8631
167.2028,125.9197
167.0799,126.0018
166.9753,126.1063
166.8932,126.2292
166.8366,126.3658
166.8078,126.5108
164.5527,126.5108
164.5520,126.5090
164.4541,126.2292
164.4197,126.1310
164.4175,126.1239
164.3628,125.9197
164.3139,125.7371
164.3123,125.7299
164.2378,125.3365
164.2367,125.3292
164.2112,125.1029
164.1919,124.9312
164.1913,124.9238
164.1763,124.5237
164.1763,124.5163
164.1790,124.4461
165.9525,124.4461
165.9525,124.5939
165.9814,124.7389
166.0379,124.8755
166.1201,124.9984
166.2246,125.1029
166.3475,125.1851
166.4841,125.2416
166.6291,125.2705
166.6291,125.2705
166.7769,125.2705
166.7769,125.2705
166.9219,125.2416
167.0585,125.1851
167.1814,125.1029
167.2860,124.9984
167.3681,124.8755
167.4247,124.7389
167.4535,124.5939
167.4535,124.4461
171.7925,124.4461
171.7925,124.5939
171.8214,124.7389
171.8779,124.8755
171.9601,124.9984
172.0646,125.1029
172.1875,125.1851
172.3241,125.2416
172.4691,125.2705
172.4691,125.2705
172.6169,125.2705
172.6169,125.2705
172.7619,125.2416
172.8985,125.1851
173.0214,125.1029
173.1260,124.9984
173.2081,124.8755
173.2647,124.7389
173.2935,124.5939
173.2935,124.4461
173.2647,124.3011
173.2081,124.1645
173.1260,124.0416
173.0214,123.9370
172.8985,123.8549
172.8985,123.8549
172.7619,123.7983
172.6169,123.7695
172.4691,123.7695
172.4691,123.7695
172.3241,123.7983
172.1875,123.8549
172.0646,123.9370
171.9601,124.0416
171.8779,124.1645
171.8214,124.3011
171.8214,124.3011
171.7925,124.4461
167.4535,124.4461
167.4247,124.3011
167.3681,124.1645
167.2860,124.0416
167.1814,123.9370
167.0585,123.8549
167.0585,123.8549
166.9219,123.7983
166.7769,123.7695
166.6291,123.7695
166.6291,123.7695
166.4841,123.7983
166.3475,123.8549
166.2246,123.9370
166.1201,124.0416
166.0379,124.1645
165.9814,124.3011
165.9814,124.3011
165.9525,124.4461
164.1790,124.4461
164.1913,124.1161
164.1919,124.1088
164.2367,123.7108
164.2378,123.7035
164.3123,123.3100
164.3139,123.3028
164.4175,122.9160
164.4197,122.9089
164.4541,122.8107
164.5520,122.5310
164.5547,122.5241
164.6170,122.3813
166.8078,122.3813
166.8078,122.3813
166.8078,122.5292
166.8366,122.6741
166.8932,122.8107
166.9753,122.9337
167.0798,123.0382
167.2028,123.1203
167.3394,123.1769
167.4843,123.2057
167.4843,123.2057
167.6322,123.2057
167.6322,123.2057
167.7772,123.1769
167.9138,123.1203
168.0367,123.0382
168.1412,122.9337
168.2233,122.8107
168.2799,122.6741
168.3088,122.5292
168.3088,122.3813
168.3088,122.3813
170.9373,122.3813
170.9373,122.3813
170.9373,122.5292
170.9661,122.6741
171.0227,122.8107
171.1048,122.9337
171.2094,123.0382
171.3323,123.1203
171.4689,123.1769
171.6139,123.2057
171.6139,123.2057
171.7617,123.2057
171.7617,123.2057
171.9067,123.1769
172.0433,123.1203
172.1662,123.0382
172.2707,122.9337
172.3529,122.8107
172.4094,122.6741
172.4383,122.5292
172.4383,122.3813
172.4094,122.2363
172.3529,122.0997
172.2707,121.9768
172.1662,121.8723
172.0433,121.7901
172.0428,121.7899
171.9067,121.7336
171.7617,121.7047
171.6139,121.7047
171.6139,121.7047
171.4689,121.7336
171.3323,121.7901
171.2094,121.8723
171.1048,121.9768
171.0227,122.0997
170.9661,122.2363
170.9373,122.3813
168.3088,122.3813
168.2799,122.2363
168.2233,122.0997
168.1412,121.9768
168.0367,121.8723
167.9138,121.7901
167.9133,121.7899
167.7772,121.7336
167.6322,121.7047
167.4843,121.7047
167.4843,121.7047
167.3394,121.7336
167.2028,121.7901
167.0799,121.8723
166.9753,121.9768
166.8932,122.0997
166.8366,122.2363
166.8078,122.3813
164.6170,122.3813
164.7148,122.1570
164.7180,122.1504
164.9052,121.7963
164.9088,121.7900
165.0746,121.5261
168.8725,121.5261
168.8725,121.6739
168.8962,121.7931
168.9014,121.8189
168.9579,121.9555
169.0401,122.0784
169.1446,122.1829
169.2675,122.2651
169.4041,122.3216
169.5491,122.3505
169.5491,122.3505
169.6969,122.3505
169.6969,122.3505
169.8419,122.3216
169.9785,122.2651
170.1014,122.1829
170.2060,122.0784
170.2881,121.9555
170.3447,121.8189
170.3735,121.6739
170.3735,121.5261
170.3447,121.3811
170.2881,121.2445
170.2060,121.1216
170.1014,121.0170
169.9785,120.9349
169.9785,120.9349
169.8419,120.8783
169.6969,120.8495
169.5491,120.8495
169.5491,120.8495
169.4041,120.8783
169.2675,120.9349
169.1446,121.0170
169.0401,121.1216
168.9579,121.2445
168.9014,121.3811
168.8725,121.5261
165.0746,121.5261
165.1219,121.4509
165.1261,121.4448
165.3639,121.1226
165.3684,121.1168
165.6297,120.8132
165.6347,120.8078
165.9179,120.5247
165.9233,120.5197
166.2268,120.2584
166.2326,120.2538
166.5548,120.0160
166.5609,120.0119
166.9000,119.7988
166.9063,119.7951
167.2604,119.6080
167.2670,119.6048
167.6341,119.4446
167.6410,119.4420
168.0190,119.3097
168.0260,119.3075
168.4129,119.2039
168.4201,119.2022
168.8135,119.1278
168.8208,119.1267
169.2188,119.0818
169.2261,119.0813
169.6263,119.0663
169.6337,119.0663
Z" /> 
<path style="fill:#7FC87F; fill-opacity:1.0000; stroke:none;fill-rule:evenodd;"
d="M 177.6332,93.2907
177.8897,93.3075
177.9026,93.3092
178.1515,93.3587
178.1640,93.3621
178.4043,93.4437
178.4163,93.4486
178.6439,93.5609
178.6551,93.5673
178.8662,93.7084
178.8764,93.7162
179.0673,93.8836
179.0764,93.8927
179.2438,94.0836
179.2516,94.0938
179.3927,94.3049
179.3991,94.3161
179.5114,94.5437
179.5163,94.5557
179.5979,94.7960
179.6013,94.8085
179.6508,95.0574
179.6525,95.0703
179.6693,95.3268
179.6695,95.3332
179.6695,132.7468
179.6693,132.7532
179.6525,133.0097
179.6508,133.0226
179.6013,133.2715
179.5979,133.2840
179.5163,133.5243
179.5114,133.5363
179.3991,133.7639
179.3927,133.7751
179.2516,133.9862
179.2438,133.9964
179.0764,134.1873
179.0673,134.1964
178.8764,134.3638
178.8662,134.3716
178.6551,134.5127
178.6439,134.5191
178.4163,134.6314
178.4043,134.6363
178.1640,134.7179
178.1515,134.7213
177.9026,134.7708
177.8897,134.7725
177.6332,134.7893
177.6268,134.7895
132.7132,134.7895
132.7068,134.7893
132.4503,134.7725
132.4374,134.7708
132.1885,134.7213
132.1760,134.7179
131.9357,134.6363
131.9237,134.6314
131.6961,134.5191
131.6849,134.5127
131.4738,134.3716
131.4636,134.3638
131.2727,134.1964
131.2636,134.1873
131.0962,133.9964
131.0884,133.9862
130.9473,133.7751
130.9409,133.7639
130.8286,133.5363
130.8237,133.5243
130.7421,133.2840
130.7387,133.2715
130.7347,133.2511
130.6892,133.0226
130.6875,133.0097
130.6857,132.9818
130.6707,132.7532
130.6705,132.7468
130.6705,128.8065
142.7127,128.8065
142.7127,129.0035
142.7511,129.1968
142.7511,129.1968
142.8266,129.3789
142.8629,129.4333
142.9361,129.5428
143.0754,129.6821
143.2393,129.7916
143.4214,129.8671
143.6147,129.9055
143.6147,129.9055
143.8117,129.9055
143.8117,129.9055
144.0050,129.8671
144.1871,129.7916
144.3510,129.6821
144.4903,129.5428
144.5998,129.3789
144.6753,129.1968
144.7137,129.0035
144.7137,128.8415
147.0795,128.8415
147.0795,129.0385
147.1179,129.2318
147.1179,129.2318
147.1934,129.4139
147.1934,129.4139
147.3029,129.5778
147.4422,129.7171
147.6061,129.8266
147.7882,129.9021
147.9815,129.9405
147.9815,129.9405
148.1785,129.9405
148.1785,129.9405
148.3718,129.9021
148.5539,129.8266
148.7178,129.7171
148.8571,129.5778
148.9666,129.4139
149.0421,129.2318
149.0805,129.0385
149.0805,128.8415
149.0805,128.8415
149.6195,128.8415
149.6195,129.0385
149.6579,129.2318
149.6579,129.2318
149.7334,129.4139
149.7334,129.4139
149.8429,129.5778
149.9822,129.7171
150.1461,129.8266
150.3282,129.9021
150.5215,129.9405
150.5215,129.9405
150.7185,129.9405
150.7185,129.9405
150.9118,129.9021
151.0939,129.8266
151.2578,129.7171
151.3971,129.5778
151.5066,129.4139
151.5821,129.2318
151.6205,129.0385
151.6205,128.8415
151.6205,128.8415
152.1595,128.8415
152.1595,129.0385
152.1979,129.2318
152.1979,129.2318
152.2734,129.4139
152.2734,129.4139
152.3829,129.5778
152.5222,129.7171
152.6861,129.8266
152.8682,129.9021
153.0615,129.9405
153.0615,129.9405
153.2585,129.9405
153.2585,129.9405
153.4518,129.9021
153.5376,129.8665
153.5427,129.8647
153.5467,129.8631
153.5516,129.8607
153.6339,129.8266
153.7080,129.7771
153.7164,129.7721
153.7176,129.7715
153.7186,129.7706
153.7264,129.7648
153.7978,129.7171
153.8585,129.6565
153.8657,129.6499
153.8691,129.6471
153.8719,129.6437
153.8785,129.6365
153.9371,129.5778
153.9832,129.5088
153.9890,129.5010
153.9935,129.4956
153.9968,129.4894
154.0018,129.4811
154.0466,129.4139
154.0675,129.3635
154.0775,129.3393
154.0817,129.3305
154.0859,129.3227
154.0885,129.3142
154.0917,129.3050
154.1221,129.2318
154.1375,129.1541
154.1399,129.1447
154.1428,129.1351
154.1438,129.1251
154.1452,129.1155
154.1605,129.0385
154.1605,128.9601
154.1610,128.9504
154.1620,128.9400
154.1620,128.9400
154.1610,128.9296
154.1605,128.9199
154.1605,128.8415
154.1605,128.8415
154.6995,128.8415
154.6995,129.0385
154.7379,129.2318
154.7379,129.2318
154.8134,129.4139
154.8134,129.4139
154.9229,129.5778
155.0622,129.7171
155.2261,129.8266
155.4082,129.9021
155.6015,129.9405
155.6015,129.9405
155.7985,129.9405
155.7985,129.9405
155.9918,129.9021
156.1739,129.8266
156.3378,129.7171
156.4771,129.5778
156.5866,129.4139
156.6621,129.2318
156.7005,129.0385
156.7005,128.8415
156.6621,128.6482
156.5866,128.4661
156.4771,128.3022
156.3378,128.1629
156.1739,128.0534
156.1739,128.0534
155.9918,127.9779
155.7985,127.9395
155.7985,127.9395
155.6015,127.9395
155.6015,127.9395
155.4082,127.9779
155.4082,127.9779
155.2261,128.0534
155.0622,128.1629
155.0622,128.1629
154.9229,128.3022
154.9229,128.3022
154.8134,128.4661
154.7379,128.6482
154.7379,128.6482
154.6995,128.8415
154.1605,128.8415
154.1605,128.8414
154.1452,128.7645
154.1438,128.7549
154.1428,128.7449
154.1399,128.7353
154.1375,128.7259
154.1221,128.6482
154.0917,128.5750
154.0885,128.5658
154.0859,128.5573
154.0859,128.5573
154.0859,128.5573
154.0817,128.5495
154.0775,128.5407
154.0466,128.4661
154.0466,128.4661
154.0018,128.3989
153.9968,128.3906
153.9935,128.3844
153.9935,128.3844
153.9935,128.3844
153.9890,128.3790
153.9832,128.3712
153.9648,128.3437
153.9371,128.3022
153.9147,128.2798
153.8785,128.2435
153.8719,128.2363
153.8691,128.2329
153.8691,128.2329
153.8691,128.2329
153.8691,128.2329
153.8657,128.2301
153.8585,128.2235
153.7978,128.1629
153.7454,128.1279
153.7264,128.1152
153.7186,128.1094
153.7176,128.1085
153.7176,128.1085
153.7163,128.1079
153.7080,128.1029
153.6339,128.0534
153.6339,128.0534
153.6339,128.0534
153.6339,128.0534
153.5823,128.0320
153.5516,128.0193
153.5467,128.0169
153.5427,128.0153
153.5376,128.0135
153.4518,127.9779
153.2585,127.9395
153.2585,127.9395
153.0615,127.9395
153.0615,127.9395
152.8682,127.9779
152.8682,127.9779
152.6861,128.0534
152.5222,128.1629
152.5222,128.1629
152.3829,128.3022
152.3829,128.3022
152.2734,128.4661
152.1979,128.6482
152.1979,128.6482
152.1595,128.8415
151.6205,128.8415
151.5821,128.6482
151.5066,128.4661
151.3971,128.3022
151.2578,128.1629
151.0939,128.0534
151.0939,128.0534
150.9118,127.9779
150.7185,127.9395
150.7185,127.9395
150.5215,127.9395
150.5215,127.9395
150.3282,127.9779
150.3282,127.9779
150.1461,128.0534
149.9822,128.1629
149.9822,128.1629
149.8429,128.3022
149.8429,128.3022
149.7334,128.4661
149.6579,128.6482
149.6579,128.6482
149.6195,128.8415
149.0805,128.8415
149.0421,128.6482
148.9666,128.4661
148.8571,128.3022
148.7178,128.1629
148.5539,128.0534
148.5539,128.0534
148.3718,127.9779
148.1785,127.9395
148.1785,127.9395
147.9815,127.9395
147.9815,127.9395
147.7882,127.9779
147.7882,127.9779
147.6061,128.0534
147.4422,128.1629
147.4422,128.1629
147.3029,128.3022
147.3029,128.3022
147.1934,128.4661
147.1179,128.6482
147.1179,128.6482
147.0795,128.8415
144.7137,128.8415
144.7137,128.8065
144.6753,128.6132
144.5998,128.4311
144.4903,128.2672
144.3510,128.1279
144.1871,128.0184
144.1871,128.0184
144.1871,128.0184
144.0050,127.9429
143.8117,127.9045
143.8117,127.9045
143.6147,127.9045
143.6147,127.9045
143.4214,127.9429
143.4214,127.9429
143.2393,128.0184
143.0754,128.1279
143.0754,128.1279
142.9361,128.2672
142.9361,128.2672
142.8266,128.4311
142.7511,128.6132
142.7511,128.6132
142.7127,128.8065
130.6705,128.8065
130.6705,125.0394
146.9295,125.0394
146.9295,125.2205
146.9578,125.3994
146.9578,125.3994
147.0138,125.5716
147.0960,125.7330
147.2024,125.8795
147.3305,126.0076
147.4770,126.1140
147.6384,126.1962
147.8106,126.2522
147.8821,126.2635
147.9895,126.2805
147.9895,126.2805
148.1705,126.2805
148.2600,126.2663
148.3494,126.2522
148.5216,126.1962
148.6830,126.1140
148.8295,126.0076
148.9576,125.8795
149.0640,125.7330
149.1462,125.5716
149.2022,125.3994
149.2305,125.2205
149.2305,125.0395
149.2305,125.0394
152.0095,125.0394
152.0095,125.2205
152.0378,125.3994
152.0378,125.3994
152.0938,125.5716
152.1760,125.7330
152.2824,125.8795
152.4105,126.0076
152.5570,126.1140
152.7184,126.1962
152.8906,126.2522
152.9621,126.2635
153.0695,126.2805
153.0695,126.2805
153.2505,126.2805
153.3400,126.2663
153.4294,126.2522
153.6016,126.1962
153.7630,126.1140
153.9095,126.0076
154.0376,125.8795
154.1440,125.7330
154.2262,125.5716
154.2822,125.3994
154.3105,125.2205
154.3105,125.0395
154.3105,125.0394
154.5495,125.0394
154.5495,125.2205
154.5778,125.3994
154.5778,125.3994
154.6338,125.5716
154.7160,125.7330
154.8224,125.8795
154.9505,126.0076
155.0970,126.1140
155.2584,126.1962
155.4306,126.2522
155.5021,126.2635
155.6095,126.2805
155.6095,126.2805
155.7905,126.2805
155.8800,126.2663
155.9694,126.2522
156.1416,126.1962
156.3030,126.1140
156.4495,126.0076
156.5776,125.8795
156.6840,125.7330
156.7662,125.5716
156.8222,125.3994
156.8505,125.2205
156.8505,125.0395
156.8505,125.0394
157.0895,125.0394
157.0895,125.2205
157.1178,125.3994
157.1178,125.3994
157.1738,125.5716
157.2560,125.7330
157.3624,125.8795
157.4905,126.0076
157.6370,126.1140
157.7984,126.1962
157.9706,126.2522
158.0421,126.2635
158.1495,126.2805
158.1495,126.2805
158.3305,126.2805
158.4200,126.2663
158.5094,126.2522
158.6816,126.1962
158.8430,126.1140
158.9895,126.0076
159.1176,125.8795
159.2240,125.7330
159.3062,125.5716
159.3622,125.3994
159.3905,125.2205
159.3905,125.0395
159.3905,125.0394
159.3622,124.8606
159.3622,124.8606
159.3062,124.6884
159.2240,124.5270
159.1782,124.4639
161.0811,124.4639
161.0811,124.5761
161.1008,125.1029
161.1092,125.2148
161.1682,125.7387
161.1849,125.8496
161.2829,126.3676
161.3079,126.4770
161.4443,126.9862
161.4774,127.0934
161.6515,127.5910
161.6515,127.5911
161.6925,127.6955
161.9033,128.1787
161.9281,128.2301
161.9520,128.2798
162.1984,128.7459
162.2545,128.8430
162.4768,129.1968
162.5349,129.2894
162.5981,129.3821
162.5981,129.3821
162.5981,129.3821
162.6916,129.5088
162.9112,129.8063
162.9615,129.8694
162.9812,129.8940
163.3250,130.2936
163.3690,130.3411
163.4013,130.3759
163.7741,130.7487
163.7742,130.7487
163.7742,130.7487
163.8564,130.8250
164.2560,131.1688
164.2560,131.1689
164.2560,131.1689
164.3437,131.2388
164.7679,131.5519
164.8606,131.6151
165.0838,131.7553
165.3070,131.8955
165.3070,131.8956
165.4041,131.9516
165.8702,132.1980
165.9713,132.2467
166.4545,132.4575
166.5589,132.4985
166.7214,132.5553
167.0566,132.6726
167.0566,132.6726
167.1638,132.7057
167.6730,132.8421
167.7522,132.8602
167.7824,132.8671
168.0058,132.9093
168.3004,132.9651
168.4113,132.9818
168.9352,133.0408
169.0471,133.0492
169.5739,133.0689
169.5739,133.0689
169.6861,133.0689
169.6861,133.0689
170.2130,133.0492
170.3248,133.0408
170.8487,132.9818
170.9596,132.9651
171.3316,132.8947
171.4776,132.8671
171.4777,132.8671
171.5870,132.8421
172.0963,132.7057
172.2035,132.6726
172.6343,132.5219
172.6954,132.5205
172.7457,132.5553
172.7558,132.5715
172.7654,132.5911
172.9289,132.8358
172.9289,132.8358
173.1230,133.0570
173.1230,133.0570
173.1230,133.0570
173.1230,133.0570
173.3442,133.2511
173.3442,133.2511
173.3442,133.2511
173.3442,133.2511
173.3442,133.2511
173.5889,133.4146
173.5889,133.4146
173.8529,133.5448
173.8529,133.5448
173.8529,133.5448
174.0268,133.6038
174.1316,133.6394
174.1316,133.6394
174.1316,133.6394
174.4203,133.6968
174.7139,133.7161
175.0076,133.6968
175.2963,133.6394
175.5750,133.5448
175.8389,133.4146
176.0837,133.2511
176.3049,133.0570
176.4990,132.8358
176.6625,132.5911
176.7927,132.3271
176.8873,132.0484
176.9447,131.7597
176.9639,131.4661
176.9447,131.1724
176.8873,130.8837
176.8673,130.8250
176.8414,130.7487
176.7927,130.6050
176.6625,130.3411
176.4990,130.0963
176.4990,130.0963
176.4990,130.0963
176.3538,129.9307
176.3296,129.8745
176.3431,129.8149
176.3486,129.8067
176.3488,129.8063
176.3488,129.8063
176.6619,129.3821
176.7251,129.2894
177.0056,128.8430
177.0617,128.7459
177.3080,128.2798
177.3567,128.1787
177.5675,127.6955
177.6085,127.5911
177.7826,127.0934
177.8157,126.9862
177.9521,126.4770
177.9771,126.3676
178.0751,125.8496
178.0918,125.7387
178.1509,125.2148
178.1593,125.1029
178.1790,124.5761
178.1790,124.4639
178.1593,123.9371
178.1509,123.8252
178.0918,123.3013
178.0751,123.1904
178.0086,122.8388
177.9771,122.6724
177.9521,122.5630
177.9521,122.5630
177.8157,122.0537
177.7826,121.9465
177.7725,121.9176
177.6085,121.4489
177.6085,121.4489
177.5675,121.3445
177.3567,120.8613
177.3080,120.7602
177.2498,120.6500
177.0617,120.2941
177.0617,120.2941
177.0617,120.2941
177.0056,120.1969
176.9711,120.1420
176.7951,119.8620
176.7251,119.7505
176.6619,119.6579
176.3488,119.2337
176.2789,119.1460
176.2789,119.1459
175.9350,118.7463
175.8587,118.6641
175.8587,118.6641
175.8587,118.6641
175.4859,118.2913
175.4274,118.2370
175.4037,118.2150
175.0041,117.8711
174.9163,117.8012
174.4922,117.4881
174.4922,117.4881
174.4922,117.4881
174.3995,117.4249
174.2283,117.3173
173.9531,117.1444
173.8559,117.0883
173.3898,116.8420
173.3070,116.8021
173.2887,116.7933
172.8055,116.5825
172.7011,116.5415
172.7011,116.5415
172.7011,116.5415
172.2035,116.3674
172.0963,116.3343
171.5870,116.1979
171.4776,116.1729
170.9596,116.0749
170.8487,116.0582
170.3248,115.9991
170.2130,115.9907
169.9166,115.9797
169.6861,115.9710
169.5739,115.9710
169.3570,115.9792
169.0471,115.9907
168.9352,115.9991
168.4113,116.0582
168.3004,116.0749
167.7824,116.1729
167.6730,116.1979
167.1638,116.3343
167.0566,116.3674
166.5590,116.5415
166.5022,116.5638
166.4412,116.5674
166.3896,116.5345
166.3803,116.5211
166.3142,116.4066
166.1466,116.1881
165.9519,115.9934
165.7334,115.8258
165.4950,115.6881
165.4950,115.6881
165.2406,115.5828
165.1195,115.5503
164.9746,115.5115
164.9746,115.5115
164.7016,115.4756
164.7016,115.4756
164.4263,115.4756
164.4263,115.4756
164.1533,115.5115
164.1533,115.5115
164.1533,115.5115
164.0528,115.5384
163.8873,115.5828
163.6329,115.6881
163.3945,115.8258
163.1760,115.9934
162.9813,116.1881
162.8137,116.4066
162.6760,116.6450
162.5707,116.8994
162.5492,116.9795
162.4994,117.1654
162.4994,117.1654
162.4994,117.1654
162.4652,117.4249
162.4634,117.4384
162.4634,117.7137
162.4994,117.9867
162.5244,118.0802
162.5707,118.2527
162.6760,118.5071
162.6760,118.5071
162.8137,118.7455
162.9813,118.9640
162.9813,118.9640
163.0004,118.9831
163.0282,119.0376
163.0186,119.0981
163.0055,119.1177
162.9811,119.1460
162.9112,119.2337
162.5981,119.6578
162.5349,119.7505
162.2545,120.1969
162.1984,120.2941
161.9520,120.7602
161.9296,120.8068
161.9033,120.8613
161.7117,121.3005
161.6925,121.3445
161.6515,121.4489
161.4774,121.9465
161.4443,122.0537
161.3079,122.5630
161.2829,122.6724
161.1849,123.1904
161.1682,123.3013
161.1092,123.8252
161.1008,123.9370
161.0811,124.4639
159.1782,124.4639
159.1176,124.3805
158.9895,124.2524
158.8430,124.1460
158.8430,124.1460
158.8430,124.1460
158.6816,124.0638
158.5094,124.0078
158.3305,123.9795
158.3305,123.9795
158.1495,123.9795
158.1495,123.9795
157.9706,124.0078
157.7984,124.0638
157.6370,124.1460
157.5638,124.1992
157.4905,124.2524
157.3624,124.3805
157.3092,124.4538
157.2560,124.5270
157.1738,124.6884
157.1178,124.8606
157.0895,125.0394
156.8505,125.0394
156.8222,124.8606
156.8222,124.8606
156.7662,124.6884
156.6840,124.5270
156.5776,124.3805
156.4495,124.2524
156.3030,124.1460
156.3030,124.1460
156.3030,124.1460
156.1416,124.0638
155.9694,124.0078
155.7905,123.9795
155.7905,123.9795
155.6095,123.9795
155.6095,123.9795
155.4306,124.0078
155.2584,124.0638
155.0970,124.1460
155.0238,124.1992
154.9505,124.2524
154.8224,124.3805
154.7692,124.4538
154.7160,124.5270
154.6338,124.6884
154.5778,124.8606
154.5495,125.0394
154.3105,125.0394
154.2822,124.8606
154.2822,124.8606
154.2262,124.6884
154.1440,124.5270
154.0376,124.3805
153.9095,124.2524
153.7630,124.1460
153.7630,124.1460
153.7630,124.1460
153.6016,124.0638
153.4294,124.0078
153.2505,123.9795
153.2505,123.9795
153.0695,123.9795
153.0695,123.9795
152.8906,124.0078
152.7184,124.0638
152.5570,124.1460
152.4838,124.1992
152.4105,124.2524
152.2824,124.3805
152.2292,124.4538
152.1760,124.5270
152.0938,124.6884
152.0378,124.8606
152.0095,125.0394
149.2305,125.0394
149.2022,124.8606
149.2022,124.8606
149.1462,124.6884
149.0640,124.5270
148.9576,124.3805
148.8295,124.2524
148.6830,124.1460
148.6830,124.1460
148.6830,124.1460
148.5216,124.0638
148.3494,124.0078
148.1705,123.9795
148.1705,123.9795
147.9895,123.9795
147.9895,123.9795
147.8106,124.0078
147.6384,124.0638
147.4770,124.1460
147.4038,124.1992
147.3305,124.2524
147.2024,124.3805
147.1492,124.4538
147.0960,124.5270
147.0138,124.6884
146.9578,124.8606
146.9295,125.0394
130.6705,125.0394
130.6705,122.6820
136.5555,122.6820
136.5555,122.6820
136.5746,122.8388
136.5746,122.8388
136.6306,122.9865
136.7203,123.1165
136.7203,123.1165
136.7203,123.1165
136.8386,123.2213
136.9784,123.2947
137.1318,123.3325
137.1318,123.3325
137.2898,123.3325
137.2898,123.3325
137.4411,123.2952
137.4885,123.2952
137.6398,123.3325
137.6398,123.3325
137.7978,123.3325
137.7978,123.3325
137.9491,123.2952
137.9965,123.2952
138.1478,123.3325
138.1478,123.3325
138.3058,123.3325
138.3058,123.3325
138.4592,123.2947
138.5990,123.2213
138.7173,123.1165
138.8070,122.9865
138.8630,122.8388
138.8821,122.6820
138.8630,122.5252
138.8070,122.3775
138.7622,122.3125
138.7173,122.2475
138.5990,122.1427
138.5990,122.1427
138.4808,122.0807
138.4592,122.0693
138.3058,122.0315
138.3058,122.0315
138.1478,122.0315
138.1478,122.0315
137.9965,122.0688
137.9491,122.0688
137.7978,122.0315
137.7978,122.0315
137.6398,122.0315
137.6398,122.0315
137.4885,122.0688
137.4411,122.0688
137.2898,122.0315
137.2898,122.0315
137.1318,122.0315
137.1318,122.0315
136.9784,122.0693
136.8386,122.1427
136.7203,122.2475
136.6306,122.3775
136.5746,122.5252
136.5746,122.5252
136.5555,122.6820
130.6705,122.6820
130.6705,120.9325
143.1445,120.9325
143.1445,121.1295
143.1829,121.3228
143.1829,121.3228
143.2584,121.5049
143.2584,121.5049
143.3679,121.6688
143.5072,121.8081
143.6711,121.9176
143.8532,121.9931
144.0465,122.0315
144.0465,122.0315
144.2435,122.0315
144.2435,122.0315
144.4368,121.9931
144.6189,121.9176
144.7828,121.8081
144.9221,121.6688
145.0316,121.5049
145.1071,121.3228
145.1455,121.1295
145.1455,120.9325
145.1071,120.7392
145.0316,120.5571
144.9221,120.3932
144.7828,120.2539
144.6189,120.1444
144.6189,120.1444
144.6189,120.1444
144.4368,120.0689
144.2435,120.0305
144.2435,120.0305
144.0465,120.0305
144.0465,120.0305
143.8532,120.0689
143.8532,120.0689
143.6711,120.1444
143.5072,120.2539
143.5072,120.2539
143.3679,120.3932
143.3679,120.3932
143.2584,120.5571
143.1829,120.7392
143.1829,120.7392
143.1445,120.9325
130.6705,120.9325
130.6705,119.6340
150.9046,119.6340
150.9046,119.6340
150.9237,119.7908
150.9335,119.8168
150.9472,119.8529
150.9502,119.9140
150.9472,119.9231
150.9237,119.9852
150.9046,120.1420
150.9046,120.1420
150.9141,120.2204
150.9237,120.2988
150.9335,120.3248
150.9472,120.3609
150.9502,120.4220
150.9472,120.4311
150.9237,120.4932
150.9046,120.6500
150.9046,120.6500
150.9237,120.8068
150.9237,120.8068
150.9713,120.9325
150.9797,120.9545
151.0694,121.0845
151.0694,121.0845
151.0694,121.0845
151.1877,121.1893
151.3275,121.2627
151.4809,121.3005
151.4809,121.3005
151.6389,121.3005
151.6389,121.3005
151.7923,121.2627
151.9321,121.1893
152.0504,121.0845
152.1401,120.9545
152.1961,120.8068
152.2152,120.6500
152.1961,120.4932
152.1726,120.4311
152.1696,120.3700
152.1726,120.3609
152.1961,120.2988
152.2088,120.1943
152.2152,120.1420
152.2152,120.1420
152.1961,119.9852
152.1961,119.9852
152.1726,119.9231
152.1696,119.8620
152.1726,119.8529
152.1961,119.7908
152.2152,119.6340
152.1961,119.4772
152.1401,119.3295
152.0740,119.2337
152.0504,119.1995
151.9321,119.0947
151.9321,119.0947
151.8432,119.0481
151.7923,119.0213
151.6389,118.9835
151.6389,118.9835
151.4809,118.9835
151.4809,118.9835
151.3275,119.0213
151.1877,119.0947
151.0694,119.1995
150.9797,119.3295
150.9237,119.4772
150.9237,119.4772
150.9046,119.6340
130.6705,119.6340
130.6705,116.8021
137.9105,116.8021
137.9105,116.8021
137.9105,116.9795
137.9433,117.1444
137.9451,117.1535
137.9451,117.1535
138.0130,117.3173
138.0130,117.3173
138.1010,117.4490
138.1115,117.4648
138.2370,117.5903
138.3845,117.6888
138.5483,117.7567
138.7223,117.7913
138.7223,117.7913
138.8997,117.7913
138.8997,117.7913
139.0737,117.7567
139.2375,117.6888
139.3850,117.5903
139.5105,117.4648
139.6090,117.3173
139.6489,117.2210
150.2207,117.2210
150.2398,117.3778
150.2496,117.4038
150.2633,117.4399
150.2663,117.5010
150.2633,117.5101
150.2398,117.5722
150.2207,117.7290
150.2207,117.7290
150.2241,117.7567
150.2398,117.8858
150.2496,117.9118
150.2633,117.9479
150.2663,118.0090
150.2633,118.0181
150.2398,118.0802
150.2207,118.2370
150.2207,118.2370
150.2398,118.3938
150.2398,118.3938
150.2958,118.5415
150.3855,118.6715
150.3855,118.6715
150.3855,118.6715
150.5038,118.7763
150.6436,118.8497
150.7970,118.8875
150.7970,118.8875
150.9550,118.8875
150.9550,118.8875
151.1084,118.8497
151.2482,118.7763
151.3665,118.6715
151.4562,118.5415
151.5122,118.3938
151.5313,118.2370
151.5286,118.2150
151.5122,118.0802
151.5122,118.0802
151.4887,118.0181
151.4857,117.9570
151.4887,117.9479
151.5122,117.8858
151.5279,117.7567
151.5313,117.7290
151.5313,117.7290
151.5186,117.6245
151.5122,117.5722
151.4887,117.5101
151.4857,117.4490
151.4887,117.4399
151.5122,117.3778
151.5313,117.2210
151.5122,117.0642
151.4562,116.9165
151.4048,116.8420
151.3665,116.7865
151.2482,116.6817
151.2482,116.6817
151.1783,116.6450
151.1084,116.6083
150.9550,116.5705
150.9550,116.5705
150.7970,116.5705
150.7970,116.5705
150.6436,116.6083
150.5038,116.6817
150.3855,116.7865
150.2958,116.9165
150.2398,117.0642
150.2398,117.0642
150.2275,117.1654
150.2207,117.2210
139.6489,117.2210
139.6769,117.1535
139.7115,116.9795
139.7115,116.8021
139.6769,116.6281
139.6090,116.4643
139.6090,116.4643
139.5105,116.3168
139.3850,116.1913
139.2375,116.0928
139.0737,116.0249
138.8997,115.9903
138.8997,115.9903
138.7223,115.9903
138.7223,115.9903
138.5483,116.0249
138.5483,116.0249
138.3845,116.0928
138.3845,116.0928
138.2370,116.1913
138.1115,116.3168
138.0130,116.4643
138.0130,116.4643
137.9451,116.6281
137.9451,116.6281
137.9105,116.8021
130.6705,116.8021
130.6705,113.4110
168.4579,113.4110
168.4579,113.4110
168.4770,113.5678
168.4770,113.5678
168.5138,113.6650
168.5330,113.7155
168.6227,113.8455
168.6227,113.8455
168.6227,113.8455
168.7410,113.9503
168.8808,114.0237
169.0342,114.0615
169.0342,114.0615
169.1922,114.0615
169.1922,114.0615
169.3435,114.0242
169.3909,114.0242
169.5422,114.0615
169.5422,114.0615
169.7002,114.0615
169.7002,114.0615
169.8515,114.0242
169.8989,114.0242
170.0502,114.0615
170.0502,114.0615
170.2082,114.0615
170.2082,114.0615
170.3616,114.0237
170.5014,113.9503
170.6197,113.8455
170.7094,113.7155
170.7654,113.5678
170.7845,113.4110
170.7654,113.2542
170.7094,113.1065
170.6645,113.0415
170.6197,112.9765
170.5014,112.8717
170.5014,112.8717
170.3832,112.8097
170.3616,112.7983
170.2082,112.7605
170.2082,112.7605
170.0502,112.7605
170.0502,112.7605
169.8989,112.7978
169.8515,112.7978
169.7002,112.7605
169.7002,112.7605
169.5422,112.7605
169.5422,112.7605
169.3909,112.7978
169.3435,112.7978
169.1922,112.7605
169.1922,112.7605
169.0342,112.7605
169.0342,112.7605
168.8808,112.7983
168.7410,112.8717
168.6227,112.9765
168.5330,113.1065
168.4770,113.2542
168.4770,113.2542
168.4579,113.4110
130.6705,113.4110
130.6705,111.1740
157.1407,111.1740
157.1407,111.1740
157.1598,111.3308
157.1598,111.3308
157.2069,111.4552
157.2158,111.4785
157.3055,111.6085
157.3055,111.6085
157.3055,111.6085
157.4238,111.7133
157.5636,111.7867
157.7170,111.8245
157.7170,111.8245
157.8750,111.8245
157.8750,111.8245
158.0284,111.7867
158.0365,111.7824
158.0968,111.7721
158.1285,111.7824
158.1366,111.7867
158.2900,111.8245
158.2900,111.8245
158.4480,111.8245
158.4480,111.8245
158.6014,111.7867
158.6080,111.7832
158.6683,111.7729
158.7000,111.7832
158.7066,111.7867
158.8600,111.8245
158.8600,111.8245
159.0180,111.8245
159.0180,111.8245
159.1714,111.7867
159.3112,111.7133
159.4295,111.6085
159.5192,111.4785
159.5281,111.4552
162.5397,111.4552
162.5397,111.4552
162.5588,111.6120
162.5588,111.6120
162.5780,111.6628
162.6148,111.7597
162.7045,111.8897
162.7045,111.8897
162.7045,111.8897
162.8228,111.9945
162.9626,112.0679
163.1160,112.1057
163.1160,112.1057
163.2740,112.1057
163.2740,112.1057
163.4253,112.0684
163.4727,112.0684
163.6240,112.1057
163.6240,112.1057
163.7820,112.1057
163.7820,112.1057
163.9333,112.0684
163.9807,112.0684
164.1320,112.1057
164.1320,112.1057
164.2900,112.1057
164.2900,112.1057
164.4434,112.0679
164.5832,111.9945
164.7015,111.8897
164.7912,111.7597
164.8472,111.6120
164.8663,111.4552
164.8472,111.2984
164.7912,111.1507
164.7015,111.0207
164.6759,110.9980
175.1127,110.9980
175.1318,111.1548
175.1390,111.1740
175.1553,111.2169
175.1583,111.2780
175.1553,111.2871
175.1387,111.3308
175.1318,111.3492
175.1127,111.5060
175.1318,111.6628
175.1416,111.6888
175.1553,111.7249
175.1583,111.7860
175.1553,111.7951
175.1318,111.8572
175.1127,112.0140
175.1127,112.0140
175.1318,112.1708
175.1318,112.1708
175.1878,112.3185
175.2775,112.4485
175.2775,112.4485
175.2775,112.4485
175.3958,112.5533
175.5356,112.6267
175.6890,112.6645
175.6890,112.6645
175.8470,112.6645
175.8470,112.6645
175.8971,112.6521
175.9581,112.6566
176.0049,112.6960
176.0195,112.7554
176.0191,112.7602
176.0055,112.8717
176.0017,112.9030
176.0208,113.0598
176.0306,113.0858
176.0443,113.1219
176.0473,113.1830
176.0443,113.1921
176.0208,113.2542
176.0208,113.2542
176.0017,113.4110
176.0208,113.5678
176.0306,113.5938
176.0443,113.6299
176.0473,113.6910
176.0443,113.7001
176.0208,113.7622
176.0017,113.9190
176.0017,113.9190
176.0208,114.0758
176.0208,114.0758
176.0768,114.2235
176.1665,114.3535
176.1665,114.3535
176.1665,114.3535
176.2848,114.4583
176.4246,114.5317
176.5780,114.5695
176.5780,114.5695
176.7360,114.5695
176.7360,114.5695
176.8894,114.5317
177.0292,114.4583
177.1475,114.3535
177.2372,114.2235
177.2932,114.0758
177.3059,113.9713
177.3123,113.9190
177.3123,113.9190
177.2932,113.7622
177.2932,113.7622
177.2697,113.7001
177.2667,113.6390
177.2697,113.6299
177.2932,113.5678
177.3123,113.4110
177.2932,113.2542
177.2697,113.1921
177.2667,113.1310
177.2697,113.1219
177.2932,113.0598
177.3123,112.9030
177.3085,112.8717
177.2995,112.7978
177.2932,112.7462
177.2372,112.5985
177.1475,112.4685
177.0292,112.3637
176.9431,112.3185
176.8894,112.2903
176.7360,112.2525
176.7360,112.2525
176.5780,112.2525
176.5279,112.2648
176.4669,112.2604
176.4201,112.2210
176.4055,112.1616
176.4059,112.1568
176.4233,112.0140
176.4209,111.9945
176.4042,111.8572
176.4042,111.8572
176.3807,111.7951
176.3777,111.7340
176.3807,111.7249
176.4042,111.6628
176.4233,111.5060
176.4042,111.3492
176.3807,111.2871
176.3777,111.2260
176.3807,111.2169
176.4042,111.1548
176.4233,110.9980
176.4042,110.8412
176.3482,110.6935
176.2766,110.5897
176.2585,110.5635
176.2134,110.5235
176.1402,110.4587
176.0265,110.3990
176.0004,110.3853
175.8470,110.3475
175.8470,110.3475
175.6890,110.3475
175.6890,110.3475
175.5356,110.3853
175.3958,110.4587
175.2775,110.5635
175.1878,110.6935
175.1318,110.8412
175.1318,110.8412
175.1227,110.9159
175.1127,110.9980
164.6759,110.9980
164.5832,110.9159
164.4948,110.8695
164.4434,110.8425
164.2900,110.8047
164.2900,110.8047
164.1320,110.8047
164.1320,110.8047
163.9807,110.8420
163.9333,110.8420
163.7820,110.8047
163.7820,110.8047
163.6240,110.8047
163.6240,110.8047
163.4727,110.8420
163.4253,110.8420
163.2740,110.8047
163.2740,110.8047
163.1160,110.8047
163.1160,110.8047
162.9626,110.8425
162.8228,110.9159
162.7045,111.0207
162.6148,111.1507
162.5588,111.2984
162.5588,111.2984
162.5397,111.4552
159.5281,111.4552
159.5752,111.3308
159.5943,111.1740
159.5919,111.1548
159.5752,111.0172
159.5752,111.0172
159.5192,110.8695
159.4295,110.7395
159.3112,110.6347
159.2255,110.5897
159.1714,110.5613
159.0180,110.5235
159.0180,110.5235
158.8600,110.5235
158.8600,110.5235
158.7066,110.5613
158.7000,110.5648
158.6397,110.5751
158.6080,110.5648
158.6014,110.5613
158.4480,110.5235
158.4480,110.5235
158.2900,110.5235
158.2900,110.5235
158.1366,110.5613
158.1285,110.5656
158.0682,110.5759
158.0365,110.5656
158.0284,110.5613
157.8750,110.5235
157.8750,110.5235
157.7170,110.5235
157.7170,110.5235
157.5636,110.5613
157.4238,110.6347
157.3055,110.7395
157.2158,110.8695
157.1598,111.0172
157.1598,111.0172
157.1407,111.1740
130.6705,111.1740
130.6705,109.1821
134.1005,109.1821
134.1005,109.3595
134.1351,109.5335
134.1351,109.5335
134.2030,109.6973
134.2030,109.6973
134.2572,109.7785
134.3015,109.8448
134.4270,109.9703
134.5745,110.0688
134.7383,110.1367
134.9123,110.1713
134.9123,110.1713
135.0897,110.1713
135.0897,110.1713
135.2637,110.1367
135.4275,110.0688
135.5750,109.9703
135.7005,109.8448
135.7990,109.6973
135.8669,109.5335
135.9015,109.3595
135.9015,109.1821
135.9015,109.1821
137.9105,109.1821
137.9105,109.3595
137.9451,109.5335
137.9451,109.5335
138.0130,109.6973
138.0130,109.6973
138.0672,109.7785
138.1115,109.8448
138.2370,109.9703
138.3845,110.0688
138.5483,110.1367
138.7223,110.1713
138.7223,110.1713
138.8997,110.1713
138.8997,110.1713
139.0737,110.1367
139.2375,110.0688
139.3850,109.9703
139.5105,109.8448
139.6090,109.6973
139.6769,109.5335
139.7115,109.3595
139.7115,109.1821
139.6769,109.0081
139.6090,108.8443
139.6090,108.8443
139.5105,108.6968
139.3850,108.5713
139.2375,108.4728
139.2018,108.4580
145.1407,108.4580
145.1407,108.4580
145.1598,108.6148
145.1833,108.6769
145.1863,108.7380
145.1833,108.7471
145.1598,108.8092
145.1555,108.8443
145.1407,108.9660
145.1598,109.1228
145.1696,109.1488
145.1833,109.1849
145.1863,109.2460
145.1833,109.2551
145.1598,109.3172
145.1407,109.4740
145.1407,109.4740
145.1598,109.6308
145.1598,109.6308
145.1850,109.6973
145.2158,109.7785
145.3055,109.9085
145.3055,109.9085
145.3055,109.9085
145.4238,110.0133
145.5636,110.0867
145.7170,110.1245
145.7170,110.1245
145.8750,110.1245
145.8750,110.1245
146.0284,110.0867
146.1682,110.0133
146.2865,109.9085
146.3762,109.7785
146.4322,109.6308
146.4466,109.5123
146.4466,109.5123
166.8665,109.5123
166.8665,109.6897
166.9011,109.8637
166.9011,109.8637
166.9690,110.0275
166.9690,110.0275
167.0650,110.1713
167.0675,110.1750
167.1930,110.3005
167.3405,110.3990
167.5043,110.4669
167.6783,110.5015
167.6783,110.5015
167.8557,110.5015
167.8557,110.5015
168.0297,110.4669
168.1935,110.3990
168.3410,110.3005
168.4665,110.1750
168.5650,110.0275
168.6329,109.8637
168.6675,109.6897
168.6675,109.5123
168.6675,109.5123
170.6765,109.5123
170.6765,109.6897
170.7111,109.8637
170.7111,109.8637
170.7790,110.0275
170.7790,110.0275
170.8750,110.1713
170.8775,110.1750
171.0030,110.3005
171.1505,110.3990
171.3143,110.4669
171.4883,110.5015
171.4883,110.5015
171.6657,110.5015
171.6657,110.5015
171.8397,110.4669
172.0035,110.3990
172.1510,110.3005
172.2765,110.1750
172.3750,110.0275
172.4429,109.8637
172.4775,109.6897
172.4775,109.5123
172.4429,109.3383
172.3750,109.1745
172.3750,109.1745
172.2765,109.0270
172.1510,108.9015
172.0035,108.8030
171.8397,108.7351
171.6657,108.7005
171.6657,108.7005
171.4883,108.7005
171.4883,108.7005
171.3143,108.7351
171.3143,108.7351
171.1505,108.8030
171.1505,108.8030
171.0030,108.9015
170.8775,109.0270
170.7790,109.1745
170.7790,109.1745
170.7111,109.3383
170.7111,109.3383
170.6765,109.5123
168.6675,109.5123
168.6329,109.3383
168.5650,109.1745
168.5650,109.1745
168.4665,109.0270
168.3410,108.9015
168.1935,108.8030
168.0297,108.7351
167.8557,108.7005
167.8557,108.7005
167.6783,108.7005
167.6783,108.7005
167.5043,108.7351
167.5043,108.7351
167.3405,108.8030
167.3405,108.8030
167.1930,108.9015
167.0675,109.0270
166.9690,109.1745
166.9690,109.1745
166.9011,109.3383
166.9011,109.3383
166.8665,109.5123
146.4466,109.5123
146.4513,109.4740
146.4513,109.4740
146.4322,109.3172
146.4322,109.3172
146.4087,109.2551
146.4057,109.1940
146.4087,109.1849
146.4322,109.1228
146.4513,108.9660
146.4322,108.8092
146.4087,108.7471
146.4057,108.6860
146.4087,108.6769
146.4322,108.6148
146.4322,108.6148
146.4449,108.5103
146.4513,108.4580
146.4513,108.4580
146.4322,108.3012
146.4322,108.3012
146.3762,108.1535
146.2865,108.0235
146.1682,107.9187
146.0983,107.8820
146.0284,107.8453
145.8750,107.8075
145.8750,107.8075
145.7170,107.8075
145.7170,107.8075
145.5636,107.8453
145.4238,107.9187
145.3055,108.0235
145.2158,108.1535
145.1598,108.3012
145.1598,108.3012
145.1407,108.4580
139.2018,108.4580
139.0737,108.4049
138.8997,108.3703
138.8997,108.3703
138.7223,108.3703
138.7223,108.3703
138.5483,108.4049
138.5483,108.4049
138.3845,108.4728
138.3845,108.4728
138.2370,108.5713
138.1115,108.6968
138.0130,108.8443
138.0130,108.8443
137.9451,109.0081
137.9451,109.0081
137.9105,109.1821
135.9015,109.1821
135.8669,109.0081
135.7990,108.8443
135.7990,108.8443
135.7005,108.6968
135.5750,108.5713
135.4275,108.4728
135.2637,108.4049
135.0897,108.3703
135.0897,108.3703
134.9123,108.3703
134.9123,108.3703
134.7383,108.4049
134.7383,108.4049
134.5745,108.4728
134.5745,108.4728
134.4270,108.5713
134.3015,108.6968
134.2030,108.8443
134.2030,108.8443
134.1351,109.0081
134.1351,109.0081
134.1005,109.1821
130.6705,109.1821
130.6705,107.2944
151.7350,107.2944
151.7350,107.2944
151.7539,107.4500
151.8095,107.5965
151.8095,107.5965
151.8214,107.6137
151.8276,107.6240
151.8281,107.6251
151.9179,107.7551
151.9179,107.7551
151.9179,107.7551
152.0361,107.8599
152.1760,107.9333
152.3294,107.9711
152.3294,107.9711
152.4874,107.9711
152.4874,107.9711
152.6407,107.9333
152.7806,107.8599
152.8989,107.7551
152.9886,107.6251
153.0446,107.4774
153.0636,107.3206
153.0446,107.1638
153.0211,107.1017
153.0181,107.0406
153.0211,107.0315
153.0446,106.9694
153.0636,106.8126
153.0446,106.6558
153.0211,106.5937
153.0181,106.5326
153.0211,106.5235
153.0446,106.4614
153.0636,106.3046
153.0446,106.1478
152.9886,106.0001
152.9437,105.9351
152.8989,105.8701
152.7942,105.7773
152.7806,105.7653
152.7107,105.7286
152.6407,105.6919
152.4874,105.6541
152.4874,105.6541
152.3294,105.6541
152.3294,105.6541
152.1760,105.6919
152.0361,105.7653
152.0330,105.7675
152.0228,105.7737
152.0158,105.7773
151.8985,105.8812
151.8095,106.0102
151.7539,106.1567
151.7350,106.3123
151.7350,106.3123
151.7539,106.4678
151.7539,106.4678
151.7754,106.5245
151.7783,106.5856
151.7754,106.5947
151.7539,106.6514
151.7539,106.6514
151.7350,106.8070
151.7350,106.8070
151.7539,106.9626
151.7539,106.9626
151.7740,107.0156
151.7770,107.0767
151.7740,107.0858
151.7539,107.1389
151.7539,107.1389
151.7350,107.2944
130.6705,107.2944
130.6705,104.7750
160.6347,104.7750
160.6347,104.7750
160.6538,104.9318
160.6538,104.9318
160.7098,105.0795
160.7995,105.2095
160.7995,105.2095
160.7995,105.2095
160.9178,105.3143
161.0576,105.3877
161.2110,105.4255
161.2110,105.4255
161.3690,105.4255
161.3690,105.4255
161.5224,105.3877
161.5305,105.3834
161.5908,105.3731
161.6225,105.3834
161.6306,105.3877
161.7840,105.4255
161.7840,105.4255
161.9420,105.4255
161.9420,105.4255
162.0954,105.3877
162.1020,105.3842
162.1623,105.3739
162.1940,105.3842
162.2006,105.3877
162.3540,105.4255
162.3540,105.4255
162.5120,105.4255
162.5120,105.4255
162.6654,105.3877
162.8052,105.3143
162.9235,105.2095
163.0132,105.0795
163.0692,104.9318
163.0883,104.7750
163.0692,104.6182
163.0132,104.4705
162.9235,104.3405
162.8052,104.2357
162.7195,104.1907
162.6654,104.1623
162.5120,104.1245
162.5120,104.1245
162.3540,104.1245
162.3540,104.1245
162.2006,104.1623
162.1940,104.1658
162.1337,104.1761
162.1020,104.1658
162.0954,104.1623
161.9420,104.1245
161.9420,104.1245
161.7840,104.1245
161.7840,104.1245
161.6306,104.1623
161.6225,104.1666
161.5622,104.1769
161.5305,104.1666
161.5224,104.1623
161.3690,104.1245
161.3690,104.1245
161.2110,104.1245
161.2110,104.1245
161.0576,104.1623
160.9178,104.2357
160.7995,104.3405
160.7098,104.4705
160.6538,104.6182
160.6538,104.6182
160.6347,104.7750
130.6705,104.7750
130.6705,102.4890
137.8763,102.4890
137.8954,102.6458
137.9052,102.6718
137.9189,102.7079
137.9219,102.7690
137.9189,102.7781
137.8954,102.8402
137.8845,102.9295
137.8763,102.9970
137.8954,103.1538
137.9052,103.1798
137.9189,103.2159
137.9219,103.2770
137.9189,103.2861
137.8954,103.3482
137.8763,103.5050
137.8763,103.5050
137.8954,103.6618
137.8954,103.6618
137.9514,103.8095
138.0411,103.9395
138.0411,103.9395
138.0411,103.9395
138.1594,104.0443
138.2992,104.1177
138.4526,104.1555
138.4526,104.1555
138.6106,104.1555
138.6106,104.1555
138.7640,104.1177
138.9038,104.0443
139.0221,103.9395
139.1118,103.8095
139.1678,103.6618
139.1869,103.5050
139.1678,103.3482
139.1443,103.2861
139.1413,103.2250
139.1443,103.2159
139.1678,103.1538
139.1869,102.9970
139.1787,102.9295
139.1787,102.9294
146.9395,102.9294
146.9395,103.1105
146.9678,103.2894
146.9869,103.3482
147.0238,103.4616
147.1060,103.6230
147.2124,103.7695
147.3405,103.8976
147.4870,104.0040
147.6484,104.0862
147.8206,104.1422
147.8921,104.1535
147.9995,104.1705
147.9995,104.1705
148.1805,104.1705
148.2700,104.1563
148.3594,104.1422
148.5316,104.0862
148.6930,104.0040
148.8395,103.8976
148.9676,103.7695
149.0740,103.6230
149.1562,103.4616
149.2122,103.2894
149.2336,103.1538
149.2405,103.1105
149.2405,102.9294
149.4795,102.9294
149.4795,103.1105
149.5078,103.2894
149.5269,103.3482
149.5638,103.4616
149.6460,103.6230
149.7524,103.7695
149.8805,103.8976
150.0270,104.0040
150.1884,104.0862
150.3606,104.1422
150.4321,104.1535
150.5395,104.1705
150.5395,104.1705
150.7205,104.1705
150.8100,104.1563
150.8994,104.1422
151.0716,104.0862
151.2330,104.0040
151.3795,103.8976
151.5076,103.7695
151.6140,103.6230
151.6962,103.4616
151.7522,103.2894
151.7736,103.1538
151.7805,103.1105
151.7805,102.9294
152.0195,102.9294
152.0195,103.1105
152.0478,103.2894
152.0669,103.3482
152.1038,103.4616
152.1860,103.6230
152.2924,103.7695
152.4205,103.8976
152.5670,104.0040
152.7284,104.0862
152.9006,104.1422
152.9721,104.1535
153.0795,104.1705
153.0795,104.1705
153.2605,104.1705
153.3500,104.1563
153.4394,104.1422
153.6116,104.0862
153.7730,104.0040
153.9195,103.8976
154.0476,103.7695
154.1540,103.6230
154.2362,103.4616
154.2922,103.2894
154.3136,103.1538
154.3205,103.1105
154.3205,102.9294
154.5595,102.9294
154.5595,103.1105
154.5878,103.2894
154.6069,103.3482
154.6438,103.4616
154.7260,103.6230
154.8324,103.7695
154.9605,103.8976
155.1070,104.0040
155.2684,104.0862
155.4406,104.1422
155.5121,104.1535
155.6195,104.1705
155.6195,104.1705
155.8005,104.1705
155.8900,104.1563
155.9794,104.1422
156.1516,104.0862
156.3130,104.0040
156.4595,103.8976
156.5876,103.7695
156.6940,103.6230
156.7762,103.4616
156.8322,103.2894
156.8536,103.1538
156.8605,103.1105
156.8605,102.9294
157.0995,102.9294
157.0995,103.1105
157.1278,103.2894
157.1469,103.3482
157.1838,103.4616
157.2660,103.6230
157.3724,103.7695
157.5005,103.8976
157.6470,104.0040
157.8084,104.0862
157.9806,104.1422
158.0521,104.1535
158.1595,104.1705
158.1595,104.1705
158.3405,104.1705
158.4300,104.1563
158.5194,104.1422
158.6916,104.0862
158.8530,104.0040
158.9995,103.8976
159.1276,103.7695
159.2340,103.6230
159.3162,103.4616
159.3722,103.2894
159.3936,103.1538
159.4005,103.1105
159.4005,102.9294
159.3722,102.7506
159.3722,102.7506
159.3162,102.5784
159.2340,102.4170
159.1276,102.2705
158.9995,102.1424
158.8530,102.0360
158.8530,102.0360
158.8530,102.0360
158.6916,101.9538
158.5194,101.8978
158.3405,101.8695
158.3405,101.8695
158.1595,101.8695
158.1595,101.8695
157.9806,101.8978
157.8084,101.9538
157.6470,102.0360
157.5738,102.0892
157.5005,102.1424
157.3724,102.2705
157.3192,102.3438
157.2660,102.4170
157.1838,102.5784
157.1278,102.7506
157.0995,102.9294
156.8605,102.9294
156.8322,102.7506
156.8322,102.7506
156.7762,102.5784
156.6940,102.4170
156.5876,102.2705
156.4595,102.1424
156.3130,102.0360
156.3130,102.0360
156.3130,102.0360
156.1516,101.9538
155.9794,101.8978
155.8005,101.8695
155.8005,101.8695
155.6195,101.8695
155.6195,101.8695
155.4406,101.8978
155.2684,101.9538
155.1070,102.0360
155.0338,102.0892
154.9605,102.1424
154.8324,102.2705
154.7792,102.3438
154.7260,102.4170
154.6438,102.5784
154.5878,102.7506
154.5595,102.9294
154.3205,102.9294
154.2922,102.7506
154.2922,102.7506
154.2362,102.5784
154.1540,102.4170
154.0476,102.2705
153.9195,102.1424
153.7730,102.0360
153.7730,102.0360
153.7730,102.0360
153.6116,101.9538
153.4394,101.8978
153.2605,101.8695
153.2605,101.8695
153.0795,101.8695
153.0795,101.8695
152.9006,101.8978
152.7284,101.9538
152.5670,102.0360
152.4938,102.0892
152.4205,102.1424
152.2924,102.2705
152.2392,102.3438
152.1860,102.4170
152.1038,102.5784
152.0478,102.7506
152.0195,102.9294
151.7805,102.9294
151.7522,102.7506
151.7522,102.7506
151.6962,102.5784
151.6140,102.4170
151.5076,102.2705
151.3795,102.1424
151.2330,102.0360
151.2330,102.0360
151.2330,102.0360
151.0716,101.9538
150.8994,101.8978
150.7205,101.8695
150.7205,101.8695
150.5395,101.8695
150.5395,101.8695
150.3606,101.8978
150.1884,101.9538
150.0270,102.0360
149.9538,102.0892
149.8805,102.1424
149.7524,102.2705
149.6992,102.3438
149.6460,102.4170
149.5638,102.5784
149.5078,102.7506
149.4795,102.9294
149.2405,102.9294
149.2122,102.7506
149.2122,102.7506
149.1562,102.5784
149.0740,102.4170
148.9676,102.2705
148.8395,102.1424
148.6930,102.0360
148.6930,102.0360
148.6930,102.0360
148.5316,101.9538
148.3594,101.8978
148.1805,101.8695
148.1805,101.8695
147.9995,101.8695
147.9995,101.8695
147.8206,101.8978
147.6484,101.9538
147.4870,102.0360
147.4138,102.0892
147.3405,102.1424
147.2124,102.2705
147.1592,102.3438
147.1060,102.4170
147.0238,102.5784
146.9678,102.7506
146.9395,102.9294
139.1787,102.9294
139.1678,102.8402
139.1678,102.8402
139.1443,102.7781
139.1413,102.7170
139.1443,102.7079
139.1678,102.6458
139.1869,102.4890
139.1678,102.3322
139.1118,102.1845
139.0267,102.0612
139.0221,102.0545
139.0012,102.0360
138.9038,101.9497
138.8050,101.8978
138.7640,101.8763
138.6106,101.8385
138.6106,101.8385
138.4526,101.8385
138.4526,101.8385
138.2992,101.8763
138.1594,101.9497
138.0411,102.0545
137.9514,102.1845
137.8954,102.3322
137.8954,102.3322
137.8851,102.4170
137.8763,102.4890
130.6705,102.4890
130.6705,99.0506
130.6894,98.9924
130.7389,98.9564
130.8001,98.9564
130.8478,98.9900
131.0637,99.2690
131.2273,99.4410
131.3394,99.5590
131.4351,99.6411
131.6430,99.8196
131.9714,100.0482
131.9714,100.0482
131.9714,100.0482
132.0270,100.0791
132.2638,100.2105
132.3213,100.2424
132.3213,100.2424
132.3213,100.2424
132.3213,100.2424
132.6890,100.4002
133.0708,100.5200
133.4627,100.6005
133.7015,100.6248
133.8608,100.6410
133.8608,100.6410
134.2609,100.6410
134.3936,100.6275
134.6590,100.6005
135.0509,100.5200
135.4327,100.4002
135.8004,100.2424
136.1502,100.0482
136.4787,99.8196
136.6238,99.6950
138.5094,99.6950
138.5094,99.6950
138.5288,99.8545
138.5300,99.8609
138.5316,99.8744
138.5316,99.8744
138.5493,99.9211
138.5522,99.9822
138.5493,99.9913
138.5285,100.0462
138.5094,100.2030
138.5094,100.2030
138.5285,100.3598
138.5285,100.3598
138.5287,100.3606
138.5306,100.3664
138.5517,100.4222
138.5547,100.4833
138.5517,100.4924
138.5300,100.5498
138.5292,100.5523
138.5285,100.5542
138.5094,100.7110
138.5094,100.7110
138.5285,100.8678
138.5285,100.8678
138.5772,100.9963
138.5845,101.0155
138.6742,101.1455
138.6742,101.1455
138.6742,101.1455
138.7925,101.2503
138.9323,101.3237
139.0857,101.3615
139.0857,101.3615
139.2437,101.3615
139.2437,101.3615
139.3971,101.3237
139.5369,101.2503
139.6552,101.1455
139.7449,101.0155
139.8009,100.8678
139.8200,100.7110
139.8172,100.6883
139.8009,100.5542
139.8009,100.5542
139.7774,100.4921
139.7744,100.4310
139.7774,100.4219
139.8009,100.3598
139.8152,100.2424
139.8200,100.2030
139.8200,100.2030
139.8009,100.0462
139.8009,100.0462
139.7781,99.9860
139.7752,99.9249
139.7781,99.9158
139.7783,99.9153
139.7938,99.8744
139.7938,99.8744
139.7951,99.8692
139.7987,99.8578
139.8009,99.8518
139.8200,99.6950
142.9055,99.6950
142.9055,99.6950
142.9246,99.8518
142.9481,99.9139
142.9511,99.9750
142.9481,99.9841
142.9246,100.0462
142.9055,100.2030
142.9055,100.2030
142.9246,100.3598
142.9481,100.4219
142.9511,100.4830
142.9481,100.4921
142.9246,100.5542
142.9055,100.7110
142.9055,100.7110
142.9246,100.8678
142.9246,100.8678
142.9481,100.9298
142.9806,101.0155
143.0703,101.1455
143.0703,101.1455
143.0703,101.1455
143.1886,101.2503
143.3284,101.3237
143.4818,101.3615
143.4818,101.3615
143.6398,101.3615
143.6398,101.3615
143.7587,101.3322
143.8197,101.3366
143.8665,101.3761
143.8811,101.4355
143.8806,101.4403
143.8707,101.5219
143.8707,101.5219
143.8898,101.6787
143.8898,101.6787
143.9458,101.8264
144.0355,101.9564
144.0355,101.9564
144.0355,101.9564
144.1538,102.0612
144.2936,102.1346
144.4470,102.1724
144.4470,102.1724
144.6050,102.1724
144.6050,102.1724
144.7563,102.1351
144.8037,102.1351
144.9550,102.1724
144.9550,102.1724
145.1130,102.1724
145.1130,102.1724
145.2643,102.1351
145.3117,102.1351
145.4630,102.1724
145.4630,102.1724
145.6210,102.1724
145.6210,102.1724
145.7744,102.1346
145.9142,102.0612
146.0325,101.9564
146.1222,101.8264
146.1782,101.6787
146.1973,101.5219
146.1875,101.4417
146.1796,101.3761
146.1782,101.3651
146.1222,101.2174
146.0325,101.0874
145.9142,100.9826
145.7960,100.9206
145.7744,100.9092
145.6210,100.8714
145.6210,100.8714
145.4630,100.8714
145.4630,100.8714
145.3117,100.9087
145.2643,100.9087
145.1130,100.8714
145.1130,100.8714
144.9550,100.8714
144.9550,100.8714
144.8037,100.9087
144.7563,100.9087
144.6050,100.8714
144.6050,100.8714
144.4470,100.8714
144.4470,100.8714
144.3281,100.9007
144.2671,100.8963
144.2203,100.8568
144.2057,100.7974
144.2062,100.7926
144.2161,100.7110
144.2161,100.7110
144.1970,100.5542
144.1970,100.5542
144.1735,100.4921
144.1705,100.4310
144.1735,100.4219
144.1970,100.3598
144.2099,100.2538
169.4939,100.2538
169.4939,100.2538
169.5129,100.4106
169.5129,100.4106
169.5439,100.4921
169.5690,100.5583
169.6587,100.6883
169.6587,100.6883
169.6587,100.6883
169.7769,100.7931
169.9168,100.8665
170.0702,100.9043
170.0702,100.9043
170.2282,100.9043
170.2282,100.9043
170.3762,100.8678
170.3815,100.8665
170.3815,100.8665
170.3816,100.8665
170.3816,100.8665
170.3835,100.8658
170.3848,100.8657
170.3874,100.8651
170.3875,100.8656
170.4446,100.8628
170.4537,100.8658
170.4556,100.8665
170.4556,100.8665
170.6090,100.9043
170.6090,100.9043
170.7670,100.9043
170.7670,100.9043
170.8416,100.8859
170.9026,100.8903
170.9494,100.9298
170.9640,100.9892
170.9578,101.0171
170.9408,101.0622
170.9408,101.0622
170.9217,101.2190
170.9217,101.2190
170.9408,101.3758
170.9408,101.3758
170.9697,101.4522
170.9968,101.5235
171.0865,101.6535
171.0865,101.6535
171.0865,101.6535
171.2048,101.7583
171.3446,101.8317
171.4980,101.8695
171.4980,101.8695
171.6560,101.8695
171.6560,101.8695
171.8094,101.8317
171.9492,101.7583
172.0675,101.6535
172.1572,101.5235
172.1702,101.4894
172.2085,101.4417
172.2167,101.4369
172.3302,101.3773
172.4485,101.2725
172.5382,101.1425
172.5512,101.1084
172.5895,101.0607
172.5977,101.0559
172.7112,100.9963
172.8295,100.8915
172.9192,100.7615
172.9752,100.6138
172.9943,100.4570
172.9752,100.3002
172.9192,100.1525
172.8685,100.0791
173.9547,100.0791
173.9547,100.2761
173.9732,100.3691
173.9907,100.4570
173.9931,100.4694
173.9931,100.4694
174.0686,100.6515
174.0686,100.6515
174.1781,100.8154
174.3174,100.9547
174.4813,101.0642
174.6634,101.1397
174.8567,101.1781
174.8567,101.1781
175.0537,101.1781
175.0537,101.1781
175.2470,101.1397
175.4291,101.0642
175.5930,100.9547
175.7323,100.8154
175.8418,100.6515
175.9173,100.4694
175.9557,100.2761
175.9557,100.0791
175.9557,100.0791
176.4947,100.0791
176.4947,100.2761
176.5132,100.3691
176.5307,100.4570
176.5331,100.4694
176.5331,100.4694
176.6086,100.6515
176.6086,100.6515
176.7181,100.8154
176.8574,100.9547
177.0213,101.0642
177.2034,101.1397
177.3967,101.1781
177.3967,101.1781
177.5937,101.1781
177.5937,101.1781
177.7870,101.1397
177.9691,101.0642
178.1330,100.9547
178.2723,100.8154
178.3818,100.6515
178.4573,100.4694
178.4957,100.2761
178.4957,100.0791
178.4573,99.8858
178.3818,99.7037
178.2723,99.5398
178.1330,99.4005
178.0235,99.3273
177.9691,99.2910
177.7870,99.2155
177.5937,99.1771
177.5937,99.1771
177.3967,99.1771
177.3967,99.1771
177.2034,99.2155
177.2034,99.2155
177.0213,99.2910
176.8574,99.4005
176.8574,99.4005
176.7181,99.5398
176.7181,99.5398
176.6086,99.7037
176.5331,99.8858
176.5331,99.8858
176.4947,100.0791
175.9557,100.0791
175.9173,99.8858
175.8418,99.7037
175.7323,99.5398
175.5930,99.4005
175.4835,99.3273
175.4291,99.2910
175.2470,99.2155
175.0537,99.1771
175.0537,99.1771
174.8567,99.1771
174.8567,99.1771
174.6634,99.2155
174.6634,99.2155
174.4813,99.2910
174.3174,99.4005
174.3174,99.4005
174.1781,99.5398
174.1781,99.5398
174.0686,99.7037
173.9931,99.8858
173.9931,99.8858
173.9547,100.0791
172.8685,100.0791
172.8514,100.0542
172.8295,100.0225
172.7896,99.9871
172.7112,99.9177
172.6309,99.8755
172.5714,99.8443
172.4180,99.8065
172.4180,99.8065
172.2600,99.8065
172.2600,99.8065
172.1066,99.8443
171.9668,99.9177
171.9378,99.9434
171.8817,99.9678
171.8219,99.9546
171.7906,99.9255
171.7173,99.8193
171.5991,99.7145
171.5291,99.6778
171.4592,99.6411
171.3058,99.6033
171.3058,99.6033
171.1478,99.6033
171.1478,99.6033
170.9944,99.6411
170.9925,99.6418
170.9912,99.6419
170.9886,99.6425
170.9885,99.6420
170.9314,99.6448
170.9223,99.6418
170.9204,99.6411
170.7670,99.6033
170.7670,99.6033
170.6090,99.6033
170.6090,99.6033
170.4556,99.6411
170.4537,99.6418
170.4524,99.6419
170.4498,99.6425
170.4497,99.6420
170.3926,99.6448
170.3835,99.6418
170.3816,99.6411
170.2282,99.6033
170.2282,99.6033
170.0702,99.6033
170.0702,99.6033
169.9168,99.6411
169.7769,99.7145
169.6587,99.8193
169.5690,99.9493
169.5129,100.0970
169.5129,100.0970
169.4939,100.2538
144.2099,100.2538
144.2113,100.2424
144.2161,100.2030
144.2161,100.2030
144.1970,100.0462
144.1970,100.0462
144.1735,99.9841
144.1705,99.9230
144.1735,99.9139
144.1970,99.8518
144.2161,99.6950
144.2119,99.6605
144.1970,99.5382
144.1970,99.5382
144.1410,99.3905
144.0723,99.2910
144.0513,99.2605
143.9330,99.1557
143.9330,99.1557
143.8631,99.1190
143.8487,99.1115
147.0895,99.1115
147.0895,99.3085
147.1279,99.5018
147.1279,99.5018
147.2034,99.6839
147.2108,99.6950
147.3129,99.8478
147.4522,99.9871
147.6161,100.0966
147.7982,100.1721
147.9915,100.2105
147.9915,100.2105
148.1885,100.2105
148.1885,100.2105
148.3818,100.1721
148.5639,100.0966
148.7278,99.9871
148.8671,99.8478
148.9766,99.6839
149.0521,99.5018
149.0905,99.3085
149.0905,99.1115
149.0905,99.1115
149.6295,99.1115
149.6295,99.3085
149.6679,99.5018
149.6679,99.5018
149.7434,99.6839
149.7508,99.6950
149.8529,99.8478
149.9922,99.9871
150.1561,100.0966
150.3382,100.1721
150.5315,100.2105
150.5315,100.2105
150.7285,100.2105
150.7285,100.2105
150.9218,100.1721
151.1039,100.0966
151.2678,99.9871
151.4071,99.8478
151.5166,99.6839
151.5921,99.5018
151.6305,99.3085
151.6305,99.1115
151.6305,99.1115
152.1695,99.1115
152.1695,99.3085
152.2079,99.5018
152.2079,99.5018
152.2834,99.6839
152.2908,99.6950
152.3929,99.8478
152.5322,99.9871
152.6961,100.0966
152.8782,100.1721
153.0715,100.2105
153.0715,100.2105
153.2685,100.2105
153.2685,100.2105
153.4618,100.1721
153.6439,100.0966
153.8078,99.9871
153.9471,99.8478
154.0566,99.6839
154.1321,99.5018
154.1705,99.3085
154.1705,99.1115
154.1705,99.1115
154.7095,99.1115
154.7095,99.3085
154.7479,99.5018
154.7479,99.5018
154.8234,99.6839
154.8308,99.6950
154.9329,99.8478
155.0722,99.9871
155.2361,100.0966
155.4182,100.1721
155.6115,100.2105
155.6115,100.2105
155.8085,100.2105
155.8085,100.2105
156.0018,100.1721
156.1839,100.0966
156.3478,99.9871
156.4871,99.8478
156.5966,99.6839
156.6721,99.5018
156.7105,99.3085
156.7105,99.1115
156.7105,99.1115
157.2495,99.1115
157.2495,99.3085
157.2879,99.5018
157.2879,99.5018
157.3634,99.6839
157.3708,99.6950
157.4729,99.8478
157.6122,99.9871
157.7761,100.0966
157.9582,100.1721
158.1515,100.2105
158.1515,100.2105
158.3485,100.2105
158.3485,100.2105
158.5418,100.1721
158.7239,100.0966
158.8878,99.9871
159.0271,99.8478
159.1366,99.6839
159.2121,99.5018
159.2242,99.4410
161.7777,99.4410
161.7777,99.4410
161.7968,99.5978
161.7968,99.5978
161.8336,99.6950
161.8528,99.7455
161.9425,99.8755
161.9425,99.8755
161.9425,99.8755
162.0608,99.9803
162.2006,100.0537
162.3540,100.0915
162.3540,100.0915
162.5120,100.0915
162.5120,100.0915
162.6633,100.0542
162.7107,100.0542
162.8620,100.0915
162.8620,100.0915
163.0200,100.0915
163.0200,100.0915
163.1713,100.0542
163.2187,100.0542
163.3700,100.0915
163.3700,100.0915
163.5280,100.0915
163.5280,100.0915
163.6814,100.0537
163.8212,99.9803
163.9395,99.8755
164.0292,99.7455
164.0852,99.5978
164.0979,99.4933
164.1043,99.4410
164.1043,99.4410
164.0889,99.3140
164.0889,99.3140
166.7307,99.3140
166.7307,99.3140
166.7498,99.4708
166.7498,99.4708
166.7753,99.5382
166.8058,99.6185
166.8955,99.7485
166.8955,99.7485
166.8955,99.7485
167.0138,99.8533
167.1536,99.9267
167.3070,99.9645
167.3070,99.9645
167.4650,99.9645
167.4650,99.9645
167.6163,99.9272
167.6637,99.9272
167.8150,99.9645
167.8150,99.9645
167.9730,99.9645
167.9730,99.9645
168.1243,99.9272
168.1717,99.9272
168.3230,99.9645
168.3230,99.9645
168.4810,99.9645
168.4810,99.9645
168.6344,99.9267
168.7742,99.8533
168.8925,99.7485
168.9822,99.6185
169.0382,99.4708
169.0573,99.3140
169.0566,99.3085
169.0382,99.1572
169.0382,99.1572
168.9822,99.0095
168.9192,98.9182
168.8925,98.8795
168.8342,98.8278
168.7742,98.7747
168.7006,98.7361
168.6344,98.7013
168.4810,98.6635
168.4810,98.6635
168.3230,98.6635
168.3230,98.6635
168.1717,98.7008
168.1243,98.7008
167.9730,98.6635
167.9730,98.6635
167.8150,98.6635
167.8150,98.6635
167.6637,98.7008
167.6163,98.7008
167.4650,98.6635
167.4650,98.6635
167.3070,98.6635
167.3070,98.6635
167.1536,98.7013
167.0138,98.7747
166.8955,98.8795
166.8058,99.0095
166.7498,99.1572
166.7498,99.1572
166.7307,99.3140
164.0889,99.3140
164.0852,99.2842
164.0292,99.1365
163.9416,99.0095
163.9395,99.0065
163.8830,98.9564
163.8212,98.9017
163.7030,98.8397
163.6814,98.8283
163.5280,98.7905
163.5280,98.7905
163.3700,98.7905
163.3700,98.7905
163.2187,98.8278
163.1713,98.8278
163.0200,98.7905
163.0200,98.7905
162.8620,98.7905
162.8620,98.7905
162.7107,98.8278
162.6633,98.8278
162.5120,98.7905
162.5120,98.7905
162.3540,98.7905
162.3540,98.7905
162.2006,98.8283
162.0608,98.9017
161.9425,99.0065
161.8528,99.1365
161.7968,99.2842
161.7968,99.2842
161.7777,99.4410
159.2242,99.4410
159.2505,99.3085
159.2505,99.1115
159.2121,98.9182
159.1366,98.7361
159.0271,98.5722
158.8878,98.4329
158.7239,98.3234
158.7239,98.3234
158.7239,98.3234
158.5418,98.2479
158.3485,98.2095
158.3485,98.2095
158.1515,98.2095
158.1515,98.2095
157.9582,98.2479
157.9582,98.2479
157.7761,98.3234
157.6122,98.4329
157.6122,98.4329
157.4729,98.5722
157.4729,98.5722
157.3634,98.7361
157.2879,98.9182
157.2879,98.9182
157.2495,99.1115
156.7105,99.1115
156.6721,98.9182
156.5966,98.7361
156.4871,98.5722
156.3478,98.4329
156.1839,98.3234
156.1839,98.3234
156.1839,98.3234
156.0018,98.2479
155.8085,98.2095
155.8085,98.2095
155.6115,98.2095
155.6115,98.2095
155.4182,98.2479
155.4182,98.2479
155.2361,98.3234
155.0722,98.4329
155.0722,98.4329
154.9329,98.5722
154.9329,98.5722
154.8234,98.7361
154.7479,98.9182
154.7479,98.9182
154.7095,99.1115
154.1705,99.1115
154.1321,98.9182
154.0566,98.7361
153.9471,98.5722
153.8078,98.4329
153.6439,98.3234
153.6439,98.3234
153.6439,98.3234
153.4618,98.2479
153.2685,98.2095
153.2685,98.2095
153.0715,98.2095
153.0715,98.2095
152.8782,98.2479
152.8782,98.2479
152.6961,98.3234
152.5322,98.4329
152.5322,98.4329
152.3929,98.5722
152.3929,98.5722
152.2834,98.7361
152.2079,98.9182
152.2079,98.9182
152.1695,99.1115
151.6305,99.1115
151.5921,98.9182
151.5166,98.7361
151.4071,98.5722
151.2678,98.4329
151.1039,98.3234
151.1039,98.3234
151.1039,98.3234
150.9218,98.2479
150.7285,98.2095
150.7285,98.2095
150.5315,98.2095
150.5315,98.2095
150.3382,98.2479
150.3382,98.2479
150.1561,98.3234
149.9922,98.4329
149.9922,98.4329
149.8529,98.5722
149.8529,98.5722
149.7434,98.7361
149.6679,98.9182
149.6679,98.9182
149.6295,99.1115
149.0905,99.1115
149.0521,98.9182
148.9766,98.7361
148.8671,98.5722
148.7278,98.4329
148.5639,98.3234
148.5639,98.3234
148.5639,98.3234
148.3818,98.2479
148.1885,98.2095
148.1885,98.2095
147.9915,98.2095
147.9915,98.2095
147.7982,98.2479
147.7982,98.2479
147.6161,98.3234
147.4522,98.4329
147.4522,98.4329
147.3129,98.5722
147.3129,98.5722
147.2034,98.7361
147.1279,98.9182
147.1279,98.9182
147.0895,99.1115
143.8487,99.1115
143.7932,99.0823
143.6398,99.0445
143.6398,99.0445
143.4818,99.0445
143.4818,99.0445
143.3284,99.0823
143.1886,99.1557
143.0703,99.2605
142.9806,99.3905
142.9246,99.5382
142.9246,99.5382
142.9055,99.6950
139.8200,99.6950
139.8139,99.6448
139.8009,99.5382
139.8009,99.5382
139.7449,99.3905
139.6552,99.2605
139.6552,99.2605
139.5369,99.1557
139.5369,99.1557
139.4526,99.1115
139.3971,99.0823
139.2437,99.0445
139.2437,99.0445
139.0857,99.0445
139.0857,99.0445
138.9323,99.0823
138.7925,99.1557
138.6742,99.2605
138.5845,99.3905
138.5285,99.5382
138.5285,99.5382
138.5094,99.6950
136.6238,99.6950
136.7823,99.5590
137.0579,99.2690
137.3029,98.9526
137.5145,98.6130
137.6907,98.2538
137.8297,97.8785
137.9300,97.4912
137.9906,97.0957
138.0108,96.6961
137.9906,96.2964
137.9300,95.9009
137.8297,95.5136
137.8297,95.5136
137.8297,95.5136
137.8297,95.5136
137.6907,95.1384
137.6907,95.1383
137.6907,95.1383
137.5145,94.7791
137.3508,94.5165
170.7035,94.5165
170.7035,94.7135
170.7419,94.9068
170.7419,94.9068
170.8174,95.0889
170.8174,95.0889
170.9269,95.2528
171.0662,95.3921
171.2301,95.5016
171.4122,95.5771
171.6055,95.6155
171.6055,95.6155
171.8025,95.6155
171.8025,95.6155
171.9958,95.5771
172.1779,95.5016
172.3418,95.3921
172.4811,95.2528
172.5906,95.0889
172.6661,94.9068
172.7045,94.7135
172.7045,94.5165
172.7045,94.5165
172.9835,94.5165
172.9835,94.7135
173.0220,94.9068
173.0220,94.9068
173.0974,95.0889
173.0974,95.0889
173.2069,95.2528
173.3462,95.3921
173.5101,95.5016
173.6922,95.5771
173.8855,95.6155
173.8855,95.6155
174.0825,95.6155
174.0825,95.6155
174.2758,95.5771
174.4579,95.5016
174.6218,95.3921
174.7611,95.2528
174.8706,95.0889
174.9461,94.9068
174.9845,94.7135
174.9845,94.5165
174.9845,94.5165
175.2635,94.5165
175.2635,94.7135
175.3019,94.9068
175.3019,94.9068
175.3774,95.0889
175.3774,95.0889
175.4869,95.2528
175.6262,95.3921
175.7901,95.5016
175.9722,95.5771
176.1655,95.6155
176.1655,95.6155
176.3625,95.6155
176.3625,95.6155
176.5558,95.5771
176.7379,95.5016
176.9018,95.3921
177.0411,95.2528
177.1506,95.0889
177.2261,94.9068
177.2645,94.7135
177.2645,94.5165
177.2261,94.3232
177.1506,94.1411
177.0411,93.9772
176.9018,93.8379
176.7379,93.7284
176.7379,93.7284
176.7379,93.7284
176.5558,93.6529
176.3625,93.6145
176.3625,93.6145
176.1655,93.6145
176.1655,93.6145
175.9722,93.6529
175.9722,93.6529
175.7901,93.7284
175.6262,93.8379
175.6262,93.8379
175.4869,93.9772
175.4869,93.9772
175.3774,94.1411
175.3019,94.3232
175.3019,94.3232
175.2635,94.5165
174.9845,94.5165
174.9461,94.3232
174.8706,94.1411
174.7611,93.9772
174.6218,93.8379
174.4579,93.7284
174.4579,93.7284
174.4579,93.7284
174.2758,93.6529
174.0825,93.6145
174.0825,93.6145
173.8855,93.6145
173.8855,93.6145
173.6922,93.6529
173.6922,93.6529
173.5101,93.7284
173.3462,93.8379
173.3462,93.8379
173.2069,93.9772
173.2069,93.9772
173.0974,94.1411
173.0220,94.3232
173.0220,94.3232
172.9835,94.5165
172.7045,94.5165
172.6661,94.3232
172.5906,94.1411
172.4811,93.9772
172.3418,93.8379
172.1779,93.7284
172.1779,93.7284
172.1779,93.7284
171.9958,93.6529
171.8025,93.6145
171.8025,93.6145
171.6055,93.6145
171.6055,93.6145
171.4122,93.6529
171.4122,93.6529
171.2301,93.7284
171.0662,93.8379
171.0662,93.8379
170.9269,93.9772
170.9269,93.9772
170.8174,94.1411
170.7419,94.3232
170.7419,94.3232
170.7035,94.5165
137.3508,94.5165
137.3029,94.4395
137.0579,94.1231
136.7823,93.8331
136.6461,93.7162
136.4787,93.5725
136.4787,93.5725
136.3325,93.4708
136.2955,93.4220
136.2943,93.3608
136.3293,93.3106
136.3870,93.2905
136.3891,93.2905
177.5641,93.2905
177.6268,93.2905
Z" /> 
</g>
<g style="fill:none; 
stroke:#D0D2CD; stroke-width:0.0500; stroke-opacity:1; 
stroke-linecap:round; stroke-linejoin:round;">
<path d="M180.1700 95.3300
L180.1700 132.7500
" />
<path d="M132.7100 92.7900 A2.5400 2.5400 0.0 0 0 130.1700 95.3300" />
<path d="M180.1700 95.3300 A2.5400 2.5400 0.0 0 0 177.6300 92.7900" />
<path d="M130.1700 132.7500
L130.1700 95.3300
" />
<path d="M130.1700 132.7500 A2.5400 2.5400 0.0 0 0 132.7100 135.2900" />
<path d="M132.7100 92.7900
L177.6300 92.7900
" />
<path d="M177.6300 135.2900 A2.5400 2.5400 0.0 0 0 180.1700 132.7500" />
<path d="M177.6300 135.2900
L132.7100 135.2900
" />
</g> 
</svg>
