<?xml version="1.0" standalone="no"?>
 <!DOCTYPE svg PUBLIC "-//W3C//DTD SVG 1.1//EN" 
 "http://www.w3.org/Graphics/SVG/1.1/DTD/svg11.dtd"> 
<svg
  xmlns:svg="http://www.w3.org/2000/svg"
  xmlns="http://www.w3.org/2000/svg"
  xmlns:xlink="http://www.w3.org/1999/xlink"
  version="1.1"
  width="297.0022mm" height="210.0072mm" viewBox="0.0000 0.0000 297.0022 210.0072">
<title>SVG Image created as 3458A Ref A9 Clone-In2_Cu.svg date 2024/11/19 21:28:16 </title>
  <desc>Image generated by PCBNEW </desc>
<g style="fill:#000000; fill-opacity:1.0000;stroke:#000000; stroke-opacity:1.0000;
stroke-linecap:round; stroke-linejoin:round;"
 transform="translate(0 0) scale(1 1)">
</g>
<g style="fill:#CE7D2C; fill-opacity:1.0000; stroke:none;">
<circle cx="167.7416" cy="109.5248" r="0.7500" /> 
</g>
<g style="fill:#CE7D2C; fill-opacity:1.0000; stroke:none;">
<circle cx="135.0010" cy="109.2708" r="0.7500" /> 
</g>
<g style="fill:#CE7D2C; fill-opacity:1.0000; stroke:none;">
<circle cx="167.7670" cy="106.1720" r="0.7500" /> 
</g>
<g style="fill:#CE7D2C; fill-opacity:1.0000; stroke:none;">
<circle cx="172.5430" cy="124.5200" r="0.7500" /> 
</g>
<g style="fill:#CE7D2C; fill-opacity:1.0000; stroke:none;">
<circle cx="171.6878" cy="122.4552" r="0.7500" /> 
</g>
<g style="fill:#CE7D2C; fill-opacity:1.0000; stroke:none;">
<circle cx="169.6230" cy="121.6000" r="0.7500" /> 
</g>
<g style="fill:#CE7D2C; fill-opacity:1.0000; stroke:none;">
<circle cx="167.5583" cy="122.4552" r="0.7500" /> 
</g>
<g style="fill:#CE7D2C; fill-opacity:1.0000; stroke:none;">
<circle cx="166.7030" cy="124.5200" r="0.7500" /> 
</g>
<g style="fill:#CE7D2C; fill-opacity:1.0000; stroke:none;">
<circle cx="167.5583" cy="126.5847" r="0.7500" /> 
</g>
<g style="fill:#CE7D2C; fill-opacity:1.0000; stroke:none;">
<circle cx="169.6230" cy="127.4400" r="0.7500" /> 
</g>
<g style="fill:#CE7D2C; fill-opacity:1.0000; stroke:none;">
<circle cx="171.6878" cy="126.5847" r="0.7500" /> 
<path style="fill:#CE7D2C; fill-opacity:1.0000; stroke:none;fill-rule:evenodd;"
d="M 170.8600,96.0220
170.8600,94.2220
172.5700,94.2220
172.5700,96.0220
Z" /> 
</g>
<g style="fill:none; 
stroke:#CE7D2C; stroke-width:1.7100; stroke-opacity:1; 
stroke-linecap:round; stroke-linejoin:round;">
<path d="M173.9950 95.0770
L173.9950 95.1670
" />
<path d="M176.2750 95.0770
L176.2750 95.1670
" />
</g>
<g style="fill:#ECECEC; fill-opacity:1.0000; stroke:none;">
<circle cx="145.9485" cy="123.9520" r="0.3000" /> 
</g>
<g style="fill:#ECECEC; fill-opacity:1.0000; stroke:none;">
<circle cx="145.9485" cy="124.9680" r="0.3000" /> 
</g>
<g style="fill:#ECECEC; fill-opacity:1.0000; stroke:none;">
<circle cx="145.9485" cy="124.4600" r="0.3000" /> 
</g>
<g style="fill:#ECECEC; fill-opacity:1.0000; stroke:none;">
<circle cx="176.6570" cy="112.9030" r="0.3000" /> 
</g>
<g style="fill:#ECECEC; fill-opacity:1.0000; stroke:none;">
<circle cx="176.6570" cy="113.9190" r="0.3000" /> 
</g>
<g style="fill:#ECECEC; fill-opacity:1.0000; stroke:none;">
<circle cx="176.6570" cy="113.4110" r="0.3000" /> 
</g>
<g style="fill:#ECECEC; fill-opacity:1.0000; stroke:none;">
<circle cx="175.7680" cy="110.9980" r="0.3000" /> 
</g>
<g style="fill:#ECECEC; fill-opacity:1.0000; stroke:none;">
<circle cx="175.7680" cy="111.5060" r="0.3000" /> 
</g>
<g style="fill:#ECECEC; fill-opacity:1.0000; stroke:none;">
<circle cx="175.7680" cy="112.0140" r="0.3000" /> 
</g>
<g style="fill:#ECECEC; fill-opacity:1.0000; stroke:none;">
<circle cx="153.9240" cy="106.4260" r="0.3000" /> 
</g>
<g style="fill:#ECECEC; fill-opacity:1.0000; stroke:none;">
<circle cx="153.9240" cy="107.4420" r="0.3000" /> 
</g>
<g style="fill:#ECECEC; fill-opacity:1.0000; stroke:none;">
<circle cx="153.9240" cy="106.9340" r="0.3000" /> 
</g>
<g style="fill:#ECECEC; fill-opacity:1.0000; stroke:none;">
<circle cx="160.5534" cy="95.4532" r="0.3000" /> 
</g>
<g style="fill:#ECECEC; fill-opacity:1.0000; stroke:none;">
<circle cx="137.7188" cy="122.6820" r="0.3000" /> 
</g>
<g style="fill:#ECECEC; fill-opacity:1.0000; stroke:none;">
<circle cx="154.1780" cy="116.9670" r="0.3000" /> 
</g>
<g style="fill:#ECECEC; fill-opacity:1.0000; stroke:none;">
<circle cx="165.8620" cy="110.7440" r="0.3000" /> 
</g>
<g style="fill:#ECECEC; fill-opacity:1.0000; stroke:none;">
<circle cx="154.1780" cy="117.9830" r="0.3000" /> 
</g>
<g style="fill:#ECECEC; fill-opacity:1.0000; stroke:none;">
<circle cx="154.1780" cy="117.4750" r="0.3000" /> 
</g>
<g style="fill:#ECECEC; fill-opacity:1.0000; stroke:none;">
<circle cx="138.2268" cy="122.6820" r="0.3000" /> 
</g>
<g style="fill:#ECECEC; fill-opacity:1.0000; stroke:none;">
<circle cx="137.2108" cy="122.6820" r="0.3000" /> 
</g>
<g style="fill:#ECECEC; fill-opacity:1.0000; stroke:none;">
<circle cx="165.8620" cy="111.7600" r="0.3000" /> 
</g>
<g style="fill:#ECECEC; fill-opacity:1.0000; stroke:none;">
<circle cx="165.8620" cy="111.2520" r="0.3000" /> 
</g>
<g style="fill:#ECECEC; fill-opacity:1.0000; stroke:none;">
<circle cx="161.0614" cy="95.4532" r="0.3000" /> 
</g>
<g style="fill:#ECECEC; fill-opacity:1.0000; stroke:none;">
<circle cx="161.5694" cy="95.4532" r="0.3000" /> 
</g>
<g style="fill:#ECECEC; fill-opacity:1.0000; stroke:none;">
<circle cx="139.2155" cy="100.2030" r="0.3000" /> 
</g>
<g style="fill:#ECECEC; fill-opacity:1.0000; stroke:none;">
<circle cx="159.0530" cy="106.1720" r="0.3000" /> 
</g>
<g style="fill:#ECECEC; fill-opacity:1.0000; stroke:none;">
<circle cx="159.0530" cy="106.6800" r="0.3000" /> 
</g>
<g style="fill:#ECECEC; fill-opacity:1.0000; stroke:none;">
<circle cx="145.0340" cy="103.7590" r="0.3000" /> 
</g>
<g style="fill:#ECECEC; fill-opacity:1.0000; stroke:none;">
<circle cx="159.0530" cy="105.6640" r="0.3000" /> 
</g>
<g style="fill:#ECECEC; fill-opacity:1.0000; stroke:none;">
<circle cx="145.0340" cy="104.2670" r="0.3000" /> 
</g>
<g style="fill:#ECECEC; fill-opacity:1.0000; stroke:none;">
<circle cx="141.5542" cy="107.8230" r="0.3000" /> 
</g>
<g style="fill:#ECECEC; fill-opacity:1.0000; stroke:none;">
<circle cx="145.0340" cy="104.7750" r="0.3000" /> 
</g>
<g style="fill:#ECECEC; fill-opacity:1.0000; stroke:none;">
<circle cx="132.5880" cy="127.6350" r="0.3000" /> 
</g>
<g style="fill:#ECECEC; fill-opacity:1.0000; stroke:none;">
<circle cx="132.5880" cy="127.1270" r="0.3000" /> 
</g>
<g style="fill:#ECECEC; fill-opacity:1.0000; stroke:none;">
<circle cx="141.5542" cy="108.3310" r="0.3000" /> 
</g>
<g style="fill:#ECECEC; fill-opacity:1.0000; stroke:none;">
<circle cx="141.5542" cy="108.8390" r="0.3000" /> 
</g>
<g style="fill:#ECECEC; fill-opacity:1.0000; stroke:none;">
<circle cx="139.2155" cy="100.7110" r="0.3000" /> 
</g>
<g style="fill:#ECECEC; fill-opacity:1.0000; stroke:none;">
<circle cx="132.5880" cy="126.6190" r="0.3000" /> 
</g>
<g style="fill:#ECECEC; fill-opacity:1.0000; stroke:none;">
<circle cx="139.2155" cy="99.6950" r="0.3000" /> 
</g>
<g style="fill:#ECECEC; fill-opacity:1.0000; stroke:none;">
<circle cx="141.2240" cy="127.2540" r="0.3000" /> 
</g>
<g style="fill:#ECECEC; fill-opacity:1.0000; stroke:none;">
<circle cx="151.5110" cy="114.9350" r="0.3000" /> 
</g>
<g style="fill:#ECECEC; fill-opacity:1.0000; stroke:none;">
<circle cx="151.5110" cy="114.4270" r="0.3000" /> 
</g>
<g style="fill:#ECECEC; fill-opacity:1.0000; stroke:none;">
<circle cx="141.2240" cy="127.7620" r="0.3000" /> 
</g>
<g style="fill:#ECECEC; fill-opacity:1.0000; stroke:none;">
<circle cx="141.2240" cy="128.2700" r="0.3000" /> 
</g>
<g style="fill:#ECECEC; fill-opacity:1.0000; stroke:none;">
<circle cx="151.5110" cy="115.4430" r="0.3000" /> 
</g>
<g style="fill:#ECECEC; fill-opacity:1.0000; stroke:none;">
<circle cx="167.3860" cy="99.3140" r="0.3000" /> 
</g>
<g style="fill:#ECECEC; fill-opacity:1.0000; stroke:none;">
<circle cx="167.8940" cy="99.3140" r="0.3000" /> 
</g>
<g style="fill:#ECECEC; fill-opacity:1.0000; stroke:none;">
<circle cx="168.4020" cy="99.3140" r="0.3000" /> 
</g>
<g style="fill:#ECECEC; fill-opacity:1.0000; stroke:none;">
<circle cx="167.6726" cy="129.2309" r="0.3000" /> 
</g>
<g style="fill:#ECECEC; fill-opacity:1.0000; stroke:none;">
<circle cx="168.6604" cy="129.5362" r="0.3000" /> 
</g>
<g style="fill:#ECECEC; fill-opacity:1.0000; stroke:none;">
<circle cx="173.2633" cy="126.8366" r="0.3000" /> 
</g>
<g style="fill:#ECECEC; fill-opacity:1.0000; stroke:none;">
<circle cx="170.6880" cy="124.5200" r="0.3000" /> 
</g>
<g style="fill:#ECECEC; fill-opacity:1.0000; stroke:none;">
<circle cx="168.2164" cy="124.9416" r="0.3000" /> 
</g>
<g style="fill:#ECECEC; fill-opacity:1.0000; stroke:none;">
<circle cx="167.3528" cy="120.8716" r="0.3000" /> 
</g>
<g style="fill:#ECECEC; fill-opacity:1.0000; stroke:none;">
<circle cx="170.5996" cy="120.3300" r="0.3000" /> 
</g>
<g style="fill:#ECECEC; fill-opacity:1.0000; stroke:none;">
<circle cx="168.6604" cy="128.7100" r="0.3000" /> 
</g>
<g style="fill:#ECECEC; fill-opacity:1.0000; stroke:none;">
<circle cx="165.9816" cy="126.7972" r="0.3000" /> 
</g>
<g style="fill:#ECECEC; fill-opacity:1.0000; stroke:none;">
<circle cx="170.5610" cy="128.7272" r="0.3000" /> 
</g>
<g style="fill:#ECECEC; fill-opacity:1.0000; stroke:none;">
<circle cx="173.1768" cy="123.0630" r="0.3000" /> 
</g>
<g style="fill:#ECECEC; fill-opacity:1.0000; stroke:none;">
<circle cx="164.6100" cy="125.4510" r="0.3000" /> 
</g>
<g style="fill:#ECECEC; fill-opacity:1.0000; stroke:none;">
<circle cx="165.4228" cy="125.4510" r="0.3000" /> 
</g>
<g style="fill:#ECECEC; fill-opacity:1.0000; stroke:none;">
<circle cx="170.5610" cy="129.5400" r="0.3000" /> 
</g>
<g style="fill:#ECECEC; fill-opacity:1.0000; stroke:none;">
<circle cx="168.2164" cy="124.1034" r="0.3000" /> 
</g>
<g style="fill:#ECECEC; fill-opacity:1.0000; stroke:none;">
<circle cx="173.8372" cy="123.5890" r="0.3000" /> 
</g>
<g style="fill:#ECECEC; fill-opacity:1.0000; stroke:none;">
<circle cx="164.6138" cy="123.5504" r="0.3000" /> 
</g>
<g style="fill:#ECECEC; fill-opacity:1.0000; stroke:none;">
<circle cx="164.9148" cy="126.4670" r="0.3000" /> 
</g>
<g style="fill:#ECECEC; fill-opacity:1.0000; stroke:none;">
<circle cx="173.1682" cy="125.9977" r="0.3000" /> 
</g>
<g style="fill:#ECECEC; fill-opacity:1.0000; stroke:none;">
<circle cx="174.6462" cy="125.4896" r="0.3000" /> 
</g>
<g style="fill:#ECECEC; fill-opacity:1.0000; stroke:none;">
<circle cx="168.1730" cy="120.9732" r="0.3000" /> 
</g>
<g style="fill:#ECECEC; fill-opacity:1.0000; stroke:none;">
<circle cx="171.9467" cy="120.8867" r="0.3000" /> 
</g>
<g style="fill:#ECECEC; fill-opacity:1.0000; stroke:none;">
<circle cx="174.6500" cy="123.5890" r="0.3000" /> 
</g>
<g style="fill:#ECECEC; fill-opacity:1.0000; stroke:none;">
<circle cx="166.7686" cy="120.2874" r="0.3000" /> 
</g>
<g style="fill:#ECECEC; fill-opacity:1.0000; stroke:none;">
<circle cx="171.5875" cy="119.8091" r="0.3000" /> 
</g>
<g style="fill:#ECECEC; fill-opacity:1.0000; stroke:none;">
<circle cx="171.1077" cy="120.9818" r="0.3000" /> 
</g>
<g style="fill:#ECECEC; fill-opacity:1.0000; stroke:none;">
<circle cx="165.4220" cy="121.6286" r="0.3000" /> 
</g>
<g style="fill:#ECECEC; fill-opacity:1.0000; stroke:none;">
<circle cx="165.4400" cy="123.5504" r="0.3000" /> 
</g>
<g style="fill:#ECECEC; fill-opacity:1.0000; stroke:none;">
<circle cx="171.9072" cy="128.1684" r="0.3000" /> 
</g>
<g style="fill:#ECECEC; fill-opacity:1.0000; stroke:none;">
<circle cx="166.0832" cy="125.9770" r="0.3000" /> 
</g>
<g style="fill:#ECECEC; fill-opacity:1.0000; stroke:none;">
<circle cx="167.6830" cy="119.8048" r="0.3000" /> 
</g>
<g style="fill:#ECECEC; fill-opacity:1.0000; stroke:none;">
<circle cx="170.1800" cy="124.5200" r="0.3000" /> 
</g>
<g style="fill:#ECECEC; fill-opacity:1.0000; stroke:none;">
<circle cx="173.2784" cy="122.2428" r="0.3000" /> 
</g>
<g style="fill:#ECECEC; fill-opacity:1.0000; stroke:none;">
<circle cx="173.8200" cy="125.4896" r="0.3000" /> 
</g>
<g style="fill:#ECECEC; fill-opacity:1.0000; stroke:none;">
<circle cx="172.5214" cy="120.3120" r="0.3000" /> 
</g>
<g style="fill:#ECECEC; fill-opacity:1.0000; stroke:none;">
<circle cx="171.0436" cy="124.9426" r="0.3000" /> 
</g>
<g style="fill:#ECECEC; fill-opacity:1.0000; stroke:none;">
<circle cx="168.6990" cy="120.3128" r="0.3000" /> 
</g>
<g style="fill:#ECECEC; fill-opacity:1.0000; stroke:none;">
<circle cx="171.0436" cy="124.1044" r="0.3000" /> 
</g>
<g style="fill:#ECECEC; fill-opacity:1.0000; stroke:none;">
<circle cx="174.3409" cy="126.4774" r="0.3000" /> 
</g>
<g style="fill:#ECECEC; fill-opacity:1.0000; stroke:none;">
<circle cx="166.0918" cy="123.0423" r="0.3000" /> 
</g>
<g style="fill:#ECECEC; fill-opacity:1.0000; stroke:none;">
<circle cx="164.9191" cy="122.5625" r="0.3000" /> 
</g>
<g style="fill:#ECECEC; fill-opacity:1.0000; stroke:none;">
<circle cx="173.8626" cy="121.6586" r="0.3000" /> 
</g>
<g style="fill:#ECECEC; fill-opacity:1.0000; stroke:none;">
<circle cx="174.3452" cy="122.5730" r="0.3000" /> 
</g>
<g style="fill:#ECECEC; fill-opacity:1.0000; stroke:none;">
<circle cx="166.7386" cy="128.7280" r="0.3000" /> 
</g>
<g style="fill:#ECECEC; fill-opacity:1.0000; stroke:none;">
<circle cx="167.3134" cy="128.1532" r="0.3000" /> 
</g>
<g style="fill:#ECECEC; fill-opacity:1.0000; stroke:none;">
<circle cx="165.9968" cy="122.2033" r="0.3000" /> 
</g>
<g style="fill:#ECECEC; fill-opacity:1.0000; stroke:none;">
<circle cx="172.4914" cy="128.7526" r="0.3000" /> 
</g>
<g style="fill:#ECECEC; fill-opacity:1.0000; stroke:none;">
<circle cx="169.6300" cy="124.5200" r="0.3000" /> 
</g>
<g style="fill:#ECECEC; fill-opacity:1.0000; stroke:none;">
<circle cx="165.3974" cy="127.3814" r="0.3000" /> 
</g>
<g style="fill:#ECECEC; fill-opacity:1.0000; stroke:none;">
<circle cx="173.8380" cy="127.4114" r="0.3000" /> 
</g>
<g style="fill:#ECECEC; fill-opacity:1.0000; stroke:none;">
<circle cx="171.5770" cy="129.2352" r="0.3000" /> 
</g>
<g style="fill:#ECECEC; fill-opacity:1.0000; stroke:none;">
<circle cx="170.5996" cy="119.5038" r="0.3000" /> 
</g>
<g style="fill:#ECECEC; fill-opacity:1.0000; stroke:none;">
<circle cx="168.5720" cy="124.5190" r="0.3000" /> 
</g>
<g style="fill:#ECECEC; fill-opacity:1.0000; stroke:none;">
<circle cx="169.0800" cy="124.5190" r="0.3000" /> 
</g>
<g style="fill:#ECECEC; fill-opacity:1.0000; stroke:none;">
<circle cx="171.0870" cy="128.0668" r="0.3000" /> 
</g>
<g style="fill:#ECECEC; fill-opacity:1.0000; stroke:none;">
<circle cx="168.6990" cy="119.5000" r="0.3000" /> 
</g>
<g style="fill:#ECECEC; fill-opacity:1.0000; stroke:none;">
<circle cx="168.1523" cy="128.0582" r="0.3000" /> 
</g>
<g style="fill:#ECECEC; fill-opacity:1.0000; stroke:none;">
<circle cx="141.7438" cy="104.2670" r="0.3000" /> 
</g>
<g style="fill:#ECECEC; fill-opacity:1.0000; stroke:none;">
<circle cx="138.5452" cy="103.5050" r="0.3000" /> 
</g>
<g style="fill:#ECECEC; fill-opacity:1.0000; stroke:none;">
<circle cx="143.5100" cy="100.7110" r="0.3000" /> 
</g>
<g style="fill:#ECECEC; fill-opacity:1.0000; stroke:none;">
<circle cx="141.7438" cy="104.7750" r="0.3000" /> 
</g>
<g style="fill:#ECECEC; fill-opacity:1.0000; stroke:none;">
<circle cx="143.5100" cy="99.6950" r="0.3000" /> 
</g>
<g style="fill:#ECECEC; fill-opacity:1.0000; stroke:none;">
<circle cx="138.5452" cy="102.9970" r="0.3000" /> 
</g>
<g style="fill:#ECECEC; fill-opacity:1.0000; stroke:none;">
<circle cx="138.5452" cy="102.4890" r="0.3000" /> 
</g>
<g style="fill:#ECECEC; fill-opacity:1.0000; stroke:none;">
<circle cx="143.5100" cy="100.2030" r="0.3000" /> 
</g>
<g style="fill:#ECECEC; fill-opacity:1.0000; stroke:none;">
<circle cx="141.7438" cy="103.7590" r="0.3000" /> 
</g>
<g style="fill:#ECECEC; fill-opacity:1.0000; stroke:none;">
<circle cx="163.1950" cy="111.3790" r="0.3000" /> 
</g>
<g style="fill:#ECECEC; fill-opacity:1.0000; stroke:none;">
<circle cx="164.2110" cy="111.3790" r="0.3000" /> 
</g>
<g style="fill:#ECECEC; fill-opacity:1.0000; stroke:none;">
<circle cx="172.3390" cy="100.3300" r="0.3000" /> 
</g>
<g style="fill:#ECECEC; fill-opacity:1.0000; stroke:none;">
<circle cx="171.5770" cy="101.0920" r="0.3000" /> 
</g>
<g style="fill:#ECECEC; fill-opacity:1.0000; stroke:none;">
<circle cx="163.7030" cy="111.3790" r="0.3000" /> 
</g>
<g style="fill:#ECECEC; fill-opacity:1.0000; stroke:none;">
<circle cx="171.9580" cy="100.7110" r="0.3000" /> 
</g>
<g style="fill:#ECECEC; fill-opacity:1.0000; stroke:none;">
<circle cx="170.1492" cy="100.0779" r="0.3000" /> 
</g>
<g style="fill:#ECECEC; fill-opacity:1.0000; stroke:none;">
<circle cx="171.2268" cy="100.0779" r="0.3000" /> 
</g>
<g style="fill:#ECECEC; fill-opacity:1.0000; stroke:none;">
<circle cx="156.2100" cy="113.2840" r="0.3000" /> 
</g>
<g style="fill:#ECECEC; fill-opacity:1.0000; stroke:none;">
<circle cx="155.0670" cy="113.2840" r="0.3000" /> 
</g>
<g style="fill:#ECECEC; fill-opacity:1.0000; stroke:none;">
<circle cx="155.6370" cy="113.2840" r="0.3000" /> 
</g>
<g style="fill:#ECECEC; fill-opacity:1.0000; stroke:none;">
<circle cx="170.6880" cy="100.0779" r="0.3000" /> 
<path style="fill:#CE7D2C; fill-opacity:1.0000; stroke:none;fill-rule:evenodd;"
d="M 170.4235,122.6496
170.4586,122.6997
170.4595,122.7030
170.5082,122.8846
170.5229,122.9160
170.6007,123.0829
170.7236,123.2584
170.7262,123.2621
170.8809,123.4168
170.8809,123.4168
170.8809,123.4168
170.9206,123.4446
171.0601,123.5423
171.2584,123.6348
171.4400,123.6835
171.4913,123.7168
171.5132,123.7739
171.4974,123.8330
171.4955,123.8359
171.4559,123.8924
171.4559,123.8924
171.3634,124.0907
171.3068,124.3020
171.2877,124.5200
171.2877,124.5200
171.3068,124.7380
171.3068,124.7380
171.3068,124.7380
171.3634,124.9493
171.4351,125.1029
171.4559,125.1476
171.4955,125.2041
171.5134,125.2626
171.4934,125.3205
171.4433,125.3556
171.4400,125.3565
171.2584,125.4052
171.0601,125.4976
171.0601,125.4976
170.8809,125.6231
170.7262,125.7779
170.6007,125.9571
170.6007,125.9571
170.5082,126.1554
170.4595,126.3370
170.4262,126.3883
170.3691,126.4102
170.3100,126.3944
170.3071,126.3924
170.2507,126.3529
170.0523,126.2604
169.8410,126.2038
169.8410,126.2038
169.8410,126.2038
169.6230,126.1847
169.6230,126.1847
169.4050,126.2038
169.1937,126.2604
168.9954,126.3529
168.9954,126.3529
168.9389,126.3924
168.8804,126.4103
168.8225,126.3904
168.7874,126.3403
168.7865,126.3370
168.7378,126.1554
168.6454,125.9571
168.5616,125.8374
168.5199,125.7779
168.5199,125.7779
168.5199,125.7779
168.3651,125.6231
168.3651,125.6231
168.3651,125.6231
168.2657,125.5535
168.1859,125.4976
167.9876,125.4052
167.8503,125.3684
167.8060,125.3565
167.7547,125.3232
167.7328,125.2661
167.7486,125.2070
167.7505,125.2042
167.7901,125.1476
167.8826,124.9493
167.9392,124.7380
167.9534,124.5761
167.9583,124.5200
167.9583,124.5200
167.9392,124.3020
167.9392,124.3020
167.9392,124.3020
167.8826,124.0907
167.8562,124.0340
167.7901,123.8924
167.7901,123.8923
167.7506,123.8359
167.7327,123.7774
167.7526,123.7195
167.8027,123.6844
167.8060,123.6835
167.9876,123.6348
168.1859,123.5423
168.3651,123.4168
168.5199,123.2621
168.6454,123.0829
168.7378,122.8846
168.7865,122.7030
168.8198,122.6517
168.8769,122.6298
168.9360,122.6456
168.9389,122.6475
168.9954,122.6871
169.1937,122.7796
169.4050,122.8362
169.4050,122.8362
169.4050,122.8362
169.6230,122.8553
169.6230,122.8553
169.6230,122.8553
169.8410,122.8362
169.8410,122.8362
169.8410,122.8362
170.0523,122.7796
170.2507,122.6871
170.3071,122.6475
170.3656,122.6296
Z" /> 
<path style="fill:#CE7D2C; fill-opacity:1.0000; stroke:none;fill-rule:evenodd;"
d="M 170.0339,119.0813
170.0413,119.0818
170.4392,119.1267
170.4465,119.1278
170.5426,119.1460
170.8400,119.2022
170.8472,119.2039
171.2340,119.3075
171.2411,119.3097
171.6190,119.4420
171.6259,119.4447
171.9930,119.6048
171.9996,119.6080
172.3537,119.7951
172.3600,119.7988
172.6991,120.0119
172.7052,120.0160
173.0274,120.2538
173.0332,120.2584
173.3289,120.5129
173.3367,120.5196
173.3422,120.5247
173.6253,120.8078
173.6304,120.8133
173.8916,121.1168
173.8962,121.1226
174.1340,121.4448
174.1381,121.4509
174.3512,121.7899
174.3549,121.7963
174.5420,122.1504
174.5452,122.1570
174.7053,122.5241
174.7081,122.5310
174.8403,122.9089
174.8425,122.9160
174.9461,123.3028
174.9478,123.3100
175.0222,123.7035
175.0233,123.7108
175.0682,124.1087
175.0687,124.1161
175.0837,124.5163
175.0837,124.5237
175.0687,124.9238
175.0682,124.9312
175.0233,125.3292
175.0222,125.3365
174.9478,125.7299
174.9461,125.7371
174.8425,126.1239
174.8403,126.1310
174.7081,126.5090
174.7053,126.5159
174.5452,126.8829
174.5420,126.8896
174.3549,127.2436
174.3512,127.2500
174.1381,127.5891
174.1340,127.5952
173.8962,127.9174
173.8916,127.9232
173.6304,128.2267
173.6253,128.2321
173.3422,128.5153
173.3367,128.5203
173.0332,128.7815
173.0274,128.7862
172.7052,129.0239
172.6991,129.0281
172.3601,129.2412
172.3537,129.2449
171.9996,129.4320
171.9930,129.4352
171.6259,129.5953
171.6190,129.5980
171.2411,129.7303
171.2340,129.7325
170.8472,129.8361
170.8400,129.8377
170.4465,129.9122
170.4392,129.9133
170.0413,129.9581
170.0339,129.9587
169.6337,129.9737
169.6263,129.9737
169.2262,129.9587
169.2188,129.9581
168.8209,129.9133
168.8135,129.9122
168.4201,129.8377
168.4129,129.8361
168.0261,129.7325
168.0190,129.7303
167.6410,129.5980
167.6341,129.5953
167.2671,129.4352
167.2604,129.4320
166.9064,129.2448
166.9000,129.2412
166.7059,129.1192
166.5609,129.0281
166.5548,129.0239
166.2326,128.7862
166.2268,128.7815
165.9233,128.5203
165.9179,128.5153
165.6347,128.2321
165.6297,128.2267
165.3685,127.9232
165.3638,127.9174
165.3284,127.8693
165.1261,127.5952
165.1219,127.5891
164.9978,127.3916
164.9088,127.2500
164.9052,127.2436
164.7180,126.8896
164.7148,126.8829
164.5547,126.5159
164.5520,126.5090
164.5174,126.4102
164.4197,126.1310
164.4175,126.1239
164.3569,125.8978
164.3139,125.7371
164.3123,125.7299
164.3065,125.6996
164.2378,125.3365
164.2367,125.3292
164.2364,125.3269
164.1919,124.9312
164.1913,124.9238
164.1844,124.7380
164.1763,124.5237
164.1763,124.5200
165.4477,124.5200
165.4477,124.5200
165.4668,124.7380
165.4668,124.7380
165.4668,124.7380
165.5234,124.9493
165.5951,125.1029
165.6159,125.1476
165.7388,125.3232
165.7414,125.3269
165.8961,125.4816
165.8961,125.4816
165.8961,125.4816
165.9358,125.5094
166.0754,125.6071
166.2737,125.6996
166.4552,125.7482
166.5066,125.7815
166.5285,125.8387
166.5126,125.8978
166.5107,125.9006
166.4712,125.9571
166.4712,125.9571
166.3787,126.1554
166.3221,126.3668
166.3030,126.5847
166.3030,126.5847
166.3221,126.8027
166.3221,126.8027
166.3221,126.8027
166.3787,127.0141
166.4712,127.2124
166.5967,127.3916
166.7514,127.5463
166.9306,127.6718
167.1289,127.7643
167.3403,127.8209
167.3403,127.8209
167.3403,127.8209
167.5583,127.8400
167.5583,127.8400
167.5583,127.8400
167.7762,127.8209
167.7762,127.8209
167.7762,127.8209
167.9876,127.7643
168.1859,127.6718
168.2424,127.6323
168.3009,127.6144
168.3587,127.6343
168.3938,127.6844
168.3948,127.6878
168.4434,127.8693
168.4673,127.9204
168.5359,128.0676
168.6511,128.2321
168.6614,128.2469
168.8161,128.4016
168.9954,128.5271
169.1937,128.6196
169.4050,128.6762
169.4050,128.6762
169.4050,128.6762
169.6230,128.6953
169.6230,128.6953
169.6230,128.6953
169.8410,128.6762
169.8410,128.6762
169.8410,128.6762
170.0523,128.6196
170.2507,128.5271
170.4299,128.4016
170.5846,128.2469
170.7101,128.0676
170.8026,127.8693
170.8512,127.6878
170.8846,127.6364
170.9417,127.6145
171.0008,127.6304
171.0036,127.6323
171.0601,127.6718
171.2584,127.7643
171.4698,127.8209
171.4698,127.8209
171.4698,127.8209
171.6878,127.8400
171.6878,127.8400
171.6878,127.8400
171.9057,127.8209
171.9057,127.8209
171.9057,127.8209
172.1171,127.7643
172.3154,127.6718
172.4946,127.5463
172.6494,127.3916
172.7749,127.2124
172.8673,127.0141
172.9240,126.8027
172.9430,126.5847
172.9370,126.5159
172.9240,126.3668
172.9240,126.3668
172.9240,126.3668
172.8673,126.1554
172.7749,125.9571
172.7353,125.9006
172.7174,125.8421
172.7374,125.7843
172.7875,125.7492
172.7908,125.7482
172.9723,125.6996
173.1707,125.6071
173.3499,125.4816
173.5046,125.3269
173.6301,125.1476
173.7226,124.9493
173.7792,124.7380
173.7934,124.5761
173.7983,124.5200
173.7983,124.5200
173.7792,124.3020
173.7792,124.3020
173.7792,124.3020
173.7226,124.0907
173.6962,124.0340
173.6301,123.8924
173.6301,123.8923
173.5046,123.7131
173.5046,123.7131
173.5046,123.7131
173.3499,123.5584
173.3499,123.5584
173.3499,123.5584
173.2505,123.4888
173.1707,123.4329
172.9723,123.3404
172.8263,123.3013
172.7908,123.2918
172.7395,123.2584
172.7176,123.2013
172.7334,123.1422
172.7353,123.1394
172.7749,123.0829
172.8673,122.8846
172.9240,122.6732
172.9260,122.6496
172.9430,122.4552
172.9430,122.4552
172.9240,122.2373
172.9240,122.2373
172.9240,122.2373
172.8673,122.0259
172.7749,121.8276
172.6494,121.6484
172.4946,121.4936
172.4946,121.4936
172.4946,121.4936
172.3352,121.3820
172.3154,121.3681
172.1171,121.2757
171.9057,121.2190
171.9057,121.2190
171.9057,121.2190
171.6878,121.2000
171.6878,121.2000
171.4698,121.2190
171.2584,121.2757
171.0601,121.3681
171.0601,121.3681
171.0036,121.4077
170.9451,121.4256
170.8873,121.4056
170.8522,121.3555
170.8512,121.3522
170.8026,121.1707
170.7101,120.9723
170.5987,120.8133
170.5846,120.7931
170.5846,120.7931
170.5846,120.7931
170.4299,120.6384
170.4299,120.6384
170.4299,120.6384
170.2675,120.5247
170.2507,120.5129
170.0523,120.4204
169.8410,120.3638
169.8410,120.3638
169.8410,120.3638
169.6230,120.3447
169.6230,120.3447
169.4050,120.3638
169.1937,120.4204
168.9954,120.5129
168.9954,120.5129
168.8161,120.6384
168.6614,120.7931
168.5359,120.9723
168.5359,120.9724
168.4434,121.1706
168.3948,121.3522
168.3615,121.4035
168.3043,121.4254
168.2452,121.4096
168.2424,121.4077
168.1859,121.3681
167.9876,121.2757
167.7762,121.2190
167.7762,121.2190
167.7762,121.2190
167.5583,121.2000
167.5583,121.2000
167.3403,121.2190
167.1289,121.2757
166.9306,121.3681
166.9306,121.3681
166.7514,121.4936
166.5967,121.6484
166.4712,121.8276
166.4712,121.8276
166.3787,122.0259
166.3221,122.2373
166.3030,122.4552
166.3030,122.4552
166.3221,122.6732
166.3221,122.6732
166.3221,122.6732
166.3787,122.8846
166.3934,122.9160
166.4712,123.0829
166.5107,123.1394
166.5286,123.1979
166.5087,123.2557
166.4586,123.2908
166.4552,123.2918
166.2737,123.3404
166.0754,123.4329
166.0754,123.4329
165.8961,123.5584
165.7414,123.7131
165.6159,123.8923
165.6159,123.8924
165.5234,124.0907
165.4668,124.3020
165.4477,124.5200
164.1763,124.5200
164.1763,124.5163
164.1913,124.1161
164.1919,124.1088
164.2367,123.7108
164.2378,123.7035
164.2653,123.5584
164.3123,123.3100
164.3139,123.3028
164.4175,122.9160
164.4197,122.9089
164.4283,122.8846
164.5520,122.5310
164.5547,122.5241
164.7148,122.1570
164.7180,122.1504
164.9052,121.7963
164.9088,121.7900
165.1219,121.4509
165.1261,121.4448
165.3639,121.1226
165.3684,121.1168
165.6297,120.8132
165.6347,120.8078
165.9179,120.5247
165.9233,120.5197
166.2268,120.2584
166.2326,120.2538
166.5548,120.0160
166.5609,120.0119
166.9000,119.7988
166.9063,119.7951
167.2604,119.6080
167.2670,119.6048
167.6341,119.4446
167.6410,119.4420
168.0190,119.3097
168.0260,119.3075
168.4129,119.2039
168.4201,119.2022
168.8135,119.1278
168.8208,119.1267
169.2188,119.0818
169.2261,119.0813
169.6263,119.0663
169.6337,119.0663
Z" /> 
<path style="fill:#CE7D2C; fill-opacity:1.0000; stroke:none;fill-rule:evenodd;"
d="M 177.6332,93.2907
177.8897,93.3075
177.9026,93.3092
178.1515,93.3587
178.1640,93.3621
178.3167,93.4139
178.4043,93.4437
178.4163,93.4486
178.6439,93.5609
178.6551,93.5673
178.8662,93.7084
178.8764,93.7162
179.0673,93.8836
179.0764,93.8927
179.2438,94.0836
179.2516,94.0938
179.3927,94.3049
179.3991,94.3161
179.5114,94.5437
179.5163,94.5557
179.5979,94.7960
179.6013,94.8085
179.6508,95.0574
179.6525,95.0703
179.6693,95.3268
179.6695,95.3332
179.6695,132.7468
179.6693,132.7532
179.6525,133.0097
179.6508,133.0226
179.6013,133.2715
179.5979,133.2840
179.5163,133.5243
179.5114,133.5363
179.3991,133.7639
179.3927,133.7751
179.2516,133.9862
179.2438,133.9964
179.0764,134.1873
179.0673,134.1964
178.8764,134.3638
178.8662,134.3716
178.6551,134.5127
178.6439,134.5191
178.4163,134.6314
178.4043,134.6363
178.1640,134.7179
178.1515,134.7213
177.9026,134.7708
177.8897,134.7725
177.6332,134.7893
177.6268,134.7895
132.7132,134.7895
132.7068,134.7893
132.4503,134.7725
132.4374,134.7708
132.1885,134.7213
132.1760,134.7179
131.9357,134.6363
131.9237,134.6314
131.6961,134.5191
131.6849,134.5127
131.4738,134.3716
131.4636,134.3638
131.2727,134.1964
131.2636,134.1873
131.0962,133.9964
131.0884,133.9862
130.9473,133.7751
130.9409,133.7639
130.8286,133.5363
130.8237,133.5243
130.8016,133.4593
130.7421,133.2840
130.7387,133.2715
130.7277,133.2163
130.6892,133.0226
130.6875,133.0097
130.6857,132.9818
130.6707,132.7532
130.6705,132.7468
130.6705,131.3465
142.8905,131.3465
142.8905,131.5435
142.9289,131.7368
142.9289,131.7368
143.0044,131.9189
143.0044,131.9189
143.1139,132.0828
143.2532,132.2221
143.4171,132.3316
143.5992,132.4071
143.7925,132.4455
143.7925,132.4455
143.9895,132.4455
143.9895,132.4455
144.1828,132.4071
144.3649,132.3316
144.5288,132.2221
144.6681,132.0828
144.7776,131.9189
144.8531,131.7368
144.8915,131.5435
144.8915,131.3465
144.8531,131.1532
144.7776,130.9711
144.6681,130.8072
144.5288,130.6679
144.3649,130.5584
144.3649,130.5584
144.3649,130.5584
144.1828,130.4829
143.9895,130.4445
143.9895,130.4445
143.7925,130.4445
143.7925,130.4445
143.5992,130.4829
143.5992,130.4829
143.4171,130.5584
143.2532,130.6679
143.2532,130.6679
143.1139,130.8072
143.1139,130.8072
143.0044,130.9711
142.9289,131.1532
142.9289,131.1532
142.8905,131.3465
130.6705,131.3465
130.6705,126.6190
131.7824,126.6190
131.8026,126.7983
131.8026,126.7983
131.8173,126.8403
131.8187,126.9015
131.8173,126.9057
131.8026,126.9477
131.8026,126.9477
131.7824,127.1270
131.8026,127.3063
131.8026,127.3063
131.8173,127.3483
131.8187,127.4095
131.8173,127.4137
131.8026,127.4557
131.8026,127.4557
131.7824,127.6350
131.8026,127.8143
131.8026,127.8143
131.8622,127.9845
131.8622,127.9845
131.9582,128.1373
131.9582,128.1373
132.0857,128.2648
132.0857,128.2648
132.0857,128.2648
132.1453,128.3022
132.2385,128.3608
132.3067,128.3846
132.4087,128.4204
132.4087,128.4204
132.4087,128.4204
132.5880,128.4406
132.7673,128.4204
132.9375,128.3608
133.0903,128.2648
133.2178,128.1373
133.3138,127.9845
133.3734,127.8143
133.3936,127.6350
133.3734,127.4557
133.3587,127.4137
133.3573,127.3525
133.3587,127.3483
133.3734,127.3063
133.3734,127.3063
133.3734,127.3063
133.3793,127.2540
140.4184,127.2540
140.4386,127.4333
140.4386,127.4333
140.4533,127.4753
140.4547,127.5365
140.4533,127.5407
140.4386,127.5827
140.4386,127.5827
140.4184,127.7620
140.4386,127.9413
140.4386,127.9413
140.4533,127.9833
140.4547,128.0445
140.4533,128.0487
140.4386,128.0907
140.4386,128.0907
140.4184,128.2700
140.4386,128.4493
140.4386,128.4493
140.4982,128.6195
140.4982,128.6195
140.5776,128.7459
140.5942,128.7723
140.7217,128.8998
140.8745,128.9958
140.8966,129.0035
141.0447,129.0554
141.0447,129.0554
141.0447,129.0554
141.2240,129.0756
141.4033,129.0554
141.5735,128.9958
141.7263,128.8998
141.8196,128.8065
142.8905,128.8065
142.8905,129.0035
142.9289,129.1968
142.9289,129.1968
143.0044,129.3789
143.0278,129.4139
143.1139,129.5428
143.2532,129.6821
143.4171,129.7916
143.5992,129.8671
143.7925,129.9055
143.7925,129.9055
143.9895,129.9055
143.9895,129.9055
144.1828,129.8671
144.3649,129.7916
144.5288,129.6821
144.6681,129.5428
144.7776,129.3789
144.8531,129.1968
144.8915,129.0035
144.8915,128.8415
147.0795,128.8415
147.0795,129.0385
147.1179,129.2318
147.1179,129.2318
147.1934,129.4139
147.1934,129.4139
147.3029,129.5778
147.4422,129.7171
147.6061,129.8266
147.7882,129.9021
147.9815,129.9405
147.9815,129.9405
148.1785,129.9405
148.1785,129.9405
148.3718,129.9021
148.5539,129.8266
148.7178,129.7171
148.8571,129.5778
148.9666,129.4139
149.0421,129.2318
149.0805,129.0385
149.0805,128.8415
149.0805,128.8415
149.6195,128.8415
149.6195,129.0385
149.6579,129.2318
149.6579,129.2318
149.7334,129.4139
149.7334,129.4139
149.8429,129.5778
149.9822,129.7171
150.1461,129.8266
150.3282,129.9021
150.5215,129.9405
150.5215,129.9405
150.7185,129.9405
150.7185,129.9405
150.9118,129.9021
151.0939,129.8266
151.2578,129.7171
151.3971,129.5778
151.5066,129.4139
151.5821,129.2318
151.6205,129.0385
151.6205,128.8415
151.6205,128.8415
152.1595,128.8415
152.1595,129.0385
152.1979,129.2318
152.1979,129.2318
152.2734,129.4139
152.2734,129.4139
152.3829,129.5778
152.5222,129.7171
152.6861,129.8266
152.8682,129.9021
153.0615,129.9405
153.0615,129.9405
153.2585,129.9405
153.2585,129.9405
153.4518,129.9021
153.6339,129.8266
153.7978,129.7171
153.9371,129.5778
154.0466,129.4139
154.1221,129.2318
154.1605,129.0385
154.1605,128.8415
154.1605,128.8415
154.6995,128.8415
154.6995,129.0385
154.7379,129.2318
154.7379,129.2318
154.8134,129.4139
154.8134,129.4139
154.9229,129.5778
155.0622,129.7171
155.2261,129.8266
155.4082,129.9021
155.6015,129.9405
155.6015,129.9405
155.7985,129.9405
155.7985,129.9405
155.9918,129.9021
156.1739,129.8266
156.3378,129.7171
156.4771,129.5778
156.5866,129.4139
156.6621,129.2318
156.7005,129.0385
156.7005,128.8415
156.7005,128.8415
157.2395,128.8415
157.2395,129.0385
157.2779,129.2318
157.2779,129.2318
157.3534,129.4139
157.3534,129.4139
157.4629,129.5778
157.6022,129.7171
157.7661,129.8266
157.9482,129.9021
158.1415,129.9405
158.1415,129.9405
158.3385,129.9405
158.3385,129.9405
158.5318,129.9021
158.7139,129.8266
158.8778,129.7171
159.0171,129.5778
159.1266,129.4139
159.2021,129.2318
159.2405,129.0385
159.2405,128.8415
159.2021,128.6482
159.1266,128.4661
159.0171,128.3022
158.8778,128.1629
158.7139,128.0534
158.7139,128.0534
158.7139,128.0534
158.5318,127.9779
158.3385,127.9395
158.3385,127.9395
158.1415,127.9395
158.1415,127.9395
157.9482,127.9779
157.9482,127.9779
157.7661,128.0534
157.6022,128.1629
157.6022,128.1629
157.4629,128.3022
157.4629,128.3022
157.3534,128.4661
157.2779,128.6482
157.2779,128.6482
157.2395,128.8415
156.7005,128.8415
156.6621,128.6482
156.5866,128.4661
156.4771,128.3022
156.3378,128.1629
156.1739,128.0534
156.1739,128.0534
156.1739,128.0534
155.9918,127.9779
155.7985,127.9395
155.7985,127.9395
155.6015,127.9395
155.6015,127.9395
155.4082,127.9779
155.4082,127.9779
155.2261,128.0534
155.0622,128.1629
155.0622,128.1629
154.9229,128.3022
154.9229,128.3022
154.8134,128.4661
154.7379,128.6482
154.7379,128.6482
154.6995,128.8415
154.1605,128.8415
154.1221,128.6482
154.0466,128.4661
153.9371,128.3022
153.7978,128.1629
153.6339,128.0534
153.6339,128.0534
153.6339,128.0534
153.4518,127.9779
153.2585,127.9395
153.2585,127.9395
153.0615,127.9395
153.0615,127.9395
152.8682,127.9779
152.8682,127.9779
152.6861,128.0534
152.5222,128.1629
152.5222,128.1629
152.3829,128.3022
152.3829,128.3022
152.2734,128.4661
152.1979,128.6482
152.1979,128.6482
152.1595,128.8415
151.6205,128.8415
151.5821,128.6482
151.5066,128.4661
151.3971,128.3022
151.2578,128.1629
151.0939,128.0534
151.0939,128.0534
151.0939,128.0534
150.9118,127.9779
150.7185,127.9395
150.7185,127.9395
150.5215,127.9395
150.5215,127.9395
150.3282,127.9779
150.3282,127.9779
150.1461,128.0534
149.9822,128.1629
149.9822,128.1629
149.8429,128.3022
149.8429,128.3022
149.7334,128.4661
149.6579,128.6482
149.6579,128.6482
149.6195,128.8415
149.0805,128.8415
149.0421,128.6482
148.9666,128.4661
148.8571,128.3022
148.7178,128.1629
148.5539,128.0534
148.5539,128.0534
148.5539,128.0534
148.3718,127.9779
148.1785,127.9395
148.1785,127.9395
147.9815,127.9395
147.9815,127.9395
147.7882,127.9779
147.7882,127.9779
147.6061,128.0534
147.4422,128.1629
147.4422,128.1629
147.3029,128.3022
147.3029,128.3022
147.1934,128.4661
147.1179,128.6482
147.1179,128.6482
147.0795,128.8415
144.8915,128.8415
144.8915,128.8065
144.8531,128.6132
144.7776,128.4311
144.6681,128.2672
144.5288,128.1279
144.3649,128.0184
144.3649,128.0184
144.3649,128.0184
144.1828,127.9429
143.9895,127.9045
143.9895,127.9045
143.7925,127.9045
143.7925,127.9045
143.5992,127.9429
143.5992,127.9429
143.4171,128.0184
143.2532,128.1279
143.2532,128.1279
143.1139,128.2672
143.1139,128.2672
143.0044,128.4311
142.9289,128.6132
142.9289,128.6132
142.8905,128.8065
141.8196,128.8065
141.8538,128.7723
141.9498,128.6195
142.0094,128.4493
142.0296,128.2700
142.0094,128.0907
141.9947,128.0487
141.9933,127.9875
141.9947,127.9833
142.0094,127.9413
142.0094,127.9413
142.0094,127.9413
142.0296,127.7620
142.0094,127.5827
141.9947,127.5407
141.9933,127.4795
141.9947,127.4753
142.0094,127.4333
142.0094,127.4333
142.0094,127.4333
142.0296,127.2540
142.0094,127.0747
141.9498,126.9045
141.9095,126.8403
141.8538,126.7517
141.8538,126.7517
141.8538,126.7517
141.7263,126.6242
141.7263,126.6242
141.7263,126.6242
141.5735,126.5282
141.4033,126.4686
141.4033,126.4686
141.2240,126.4484
141.0447,126.4686
141.0447,126.4686
140.8745,126.5282
140.8745,126.5282
140.7217,126.6242
140.5942,126.7517
140.4982,126.9045
140.4982,126.9045
140.4386,127.0747
140.4386,127.0747
140.4184,127.2540
133.3793,127.2540
133.3936,127.1270
133.3734,126.9477
133.3587,126.9057
133.3573,126.8445
133.3587,126.8403
133.3734,126.7983
133.3734,126.7983
133.3734,126.7983
133.3936,126.6190
133.3734,126.4397
133.3138,126.2695
133.3029,126.2522
133.2178,126.1167
133.2178,126.1167
133.2178,126.1167
133.0903,125.9892
133.0903,125.9892
133.0903,125.9892
132.9375,125.8932
132.7673,125.8336
132.7673,125.8336
132.5880,125.8134
132.4087,125.8336
132.4087,125.8336
132.2385,125.8932
132.2385,125.8932
132.0857,125.9892
131.9582,126.1167
131.8622,126.2695
131.8622,126.2695
131.8026,126.4397
131.8026,126.4397
131.7824,126.6190
130.6705,126.6190
130.6705,123.9520
145.1429,123.9520
145.1631,124.1313
145.1631,124.1313
145.1778,124.1733
145.1792,124.2345
145.1778,124.2387
145.1631,124.2807
145.1429,124.4600
145.1631,124.6393
145.1778,124.6813
145.1792,124.7425
145.1778,124.7467
145.1631,124.7887
145.1429,124.9680
145.1631,125.1473
145.1631,125.1473
145.2227,125.3175
145.2227,125.3175
145.2742,125.3994
145.3187,125.4703
145.4462,125.5978
145.5990,125.6938
145.6672,125.7176
145.7692,125.7534
145.7692,125.7534
145.7692,125.7534
145.9485,125.7736
146.1278,125.7534
146.2980,125.6938
146.4508,125.5978
146.5783,125.4703
146.6743,125.3175
146.7339,125.1473
146.7339,125.1473
146.7340,125.1468
146.7341,125.1465
146.7357,125.1420
146.7366,125.1423
146.7654,125.0942
146.8216,125.0702
146.8813,125.0838
146.9215,125.1299
146.9295,125.1688
146.9295,125.2205
146.9578,125.3994
146.9578,125.3994
147.0138,125.5716
147.0960,125.7330
147.2024,125.8795
147.3305,126.0076
147.4770,126.1140
147.6384,126.1962
147.8106,126.2522
147.8821,126.2635
147.9895,126.2805
147.9895,126.2805
148.1705,126.2805
148.2600,126.2663
148.3494,126.2522
148.5216,126.1962
148.6830,126.1140
148.8295,126.0076
148.9576,125.8795
149.0640,125.7330
149.1462,125.5716
149.2022,125.3994
149.2305,125.2205
149.2305,125.0395
149.2305,125.0394
152.0095,125.0394
152.0095,125.2205
152.0378,125.3994
152.0378,125.3994
152.0938,125.5716
152.1760,125.7330
152.2824,125.8795
152.4105,126.0076
152.5570,126.1140
152.7184,126.1962
152.8906,126.2522
152.9621,126.2635
153.0695,126.2805
153.0695,126.2805
153.2505,126.2805
153.3400,126.2663
153.4294,126.2522
153.6016,126.1962
153.7630,126.1140
153.9095,126.0076
154.0376,125.8795
154.1440,125.7330
154.2262,125.5716
154.2822,125.3994
154.3105,125.2205
154.3105,125.0395
154.3105,125.0394
154.5495,125.0394
154.5495,125.2205
154.5778,125.3994
154.5778,125.3994
154.6338,125.5716
154.7160,125.7330
154.8224,125.8795
154.9505,126.0076
155.0970,126.1140
155.2584,126.1962
155.4306,126.2522
155.5021,126.2635
155.6095,126.2805
155.6095,126.2805
155.7905,126.2805
155.8800,126.2663
155.9694,126.2522
156.1416,126.1962
156.3030,126.1140
156.4495,126.0076
156.5776,125.8795
156.6840,125.7330
156.7662,125.5716
156.8222,125.3994
156.8505,125.2205
156.8505,125.0395
156.8505,125.0394
157.0895,125.0394
157.0895,125.2205
157.1178,125.3994
157.1178,125.3994
157.1738,125.5716
157.2560,125.7330
157.3624,125.8795
157.4905,126.0076
157.6370,126.1140
157.7984,126.1962
157.9706,126.2522
158.0421,126.2635
158.1495,126.2805
158.1495,126.2805
158.3305,126.2805
158.4200,126.2663
158.5094,126.2522
158.6816,126.1962
158.8430,126.1140
158.9895,126.0076
159.1176,125.8795
159.2240,125.7330
159.3062,125.5716
159.3622,125.3994
159.3905,125.2205
159.3905,125.0395
159.3905,125.0394
159.3622,124.8606
159.3622,124.8606
159.3622,124.8606
159.3062,124.6884
159.2240,124.5270
159.1781,124.4639
161.0811,124.4639
161.0811,124.5200
161.0811,124.5761
161.0890,124.7887
161.1008,125.1029
161.1092,125.2148
161.1682,125.7387
161.1849,125.8496
161.2829,126.3676
161.3079,126.4770
161.3079,126.4770
161.4340,126.9477
161.4443,126.9862
161.4774,127.0934
161.6486,127.5827
161.6515,127.5911
161.6925,127.6955
161.9033,128.1787
161.9309,128.2359
161.9520,128.2798
162.1984,128.7459
162.2545,128.8430
162.4768,129.1968
162.5349,129.2894
162.5981,129.3821
162.5981,129.3821
162.5981,129.3821
162.6216,129.4139
162.9112,129.8063
162.9811,129.8940
162.9812,129.8940
163.3250,130.2936
163.3250,130.2936
163.4013,130.3759
163.7741,130.7487
163.7742,130.7487
163.7742,130.7487
163.8564,130.8250
164.2560,131.1688
164.2560,131.1689
164.2560,131.1689
164.3437,131.2388
164.7679,131.5519
164.8606,131.6151
165.0544,131.7368
165.3070,131.8955
165.3070,131.8956
165.4041,131.9516
165.8702,132.1980
165.9713,132.2467
166.4545,132.4575
166.5589,132.4985
166.7634,132.5700
167.0566,132.6726
167.0566,132.6726
167.1638,132.7057
167.6730,132.8421
167.7522,132.8602
167.7824,132.8671
168.0058,132.9093
168.3004,132.9651
168.4113,132.9818
168.9352,133.0408
169.0471,133.0492
169.5739,133.0689
169.5739,133.0689
169.6861,133.0689
169.6861,133.0689
170.2130,133.0492
170.3248,133.0408
170.8487,132.9818
170.9596,132.9651
171.3316,132.8947
171.4776,132.8671
171.4777,132.8671
171.5870,132.8421
172.0963,132.7057
172.2035,132.6726
172.7011,132.4985
172.7714,132.4709
172.8324,132.4672
172.8840,132.5002
172.8933,132.5135
172.9637,132.6355
172.9637,132.6355
173.1313,132.8540
173.3260,133.0487
173.5445,133.2163
173.7829,133.3540
173.7829,133.3540
173.7829,133.3540
174.0373,133.4593
174.3033,133.5306
174.5763,133.5666
174.5763,133.5666
174.8516,133.5666
174.8516,133.5666
175.1246,133.5306
175.3906,133.4593
175.6450,133.3540
175.8834,133.2163
176.1019,133.0487
176.2966,132.8540
176.4642,132.6355
176.6019,132.3971
176.7072,132.1427
176.7785,131.8767
176.8144,131.6037
176.8144,131.3284
176.7785,131.0554
176.7072,130.7894
176.6019,130.5350
176.4642,130.2966
176.2966,130.0781
176.2669,130.0484
176.2391,129.9939
176.2487,129.9335
176.2618,129.9138
176.2789,129.8940
176.3488,129.8063
176.6619,129.3821
176.7251,129.2894
177.0056,128.8430
177.0617,128.7459
177.3080,128.2798
177.3567,128.1787
177.5675,127.6955
177.6085,127.5911
177.7826,127.0934
177.8157,126.9862
177.9521,126.4770
177.9771,126.3676
177.9957,126.2695
178.0095,126.1962
178.0751,125.8496
178.0918,125.7387
178.1509,125.2148
178.1593,125.1029
178.1790,124.5761
178.1790,124.4639
178.1593,123.9371
178.1509,123.8252
178.0918,123.3013
178.0751,123.1904
177.9771,122.6723
177.9521,122.5630
177.8157,122.0537
177.7826,121.9465
177.6085,121.4489
177.5675,121.3445
177.3567,120.8613
177.3080,120.7602
177.0617,120.2941
177.0056,120.1969
176.7251,119.7505
176.6619,119.6579
176.3488,119.2337
176.2789,119.1460
176.2789,119.1459
175.9350,118.7463
175.8587,118.6641
175.8587,118.6641
175.8587,118.6641
175.4859,118.2913
175.4037,118.2150
175.4037,118.2150
175.0041,117.8711
174.9163,117.8012
174.4922,117.4881
174.4922,117.4881
174.4922,117.4881
174.3995,117.4249
174.2283,117.3173
173.9531,117.1444
173.8559,117.0883
173.3898,116.8420
173.3070,116.8021
173.2887,116.7933
172.8055,116.5825
172.7011,116.5415
172.7011,116.5415
172.7011,116.5415
172.2035,116.3674
172.0963,116.3343
172.0788,116.3296
171.7009,116.2284
171.5870,116.1979
171.4776,116.1729
170.9596,116.0749
170.8487,116.0582
170.3248,115.9991
170.2130,115.9907
169.9166,115.9797
169.6861,115.9710
169.5739,115.9710
169.3570,115.9792
169.0471,115.9907
168.9352,115.9991
168.4113,116.0582
168.3004,116.0749
167.7824,116.1729
167.6730,116.1979
167.1638,116.3343
167.0566,116.3674
166.5590,116.5415
166.5022,116.5638
166.4412,116.5674
166.3896,116.5345
166.3803,116.5211
166.3142,116.4066
166.1466,116.1881
165.9519,115.9934
165.7334,115.8258
165.4950,115.6881
165.4950,115.6881
165.2406,115.5828
165.1195,115.5503
164.9746,115.5115
164.9746,115.5115
164.7016,115.4756
164.7016,115.4756
164.4263,115.4756
164.4263,115.4756
164.1533,115.5115
164.1533,115.5115
164.1533,115.5115
164.0528,115.5384
163.8873,115.5828
163.6329,115.6881
163.3945,115.8258
163.1760,115.9934
162.9813,116.1881
162.8137,116.4066
162.6760,116.6450
162.5707,116.8994
162.5381,117.0209
162.4994,117.1654
162.4994,117.1654
162.4994,117.1654
162.4634,117.4384
162.4634,117.7137
162.4859,117.8845
162.4994,117.9867
162.5382,118.1316
162.5707,118.2527
162.6760,118.5071
162.6760,118.5071
162.8137,118.7455
162.9813,118.9640
162.9813,118.9640
163.0004,118.9831
163.0282,119.0376
163.0186,119.0981
163.0055,119.1177
162.9811,119.1460
162.9112,119.2337
162.5981,119.6578
162.5349,119.7505
162.2545,120.1969
162.1984,120.2941
161.9520,120.7602
161.9098,120.8478
161.9033,120.8613
161.6925,121.3445
161.6515,121.4489
161.4774,121.9465
161.4443,122.0537
161.3079,122.5630
161.2829,122.6724
161.1849,123.1904
161.1682,123.3013
161.1092,123.8252
161.1008,123.9370
161.0935,124.1313
161.0811,124.4639
159.1781,124.4639
159.1176,124.3805
158.9895,124.2524
158.8430,124.1460
158.8430,124.1460
158.8430,124.1460
158.6816,124.0638
158.5094,124.0078
158.3305,123.9795
158.3305,123.9795
158.1495,123.9795
158.1495,123.9795
157.9706,124.0078
157.7984,124.0638
157.6370,124.1460
157.5994,124.1733
157.4905,124.2524
157.3624,124.3805
157.3092,124.4538
157.2560,124.5270
157.1738,124.6884
157.1178,124.8606
157.0895,125.0394
156.8505,125.0394
156.8222,124.8606
156.8222,124.8606
156.8222,124.8606
156.7662,124.6884
156.6840,124.5270
156.5776,124.3805
156.4495,124.2524
156.3030,124.1460
156.3030,124.1460
156.3030,124.1460
156.1416,124.0638
155.9694,124.0078
155.7905,123.9795
155.7905,123.9795
155.6095,123.9795
155.6095,123.9795
155.4306,124.0078
155.2584,124.0638
155.0970,124.1460
155.0594,124.1733
154.9505,124.2524
154.8224,124.3805
154.7692,124.4538
154.7160,124.5270
154.6338,124.6884
154.5778,124.8606
154.5495,125.0394
154.3105,125.0394
154.2822,124.8606
154.2822,124.8606
154.2822,124.8606
154.2262,124.6884
154.1440,124.5270
154.0376,124.3805
153.9095,124.2524
153.7630,124.1460
153.7630,124.1460
153.7630,124.1460
153.6016,124.0638
153.4294,124.0078
153.2505,123.9795
153.2505,123.9795
153.0695,123.9795
153.0695,123.9795
152.8906,124.0078
152.7184,124.0638
152.5570,124.1460
152.5194,124.1733
152.4105,124.2524
152.2824,124.3805
152.2292,124.4538
152.1760,124.5270
152.0938,124.6884
152.0378,124.8606
152.0095,125.0394
149.2305,125.0394
149.2022,124.8606
149.2022,124.8606
149.2022,124.8606
149.1462,124.6884
149.0640,124.5270
148.9576,124.3805
148.8295,124.2524
148.6830,124.1460
148.6830,124.1460
148.6830,124.1460
148.5216,124.0638
148.3494,124.0078
148.1705,123.9795
148.1705,123.9795
147.9895,123.9795
147.9895,123.9795
147.8106,124.0078
147.6384,124.0638
147.4770,124.1460
147.4394,124.1733
147.3305,124.2524
147.2024,124.3805
147.1492,124.4538
147.0960,124.5270
147.0138,124.6884
146.9578,124.8606
146.9460,124.9351
146.9182,124.9896
146.8637,125.0174
146.8033,125.0078
146.7600,124.9646
146.7499,124.9307
146.7339,124.7887
146.7339,124.7887
146.7291,124.7751
146.7192,124.7467
146.7178,124.6855
146.7191,124.6814
146.7339,124.6393
146.7541,124.4600
146.7339,124.2807
146.7192,124.2387
146.7178,124.1775
146.7192,124.1733
146.7339,124.1313
146.7339,124.1313
146.7339,124.1313
146.7541,123.9520
146.7339,123.7727
146.6743,123.6025
146.5783,123.4497
146.4508,123.3222
146.4508,123.3222
146.4508,123.3222
146.2980,123.2262
146.1278,123.1666
146.1278,123.1666
145.9485,123.1464
145.7692,123.1666
145.7692,123.1666
145.5990,123.2262
145.5990,123.2262
145.4462,123.3222
145.3187,123.4497
145.2227,123.6025
145.2227,123.6025
145.1631,123.7727
145.1631,123.7727
145.1429,123.9520
130.6705,123.9520
130.6705,117.8845
142.1285,117.8845
142.1285,117.8845
142.1285,118.0815
142.1625,118.2527
142.1669,118.2748
142.1669,118.2748
142.2424,118.4569
142.2424,118.4569
142.3519,118.6208
142.4912,118.7601
142.6551,118.8696
142.8372,118.9451
143.0305,118.9835
143.0305,118.9835
143.2275,118.9835
143.2275,118.9835
143.4208,118.9451
143.6029,118.8696
143.7668,118.7601
143.9061,118.6208
144.0156,118.4569
144.0911,118.2748
144.1295,118.0815
144.1295,117.8845
144.0911,117.6912
144.0156,117.5091
143.9061,117.3452
143.7668,117.2059
143.6029,117.0964
143.6029,117.0964
143.6029,117.0964
143.4208,117.0209
143.2275,116.9825
143.2275,116.9825
143.0305,116.9825
143.0305,116.9825
142.8372,117.0209
142.8372,117.0209
142.6551,117.0964
142.4912,117.2059
142.4912,117.2059
142.3519,117.3452
142.3519,117.3452
142.2424,117.5091
142.1669,117.6912
142.1669,117.6912
142.1285,117.8845
130.6705,117.8845
130.6705,116.8021
134.1005,116.8021
134.1005,116.9795
134.1221,117.0883
134.1333,117.1444
134.1351,117.1535
134.1351,117.1535
134.2030,117.3173
134.2030,117.3173
134.2839,117.4384
134.3015,117.4648
134.4270,117.5903
134.5745,117.6888
134.7383,117.7567
134.9123,117.7913
134.9123,117.7913
135.0897,117.7913
135.0897,117.7913
135.2637,117.7567
135.4275,117.6888
135.5750,117.5903
135.7005,117.4648
135.7990,117.3173
135.8669,117.1535
135.9015,116.9795
135.9015,116.8021
135.9015,116.8021
137.9105,116.8021
137.9105,116.9795
137.9321,117.0883
137.9433,117.1444
137.9451,117.1535
137.9451,117.1535
138.0130,117.3173
138.0130,117.3173
138.0939,117.4384
138.1115,117.4648
138.2370,117.5903
138.3845,117.6888
138.5483,117.7567
138.7223,117.7913
138.7223,117.7913
138.8997,117.7913
138.8997,117.7913
139.0737,117.7567
139.2375,117.6888
139.3850,117.5903
139.5105,117.4648
139.6090,117.3173
139.6769,117.1535
139.7115,116.9795
139.7115,116.8021
139.6769,116.6281
139.6090,116.4643
139.6090,116.4643
139.5105,116.3168
139.3850,116.1913
139.2375,116.0928
139.0737,116.0249
138.8997,115.9903
138.8997,115.9903
138.7223,115.9903
138.7223,115.9903
138.5483,116.0249
138.5483,116.0249
138.3845,116.0928
138.3845,116.0928
138.2370,116.1913
138.1115,116.3168
138.0130,116.4643
138.0130,116.4643
137.9451,116.6281
137.9451,116.6281
137.9105,116.8021
135.9015,116.8021
135.8669,116.6281
135.7990,116.4643
135.7990,116.4643
135.7005,116.3168
135.5750,116.1913
135.4275,116.0928
135.2637,116.0249
135.0897,115.9903
135.0897,115.9903
134.9123,115.9903
134.9123,115.9903
134.7383,116.0249
134.7383,116.0249
134.5745,116.0928
134.5745,116.0928
134.4270,116.1913
134.3015,116.3168
134.2030,116.4643
134.2030,116.4643
134.1351,116.6281
134.1351,116.6281
134.1005,116.8021
130.6705,116.8021
130.6705,115.3445
142.1285,115.3445
142.1285,115.5415
142.1669,115.7348
142.1669,115.7348
142.2424,115.9169
142.2785,115.9710
142.3519,116.0808
142.4912,116.2201
142.6551,116.3296
142.8372,116.4051
143.0305,116.4435
143.0305,116.4435
143.2275,116.4435
143.2275,116.4435
143.4208,116.4051
143.6029,116.3296
143.7668,116.2201
143.9061,116.0808
144.0156,115.9169
144.0911,115.7348
144.1295,115.5415
144.1295,115.3445
144.0911,115.1512
144.0156,114.9691
143.9061,114.8052
143.7668,114.6659
143.6029,114.5564
143.6029,114.5564
143.6029,114.5564
143.4208,114.4809
143.2275,114.4425
143.2275,114.4425
143.0305,114.4425
143.0305,114.4425
142.8372,114.4809
142.8372,114.4809
142.6551,114.5564
142.4912,114.6659
142.4912,114.6659
142.3519,114.8052
142.3519,114.8052
142.2424,114.9691
142.1669,115.1512
142.1669,115.1512
142.1285,115.3445
130.6705,115.3445
130.6705,114.4270
150.7054,114.4270
150.7256,114.6063
150.7256,114.6063
150.7403,114.6483
150.7417,114.7095
150.7403,114.7137
150.7256,114.7557
150.7256,114.7557
150.7054,114.9350
150.7256,115.1143
150.7256,115.1143
150.7403,115.1563
150.7417,115.2175
150.7403,115.2217
150.7256,115.2637
150.7256,115.2637
150.7054,115.4430
150.7256,115.6223
150.7256,115.6223
150.7852,115.7925
150.7852,115.7925
150.8812,115.9453
150.8812,115.9453
151.0087,116.0728
151.0087,116.0728
151.0087,116.0728
151.0405,116.0928
151.1615,116.1688
151.2167,116.1881
151.3317,116.2284
151.3317,116.2284
151.3317,116.2284
151.5110,116.2486
151.6903,116.2284
151.8605,116.1688
152.0133,116.0728
152.1408,115.9453
152.2368,115.7925
152.2964,115.6223
152.3166,115.4430
152.2964,115.2637
152.2817,115.2217
152.2803,115.1605
152.2817,115.1563
152.2964,115.1143
152.2964,115.1143
152.2964,115.1143
152.3166,114.9350
152.2964,114.7557
152.2817,114.7137
152.2803,114.6525
152.2817,114.6483
152.2964,114.6063
152.2964,114.6063
152.2964,114.6063
152.3166,114.4270
152.2964,114.2477
152.2368,114.0775
152.2081,114.0318
152.1408,113.9247
152.1408,113.9247
152.1408,113.9247
152.0133,113.7972
152.0133,113.7972
152.0133,113.7972
151.8605,113.7012
151.6903,113.6416
151.6903,113.6416
151.5110,113.6214
151.3317,113.6416
151.3317,113.6416
151.1615,113.7012
151.1615,113.7012
151.0087,113.7972
150.8812,113.9247
150.7852,114.0775
150.7852,114.0775
150.7256,114.2477
150.7256,114.2477
150.7054,114.4270
130.6705,114.4270
130.6705,113.2840
154.2614,113.2840
154.2816,113.4633
154.2816,113.4633
154.3412,113.6335
154.3412,113.6335
154.4372,113.7863
154.4372,113.7863
154.5647,113.9138
154.5647,113.9138
154.5647,113.9138
154.5730,113.9190
154.7175,114.0098
154.7805,114.0318
154.8877,114.0694
154.8877,114.0694
154.8877,114.0694
155.0670,114.0896
155.2463,114.0694
155.3193,114.0438
155.3805,114.0424
155.3847,114.0438
155.4577,114.0694
155.6370,114.0896
155.8163,114.0694
155.8908,114.0433
155.9520,114.0419
155.9562,114.0433
156.0307,114.0694
156.2100,114.0896
156.3893,114.0694
156.5595,114.0098
156.7123,113.9138
156.8398,113.7863
156.9358,113.6335
156.9954,113.4633
157.0156,113.2840
156.9954,113.1047
156.9875,113.0823
156.9710,113.0351
156.9358,112.9345
156.8633,112.8192
156.8398,112.7817
156.8398,112.7817
156.8398,112.7817
156.7123,112.6542
156.7123,112.6542
156.7123,112.6542
156.5595,112.5582
156.3893,112.4986
156.3893,112.4986
156.2100,112.4784
156.0307,112.4986
155.9562,112.5247
155.8950,112.5261
155.8908,112.5247
155.8163,112.4986
155.6370,112.4784
155.4577,112.4986
155.3847,112.5242
155.3235,112.5256
155.3193,112.5242
155.2463,112.4986
155.0670,112.4784
154.8877,112.4986
154.8877,112.4986
154.7175,112.5582
154.7175,112.5582
154.5647,112.6542
154.4372,112.7817
154.3412,112.9345
154.3412,112.9345
154.2816,113.1047
154.2816,113.1047
154.2614,113.2840
130.6705,113.2840
130.6705,111.3790
162.3894,111.3790
162.4096,111.5583
162.4096,111.5583
162.4692,111.7285
162.4692,111.7285
162.5652,111.8813
162.5652,111.8813
162.6927,112.0088
162.6927,112.0088
162.6927,112.0088
162.7010,112.0140
162.8455,112.1048
162.8822,112.1176
163.0157,112.1644
163.0157,112.1644
163.0157,112.1644
163.1950,112.1846
163.3743,112.1644
163.4163,112.1497
163.4775,112.1483
163.4817,112.1497
163.5237,112.1644
163.7030,112.1846
163.8823,112.1644
163.9243,112.1497
163.9855,112.1483
163.9897,112.1497
164.0317,112.1644
164.2110,112.1846
164.3903,112.1644
164.5605,112.1048
164.7133,112.0088
164.8408,111.8813
164.8847,111.8114
164.9317,111.7722
164.9927,111.7681
165.0445,111.8006
165.0669,111.8530
165.0701,111.8813
165.0766,111.9393
165.0766,111.9393
165.1362,112.1095
165.1362,112.1095
165.1888,112.1933
165.2322,112.2623
165.3597,112.3898
165.5125,112.4858
165.5492,112.4986
165.6827,112.5454
165.6827,112.5454
165.6827,112.5454
165.8620,112.5656
166.0413,112.5454
166.2115,112.4858
166.3643,112.3898
166.4918,112.2623
166.5878,112.1095
166.6474,111.9393
166.6676,111.7600
166.6474,111.5807
166.6327,111.5387
166.6313,111.4775
166.6326,111.4734
166.6474,111.4313
166.6676,111.2520
166.6474,111.0727
166.6327,111.0307
166.6319,110.9980
174.9624,110.9980
174.9826,111.1773
174.9826,111.1773
174.9973,111.2193
174.9987,111.2805
174.9973,111.2847
174.9826,111.3267
174.9826,111.3267
174.9624,111.5060
174.9826,111.6853
174.9973,111.7273
174.9987,111.7885
174.9973,111.7927
174.9826,111.8347
174.9624,112.0140
174.9826,112.1933
174.9826,112.1933
175.0422,112.3635
175.0422,112.3635
175.1382,112.5163
175.1382,112.5163
175.2657,112.6438
175.2657,112.6438
175.2657,112.6438
175.3929,112.7237
175.4185,112.7398
175.4867,112.7636
175.5887,112.7994
175.5887,112.7994
175.5887,112.7994
175.7645,112.8192
175.8202,112.8445
175.8504,112.8977
175.8518,112.9065
175.8716,113.0822
175.8716,113.0823
175.8863,113.1243
175.8877,113.1855
175.8863,113.1897
175.8716,113.2317
175.8716,113.2317
175.8514,113.4110
175.8716,113.5903
175.8863,113.6323
175.8877,113.6935
175.8863,113.6977
175.8716,113.7397
175.8514,113.9190
175.8716,114.0983
175.8716,114.0983
175.9312,114.2685
175.9312,114.2685
176.0272,114.4213
176.0272,114.4213
176.1547,114.5488
176.1547,114.5488
176.1547,114.5488
176.1668,114.5564
176.3075,114.6448
176.3296,114.6525
176.4777,114.7044
176.4777,114.7044
176.4777,114.7044
176.6570,114.7246
176.8363,114.7044
177.0065,114.6448
177.1593,114.5488
177.2868,114.4213
177.3828,114.2685
177.4424,114.0983
177.4626,113.9190
177.4424,113.7397
177.4277,113.6977
177.4263,113.6365
177.4276,113.6324
177.4424,113.5903
177.4626,113.4110
177.4424,113.2317
177.4277,113.1897
177.4263,113.1285
177.4277,113.1243
177.4424,113.0823
177.4424,113.0823
177.4424,113.0823
177.4626,112.9030
177.4424,112.7237
177.3828,112.5535
177.3656,112.5261
177.2868,112.4007
177.2868,112.4007
177.2868,112.4007
177.1593,112.2732
177.1593,112.2732
177.1593,112.2732
177.0065,112.1772
176.8363,112.1176
176.8363,112.1176
176.7510,112.1080
176.6605,112.0978
176.6048,112.0725
176.5746,112.0193
176.5732,112.0106
176.5534,111.8347
176.5387,111.7927
176.5373,111.7315
176.5386,111.7274
176.5534,111.6853
176.5736,111.5060
176.5534,111.3267
176.5387,111.2847
176.5373,111.2235
176.5387,111.2193
176.5534,111.1773
176.5534,111.1773
176.5534,111.1773
176.5736,110.9980
176.5534,110.8187
176.4938,110.6485
176.3978,110.4957
176.2703,110.3682
176.2703,110.3682
176.2703,110.3682
176.1175,110.2722
175.9473,110.2126
175.9473,110.2126
175.7680,110.1924
175.5887,110.2126
175.5887,110.2126
175.4185,110.2722
175.4185,110.2722
175.2657,110.3682
175.1382,110.4957
175.0422,110.6485
175.0422,110.6485
174.9826,110.8187
174.9826,110.8187
174.9624,110.9980
166.6319,110.9980
166.6313,110.9695
166.6327,110.9653
166.6474,110.9233
166.6474,110.9233
166.6474,110.9233
166.6676,110.7440
166.6474,110.5647
166.5878,110.3945
166.4918,110.2417
166.3643,110.1142
166.3643,110.1142
166.3643,110.1142
166.2115,110.0182
166.0413,109.9586
166.0413,109.9586
165.8620,109.9384
165.6827,109.9586
165.6827,109.9586
165.5125,110.0182
165.5125,110.0182
165.3597,110.1142
165.2322,110.2417
165.1362,110.3945
165.1362,110.3945
165.0766,110.5647
165.0766,110.5647
165.0672,110.6485
165.0564,110.7440
165.0714,110.8767
165.0732,110.8929
165.0609,110.9528
165.0158,110.9941
164.9550,111.0009
164.9018,110.9707
164.8910,110.9566
164.8408,110.8767
164.8408,110.8767
164.8408,110.8767
164.7133,110.7492
164.7133,110.7492
164.7133,110.7492
164.5605,110.6532
164.3903,110.5936
164.3903,110.5936
164.2110,110.5734
164.0317,110.5936
164.0317,110.5936
163.9897,110.6083
163.9285,110.6097
163.9243,110.6083
163.8823,110.5936
163.8823,110.5936
163.7030,110.5734
163.5237,110.5936
163.5237,110.5936
163.4817,110.6083
163.4205,110.6097
163.4163,110.6083
163.3743,110.5936
163.3743,110.5936
163.1950,110.5734
163.0157,110.5936
163.0157,110.5936
162.8455,110.6532
162.8455,110.6532
162.6927,110.7492
162.5652,110.8767
162.4692,111.0295
162.4692,111.0295
162.4096,111.1997
162.4096,111.1997
162.3894,111.3790
130.6705,111.3790
130.6705,109.1821
137.9105,109.1821
137.9105,109.3595
137.9451,109.5335
137.9451,109.5335
138.0130,109.6973
138.0130,109.6973
138.1115,109.8448
138.1115,109.8448
138.2370,109.9703
138.3845,110.0688
138.5483,110.1367
138.7223,110.1713
138.7223,110.1713
138.8997,110.1713
138.8997,110.1713
139.0737,110.1367
139.2375,110.0688
139.3850,109.9703
139.5105,109.8448
139.6090,109.6973
139.6769,109.5335
139.7115,109.3595
139.7115,109.1821
139.6769,109.0081
139.6090,108.8443
139.6090,108.8443
139.5105,108.6968
139.3850,108.5713
139.2375,108.4728
139.0737,108.4049
138.8997,108.3703
138.8997,108.3703
138.7223,108.3703
138.7223,108.3703
138.5483,108.4049
138.5483,108.4049
138.3845,108.4728
138.3845,108.4728
138.2370,108.5713
138.1115,108.6968
138.0130,108.8443
138.0130,108.8443
137.9451,109.0081
137.9451,109.0081
137.9105,109.1821
130.6705,109.1821
130.6705,107.8230
140.7486,107.8230
140.7688,108.0023
140.7835,108.0443
140.7849,108.1055
140.7835,108.1097
140.7688,108.1517
140.7486,108.3310
140.7688,108.5103
140.7835,108.5523
140.7849,108.6135
140.7835,108.6177
140.7688,108.6597
140.7486,108.8390
140.7688,109.0183
140.7688,109.0183
140.8284,109.1885
140.8284,109.1885
140.9244,109.3413
140.9244,109.3413
141.0519,109.4688
141.0519,109.4688
141.0519,109.4688
141.1548,109.5335
141.2047,109.5648
141.2729,109.5886
141.3749,109.6244
141.3749,109.6244
141.3749,109.6244
141.5542,109.6446
141.7335,109.6244
141.9037,109.5648
142.0565,109.4688
142.0892,109.4361
170.6511,109.4361
170.6511,109.6135
170.6857,109.7875
170.6857,109.7875
170.7536,109.9513
170.7536,109.9513
170.8321,110.0688
170.8521,110.0988
170.9776,110.2243
171.1251,110.3228
171.2889,110.3907
171.4629,110.4253
171.4629,110.4253
171.6403,110.4253
171.6403,110.4253
171.8143,110.3907
171.9781,110.3228
172.1256,110.2243
172.2511,110.0988
172.3496,109.9513
172.4175,109.7875
172.4521,109.6135
172.4521,109.4361
172.4175,109.2621
172.3496,109.0983
172.3496,109.0983
172.2511,108.9508
172.1256,108.8253
171.9781,108.7268
171.8143,108.6589
171.6403,108.6243
171.6403,108.6243
171.4629,108.6243
171.4629,108.6243
171.2889,108.6589
171.2889,108.6589
171.1251,108.7268
171.1251,108.7268
170.9776,108.8253
170.8521,108.9508
170.7536,109.0983
170.7536,109.0983
170.6857,109.2621
170.6857,109.2621
170.6511,109.4361
142.0892,109.4361
142.1840,109.3413
142.2800,109.1885
142.3396,109.0183
142.3598,108.8390
142.3396,108.6597
142.3249,108.6177
142.3235,108.5565
142.3248,108.5523
142.3396,108.5103
142.3598,108.3310
142.3396,108.1517
142.3249,108.1097
142.3235,108.0485
142.3249,108.0443
142.3396,108.0023
142.3598,107.8230
142.3396,107.6437
142.3317,107.6213
142.2842,107.4856
142.2800,107.4735
142.2749,107.4654
142.1840,107.3207
142.1840,107.3207
142.1840,107.3207
142.0565,107.1932
142.0565,107.1932
142.0565,107.1932
141.9037,107.0972
141.7335,107.0376
141.7335,107.0376
141.5542,107.0174
141.3749,107.0376
141.3749,107.0376
141.2047,107.0972
141.2047,107.0972
141.0519,107.1932
140.9244,107.3207
140.8284,107.4735
140.8284,107.4735
140.7688,107.6437
140.7688,107.6437
140.7486,107.8230
130.6705,107.8230
130.6705,106.4260
153.1184,106.4260
153.1386,106.6053
153.1533,106.6473
153.1547,106.7085
153.1533,106.7127
153.1386,106.7547
153.1184,106.9340
153.1386,107.1133
153.1533,107.1553
153.1547,107.2165
153.1533,107.2207
153.1386,107.2627
153.1184,107.4420
153.1386,107.6213
153.1386,107.6213
153.1982,107.7915
153.1982,107.7915
153.2180,107.8230
153.2942,107.9443
153.4217,108.0718
153.4217,108.0718
153.4217,108.0718
153.4300,108.0770
153.5745,108.1678
153.6427,108.1916
153.7447,108.2274
153.7447,108.2274
153.7447,108.2274
153.9240,108.2476
154.1033,108.2274
154.2735,108.1678
154.4263,108.0718
154.5538,107.9443
154.6498,107.7915
154.7094,107.6213
154.7296,107.4420
154.7094,107.2627
154.6947,107.2207
154.6933,107.1595
154.6946,107.1554
154.7094,107.1133
154.7296,106.9340
154.7094,106.7547
154.6947,106.7127
154.6933,106.6515
154.6947,106.6473
154.7094,106.6053
154.7296,106.4260
154.7094,106.2467
154.6498,106.0765
154.5708,105.9507
154.5538,105.9237
154.5538,105.9237
154.5538,105.9237
154.4263,105.7962
154.4263,105.7962
154.4263,105.7962
154.2735,105.7002
154.1700,105.6640
158.2474,105.6640
158.2676,105.8433
158.2823,105.8853
158.2837,105.9465
158.2823,105.9507
158.2676,105.9927
158.2474,106.1720
158.2676,106.3513
158.2676,106.3513
158.2823,106.3933
158.2837,106.4545
158.2823,106.4587
158.2676,106.5007
158.2676,106.5007
158.2474,106.6800
158.2676,106.8593
158.2676,106.8593
158.3272,107.0295
158.3272,107.0295
158.4089,107.1595
158.4232,107.1823
158.5507,107.3098
158.7035,107.4058
158.7717,107.4296
158.8737,107.4654
158.8737,107.4654
158.8737,107.4654
159.0530,107.4856
159.2323,107.4654
159.4025,107.4058
159.5553,107.3098
159.6828,107.1823
159.7788,107.0295
159.8384,106.8593
159.8586,106.6800
159.8384,106.5007
159.8237,106.4587
159.8223,106.3975
159.8237,106.3933
159.8384,106.3513
159.8384,106.3513
159.8384,106.3513
159.8586,106.1720
159.8486,106.0833
170.6765,106.0833
170.6765,106.2607
170.7111,106.4347
170.7111,106.4347
170.7790,106.5985
170.7790,106.5985
170.8553,106.7127
170.8775,106.7460
171.0030,106.8715
171.1505,106.9700
171.3143,107.0379
171.4883,107.0725
171.4883,107.0725
171.6657,107.0725
171.6657,107.0725
171.8397,107.0379
172.0035,106.9700
172.1510,106.8715
172.2765,106.7460
172.3750,106.5985
172.4429,106.4347
172.4775,106.2607
172.4775,106.0833
172.4429,105.9093
172.3750,105.7455
172.3750,105.7455
172.2765,105.5980
172.1510,105.4725
172.0035,105.3740
171.8397,105.3061
171.6657,105.2715
171.6657,105.2715
171.4883,105.2715
171.4883,105.2715
171.3143,105.3061
171.3143,105.3061
171.1505,105.3740
171.1505,105.3740
171.0030,105.4725
170.8775,105.5980
170.7790,105.7455
170.7790,105.7455
170.7111,105.9093
170.7111,105.9093
170.6765,106.0833
159.8486,106.0833
159.8384,105.9927
159.8384,105.9927
159.8336,105.9791
159.8237,105.9507
159.8223,105.8895
159.8236,105.8854
159.8384,105.8433
159.8586,105.6640
159.8384,105.4847
159.7788,105.3145
159.7554,105.2773
159.6828,105.1617
159.6828,105.1617
159.6828,105.1617
159.5553,105.0342
159.5553,105.0342
159.5553,105.0342
159.4025,104.9382
159.2323,104.8786
159.2323,104.8786
159.0530,104.8584
158.8737,104.8786
158.8737,104.8786
158.7035,104.9382
158.7035,104.9382
158.5507,105.0342
158.4232,105.1617
158.3272,105.3145
158.3272,105.3145
158.2676,105.4847
158.2676,105.4847
158.2474,105.6640
154.1700,105.6640
154.1033,105.6406
154.1033,105.6406
153.9240,105.6204
153.7447,105.6406
153.7447,105.6406
153.5745,105.7002
153.5745,105.7002
153.4217,105.7962
153.2942,105.9237
153.1982,106.0765
153.1982,106.0765
153.1386,106.2467
153.1386,106.2467
153.1184,106.4260
130.6705,106.4260
130.6705,102.4890
137.7397,102.4890
137.7599,102.6683
137.7746,102.7103
137.7760,102.7715
137.7746,102.7757
137.7599,102.8177
137.7397,102.9970
137.7599,103.1763
137.7599,103.1763
137.7746,103.2183
137.7760,103.2795
137.7746,103.2837
137.7599,103.3257
137.7599,103.3257
137.7397,103.5050
137.7599,103.6843
137.7599,103.6843
137.8195,103.8545
137.8195,103.8545
137.9134,104.0040
137.9154,104.0073
138.0430,104.1348
138.0430,104.1348
138.0430,104.1348
138.0998,104.1705
138.1957,104.2308
138.2639,104.2546
138.3660,104.2904
138.3660,104.2904
138.3660,104.2904
138.5452,104.3106
138.7245,104.2904
138.8948,104.2308
139.0475,104.1348
139.1751,104.0073
139.2710,103.8545
139.3045,103.7590
140.9382,103.7590
140.9584,103.9383
140.9584,103.9383
140.9731,103.9803
140.9745,104.0415
140.9731,104.0457
140.9584,104.0877
140.9382,104.2670
140.9584,104.4463
140.9731,104.4883
140.9745,104.5495
140.9731,104.5537
140.9584,104.5957
140.9382,104.7750
140.9584,104.9543
140.9584,104.9543
141.0180,105.1245
141.0180,105.1245
141.1103,105.2715
141.1139,105.2773
141.2415,105.4048
141.2415,105.4048
141.2415,105.4048
141.3687,105.4847
141.3942,105.5008
141.4624,105.5246
141.5645,105.5604
141.5645,105.5604
141.5645,105.5604
141.7438,105.5806
141.9230,105.5604
142.0933,105.5008
142.2460,105.4048
142.3736,105.2773
142.4695,105.1245
142.5291,104.9543
142.5493,104.7750
142.5291,104.5957
142.5144,104.5537
142.5130,104.4925
142.5144,104.4884
142.5291,104.4463
142.5493,104.2670
142.5291,104.0877
142.5291,104.0877
142.5291,104.0877
142.5144,104.0457
142.5130,103.9845
142.5144,103.9803
142.5291,103.9383
142.5493,103.7590
144.2284,103.7590
144.2486,103.9383
144.2633,103.9803
144.2647,104.0415
144.2633,104.0457
144.2486,104.0877
144.2284,104.2670
144.2486,104.4463
144.2486,104.4463
144.2633,104.4883
144.2647,104.5495
144.2633,104.5537
144.2486,104.5957
144.2486,104.5957
144.2284,104.7750
144.2486,104.9543
144.2486,104.9543
144.3082,105.1245
144.3082,105.1245
144.4042,105.2773
144.4042,105.2773
144.5317,105.4048
144.5317,105.4048
144.5317,105.4048
144.6845,105.5008
144.6845,105.5008
144.7527,105.5246
144.8547,105.5604
144.8547,105.5604
144.8547,105.5604
145.0340,105.5806
145.2133,105.5604
145.3835,105.5008
145.5363,105.4048
145.6638,105.2773
145.7598,105.1245
145.8194,104.9543
145.8396,104.7750
145.8194,104.5957
145.8047,104.5537
145.8033,104.4925
145.8047,104.4883
145.8194,104.4463
145.8194,104.4463
145.8194,104.4463
145.8396,104.2670
145.8194,104.0877
145.8047,104.0457
145.8033,103.9845
145.8046,103.9804
145.8194,103.9383
145.8396,103.7590
145.8194,103.5797
145.8194,103.5797
145.7932,103.5050
145.7598,103.4095
145.7072,103.3257
145.6638,103.2567
145.6638,103.2567
145.6638,103.2567
145.5363,103.1292
145.5363,103.1292
145.5363,103.1292
145.3835,103.0332
145.2133,102.9736
145.2133,102.9736
145.0340,102.9534
144.8547,102.9736
144.8547,102.9736
144.6845,103.0332
144.6845,103.0332
144.5317,103.1292
144.4042,103.2567
144.3082,103.4095
144.3082,103.4095
144.2486,103.5797
144.2486,103.5797
144.2284,103.7590
142.5493,103.7590
142.5493,103.7590
142.5291,103.5797
142.4695,103.4095
142.4169,103.3257
142.3736,103.2567
142.3736,103.2567
142.3736,103.2567
142.2460,103.1292
142.2460,103.1292
142.2460,103.1292
142.0933,103.0332
141.9230,102.9736
141.9230,102.9736
141.7438,102.9534
141.5645,102.9736
141.5645,102.9736
141.3942,103.0332
141.3942,103.0332
141.2415,103.1292
141.1139,103.2567
141.0180,103.4095
141.0180,103.4095
140.9584,103.5797
140.9584,103.5797
140.9382,103.7590
139.3045,103.7590
139.3306,103.6843
139.3508,103.5050
139.3306,103.3257
139.3159,103.2837
139.3145,103.2225
139.3159,103.2183
139.3306,103.1763
139.3306,103.1763
139.3306,103.1763
139.3508,102.9970
139.3432,102.9294
146.9395,102.9294
146.9395,103.1105
146.9678,103.2894
147.0238,103.4616
147.0840,103.5797
147.1060,103.6230
147.2124,103.7695
147.3405,103.8976
147.4870,104.0040
147.6484,104.0862
147.8206,104.1422
147.8921,104.1535
147.9995,104.1705
147.9995,104.1705
148.1805,104.1705
148.2700,104.1563
148.3594,104.1422
148.5316,104.0862
148.6930,104.0040
148.8395,103.8976
148.9676,103.7695
149.0740,103.6230
149.1562,103.4616
149.2122,103.2894
149.2263,103.2000
149.2405,103.1105
149.2405,102.9294
149.4795,102.9294
149.4795,103.1105
149.5078,103.2894
149.5638,103.4616
149.6240,103.5797
149.6460,103.6230
149.7524,103.7695
149.8805,103.8976
150.0270,104.0040
150.1884,104.0862
150.3606,104.1422
150.4321,104.1535
150.5395,104.1705
150.5395,104.1705
150.7205,104.1705
150.8100,104.1563
150.8994,104.1422
151.0716,104.0862
151.2330,104.0040
151.3795,103.8976
151.5076,103.7695
151.6140,103.6230
151.6962,103.4616
151.7522,103.2894
151.7663,103.2000
151.7805,103.1105
151.7805,102.9294
152.0195,102.9294
152.0195,103.1105
152.0478,103.2894
152.1038,103.4616
152.1640,103.5797
152.1860,103.6230
152.2924,103.7695
152.4205,103.8976
152.5670,104.0040
152.7284,104.0862
152.9006,104.1422
152.9721,104.1535
153.0795,104.1705
153.0795,104.1705
153.2605,104.1705
153.3500,104.1563
153.4394,104.1422
153.6116,104.0862
153.7730,104.0040
153.9195,103.8976
154.0476,103.7695
154.1540,103.6230
154.2362,103.4616
154.2922,103.2894
154.3063,103.2000
154.3205,103.1105
154.3205,102.9294
154.5595,102.9294
154.5595,103.1105
154.5878,103.2894
154.6438,103.4616
154.7040,103.5797
154.7260,103.6230
154.8324,103.7695
154.9605,103.8976
155.1070,104.0040
155.2684,104.0862
155.4406,104.1422
155.5121,104.1535
155.6195,104.1705
155.6195,104.1705
155.8005,104.1705
155.8900,104.1563
155.9794,104.1422
156.1516,104.0862
156.3130,104.0040
156.4595,103.8976
156.5876,103.7695
156.6940,103.6230
156.7762,103.4616
156.8322,103.2894
156.8463,103.2000
156.8605,103.1105
156.8605,102.9294
157.0995,102.9294
157.0995,103.1105
157.1278,103.2894
157.1838,103.4616
157.2440,103.5797
157.2660,103.6230
157.3724,103.7695
157.5005,103.8976
157.6470,104.0040
157.8084,104.0862
157.9806,104.1422
158.0521,104.1535
158.1595,104.1705
158.1595,104.1705
158.3405,104.1705
158.4300,104.1563
158.5194,104.1422
158.6916,104.0862
158.8530,104.0040
158.9995,103.8976
159.1276,103.7695
159.2340,103.6230
159.3162,103.4616
159.3722,103.2894
159.3863,103.2000
159.4005,103.1105
159.4005,102.9294
159.3761,102.7757
159.3722,102.7506
159.3162,102.5784
159.2340,102.4170
159.1276,102.2705
158.9995,102.1424
158.8530,102.0360
158.8530,102.0360
158.8530,102.0360
158.6916,101.9538
158.5194,101.8978
158.3405,101.8695
158.3405,101.8695
158.1595,101.8695
158.1595,101.8695
157.9806,101.8978
157.8084,101.9538
157.6470,102.0360
157.5738,102.0892
157.5005,102.1424
157.3724,102.2705
157.3439,102.3097
157.2660,102.4170
157.1838,102.5784
157.1278,102.7506
157.0995,102.9294
156.8605,102.9294
156.8361,102.7757
156.8322,102.7506
156.7762,102.5784
156.6940,102.4170
156.5876,102.2705
156.4595,102.1424
156.3130,102.0360
156.3130,102.0360
156.3130,102.0360
156.1516,101.9538
155.9794,101.8978
155.8005,101.8695
155.8005,101.8695
155.6195,101.8695
155.6195,101.8695
155.4406,101.8978
155.2684,101.9538
155.1070,102.0360
155.0338,102.0892
154.9605,102.1424
154.8324,102.2705
154.8039,102.3097
154.7260,102.4170
154.6438,102.5784
154.5878,102.7506
154.5595,102.9294
154.3205,102.9294
154.2961,102.7757
154.2922,102.7506
154.2362,102.5784
154.1540,102.4170
154.0476,102.2705
153.9195,102.1424
153.7730,102.0360
153.7730,102.0360
153.7730,102.0360
153.6116,101.9538
153.4394,101.8978
153.2605,101.8695
153.2605,101.8695
153.0795,101.8695
153.0795,101.8695
152.9006,101.8978
152.7284,101.9538
152.5670,102.0360
152.4938,102.0892
152.4205,102.1424
152.2924,102.2705
152.2639,102.3097
152.1860,102.4170
152.1038,102.5784
152.0478,102.7506
152.0195,102.9294
151.7805,102.9294
151.7561,102.7757
151.7522,102.7506
151.6962,102.5784
151.6140,102.4170
151.5076,102.2705
151.3795,102.1424
151.2330,102.0360
151.2330,102.0360
151.2330,102.0360
151.0716,101.9538
150.8994,101.8978
150.7205,101.8695
150.7205,101.8695
150.5395,101.8695
150.5395,101.8695
150.3606,101.8978
150.1884,101.9538
150.0270,102.0360
149.9538,102.0892
149.8805,102.1424
149.7524,102.2705
149.7239,102.3097
149.6460,102.4170
149.5638,102.5784
149.5078,102.7506
149.4795,102.9294
149.2405,102.9294
149.2161,102.7757
149.2122,102.7506
149.1562,102.5784
149.0740,102.4170
148.9676,102.2705
148.8395,102.1424
148.6930,102.0360
148.6930,102.0360
148.6930,102.0360
148.5316,101.9538
148.3594,101.8978
148.1805,101.8695
148.1805,101.8695
147.9995,101.8695
147.9995,101.8695
147.8206,101.8978
147.6484,101.9538
147.4870,102.0360
147.4138,102.0892
147.3405,102.1424
147.2124,102.2705
147.1839,102.3097
147.1060,102.4170
147.0238,102.5784
146.9678,102.7506
146.9395,102.9294
139.3432,102.9294
139.3306,102.8177
139.3159,102.7757
139.3145,102.7145
139.3159,102.7104
139.3306,102.6683
139.3508,102.4890
139.3306,102.3097
139.2710,102.1395
139.1751,101.9867
139.0475,101.8592
139.0475,101.8592
139.0475,101.8592
138.8948,101.7632
138.7245,101.7036
138.7245,101.7036
138.5452,101.6834
138.3660,101.7036
138.3660,101.7036
138.1957,101.7632
138.1957,101.7632
138.0430,101.8592
137.9154,101.9867
137.8195,102.1395
137.8195,102.1395
137.7599,102.3097
137.7599,102.3097
137.7397,102.4890
130.6705,102.4890
130.6705,99.6950
138.4099,99.6950
138.4301,99.8743
138.4448,99.9163
138.4462,99.9775
138.4448,99.9817
138.4301,100.0237
138.4099,100.2030
138.4301,100.3823
138.4301,100.3823
138.4448,100.4243
138.4462,100.4855
138.4448,100.4897
138.4301,100.5317
138.4099,100.7110
138.4301,100.8903
138.4301,100.8903
138.4897,101.0605
138.4897,101.0605
138.5636,101.1781
138.5857,101.2133
138.7132,101.3408
138.8660,101.4368
138.8795,101.4415
139.0362,101.4964
139.0362,101.4964
139.0362,101.4964
139.2155,101.5166
139.3948,101.4964
139.5650,101.4368
139.7178,101.3408
139.8453,101.2133
139.9413,101.0605
140.0009,100.8903
140.0211,100.7110
140.0009,100.5317
139.9862,100.4897
139.9848,100.4285
139.9862,100.4243
140.0009,100.3823
140.0009,100.3823
140.0009,100.3823
140.0211,100.2030
140.0009,100.0237
140.0009,100.0237
139.9961,100.0101
139.9862,99.9817
139.9848,99.9205
139.9861,99.9164
140.0009,99.8743
140.0211,99.6950
142.7044,99.6950
142.7246,99.8743
142.7246,99.8743
142.7393,99.9163
142.7407,99.9775
142.7393,99.9817
142.7246,100.0237
142.7044,100.2030
142.7246,100.3823
142.7246,100.3823
142.7393,100.4243
142.7407,100.4855
142.7393,100.4897
142.7246,100.5317
142.7246,100.5317
142.7044,100.7110
142.7246,100.8903
142.7246,100.8903
142.7842,101.0605
142.7842,101.0605
142.8802,101.2133
142.8802,101.2133
143.0077,101.3408
143.0077,101.3408
143.0077,101.3408
143.1605,101.4368
143.1605,101.4368
143.2204,101.4577
143.3307,101.4964
143.3307,101.4964
143.3307,101.4964
143.5100,101.5166
143.6893,101.4964
143.8595,101.4368
144.0123,101.3408
144.1398,101.2133
144.2358,101.0605
144.2954,100.8903
144.3156,100.7110
144.2954,100.5317
144.2807,100.4897
144.2793,100.4285
144.2806,100.4243
144.2954,100.3823
144.3156,100.2030
144.2954,100.0237
144.2807,99.9817
144.2793,99.9205
144.2807,99.9163
144.2954,99.8743
144.3156,99.6950
144.2954,99.5157
144.2954,99.5157
144.2954,99.5157
144.2550,99.4005
144.2358,99.3455
144.2358,99.3455
144.1398,99.1927
144.1398,99.1927
144.1398,99.1927
144.0585,99.1115
147.0895,99.1115
147.0895,99.3085
147.1279,99.5018
147.1279,99.5018
147.2034,99.6839
147.2331,99.7284
147.3129,99.8478
147.4522,99.9871
147.6161,100.0966
147.7982,100.1721
147.9915,100.2105
147.9915,100.2105
148.1885,100.2105
148.1885,100.2105
148.3818,100.1721
148.5639,100.0966
148.7278,99.9871
148.8671,99.8478
148.9766,99.6839
149.0521,99.5018
149.0905,99.3085
149.0905,99.1115
149.0905,99.1115
149.6295,99.1115
149.6295,99.3085
149.6679,99.5018
149.6679,99.5018
149.7434,99.6839
149.7731,99.7284
149.8529,99.8478
149.9922,99.9871
150.1561,100.0966
150.3382,100.1721
150.5315,100.2105
150.5315,100.2105
150.7285,100.2105
150.7285,100.2105
150.9218,100.1721
151.1039,100.0966
151.2678,99.9871
151.4071,99.8478
151.5166,99.6839
151.5921,99.5018
151.6305,99.3085
151.6305,99.1115
151.6305,99.1115
152.1695,99.1115
152.1695,99.3085
152.2079,99.5018
152.2079,99.5018
152.2834,99.6839
152.3131,99.7284
152.3929,99.8478
152.5322,99.9871
152.6961,100.0966
152.8782,100.1721
153.0715,100.2105
153.0715,100.2105
153.2685,100.2105
153.2685,100.2105
153.4618,100.1721
153.6439,100.0966
153.8078,99.9871
153.9471,99.8478
154.0566,99.6839
154.1321,99.5018
154.1705,99.3085
154.1705,99.1115
154.1705,99.1115
154.7095,99.1115
154.7095,99.3085
154.7479,99.5018
154.7479,99.5018
154.8234,99.6839
154.8531,99.7284
154.9329,99.8478
155.0722,99.9871
155.2361,100.0966
155.4182,100.1721
155.6115,100.2105
155.6115,100.2105
155.8085,100.2105
155.8085,100.2105
156.0018,100.1721
156.1839,100.0966
156.3478,99.9871
156.4871,99.8478
156.5966,99.6839
156.6721,99.5018
156.7105,99.3085
156.7105,99.1115
156.7105,99.1115
157.2495,99.1115
157.2495,99.3085
157.2879,99.5018
157.2879,99.5018
157.3634,99.6839
157.3931,99.7284
157.4729,99.8478
157.6122,99.9871
157.7761,100.0966
157.9582,100.1721
158.1515,100.2105
158.1515,100.2105
158.3485,100.2105
158.3485,100.2105
158.5418,100.1721
158.7239,100.0966
158.8878,99.9871
159.0271,99.8478
159.1366,99.6839
159.2121,99.5018
159.2494,99.3140
166.5804,99.3140
166.6006,99.4933
166.6006,99.4933
166.6602,99.6635
166.6602,99.6635
166.7562,99.8163
166.7562,99.8163
166.8837,99.9438
166.8837,99.9438
166.8837,99.9438
167.0109,100.0237
167.0365,100.0398
167.1047,100.0636
167.2067,100.0994
167.2067,100.0994
167.2067,100.0994
167.3860,100.1196
167.5653,100.0994
167.6073,100.0847
167.6685,100.0833
167.6727,100.0847
167.7147,100.0994
167.8940,100.1196
168.0733,100.0994
168.1153,100.0847
168.1765,100.0833
168.1807,100.0847
168.2227,100.0994
168.4020,100.1196
168.5813,100.0994
168.6426,100.0779
169.3436,100.0779
169.3638,100.2572
169.3638,100.2572
169.4234,100.4274
169.4234,100.4274
169.5194,100.5802
169.5194,100.5802
169.6469,100.7077
169.7997,100.8037
169.8678,100.8275
169.9699,100.8633
169.9699,100.8633
169.9699,100.8633
170.1492,100.8835
170.3284,100.8633
170.3859,100.8432
170.4471,100.8418
170.4513,100.8432
170.5087,100.8633
170.6880,100.8835
170.6880,100.8835
170.6935,100.8841
170.6933,100.8864
170.7423,100.9024
170.7783,100.9519
170.7825,100.9935
170.7714,101.0920
170.7916,101.2713
170.7916,101.2713
170.8512,101.4415
170.8512,101.4415
170.8984,101.5166
170.9472,101.5943
171.0747,101.7218
171.2275,101.8178
171.2957,101.8416
171.3977,101.8774
171.3977,101.8774
171.3977,101.8774
171.5770,101.8976
171.7563,101.8774
171.9265,101.8178
172.0793,101.7218
172.2068,101.5943
172.2926,101.4577
172.3237,101.4266
172.4603,101.3408
172.5878,101.2133
172.6736,101.0767
172.7047,101.0456
172.8413,100.9598
172.9688,100.8323
173.0648,100.6795
173.1244,100.5093
173.1446,100.3300
173.1244,100.1507
173.1135,100.1196
173.0993,100.0791
173.9547,100.0791
173.9547,100.0791
173.9547,100.2761
173.9907,100.4570
173.9931,100.4694
173.9931,100.4694
174.0686,100.6515
174.0686,100.6515
174.1781,100.8154
174.3174,100.9547
174.4813,101.0642
174.6634,101.1397
174.8567,101.1781
174.8567,101.1781
175.0537,101.1781
175.0537,101.1781
175.2470,101.1397
175.4291,101.0642
175.5930,100.9547
175.7323,100.8154
175.8418,100.6515
175.9173,100.4694
175.9557,100.2761
175.9557,100.0791
175.9557,100.0791
176.4947,100.0791
176.4947,100.0791
176.4947,100.2761
176.5307,100.4570
176.5331,100.4694
176.5331,100.4694
176.6086,100.6515
176.6086,100.6515
176.7181,100.8154
176.8574,100.9547
177.0213,101.0642
177.2034,101.1397
177.3967,101.1781
177.3967,101.1781
177.5937,101.1781
177.5937,101.1781
177.7870,101.1397
177.9691,101.0642
178.1330,100.9547
178.2723,100.8154
178.3818,100.6515
178.4573,100.4694
178.4957,100.2761
178.4957,100.0791
178.4573,99.8858
178.3818,99.7037
178.2723,99.5398
178.1330,99.4005
178.0036,99.3140
177.9691,99.2910
177.7870,99.2155
177.5937,99.1771
177.5937,99.1771
177.3967,99.1771
177.3967,99.1771
177.2034,99.2155
177.2034,99.2155
177.0213,99.2910
176.8574,99.4005
176.8574,99.4005
176.7181,99.5398
176.7181,99.5398
176.6086,99.7037
176.5331,99.8858
176.5331,99.8858
176.4947,100.0791
175.9557,100.0791
175.9173,99.8858
175.8418,99.7037
175.7323,99.5398
175.5930,99.4005
175.4636,99.3140
175.4291,99.2910
175.2470,99.2155
175.0537,99.1771
175.0537,99.1771
174.8567,99.1771
174.8567,99.1771
174.6634,99.2155
174.6634,99.2155
174.4813,99.2910
174.3174,99.4005
174.3174,99.4005
174.1781,99.5398
174.1781,99.5398
174.0686,99.7037
173.9931,99.8858
173.9931,99.8858
173.9547,100.0791
173.0993,100.0791
173.0799,100.0237
173.0648,99.9805
173.0450,99.9490
172.9688,99.8277
172.9688,99.8277
172.9688,99.8277
172.8413,99.7002
172.8413,99.7002
172.8413,99.7002
172.6885,99.6042
172.5183,99.5446
172.5183,99.5446
172.3390,99.5244
172.1597,99.5446
172.1597,99.5446
171.9895,99.6042
171.9845,99.6066
171.9837,99.6051
171.9316,99.6182
171.8748,99.5954
171.8608,99.5794
171.8601,99.5800
171.8566,99.5756
171.8566,99.5756
171.8566,99.5756
171.7291,99.4481
171.7291,99.4481
171.7291,99.4481
171.5763,99.3521
171.4061,99.2925
171.4061,99.2925
171.2268,99.2723
171.0476,99.2925
170.9901,99.3126
170.9289,99.3140
170.9247,99.3126
170.8673,99.2925
170.6880,99.2723
170.5087,99.2925
170.4513,99.3126
170.3901,99.3140
170.3859,99.3126
170.3284,99.2925
170.1492,99.2723
169.9699,99.2925
169.9699,99.2925
169.7997,99.3521
169.7997,99.3521
169.6469,99.4481
169.5194,99.5756
169.4234,99.7284
169.4234,99.7284
169.3638,99.8986
169.3638,99.8986
169.3436,100.0779
168.6426,100.0779
168.7515,100.0398
168.9043,99.9438
169.0318,99.8163
169.1278,99.6635
169.1874,99.4933
169.2076,99.3140
169.1874,99.1347
169.1792,99.1115
169.1294,98.9692
169.1278,98.9645
169.0987,98.9182
169.0318,98.8117
169.0318,98.8117
169.0318,98.8117
168.9043,98.6842
168.9043,98.6842
168.9043,98.6842
168.7515,98.5882
168.5813,98.5286
168.5813,98.5286
168.4020,98.5084
168.2227,98.5286
168.2227,98.5286
168.1807,98.5433
168.1195,98.5447
168.1153,98.5433
168.0733,98.5286
168.0733,98.5286
167.8940,98.5084
167.7147,98.5286
167.7147,98.5286
167.6727,98.5433
167.6115,98.5447
167.6073,98.5433
167.5653,98.5286
167.5653,98.5286
167.3860,98.5084
167.2067,98.5286
167.2067,98.5286
167.0365,98.5882
167.0365,98.5882
166.8837,98.6842
166.7562,98.8117
166.6602,98.9645
166.6602,98.9645
166.6006,99.1347
166.6006,99.1347
166.5804,99.3140
159.2494,99.3140
159.2505,99.3085
159.2505,99.1115
159.2121,98.9182
159.1366,98.7361
159.0271,98.5722
158.8878,98.4329
158.7239,98.3234
158.7239,98.3234
158.7239,98.3234
158.5418,98.2479
158.3485,98.2095
158.3485,98.2095
158.1515,98.2095
158.1515,98.2095
157.9582,98.2479
157.9582,98.2479
157.7761,98.3234
157.6122,98.4329
157.6122,98.4329
157.4729,98.5722
157.4729,98.5722
157.3634,98.7361
157.2879,98.9182
157.2879,98.9182
157.2495,99.1115
156.7105,99.1115
156.6721,98.9182
156.5966,98.7361
156.4871,98.5722
156.3478,98.4329
156.1839,98.3234
156.1839,98.3234
156.1839,98.3234
156.0018,98.2479
155.8085,98.2095
155.8085,98.2095
155.6115,98.2095
155.6115,98.2095
155.4182,98.2479
155.4182,98.2479
155.2361,98.3234
155.0722,98.4329
155.0722,98.4329
154.9329,98.5722
154.9329,98.5722
154.8234,98.7361
154.7479,98.9182
154.7479,98.9182
154.7095,99.1115
154.1705,99.1115
154.1321,98.9182
154.0566,98.7361
153.9471,98.5722
153.8078,98.4329
153.6439,98.3234
153.6439,98.3234
153.6439,98.3234
153.4618,98.2479
153.2685,98.2095
153.2685,98.2095
153.0715,98.2095
153.0715,98.2095
152.8782,98.2479
152.8782,98.2479
152.6961,98.3234
152.5322,98.4329
152.5322,98.4329
152.3929,98.5722
152.3929,98.5722
152.2834,98.7361
152.2079,98.9182
152.2079,98.9182
152.1695,99.1115
151.6305,99.1115
151.5921,98.9182
151.5166,98.7361
151.4071,98.5722
151.2678,98.4329
151.1039,98.3234
151.1039,98.3234
151.1039,98.3234
150.9218,98.2479
150.7285,98.2095
150.7285,98.2095
150.5315,98.2095
150.5315,98.2095
150.3382,98.2479
150.3382,98.2479
150.1561,98.3234
149.9922,98.4329
149.9922,98.4329
149.8529,98.5722
149.8529,98.5722
149.7434,98.7361
149.6679,98.9182
149.6679,98.9182
149.6295,99.1115
149.0905,99.1115
149.0521,98.9182
148.9766,98.7361
148.8671,98.5722
148.7278,98.4329
148.5639,98.3234
148.5639,98.3234
148.5639,98.3234
148.3818,98.2479
148.1885,98.2095
148.1885,98.2095
147.9915,98.2095
147.9915,98.2095
147.7982,98.2479
147.7982,98.2479
147.6161,98.3234
147.4522,98.4329
147.4522,98.4329
147.3129,98.5722
147.3129,98.5722
147.2034,98.7361
147.1279,98.9182
147.1279,98.9182
147.0895,99.1115
144.0585,99.1115
144.0123,99.0652
144.0123,99.0652
144.0123,99.0652
143.8595,98.9692
143.6893,98.9096
143.6893,98.9096
143.5100,98.8894
143.3307,98.9096
143.3307,98.9096
143.1605,98.9692
143.1605,98.9692
143.0077,99.0652
142.8802,99.1927
142.7842,99.3455
142.7842,99.3455
142.7246,99.5157
142.7246,99.5157
142.7044,99.6950
140.0211,99.6950
140.0211,99.6950
140.0009,99.5157
140.0009,99.5157
140.0009,99.5157
139.9605,99.4005
139.9413,99.3455
139.9215,99.3140
139.8453,99.1927
139.8453,99.1927
139.8453,99.1927
139.7178,99.0652
139.7178,99.0652
139.7178,99.0652
139.5650,98.9692
139.3948,98.9096
139.3948,98.9096
139.2155,98.8894
139.0362,98.9096
139.0362,98.9096
138.8660,98.9692
138.8660,98.9692
138.7132,99.0652
138.5857,99.1927
138.4897,99.3455
138.4897,99.3455
138.4301,99.5157
138.4301,99.5157
138.4099,99.6950
130.6705,99.6950
130.6705,96.5584
131.9733,96.5584
131.9733,96.8337
132.0093,97.1067
132.0481,97.2516
132.0805,97.3727
132.1859,97.6271
132.1859,97.6271
132.3236,97.8655
132.4912,98.0840
132.6859,98.2787
132.9044,98.4463
133.1428,98.5840
133.1428,98.5840
133.1428,98.5840
133.3847,98.6842
133.3972,98.6893
133.6632,98.7606
133.9362,98.7966
133.9362,98.7966
134.2115,98.7966
134.2115,98.7966
134.4845,98.7606
134.7505,98.6893
135.0049,98.5840
135.2433,98.4463
135.4618,98.2787
135.6565,98.0840
135.8241,97.8655
135.9618,97.6271
136.0671,97.3727
136.1384,97.1067
136.1743,96.8337
136.1743,96.5584
136.1384,96.2854
136.0671,96.0194
135.9618,95.7650
135.8241,95.5266
135.6565,95.3081
135.4618,95.1134
135.2753,94.9703
135.2433,94.9458
135.0049,94.8081
134.7505,94.7028
134.6294,94.6703
134.4845,94.6315
134.4845,94.6315
134.2115,94.5956
134.2115,94.5956
133.9362,94.5956
133.9362,94.5956
133.6632,94.6315
133.6632,94.6315
133.6632,94.6315
133.5626,94.6584
133.3972,94.7028
133.1428,94.8081
132.9044,94.9458
132.6859,95.1134
132.4912,95.3081
132.3236,95.5266
132.1859,95.7650
132.0805,96.0194
132.0511,96.1295
132.0093,96.2854
132.0093,96.2854
132.0093,96.2854
131.9781,96.5225
131.9733,96.5584
130.6705,96.5584
130.6705,95.3332
130.6707,95.3268
130.6875,95.0703
130.6892,95.0574
130.7387,94.8085
130.7421,94.7960
130.8237,94.5556
130.8286,94.5437
130.9409,94.3161
130.9473,94.3049
130.9975,94.2297
131.0347,94.1741
170.3595,94.1741
170.3595,96.0699
170.3595,96.0699
170.3659,96.1295
170.3659,96.1295
170.4162,96.2643
170.4626,96.3263
170.5025,96.3795
170.5025,96.3795
170.5025,96.3795
170.6177,96.4658
170.7525,96.5161
170.7525,96.5161
170.7525,96.5161
170.8121,96.5225
172.6179,96.5225
172.6775,96.5161
172.7498,96.4891
172.8123,96.4658
172.8123,96.4658
172.8123,96.4658
172.9275,96.3795
173.0138,96.2643
173.0138,96.2643
173.0180,96.2587
173.0197,96.2599
173.0570,96.2247
173.1176,96.2169
173.1576,96.2341
173.2846,96.3263
173.4747,96.4232
173.6776,96.4891
173.6776,96.4891
173.6776,96.4891
173.8883,96.5225
173.8883,96.5225
174.1017,96.5225
174.3124,96.4891
174.3124,96.4891
174.3124,96.4891
174.5153,96.4232
174.7054,96.3263
174.8780,96.2009
175.0289,96.0500
175.0549,96.0143
175.1044,95.9783
175.1656,95.9783
175.2151,96.0143
175.2151,96.0143
175.2411,96.0500
175.2411,96.0500
175.2411,96.0500
175.3920,96.2009
175.5646,96.3263
175.7547,96.4232
175.9576,96.4891
175.9576,96.4891
175.9576,96.4891
176.1683,96.5225
176.1683,96.5225
176.3817,96.5225
176.5924,96.4891
176.5924,96.4891
176.5924,96.4891
176.7953,96.4232
176.9854,96.3263
177.1580,96.2009
177.3089,96.0500
177.4343,95.8774
177.5312,95.6873
177.5971,95.4844
177.6216,95.3300
177.6305,95.2737
177.6305,94.9703
177.5971,94.7596
177.5971,94.7596
177.5312,94.5567
177.4343,94.3666
177.3089,94.1940
177.1580,94.0431
176.9854,93.9177
176.9854,93.9177
176.9854,93.9177
176.7953,93.8208
176.5924,93.7549
176.3817,93.7215
176.3817,93.7215
176.1683,93.7215
176.1683,93.7215
175.9576,93.7549
175.7547,93.8208
175.5646,93.9177
175.3920,94.0431
175.2411,94.1940
175.2151,94.2297
175.1656,94.2657
175.1044,94.2657
175.0549,94.2297
175.0289,94.1940
174.8780,94.0431
174.7054,93.9177
174.7054,93.9177
174.7054,93.9177
174.5153,93.8208
174.3124,93.7549
174.1017,93.7215
174.1017,93.7215
173.8883,93.7215
173.8883,93.7215
173.6776,93.7549
173.4747,93.8208
173.2846,93.9177
173.1576,94.0099
173.0994,94.0288
173.0412,94.0099
173.0190,93.9846
173.0180,93.9853
172.9275,93.8645
172.9275,93.8645
172.9275,93.8645
172.8692,93.8208
172.8123,93.7782
172.6775,93.7279
172.6775,93.7279
172.6775,93.7279
172.6775,93.7279
172.6462,93.7245
172.6179,93.7215
172.6179,93.7215
170.8121,93.7215
170.8121,93.7215
170.8121,93.7215
170.8049,93.7223
170.7525,93.7279
170.7525,93.7279
170.6177,93.7782
170.5025,93.8644
170.5024,93.8645
170.4162,93.9797
170.3659,94.1145
170.3659,94.1145
170.3595,94.1741
131.0347,94.1741
131.0884,94.0938
131.0962,94.0836
131.2636,93.8927
131.2727,93.8836
131.4636,93.7162
131.4738,93.7084
131.6849,93.5673
131.6961,93.5609
131.9237,93.4486
131.9356,93.4437
132.1760,93.3621
132.1885,93.3587
132.4374,93.3092
132.4503,93.3075
132.7068,93.2907
132.7132,93.2905
132.7759,93.2905
177.5641,93.2905
177.6268,93.2905
Z" /> 
</g>
<g style="fill:none; 
stroke:#D0D2CD; stroke-width:0.0500; stroke-opacity:1; 
stroke-linecap:round; stroke-linejoin:round;">
<path d="M180.1700 95.3300
L180.1700 132.7500
" />
<path d="M132.7100 92.7900 A2.5400 2.5400 0.0 0 0 130.1700 95.3300" />
<path d="M180.1700 95.3300 A2.5400 2.5400 0.0 0 0 177.6300 92.7900" />
<path d="M130.1700 132.7500
L130.1700 95.3300
" />
<path d="M130.1700 132.7500 A2.5400 2.5400 0.0 0 0 132.7100 135.2900" />
<path d="M132.7100 92.7900
L177.6300 92.7900
" />
<path d="M177.6300 135.2900 A2.5400 2.5400 0.0 0 0 180.1700 132.7500" />
<path d="M177.6300 135.2900
L132.7100 135.2900
" />
</g> 
</svg>
