M48
; DRILL file {KiCad 8.0.6} date 2024-11-19T20:08:14+0100
; FORMAT={-:-/ absolute / metric / decimal}
; #@! TF.CreationDate,2024-11-19T20:08:14+01:00
; #@! TF.GenerationSoftware,Kicad,Pcbnew,8.0.6
; #@! TF.FileFunction,Plated,1,4,PTH
FMAT,2
METRIC
; #@! TA.AperFunction,Plated,PTH,ViaDrill
T1C0.300
; #@! TA.AperFunction,Plated,PTH,ComponentDrill
T2C0.700
; #@! TA.AperFunction,Plated,PTH,ComponentDrill
T3C0.800
; #@! TA.AperFunction,Plated,PTH,ComponentDrill
T4C1.000
%
G90
G05
T1
X132.588Y-126.619
X132.588Y-127.127
X132.588Y-127.635
X137.211Y-122.682
X137.719Y-122.682
X138.227Y-122.682
X138.545Y-102.489
X138.545Y-102.997
X138.545Y-103.505
X139.215Y-99.695
X139.215Y-100.203
X139.216Y-100.711
X141.224Y-127.254
X141.224Y-127.762
X141.224Y-128.27
X141.554Y-107.823
X141.554Y-108.331
X141.554Y-108.839
X141.744Y-103.759
X141.744Y-104.267
X141.744Y-104.775
X143.51Y-99.695
X143.51Y-100.203
X143.51Y-100.711
X145.034Y-103.759
X145.034Y-104.267
X145.034Y-104.775
X145.948Y-123.952
X145.948Y-124.46
X145.948Y-124.968
X151.511Y-114.427
X151.511Y-114.935
X151.511Y-115.443
X153.924Y-106.426
X153.924Y-106.934
X153.924Y-107.442
X154.178Y-116.967
X154.178Y-117.475
X154.178Y-117.983
X155.067Y-113.284
X155.637Y-113.284
X156.21Y-113.284
X159.053Y-105.664
X159.053Y-106.172
X159.053Y-106.68
X160.553Y-95.453
X161.061Y-95.453
X161.569Y-95.453
X163.195Y-111.379
X163.703Y-111.379
X164.211Y-111.379
X164.61Y-125.451
X164.614Y-123.55
X164.915Y-126.467
X164.919Y-122.563
X165.397Y-127.381
X165.422Y-121.629
X165.423Y-125.451
X165.44Y-123.55
X165.862Y-110.744
X165.862Y-111.252
X165.862Y-111.76
X165.982Y-126.797
X165.997Y-122.203
X166.083Y-125.977
X166.092Y-123.042
X166.739Y-128.728
X166.769Y-120.287
X167.313Y-128.153
X167.353Y-120.872
X167.386Y-99.314
X167.673Y-129.231
X167.683Y-119.805
X167.894Y-99.314
X168.152Y-128.058
X168.173Y-120.973
X168.216Y-124.103
X168.216Y-124.942
X168.402Y-99.314
X168.572Y-124.519
X168.66Y-128.71
X168.66Y-129.536
X168.699Y-119.5
X168.699Y-120.313
X169.08Y-124.519
X169.63Y-124.52
X170.149Y-100.078
X170.18Y-124.52
X170.561Y-128.727
X170.561Y-129.54
X170.6Y-119.504
X170.6Y-120.33
X170.688Y-100.078
X170.688Y-124.52
X171.044Y-124.104
X171.044Y-124.943
X171.087Y-128.067
X171.108Y-120.982
X171.227Y-100.078
X171.577Y-101.092
X171.577Y-129.235
X171.587Y-119.809
X171.907Y-128.168
X171.947Y-120.887
X171.958Y-100.711
X172.339Y-100.33
X172.491Y-128.753
X172.521Y-120.312
X173.168Y-125.998
X173.177Y-123.063
X173.263Y-126.837
X173.278Y-122.243
X173.82Y-125.49
X173.837Y-123.589
X173.838Y-127.411
X173.863Y-121.659
X174.341Y-126.477
X174.345Y-122.573
X174.646Y-125.49
X174.65Y-123.589
X175.768Y-110.998
X175.768Y-111.506
X175.768Y-112.014
X176.657Y-112.903
X176.657Y-113.411
X176.657Y-113.919
T2
X166.703Y-124.52
X167.558Y-122.455
X167.558Y-126.585
X169.623Y-121.6
X169.623Y-127.44
X171.688Y-122.455
X171.688Y-126.585
X172.543Y-124.52
T3
X135.001Y-109.271
X135.001Y-116.891
X138.811Y-109.271
X138.811Y-116.891
X167.742Y-109.525
X167.767Y-106.172
X171.552Y-109.525
X171.577Y-106.172
T4
X143.129Y-115.443
X143.129Y-117.983
X143.891Y-128.905
X143.891Y-131.445
X148.08Y-128.94
X148.09Y-99.21
X150.62Y-128.94
X150.63Y-99.21
X153.16Y-128.94
X153.17Y-99.21
X155.7Y-128.94
X155.71Y-99.21
X158.24Y-128.94
X158.25Y-99.21
X171.715Y-95.122
X173.995Y-95.122
X174.955Y-100.178
X176.275Y-95.122
X177.495Y-100.178
M30
