%TF.GenerationSoftware,KiCad,Pcbnew,8.0.6*%
%TF.CreationDate,2024-11-19T20:08:14+01:00*%
%TF.ProjectId,3458A Ref A9 Clone,33343538-4120-4526-9566-20413920436c,rev?*%
%TF.SameCoordinates,Original*%
%TF.FileFunction,Copper,L3,Inr*%
%TF.FilePolarity,Positive*%
%FSLAX46Y46*%
G04 Gerber Fmt 4.6, Leading zero omitted, Abs format (unit mm)*
G04 Created by KiCad (PCBNEW 8.0.6) date 2024-11-19 20:08:14*
%MOMM*%
%LPD*%
G01*
G04 APERTURE LIST*
%TA.AperFunction,ComponentPad*%
%ADD10C,1.500000*%
%TD*%
%TA.AperFunction,ComponentPad*%
%ADD11R,1.710000X1.800000*%
%TD*%
%TA.AperFunction,ComponentPad*%
%ADD12O,1.710000X1.800000*%
%TD*%
%TA.AperFunction,ViaPad*%
%ADD13C,0.600000*%
%TD*%
%ADD14C,0.300000*%
%ADD15C,0.350000*%
G04 APERTURE END LIST*
D10*
%TO.N,+7V REF*%
%TO.C,R3*%
X167741600Y-109524800D03*
%TD*%
%TO.N,+7V REF*%
%TO.C,R415*%
X135001000Y-109270800D03*
%TD*%
%TO.N,+7V REF*%
%TO.C,R413*%
X167767000Y-106172000D03*
%TD*%
%TO.N,Net-(Q401-E)*%
%TO.C,U401*%
X172543018Y-124519986D03*
%TO.N,Net-(D401-A)*%
X171687770Y-122455234D03*
%TO.N,Net-(JP1-A)*%
X169623018Y-121599986D03*
%TO.N,ZD-*%
X167558266Y-122455234D03*
%TO.N,Net-(U402B-+)*%
X166703018Y-124519986D03*
%TO.N,J400 (1): Temp*%
X167558266Y-126584738D03*
%TO.N,J400 (2): REF GND*%
X169623018Y-127439986D03*
%TO.N,Net-(C414-Pad1)*%
X171687770Y-126584738D03*
%TD*%
D11*
%TO.N,J401 (1): Heater*%
%TO.C,Q401*%
X171715000Y-95122000D03*
D12*
%TO.N,+18H*%
X173994999Y-95122000D03*
%TO.N,Net-(Q401-E)*%
X176275000Y-95122000D03*
%TD*%
D13*
%TO.N,J400 (2): REF GND*%
X145948499Y-123952001D03*
X145948500Y-124968001D03*
X145948500Y-124459998D03*
%TO.N,Net-(Q401-E)*%
X176657000Y-112903000D03*
X176657001Y-113918999D03*
X176657000Y-113411000D03*
%TO.N,Net-(D401-A)*%
X175768000Y-110998000D03*
X175768000Y-111506000D03*
X175768001Y-112013999D03*
%TO.N,J400 (2): REF GND*%
X153924000Y-106425999D03*
X153924001Y-107441999D03*
X153924000Y-106934000D03*
%TO.N,+7V REF*%
X160553400Y-95453201D03*
X137718800Y-122682000D03*
X154178000Y-116967000D03*
X165862000Y-110744001D03*
X154178000Y-117983000D03*
X154178000Y-117475000D03*
X138226800Y-122682000D03*
X137210801Y-122682001D03*
X165862001Y-111760000D03*
X165862000Y-111252001D03*
X161061399Y-95453200D03*
X161569399Y-95453200D03*
%TO.N,J400 (2): REF GND*%
X139215500Y-100203001D03*
X159052999Y-106172000D03*
X159052999Y-106680000D03*
X145033999Y-103759001D03*
X159052998Y-105664000D03*
X145034000Y-104267000D03*
X141554199Y-107822998D03*
X145034000Y-104775000D03*
X132588000Y-127635000D03*
X132588000Y-127127000D03*
X141554199Y-108330999D03*
X141554200Y-108838998D03*
X139215501Y-100710998D03*
X132588000Y-126619000D03*
X139215500Y-99694998D03*
%TO.N,J400 (1): Temp*%
X141224000Y-127254000D03*
X151511000Y-114935000D03*
X151511000Y-114427000D03*
X141224000Y-127762000D03*
X141224000Y-128270000D03*
X151511000Y-115443000D03*
%TO.N,Net-(D401-A)*%
X167386000Y-99314000D03*
X167894000Y-99314000D03*
X168402000Y-99314000D03*
%TO.N,unconnected-(J400-Pin_2-Pad2)*%
X167672582Y-129230870D03*
X168660411Y-129536199D03*
X173263271Y-126836632D03*
X170688000Y-124519986D03*
X168216436Y-124941614D03*
X167352836Y-120871572D03*
X170599625Y-120329957D03*
X168660411Y-128710015D03*
X165981604Y-126797168D03*
X170561000Y-128727200D03*
X173176832Y-123063000D03*
X164610004Y-125450968D03*
X165422804Y-125450968D03*
X170561000Y-129540000D03*
X168216436Y-124103414D03*
X173837232Y-123589004D03*
X164613805Y-123550379D03*
X164914804Y-126466968D03*
X173168239Y-125997718D03*
X174646231Y-125489593D03*
X168173032Y-120973172D03*
X171946664Y-120886733D03*
X174650032Y-123589004D03*
X166768636Y-120287372D03*
X171587454Y-119809102D03*
X171107750Y-120981765D03*
X165422028Y-121628604D03*
X165439989Y-123550379D03*
X171907200Y-128168400D03*
X166083204Y-125976972D03*
X167683036Y-119804772D03*
X170180000Y-124519986D03*
X173278432Y-122242804D03*
X173820047Y-125489593D03*
X172521400Y-120311996D03*
X171043600Y-124942600D03*
X168699036Y-120312772D03*
X171043600Y-124104400D03*
X174340902Y-126477422D03*
X166091797Y-123042254D03*
X164919134Y-122562550D03*
X173862632Y-121658604D03*
X174345232Y-122573004D03*
X166738636Y-128727976D03*
X167313372Y-128153239D03*
X165996765Y-122203340D03*
X172491400Y-128752600D03*
X169630018Y-124519986D03*
X165397404Y-127381368D03*
X173838008Y-127411368D03*
X171577000Y-129235200D03*
X170599625Y-119503773D03*
X168572036Y-124519000D03*
X169080036Y-124519000D03*
X171087004Y-128066800D03*
X168699036Y-119499972D03*
X168152286Y-128058207D03*
%TO.N,-15*%
X141743750Y-104267000D03*
X138545250Y-103505000D03*
X143510000Y-100710999D03*
X141743751Y-104774999D03*
X143509999Y-99695000D03*
X138545250Y-102997000D03*
X138545249Y-102489001D03*
X143510000Y-100203001D03*
X141743750Y-103759000D03*
%TO.N,Net-(Q401-E)*%
X163195000Y-111379000D03*
X164211000Y-111379000D03*
X172339000Y-100330000D03*
X171577000Y-101092000D03*
X163703000Y-111379000D03*
X171958000Y-100711000D03*
%TO.N,Net-(C1-Pad1)*%
X170149185Y-100077900D03*
X171226815Y-100077900D03*
X156210000Y-113284000D03*
X155067000Y-113284000D03*
X155637000Y-113284000D03*
X170688000Y-100077900D03*
%TD*%
%TA.AperFunction,Conductor*%
%TO.N,unconnected-(J400-Pin_2-Pad2)*%
G36*
X170423500Y-122649570D02*
G01*
X170458595Y-122699689D01*
X170459548Y-122703012D01*
X170508195Y-122884564D01*
X170522864Y-122916021D01*
X170600667Y-123082871D01*
X170723600Y-123258439D01*
X170726172Y-123262111D01*
X170880893Y-123416832D01*
X170880896Y-123416834D01*
X170880897Y-123416835D01*
X170920588Y-123444627D01*
X171060131Y-123542336D01*
X171258440Y-123634809D01*
X171439992Y-123683455D01*
X171491305Y-123716779D01*
X171513232Y-123773901D01*
X171497396Y-123833001D01*
X171495465Y-123835865D01*
X171455913Y-123892352D01*
X171455910Y-123892358D01*
X171363444Y-124090652D01*
X171306809Y-124302016D01*
X171287741Y-124519982D01*
X171287741Y-124519989D01*
X171306809Y-124737955D01*
X171306810Y-124737962D01*
X171306811Y-124737963D01*
X171363443Y-124949316D01*
X171435069Y-125102919D01*
X171455915Y-125147623D01*
X171495464Y-125204105D01*
X171513353Y-125262617D01*
X171493433Y-125320469D01*
X171443313Y-125355563D01*
X171439992Y-125356516D01*
X171258434Y-125405164D01*
X171060142Y-125497630D01*
X171060134Y-125497634D01*
X170880897Y-125623136D01*
X170726168Y-125777865D01*
X170600666Y-125957102D01*
X170600662Y-125957110D01*
X170508196Y-126155402D01*
X170459548Y-126336960D01*
X170426223Y-126388274D01*
X170369102Y-126410200D01*
X170310001Y-126394364D01*
X170307145Y-126392437D01*
X170250657Y-126352884D01*
X170052348Y-126260411D01*
X169840995Y-126203779D01*
X169840994Y-126203778D01*
X169840987Y-126203777D01*
X169623021Y-126184709D01*
X169623015Y-126184709D01*
X169405048Y-126203777D01*
X169193684Y-126260412D01*
X168995390Y-126352878D01*
X168995384Y-126352881D01*
X168938897Y-126392433D01*
X168880384Y-126410321D01*
X168822533Y-126390400D01*
X168787439Y-126340279D01*
X168786495Y-126336988D01*
X168737841Y-126155408D01*
X168645368Y-125957100D01*
X168561558Y-125837406D01*
X168519867Y-125777865D01*
X168519866Y-125777864D01*
X168519864Y-125777861D01*
X168365143Y-125623140D01*
X168365139Y-125623137D01*
X168365138Y-125623136D01*
X168265701Y-125553510D01*
X168185905Y-125497636D01*
X167987596Y-125405163D01*
X167850315Y-125368378D01*
X167806044Y-125356516D01*
X167754729Y-125323191D01*
X167732803Y-125266070D01*
X167748639Y-125206969D01*
X167750521Y-125204178D01*
X167790120Y-125147625D01*
X167882593Y-124949316D01*
X167939225Y-124737963D01*
X167953389Y-124576072D01*
X167958295Y-124519989D01*
X167958295Y-124519982D01*
X167939226Y-124302016D01*
X167939225Y-124302013D01*
X167939225Y-124302009D01*
X167882593Y-124090656D01*
X167856172Y-124033996D01*
X167790125Y-123892358D01*
X167790121Y-123892350D01*
X167750571Y-123835866D01*
X167732682Y-123777354D01*
X167752602Y-123719502D01*
X167802723Y-123684408D01*
X167806000Y-123683467D01*
X167987596Y-123634809D01*
X168185905Y-123542336D01*
X168365143Y-123416832D01*
X168519864Y-123262111D01*
X168645368Y-123082873D01*
X168737841Y-122884564D01*
X168786488Y-122703009D01*
X168819811Y-122651698D01*
X168876933Y-122629771D01*
X168936033Y-122645607D01*
X168938878Y-122647525D01*
X168995379Y-122687088D01*
X169193688Y-122779561D01*
X169405041Y-122836193D01*
X169405045Y-122836193D01*
X169405048Y-122836194D01*
X169623015Y-122855263D01*
X169623018Y-122855263D01*
X169623021Y-122855263D01*
X169840987Y-122836194D01*
X169840988Y-122836193D01*
X169840995Y-122836193D01*
X170052348Y-122779561D01*
X170250657Y-122687088D01*
X170307140Y-122647537D01*
X170365648Y-122629650D01*
X170423500Y-122649570D01*
G37*
%TD.AperFunction*%
%TA.AperFunction,Conductor*%
G36*
X170033889Y-119081282D02*
G01*
X170041252Y-119081834D01*
X170439183Y-119126670D01*
X170446503Y-119127774D01*
X170542581Y-119145953D01*
X170839966Y-119202221D01*
X170847178Y-119203867D01*
X171233984Y-119307511D01*
X171241053Y-119309692D01*
X171619025Y-119441951D01*
X171625907Y-119444651D01*
X171992976Y-119604802D01*
X171999596Y-119607990D01*
X172353678Y-119795127D01*
X172360036Y-119798798D01*
X172699125Y-120011862D01*
X172705242Y-120016033D01*
X173027426Y-120253814D01*
X173033212Y-120258427D01*
X173328887Y-120512878D01*
X173336745Y-120519640D01*
X173342172Y-120524675D01*
X173625327Y-120807830D01*
X173630362Y-120813257D01*
X173891572Y-121116787D01*
X173896188Y-121122576D01*
X174133969Y-121444760D01*
X174138140Y-121450877D01*
X174351194Y-121789949D01*
X174354879Y-121796333D01*
X174542006Y-122150395D01*
X174545207Y-122157041D01*
X174705349Y-122524091D01*
X174708053Y-122530982D01*
X174840309Y-122908946D01*
X174842492Y-122916021D01*
X174946134Y-123302821D01*
X174947781Y-123310039D01*
X175022228Y-123703499D01*
X175023332Y-123710819D01*
X175068167Y-124108739D01*
X175068720Y-124116122D01*
X175083693Y-124516283D01*
X175083693Y-124523687D01*
X175068720Y-124923848D01*
X175068167Y-124931231D01*
X175023332Y-125329151D01*
X175022228Y-125336471D01*
X174947781Y-125729931D01*
X174946134Y-125737149D01*
X174842492Y-126123949D01*
X174840309Y-126131024D01*
X174708053Y-126508988D01*
X174705349Y-126515879D01*
X174545207Y-126882929D01*
X174542001Y-126889585D01*
X174354886Y-127243626D01*
X174351194Y-127250021D01*
X174138140Y-127589093D01*
X174133969Y-127595210D01*
X173896188Y-127917394D01*
X173891572Y-127923183D01*
X173630362Y-128226713D01*
X173625327Y-128232140D01*
X173342172Y-128515295D01*
X173336745Y-128520330D01*
X173033215Y-128781540D01*
X173027426Y-128786156D01*
X172705242Y-129023937D01*
X172699125Y-129028108D01*
X172360053Y-129241162D01*
X172353658Y-129244854D01*
X171999617Y-129431969D01*
X171992961Y-129435175D01*
X171625911Y-129595317D01*
X171619020Y-129598021D01*
X171241056Y-129730277D01*
X171233981Y-129732460D01*
X170847181Y-129836102D01*
X170839963Y-129837749D01*
X170446503Y-129912196D01*
X170439183Y-129913300D01*
X170041263Y-129958135D01*
X170033880Y-129958688D01*
X169633719Y-129973661D01*
X169626315Y-129973661D01*
X169226154Y-129958688D01*
X169218771Y-129958135D01*
X168820851Y-129913300D01*
X168813531Y-129912196D01*
X168420071Y-129837749D01*
X168412853Y-129836102D01*
X168026053Y-129732460D01*
X168018978Y-129730277D01*
X167641014Y-129598021D01*
X167634123Y-129595317D01*
X167267073Y-129435175D01*
X167260427Y-129431974D01*
X166906365Y-129244847D01*
X166899989Y-129241167D01*
X166705867Y-129119192D01*
X166560909Y-129028108D01*
X166554792Y-129023937D01*
X166232608Y-128786156D01*
X166226819Y-128781540D01*
X165923289Y-128520330D01*
X165917862Y-128515295D01*
X165634707Y-128232140D01*
X165629672Y-128226713D01*
X165368462Y-127923183D01*
X165363846Y-127917394D01*
X165328362Y-127869315D01*
X165126064Y-127595209D01*
X165121894Y-127589093D01*
X164997807Y-127391610D01*
X164908830Y-127250004D01*
X164905159Y-127243646D01*
X164718022Y-126889564D01*
X164714834Y-126882944D01*
X164554683Y-126515875D01*
X164551981Y-126508988D01*
X164517413Y-126410200D01*
X164419724Y-126131021D01*
X164417542Y-126123949D01*
X164356933Y-125897753D01*
X164313899Y-125737146D01*
X164312253Y-125729931D01*
X164306506Y-125699560D01*
X164237806Y-125336471D01*
X164236702Y-125329151D01*
X164236444Y-125326858D01*
X164191866Y-124931220D01*
X164191314Y-124923848D01*
X164184359Y-124737963D01*
X164176341Y-124523674D01*
X164176341Y-124519982D01*
X165447741Y-124519982D01*
X165447741Y-124519989D01*
X165466809Y-124737955D01*
X165466810Y-124737962D01*
X165466811Y-124737963D01*
X165523443Y-124949316D01*
X165595069Y-125102919D01*
X165615915Y-125147623D01*
X165738848Y-125323191D01*
X165741420Y-125326863D01*
X165896141Y-125481584D01*
X165896144Y-125481586D01*
X165896145Y-125481587D01*
X165935836Y-125509379D01*
X166075379Y-125607088D01*
X166273688Y-125699561D01*
X166455240Y-125748207D01*
X166506553Y-125781531D01*
X166528480Y-125838653D01*
X166512644Y-125897753D01*
X166510713Y-125900617D01*
X166471161Y-125957104D01*
X166471158Y-125957110D01*
X166378692Y-126155404D01*
X166322057Y-126366768D01*
X166302989Y-126584734D01*
X166302989Y-126584741D01*
X166322057Y-126802707D01*
X166322058Y-126802714D01*
X166322059Y-126802715D01*
X166378691Y-127014068D01*
X166471164Y-127212377D01*
X166596668Y-127391615D01*
X166751389Y-127546336D01*
X166930627Y-127671840D01*
X167128936Y-127764313D01*
X167340289Y-127820945D01*
X167340293Y-127820945D01*
X167340296Y-127820946D01*
X167558263Y-127840015D01*
X167558266Y-127840015D01*
X167558269Y-127840015D01*
X167776235Y-127820946D01*
X167776236Y-127820945D01*
X167776243Y-127820945D01*
X167987596Y-127764313D01*
X168185905Y-127671840D01*
X168242388Y-127632289D01*
X168300896Y-127614402D01*
X168358748Y-127634322D01*
X168393843Y-127684441D01*
X168394796Y-127687764D01*
X168443443Y-127869316D01*
X168467255Y-127920380D01*
X168535915Y-128067623D01*
X168651110Y-128232140D01*
X168661420Y-128246863D01*
X168816141Y-128401584D01*
X168995379Y-128527088D01*
X169193688Y-128619561D01*
X169405041Y-128676193D01*
X169405045Y-128676193D01*
X169405048Y-128676194D01*
X169623015Y-128695263D01*
X169623018Y-128695263D01*
X169623021Y-128695263D01*
X169840987Y-128676194D01*
X169840988Y-128676193D01*
X169840995Y-128676193D01*
X170052348Y-128619561D01*
X170250657Y-128527088D01*
X170429895Y-128401584D01*
X170584616Y-128246863D01*
X170710120Y-128067625D01*
X170802593Y-127869316D01*
X170851240Y-127687761D01*
X170884563Y-127636450D01*
X170941685Y-127614523D01*
X171000785Y-127630359D01*
X171003630Y-127632277D01*
X171060131Y-127671840D01*
X171258440Y-127764313D01*
X171469793Y-127820945D01*
X171469797Y-127820945D01*
X171469800Y-127820946D01*
X171687767Y-127840015D01*
X171687770Y-127840015D01*
X171687773Y-127840015D01*
X171905739Y-127820946D01*
X171905740Y-127820945D01*
X171905747Y-127820945D01*
X172117100Y-127764313D01*
X172315409Y-127671840D01*
X172494647Y-127546336D01*
X172649368Y-127391615D01*
X172774872Y-127212377D01*
X172867345Y-127014068D01*
X172923977Y-126802715D01*
X172943047Y-126584738D01*
X172937023Y-126515879D01*
X172923978Y-126366768D01*
X172923977Y-126366765D01*
X172923977Y-126366761D01*
X172867345Y-126155408D01*
X172774872Y-125957100D01*
X172735322Y-125900617D01*
X172717434Y-125842106D01*
X172737354Y-125784254D01*
X172787475Y-125749160D01*
X172790752Y-125748219D01*
X172972348Y-125699561D01*
X173170657Y-125607088D01*
X173349895Y-125481584D01*
X173504616Y-125326863D01*
X173630120Y-125147625D01*
X173722593Y-124949316D01*
X173779225Y-124737963D01*
X173793389Y-124576072D01*
X173798295Y-124519989D01*
X173798295Y-124519982D01*
X173779226Y-124302016D01*
X173779225Y-124302013D01*
X173779225Y-124302009D01*
X173722593Y-124090656D01*
X173696172Y-124033996D01*
X173630125Y-123892358D01*
X173630121Y-123892350D01*
X173504619Y-123713113D01*
X173504618Y-123713112D01*
X173504616Y-123713109D01*
X173349895Y-123558388D01*
X173349891Y-123558385D01*
X173349890Y-123558384D01*
X173250453Y-123488758D01*
X173170657Y-123432884D01*
X172972348Y-123340411D01*
X172826347Y-123301290D01*
X172790796Y-123291764D01*
X172739481Y-123258439D01*
X172717555Y-123201318D01*
X172733391Y-123142217D01*
X172735273Y-123139426D01*
X172774872Y-123082873D01*
X172867345Y-122884564D01*
X172923977Y-122673211D01*
X172926046Y-122649570D01*
X172943047Y-122455237D01*
X172943047Y-122455230D01*
X172923978Y-122237264D01*
X172923977Y-122237261D01*
X172923977Y-122237257D01*
X172867345Y-122025904D01*
X172774872Y-121827596D01*
X172649368Y-121648357D01*
X172494647Y-121493636D01*
X172494643Y-121493633D01*
X172494642Y-121493632D01*
X172335227Y-121382009D01*
X172315409Y-121368132D01*
X172117100Y-121275659D01*
X171905747Y-121219027D01*
X171905746Y-121219026D01*
X171905739Y-121219025D01*
X171687773Y-121199957D01*
X171687767Y-121199957D01*
X171469800Y-121219025D01*
X171258436Y-121275660D01*
X171060142Y-121368126D01*
X171060136Y-121368129D01*
X171003649Y-121407681D01*
X170945136Y-121425569D01*
X170887285Y-121405648D01*
X170852191Y-121355527D01*
X170851247Y-121352236D01*
X170802593Y-121170656D01*
X170710120Y-120972348D01*
X170598724Y-120813257D01*
X170584619Y-120793113D01*
X170584618Y-120793112D01*
X170584616Y-120793109D01*
X170429895Y-120638388D01*
X170429891Y-120638385D01*
X170429890Y-120638384D01*
X170267496Y-120524675D01*
X170250657Y-120512884D01*
X170052348Y-120420411D01*
X169840995Y-120363779D01*
X169840994Y-120363778D01*
X169840987Y-120363777D01*
X169623021Y-120344709D01*
X169623015Y-120344709D01*
X169405048Y-120363777D01*
X169193684Y-120420412D01*
X168995390Y-120512878D01*
X168995382Y-120512882D01*
X168816145Y-120638384D01*
X168661416Y-120793113D01*
X168535914Y-120972350D01*
X168535910Y-120972358D01*
X168443444Y-121170650D01*
X168394796Y-121352208D01*
X168361471Y-121403522D01*
X168304350Y-121425448D01*
X168245249Y-121409612D01*
X168242393Y-121407685D01*
X168185905Y-121368132D01*
X167987596Y-121275659D01*
X167776243Y-121219027D01*
X167776242Y-121219026D01*
X167776235Y-121219025D01*
X167558269Y-121199957D01*
X167558263Y-121199957D01*
X167340296Y-121219025D01*
X167128932Y-121275660D01*
X166930638Y-121368126D01*
X166930630Y-121368130D01*
X166751393Y-121493632D01*
X166596664Y-121648361D01*
X166471162Y-121827598D01*
X166471158Y-121827606D01*
X166378692Y-122025900D01*
X166322057Y-122237264D01*
X166302989Y-122455230D01*
X166302989Y-122455237D01*
X166322057Y-122673203D01*
X166322058Y-122673210D01*
X166322059Y-122673211D01*
X166378691Y-122884564D01*
X166393360Y-122916021D01*
X166471163Y-123082871D01*
X166510712Y-123139353D01*
X166528601Y-123197865D01*
X166508681Y-123255717D01*
X166458561Y-123290811D01*
X166455240Y-123291764D01*
X166273682Y-123340412D01*
X166075390Y-123432878D01*
X166075382Y-123432882D01*
X165896145Y-123558384D01*
X165741416Y-123713113D01*
X165615914Y-123892350D01*
X165615910Y-123892358D01*
X165523444Y-124090652D01*
X165466809Y-124302016D01*
X165447741Y-124519982D01*
X164176341Y-124519982D01*
X164176341Y-124516297D01*
X164191314Y-124116111D01*
X164191865Y-124108752D01*
X164236702Y-123710814D01*
X164237806Y-123703499D01*
X164265263Y-123558388D01*
X164312254Y-123310030D01*
X164313900Y-123302821D01*
X164417545Y-122916010D01*
X164419725Y-122908946D01*
X164428257Y-122884563D01*
X164551986Y-122530968D01*
X164554679Y-122524104D01*
X164714839Y-122157015D01*
X164718016Y-122150417D01*
X164905165Y-121796312D01*
X164908823Y-121789977D01*
X165121902Y-121450864D01*
X165126055Y-121444773D01*
X165363859Y-121122559D01*
X165368448Y-121116803D01*
X165629684Y-120813243D01*
X165634694Y-120807843D01*
X165917875Y-120524662D01*
X165923275Y-120519652D01*
X166226835Y-120258416D01*
X166232591Y-120253827D01*
X166554805Y-120016023D01*
X166560896Y-120011870D01*
X166900009Y-119798791D01*
X166906344Y-119795133D01*
X167260449Y-119607984D01*
X167267047Y-119604807D01*
X167634136Y-119444647D01*
X167641000Y-119441954D01*
X168018989Y-119309689D01*
X168026042Y-119307513D01*
X168412862Y-119203865D01*
X168420062Y-119202222D01*
X168813532Y-119127773D01*
X168820846Y-119126670D01*
X169218784Y-119081833D01*
X169226143Y-119081282D01*
X169626330Y-119066309D01*
X169633706Y-119066309D01*
X170033889Y-119081282D01*
G37*
%TD.AperFunction*%
%TD*%
%TA.AperFunction,Conductor*%
%TO.N,+7V REF*%
G36*
X177633234Y-93290711D02*
G01*
X177889736Y-93307523D01*
X177902564Y-93309212D01*
X178151502Y-93358729D01*
X178164002Y-93362078D01*
X178316736Y-93413925D01*
X178404344Y-93443664D01*
X178416307Y-93448620D01*
X178643926Y-93560869D01*
X178655142Y-93567344D01*
X178866175Y-93708352D01*
X178876448Y-93716235D01*
X179067265Y-93883577D01*
X179076422Y-93892734D01*
X179243764Y-94083551D01*
X179251647Y-94093824D01*
X179392655Y-94304857D01*
X179399130Y-94316073D01*
X179511379Y-94543692D01*
X179516335Y-94555655D01*
X179597919Y-94795992D01*
X179601271Y-94808501D01*
X179650786Y-95057430D01*
X179652476Y-95070269D01*
X179669288Y-95326765D01*
X179669500Y-95333240D01*
X179669500Y-132746759D01*
X179669288Y-132753234D01*
X179652476Y-133009730D01*
X179650786Y-133022569D01*
X179601271Y-133271498D01*
X179597919Y-133284007D01*
X179516335Y-133524344D01*
X179511379Y-133536307D01*
X179399130Y-133763926D01*
X179392655Y-133775142D01*
X179251647Y-133986175D01*
X179243764Y-133996448D01*
X179076422Y-134187265D01*
X179067265Y-134196422D01*
X178876448Y-134363764D01*
X178866175Y-134371647D01*
X178655142Y-134512655D01*
X178643926Y-134519130D01*
X178416307Y-134631379D01*
X178404344Y-134636335D01*
X178164007Y-134717919D01*
X178151498Y-134721271D01*
X177902569Y-134770786D01*
X177889730Y-134772476D01*
X177633235Y-134789288D01*
X177626760Y-134789500D01*
X132713240Y-134789500D01*
X132706765Y-134789288D01*
X132450269Y-134772476D01*
X132437430Y-134770786D01*
X132188501Y-134721271D01*
X132175992Y-134717919D01*
X131935655Y-134636335D01*
X131923692Y-134631379D01*
X131696073Y-134519130D01*
X131684857Y-134512655D01*
X131473824Y-134371647D01*
X131463551Y-134363764D01*
X131272734Y-134196422D01*
X131263577Y-134187265D01*
X131096235Y-133996448D01*
X131088352Y-133986175D01*
X130947344Y-133775142D01*
X130940869Y-133763926D01*
X130828620Y-133536307D01*
X130823664Y-133524344D01*
X130801600Y-133459346D01*
X130742078Y-133284002D01*
X130738728Y-133271498D01*
X130727748Y-133216300D01*
X130689212Y-133022564D01*
X130687523Y-133009730D01*
X130685693Y-132981811D01*
X130670712Y-132753234D01*
X130670500Y-132746759D01*
X130670500Y-131346456D01*
X142890500Y-131346456D01*
X142890500Y-131543543D01*
X142928949Y-131736834D01*
X142928949Y-131736836D01*
X143004367Y-131918913D01*
X143004368Y-131918914D01*
X143113861Y-132082782D01*
X143253218Y-132222139D01*
X143417086Y-132331632D01*
X143599165Y-132407051D01*
X143792459Y-132445500D01*
X143792460Y-132445500D01*
X143989540Y-132445500D01*
X143989541Y-132445500D01*
X144182835Y-132407051D01*
X144364914Y-132331632D01*
X144528782Y-132222139D01*
X144668139Y-132082782D01*
X144777632Y-131918914D01*
X144853051Y-131736835D01*
X144891500Y-131543541D01*
X144891500Y-131346459D01*
X144853051Y-131153165D01*
X144777632Y-130971086D01*
X144668139Y-130807218D01*
X144528782Y-130667861D01*
X144364914Y-130558368D01*
X144364915Y-130558368D01*
X144364913Y-130558367D01*
X144182835Y-130482949D01*
X143989543Y-130444500D01*
X143989541Y-130444500D01*
X143792459Y-130444500D01*
X143792456Y-130444500D01*
X143599165Y-130482949D01*
X143599163Y-130482949D01*
X143417086Y-130558367D01*
X143253218Y-130667861D01*
X143253214Y-130667864D01*
X143113864Y-130807214D01*
X143113861Y-130807218D01*
X143004367Y-130971086D01*
X142928949Y-131153163D01*
X142928949Y-131153165D01*
X142890500Y-131346456D01*
X130670500Y-131346456D01*
X130670500Y-126619000D01*
X131782435Y-126619000D01*
X131802632Y-126798257D01*
X131802634Y-126798263D01*
X131817344Y-126840305D01*
X131818716Y-126901475D01*
X131817344Y-126905695D01*
X131802634Y-126947736D01*
X131802632Y-126947742D01*
X131782435Y-127127000D01*
X131802632Y-127306257D01*
X131802634Y-127306263D01*
X131817344Y-127348305D01*
X131818716Y-127409475D01*
X131817344Y-127413695D01*
X131802634Y-127455736D01*
X131802632Y-127455742D01*
X131782435Y-127635000D01*
X131802632Y-127814257D01*
X131802633Y-127814261D01*
X131862211Y-127984522D01*
X131862211Y-127984523D01*
X131958181Y-128137258D01*
X131958184Y-128137262D01*
X132085738Y-128264816D01*
X132085740Y-128264817D01*
X132085741Y-128264818D01*
X132145256Y-128302214D01*
X132238478Y-128360789D01*
X132306657Y-128384646D01*
X132408738Y-128420366D01*
X132408742Y-128420367D01*
X132408745Y-128420368D01*
X132588000Y-128440565D01*
X132767255Y-128420368D01*
X132937522Y-128360789D01*
X133090262Y-128264816D01*
X133217816Y-128137262D01*
X133313789Y-127984522D01*
X133373368Y-127814255D01*
X133393565Y-127635000D01*
X133373368Y-127455745D01*
X133358654Y-127413698D01*
X133357281Y-127352529D01*
X133358655Y-127348301D01*
X133373367Y-127306258D01*
X133373367Y-127306257D01*
X133373368Y-127306255D01*
X133379256Y-127254000D01*
X140418435Y-127254000D01*
X140438632Y-127433257D01*
X140438634Y-127433263D01*
X140453344Y-127475305D01*
X140454716Y-127536475D01*
X140453344Y-127540695D01*
X140438634Y-127582736D01*
X140438632Y-127582742D01*
X140418435Y-127762000D01*
X140438632Y-127941257D01*
X140438634Y-127941263D01*
X140453344Y-127983305D01*
X140454716Y-128044475D01*
X140453344Y-128048695D01*
X140438634Y-128090736D01*
X140438632Y-128090742D01*
X140418435Y-128270000D01*
X140438632Y-128449257D01*
X140438633Y-128449261D01*
X140498211Y-128619522D01*
X140498211Y-128619523D01*
X140577613Y-128745890D01*
X140594184Y-128772262D01*
X140721738Y-128899816D01*
X140874478Y-128995789D01*
X140896638Y-129003543D01*
X141044738Y-129055366D01*
X141044742Y-129055367D01*
X141044745Y-129055368D01*
X141224000Y-129075565D01*
X141403255Y-129055368D01*
X141573522Y-128995789D01*
X141726262Y-128899816D01*
X141819622Y-128806456D01*
X142890500Y-128806456D01*
X142890500Y-129003543D01*
X142928949Y-129196834D01*
X142928949Y-129196836D01*
X143004367Y-129378913D01*
X143027754Y-129413914D01*
X143113861Y-129542782D01*
X143253218Y-129682139D01*
X143417086Y-129791632D01*
X143599165Y-129867051D01*
X143792459Y-129905500D01*
X143792460Y-129905500D01*
X143989540Y-129905500D01*
X143989541Y-129905500D01*
X144182835Y-129867051D01*
X144364914Y-129791632D01*
X144528782Y-129682139D01*
X144668139Y-129542782D01*
X144777632Y-129378914D01*
X144853051Y-129196835D01*
X144891500Y-129003541D01*
X144891500Y-128841456D01*
X147079500Y-128841456D01*
X147079500Y-129038543D01*
X147117949Y-129231834D01*
X147117949Y-129231836D01*
X147193367Y-129413913D01*
X147193368Y-129413914D01*
X147302861Y-129577782D01*
X147442218Y-129717139D01*
X147606086Y-129826632D01*
X147788165Y-129902051D01*
X147981459Y-129940500D01*
X147981460Y-129940500D01*
X148178540Y-129940500D01*
X148178541Y-129940500D01*
X148371835Y-129902051D01*
X148553914Y-129826632D01*
X148717782Y-129717139D01*
X148857139Y-129577782D01*
X148966632Y-129413914D01*
X149042051Y-129231835D01*
X149080500Y-129038541D01*
X149080500Y-128841459D01*
X149080499Y-128841456D01*
X149619500Y-128841456D01*
X149619500Y-129038543D01*
X149657949Y-129231834D01*
X149657949Y-129231836D01*
X149733367Y-129413913D01*
X149733368Y-129413914D01*
X149842861Y-129577782D01*
X149982218Y-129717139D01*
X150146086Y-129826632D01*
X150328165Y-129902051D01*
X150521459Y-129940500D01*
X150521460Y-129940500D01*
X150718540Y-129940500D01*
X150718541Y-129940500D01*
X150911835Y-129902051D01*
X151093914Y-129826632D01*
X151257782Y-129717139D01*
X151397139Y-129577782D01*
X151506632Y-129413914D01*
X151582051Y-129231835D01*
X151620500Y-129038541D01*
X151620500Y-128841459D01*
X151620499Y-128841456D01*
X152159500Y-128841456D01*
X152159500Y-129038543D01*
X152197949Y-129231834D01*
X152197949Y-129231836D01*
X152273367Y-129413913D01*
X152273368Y-129413914D01*
X152382861Y-129577782D01*
X152522218Y-129717139D01*
X152686086Y-129826632D01*
X152868165Y-129902051D01*
X153061459Y-129940500D01*
X153061460Y-129940500D01*
X153258540Y-129940500D01*
X153258541Y-129940500D01*
X153451835Y-129902051D01*
X153633914Y-129826632D01*
X153797782Y-129717139D01*
X153937139Y-129577782D01*
X154046632Y-129413914D01*
X154122051Y-129231835D01*
X154160500Y-129038541D01*
X154160500Y-128841459D01*
X154160499Y-128841456D01*
X154699500Y-128841456D01*
X154699500Y-129038543D01*
X154737949Y-129231834D01*
X154737949Y-129231836D01*
X154813367Y-129413913D01*
X154813368Y-129413914D01*
X154922861Y-129577782D01*
X155062218Y-129717139D01*
X155226086Y-129826632D01*
X155408165Y-129902051D01*
X155601459Y-129940500D01*
X155601460Y-129940500D01*
X155798540Y-129940500D01*
X155798541Y-129940500D01*
X155991835Y-129902051D01*
X156173914Y-129826632D01*
X156337782Y-129717139D01*
X156477139Y-129577782D01*
X156586632Y-129413914D01*
X156662051Y-129231835D01*
X156700500Y-129038541D01*
X156700500Y-128841459D01*
X156700499Y-128841456D01*
X157239500Y-128841456D01*
X157239500Y-129038543D01*
X157277949Y-129231834D01*
X157277949Y-129231836D01*
X157353367Y-129413913D01*
X157353368Y-129413914D01*
X157462861Y-129577782D01*
X157602218Y-129717139D01*
X157766086Y-129826632D01*
X157948165Y-129902051D01*
X158141459Y-129940500D01*
X158141460Y-129940500D01*
X158338540Y-129940500D01*
X158338541Y-129940500D01*
X158531835Y-129902051D01*
X158713914Y-129826632D01*
X158877782Y-129717139D01*
X159017139Y-129577782D01*
X159126632Y-129413914D01*
X159202051Y-129231835D01*
X159240500Y-129038541D01*
X159240500Y-128841459D01*
X159202051Y-128648165D01*
X159126632Y-128466086D01*
X159017139Y-128302218D01*
X158877782Y-128162861D01*
X158713914Y-128053368D01*
X158713915Y-128053368D01*
X158713913Y-128053367D01*
X158531835Y-127977949D01*
X158338543Y-127939500D01*
X158338541Y-127939500D01*
X158141459Y-127939500D01*
X158141456Y-127939500D01*
X157948165Y-127977949D01*
X157948163Y-127977949D01*
X157766086Y-128053367D01*
X157602218Y-128162861D01*
X157602214Y-128162864D01*
X157462864Y-128302214D01*
X157462861Y-128302218D01*
X157353367Y-128466086D01*
X157277949Y-128648163D01*
X157277949Y-128648165D01*
X157239500Y-128841456D01*
X156700499Y-128841456D01*
X156662051Y-128648165D01*
X156586632Y-128466086D01*
X156477139Y-128302218D01*
X156337782Y-128162861D01*
X156173914Y-128053368D01*
X156173915Y-128053368D01*
X156173913Y-128053367D01*
X155991835Y-127977949D01*
X155798543Y-127939500D01*
X155798541Y-127939500D01*
X155601459Y-127939500D01*
X155601456Y-127939500D01*
X155408165Y-127977949D01*
X155408163Y-127977949D01*
X155226086Y-128053367D01*
X155062218Y-128162861D01*
X155062214Y-128162864D01*
X154922864Y-128302214D01*
X154922861Y-128302218D01*
X154813367Y-128466086D01*
X154737949Y-128648163D01*
X154737949Y-128648165D01*
X154699500Y-128841456D01*
X154160499Y-128841456D01*
X154122051Y-128648165D01*
X154046632Y-128466086D01*
X153937139Y-128302218D01*
X153797782Y-128162861D01*
X153633914Y-128053368D01*
X153633915Y-128053368D01*
X153633913Y-128053367D01*
X153451835Y-127977949D01*
X153258543Y-127939500D01*
X153258541Y-127939500D01*
X153061459Y-127939500D01*
X153061456Y-127939500D01*
X152868165Y-127977949D01*
X152868163Y-127977949D01*
X152686086Y-128053367D01*
X152522218Y-128162861D01*
X152522214Y-128162864D01*
X152382864Y-128302214D01*
X152382861Y-128302218D01*
X152273367Y-128466086D01*
X152197949Y-128648163D01*
X152197949Y-128648165D01*
X152159500Y-128841456D01*
X151620499Y-128841456D01*
X151582051Y-128648165D01*
X151506632Y-128466086D01*
X151397139Y-128302218D01*
X151257782Y-128162861D01*
X151093914Y-128053368D01*
X151093915Y-128053368D01*
X151093913Y-128053367D01*
X150911835Y-127977949D01*
X150718543Y-127939500D01*
X150718541Y-127939500D01*
X150521459Y-127939500D01*
X150521456Y-127939500D01*
X150328165Y-127977949D01*
X150328163Y-127977949D01*
X150146086Y-128053367D01*
X149982218Y-128162861D01*
X149982214Y-128162864D01*
X149842864Y-128302214D01*
X149842861Y-128302218D01*
X149733367Y-128466086D01*
X149657949Y-128648163D01*
X149657949Y-128648165D01*
X149619500Y-128841456D01*
X149080499Y-128841456D01*
X149042051Y-128648165D01*
X148966632Y-128466086D01*
X148857139Y-128302218D01*
X148717782Y-128162861D01*
X148553914Y-128053368D01*
X148553915Y-128053368D01*
X148553913Y-128053367D01*
X148371835Y-127977949D01*
X148178543Y-127939500D01*
X148178541Y-127939500D01*
X147981459Y-127939500D01*
X147981456Y-127939500D01*
X147788165Y-127977949D01*
X147788163Y-127977949D01*
X147606086Y-128053367D01*
X147442218Y-128162861D01*
X147442214Y-128162864D01*
X147302864Y-128302214D01*
X147302861Y-128302218D01*
X147193367Y-128466086D01*
X147117949Y-128648163D01*
X147117949Y-128648165D01*
X147079500Y-128841456D01*
X144891500Y-128841456D01*
X144891500Y-128806459D01*
X144853051Y-128613165D01*
X144777632Y-128431086D01*
X144668139Y-128267218D01*
X144528782Y-128127861D01*
X144364914Y-128018368D01*
X144364915Y-128018368D01*
X144364913Y-128018367D01*
X144182835Y-127942949D01*
X143989543Y-127904500D01*
X143989541Y-127904500D01*
X143792459Y-127904500D01*
X143792456Y-127904500D01*
X143599165Y-127942949D01*
X143599163Y-127942949D01*
X143417086Y-128018367D01*
X143253218Y-128127861D01*
X143253214Y-128127864D01*
X143113864Y-128267214D01*
X143113861Y-128267218D01*
X143004367Y-128431086D01*
X142928949Y-128613163D01*
X142928949Y-128613165D01*
X142890500Y-128806456D01*
X141819622Y-128806456D01*
X141853816Y-128772262D01*
X141949789Y-128619522D01*
X142009368Y-128449255D01*
X142029565Y-128270000D01*
X142009368Y-128090745D01*
X141994654Y-128048698D01*
X141993281Y-127987529D01*
X141994655Y-127983301D01*
X142009367Y-127941258D01*
X142009367Y-127941257D01*
X142009368Y-127941255D01*
X142029565Y-127762000D01*
X142009368Y-127582745D01*
X141994654Y-127540698D01*
X141993281Y-127479529D01*
X141994655Y-127475301D01*
X142009367Y-127433258D01*
X142009367Y-127433257D01*
X142009368Y-127433255D01*
X142029565Y-127254000D01*
X142009368Y-127074745D01*
X141949789Y-126904478D01*
X141909466Y-126840305D01*
X141853818Y-126751741D01*
X141853817Y-126751740D01*
X141853816Y-126751738D01*
X141726262Y-126624184D01*
X141726259Y-126624182D01*
X141726258Y-126624181D01*
X141573523Y-126528211D01*
X141403261Y-126468633D01*
X141403257Y-126468632D01*
X141224000Y-126448435D01*
X141044742Y-126468632D01*
X141044738Y-126468633D01*
X140874477Y-126528211D01*
X140874476Y-126528211D01*
X140721741Y-126624181D01*
X140594181Y-126751741D01*
X140498211Y-126904476D01*
X140498211Y-126904477D01*
X140438633Y-127074738D01*
X140438632Y-127074742D01*
X140418435Y-127254000D01*
X133379256Y-127254000D01*
X133393565Y-127127000D01*
X133373368Y-126947745D01*
X133358654Y-126905698D01*
X133357281Y-126844529D01*
X133358655Y-126840301D01*
X133373367Y-126798258D01*
X133373367Y-126798257D01*
X133373368Y-126798255D01*
X133393565Y-126619000D01*
X133373368Y-126439745D01*
X133313789Y-126269478D01*
X133302914Y-126252171D01*
X133217818Y-126116741D01*
X133217817Y-126116740D01*
X133217816Y-126116738D01*
X133090262Y-125989184D01*
X133090259Y-125989182D01*
X133090258Y-125989181D01*
X132937523Y-125893211D01*
X132767261Y-125833633D01*
X132767257Y-125833632D01*
X132588000Y-125813435D01*
X132408742Y-125833632D01*
X132408738Y-125833633D01*
X132238477Y-125893211D01*
X132238476Y-125893211D01*
X132085741Y-125989181D01*
X131958181Y-126116741D01*
X131862211Y-126269476D01*
X131862211Y-126269477D01*
X131802633Y-126439738D01*
X131802632Y-126439742D01*
X131782435Y-126619000D01*
X130670500Y-126619000D01*
X130670500Y-123952001D01*
X145142934Y-123952001D01*
X145163131Y-124131258D01*
X145163132Y-124131262D01*
X145177843Y-124173302D01*
X145179216Y-124234472D01*
X145177844Y-124238696D01*
X145163132Y-124280740D01*
X145142935Y-124459998D01*
X145163132Y-124639255D01*
X145177845Y-124681303D01*
X145179217Y-124742473D01*
X145177845Y-124746694D01*
X145163132Y-124788741D01*
X145142935Y-124968001D01*
X145163132Y-125147258D01*
X145163133Y-125147262D01*
X145222711Y-125317523D01*
X145222711Y-125317524D01*
X145274163Y-125399409D01*
X145318684Y-125470263D01*
X145446238Y-125597817D01*
X145598978Y-125693790D01*
X145667157Y-125717647D01*
X145769238Y-125753367D01*
X145769242Y-125753368D01*
X145769245Y-125753369D01*
X145948500Y-125773566D01*
X146127755Y-125753369D01*
X146298022Y-125693790D01*
X146450762Y-125597817D01*
X146578316Y-125470263D01*
X146674289Y-125317523D01*
X146733868Y-125147256D01*
X146733868Y-125147251D01*
X146733981Y-125146762D01*
X146734127Y-125146517D01*
X146735705Y-125142008D01*
X146736627Y-125142330D01*
X146765359Y-125094235D01*
X146821619Y-125070184D01*
X146881271Y-125083795D01*
X146921531Y-125129869D01*
X146929500Y-125168785D01*
X146929500Y-125220549D01*
X146957828Y-125399406D01*
X146957829Y-125399409D01*
X147013789Y-125571639D01*
X147096004Y-125732994D01*
X147202447Y-125879501D01*
X147330499Y-126007553D01*
X147477006Y-126113996D01*
X147638361Y-126196211D01*
X147810591Y-126252171D01*
X147882136Y-126263502D01*
X147989451Y-126280500D01*
X147989454Y-126280500D01*
X148170549Y-126280500D01*
X148259977Y-126266335D01*
X148349409Y-126252171D01*
X148521639Y-126196211D01*
X148682994Y-126113996D01*
X148829501Y-126007553D01*
X148957553Y-125879501D01*
X149063996Y-125732994D01*
X149146211Y-125571639D01*
X149202171Y-125399409D01*
X149230500Y-125220546D01*
X149230500Y-125039454D01*
X149230500Y-125039450D01*
X152009500Y-125039450D01*
X152009500Y-125220549D01*
X152037828Y-125399406D01*
X152037829Y-125399409D01*
X152093789Y-125571639D01*
X152176004Y-125732994D01*
X152282447Y-125879501D01*
X152410499Y-126007553D01*
X152557006Y-126113996D01*
X152718361Y-126196211D01*
X152890591Y-126252171D01*
X152962136Y-126263502D01*
X153069451Y-126280500D01*
X153069454Y-126280500D01*
X153250549Y-126280500D01*
X153339977Y-126266335D01*
X153429409Y-126252171D01*
X153601639Y-126196211D01*
X153762994Y-126113996D01*
X153909501Y-126007553D01*
X154037553Y-125879501D01*
X154143996Y-125732994D01*
X154226211Y-125571639D01*
X154282171Y-125399409D01*
X154310500Y-125220546D01*
X154310500Y-125039454D01*
X154310500Y-125039450D01*
X154549500Y-125039450D01*
X154549500Y-125220549D01*
X154577828Y-125399406D01*
X154577829Y-125399409D01*
X154633789Y-125571639D01*
X154716004Y-125732994D01*
X154822447Y-125879501D01*
X154950499Y-126007553D01*
X155097006Y-126113996D01*
X155258361Y-126196211D01*
X155430591Y-126252171D01*
X155502136Y-126263502D01*
X155609451Y-126280500D01*
X155609454Y-126280500D01*
X155790549Y-126280500D01*
X155879977Y-126266335D01*
X155969409Y-126252171D01*
X156141639Y-126196211D01*
X156302994Y-126113996D01*
X156449501Y-126007553D01*
X156577553Y-125879501D01*
X156683996Y-125732994D01*
X156766211Y-125571639D01*
X156822171Y-125399409D01*
X156850500Y-125220546D01*
X156850500Y-125039454D01*
X156850500Y-125039450D01*
X157089500Y-125039450D01*
X157089500Y-125220549D01*
X157117828Y-125399406D01*
X157117829Y-125399409D01*
X157173789Y-125571639D01*
X157256004Y-125732994D01*
X157362447Y-125879501D01*
X157490499Y-126007553D01*
X157637006Y-126113996D01*
X157798361Y-126196211D01*
X157970591Y-126252171D01*
X158042136Y-126263502D01*
X158149451Y-126280500D01*
X158149454Y-126280500D01*
X158330549Y-126280500D01*
X158419977Y-126266335D01*
X158509409Y-126252171D01*
X158681639Y-126196211D01*
X158842994Y-126113996D01*
X158989501Y-126007553D01*
X159117553Y-125879501D01*
X159223996Y-125732994D01*
X159306211Y-125571639D01*
X159362171Y-125399409D01*
X159390500Y-125220546D01*
X159390500Y-125039454D01*
X159390500Y-125039450D01*
X159362171Y-124860593D01*
X159362171Y-124860592D01*
X159362171Y-124860591D01*
X159306211Y-124688361D01*
X159223996Y-124527006D01*
X159178147Y-124463900D01*
X161081067Y-124463900D01*
X161081067Y-124519986D01*
X161081067Y-124576072D01*
X161089025Y-124788746D01*
X161100780Y-125102928D01*
X161109163Y-125214789D01*
X161168192Y-125738677D01*
X161184910Y-125849596D01*
X161282923Y-126367616D01*
X161307887Y-126476986D01*
X161307888Y-126476989D01*
X161434026Y-126947742D01*
X161444344Y-126986247D01*
X161477407Y-127093437D01*
X161648623Y-127582742D01*
X161651533Y-127591058D01*
X161692514Y-127695477D01*
X161903343Y-128178703D01*
X161930910Y-128235948D01*
X161952014Y-128279771D01*
X162198358Y-128745876D01*
X162254456Y-128843041D01*
X162476760Y-129196834D01*
X162534949Y-129289441D01*
X162598137Y-129382121D01*
X162598147Y-129382134D01*
X162598148Y-129382136D01*
X162621600Y-129413913D01*
X162911208Y-129806318D01*
X162981146Y-129894017D01*
X162981156Y-129894029D01*
X163325038Y-130293628D01*
X163325044Y-130293634D01*
X163401342Y-130375864D01*
X163774140Y-130748662D01*
X163774153Y-130748674D01*
X163774155Y-130748676D01*
X163856375Y-130824965D01*
X164255974Y-131168847D01*
X164255981Y-131168852D01*
X164255985Y-131168856D01*
X164343686Y-131238796D01*
X164767883Y-131551867D01*
X164860563Y-131615055D01*
X165054373Y-131736834D01*
X165306962Y-131895547D01*
X165306969Y-131895551D01*
X165404114Y-131951638D01*
X165870234Y-132197990D01*
X165971301Y-132246661D01*
X166454527Y-132457490D01*
X166558946Y-132498471D01*
X166763447Y-132570029D01*
X167056566Y-132672596D01*
X167056576Y-132672599D01*
X167163764Y-132705662D01*
X167673015Y-132842116D01*
X167752200Y-132860189D01*
X167782387Y-132867080D01*
X168005772Y-132909346D01*
X168300404Y-132965093D01*
X168411322Y-132981811D01*
X168935223Y-133040841D01*
X169047085Y-133049224D01*
X169573932Y-133068937D01*
X169573939Y-133068937D01*
X169686097Y-133068937D01*
X169686104Y-133068937D01*
X170212951Y-133049224D01*
X170324813Y-133040841D01*
X170848714Y-132981811D01*
X170959632Y-132965093D01*
X171331613Y-132894710D01*
X171477648Y-132867080D01*
X171477657Y-132867078D01*
X171587021Y-132842116D01*
X172096272Y-132705662D01*
X172203460Y-132672599D01*
X172701090Y-132498471D01*
X172771366Y-132470890D01*
X172832442Y-132467230D01*
X172884004Y-132500169D01*
X172893271Y-132513546D01*
X172963698Y-132635527D01*
X172963700Y-132635530D01*
X173131321Y-132853979D01*
X173326021Y-133048679D01*
X173544470Y-133216300D01*
X173782928Y-133353974D01*
X173782929Y-133353974D01*
X173782932Y-133353976D01*
X174037317Y-133459346D01*
X174303283Y-133530611D01*
X174576275Y-133566551D01*
X174576276Y-133566551D01*
X174851622Y-133566551D01*
X174851623Y-133566551D01*
X175124615Y-133530611D01*
X175390581Y-133459346D01*
X175644970Y-133353974D01*
X175883428Y-133216300D01*
X176101877Y-133048679D01*
X176296577Y-132853979D01*
X176464198Y-132635530D01*
X176601872Y-132397072D01*
X176707244Y-132142683D01*
X176778509Y-131876717D01*
X176814449Y-131603725D01*
X176814449Y-131328377D01*
X176778509Y-131055385D01*
X176707244Y-130789419D01*
X176601872Y-130535030D01*
X176464198Y-130296572D01*
X176296577Y-130078123D01*
X176266867Y-130048413D01*
X176239092Y-129993899D01*
X176248663Y-129933467D01*
X176261832Y-129913838D01*
X176278888Y-129894019D01*
X176348828Y-129806318D01*
X176661899Y-129382121D01*
X176725087Y-129289441D01*
X177005583Y-128843035D01*
X177061670Y-128745890D01*
X177308022Y-128279770D01*
X177356693Y-128178703D01*
X177567522Y-127695477D01*
X177608503Y-127591058D01*
X177782631Y-127093428D01*
X177815694Y-126986240D01*
X177952148Y-126476989D01*
X177977110Y-126367625D01*
X177995681Y-126269477D01*
X178009543Y-126196211D01*
X178075125Y-125849600D01*
X178091843Y-125738682D01*
X178150873Y-125214781D01*
X178159256Y-125102919D01*
X178178969Y-124576072D01*
X178178969Y-124463900D01*
X178159256Y-123937053D01*
X178150873Y-123825191D01*
X178091843Y-123301290D01*
X178075125Y-123190372D01*
X177977110Y-122672347D01*
X177952148Y-122562983D01*
X177815694Y-122053732D01*
X177782631Y-121946544D01*
X177608503Y-121448914D01*
X177567522Y-121344495D01*
X177356693Y-120861269D01*
X177308022Y-120760202D01*
X177061670Y-120294082D01*
X177005583Y-120196937D01*
X176725087Y-119750531D01*
X176661899Y-119657851D01*
X176348828Y-119233654D01*
X176278888Y-119145953D01*
X176278879Y-119145942D01*
X175934997Y-118746343D01*
X175858708Y-118664123D01*
X175858706Y-118664121D01*
X175858694Y-118664108D01*
X175485896Y-118291310D01*
X175403666Y-118215012D01*
X175403660Y-118215006D01*
X175004061Y-117871124D01*
X174916342Y-117801170D01*
X174492168Y-117488116D01*
X174492166Y-117488115D01*
X174492153Y-117488105D01*
X174399473Y-117424917D01*
X174228277Y-117317347D01*
X173953073Y-117144424D01*
X173855908Y-117088326D01*
X173389803Y-116841982D01*
X173307006Y-116802110D01*
X173288735Y-116793311D01*
X172805509Y-116582482D01*
X172701090Y-116541501D01*
X172701075Y-116541495D01*
X172701068Y-116541493D01*
X172203469Y-116367375D01*
X172096279Y-116334312D01*
X172078813Y-116329632D01*
X171700893Y-116228368D01*
X171587018Y-116197855D01*
X171477648Y-116172891D01*
X170959628Y-116074878D01*
X170848709Y-116058160D01*
X170324821Y-115999131D01*
X170212960Y-115990748D01*
X169916599Y-115979659D01*
X169686104Y-115971035D01*
X169573932Y-115971035D01*
X169356995Y-115979152D01*
X169047075Y-115990748D01*
X168935214Y-115999131D01*
X168411326Y-116058160D01*
X168300407Y-116074878D01*
X167782387Y-116172891D01*
X167673017Y-116197855D01*
X167163756Y-116334312D01*
X167056566Y-116367375D01*
X166558957Y-116541496D01*
X166502227Y-116563761D01*
X166441151Y-116567419D01*
X166389589Y-116534480D01*
X166380329Y-116521114D01*
X166314198Y-116406572D01*
X166146577Y-116188123D01*
X165951877Y-115993423D01*
X165733428Y-115825802D01*
X165494970Y-115688128D01*
X165494965Y-115688125D01*
X165240580Y-115582755D01*
X165119470Y-115550304D01*
X164974615Y-115511491D01*
X164974608Y-115511490D01*
X164701624Y-115475551D01*
X164701623Y-115475551D01*
X164426275Y-115475551D01*
X164426273Y-115475551D01*
X164153289Y-115511490D01*
X164153287Y-115511490D01*
X164153283Y-115511491D01*
X164052754Y-115538427D01*
X163887317Y-115582755D01*
X163632932Y-115688125D01*
X163394466Y-115825804D01*
X163176024Y-115993420D01*
X162981318Y-116188126D01*
X162813702Y-116406568D01*
X162676023Y-116645034D01*
X162570653Y-116899419D01*
X162538090Y-117020949D01*
X162499389Y-117165385D01*
X162499388Y-117165389D01*
X162499388Y-117165391D01*
X162463449Y-117438375D01*
X162463449Y-117713726D01*
X162485927Y-117884460D01*
X162499389Y-117986717D01*
X162538202Y-118131572D01*
X162570653Y-118252682D01*
X162676023Y-118507067D01*
X162676026Y-118507072D01*
X162813700Y-118745530D01*
X162981321Y-118963979D01*
X162981324Y-118963982D01*
X163000443Y-118983102D01*
X163028220Y-119037619D01*
X163018647Y-119098051D01*
X163005479Y-119117679D01*
X162981142Y-119145959D01*
X162911202Y-119233661D01*
X162598148Y-119657835D01*
X162534944Y-119750538D01*
X162254456Y-120196930D01*
X162198358Y-120294095D01*
X161952014Y-120760200D01*
X161909807Y-120847845D01*
X161903343Y-120861269D01*
X161692518Y-121344486D01*
X161651525Y-121448935D01*
X161477407Y-121946534D01*
X161444344Y-122053724D01*
X161307887Y-122562985D01*
X161282923Y-122672355D01*
X161184910Y-123190375D01*
X161168192Y-123301294D01*
X161109163Y-123825182D01*
X161100780Y-123937043D01*
X161093513Y-124131258D01*
X161081067Y-124463900D01*
X159178147Y-124463900D01*
X159117553Y-124380499D01*
X158989501Y-124252447D01*
X158842994Y-124146004D01*
X158842993Y-124146003D01*
X158842991Y-124146002D01*
X158681637Y-124063788D01*
X158509406Y-124007828D01*
X158330549Y-123979500D01*
X158330546Y-123979500D01*
X158149454Y-123979500D01*
X158149451Y-123979500D01*
X157970593Y-124007828D01*
X157798362Y-124063788D01*
X157637008Y-124146002D01*
X157599437Y-124173299D01*
X157490499Y-124252447D01*
X157362447Y-124380499D01*
X157309225Y-124453752D01*
X157256002Y-124527008D01*
X157173788Y-124688362D01*
X157117828Y-124860593D01*
X157089500Y-125039450D01*
X156850500Y-125039450D01*
X156822171Y-124860593D01*
X156822171Y-124860592D01*
X156822171Y-124860591D01*
X156766211Y-124688361D01*
X156683996Y-124527006D01*
X156577553Y-124380499D01*
X156449501Y-124252447D01*
X156302994Y-124146004D01*
X156302993Y-124146003D01*
X156302991Y-124146002D01*
X156141637Y-124063788D01*
X155969406Y-124007828D01*
X155790549Y-123979500D01*
X155790546Y-123979500D01*
X155609454Y-123979500D01*
X155609451Y-123979500D01*
X155430593Y-124007828D01*
X155258362Y-124063788D01*
X155097008Y-124146002D01*
X155059437Y-124173299D01*
X154950499Y-124252447D01*
X154822447Y-124380499D01*
X154769225Y-124453752D01*
X154716002Y-124527008D01*
X154633788Y-124688362D01*
X154577828Y-124860593D01*
X154549500Y-125039450D01*
X154310500Y-125039450D01*
X154282171Y-124860593D01*
X154282171Y-124860592D01*
X154282171Y-124860591D01*
X154226211Y-124688361D01*
X154143996Y-124527006D01*
X154037553Y-124380499D01*
X153909501Y-124252447D01*
X153762994Y-124146004D01*
X153762993Y-124146003D01*
X153762991Y-124146002D01*
X153601637Y-124063788D01*
X153429406Y-124007828D01*
X153250549Y-123979500D01*
X153250546Y-123979500D01*
X153069454Y-123979500D01*
X153069451Y-123979500D01*
X152890593Y-124007828D01*
X152718362Y-124063788D01*
X152557008Y-124146002D01*
X152519437Y-124173299D01*
X152410499Y-124252447D01*
X152282447Y-124380499D01*
X152229225Y-124453752D01*
X152176002Y-124527008D01*
X152093788Y-124688362D01*
X152037828Y-124860593D01*
X152009500Y-125039450D01*
X149230500Y-125039450D01*
X149202171Y-124860593D01*
X149202171Y-124860592D01*
X149202171Y-124860591D01*
X149146211Y-124688361D01*
X149063996Y-124527006D01*
X148957553Y-124380499D01*
X148829501Y-124252447D01*
X148682994Y-124146004D01*
X148682993Y-124146003D01*
X148682991Y-124146002D01*
X148521637Y-124063788D01*
X148349406Y-124007828D01*
X148170549Y-123979500D01*
X148170546Y-123979500D01*
X147989454Y-123979500D01*
X147989451Y-123979500D01*
X147810593Y-124007828D01*
X147638362Y-124063788D01*
X147477008Y-124146002D01*
X147439437Y-124173299D01*
X147330499Y-124252447D01*
X147202447Y-124380499D01*
X147149225Y-124453752D01*
X147096002Y-124527008D01*
X147013788Y-124688362D01*
X146957828Y-124860592D01*
X146946023Y-124935126D01*
X146918245Y-124989642D01*
X146863728Y-125017419D01*
X146803296Y-125007847D01*
X146760032Y-124964583D01*
X146749865Y-124930725D01*
X146733868Y-124788746D01*
X146733866Y-124788741D01*
X146729078Y-124775058D01*
X146719153Y-124746695D01*
X146717780Y-124685529D01*
X146719136Y-124681352D01*
X146733868Y-124639253D01*
X146754065Y-124459998D01*
X146733868Y-124280743D01*
X146719154Y-124238696D01*
X146717781Y-124177527D01*
X146719155Y-124173299D01*
X146733866Y-124131259D01*
X146733866Y-124131258D01*
X146733867Y-124131256D01*
X146754064Y-123952001D01*
X146733867Y-123772746D01*
X146674288Y-123602479D01*
X146578315Y-123449739D01*
X146450761Y-123322185D01*
X146450758Y-123322183D01*
X146450757Y-123322182D01*
X146298022Y-123226212D01*
X146127760Y-123166634D01*
X146127756Y-123166633D01*
X145948499Y-123146436D01*
X145769241Y-123166633D01*
X145769237Y-123166634D01*
X145598976Y-123226212D01*
X145598975Y-123226212D01*
X145446240Y-123322182D01*
X145318680Y-123449742D01*
X145222710Y-123602477D01*
X145222710Y-123602478D01*
X145163132Y-123772739D01*
X145163131Y-123772743D01*
X145142934Y-123952001D01*
X130670500Y-123952001D01*
X130670500Y-117884456D01*
X142128500Y-117884456D01*
X142128500Y-117884459D01*
X142128500Y-118081541D01*
X142162542Y-118252682D01*
X142166949Y-118274834D01*
X142166949Y-118274836D01*
X142242367Y-118456913D01*
X142242368Y-118456914D01*
X142351861Y-118620782D01*
X142491218Y-118760139D01*
X142655086Y-118869632D01*
X142837165Y-118945051D01*
X143030459Y-118983500D01*
X143030460Y-118983500D01*
X143227540Y-118983500D01*
X143227541Y-118983500D01*
X143420835Y-118945051D01*
X143602914Y-118869632D01*
X143766782Y-118760139D01*
X143906139Y-118620782D01*
X144015632Y-118456914D01*
X144091051Y-118274835D01*
X144129500Y-118081541D01*
X144129500Y-117884459D01*
X144091051Y-117691165D01*
X144015632Y-117509086D01*
X143906139Y-117345218D01*
X143766782Y-117205861D01*
X143602914Y-117096368D01*
X143602915Y-117096368D01*
X143602913Y-117096367D01*
X143420835Y-117020949D01*
X143227543Y-116982500D01*
X143227541Y-116982500D01*
X143030459Y-116982500D01*
X143030456Y-116982500D01*
X142837165Y-117020949D01*
X142837163Y-117020949D01*
X142655086Y-117096367D01*
X142491218Y-117205861D01*
X142491214Y-117205864D01*
X142351864Y-117345214D01*
X142351861Y-117345218D01*
X142242367Y-117509086D01*
X142166949Y-117691163D01*
X142166949Y-117691165D01*
X142128500Y-117884456D01*
X130670500Y-117884456D01*
X130670500Y-116802106D01*
X134100500Y-116802106D01*
X134100500Y-116979493D01*
X134122149Y-117088326D01*
X134133307Y-117144424D01*
X134135106Y-117153465D01*
X134135106Y-117153467D01*
X134202985Y-117317344D01*
X134202985Y-117317345D01*
X134283857Y-117438377D01*
X134301536Y-117464835D01*
X134426965Y-117590264D01*
X134574453Y-117688813D01*
X134738334Y-117756694D01*
X134912309Y-117791300D01*
X134912310Y-117791300D01*
X135089690Y-117791300D01*
X135089691Y-117791300D01*
X135263666Y-117756694D01*
X135427547Y-117688813D01*
X135575035Y-117590264D01*
X135700464Y-117464835D01*
X135799013Y-117317347D01*
X135866894Y-117153466D01*
X135901500Y-116979491D01*
X135901500Y-116802109D01*
X135901499Y-116802106D01*
X137910500Y-116802106D01*
X137910500Y-116979493D01*
X137932149Y-117088326D01*
X137943307Y-117144424D01*
X137945106Y-117153465D01*
X137945106Y-117153467D01*
X138012985Y-117317344D01*
X138012985Y-117317345D01*
X138093857Y-117438377D01*
X138111536Y-117464835D01*
X138236965Y-117590264D01*
X138384453Y-117688813D01*
X138548334Y-117756694D01*
X138722309Y-117791300D01*
X138722310Y-117791300D01*
X138899690Y-117791300D01*
X138899691Y-117791300D01*
X139073666Y-117756694D01*
X139237547Y-117688813D01*
X139385035Y-117590264D01*
X139510464Y-117464835D01*
X139609013Y-117317347D01*
X139676894Y-117153466D01*
X139711500Y-116979491D01*
X139711500Y-116802109D01*
X139676894Y-116628134D01*
X139609014Y-116464255D01*
X139609014Y-116464254D01*
X139510464Y-116316765D01*
X139385034Y-116191335D01*
X139237544Y-116092785D01*
X139073666Y-116024906D01*
X138899693Y-115990300D01*
X138899691Y-115990300D01*
X138722309Y-115990300D01*
X138722306Y-115990300D01*
X138548334Y-116024906D01*
X138548332Y-116024906D01*
X138384455Y-116092785D01*
X138384454Y-116092785D01*
X138236965Y-116191335D01*
X138111535Y-116316765D01*
X138012985Y-116464254D01*
X138012985Y-116464255D01*
X137945106Y-116628132D01*
X137945106Y-116628134D01*
X137910500Y-116802106D01*
X135901499Y-116802106D01*
X135866894Y-116628134D01*
X135799014Y-116464255D01*
X135799014Y-116464254D01*
X135700464Y-116316765D01*
X135575034Y-116191335D01*
X135427544Y-116092785D01*
X135263666Y-116024906D01*
X135089693Y-115990300D01*
X135089691Y-115990300D01*
X134912309Y-115990300D01*
X134912306Y-115990300D01*
X134738334Y-116024906D01*
X134738332Y-116024906D01*
X134574455Y-116092785D01*
X134574454Y-116092785D01*
X134426965Y-116191335D01*
X134301535Y-116316765D01*
X134202985Y-116464254D01*
X134202985Y-116464255D01*
X134135106Y-116628132D01*
X134135106Y-116628134D01*
X134100500Y-116802106D01*
X130670500Y-116802106D01*
X130670500Y-115344456D01*
X142128500Y-115344456D01*
X142128500Y-115541543D01*
X142166949Y-115734834D01*
X142166949Y-115734836D01*
X142242367Y-115916913D01*
X142278530Y-115971035D01*
X142351861Y-116080782D01*
X142491218Y-116220139D01*
X142655086Y-116329632D01*
X142837165Y-116405051D01*
X143030459Y-116443500D01*
X143030460Y-116443500D01*
X143227540Y-116443500D01*
X143227541Y-116443500D01*
X143420835Y-116405051D01*
X143602914Y-116329632D01*
X143766782Y-116220139D01*
X143906139Y-116080782D01*
X144015632Y-115916914D01*
X144091051Y-115734835D01*
X144129500Y-115541541D01*
X144129500Y-115344459D01*
X144091051Y-115151165D01*
X144015632Y-114969086D01*
X143906139Y-114805218D01*
X143766782Y-114665861D01*
X143602914Y-114556368D01*
X143602915Y-114556368D01*
X143602913Y-114556367D01*
X143420835Y-114480949D01*
X143227543Y-114442500D01*
X143227541Y-114442500D01*
X143030459Y-114442500D01*
X143030456Y-114442500D01*
X142837165Y-114480949D01*
X142837163Y-114480949D01*
X142655086Y-114556367D01*
X142491218Y-114665861D01*
X142491214Y-114665864D01*
X142351864Y-114805214D01*
X142351861Y-114805218D01*
X142242367Y-114969086D01*
X142166949Y-115151163D01*
X142166949Y-115151165D01*
X142128500Y-115344456D01*
X130670500Y-115344456D01*
X130670500Y-114427000D01*
X150705435Y-114427000D01*
X150725632Y-114606257D01*
X150725634Y-114606263D01*
X150740344Y-114648305D01*
X150741716Y-114709475D01*
X150740344Y-114713695D01*
X150725634Y-114755736D01*
X150725632Y-114755742D01*
X150705435Y-114935000D01*
X150725632Y-115114257D01*
X150725634Y-115114263D01*
X150740344Y-115156305D01*
X150741716Y-115217475D01*
X150740344Y-115221695D01*
X150725634Y-115263736D01*
X150725632Y-115263742D01*
X150705435Y-115443000D01*
X150725632Y-115622257D01*
X150725633Y-115622261D01*
X150785211Y-115792522D01*
X150785211Y-115792523D01*
X150881181Y-115945258D01*
X150881184Y-115945262D01*
X151008738Y-116072816D01*
X151008740Y-116072817D01*
X151008741Y-116072818D01*
X151040521Y-116092787D01*
X151161478Y-116168789D01*
X151216740Y-116188126D01*
X151331738Y-116228366D01*
X151331742Y-116228367D01*
X151331745Y-116228368D01*
X151511000Y-116248565D01*
X151690255Y-116228368D01*
X151860522Y-116168789D01*
X152013262Y-116072816D01*
X152140816Y-115945262D01*
X152236789Y-115792522D01*
X152296368Y-115622255D01*
X152316565Y-115443000D01*
X152296368Y-115263745D01*
X152281654Y-115221698D01*
X152280281Y-115160529D01*
X152281655Y-115156301D01*
X152296367Y-115114258D01*
X152296367Y-115114257D01*
X152296368Y-115114255D01*
X152316565Y-114935000D01*
X152296368Y-114755745D01*
X152281654Y-114713698D01*
X152280281Y-114652529D01*
X152281655Y-114648301D01*
X152296367Y-114606258D01*
X152296367Y-114606257D01*
X152296368Y-114606255D01*
X152316565Y-114427000D01*
X152296368Y-114247745D01*
X152236789Y-114077478D01*
X152208113Y-114031841D01*
X152140818Y-113924741D01*
X152140817Y-113924740D01*
X152140816Y-113924738D01*
X152013262Y-113797184D01*
X152013259Y-113797182D01*
X152013258Y-113797181D01*
X151860523Y-113701211D01*
X151690261Y-113641633D01*
X151690257Y-113641632D01*
X151511000Y-113621435D01*
X151331742Y-113641632D01*
X151331738Y-113641633D01*
X151161477Y-113701211D01*
X151161476Y-113701211D01*
X151008741Y-113797181D01*
X150881181Y-113924741D01*
X150785211Y-114077476D01*
X150785211Y-114077477D01*
X150725633Y-114247738D01*
X150725632Y-114247742D01*
X150705435Y-114427000D01*
X130670500Y-114427000D01*
X130670500Y-113284000D01*
X154261435Y-113284000D01*
X154281632Y-113463257D01*
X154281633Y-113463261D01*
X154341211Y-113633522D01*
X154341211Y-113633523D01*
X154437181Y-113786258D01*
X154437184Y-113786262D01*
X154564738Y-113913816D01*
X154564740Y-113913817D01*
X154564741Y-113913818D01*
X154572986Y-113918999D01*
X154717478Y-114009789D01*
X154780499Y-114031841D01*
X154887738Y-114069366D01*
X154887742Y-114069367D01*
X154887745Y-114069368D01*
X155067000Y-114089565D01*
X155246255Y-114069368D01*
X155319303Y-114043806D01*
X155380471Y-114042433D01*
X155384661Y-114043794D01*
X155457745Y-114069368D01*
X155637000Y-114089565D01*
X155816255Y-114069368D01*
X155890803Y-114043281D01*
X155951971Y-114041908D01*
X155956159Y-114043269D01*
X156030745Y-114069368D01*
X156210000Y-114089565D01*
X156389255Y-114069368D01*
X156559522Y-114009789D01*
X156712262Y-113913816D01*
X156839816Y-113786262D01*
X156935789Y-113633522D01*
X156995368Y-113463255D01*
X157015565Y-113284000D01*
X156995368Y-113104745D01*
X156987501Y-113082263D01*
X156971014Y-113035145D01*
X156935789Y-112934478D01*
X156863337Y-112819172D01*
X156839818Y-112781741D01*
X156839817Y-112781740D01*
X156839816Y-112781738D01*
X156712262Y-112654184D01*
X156712259Y-112654182D01*
X156712258Y-112654181D01*
X156559523Y-112558211D01*
X156389261Y-112498633D01*
X156389257Y-112498632D01*
X156210000Y-112478435D01*
X156030744Y-112498632D01*
X155956197Y-112524717D01*
X155895027Y-112526089D01*
X155890803Y-112524717D01*
X155816255Y-112498632D01*
X155637000Y-112478435D01*
X155457744Y-112498632D01*
X155384697Y-112524192D01*
X155323527Y-112525564D01*
X155319303Y-112524192D01*
X155246255Y-112498632D01*
X155067000Y-112478435D01*
X154887742Y-112498632D01*
X154887738Y-112498633D01*
X154717477Y-112558211D01*
X154717476Y-112558211D01*
X154564741Y-112654181D01*
X154437181Y-112781741D01*
X154341211Y-112934476D01*
X154341211Y-112934477D01*
X154281633Y-113104738D01*
X154281632Y-113104742D01*
X154261435Y-113284000D01*
X130670500Y-113284000D01*
X130670500Y-111379000D01*
X162389435Y-111379000D01*
X162409632Y-111558257D01*
X162409633Y-111558261D01*
X162469211Y-111728522D01*
X162469211Y-111728523D01*
X162565181Y-111881258D01*
X162565184Y-111881262D01*
X162692738Y-112008816D01*
X162692740Y-112008817D01*
X162692741Y-112008818D01*
X162700986Y-112013999D01*
X162845478Y-112104789D01*
X162882184Y-112117633D01*
X163015738Y-112164366D01*
X163015742Y-112164367D01*
X163015745Y-112164368D01*
X163195000Y-112184565D01*
X163374255Y-112164368D01*
X163416301Y-112149654D01*
X163477471Y-112148281D01*
X163481693Y-112149653D01*
X163523745Y-112164368D01*
X163703000Y-112184565D01*
X163882255Y-112164368D01*
X163924301Y-112149654D01*
X163985471Y-112148281D01*
X163989693Y-112149653D01*
X164031745Y-112164368D01*
X164211000Y-112184565D01*
X164390255Y-112164368D01*
X164560522Y-112104789D01*
X164713262Y-112008816D01*
X164840816Y-111881262D01*
X164884710Y-111811404D01*
X164931679Y-111772193D01*
X164992725Y-111768077D01*
X165044533Y-111800629D01*
X165066913Y-111852990D01*
X165070099Y-111881262D01*
X165076633Y-111939257D01*
X165076634Y-111939261D01*
X165136212Y-112109522D01*
X165136212Y-112109523D01*
X165188828Y-112193260D01*
X165232185Y-112262262D01*
X165359739Y-112389816D01*
X165512479Y-112485789D01*
X165549185Y-112498633D01*
X165682739Y-112545366D01*
X165682743Y-112545367D01*
X165682746Y-112545368D01*
X165862001Y-112565565D01*
X166041256Y-112545368D01*
X166211523Y-112485789D01*
X166364263Y-112389816D01*
X166491817Y-112262262D01*
X166587790Y-112109522D01*
X166647369Y-111939255D01*
X166667566Y-111760000D01*
X166647369Y-111580745D01*
X166632654Y-111538694D01*
X166631281Y-111477529D01*
X166632637Y-111473352D01*
X166647368Y-111431256D01*
X166667565Y-111252001D01*
X166647368Y-111072746D01*
X166632654Y-111030699D01*
X166631920Y-110998000D01*
X174962435Y-110998000D01*
X174982632Y-111177257D01*
X174982634Y-111177263D01*
X174997344Y-111219305D01*
X174998716Y-111280475D01*
X174997344Y-111284695D01*
X174982634Y-111326736D01*
X174982632Y-111326742D01*
X174962435Y-111506000D01*
X174982632Y-111685257D01*
X174997345Y-111727303D01*
X174998717Y-111788473D01*
X174997345Y-111792695D01*
X174982633Y-111834739D01*
X174962436Y-112013999D01*
X174982633Y-112193256D01*
X174982634Y-112193260D01*
X175042212Y-112363521D01*
X175042212Y-112363522D01*
X175138182Y-112516257D01*
X175138185Y-112516261D01*
X175265739Y-112643815D01*
X175265741Y-112643816D01*
X175265742Y-112643817D01*
X175392946Y-112723745D01*
X175418479Y-112739788D01*
X175486658Y-112763645D01*
X175588739Y-112799365D01*
X175588743Y-112799366D01*
X175588746Y-112799367D01*
X175764534Y-112819173D01*
X175820239Y-112844476D01*
X175850435Y-112897691D01*
X175851824Y-112906465D01*
X175871630Y-113082249D01*
X175871634Y-113082263D01*
X175886344Y-113124305D01*
X175887716Y-113185475D01*
X175886344Y-113189695D01*
X175871634Y-113231736D01*
X175871632Y-113231742D01*
X175851435Y-113411000D01*
X175871632Y-113590257D01*
X175886345Y-113632303D01*
X175887717Y-113693473D01*
X175886345Y-113697695D01*
X175871633Y-113739739D01*
X175851436Y-113918999D01*
X175871633Y-114098256D01*
X175871634Y-114098260D01*
X175931212Y-114268521D01*
X175931212Y-114268522D01*
X176027182Y-114421257D01*
X176027185Y-114421261D01*
X176154739Y-114548815D01*
X176154741Y-114548816D01*
X176154742Y-114548817D01*
X176166759Y-114556368D01*
X176307479Y-114644788D01*
X176329602Y-114652529D01*
X176477739Y-114704365D01*
X176477743Y-114704366D01*
X176477746Y-114704367D01*
X176657001Y-114724564D01*
X176836256Y-114704367D01*
X177006523Y-114644788D01*
X177159263Y-114548815D01*
X177286817Y-114421261D01*
X177382790Y-114268521D01*
X177442369Y-114098254D01*
X177462566Y-113918999D01*
X177442369Y-113739744D01*
X177427654Y-113697693D01*
X177426281Y-113636528D01*
X177427637Y-113632351D01*
X177442368Y-113590255D01*
X177462565Y-113411000D01*
X177442368Y-113231745D01*
X177427654Y-113189698D01*
X177426281Y-113128529D01*
X177427655Y-113124301D01*
X177442367Y-113082258D01*
X177442367Y-113082257D01*
X177442368Y-113082255D01*
X177462565Y-112903000D01*
X177442368Y-112723745D01*
X177382789Y-112553478D01*
X177365579Y-112526089D01*
X177286818Y-112400741D01*
X177286817Y-112400740D01*
X177286816Y-112400738D01*
X177159262Y-112273184D01*
X177159259Y-112273182D01*
X177159258Y-112273181D01*
X177006523Y-112177211D01*
X176836261Y-112117633D01*
X176836258Y-112117632D01*
X176751025Y-112108029D01*
X176660465Y-112097825D01*
X176604760Y-112072522D01*
X176574564Y-112019306D01*
X176573178Y-112010561D01*
X176553369Y-111834744D01*
X176538654Y-111792693D01*
X176537281Y-111731528D01*
X176538637Y-111727351D01*
X176553368Y-111685255D01*
X176573565Y-111506000D01*
X176553368Y-111326745D01*
X176538654Y-111284698D01*
X176537281Y-111223529D01*
X176538655Y-111219301D01*
X176553367Y-111177258D01*
X176553367Y-111177257D01*
X176553368Y-111177255D01*
X176573565Y-110998000D01*
X176553368Y-110818745D01*
X176493789Y-110648478D01*
X176397816Y-110495738D01*
X176270262Y-110368184D01*
X176270259Y-110368182D01*
X176270258Y-110368181D01*
X176117523Y-110272211D01*
X175947261Y-110212633D01*
X175947257Y-110212632D01*
X175768000Y-110192435D01*
X175588742Y-110212632D01*
X175588738Y-110212633D01*
X175418477Y-110272211D01*
X175418476Y-110272211D01*
X175265741Y-110368181D01*
X175138181Y-110495741D01*
X175042211Y-110648476D01*
X175042211Y-110648477D01*
X174982633Y-110818738D01*
X174982632Y-110818742D01*
X174962435Y-110998000D01*
X166631920Y-110998000D01*
X166631281Y-110969530D01*
X166632655Y-110965302D01*
X166647367Y-110923259D01*
X166647367Y-110923258D01*
X166647368Y-110923256D01*
X166667565Y-110744001D01*
X166647368Y-110564746D01*
X166587789Y-110394479D01*
X166491816Y-110241739D01*
X166364262Y-110114185D01*
X166364259Y-110114183D01*
X166364258Y-110114182D01*
X166211523Y-110018212D01*
X166041261Y-109958634D01*
X166041257Y-109958633D01*
X165862000Y-109938436D01*
X165682742Y-109958633D01*
X165682738Y-109958634D01*
X165512477Y-110018212D01*
X165512476Y-110018212D01*
X165359741Y-110114182D01*
X165232181Y-110241742D01*
X165136211Y-110394477D01*
X165136211Y-110394478D01*
X165076633Y-110564739D01*
X165076632Y-110564743D01*
X165067198Y-110648476D01*
X165056435Y-110744001D01*
X165071391Y-110876743D01*
X165073207Y-110892854D01*
X165060933Y-110952795D01*
X165015771Y-110994075D01*
X164954971Y-111000926D01*
X164901755Y-110970730D01*
X164891004Y-110956610D01*
X164840820Y-110876743D01*
X164840817Y-110876740D01*
X164840816Y-110876738D01*
X164713262Y-110749184D01*
X164713259Y-110749182D01*
X164713258Y-110749181D01*
X164560523Y-110653211D01*
X164390261Y-110593633D01*
X164390257Y-110593632D01*
X164211000Y-110573435D01*
X164031742Y-110593632D01*
X164031736Y-110593634D01*
X163989695Y-110608344D01*
X163928525Y-110609716D01*
X163924305Y-110608344D01*
X163882263Y-110593634D01*
X163882257Y-110593632D01*
X163703000Y-110573435D01*
X163523742Y-110593632D01*
X163523736Y-110593634D01*
X163481695Y-110608344D01*
X163420525Y-110609716D01*
X163416305Y-110608344D01*
X163374263Y-110593634D01*
X163374257Y-110593632D01*
X163195000Y-110573435D01*
X163015742Y-110593632D01*
X163015738Y-110593633D01*
X162845477Y-110653211D01*
X162845476Y-110653211D01*
X162692741Y-110749181D01*
X162565181Y-110876741D01*
X162469211Y-111029476D01*
X162469211Y-111029477D01*
X162409633Y-111199738D01*
X162409632Y-111199742D01*
X162389435Y-111379000D01*
X130670500Y-111379000D01*
X130670500Y-109182106D01*
X137910500Y-109182106D01*
X137910500Y-109359493D01*
X137945106Y-109533465D01*
X137945106Y-109533467D01*
X138012985Y-109697344D01*
X138012985Y-109697345D01*
X138111535Y-109844834D01*
X138111536Y-109844835D01*
X138236965Y-109970264D01*
X138384453Y-110068813D01*
X138548334Y-110136694D01*
X138722309Y-110171300D01*
X138722310Y-110171300D01*
X138899690Y-110171300D01*
X138899691Y-110171300D01*
X139073666Y-110136694D01*
X139237547Y-110068813D01*
X139385035Y-109970264D01*
X139510464Y-109844835D01*
X139609013Y-109697347D01*
X139676894Y-109533466D01*
X139711500Y-109359491D01*
X139711500Y-109182109D01*
X139676894Y-109008134D01*
X139609014Y-108844255D01*
X139609014Y-108844254D01*
X139510464Y-108696765D01*
X139385034Y-108571335D01*
X139237544Y-108472785D01*
X139073666Y-108404906D01*
X138899693Y-108370300D01*
X138899691Y-108370300D01*
X138722309Y-108370300D01*
X138722306Y-108370300D01*
X138548334Y-108404906D01*
X138548332Y-108404906D01*
X138384455Y-108472785D01*
X138384454Y-108472785D01*
X138236965Y-108571335D01*
X138111535Y-108696765D01*
X138012985Y-108844254D01*
X138012985Y-108844255D01*
X137945106Y-109008132D01*
X137945106Y-109008134D01*
X137910500Y-109182106D01*
X130670500Y-109182106D01*
X130670500Y-107822998D01*
X140748634Y-107822998D01*
X140768831Y-108002255D01*
X140783544Y-108044301D01*
X140784916Y-108105471D01*
X140783544Y-108109694D01*
X140768831Y-108151741D01*
X140748634Y-108330999D01*
X140768831Y-108510256D01*
X140783544Y-108552302D01*
X140784916Y-108613472D01*
X140783544Y-108617694D01*
X140768832Y-108659738D01*
X140748635Y-108838998D01*
X140768832Y-109018255D01*
X140768833Y-109018259D01*
X140828411Y-109188520D01*
X140828411Y-109188521D01*
X140924381Y-109341256D01*
X140924384Y-109341260D01*
X141051938Y-109468814D01*
X141051940Y-109468815D01*
X141051941Y-109468816D01*
X141154832Y-109533467D01*
X141204678Y-109564787D01*
X141272857Y-109588644D01*
X141374938Y-109624364D01*
X141374942Y-109624365D01*
X141374945Y-109624366D01*
X141554200Y-109644563D01*
X141733455Y-109624366D01*
X141903722Y-109564787D01*
X142056462Y-109468814D01*
X142089170Y-109436106D01*
X170651100Y-109436106D01*
X170651100Y-109613493D01*
X170685706Y-109787465D01*
X170685706Y-109787467D01*
X170753585Y-109951344D01*
X170753585Y-109951345D01*
X170832076Y-110068814D01*
X170852136Y-110098835D01*
X170977565Y-110224264D01*
X171125053Y-110322813D01*
X171288934Y-110390694D01*
X171462909Y-110425300D01*
X171462910Y-110425300D01*
X171640290Y-110425300D01*
X171640291Y-110425300D01*
X171814266Y-110390694D01*
X171978147Y-110322813D01*
X172125635Y-110224264D01*
X172251064Y-110098835D01*
X172349613Y-109951347D01*
X172417494Y-109787466D01*
X172452100Y-109613491D01*
X172452100Y-109436109D01*
X172417494Y-109262134D01*
X172349614Y-109098255D01*
X172349614Y-109098254D01*
X172251064Y-108950765D01*
X172125634Y-108825335D01*
X171978144Y-108726785D01*
X171814266Y-108658906D01*
X171640293Y-108624300D01*
X171640291Y-108624300D01*
X171462909Y-108624300D01*
X171462906Y-108624300D01*
X171288934Y-108658906D01*
X171288932Y-108658906D01*
X171125055Y-108726785D01*
X171125054Y-108726785D01*
X170977565Y-108825335D01*
X170852135Y-108950765D01*
X170753585Y-109098254D01*
X170753585Y-109098255D01*
X170685706Y-109262132D01*
X170685706Y-109262134D01*
X170651100Y-109436106D01*
X142089170Y-109436106D01*
X142184016Y-109341260D01*
X142279989Y-109188520D01*
X142339568Y-109018253D01*
X142359765Y-108838998D01*
X142339568Y-108659743D01*
X142324853Y-108617692D01*
X142323480Y-108556527D01*
X142324836Y-108552350D01*
X142339567Y-108510254D01*
X142359764Y-108330999D01*
X142339567Y-108151744D01*
X142324852Y-108109693D01*
X142323479Y-108048528D01*
X142324853Y-108044301D01*
X142339567Y-108002253D01*
X142359764Y-107822998D01*
X142339567Y-107643743D01*
X142331698Y-107621256D01*
X142284218Y-107485565D01*
X142279988Y-107473476D01*
X142274893Y-107465368D01*
X142184017Y-107320739D01*
X142184016Y-107320738D01*
X142184015Y-107320736D01*
X142056461Y-107193182D01*
X142056458Y-107193180D01*
X142056457Y-107193179D01*
X141903722Y-107097209D01*
X141733460Y-107037631D01*
X141733456Y-107037630D01*
X141554199Y-107017433D01*
X141374941Y-107037630D01*
X141374937Y-107037631D01*
X141204676Y-107097209D01*
X141204675Y-107097209D01*
X141051940Y-107193179D01*
X140924380Y-107320739D01*
X140828410Y-107473474D01*
X140828410Y-107473475D01*
X140768832Y-107643736D01*
X140768831Y-107643740D01*
X140748634Y-107822998D01*
X130670500Y-107822998D01*
X130670500Y-106425999D01*
X153118435Y-106425999D01*
X153138632Y-106605256D01*
X153153345Y-106647302D01*
X153154717Y-106708472D01*
X153153345Y-106712695D01*
X153138632Y-106754742D01*
X153118435Y-106934000D01*
X153138632Y-107113257D01*
X153153345Y-107155303D01*
X153154717Y-107216473D01*
X153153345Y-107220695D01*
X153138633Y-107262739D01*
X153118436Y-107441999D01*
X153138633Y-107621256D01*
X153138634Y-107621260D01*
X153198212Y-107791521D01*
X153198212Y-107791522D01*
X153217990Y-107822998D01*
X153294185Y-107944261D01*
X153421739Y-108071815D01*
X153421741Y-108071816D01*
X153421742Y-108071817D01*
X153429987Y-108076998D01*
X153574479Y-108167788D01*
X153642658Y-108191645D01*
X153744739Y-108227365D01*
X153744743Y-108227366D01*
X153744746Y-108227367D01*
X153924001Y-108247564D01*
X154103256Y-108227367D01*
X154273523Y-108167788D01*
X154426263Y-108071815D01*
X154553817Y-107944261D01*
X154649790Y-107791521D01*
X154709369Y-107621254D01*
X154729566Y-107441999D01*
X154709369Y-107262744D01*
X154694654Y-107220693D01*
X154693281Y-107159528D01*
X154694637Y-107155351D01*
X154709368Y-107113255D01*
X154729565Y-106934000D01*
X154709368Y-106754745D01*
X154694653Y-106712694D01*
X154693280Y-106651529D01*
X154694654Y-106647302D01*
X154709368Y-106605254D01*
X154729565Y-106425999D01*
X154709368Y-106246744D01*
X154649789Y-106076477D01*
X154570755Y-105950696D01*
X154553818Y-105923740D01*
X154553817Y-105923739D01*
X154553816Y-105923737D01*
X154426262Y-105796183D01*
X154426259Y-105796181D01*
X154426258Y-105796180D01*
X154273523Y-105700210D01*
X154170042Y-105664000D01*
X158247433Y-105664000D01*
X158267630Y-105843257D01*
X158282343Y-105885305D01*
X158283715Y-105946475D01*
X158282343Y-105950696D01*
X158267631Y-105992740D01*
X158247434Y-106172000D01*
X158267631Y-106351257D01*
X158267633Y-106351263D01*
X158282343Y-106393305D01*
X158283715Y-106454475D01*
X158282343Y-106458695D01*
X158267633Y-106500736D01*
X158267631Y-106500742D01*
X158247434Y-106680000D01*
X158267631Y-106859257D01*
X158267632Y-106859261D01*
X158327210Y-107029522D01*
X158327210Y-107029523D01*
X158408898Y-107159528D01*
X158423183Y-107182262D01*
X158550737Y-107309816D01*
X158703477Y-107405789D01*
X158771656Y-107429646D01*
X158873737Y-107465366D01*
X158873741Y-107465367D01*
X158873744Y-107465368D01*
X159052999Y-107485565D01*
X159232254Y-107465368D01*
X159402521Y-107405789D01*
X159555261Y-107309816D01*
X159682815Y-107182262D01*
X159778788Y-107029522D01*
X159838367Y-106859255D01*
X159858564Y-106680000D01*
X159838367Y-106500745D01*
X159823653Y-106458698D01*
X159822280Y-106397529D01*
X159823654Y-106393301D01*
X159838366Y-106351258D01*
X159838366Y-106351257D01*
X159838367Y-106351255D01*
X159858564Y-106172000D01*
X159848571Y-106083306D01*
X170676500Y-106083306D01*
X170676500Y-106260693D01*
X170711106Y-106434665D01*
X170711106Y-106434667D01*
X170778985Y-106598544D01*
X170778985Y-106598545D01*
X170855261Y-106712699D01*
X170877536Y-106746035D01*
X171002965Y-106871464D01*
X171150453Y-106970013D01*
X171314334Y-107037894D01*
X171488309Y-107072500D01*
X171488310Y-107072500D01*
X171665690Y-107072500D01*
X171665691Y-107072500D01*
X171839666Y-107037894D01*
X172003547Y-106970013D01*
X172151035Y-106871464D01*
X172276464Y-106746035D01*
X172375013Y-106598547D01*
X172442894Y-106434666D01*
X172477500Y-106260691D01*
X172477500Y-106083309D01*
X172442894Y-105909334D01*
X172375014Y-105745455D01*
X172375014Y-105745454D01*
X172276464Y-105597965D01*
X172151034Y-105472535D01*
X172003544Y-105373985D01*
X171839666Y-105306106D01*
X171665693Y-105271500D01*
X171665691Y-105271500D01*
X171488309Y-105271500D01*
X171488306Y-105271500D01*
X171314334Y-105306106D01*
X171314332Y-105306106D01*
X171150455Y-105373985D01*
X171150454Y-105373985D01*
X171002965Y-105472535D01*
X170877535Y-105597965D01*
X170778985Y-105745454D01*
X170778985Y-105745455D01*
X170711106Y-105909332D01*
X170711106Y-105909334D01*
X170676500Y-106083306D01*
X159848571Y-106083306D01*
X159838367Y-105992745D01*
X159838365Y-105992740D01*
X159833577Y-105979057D01*
X159823652Y-105950694D01*
X159822279Y-105889528D01*
X159823635Y-105885351D01*
X159838366Y-105843255D01*
X159858563Y-105664000D01*
X159838366Y-105484745D01*
X159778787Y-105314478D01*
X159755399Y-105277257D01*
X159682816Y-105161741D01*
X159682815Y-105161740D01*
X159682814Y-105161738D01*
X159555260Y-105034184D01*
X159555257Y-105034182D01*
X159555256Y-105034181D01*
X159402521Y-104938211D01*
X159232259Y-104878633D01*
X159232255Y-104878632D01*
X159052998Y-104858435D01*
X158873740Y-104878632D01*
X158873736Y-104878633D01*
X158703475Y-104938211D01*
X158703474Y-104938211D01*
X158550739Y-105034181D01*
X158423179Y-105161741D01*
X158327209Y-105314476D01*
X158327209Y-105314477D01*
X158267631Y-105484738D01*
X158267630Y-105484742D01*
X158247433Y-105664000D01*
X154170042Y-105664000D01*
X154103261Y-105640632D01*
X154103257Y-105640631D01*
X153924000Y-105620434D01*
X153744742Y-105640631D01*
X153744738Y-105640632D01*
X153574477Y-105700210D01*
X153574476Y-105700210D01*
X153421741Y-105796180D01*
X153294181Y-105923740D01*
X153198211Y-106076475D01*
X153198211Y-106076476D01*
X153138633Y-106246737D01*
X153138632Y-106246741D01*
X153118435Y-106425999D01*
X130670500Y-106425999D01*
X130670500Y-102489001D01*
X137739684Y-102489001D01*
X137759881Y-102668258D01*
X137774594Y-102710304D01*
X137775966Y-102771474D01*
X137774594Y-102775696D01*
X137759882Y-102817740D01*
X137739685Y-102997000D01*
X137759882Y-103176257D01*
X137759884Y-103176263D01*
X137774594Y-103218305D01*
X137775966Y-103279475D01*
X137774594Y-103283695D01*
X137759884Y-103325736D01*
X137759882Y-103325742D01*
X137739685Y-103505000D01*
X137759882Y-103684257D01*
X137759883Y-103684261D01*
X137819461Y-103854522D01*
X137819461Y-103854523D01*
X137913382Y-104003997D01*
X137915434Y-104007262D01*
X138042988Y-104134816D01*
X138042990Y-104134817D01*
X138042991Y-104134818D01*
X138099778Y-104170500D01*
X138195728Y-104230789D01*
X138263907Y-104254646D01*
X138365988Y-104290366D01*
X138365992Y-104290367D01*
X138365995Y-104290368D01*
X138545250Y-104310565D01*
X138724505Y-104290368D01*
X138894772Y-104230789D01*
X139047512Y-104134816D01*
X139175066Y-104007262D01*
X139271039Y-103854522D01*
X139304464Y-103759000D01*
X140938185Y-103759000D01*
X140958382Y-103938257D01*
X140958383Y-103938261D01*
X140973094Y-103980301D01*
X140974467Y-104041471D01*
X140973095Y-104045696D01*
X140958382Y-104087742D01*
X140938185Y-104267000D01*
X140958382Y-104446257D01*
X140973095Y-104488303D01*
X140974467Y-104549473D01*
X140973095Y-104553695D01*
X140958383Y-104595739D01*
X140938186Y-104774999D01*
X140958383Y-104954256D01*
X140958384Y-104954260D01*
X141017962Y-105124521D01*
X141017962Y-105124522D01*
X141110315Y-105271500D01*
X141113935Y-105277261D01*
X141241489Y-105404815D01*
X141241491Y-105404816D01*
X141241492Y-105404817D01*
X141368696Y-105484745D01*
X141394229Y-105500788D01*
X141462408Y-105524645D01*
X141564489Y-105560365D01*
X141564493Y-105560366D01*
X141564496Y-105560367D01*
X141743751Y-105580564D01*
X141923006Y-105560367D01*
X142093273Y-105500788D01*
X142246013Y-105404815D01*
X142373567Y-105277261D01*
X142469540Y-105124521D01*
X142529119Y-104954254D01*
X142549316Y-104774999D01*
X142529119Y-104595744D01*
X142514404Y-104553693D01*
X142513031Y-104492528D01*
X142514387Y-104488351D01*
X142529118Y-104446255D01*
X142549315Y-104267000D01*
X142529118Y-104087745D01*
X142529117Y-104087742D01*
X142529116Y-104087738D01*
X142514405Y-104045697D01*
X142513031Y-103984527D01*
X142514394Y-103980332D01*
X142529118Y-103938255D01*
X142549315Y-103759001D01*
X144228434Y-103759001D01*
X144248631Y-103938258D01*
X144263344Y-103980304D01*
X144264716Y-104041474D01*
X144263344Y-104045696D01*
X144248632Y-104087740D01*
X144228435Y-104267000D01*
X144248632Y-104446257D01*
X144248634Y-104446263D01*
X144263344Y-104488305D01*
X144264716Y-104549475D01*
X144263344Y-104553695D01*
X144248634Y-104595736D01*
X144248632Y-104595742D01*
X144228435Y-104775000D01*
X144248632Y-104954257D01*
X144248633Y-104954261D01*
X144308211Y-105124522D01*
X144308211Y-105124523D01*
X144404181Y-105277258D01*
X144404184Y-105277262D01*
X144531738Y-105404816D01*
X144531740Y-105404817D01*
X144531741Y-105404818D01*
X144684474Y-105500787D01*
X144684478Y-105500789D01*
X144752657Y-105524646D01*
X144854738Y-105560366D01*
X144854742Y-105560367D01*
X144854745Y-105560368D01*
X145034000Y-105580565D01*
X145213255Y-105560368D01*
X145383522Y-105500789D01*
X145536262Y-105404816D01*
X145663816Y-105277262D01*
X145759789Y-105124522D01*
X145819368Y-104954255D01*
X145839565Y-104775000D01*
X145819368Y-104595745D01*
X145804654Y-104553698D01*
X145803281Y-104492529D01*
X145804655Y-104488301D01*
X145819367Y-104446258D01*
X145819367Y-104446257D01*
X145819368Y-104446255D01*
X145839565Y-104267000D01*
X145819368Y-104087745D01*
X145804653Y-104045694D01*
X145803280Y-103984529D01*
X145804636Y-103980352D01*
X145819367Y-103938256D01*
X145839564Y-103759001D01*
X145819367Y-103579746D01*
X145819364Y-103579738D01*
X145793212Y-103505000D01*
X145759788Y-103409479D01*
X145707174Y-103325745D01*
X145663817Y-103256742D01*
X145663816Y-103256741D01*
X145663815Y-103256739D01*
X145536261Y-103129185D01*
X145536258Y-103129183D01*
X145536257Y-103129182D01*
X145383522Y-103033212D01*
X145213260Y-102973634D01*
X145213256Y-102973633D01*
X145033999Y-102953436D01*
X144854741Y-102973633D01*
X144854737Y-102973634D01*
X144684476Y-103033212D01*
X144684475Y-103033212D01*
X144531740Y-103129182D01*
X144404180Y-103256742D01*
X144308210Y-103409477D01*
X144308210Y-103409478D01*
X144248632Y-103579739D01*
X144248631Y-103579743D01*
X144228434Y-103759001D01*
X142549315Y-103759001D01*
X142549315Y-103759000D01*
X142529118Y-103579745D01*
X142469539Y-103409478D01*
X142416920Y-103325736D01*
X142373568Y-103256741D01*
X142373567Y-103256740D01*
X142373566Y-103256738D01*
X142246012Y-103129184D01*
X142246009Y-103129182D01*
X142246008Y-103129181D01*
X142093273Y-103033211D01*
X141923011Y-102973633D01*
X141923007Y-102973632D01*
X141743750Y-102953435D01*
X141564492Y-102973632D01*
X141564488Y-102973633D01*
X141394227Y-103033211D01*
X141394226Y-103033211D01*
X141241491Y-103129181D01*
X141113931Y-103256741D01*
X141017961Y-103409476D01*
X141017961Y-103409477D01*
X140958383Y-103579738D01*
X140958382Y-103579742D01*
X140938185Y-103759000D01*
X139304464Y-103759000D01*
X139330618Y-103684255D01*
X139350815Y-103505000D01*
X139330618Y-103325745D01*
X139315904Y-103283698D01*
X139314531Y-103222529D01*
X139315905Y-103218301D01*
X139330617Y-103176258D01*
X139330617Y-103176257D01*
X139330618Y-103176255D01*
X139350815Y-102997000D01*
X139343204Y-102929450D01*
X146939500Y-102929450D01*
X146939500Y-103110549D01*
X146967828Y-103289406D01*
X147023788Y-103461637D01*
X147083963Y-103579738D01*
X147106004Y-103622994D01*
X147212447Y-103769501D01*
X147340499Y-103897553D01*
X147487006Y-104003996D01*
X147648361Y-104086211D01*
X147820591Y-104142171D01*
X147892136Y-104153502D01*
X147999451Y-104170500D01*
X147999454Y-104170500D01*
X148180549Y-104170500D01*
X148269977Y-104156335D01*
X148359409Y-104142171D01*
X148531639Y-104086211D01*
X148692994Y-104003996D01*
X148839501Y-103897553D01*
X148967553Y-103769501D01*
X149073996Y-103622994D01*
X149156211Y-103461639D01*
X149212171Y-103289409D01*
X149226335Y-103199977D01*
X149240500Y-103110549D01*
X149240500Y-102929450D01*
X149479500Y-102929450D01*
X149479500Y-103110549D01*
X149507828Y-103289406D01*
X149563788Y-103461637D01*
X149623963Y-103579738D01*
X149646004Y-103622994D01*
X149752447Y-103769501D01*
X149880499Y-103897553D01*
X150027006Y-104003996D01*
X150188361Y-104086211D01*
X150360591Y-104142171D01*
X150432136Y-104153502D01*
X150539451Y-104170500D01*
X150539454Y-104170500D01*
X150720549Y-104170500D01*
X150809977Y-104156335D01*
X150899409Y-104142171D01*
X151071639Y-104086211D01*
X151232994Y-104003996D01*
X151379501Y-103897553D01*
X151507553Y-103769501D01*
X151613996Y-103622994D01*
X151696211Y-103461639D01*
X151752171Y-103289409D01*
X151766335Y-103199977D01*
X151780500Y-103110549D01*
X151780500Y-102929450D01*
X152019500Y-102929450D01*
X152019500Y-103110549D01*
X152047828Y-103289406D01*
X152103788Y-103461637D01*
X152163963Y-103579738D01*
X152186004Y-103622994D01*
X152292447Y-103769501D01*
X152420499Y-103897553D01*
X152567006Y-104003996D01*
X152728361Y-104086211D01*
X152900591Y-104142171D01*
X152972136Y-104153502D01*
X153079451Y-104170500D01*
X153079454Y-104170500D01*
X153260549Y-104170500D01*
X153349977Y-104156335D01*
X153439409Y-104142171D01*
X153611639Y-104086211D01*
X153772994Y-104003996D01*
X153919501Y-103897553D01*
X154047553Y-103769501D01*
X154153996Y-103622994D01*
X154236211Y-103461639D01*
X154292171Y-103289409D01*
X154306335Y-103199977D01*
X154320500Y-103110549D01*
X154320500Y-102929450D01*
X154559500Y-102929450D01*
X154559500Y-103110549D01*
X154587828Y-103289406D01*
X154643788Y-103461637D01*
X154703963Y-103579738D01*
X154726004Y-103622994D01*
X154832447Y-103769501D01*
X154960499Y-103897553D01*
X155107006Y-104003996D01*
X155268361Y-104086211D01*
X155440591Y-104142171D01*
X155512136Y-104153502D01*
X155619451Y-104170500D01*
X155619454Y-104170500D01*
X155800549Y-104170500D01*
X155889977Y-104156335D01*
X155979409Y-104142171D01*
X156151639Y-104086211D01*
X156312994Y-104003996D01*
X156459501Y-103897553D01*
X156587553Y-103769501D01*
X156693996Y-103622994D01*
X156776211Y-103461639D01*
X156832171Y-103289409D01*
X156846335Y-103199977D01*
X156860500Y-103110549D01*
X156860500Y-102929450D01*
X157099500Y-102929450D01*
X157099500Y-103110549D01*
X157127828Y-103289406D01*
X157183788Y-103461637D01*
X157243963Y-103579738D01*
X157266004Y-103622994D01*
X157372447Y-103769501D01*
X157500499Y-103897553D01*
X157647006Y-104003996D01*
X157808361Y-104086211D01*
X157980591Y-104142171D01*
X158052136Y-104153502D01*
X158159451Y-104170500D01*
X158159454Y-104170500D01*
X158340549Y-104170500D01*
X158429977Y-104156335D01*
X158519409Y-104142171D01*
X158691639Y-104086211D01*
X158852994Y-104003996D01*
X158999501Y-103897553D01*
X159127553Y-103769501D01*
X159233996Y-103622994D01*
X159316211Y-103461639D01*
X159372171Y-103289409D01*
X159386335Y-103199977D01*
X159400500Y-103110549D01*
X159400500Y-102929450D01*
X159376147Y-102775696D01*
X159372171Y-102750591D01*
X159316211Y-102578361D01*
X159233996Y-102417006D01*
X159127553Y-102270499D01*
X158999501Y-102142447D01*
X158852994Y-102036004D01*
X158852993Y-102036003D01*
X158852991Y-102036002D01*
X158691637Y-101953788D01*
X158519406Y-101897828D01*
X158340549Y-101869500D01*
X158340546Y-101869500D01*
X158159454Y-101869500D01*
X158159451Y-101869500D01*
X157980593Y-101897828D01*
X157808362Y-101953788D01*
X157647008Y-102036002D01*
X157573752Y-102089225D01*
X157500499Y-102142447D01*
X157372447Y-102270499D01*
X157343938Y-102309739D01*
X157266002Y-102417008D01*
X157183788Y-102578362D01*
X157127828Y-102750593D01*
X157099500Y-102929450D01*
X156860500Y-102929450D01*
X156836147Y-102775696D01*
X156832171Y-102750591D01*
X156776211Y-102578361D01*
X156693996Y-102417006D01*
X156587553Y-102270499D01*
X156459501Y-102142447D01*
X156312994Y-102036004D01*
X156312993Y-102036003D01*
X156312991Y-102036002D01*
X156151637Y-101953788D01*
X155979406Y-101897828D01*
X155800549Y-101869500D01*
X155800546Y-101869500D01*
X155619454Y-101869500D01*
X155619451Y-101869500D01*
X155440593Y-101897828D01*
X155268362Y-101953788D01*
X155107008Y-102036002D01*
X155033752Y-102089225D01*
X154960499Y-102142447D01*
X154832447Y-102270499D01*
X154803938Y-102309739D01*
X154726002Y-102417008D01*
X154643788Y-102578362D01*
X154587828Y-102750593D01*
X154559500Y-102929450D01*
X154320500Y-102929450D01*
X154296147Y-102775696D01*
X154292171Y-102750591D01*
X154236211Y-102578361D01*
X154153996Y-102417006D01*
X154047553Y-102270499D01*
X153919501Y-102142447D01*
X153772994Y-102036004D01*
X153772993Y-102036003D01*
X153772991Y-102036002D01*
X153611637Y-101953788D01*
X153439406Y-101897828D01*
X153260549Y-101869500D01*
X153260546Y-101869500D01*
X153079454Y-101869500D01*
X153079451Y-101869500D01*
X152900593Y-101897828D01*
X152728362Y-101953788D01*
X152567008Y-102036002D01*
X152493752Y-102089225D01*
X152420499Y-102142447D01*
X152292447Y-102270499D01*
X152263938Y-102309739D01*
X152186002Y-102417008D01*
X152103788Y-102578362D01*
X152047828Y-102750593D01*
X152019500Y-102929450D01*
X151780500Y-102929450D01*
X151756147Y-102775696D01*
X151752171Y-102750591D01*
X151696211Y-102578361D01*
X151613996Y-102417006D01*
X151507553Y-102270499D01*
X151379501Y-102142447D01*
X151232994Y-102036004D01*
X151232993Y-102036003D01*
X151232991Y-102036002D01*
X151071637Y-101953788D01*
X150899406Y-101897828D01*
X150720549Y-101869500D01*
X150720546Y-101869500D01*
X150539454Y-101869500D01*
X150539451Y-101869500D01*
X150360593Y-101897828D01*
X150188362Y-101953788D01*
X150027008Y-102036002D01*
X149953752Y-102089225D01*
X149880499Y-102142447D01*
X149752447Y-102270499D01*
X149723938Y-102309739D01*
X149646002Y-102417008D01*
X149563788Y-102578362D01*
X149507828Y-102750593D01*
X149479500Y-102929450D01*
X149240500Y-102929450D01*
X149216147Y-102775696D01*
X149212171Y-102750591D01*
X149156211Y-102578361D01*
X149073996Y-102417006D01*
X148967553Y-102270499D01*
X148839501Y-102142447D01*
X148692994Y-102036004D01*
X148692993Y-102036003D01*
X148692991Y-102036002D01*
X148531637Y-101953788D01*
X148359406Y-101897828D01*
X148180549Y-101869500D01*
X148180546Y-101869500D01*
X147999454Y-101869500D01*
X147999451Y-101869500D01*
X147820593Y-101897828D01*
X147648362Y-101953788D01*
X147487008Y-102036002D01*
X147413752Y-102089225D01*
X147340499Y-102142447D01*
X147212447Y-102270499D01*
X147183938Y-102309739D01*
X147106002Y-102417008D01*
X147023788Y-102578362D01*
X146967828Y-102750593D01*
X146939500Y-102929450D01*
X139343204Y-102929450D01*
X139330618Y-102817745D01*
X139315903Y-102775694D01*
X139314530Y-102714529D01*
X139315886Y-102710352D01*
X139330617Y-102668256D01*
X139350814Y-102489001D01*
X139330617Y-102309746D01*
X139271038Y-102139479D01*
X139175065Y-101986739D01*
X139047511Y-101859185D01*
X139047508Y-101859183D01*
X139047507Y-101859182D01*
X138894772Y-101763212D01*
X138724510Y-101703634D01*
X138724506Y-101703633D01*
X138545249Y-101683436D01*
X138365991Y-101703633D01*
X138365987Y-101703634D01*
X138195726Y-101763212D01*
X138195725Y-101763212D01*
X138042990Y-101859182D01*
X137915430Y-101986742D01*
X137819460Y-102139477D01*
X137819460Y-102139478D01*
X137759882Y-102309739D01*
X137759881Y-102309743D01*
X137739684Y-102489001D01*
X130670500Y-102489001D01*
X130670500Y-99694998D01*
X138409935Y-99694998D01*
X138430132Y-99874255D01*
X138444845Y-99916303D01*
X138446217Y-99977473D01*
X138444845Y-99981694D01*
X138430132Y-100023741D01*
X138409935Y-100203001D01*
X138430132Y-100382258D01*
X138430133Y-100382262D01*
X138444844Y-100424302D01*
X138446217Y-100485472D01*
X138444845Y-100489696D01*
X138430133Y-100531740D01*
X138409936Y-100710998D01*
X138430133Y-100890255D01*
X138430134Y-100890259D01*
X138489712Y-101060520D01*
X138489712Y-101060521D01*
X138563592Y-101178100D01*
X138585685Y-101213260D01*
X138713239Y-101340814D01*
X138865979Y-101436787D01*
X138879514Y-101441523D01*
X139036239Y-101496364D01*
X139036243Y-101496365D01*
X139036246Y-101496366D01*
X139215501Y-101516563D01*
X139394756Y-101496366D01*
X139565023Y-101436787D01*
X139717763Y-101340814D01*
X139845317Y-101213260D01*
X139941290Y-101060520D01*
X140000869Y-100890253D01*
X140021066Y-100710998D01*
X140000869Y-100531743D01*
X139986155Y-100489696D01*
X139984782Y-100428527D01*
X139986156Y-100424299D01*
X140000867Y-100382259D01*
X140000867Y-100382258D01*
X140000868Y-100382256D01*
X140021065Y-100203001D01*
X140000868Y-100023746D01*
X140000866Y-100023741D01*
X139996078Y-100010058D01*
X139986153Y-99981695D01*
X139984780Y-99920529D01*
X139986136Y-99916352D01*
X140000868Y-99874253D01*
X140021065Y-99695000D01*
X142704434Y-99695000D01*
X142724631Y-99874257D01*
X142724631Y-99874258D01*
X142739344Y-99916301D01*
X142740718Y-99977471D01*
X142739345Y-99981697D01*
X142724632Y-100023743D01*
X142704435Y-100203001D01*
X142724632Y-100382258D01*
X142724633Y-100382262D01*
X142739344Y-100424302D01*
X142740717Y-100485472D01*
X142739344Y-100489698D01*
X142724633Y-100531737D01*
X142724632Y-100531741D01*
X142704435Y-100710999D01*
X142724632Y-100890256D01*
X142724633Y-100890260D01*
X142784211Y-101060521D01*
X142784211Y-101060522D01*
X142880181Y-101213257D01*
X142880184Y-101213261D01*
X143007738Y-101340815D01*
X143007740Y-101340816D01*
X143007741Y-101340817D01*
X143160474Y-101436786D01*
X143160478Y-101436788D01*
X143220378Y-101457748D01*
X143330738Y-101496365D01*
X143330742Y-101496366D01*
X143330745Y-101496367D01*
X143510000Y-101516564D01*
X143689255Y-101496367D01*
X143859522Y-101436788D01*
X144012262Y-101340815D01*
X144139816Y-101213261D01*
X144235789Y-101060521D01*
X144295368Y-100890254D01*
X144315565Y-100710999D01*
X144295368Y-100531744D01*
X144280655Y-100489697D01*
X144279281Y-100428530D01*
X144280646Y-100424325D01*
X144295368Y-100382256D01*
X144315565Y-100203001D01*
X144295368Y-100023746D01*
X144280653Y-99981697D01*
X144279280Y-99920529D01*
X144280653Y-99916303D01*
X144295367Y-99874255D01*
X144315564Y-99695000D01*
X144295367Y-99515745D01*
X144295366Y-99515742D01*
X144295365Y-99515738D01*
X144255027Y-99400461D01*
X144235788Y-99345478D01*
X144235785Y-99345474D01*
X144139817Y-99192741D01*
X144139816Y-99192740D01*
X144139815Y-99192738D01*
X144058533Y-99111456D01*
X147089500Y-99111456D01*
X147089500Y-99308543D01*
X147127949Y-99501834D01*
X147127949Y-99501836D01*
X147203367Y-99683913D01*
X147233077Y-99728377D01*
X147312861Y-99847782D01*
X147452218Y-99987139D01*
X147616086Y-100096632D01*
X147798165Y-100172051D01*
X147991459Y-100210500D01*
X147991460Y-100210500D01*
X148188540Y-100210500D01*
X148188541Y-100210500D01*
X148381835Y-100172051D01*
X148563914Y-100096632D01*
X148727782Y-99987139D01*
X148867139Y-99847782D01*
X148976632Y-99683914D01*
X149052051Y-99501835D01*
X149090500Y-99308541D01*
X149090500Y-99111459D01*
X149090499Y-99111456D01*
X149629500Y-99111456D01*
X149629500Y-99308543D01*
X149667949Y-99501834D01*
X149667949Y-99501836D01*
X149743367Y-99683913D01*
X149773077Y-99728377D01*
X149852861Y-99847782D01*
X149992218Y-99987139D01*
X150156086Y-100096632D01*
X150338165Y-100172051D01*
X150531459Y-100210500D01*
X150531460Y-100210500D01*
X150728540Y-100210500D01*
X150728541Y-100210500D01*
X150921835Y-100172051D01*
X151103914Y-100096632D01*
X151267782Y-99987139D01*
X151407139Y-99847782D01*
X151516632Y-99683914D01*
X151592051Y-99501835D01*
X151630500Y-99308541D01*
X151630500Y-99111459D01*
X151630499Y-99111456D01*
X152169500Y-99111456D01*
X152169500Y-99308543D01*
X152207949Y-99501834D01*
X152207949Y-99501836D01*
X152283367Y-99683913D01*
X152313077Y-99728377D01*
X152392861Y-99847782D01*
X152532218Y-99987139D01*
X152696086Y-100096632D01*
X152878165Y-100172051D01*
X153071459Y-100210500D01*
X153071460Y-100210500D01*
X153268540Y-100210500D01*
X153268541Y-100210500D01*
X153461835Y-100172051D01*
X153643914Y-100096632D01*
X153807782Y-99987139D01*
X153947139Y-99847782D01*
X154056632Y-99683914D01*
X154132051Y-99501835D01*
X154170500Y-99308541D01*
X154170500Y-99111459D01*
X154170499Y-99111456D01*
X154709500Y-99111456D01*
X154709500Y-99308543D01*
X154747949Y-99501834D01*
X154747949Y-99501836D01*
X154823367Y-99683913D01*
X154853077Y-99728377D01*
X154932861Y-99847782D01*
X155072218Y-99987139D01*
X155236086Y-100096632D01*
X155418165Y-100172051D01*
X155611459Y-100210500D01*
X155611460Y-100210500D01*
X155808540Y-100210500D01*
X155808541Y-100210500D01*
X156001835Y-100172051D01*
X156183914Y-100096632D01*
X156347782Y-99987139D01*
X156487139Y-99847782D01*
X156596632Y-99683914D01*
X156672051Y-99501835D01*
X156710500Y-99308541D01*
X156710500Y-99111459D01*
X156710499Y-99111456D01*
X157249500Y-99111456D01*
X157249500Y-99308543D01*
X157287949Y-99501834D01*
X157287949Y-99501836D01*
X157363367Y-99683913D01*
X157393077Y-99728377D01*
X157472861Y-99847782D01*
X157612218Y-99987139D01*
X157776086Y-100096632D01*
X157958165Y-100172051D01*
X158151459Y-100210500D01*
X158151460Y-100210500D01*
X158348540Y-100210500D01*
X158348541Y-100210500D01*
X158541835Y-100172051D01*
X158723914Y-100096632D01*
X158887782Y-99987139D01*
X159027139Y-99847782D01*
X159136632Y-99683914D01*
X159212051Y-99501835D01*
X159249414Y-99314000D01*
X166580435Y-99314000D01*
X166600632Y-99493257D01*
X166600633Y-99493261D01*
X166660211Y-99663522D01*
X166660211Y-99663523D01*
X166756181Y-99816258D01*
X166756184Y-99816262D01*
X166883738Y-99943816D01*
X166883740Y-99943817D01*
X166883741Y-99943818D01*
X167010945Y-100023746D01*
X167036478Y-100039789D01*
X167104657Y-100063646D01*
X167206738Y-100099366D01*
X167206742Y-100099367D01*
X167206745Y-100099368D01*
X167386000Y-100119565D01*
X167565255Y-100099368D01*
X167607301Y-100084654D01*
X167668471Y-100083281D01*
X167672693Y-100084653D01*
X167714745Y-100099368D01*
X167894000Y-100119565D01*
X168073255Y-100099368D01*
X168115301Y-100084654D01*
X168176471Y-100083281D01*
X168180693Y-100084653D01*
X168222745Y-100099368D01*
X168402000Y-100119565D01*
X168581255Y-100099368D01*
X168642607Y-100077900D01*
X169343620Y-100077900D01*
X169363817Y-100257157D01*
X169363818Y-100257161D01*
X169423396Y-100427422D01*
X169423396Y-100427423D01*
X169519366Y-100580158D01*
X169519369Y-100580162D01*
X169646923Y-100707716D01*
X169799663Y-100803689D01*
X169867842Y-100827546D01*
X169969923Y-100863266D01*
X169969927Y-100863267D01*
X169969930Y-100863268D01*
X170149185Y-100883465D01*
X170328440Y-100863268D01*
X170385896Y-100843162D01*
X170447062Y-100841789D01*
X170451254Y-100843151D01*
X170508745Y-100863268D01*
X170688000Y-100883465D01*
X170688001Y-100883464D01*
X170693524Y-100884087D01*
X170693260Y-100886425D01*
X170742341Y-100902372D01*
X170778305Y-100951872D01*
X170782528Y-100993549D01*
X170771435Y-101091999D01*
X170791632Y-101271257D01*
X170791633Y-101271261D01*
X170851211Y-101441522D01*
X170851211Y-101441523D01*
X170898362Y-101516563D01*
X170947184Y-101594262D01*
X171074738Y-101721816D01*
X171227478Y-101817789D01*
X171295657Y-101841646D01*
X171397738Y-101877366D01*
X171397742Y-101877367D01*
X171397745Y-101877368D01*
X171577000Y-101897565D01*
X171756255Y-101877368D01*
X171926522Y-101817789D01*
X172079262Y-101721816D01*
X172206816Y-101594262D01*
X172292594Y-101457746D01*
X172323746Y-101426594D01*
X172460262Y-101340816D01*
X172587816Y-101213262D01*
X172673594Y-101076746D01*
X172704746Y-101045594D01*
X172841262Y-100959816D01*
X172968816Y-100832262D01*
X173064789Y-100679522D01*
X173124368Y-100509255D01*
X173144565Y-100330000D01*
X173124368Y-100150745D01*
X173113457Y-100119564D01*
X173099283Y-100079056D01*
X173954700Y-100079056D01*
X173954700Y-100079059D01*
X173954700Y-100276141D01*
X173990675Y-100457000D01*
X173993149Y-100469434D01*
X173993149Y-100469436D01*
X174068567Y-100651513D01*
X174068568Y-100651514D01*
X174178061Y-100815382D01*
X174317418Y-100954739D01*
X174481286Y-101064232D01*
X174663365Y-101139651D01*
X174856659Y-101178100D01*
X174856660Y-101178100D01*
X175053740Y-101178100D01*
X175053741Y-101178100D01*
X175247035Y-101139651D01*
X175429114Y-101064232D01*
X175592982Y-100954739D01*
X175732339Y-100815382D01*
X175841832Y-100651514D01*
X175917251Y-100469435D01*
X175955700Y-100276141D01*
X175955700Y-100079059D01*
X175955699Y-100079056D01*
X176494700Y-100079056D01*
X176494700Y-100079059D01*
X176494700Y-100276141D01*
X176530675Y-100457000D01*
X176533149Y-100469434D01*
X176533149Y-100469436D01*
X176608567Y-100651513D01*
X176608568Y-100651514D01*
X176718061Y-100815382D01*
X176857418Y-100954739D01*
X177021286Y-101064232D01*
X177203365Y-101139651D01*
X177396659Y-101178100D01*
X177396660Y-101178100D01*
X177593740Y-101178100D01*
X177593741Y-101178100D01*
X177787035Y-101139651D01*
X177969114Y-101064232D01*
X178132982Y-100954739D01*
X178272339Y-100815382D01*
X178381832Y-100651514D01*
X178457251Y-100469435D01*
X178495700Y-100276141D01*
X178495700Y-100079059D01*
X178457251Y-99885765D01*
X178381832Y-99703686D01*
X178272339Y-99539818D01*
X178132982Y-99400461D01*
X178003584Y-99314000D01*
X177969113Y-99290967D01*
X177787035Y-99215549D01*
X177593743Y-99177100D01*
X177593741Y-99177100D01*
X177396659Y-99177100D01*
X177396656Y-99177100D01*
X177203365Y-99215549D01*
X177203363Y-99215549D01*
X177021286Y-99290967D01*
X176857418Y-99400461D01*
X176857414Y-99400464D01*
X176718064Y-99539814D01*
X176718061Y-99539818D01*
X176608567Y-99703686D01*
X176533149Y-99885763D01*
X176533149Y-99885765D01*
X176494700Y-100079056D01*
X175955699Y-100079056D01*
X175917251Y-99885765D01*
X175841832Y-99703686D01*
X175732339Y-99539818D01*
X175592982Y-99400461D01*
X175463584Y-99314000D01*
X175429113Y-99290967D01*
X175247035Y-99215549D01*
X175053743Y-99177100D01*
X175053741Y-99177100D01*
X174856659Y-99177100D01*
X174856656Y-99177100D01*
X174663365Y-99215549D01*
X174663363Y-99215549D01*
X174481286Y-99290967D01*
X174317418Y-99400461D01*
X174317414Y-99400464D01*
X174178064Y-99539814D01*
X174178061Y-99539818D01*
X174068567Y-99703686D01*
X173993149Y-99885763D01*
X173993149Y-99885765D01*
X173954700Y-100079056D01*
X173099283Y-100079056D01*
X173079928Y-100023743D01*
X173064789Y-99980478D01*
X173045009Y-99948999D01*
X172968818Y-99827741D01*
X172968817Y-99827740D01*
X172968816Y-99827738D01*
X172841262Y-99700184D01*
X172841259Y-99700182D01*
X172841258Y-99700181D01*
X172688523Y-99604211D01*
X172518261Y-99544633D01*
X172518257Y-99544632D01*
X172339000Y-99524435D01*
X172159742Y-99544632D01*
X172159738Y-99544633D01*
X171989474Y-99604212D01*
X171984466Y-99606624D01*
X171983739Y-99605115D01*
X171931573Y-99618245D01*
X171874792Y-99595450D01*
X171860802Y-99579427D01*
X171860100Y-99579988D01*
X171856633Y-99575641D01*
X171856632Y-99575640D01*
X171856631Y-99575638D01*
X171729077Y-99448084D01*
X171729074Y-99448082D01*
X171729073Y-99448081D01*
X171576338Y-99352111D01*
X171406076Y-99292533D01*
X171406072Y-99292532D01*
X171226815Y-99272335D01*
X171047557Y-99292532D01*
X170990103Y-99312636D01*
X170928933Y-99314008D01*
X170924710Y-99312636D01*
X170867255Y-99292532D01*
X170688000Y-99272335D01*
X170508742Y-99292532D01*
X170451288Y-99312636D01*
X170390118Y-99314008D01*
X170385895Y-99312636D01*
X170328440Y-99292532D01*
X170149185Y-99272335D01*
X169969927Y-99292532D01*
X169969923Y-99292533D01*
X169799662Y-99352111D01*
X169799661Y-99352111D01*
X169646926Y-99448081D01*
X169519366Y-99575641D01*
X169423396Y-99728376D01*
X169423396Y-99728377D01*
X169363818Y-99898638D01*
X169363817Y-99898642D01*
X169343620Y-100077900D01*
X168642607Y-100077900D01*
X168751522Y-100039789D01*
X168904262Y-99943816D01*
X169031816Y-99816262D01*
X169127789Y-99663522D01*
X169187368Y-99493255D01*
X169207565Y-99314000D01*
X169187368Y-99134745D01*
X169179220Y-99111460D01*
X169129444Y-98969209D01*
X169127789Y-98964478D01*
X169098687Y-98918163D01*
X169031818Y-98811741D01*
X169031817Y-98811740D01*
X169031816Y-98811738D01*
X168904262Y-98684184D01*
X168904259Y-98684182D01*
X168904258Y-98684181D01*
X168751523Y-98588211D01*
X168581261Y-98528633D01*
X168581257Y-98528632D01*
X168402000Y-98508435D01*
X168222742Y-98528632D01*
X168222736Y-98528634D01*
X168180695Y-98543344D01*
X168119525Y-98544716D01*
X168115305Y-98543344D01*
X168073263Y-98528634D01*
X168073257Y-98528632D01*
X167894000Y-98508435D01*
X167714742Y-98528632D01*
X167714736Y-98528634D01*
X167672695Y-98543344D01*
X167611525Y-98544716D01*
X167607305Y-98543344D01*
X167565263Y-98528634D01*
X167565257Y-98528632D01*
X167386000Y-98508435D01*
X167206742Y-98528632D01*
X167206738Y-98528633D01*
X167036477Y-98588211D01*
X167036476Y-98588211D01*
X166883741Y-98684181D01*
X166756181Y-98811741D01*
X166660211Y-98964476D01*
X166660211Y-98964477D01*
X166600633Y-99134738D01*
X166600632Y-99134742D01*
X166580435Y-99314000D01*
X159249414Y-99314000D01*
X159250500Y-99308541D01*
X159250500Y-99111459D01*
X159212051Y-98918165D01*
X159136632Y-98736086D01*
X159027139Y-98572218D01*
X158887782Y-98432861D01*
X158723914Y-98323368D01*
X158723915Y-98323368D01*
X158723913Y-98323367D01*
X158541835Y-98247949D01*
X158348543Y-98209500D01*
X158348541Y-98209500D01*
X158151459Y-98209500D01*
X158151456Y-98209500D01*
X157958165Y-98247949D01*
X157958163Y-98247949D01*
X157776086Y-98323367D01*
X157612218Y-98432861D01*
X157612214Y-98432864D01*
X157472864Y-98572214D01*
X157472861Y-98572218D01*
X157363367Y-98736086D01*
X157287949Y-98918163D01*
X157287949Y-98918165D01*
X157249500Y-99111456D01*
X156710499Y-99111456D01*
X156672051Y-98918165D01*
X156596632Y-98736086D01*
X156487139Y-98572218D01*
X156347782Y-98432861D01*
X156183914Y-98323368D01*
X156183915Y-98323368D01*
X156183913Y-98323367D01*
X156001835Y-98247949D01*
X155808543Y-98209500D01*
X155808541Y-98209500D01*
X155611459Y-98209500D01*
X155611456Y-98209500D01*
X155418165Y-98247949D01*
X155418163Y-98247949D01*
X155236086Y-98323367D01*
X155072218Y-98432861D01*
X155072214Y-98432864D01*
X154932864Y-98572214D01*
X154932861Y-98572218D01*
X154823367Y-98736086D01*
X154747949Y-98918163D01*
X154747949Y-98918165D01*
X154709500Y-99111456D01*
X154170499Y-99111456D01*
X154132051Y-98918165D01*
X154056632Y-98736086D01*
X153947139Y-98572218D01*
X153807782Y-98432861D01*
X153643914Y-98323368D01*
X153643915Y-98323368D01*
X153643913Y-98323367D01*
X153461835Y-98247949D01*
X153268543Y-98209500D01*
X153268541Y-98209500D01*
X153071459Y-98209500D01*
X153071456Y-98209500D01*
X152878165Y-98247949D01*
X152878163Y-98247949D01*
X152696086Y-98323367D01*
X152532218Y-98432861D01*
X152532214Y-98432864D01*
X152392864Y-98572214D01*
X152392861Y-98572218D01*
X152283367Y-98736086D01*
X152207949Y-98918163D01*
X152207949Y-98918165D01*
X152169500Y-99111456D01*
X151630499Y-99111456D01*
X151592051Y-98918165D01*
X151516632Y-98736086D01*
X151407139Y-98572218D01*
X151267782Y-98432861D01*
X151103914Y-98323368D01*
X151103915Y-98323368D01*
X151103913Y-98323367D01*
X150921835Y-98247949D01*
X150728543Y-98209500D01*
X150728541Y-98209500D01*
X150531459Y-98209500D01*
X150531456Y-98209500D01*
X150338165Y-98247949D01*
X150338163Y-98247949D01*
X150156086Y-98323367D01*
X149992218Y-98432861D01*
X149992214Y-98432864D01*
X149852864Y-98572214D01*
X149852861Y-98572218D01*
X149743367Y-98736086D01*
X149667949Y-98918163D01*
X149667949Y-98918165D01*
X149629500Y-99111456D01*
X149090499Y-99111456D01*
X149052051Y-98918165D01*
X148976632Y-98736086D01*
X148867139Y-98572218D01*
X148727782Y-98432861D01*
X148563914Y-98323368D01*
X148563915Y-98323368D01*
X148563913Y-98323367D01*
X148381835Y-98247949D01*
X148188543Y-98209500D01*
X148188541Y-98209500D01*
X147991459Y-98209500D01*
X147991456Y-98209500D01*
X147798165Y-98247949D01*
X147798163Y-98247949D01*
X147616086Y-98323367D01*
X147452218Y-98432861D01*
X147452214Y-98432864D01*
X147312864Y-98572214D01*
X147312861Y-98572218D01*
X147203367Y-98736086D01*
X147127949Y-98918163D01*
X147127949Y-98918165D01*
X147089500Y-99111456D01*
X144058533Y-99111456D01*
X144012261Y-99065184D01*
X144012258Y-99065182D01*
X144012257Y-99065181D01*
X143859522Y-98969211D01*
X143689260Y-98909633D01*
X143689256Y-98909632D01*
X143509999Y-98889435D01*
X143330741Y-98909632D01*
X143330737Y-98909633D01*
X143160476Y-98969211D01*
X143160475Y-98969211D01*
X143007740Y-99065181D01*
X142880180Y-99192741D01*
X142784210Y-99345476D01*
X142784210Y-99345477D01*
X142724632Y-99515738D01*
X142724631Y-99515742D01*
X142704434Y-99695000D01*
X140021065Y-99695000D01*
X140021065Y-99694998D01*
X140000868Y-99515743D01*
X140000867Y-99515740D01*
X140000866Y-99515736D01*
X139960529Y-99400461D01*
X139941289Y-99345476D01*
X139921516Y-99314008D01*
X139845318Y-99192739D01*
X139845317Y-99192738D01*
X139845316Y-99192736D01*
X139717762Y-99065182D01*
X139717759Y-99065180D01*
X139717758Y-99065179D01*
X139565023Y-98969209D01*
X139394761Y-98909631D01*
X139394757Y-98909630D01*
X139215500Y-98889433D01*
X139036242Y-98909630D01*
X139036238Y-98909631D01*
X138865977Y-98969209D01*
X138865976Y-98969209D01*
X138713241Y-99065179D01*
X138585681Y-99192739D01*
X138489711Y-99345474D01*
X138489711Y-99345475D01*
X138430133Y-99515736D01*
X138430132Y-99515740D01*
X138409935Y-99694998D01*
X130670500Y-99694998D01*
X130670500Y-96558377D01*
X131973340Y-96558377D01*
X131973340Y-96833725D01*
X132009280Y-97106717D01*
X132048093Y-97251572D01*
X132080544Y-97372682D01*
X132185914Y-97627067D01*
X132185917Y-97627072D01*
X132323591Y-97865530D01*
X132491212Y-98083979D01*
X132685912Y-98278679D01*
X132904361Y-98446300D01*
X133142819Y-98583974D01*
X133142820Y-98583974D01*
X133142823Y-98583976D01*
X133384739Y-98684181D01*
X133397208Y-98689346D01*
X133663174Y-98760611D01*
X133936166Y-98796551D01*
X133936167Y-98796551D01*
X134211513Y-98796551D01*
X134211514Y-98796551D01*
X134484506Y-98760611D01*
X134750472Y-98689346D01*
X135004861Y-98583974D01*
X135243319Y-98446300D01*
X135461768Y-98278679D01*
X135656468Y-98083979D01*
X135824089Y-97865530D01*
X135961763Y-97627072D01*
X136067135Y-97372683D01*
X136138400Y-97106717D01*
X136174340Y-96833725D01*
X136174340Y-96558377D01*
X136138400Y-96285385D01*
X136067135Y-96019419D01*
X135961763Y-95765030D01*
X135824089Y-95526572D01*
X135656468Y-95308123D01*
X135461768Y-95113423D01*
X135275272Y-94970320D01*
X135243322Y-94945804D01*
X135004856Y-94808125D01*
X134750471Y-94702755D01*
X134629361Y-94670304D01*
X134484506Y-94631491D01*
X134484499Y-94631490D01*
X134211515Y-94595551D01*
X134211514Y-94595551D01*
X133936166Y-94595551D01*
X133936164Y-94595551D01*
X133663180Y-94631490D01*
X133663178Y-94631490D01*
X133663174Y-94631491D01*
X133562645Y-94658427D01*
X133397208Y-94702755D01*
X133142823Y-94808125D01*
X132904357Y-94945804D01*
X132685915Y-95113420D01*
X132491209Y-95308126D01*
X132323593Y-95526568D01*
X132185914Y-95765034D01*
X132080544Y-96019419D01*
X132051053Y-96129485D01*
X132009280Y-96285385D01*
X132009279Y-96285389D01*
X132009279Y-96285391D01*
X131978064Y-96522498D01*
X131973340Y-96558377D01*
X130670500Y-96558377D01*
X130670500Y-95333240D01*
X130670712Y-95326765D01*
X130687523Y-95070269D01*
X130689213Y-95057430D01*
X130738730Y-94808493D01*
X130742077Y-94796000D01*
X130823666Y-94555649D01*
X130828617Y-94543699D01*
X130940871Y-94316067D01*
X130947344Y-94304857D01*
X130997546Y-94229725D01*
X131034694Y-94174129D01*
X170359500Y-94174129D01*
X170359500Y-96069866D01*
X170359501Y-96069870D01*
X170365908Y-96129480D01*
X170365909Y-96129485D01*
X170416202Y-96264329D01*
X170462611Y-96326323D01*
X170502454Y-96379546D01*
X170502457Y-96379548D01*
X170502458Y-96379549D01*
X170617670Y-96465797D01*
X170752511Y-96516089D01*
X170752512Y-96516089D01*
X170752517Y-96516091D01*
X170812127Y-96522500D01*
X172617872Y-96522499D01*
X172677483Y-96516091D01*
X172749788Y-96489123D01*
X172812329Y-96465797D01*
X172812329Y-96465796D01*
X172812331Y-96465796D01*
X172927546Y-96379546D01*
X173013796Y-96264331D01*
X173013795Y-96264331D01*
X173018040Y-96258662D01*
X173019704Y-96259908D01*
X173056960Y-96224709D01*
X173117639Y-96216855D01*
X173157575Y-96234065D01*
X173284562Y-96326327D01*
X173474668Y-96423191D01*
X173677585Y-96489123D01*
X173677586Y-96489123D01*
X173677589Y-96489124D01*
X173888316Y-96522500D01*
X173888319Y-96522500D01*
X174101682Y-96522500D01*
X174312408Y-96489124D01*
X174312409Y-96489123D01*
X174312413Y-96489123D01*
X174515330Y-96423191D01*
X174705436Y-96326327D01*
X174878048Y-96200917D01*
X175028916Y-96050049D01*
X175054906Y-96014275D01*
X175104405Y-95978312D01*
X175165590Y-95978311D01*
X175215091Y-96014274D01*
X175215091Y-96014275D01*
X175241078Y-96050043D01*
X175241080Y-96050045D01*
X175241083Y-96050049D01*
X175391951Y-96200917D01*
X175564563Y-96326327D01*
X175754669Y-96423191D01*
X175957586Y-96489123D01*
X175957587Y-96489123D01*
X175957590Y-96489124D01*
X176168317Y-96522500D01*
X176168320Y-96522500D01*
X176381683Y-96522500D01*
X176592409Y-96489124D01*
X176592410Y-96489123D01*
X176592414Y-96489123D01*
X176795331Y-96423191D01*
X176985437Y-96326327D01*
X177158049Y-96200917D01*
X177308917Y-96050049D01*
X177434327Y-95877437D01*
X177531191Y-95687331D01*
X177597123Y-95484414D01*
X177621580Y-95330000D01*
X177630500Y-95273683D01*
X177630500Y-94970316D01*
X177597124Y-94759590D01*
X177597123Y-94759586D01*
X177531191Y-94556669D01*
X177434327Y-94366563D01*
X177308917Y-94193951D01*
X177158049Y-94043083D01*
X176985437Y-93917673D01*
X176985436Y-93917672D01*
X176985434Y-93917671D01*
X176795331Y-93820809D01*
X176592409Y-93754875D01*
X176381683Y-93721500D01*
X176381680Y-93721500D01*
X176168320Y-93721500D01*
X176168317Y-93721500D01*
X175957590Y-93754875D01*
X175754668Y-93820809D01*
X175564565Y-93917671D01*
X175391952Y-94043082D01*
X175241081Y-94193953D01*
X175215091Y-94229725D01*
X175165590Y-94265688D01*
X175104405Y-94265687D01*
X175054907Y-94229724D01*
X175028916Y-94193951D01*
X174878048Y-94043083D01*
X174705436Y-93917673D01*
X174705435Y-93917672D01*
X174705433Y-93917671D01*
X174515330Y-93820809D01*
X174312408Y-93754875D01*
X174101682Y-93721500D01*
X174101679Y-93721500D01*
X173888319Y-93721500D01*
X173888316Y-93721500D01*
X173677589Y-93754875D01*
X173474667Y-93820809D01*
X173284564Y-93917671D01*
X173157576Y-94009934D01*
X173099385Y-94028841D01*
X173041194Y-94009934D01*
X173018965Y-93984645D01*
X173018040Y-93985338D01*
X172927549Y-93864458D01*
X172927548Y-93864457D01*
X172927546Y-93864454D01*
X172869244Y-93820809D01*
X172812329Y-93778202D01*
X172677488Y-93727910D01*
X172677483Y-93727909D01*
X172677481Y-93727908D01*
X172677477Y-93727908D01*
X172646249Y-93724550D01*
X172617873Y-93721500D01*
X172617870Y-93721500D01*
X170812133Y-93721500D01*
X170812129Y-93721500D01*
X170812128Y-93721501D01*
X170804949Y-93722272D01*
X170752519Y-93727908D01*
X170752514Y-93727909D01*
X170617670Y-93778202D01*
X170502458Y-93864450D01*
X170502450Y-93864458D01*
X170416202Y-93979670D01*
X170365910Y-94114511D01*
X170365908Y-94114522D01*
X170359500Y-94174129D01*
X131034694Y-94174129D01*
X131088355Y-94093818D01*
X131096230Y-94083556D01*
X131263585Y-93892725D01*
X131272725Y-93883585D01*
X131463556Y-93716230D01*
X131473818Y-93708355D01*
X131684862Y-93567340D01*
X131696067Y-93560871D01*
X131923699Y-93448617D01*
X131935649Y-93443666D01*
X132176000Y-93362077D01*
X132188493Y-93358730D01*
X132437437Y-93309212D01*
X132450261Y-93307523D01*
X132706765Y-93290711D01*
X132713240Y-93290500D01*
X132775892Y-93290500D01*
X177564108Y-93290500D01*
X177626760Y-93290500D01*
X177633234Y-93290711D01*
G37*
%TD.AperFunction*%
%TD*%
D14*
X145948499Y-123952001D03*
X145948500Y-124968001D03*
X145948500Y-124459998D03*
X176657000Y-112903000D03*
X176657001Y-113918999D03*
X176657000Y-113411000D03*
X175768000Y-110998000D03*
X175768000Y-111506000D03*
X175768001Y-112013999D03*
X153924000Y-106425999D03*
X153924001Y-107441999D03*
X153924000Y-106934000D03*
X160553400Y-95453201D03*
X137718800Y-122682000D03*
X154178000Y-116967000D03*
X165862000Y-110744001D03*
X154178000Y-117983000D03*
X154178000Y-117475000D03*
X138226800Y-122682000D03*
X137210801Y-122682001D03*
X165862001Y-111760000D03*
X165862000Y-111252001D03*
X161061399Y-95453200D03*
X161569399Y-95453200D03*
X139215500Y-100203001D03*
X159052999Y-106172000D03*
X159052999Y-106680000D03*
X145033999Y-103759001D03*
X159052998Y-105664000D03*
X145034000Y-104267000D03*
X141554199Y-107822998D03*
X145034000Y-104775000D03*
X132588000Y-127635000D03*
X132588000Y-127127000D03*
X141554199Y-108330999D03*
X141554200Y-108838998D03*
X139215501Y-100710998D03*
X132588000Y-126619000D03*
X139215500Y-99694998D03*
X141224000Y-127254000D03*
X151511000Y-114935000D03*
X151511000Y-114427000D03*
X141224000Y-127762000D03*
X141224000Y-128270000D03*
X151511000Y-115443000D03*
X167386000Y-99314000D03*
X167894000Y-99314000D03*
X168402000Y-99314000D03*
X167672582Y-129230870D03*
X168660411Y-129536199D03*
X173263271Y-126836632D03*
X170688000Y-124519986D03*
X168216436Y-124941614D03*
X167352836Y-120871572D03*
X170599625Y-120329957D03*
X168660411Y-128710015D03*
X165981604Y-126797168D03*
X170561000Y-128727200D03*
X173176832Y-123063000D03*
X164610004Y-125450968D03*
X165422804Y-125450968D03*
X170561000Y-129540000D03*
X168216436Y-124103414D03*
X173837232Y-123589004D03*
X164613805Y-123550379D03*
X164914804Y-126466968D03*
X173168239Y-125997718D03*
X174646231Y-125489593D03*
X168173032Y-120973172D03*
X171946664Y-120886733D03*
X174650032Y-123589004D03*
X166768636Y-120287372D03*
X171587454Y-119809102D03*
X171107750Y-120981765D03*
X165422028Y-121628604D03*
X165439989Y-123550379D03*
X171907200Y-128168400D03*
X166083204Y-125976972D03*
X167683036Y-119804772D03*
X170180000Y-124519986D03*
X173278432Y-122242804D03*
X173820047Y-125489593D03*
X172521400Y-120311996D03*
X171043600Y-124942600D03*
X168699036Y-120312772D03*
X171043600Y-124104400D03*
X174340902Y-126477422D03*
X166091797Y-123042254D03*
X164919134Y-122562550D03*
X173862632Y-121658604D03*
X174345232Y-122573004D03*
X166738636Y-128727976D03*
X167313372Y-128153239D03*
X165996765Y-122203340D03*
X172491400Y-128752600D03*
X169630018Y-124519986D03*
X165397404Y-127381368D03*
X173838008Y-127411368D03*
X171577000Y-129235200D03*
X170599625Y-119503773D03*
X168572036Y-124519000D03*
X169080036Y-124519000D03*
X171087004Y-128066800D03*
X168699036Y-119499972D03*
X168152286Y-128058207D03*
X141743750Y-104267000D03*
X138545250Y-103505000D03*
X143510000Y-100710999D03*
X141743751Y-104774999D03*
X143509999Y-99695000D03*
X138545250Y-102997000D03*
X138545249Y-102489001D03*
X143510000Y-100203001D03*
X141743750Y-103759000D03*
X163195000Y-111379000D03*
X164211000Y-111379000D03*
X172339000Y-100330000D03*
X171577000Y-101092000D03*
X163703000Y-111379000D03*
X171958000Y-100711000D03*
X170149185Y-100077900D03*
X171226815Y-100077900D03*
X156210000Y-113284000D03*
X155067000Y-113284000D03*
X155637000Y-113284000D03*
X170688000Y-100077900D03*
D15*
X171551600Y-109524800D03*
X167741600Y-109524800D03*
X134073840Y-96696051D03*
X138811000Y-109270800D03*
X135001000Y-109270800D03*
X171577000Y-106172000D03*
X167767000Y-106172000D03*
X135001000Y-116890800D03*
X138811000Y-116890800D03*
X172543018Y-124519986D03*
X171687770Y-122455234D03*
X169623018Y-121599986D03*
X167558266Y-122455234D03*
X166703018Y-124519986D03*
X167558266Y-126584738D03*
X169623018Y-127439986D03*
X171687770Y-126584738D03*
X148080000Y-125130000D03*
X153160000Y-125130000D03*
X155700000Y-125130000D03*
X158240000Y-125130000D03*
X148080000Y-128940000D03*
X150620000Y-128940000D03*
X153160000Y-128940000D03*
X155700000Y-128940000D03*
X158240000Y-128940000D03*
X174713949Y-131466051D03*
X164563949Y-117576051D03*
X143891000Y-131445000D03*
X174955200Y-100177600D03*
X143129000Y-115443000D03*
X143129000Y-117983000D03*
X171715000Y-95122000D03*
X173994999Y-95122000D03*
X176275000Y-95122000D03*
X177495200Y-100177600D03*
X143891000Y-128905000D03*
X158250000Y-103020000D03*
X155710000Y-103020000D03*
X153170000Y-103020000D03*
X150630000Y-103020000D03*
X148090000Y-103020000D03*
X148090000Y-99210000D03*
X150630000Y-99210000D03*
X153170000Y-99210000D03*
X155710000Y-99210000D03*
X158250000Y-99210000D03*
M02*
