%TF.GenerationSoftware,KiCad,Pcbnew,8.0.6*%
%TF.CreationDate,2024-11-21T00:19:27+01:00*%
%TF.ProjectId,3458A Ref A9 Clone,33343538-4120-4526-9566-20413920436c,rev?*%
%TF.SameCoordinates,Original*%
%TF.FileFunction,Legend,Bot*%
%TF.FilePolarity,Positive*%
%FSLAX46Y46*%
G04 Gerber Fmt 4.6, Leading zero omitted, Abs format (unit mm)*
G04 Created by KiCad (PCBNEW 8.0.6) date 2024-11-21 00:19:27*
%MOMM*%
%LPD*%
G01*
G04 APERTURE LIST*
%ADD10C,0.300000*%
%ADD11C,0.150000*%
%ADD12C,0.010000*%
%ADD13C,0.120000*%
%ADD14C,0.350000*%
G04 APERTURE END LIST*
D10*
X164807441Y-134105638D02*
X164807441Y-132105638D01*
X164807441Y-132105638D02*
X164140774Y-133534209D01*
X164140774Y-133534209D02*
X163474108Y-132105638D01*
X163474108Y-132105638D02*
X163474108Y-134105638D01*
X162521727Y-134105638D02*
X162521727Y-132772304D01*
X162521727Y-132105638D02*
X162616965Y-132200876D01*
X162616965Y-132200876D02*
X162521727Y-132296114D01*
X162521727Y-132296114D02*
X162426489Y-132200876D01*
X162426489Y-132200876D02*
X162521727Y-132105638D01*
X162521727Y-132105638D02*
X162521727Y-132296114D01*
X160712203Y-134010400D02*
X160902679Y-134105638D01*
X160902679Y-134105638D02*
X161283632Y-134105638D01*
X161283632Y-134105638D02*
X161474108Y-134010400D01*
X161474108Y-134010400D02*
X161569346Y-133915161D01*
X161569346Y-133915161D02*
X161664584Y-133724685D01*
X161664584Y-133724685D02*
X161664584Y-133153257D01*
X161664584Y-133153257D02*
X161569346Y-132962780D01*
X161569346Y-132962780D02*
X161474108Y-132867542D01*
X161474108Y-132867542D02*
X161283632Y-132772304D01*
X161283632Y-132772304D02*
X160902679Y-132772304D01*
X160902679Y-132772304D02*
X160712203Y-132867542D01*
X159855060Y-134105638D02*
X159855060Y-132105638D01*
X158997917Y-134105638D02*
X158997917Y-133058019D01*
X158997917Y-133058019D02*
X159093155Y-132867542D01*
X159093155Y-132867542D02*
X159283631Y-132772304D01*
X159283631Y-132772304D02*
X159569346Y-132772304D01*
X159569346Y-132772304D02*
X159759822Y-132867542D01*
X159759822Y-132867542D02*
X159855060Y-132962780D01*
X157188393Y-134105638D02*
X157188393Y-133058019D01*
X157188393Y-133058019D02*
X157283631Y-132867542D01*
X157283631Y-132867542D02*
X157474107Y-132772304D01*
X157474107Y-132772304D02*
X157855060Y-132772304D01*
X157855060Y-132772304D02*
X158045536Y-132867542D01*
X157188393Y-134010400D02*
X157378869Y-134105638D01*
X157378869Y-134105638D02*
X157855060Y-134105638D01*
X157855060Y-134105638D02*
X158045536Y-134010400D01*
X158045536Y-134010400D02*
X158140774Y-133819923D01*
X158140774Y-133819923D02*
X158140774Y-133629447D01*
X158140774Y-133629447D02*
X158045536Y-133438971D01*
X158045536Y-133438971D02*
X157855060Y-133343733D01*
X157855060Y-133343733D02*
X157378869Y-133343733D01*
X157378869Y-133343733D02*
X157188393Y-133248495D01*
X155474107Y-134010400D02*
X155664583Y-134105638D01*
X155664583Y-134105638D02*
X156045536Y-134105638D01*
X156045536Y-134105638D02*
X156236012Y-134010400D01*
X156236012Y-134010400D02*
X156331250Y-133819923D01*
X156331250Y-133819923D02*
X156331250Y-133058019D01*
X156331250Y-133058019D02*
X156236012Y-132867542D01*
X156236012Y-132867542D02*
X156045536Y-132772304D01*
X156045536Y-132772304D02*
X155664583Y-132772304D01*
X155664583Y-132772304D02*
X155474107Y-132867542D01*
X155474107Y-132867542D02*
X155378869Y-133058019D01*
X155378869Y-133058019D02*
X155378869Y-133248495D01*
X155378869Y-133248495D02*
X156331250Y-133438971D01*
X154236012Y-134105638D02*
X154426488Y-134010400D01*
X154426488Y-134010400D02*
X154521726Y-133819923D01*
X154521726Y-133819923D02*
X154521726Y-132105638D01*
X151950297Y-134105638D02*
X151950297Y-132105638D01*
X151950297Y-132105638D02*
X151474107Y-132105638D01*
X151474107Y-132105638D02*
X151188392Y-132200876D01*
X151188392Y-132200876D02*
X150997916Y-132391352D01*
X150997916Y-132391352D02*
X150902678Y-132581828D01*
X150902678Y-132581828D02*
X150807440Y-132962780D01*
X150807440Y-132962780D02*
X150807440Y-133248495D01*
X150807440Y-133248495D02*
X150902678Y-133629447D01*
X150902678Y-133629447D02*
X150997916Y-133819923D01*
X150997916Y-133819923D02*
X151188392Y-134010400D01*
X151188392Y-134010400D02*
X151474107Y-134105638D01*
X151474107Y-134105638D02*
X151950297Y-134105638D01*
X149950297Y-133915161D02*
X149855059Y-134010400D01*
X149855059Y-134010400D02*
X149950297Y-134105638D01*
X149950297Y-134105638D02*
X150045535Y-134010400D01*
X150045535Y-134010400D02*
X149950297Y-133915161D01*
X149950297Y-133915161D02*
X149950297Y-134105638D01*
X146426487Y-134105638D02*
X147569344Y-134105638D01*
X146997916Y-134105638D02*
X146997916Y-132105638D01*
X146997916Y-132105638D02*
X147188392Y-132391352D01*
X147188392Y-132391352D02*
X147378868Y-132581828D01*
X147378868Y-132581828D02*
X147569344Y-132677066D01*
X144521725Y-134105638D02*
X145664582Y-134105638D01*
X145093154Y-134105638D02*
X145093154Y-132105638D01*
X145093154Y-132105638D02*
X145283630Y-132391352D01*
X145283630Y-132391352D02*
X145474106Y-132581828D01*
X145474106Y-132581828D02*
X145664582Y-132677066D01*
X142236011Y-132010400D02*
X143950296Y-134581828D01*
X141664582Y-132296114D02*
X141569344Y-132200876D01*
X141569344Y-132200876D02*
X141378868Y-132105638D01*
X141378868Y-132105638D02*
X140902677Y-132105638D01*
X140902677Y-132105638D02*
X140712201Y-132200876D01*
X140712201Y-132200876D02*
X140616963Y-132296114D01*
X140616963Y-132296114D02*
X140521725Y-132486590D01*
X140521725Y-132486590D02*
X140521725Y-132677066D01*
X140521725Y-132677066D02*
X140616963Y-132962780D01*
X140616963Y-132962780D02*
X141759820Y-134105638D01*
X141759820Y-134105638D02*
X140521725Y-134105638D01*
X139283630Y-132105638D02*
X139093153Y-132105638D01*
X139093153Y-132105638D02*
X138902677Y-132200876D01*
X138902677Y-132200876D02*
X138807439Y-132296114D01*
X138807439Y-132296114D02*
X138712201Y-132486590D01*
X138712201Y-132486590D02*
X138616963Y-132867542D01*
X138616963Y-132867542D02*
X138616963Y-133343733D01*
X138616963Y-133343733D02*
X138712201Y-133724685D01*
X138712201Y-133724685D02*
X138807439Y-133915161D01*
X138807439Y-133915161D02*
X138902677Y-134010400D01*
X138902677Y-134010400D02*
X139093153Y-134105638D01*
X139093153Y-134105638D02*
X139283630Y-134105638D01*
X139283630Y-134105638D02*
X139474106Y-134010400D01*
X139474106Y-134010400D02*
X139569344Y-133915161D01*
X139569344Y-133915161D02*
X139664582Y-133724685D01*
X139664582Y-133724685D02*
X139759820Y-133343733D01*
X139759820Y-133343733D02*
X139759820Y-132867542D01*
X139759820Y-132867542D02*
X139664582Y-132486590D01*
X139664582Y-132486590D02*
X139569344Y-132296114D01*
X139569344Y-132296114D02*
X139474106Y-132200876D01*
X139474106Y-132200876D02*
X139283630Y-132105638D01*
X137855058Y-132296114D02*
X137759820Y-132200876D01*
X137759820Y-132200876D02*
X137569344Y-132105638D01*
X137569344Y-132105638D02*
X137093153Y-132105638D01*
X137093153Y-132105638D02*
X136902677Y-132200876D01*
X136902677Y-132200876D02*
X136807439Y-132296114D01*
X136807439Y-132296114D02*
X136712201Y-132486590D01*
X136712201Y-132486590D02*
X136712201Y-132677066D01*
X136712201Y-132677066D02*
X136807439Y-132962780D01*
X136807439Y-132962780D02*
X137950296Y-134105638D01*
X137950296Y-134105638D02*
X136712201Y-134105638D01*
X134997915Y-132772304D02*
X134997915Y-134105638D01*
X135474106Y-132010400D02*
X135950296Y-133438971D01*
X135950296Y-133438971D02*
X134712201Y-133438971D01*
D11*
X169838666Y-133709580D02*
X169886285Y-133757200D01*
X169886285Y-133757200D02*
X170029142Y-133804819D01*
X170029142Y-133804819D02*
X170124380Y-133804819D01*
X170124380Y-133804819D02*
X170267237Y-133757200D01*
X170267237Y-133757200D02*
X170362475Y-133661961D01*
X170362475Y-133661961D02*
X170410094Y-133566723D01*
X170410094Y-133566723D02*
X170457713Y-133376247D01*
X170457713Y-133376247D02*
X170457713Y-133233390D01*
X170457713Y-133233390D02*
X170410094Y-133042914D01*
X170410094Y-133042914D02*
X170362475Y-132947676D01*
X170362475Y-132947676D02*
X170267237Y-132852438D01*
X170267237Y-132852438D02*
X170124380Y-132804819D01*
X170124380Y-132804819D02*
X170029142Y-132804819D01*
X170029142Y-132804819D02*
X169886285Y-132852438D01*
X169886285Y-132852438D02*
X169838666Y-132900057D01*
X169457713Y-132900057D02*
X169410094Y-132852438D01*
X169410094Y-132852438D02*
X169314856Y-132804819D01*
X169314856Y-132804819D02*
X169076761Y-132804819D01*
X169076761Y-132804819D02*
X168981523Y-132852438D01*
X168981523Y-132852438D02*
X168933904Y-132900057D01*
X168933904Y-132900057D02*
X168886285Y-132995295D01*
X168886285Y-132995295D02*
X168886285Y-133090533D01*
X168886285Y-133090533D02*
X168933904Y-133233390D01*
X168933904Y-133233390D02*
X169505332Y-133804819D01*
X169505332Y-133804819D02*
X168886285Y-133804819D01*
D12*
%TO.C,REF\u002A\u002A*%
X155622260Y-93181788D02*
X155705011Y-93208991D01*
X155780104Y-93254422D01*
X155851996Y-93320240D01*
X155890544Y-93364505D01*
X155929954Y-93422899D01*
X155955144Y-93483524D01*
X155968559Y-93552803D01*
X155972646Y-93637160D01*
X155972367Y-93683245D01*
X155970158Y-93724388D01*
X155964592Y-93756520D01*
X155954284Y-93787060D01*
X155937846Y-93823427D01*
X155923898Y-93850666D01*
X155865363Y-93936367D01*
X155793317Y-94005555D01*
X155709645Y-94056679D01*
X155616229Y-94088188D01*
X155583132Y-94095163D01*
X155542658Y-94102032D01*
X155509697Y-94103857D01*
X155475396Y-94100885D01*
X155430898Y-94093364D01*
X155379632Y-94080940D01*
X155289132Y-94043050D01*
X155210043Y-93988774D01*
X155144226Y-93920708D01*
X155093538Y-93841449D01*
X155059838Y-93753592D01*
X155044984Y-93659733D01*
X155050834Y-93562468D01*
X155077097Y-93466158D01*
X155122116Y-93377432D01*
X155183071Y-93302357D01*
X155257882Y-93242579D01*
X155344466Y-93199747D01*
X155440741Y-93175509D01*
X155544626Y-93171514D01*
X155622260Y-93181788D01*
G36*
X155622260Y-93181788D02*
G01*
X155705011Y-93208991D01*
X155780104Y-93254422D01*
X155851996Y-93320240D01*
X155890544Y-93364505D01*
X155929954Y-93422899D01*
X155955144Y-93483524D01*
X155968559Y-93552803D01*
X155972646Y-93637160D01*
X155972367Y-93683245D01*
X155970158Y-93724388D01*
X155964592Y-93756520D01*
X155954284Y-93787060D01*
X155937846Y-93823427D01*
X155923898Y-93850666D01*
X155865363Y-93936367D01*
X155793317Y-94005555D01*
X155709645Y-94056679D01*
X155616229Y-94088188D01*
X155583132Y-94095163D01*
X155542658Y-94102032D01*
X155509697Y-94103857D01*
X155475396Y-94100885D01*
X155430898Y-94093364D01*
X155379632Y-94080940D01*
X155289132Y-94043050D01*
X155210043Y-93988774D01*
X155144226Y-93920708D01*
X155093538Y-93841449D01*
X155059838Y-93753592D01*
X155044984Y-93659733D01*
X155050834Y-93562468D01*
X155077097Y-93466158D01*
X155122116Y-93377432D01*
X155183071Y-93302357D01*
X155257882Y-93242579D01*
X155344466Y-93199747D01*
X155440741Y-93175509D01*
X155544626Y-93171514D01*
X155622260Y-93181788D01*
G37*
X153156409Y-94110971D02*
X153251966Y-94128461D01*
X153416256Y-94173502D01*
X153570287Y-94236594D01*
X153716207Y-94318853D01*
X153856164Y-94421395D01*
X153992306Y-94545337D01*
X154036171Y-94590599D01*
X154148456Y-94722803D01*
X154241670Y-94860770D01*
X154318417Y-95008688D01*
X154381301Y-95170741D01*
X154385118Y-95182329D01*
X154435205Y-95368330D01*
X154468597Y-95564459D01*
X154485282Y-95766506D01*
X154485249Y-95970263D01*
X154468489Y-96171519D01*
X154434990Y-96366066D01*
X154384742Y-96549694D01*
X154340888Y-96666991D01*
X154263046Y-96829889D01*
X154169526Y-96983804D01*
X154062520Y-97125609D01*
X153944217Y-97252177D01*
X153816809Y-97360379D01*
X153739304Y-97413058D01*
X153612423Y-97482688D01*
X153474941Y-97541406D01*
X153333414Y-97586525D01*
X153194400Y-97615360D01*
X153180295Y-97617044D01*
X153136851Y-97620372D01*
X153079421Y-97623213D01*
X153013820Y-97625311D01*
X152945865Y-97626406D01*
X152819076Y-97624078D01*
X152671371Y-97611074D01*
X152533477Y-97586071D01*
X152399712Y-97548256D01*
X152376260Y-97539827D01*
X152328310Y-97520346D01*
X152271838Y-97495411D01*
X152210077Y-97466660D01*
X152146261Y-97435728D01*
X152083624Y-97404253D01*
X152025401Y-97373872D01*
X151974825Y-97346221D01*
X151935131Y-97322937D01*
X151909552Y-97305656D01*
X151901323Y-97296017D01*
X151902774Y-97292922D01*
X151913948Y-97273017D01*
X151934832Y-97237358D01*
X151963963Y-97188397D01*
X151999879Y-97128584D01*
X152041118Y-97060371D01*
X152086215Y-96986209D01*
X152267483Y-96688946D01*
X152314013Y-96733477D01*
X152405421Y-96811803D01*
X152519032Y-96886377D01*
X152636820Y-96940412D01*
X152757257Y-96973228D01*
X152878815Y-96984149D01*
X152920283Y-96982806D01*
X153037778Y-96964550D01*
X153147787Y-96925555D01*
X153249128Y-96866608D01*
X153340619Y-96788495D01*
X153421078Y-96692002D01*
X153489325Y-96577916D01*
X153505606Y-96543662D01*
X153551680Y-96420178D01*
X153586804Y-96281856D01*
X153610895Y-96132499D01*
X153623871Y-95975911D01*
X153625647Y-95815894D01*
X153616141Y-95656252D01*
X153595270Y-95500788D01*
X153562950Y-95353304D01*
X153519097Y-95217605D01*
X153481680Y-95131014D01*
X153416883Y-95017626D01*
X153341470Y-94924008D01*
X153255116Y-94849897D01*
X153157493Y-94795032D01*
X153048275Y-94759150D01*
X152927137Y-94741989D01*
X152857736Y-94740818D01*
X152734866Y-94755079D01*
X152619362Y-94790179D01*
X152512651Y-94845620D01*
X152416162Y-94920902D01*
X152400418Y-94935378D01*
X152369848Y-94961900D01*
X152347507Y-94979076D01*
X152337389Y-94983725D01*
X152335404Y-94981535D01*
X152320939Y-94962659D01*
X152297098Y-94929335D01*
X152265727Y-94884318D01*
X152228672Y-94830363D01*
X152187781Y-94770223D01*
X152144900Y-94706656D01*
X152101876Y-94642414D01*
X152060555Y-94580253D01*
X152022784Y-94522929D01*
X151990410Y-94473195D01*
X151965280Y-94433806D01*
X151949240Y-94407518D01*
X151944137Y-94397085D01*
X151948748Y-94392879D01*
X151967965Y-94387871D01*
X151977536Y-94385324D01*
X152005507Y-94374187D01*
X152047146Y-94355740D01*
X152098693Y-94331663D01*
X152156388Y-94303637D01*
X152167655Y-94298092D01*
X152345385Y-94218827D01*
X152515188Y-94159323D01*
X152679128Y-94119183D01*
X152839269Y-94098009D01*
X152997675Y-94095404D01*
X153156409Y-94110971D01*
G36*
X153156409Y-94110971D02*
G01*
X153251966Y-94128461D01*
X153416256Y-94173502D01*
X153570287Y-94236594D01*
X153716207Y-94318853D01*
X153856164Y-94421395D01*
X153992306Y-94545337D01*
X154036171Y-94590599D01*
X154148456Y-94722803D01*
X154241670Y-94860770D01*
X154318417Y-95008688D01*
X154381301Y-95170741D01*
X154385118Y-95182329D01*
X154435205Y-95368330D01*
X154468597Y-95564459D01*
X154485282Y-95766506D01*
X154485249Y-95970263D01*
X154468489Y-96171519D01*
X154434990Y-96366066D01*
X154384742Y-96549694D01*
X154340888Y-96666991D01*
X154263046Y-96829889D01*
X154169526Y-96983804D01*
X154062520Y-97125609D01*
X153944217Y-97252177D01*
X153816809Y-97360379D01*
X153739304Y-97413058D01*
X153612423Y-97482688D01*
X153474941Y-97541406D01*
X153333414Y-97586525D01*
X153194400Y-97615360D01*
X153180295Y-97617044D01*
X153136851Y-97620372D01*
X153079421Y-97623213D01*
X153013820Y-97625311D01*
X152945865Y-97626406D01*
X152819076Y-97624078D01*
X152671371Y-97611074D01*
X152533477Y-97586071D01*
X152399712Y-97548256D01*
X152376260Y-97539827D01*
X152328310Y-97520346D01*
X152271838Y-97495411D01*
X152210077Y-97466660D01*
X152146261Y-97435728D01*
X152083624Y-97404253D01*
X152025401Y-97373872D01*
X151974825Y-97346221D01*
X151935131Y-97322937D01*
X151909552Y-97305656D01*
X151901323Y-97296017D01*
X151902774Y-97292922D01*
X151913948Y-97273017D01*
X151934832Y-97237358D01*
X151963963Y-97188397D01*
X151999879Y-97128584D01*
X152041118Y-97060371D01*
X152086215Y-96986209D01*
X152267483Y-96688946D01*
X152314013Y-96733477D01*
X152405421Y-96811803D01*
X152519032Y-96886377D01*
X152636820Y-96940412D01*
X152757257Y-96973228D01*
X152878815Y-96984149D01*
X152920283Y-96982806D01*
X153037778Y-96964550D01*
X153147787Y-96925555D01*
X153249128Y-96866608D01*
X153340619Y-96788495D01*
X153421078Y-96692002D01*
X153489325Y-96577916D01*
X153505606Y-96543662D01*
X153551680Y-96420178D01*
X153586804Y-96281856D01*
X153610895Y-96132499D01*
X153623871Y-95975911D01*
X153625647Y-95815894D01*
X153616141Y-95656252D01*
X153595270Y-95500788D01*
X153562950Y-95353304D01*
X153519097Y-95217605D01*
X153481680Y-95131014D01*
X153416883Y-95017626D01*
X153341470Y-94924008D01*
X153255116Y-94849897D01*
X153157493Y-94795032D01*
X153048275Y-94759150D01*
X152927137Y-94741989D01*
X152857736Y-94740818D01*
X152734866Y-94755079D01*
X152619362Y-94790179D01*
X152512651Y-94845620D01*
X152416162Y-94920902D01*
X152400418Y-94935378D01*
X152369848Y-94961900D01*
X152347507Y-94979076D01*
X152337389Y-94983725D01*
X152335404Y-94981535D01*
X152320939Y-94962659D01*
X152297098Y-94929335D01*
X152265727Y-94884318D01*
X152228672Y-94830363D01*
X152187781Y-94770223D01*
X152144900Y-94706656D01*
X152101876Y-94642414D01*
X152060555Y-94580253D01*
X152022784Y-94522929D01*
X151990410Y-94473195D01*
X151965280Y-94433806D01*
X151949240Y-94407518D01*
X151944137Y-94397085D01*
X151948748Y-94392879D01*
X151967965Y-94387871D01*
X151977536Y-94385324D01*
X152005507Y-94374187D01*
X152047146Y-94355740D01*
X152098693Y-94331663D01*
X152156388Y-94303637D01*
X152167655Y-94298092D01*
X152345385Y-94218827D01*
X152515188Y-94159323D01*
X152679128Y-94119183D01*
X152839269Y-94098009D01*
X152997675Y-94095404D01*
X153156409Y-94110971D01*
G37*
X149353692Y-96391649D02*
X149352966Y-96469096D01*
X149344387Y-96620532D01*
X149325531Y-96757221D01*
X149295535Y-96883214D01*
X149253534Y-97002563D01*
X149198667Y-97119319D01*
X149131865Y-97230117D01*
X149041061Y-97343677D01*
X148937406Y-97439149D01*
X148821585Y-97516011D01*
X148694284Y-97573735D01*
X148556187Y-97611796D01*
X148518491Y-97617604D01*
X148439450Y-97623334D01*
X148351327Y-97623521D01*
X148261934Y-97618477D01*
X148179082Y-97608516D01*
X148110585Y-97593950D01*
X148079733Y-97584302D01*
X148002428Y-97554061D01*
X147925377Y-97516555D01*
X147855898Y-97475552D01*
X147801313Y-97434817D01*
X147778614Y-97415443D01*
X147755899Y-97397600D01*
X147744477Y-97390716D01*
X147743235Y-97392362D01*
X147740426Y-97410143D01*
X147738474Y-97443308D01*
X147737743Y-97486671D01*
X147737743Y-97582627D01*
X146879594Y-97582627D01*
X146913859Y-97521912D01*
X146919053Y-97512806D01*
X146927413Y-97498187D01*
X146934986Y-97484111D01*
X146941810Y-97469478D01*
X146947925Y-97453187D01*
X146953371Y-97434136D01*
X146958185Y-97411224D01*
X146962406Y-97383351D01*
X146966075Y-97349416D01*
X146969229Y-97308317D01*
X146971909Y-97258953D01*
X146974152Y-97200224D01*
X146975997Y-97131028D01*
X146977485Y-97050264D01*
X146978653Y-96956832D01*
X146979542Y-96849630D01*
X146980189Y-96727558D01*
X146980634Y-96589514D01*
X146980916Y-96434397D01*
X146981073Y-96261106D01*
X146981146Y-96068541D01*
X146981172Y-95855600D01*
X146981183Y-95719468D01*
X147782898Y-95719468D01*
X147782898Y-96869659D01*
X147853454Y-96916027D01*
X147894115Y-96939729D01*
X147948244Y-96965577D01*
X147997387Y-96983767D01*
X148060863Y-96999489D01*
X148157029Y-97010479D01*
X148241598Y-97002303D01*
X148314917Y-96974743D01*
X148377335Y-96927580D01*
X148429200Y-96860596D01*
X148470858Y-96773571D01*
X148502660Y-96666288D01*
X148505243Y-96653947D01*
X148513698Y-96592710D01*
X148519361Y-96515630D01*
X148522274Y-96427940D01*
X148522481Y-96334872D01*
X148520028Y-96241658D01*
X148514959Y-96153532D01*
X148507317Y-96075726D01*
X148497146Y-96013471D01*
X148495865Y-96007604D01*
X148466824Y-95897059D01*
X148432308Y-95806513D01*
X148391154Y-95733891D01*
X148342197Y-95677119D01*
X148284272Y-95634122D01*
X148252318Y-95618553D01*
X148179482Y-95599660D01*
X148098141Y-95596403D01*
X148013017Y-95608327D01*
X147928831Y-95634978D01*
X147850306Y-95675900D01*
X147782898Y-95719468D01*
X146981183Y-95719468D01*
X146981191Y-95621183D01*
X146981387Y-93936316D01*
X147886715Y-93936316D01*
X147862283Y-93973005D01*
X147856016Y-93982585D01*
X147829906Y-94028919D01*
X147812167Y-94076040D01*
X147800606Y-94131189D01*
X147793029Y-94201605D01*
X147792537Y-94208588D01*
X147790760Y-94246579D01*
X147789142Y-94300514D01*
X147787697Y-94367641D01*
X147786438Y-94445209D01*
X147785378Y-94530466D01*
X147784527Y-94620662D01*
X147783901Y-94713045D01*
X147783510Y-94804863D01*
X147783368Y-94893365D01*
X147783488Y-94975800D01*
X147783881Y-95049417D01*
X147784560Y-95111464D01*
X147785539Y-95159189D01*
X147786830Y-95189842D01*
X147788445Y-95200671D01*
X147796655Y-95196271D01*
X147818345Y-95181300D01*
X147847712Y-95159386D01*
X147896577Y-95125174D01*
X147984823Y-95078652D01*
X148083614Y-95044984D01*
X148196208Y-95023169D01*
X148325862Y-95012203D01*
X148418368Y-95011157D01*
X148539709Y-95020952D01*
X148649797Y-95045112D01*
X148753087Y-95084723D01*
X148854036Y-95140870D01*
X148899201Y-95171821D01*
X149004609Y-95263053D01*
X149096236Y-95372044D01*
X149174030Y-95498664D01*
X149237939Y-95642783D01*
X149287912Y-95804270D01*
X149323896Y-95982997D01*
X149345841Y-96178833D01*
X149351598Y-96334872D01*
X149353692Y-96391649D01*
G36*
X149353692Y-96391649D02*
G01*
X149352966Y-96469096D01*
X149344387Y-96620532D01*
X149325531Y-96757221D01*
X149295535Y-96883214D01*
X149253534Y-97002563D01*
X149198667Y-97119319D01*
X149131865Y-97230117D01*
X149041061Y-97343677D01*
X148937406Y-97439149D01*
X148821585Y-97516011D01*
X148694284Y-97573735D01*
X148556187Y-97611796D01*
X148518491Y-97617604D01*
X148439450Y-97623334D01*
X148351327Y-97623521D01*
X148261934Y-97618477D01*
X148179082Y-97608516D01*
X148110585Y-97593950D01*
X148079733Y-97584302D01*
X148002428Y-97554061D01*
X147925377Y-97516555D01*
X147855898Y-97475552D01*
X147801313Y-97434817D01*
X147778614Y-97415443D01*
X147755899Y-97397600D01*
X147744477Y-97390716D01*
X147743235Y-97392362D01*
X147740426Y-97410143D01*
X147738474Y-97443308D01*
X147737743Y-97486671D01*
X147737743Y-97582627D01*
X146879594Y-97582627D01*
X146913859Y-97521912D01*
X146919053Y-97512806D01*
X146927413Y-97498187D01*
X146934986Y-97484111D01*
X146941810Y-97469478D01*
X146947925Y-97453187D01*
X146953371Y-97434136D01*
X146958185Y-97411224D01*
X146962406Y-97383351D01*
X146966075Y-97349416D01*
X146969229Y-97308317D01*
X146971909Y-97258953D01*
X146974152Y-97200224D01*
X146975997Y-97131028D01*
X146977485Y-97050264D01*
X146978653Y-96956832D01*
X146979542Y-96849630D01*
X146980189Y-96727558D01*
X146980634Y-96589514D01*
X146980916Y-96434397D01*
X146981073Y-96261106D01*
X146981146Y-96068541D01*
X146981172Y-95855600D01*
X146981183Y-95719468D01*
X147782898Y-95719468D01*
X147782898Y-96869659D01*
X147853454Y-96916027D01*
X147894115Y-96939729D01*
X147948244Y-96965577D01*
X147997387Y-96983767D01*
X148060863Y-96999489D01*
X148157029Y-97010479D01*
X148241598Y-97002303D01*
X148314917Y-96974743D01*
X148377335Y-96927580D01*
X148429200Y-96860596D01*
X148470858Y-96773571D01*
X148502660Y-96666288D01*
X148505243Y-96653947D01*
X148513698Y-96592710D01*
X148519361Y-96515630D01*
X148522274Y-96427940D01*
X148522481Y-96334872D01*
X148520028Y-96241658D01*
X148514959Y-96153532D01*
X148507317Y-96075726D01*
X148497146Y-96013471D01*
X148495865Y-96007604D01*
X148466824Y-95897059D01*
X148432308Y-95806513D01*
X148391154Y-95733891D01*
X148342197Y-95677119D01*
X148284272Y-95634122D01*
X148252318Y-95618553D01*
X148179482Y-95599660D01*
X148098141Y-95596403D01*
X148013017Y-95608327D01*
X147928831Y-95634978D01*
X147850306Y-95675900D01*
X147782898Y-95719468D01*
X146981183Y-95719468D01*
X146981191Y-95621183D01*
X146981387Y-93936316D01*
X147886715Y-93936316D01*
X147862283Y-93973005D01*
X147856016Y-93982585D01*
X147829906Y-94028919D01*
X147812167Y-94076040D01*
X147800606Y-94131189D01*
X147793029Y-94201605D01*
X147792537Y-94208588D01*
X147790760Y-94246579D01*
X147789142Y-94300514D01*
X147787697Y-94367641D01*
X147786438Y-94445209D01*
X147785378Y-94530466D01*
X147784527Y-94620662D01*
X147783901Y-94713045D01*
X147783510Y-94804863D01*
X147783368Y-94893365D01*
X147783488Y-94975800D01*
X147783881Y-95049417D01*
X147784560Y-95111464D01*
X147785539Y-95159189D01*
X147786830Y-95189842D01*
X147788445Y-95200671D01*
X147796655Y-95196271D01*
X147818345Y-95181300D01*
X147847712Y-95159386D01*
X147896577Y-95125174D01*
X147984823Y-95078652D01*
X148083614Y-95044984D01*
X148196208Y-95023169D01*
X148325862Y-95012203D01*
X148418368Y-95011157D01*
X148539709Y-95020952D01*
X148649797Y-95045112D01*
X148753087Y-95084723D01*
X148854036Y-95140870D01*
X148899201Y-95171821D01*
X149004609Y-95263053D01*
X149096236Y-95372044D01*
X149174030Y-95498664D01*
X149237939Y-95642783D01*
X149287912Y-95804270D01*
X149323896Y-95982997D01*
X149345841Y-96178833D01*
X149351598Y-96334872D01*
X149353692Y-96391649D01*
G37*
X151895453Y-96792405D02*
X151894959Y-96826301D01*
X151891330Y-96901140D01*
X151883720Y-96963339D01*
X151871386Y-97019922D01*
X151827011Y-97146014D01*
X151764098Y-97260617D01*
X151683936Y-97361506D01*
X151587438Y-97447862D01*
X151475520Y-97518870D01*
X151349095Y-97573714D01*
X151209076Y-97611576D01*
X151172847Y-97617289D01*
X151093853Y-97623251D01*
X151005539Y-97623584D01*
X150915773Y-97618597D01*
X150832420Y-97608604D01*
X150763349Y-97593916D01*
X150676885Y-97563687D01*
X150566984Y-97508995D01*
X150469654Y-97441481D01*
X150407565Y-97390494D01*
X150404303Y-97486560D01*
X150401041Y-97582627D01*
X149978148Y-97582627D01*
X149967241Y-97582624D01*
X149872754Y-97582318D01*
X149786029Y-97581554D01*
X149709535Y-97580389D01*
X149645741Y-97578880D01*
X149597116Y-97577085D01*
X149566131Y-97575059D01*
X149555254Y-97572860D01*
X149555276Y-97572401D01*
X149562312Y-97556848D01*
X149578132Y-97534009D01*
X149582432Y-97528576D01*
X149593475Y-97514544D01*
X149603009Y-97501124D01*
X149611159Y-97486660D01*
X149618050Y-97469494D01*
X149623809Y-97447972D01*
X149628560Y-97420436D01*
X149632429Y-97385230D01*
X149635542Y-97340698D01*
X149638023Y-97285184D01*
X149639998Y-97217031D01*
X149641592Y-97134583D01*
X149642932Y-97036184D01*
X149644142Y-96920177D01*
X149645347Y-96784906D01*
X149646293Y-96673524D01*
X150447076Y-96673524D01*
X150447076Y-96869400D01*
X150491746Y-96925911D01*
X150504483Y-96941150D01*
X150551302Y-96983782D01*
X150611953Y-97019610D01*
X150622595Y-97024788D01*
X150661374Y-97041683D01*
X150696390Y-97051847D01*
X150736420Y-97057263D01*
X150790239Y-97059916D01*
X150808346Y-97060321D01*
X150883709Y-97057478D01*
X150944441Y-97045558D01*
X150996150Y-97022975D01*
X151044444Y-96988149D01*
X151049501Y-96983736D01*
X151097970Y-96928098D01*
X151126157Y-96864271D01*
X151135450Y-96789220D01*
X151128218Y-96717631D01*
X151103494Y-96654583D01*
X151058947Y-96596696D01*
X151004017Y-96549746D01*
X150931592Y-96509899D01*
X150845038Y-96482201D01*
X150742368Y-96466034D01*
X150621592Y-96460780D01*
X150612705Y-96460795D01*
X150557358Y-96461593D01*
X150510434Y-96463426D01*
X150476651Y-96466049D01*
X150460726Y-96469212D01*
X150456641Y-96475679D01*
X150452270Y-96497813D01*
X150449302Y-96536926D01*
X150447612Y-96594877D01*
X150447076Y-96673524D01*
X149646293Y-96673524D01*
X149646673Y-96628716D01*
X149647926Y-96485950D01*
X149649349Y-96340880D01*
X149650874Y-96214965D01*
X149652631Y-96106374D01*
X149654749Y-96013272D01*
X149657358Y-95933829D01*
X149660588Y-95866211D01*
X149664567Y-95808587D01*
X149669426Y-95759123D01*
X149675295Y-95715988D01*
X149682302Y-95677348D01*
X149690578Y-95641372D01*
X149700252Y-95606227D01*
X149711454Y-95570080D01*
X149724314Y-95531099D01*
X149739788Y-95488029D01*
X149782692Y-95395809D01*
X149836433Y-95316037D01*
X149905274Y-95241903D01*
X149982883Y-95178343D01*
X150087459Y-95116663D01*
X150206942Y-95069140D01*
X150342206Y-95035505D01*
X150494124Y-95015490D01*
X150663570Y-95008827D01*
X150721588Y-95009225D01*
X150787096Y-95011273D01*
X150848391Y-95015642D01*
X150909795Y-95022973D01*
X150975630Y-95033907D01*
X151050218Y-95049085D01*
X151137882Y-95069147D01*
X151242943Y-95094735D01*
X151271504Y-95101758D01*
X151346752Y-95119714D01*
X151417086Y-95135758D01*
X151478265Y-95148966D01*
X151526052Y-95158412D01*
X151556209Y-95163169D01*
X151584481Y-95166848D01*
X151610758Y-95172125D01*
X151620757Y-95176880D01*
X151617650Y-95185719D01*
X151606892Y-95213010D01*
X151589562Y-95255844D01*
X151566824Y-95311363D01*
X151539845Y-95376710D01*
X151509788Y-95449027D01*
X151503191Y-95464817D01*
X151464605Y-95555422D01*
X151433466Y-95625155D01*
X151409615Y-95674343D01*
X151392896Y-95703312D01*
X151383152Y-95712390D01*
X151375464Y-95710343D01*
X151349113Y-95700698D01*
X151310680Y-95685128D01*
X151265520Y-95665753D01*
X151170991Y-95627752D01*
X151034178Y-95586718D01*
X150892987Y-95561550D01*
X150855012Y-95557549D01*
X150751757Y-95555385D01*
X150664650Y-95568560D01*
X150592827Y-95597694D01*
X150535429Y-95643404D01*
X150491594Y-95706310D01*
X150460460Y-95787030D01*
X150441168Y-95886183D01*
X150433748Y-95945162D01*
X150595634Y-95938383D01*
X150722193Y-95936751D01*
X150873649Y-95943132D01*
X151022094Y-95957715D01*
X151158276Y-95979820D01*
X151222943Y-95994759D01*
X151355188Y-96037679D01*
X151477460Y-96094278D01*
X151587383Y-96162955D01*
X151682581Y-96242108D01*
X151760678Y-96330134D01*
X151819297Y-96425431D01*
X151843293Y-96477802D01*
X151868930Y-96548528D01*
X151885176Y-96619750D01*
X151893520Y-96698650D01*
X151895388Y-96789220D01*
X151895453Y-96792405D01*
G36*
X151895453Y-96792405D02*
G01*
X151894959Y-96826301D01*
X151891330Y-96901140D01*
X151883720Y-96963339D01*
X151871386Y-97019922D01*
X151827011Y-97146014D01*
X151764098Y-97260617D01*
X151683936Y-97361506D01*
X151587438Y-97447862D01*
X151475520Y-97518870D01*
X151349095Y-97573714D01*
X151209076Y-97611576D01*
X151172847Y-97617289D01*
X151093853Y-97623251D01*
X151005539Y-97623584D01*
X150915773Y-97618597D01*
X150832420Y-97608604D01*
X150763349Y-97593916D01*
X150676885Y-97563687D01*
X150566984Y-97508995D01*
X150469654Y-97441481D01*
X150407565Y-97390494D01*
X150404303Y-97486560D01*
X150401041Y-97582627D01*
X149978148Y-97582627D01*
X149967241Y-97582624D01*
X149872754Y-97582318D01*
X149786029Y-97581554D01*
X149709535Y-97580389D01*
X149645741Y-97578880D01*
X149597116Y-97577085D01*
X149566131Y-97575059D01*
X149555254Y-97572860D01*
X149555276Y-97572401D01*
X149562312Y-97556848D01*
X149578132Y-97534009D01*
X149582432Y-97528576D01*
X149593475Y-97514544D01*
X149603009Y-97501124D01*
X149611159Y-97486660D01*
X149618050Y-97469494D01*
X149623809Y-97447972D01*
X149628560Y-97420436D01*
X149632429Y-97385230D01*
X149635542Y-97340698D01*
X149638023Y-97285184D01*
X149639998Y-97217031D01*
X149641592Y-97134583D01*
X149642932Y-97036184D01*
X149644142Y-96920177D01*
X149645347Y-96784906D01*
X149646293Y-96673524D01*
X150447076Y-96673524D01*
X150447076Y-96869400D01*
X150491746Y-96925911D01*
X150504483Y-96941150D01*
X150551302Y-96983782D01*
X150611953Y-97019610D01*
X150622595Y-97024788D01*
X150661374Y-97041683D01*
X150696390Y-97051847D01*
X150736420Y-97057263D01*
X150790239Y-97059916D01*
X150808346Y-97060321D01*
X150883709Y-97057478D01*
X150944441Y-97045558D01*
X150996150Y-97022975D01*
X151044444Y-96988149D01*
X151049501Y-96983736D01*
X151097970Y-96928098D01*
X151126157Y-96864271D01*
X151135450Y-96789220D01*
X151128218Y-96717631D01*
X151103494Y-96654583D01*
X151058947Y-96596696D01*
X151004017Y-96549746D01*
X150931592Y-96509899D01*
X150845038Y-96482201D01*
X150742368Y-96466034D01*
X150621592Y-96460780D01*
X150612705Y-96460795D01*
X150557358Y-96461593D01*
X150510434Y-96463426D01*
X150476651Y-96466049D01*
X150460726Y-96469212D01*
X150456641Y-96475679D01*
X150452270Y-96497813D01*
X150449302Y-96536926D01*
X150447612Y-96594877D01*
X150447076Y-96673524D01*
X149646293Y-96673524D01*
X149646673Y-96628716D01*
X149647926Y-96485950D01*
X149649349Y-96340880D01*
X149650874Y-96214965D01*
X149652631Y-96106374D01*
X149654749Y-96013272D01*
X149657358Y-95933829D01*
X149660588Y-95866211D01*
X149664567Y-95808587D01*
X149669426Y-95759123D01*
X149675295Y-95715988D01*
X149682302Y-95677348D01*
X149690578Y-95641372D01*
X149700252Y-95606227D01*
X149711454Y-95570080D01*
X149724314Y-95531099D01*
X149739788Y-95488029D01*
X149782692Y-95395809D01*
X149836433Y-95316037D01*
X149905274Y-95241903D01*
X149982883Y-95178343D01*
X150087459Y-95116663D01*
X150206942Y-95069140D01*
X150342206Y-95035505D01*
X150494124Y-95015490D01*
X150663570Y-95008827D01*
X150721588Y-95009225D01*
X150787096Y-95011273D01*
X150848391Y-95015642D01*
X150909795Y-95022973D01*
X150975630Y-95033907D01*
X151050218Y-95049085D01*
X151137882Y-95069147D01*
X151242943Y-95094735D01*
X151271504Y-95101758D01*
X151346752Y-95119714D01*
X151417086Y-95135758D01*
X151478265Y-95148966D01*
X151526052Y-95158412D01*
X151556209Y-95163169D01*
X151584481Y-95166848D01*
X151610758Y-95172125D01*
X151620757Y-95176880D01*
X151617650Y-95185719D01*
X151606892Y-95213010D01*
X151589562Y-95255844D01*
X151566824Y-95311363D01*
X151539845Y-95376710D01*
X151509788Y-95449027D01*
X151503191Y-95464817D01*
X151464605Y-95555422D01*
X151433466Y-95625155D01*
X151409615Y-95674343D01*
X151392896Y-95703312D01*
X151383152Y-95712390D01*
X151375464Y-95710343D01*
X151349113Y-95700698D01*
X151310680Y-95685128D01*
X151265520Y-95665753D01*
X151170991Y-95627752D01*
X151034178Y-95586718D01*
X150892987Y-95561550D01*
X150855012Y-95557549D01*
X150751757Y-95555385D01*
X150664650Y-95568560D01*
X150592827Y-95597694D01*
X150535429Y-95643404D01*
X150491594Y-95706310D01*
X150460460Y-95787030D01*
X150441168Y-95886183D01*
X150433748Y-95945162D01*
X150595634Y-95938383D01*
X150722193Y-95936751D01*
X150873649Y-95943132D01*
X151022094Y-95957715D01*
X151158276Y-95979820D01*
X151222943Y-95994759D01*
X151355188Y-96037679D01*
X151477460Y-96094278D01*
X151587383Y-96162955D01*
X151682581Y-96242108D01*
X151760678Y-96330134D01*
X151819297Y-96425431D01*
X151843293Y-96477802D01*
X151868930Y-96548528D01*
X151885176Y-96619750D01*
X151893520Y-96698650D01*
X151895388Y-96789220D01*
X151895453Y-96792405D01*
G37*
X159443312Y-94260730D02*
X159443757Y-94391949D01*
X159444060Y-94539154D01*
X159444246Y-94703287D01*
X159444340Y-94885290D01*
X159444369Y-95086103D01*
X159444359Y-95306670D01*
X159444334Y-95547930D01*
X159444320Y-95810827D01*
X159444320Y-95852978D01*
X159444344Y-96113606D01*
X159444383Y-96352734D01*
X159444406Y-96571298D01*
X159444385Y-96770233D01*
X159444291Y-96950473D01*
X159444093Y-97112953D01*
X159443761Y-97258608D01*
X159443267Y-97388372D01*
X159442581Y-97503181D01*
X159441674Y-97603968D01*
X159440515Y-97691668D01*
X159439076Y-97767217D01*
X159437327Y-97831549D01*
X159435238Y-97885599D01*
X159432781Y-97930301D01*
X159429925Y-97966590D01*
X159426641Y-97995401D01*
X159422900Y-98017669D01*
X159418672Y-98034328D01*
X159413927Y-98046313D01*
X159408637Y-98054559D01*
X159402771Y-98060000D01*
X159396300Y-98063572D01*
X159389195Y-98066208D01*
X159381426Y-98068844D01*
X159372964Y-98072415D01*
X159368606Y-98074083D01*
X159360093Y-98076049D01*
X159347392Y-98077849D01*
X159329583Y-98079493D01*
X159305747Y-98080985D01*
X159274964Y-98082335D01*
X159236315Y-98083549D01*
X159188880Y-98084635D01*
X159131741Y-98085599D01*
X159063977Y-98086449D01*
X158984669Y-98087191D01*
X158892897Y-98087835D01*
X158787742Y-98088385D01*
X158668285Y-98088851D01*
X158533606Y-98089238D01*
X158382786Y-98089554D01*
X158214904Y-98089807D01*
X158029043Y-98090004D01*
X157824281Y-98090151D01*
X157599700Y-98090256D01*
X157354380Y-98090327D01*
X157087402Y-98090370D01*
X157049019Y-98090375D01*
X156783620Y-98090418D01*
X156539748Y-98090463D01*
X156316481Y-98090486D01*
X156112894Y-98090462D01*
X155928065Y-98090368D01*
X155761071Y-98090181D01*
X155610988Y-98089877D01*
X155476894Y-98089432D01*
X155357864Y-98088823D01*
X155252977Y-98088027D01*
X155161308Y-98087018D01*
X155081935Y-98085775D01*
X155013935Y-98084273D01*
X154956384Y-98082489D01*
X154908360Y-98080399D01*
X154868938Y-98077980D01*
X154837197Y-98075208D01*
X154812212Y-98072059D01*
X154793062Y-98068510D01*
X154778821Y-98064536D01*
X154768569Y-98060116D01*
X154761380Y-98055224D01*
X154756333Y-98049838D01*
X154752503Y-98043934D01*
X154748969Y-98037487D01*
X154744806Y-98030475D01*
X154743723Y-98028625D01*
X154741511Y-98023118D01*
X154739484Y-98014806D01*
X154737636Y-98002747D01*
X154735959Y-97986001D01*
X154734443Y-97963625D01*
X154733081Y-97934678D01*
X154731865Y-97898218D01*
X154730787Y-97853305D01*
X154729838Y-97798995D01*
X154729010Y-97734348D01*
X154728295Y-97658422D01*
X154727685Y-97570276D01*
X154727640Y-97561431D01*
X155019076Y-97561431D01*
X155022958Y-97562703D01*
X155046218Y-97564729D01*
X155088572Y-97566564D01*
X155147830Y-97568165D01*
X155221805Y-97569487D01*
X155308308Y-97570486D01*
X155405150Y-97571118D01*
X155510143Y-97571338D01*
X156208349Y-97571338D01*
X157362788Y-97571338D01*
X157362154Y-97495138D01*
X157363272Y-97453098D01*
X157369002Y-97417272D01*
X157381588Y-97379710D01*
X157403266Y-97331515D01*
X157406487Y-97324835D01*
X157431886Y-97275297D01*
X157458694Y-97227307D01*
X157481615Y-97190404D01*
X157486183Y-97183772D01*
X157508214Y-97152531D01*
X157540391Y-97107592D01*
X157581155Y-97051085D01*
X157628943Y-96985142D01*
X157682196Y-96911895D01*
X157739353Y-96833474D01*
X157798853Y-96752010D01*
X157859135Y-96669636D01*
X157918638Y-96588482D01*
X157975803Y-96510680D01*
X158029068Y-96438361D01*
X158076872Y-96373656D01*
X158117655Y-96318697D01*
X158149856Y-96275614D01*
X158171914Y-96246540D01*
X158182269Y-96233605D01*
X158186742Y-96229289D01*
X158190934Y-96227250D01*
X158194341Y-96229864D01*
X158197023Y-96238924D01*
X158199039Y-96256223D01*
X158200446Y-96283552D01*
X158201303Y-96322703D01*
X158201668Y-96375471D01*
X158201601Y-96443645D01*
X158201158Y-96529020D01*
X158200400Y-96633387D01*
X158199383Y-96758538D01*
X158199006Y-96803238D01*
X158197867Y-96924333D01*
X158196670Y-97025626D01*
X158195334Y-97109200D01*
X158193775Y-97177142D01*
X158191913Y-97231537D01*
X158189664Y-97274470D01*
X158186946Y-97308027D01*
X158183677Y-97334293D01*
X158179776Y-97355354D01*
X158175159Y-97373295D01*
X158166890Y-97399708D01*
X158143281Y-97461710D01*
X158117383Y-97514511D01*
X158092233Y-97551583D01*
X158091037Y-97553013D01*
X158088866Y-97557362D01*
X158091026Y-97560964D01*
X158099342Y-97563889D01*
X158115638Y-97566207D01*
X158141739Y-97567989D01*
X158179469Y-97569305D01*
X158230654Y-97570224D01*
X158297118Y-97570816D01*
X158380685Y-97571153D01*
X158483181Y-97571303D01*
X158606430Y-97571338D01*
X159137994Y-97571338D01*
X159099221Y-97513721D01*
X159093130Y-97504831D01*
X159082674Y-97490007D01*
X159073277Y-97476360D01*
X159064881Y-97462703D01*
X159057431Y-97447849D01*
X159050871Y-97430608D01*
X159045144Y-97409793D01*
X159040193Y-97384218D01*
X159035964Y-97352693D01*
X159032399Y-97314031D01*
X159029442Y-97267045D01*
X159027038Y-97210546D01*
X159025129Y-97143347D01*
X159023660Y-97064260D01*
X159022574Y-96972098D01*
X159021816Y-96865672D01*
X159021328Y-96743795D01*
X159021056Y-96605279D01*
X159020941Y-96448937D01*
X159020929Y-96273580D01*
X159020963Y-96078020D01*
X159020987Y-95861071D01*
X159020978Y-95738451D01*
X159020941Y-95533385D01*
X159020925Y-95349054D01*
X159020986Y-95184272D01*
X159021182Y-95037854D01*
X159021568Y-94908612D01*
X159022203Y-94795360D01*
X159023142Y-94696913D01*
X159024443Y-94612082D01*
X159026162Y-94539682D01*
X159028357Y-94478527D01*
X159031083Y-94427430D01*
X159034399Y-94385205D01*
X159038360Y-94350665D01*
X159043023Y-94322624D01*
X159048445Y-94299896D01*
X159054684Y-94281294D01*
X159061795Y-94265631D01*
X159069836Y-94251722D01*
X159078864Y-94238379D01*
X159088934Y-94224417D01*
X159100105Y-94208649D01*
X159139895Y-94150805D01*
X158080012Y-94150805D01*
X158118009Y-94213904D01*
X158132691Y-94238943D01*
X158147229Y-94266524D01*
X158159325Y-94294638D01*
X158169230Y-94325489D01*
X158177192Y-94361282D01*
X158183459Y-94404221D01*
X158188280Y-94456512D01*
X158191904Y-94520357D01*
X158194579Y-94597963D01*
X158196555Y-94691532D01*
X158198080Y-94803271D01*
X158199402Y-94935383D01*
X158200311Y-95055372D01*
X158200718Y-95172001D01*
X158200465Y-95267469D01*
X158199555Y-95341494D01*
X158197991Y-95393793D01*
X158195777Y-95424087D01*
X158192918Y-95432094D01*
X158189859Y-95428796D01*
X158171704Y-95407346D01*
X158141973Y-95370827D01*
X158102337Y-95321380D01*
X158054469Y-95261145D01*
X158000041Y-95192265D01*
X157940725Y-95116881D01*
X157878193Y-95037134D01*
X157814119Y-94955166D01*
X157750173Y-94873118D01*
X157688029Y-94793132D01*
X157629359Y-94717349D01*
X157575835Y-94647911D01*
X157529128Y-94586959D01*
X157490912Y-94536634D01*
X157462859Y-94499078D01*
X157446641Y-94476433D01*
X157401333Y-94404150D01*
X157361359Y-94324401D01*
X157339828Y-94256126D01*
X157336525Y-94198782D01*
X157341814Y-94150805D01*
X156210054Y-94151055D01*
X156249565Y-94181660D01*
X156258946Y-94189027D01*
X156321881Y-94243376D01*
X156390695Y-94311197D01*
X156467294Y-94394454D01*
X156553586Y-94495116D01*
X156570750Y-94515785D01*
X156611531Y-94565347D01*
X156661286Y-94626264D01*
X156718653Y-94696836D01*
X156782267Y-94775362D01*
X156850767Y-94860142D01*
X156922788Y-94949475D01*
X156996968Y-95041660D01*
X157012215Y-95060640D01*
X157071944Y-95134998D01*
X157146351Y-95227786D01*
X157218829Y-95318326D01*
X157288012Y-95404916D01*
X157352539Y-95485856D01*
X157411045Y-95559444D01*
X157462168Y-95623982D01*
X157504545Y-95677767D01*
X157536813Y-95719100D01*
X157557608Y-95746280D01*
X157565567Y-95757606D01*
X157563809Y-95761709D01*
X157550928Y-95782272D01*
X157526583Y-95818499D01*
X157491945Y-95868762D01*
X157448184Y-95931430D01*
X157396473Y-96004874D01*
X157337982Y-96087465D01*
X157273882Y-96177574D01*
X157205344Y-96273569D01*
X157133541Y-96373823D01*
X157059642Y-96476706D01*
X156984819Y-96580588D01*
X156910243Y-96683839D01*
X156837085Y-96784830D01*
X156766517Y-96881932D01*
X156699709Y-96973515D01*
X156637833Y-97057949D01*
X156582059Y-97133605D01*
X156533560Y-97198854D01*
X156493505Y-97252066D01*
X156463067Y-97291611D01*
X156442642Y-97316964D01*
X156396597Y-97371233D01*
X156346310Y-97427713D01*
X156299513Y-97477607D01*
X156208349Y-97571338D01*
X155510143Y-97571338D01*
X155579054Y-97571287D01*
X155677305Y-97571029D01*
X155766728Y-97570575D01*
X155845031Y-97569948D01*
X155909921Y-97569173D01*
X155959109Y-97568273D01*
X155990302Y-97567272D01*
X156001209Y-97566195D01*
X156000020Y-97562975D01*
X155989874Y-97545390D01*
X155972738Y-97519096D01*
X155964238Y-97506629D01*
X155955027Y-97492560D01*
X155946931Y-97478289D01*
X155939883Y-97462417D01*
X155933815Y-97443547D01*
X155928659Y-97420279D01*
X155924349Y-97391216D01*
X155920817Y-97354959D01*
X155917995Y-97310108D01*
X155915816Y-97255266D01*
X155914212Y-97189035D01*
X155913117Y-97110015D01*
X155912463Y-97016809D01*
X155912182Y-96908017D01*
X155912207Y-96782241D01*
X155912470Y-96638083D01*
X155912904Y-96474145D01*
X155913443Y-96289027D01*
X155913977Y-96110170D01*
X155914503Y-95951312D01*
X155915048Y-95812254D01*
X155915643Y-95691603D01*
X155916317Y-95587966D01*
X155917101Y-95499949D01*
X155918024Y-95426161D01*
X155919117Y-95365207D01*
X155920410Y-95315695D01*
X155921933Y-95276231D01*
X155923717Y-95245422D01*
X155925790Y-95221876D01*
X155928184Y-95204198D01*
X155930928Y-95190997D01*
X155934054Y-95180878D01*
X155937590Y-95172449D01*
X155941489Y-95164313D01*
X155961136Y-95127482D01*
X155979923Y-95097329D01*
X155980970Y-95095846D01*
X155995300Y-95073597D01*
X156001209Y-95060640D01*
X156000202Y-95060187D01*
X155983003Y-95058741D01*
X155946354Y-95057418D01*
X155892660Y-95056254D01*
X155824328Y-95055285D01*
X155743762Y-95054549D01*
X155653368Y-95054080D01*
X155555551Y-95053916D01*
X155109893Y-95053916D01*
X155106818Y-96230783D01*
X155103743Y-97407649D01*
X155077105Y-97466560D01*
X155065183Y-97491121D01*
X155047944Y-97521372D01*
X155034772Y-97538498D01*
X155026774Y-97546529D01*
X155019076Y-97561431D01*
X154727640Y-97561431D01*
X154727172Y-97468967D01*
X154726748Y-97353555D01*
X154726404Y-97223098D01*
X154726132Y-97076654D01*
X154725925Y-96913282D01*
X154725774Y-96732039D01*
X154725670Y-96531986D01*
X154725606Y-96312179D01*
X154725574Y-96071677D01*
X154725565Y-95809540D01*
X154725565Y-93617969D01*
X154763947Y-93579587D01*
X154791053Y-93555849D01*
X154817951Y-93544049D01*
X154854258Y-93541205D01*
X154906187Y-93541205D01*
X154906187Y-93629144D01*
X154908125Y-93679040D01*
X154926897Y-93789461D01*
X154963915Y-93890925D01*
X155017067Y-93982090D01*
X155084244Y-94061611D01*
X155163336Y-94128143D01*
X155252232Y-94180344D01*
X155348823Y-94216868D01*
X155450998Y-94236372D01*
X155556648Y-94237511D01*
X155663662Y-94218943D01*
X155769930Y-94179322D01*
X155866917Y-94121454D01*
X155951991Y-94046622D01*
X156020713Y-93958553D01*
X156071616Y-93859554D01*
X156103233Y-93751931D01*
X156114098Y-93637992D01*
X156114098Y-93541205D01*
X157734451Y-93541205D01*
X157945595Y-93541218D01*
X158149718Y-93541268D01*
X158333384Y-93541368D01*
X158497689Y-93541530D01*
X158643727Y-93541767D01*
X158772592Y-93542091D01*
X158885381Y-93542513D01*
X158983186Y-93543047D01*
X159067102Y-93543705D01*
X159138225Y-93544499D01*
X159197648Y-93545442D01*
X159246466Y-93546546D01*
X159285775Y-93547822D01*
X159316667Y-93549285D01*
X159340239Y-93550945D01*
X159357584Y-93552816D01*
X159369797Y-93554910D01*
X159377973Y-93557238D01*
X159383206Y-93559814D01*
X159389202Y-93563383D01*
X159395977Y-93566916D01*
X159402176Y-93570426D01*
X159407824Y-93574856D01*
X159412945Y-93581146D01*
X159417567Y-93590239D01*
X159421713Y-93603077D01*
X159425411Y-93620600D01*
X159428685Y-93643751D01*
X159431561Y-93673472D01*
X159434065Y-93710703D01*
X159436222Y-93756387D01*
X159438058Y-93811465D01*
X159439598Y-93876879D01*
X159440868Y-93953571D01*
X159441893Y-94042482D01*
X159442699Y-94144555D01*
X159442732Y-94150805D01*
X159443312Y-94260730D01*
G36*
X159443312Y-94260730D02*
G01*
X159443757Y-94391949D01*
X159444060Y-94539154D01*
X159444246Y-94703287D01*
X159444340Y-94885290D01*
X159444369Y-95086103D01*
X159444359Y-95306670D01*
X159444334Y-95547930D01*
X159444320Y-95810827D01*
X159444320Y-95852978D01*
X159444344Y-96113606D01*
X159444383Y-96352734D01*
X159444406Y-96571298D01*
X159444385Y-96770233D01*
X159444291Y-96950473D01*
X159444093Y-97112953D01*
X159443761Y-97258608D01*
X159443267Y-97388372D01*
X159442581Y-97503181D01*
X159441674Y-97603968D01*
X159440515Y-97691668D01*
X159439076Y-97767217D01*
X159437327Y-97831549D01*
X159435238Y-97885599D01*
X159432781Y-97930301D01*
X159429925Y-97966590D01*
X159426641Y-97995401D01*
X159422900Y-98017669D01*
X159418672Y-98034328D01*
X159413927Y-98046313D01*
X159408637Y-98054559D01*
X159402771Y-98060000D01*
X159396300Y-98063572D01*
X159389195Y-98066208D01*
X159381426Y-98068844D01*
X159372964Y-98072415D01*
X159368606Y-98074083D01*
X159360093Y-98076049D01*
X159347392Y-98077849D01*
X159329583Y-98079493D01*
X159305747Y-98080985D01*
X159274964Y-98082335D01*
X159236315Y-98083549D01*
X159188880Y-98084635D01*
X159131741Y-98085599D01*
X159063977Y-98086449D01*
X158984669Y-98087191D01*
X158892897Y-98087835D01*
X158787742Y-98088385D01*
X158668285Y-98088851D01*
X158533606Y-98089238D01*
X158382786Y-98089554D01*
X158214904Y-98089807D01*
X158029043Y-98090004D01*
X157824281Y-98090151D01*
X157599700Y-98090256D01*
X157354380Y-98090327D01*
X157087402Y-98090370D01*
X157049019Y-98090375D01*
X156783620Y-98090418D01*
X156539748Y-98090463D01*
X156316481Y-98090486D01*
X156112894Y-98090462D01*
X155928065Y-98090368D01*
X155761071Y-98090181D01*
X155610988Y-98089877D01*
X155476894Y-98089432D01*
X155357864Y-98088823D01*
X155252977Y-98088027D01*
X155161308Y-98087018D01*
X155081935Y-98085775D01*
X155013935Y-98084273D01*
X154956384Y-98082489D01*
X154908360Y-98080399D01*
X154868938Y-98077980D01*
X154837197Y-98075208D01*
X154812212Y-98072059D01*
X154793062Y-98068510D01*
X154778821Y-98064536D01*
X154768569Y-98060116D01*
X154761380Y-98055224D01*
X154756333Y-98049838D01*
X154752503Y-98043934D01*
X154748969Y-98037487D01*
X154744806Y-98030475D01*
X154743723Y-98028625D01*
X154741511Y-98023118D01*
X154739484Y-98014806D01*
X154737636Y-98002747D01*
X154735959Y-97986001D01*
X154734443Y-97963625D01*
X154733081Y-97934678D01*
X154731865Y-97898218D01*
X154730787Y-97853305D01*
X154729838Y-97798995D01*
X154729010Y-97734348D01*
X154728295Y-97658422D01*
X154727685Y-97570276D01*
X154727640Y-97561431D01*
X155019076Y-97561431D01*
X155022958Y-97562703D01*
X155046218Y-97564729D01*
X155088572Y-97566564D01*
X155147830Y-97568165D01*
X155221805Y-97569487D01*
X155308308Y-97570486D01*
X155405150Y-97571118D01*
X155510143Y-97571338D01*
X156208349Y-97571338D01*
X157362788Y-97571338D01*
X157362154Y-97495138D01*
X157363272Y-97453098D01*
X157369002Y-97417272D01*
X157381588Y-97379710D01*
X157403266Y-97331515D01*
X157406487Y-97324835D01*
X157431886Y-97275297D01*
X157458694Y-97227307D01*
X157481615Y-97190404D01*
X157486183Y-97183772D01*
X157508214Y-97152531D01*
X157540391Y-97107592D01*
X157581155Y-97051085D01*
X157628943Y-96985142D01*
X157682196Y-96911895D01*
X157739353Y-96833474D01*
X157798853Y-96752010D01*
X157859135Y-96669636D01*
X157918638Y-96588482D01*
X157975803Y-96510680D01*
X158029068Y-96438361D01*
X158076872Y-96373656D01*
X158117655Y-96318697D01*
X158149856Y-96275614D01*
X158171914Y-96246540D01*
X158182269Y-96233605D01*
X158186742Y-96229289D01*
X158190934Y-96227250D01*
X158194341Y-96229864D01*
X158197023Y-96238924D01*
X158199039Y-96256223D01*
X158200446Y-96283552D01*
X158201303Y-96322703D01*
X158201668Y-96375471D01*
X158201601Y-96443645D01*
X158201158Y-96529020D01*
X158200400Y-96633387D01*
X158199383Y-96758538D01*
X158199006Y-96803238D01*
X158197867Y-96924333D01*
X158196670Y-97025626D01*
X158195334Y-97109200D01*
X158193775Y-97177142D01*
X158191913Y-97231537D01*
X158189664Y-97274470D01*
X158186946Y-97308027D01*
X158183677Y-97334293D01*
X158179776Y-97355354D01*
X158175159Y-97373295D01*
X158166890Y-97399708D01*
X158143281Y-97461710D01*
X158117383Y-97514511D01*
X158092233Y-97551583D01*
X158091037Y-97553013D01*
X158088866Y-97557362D01*
X158091026Y-97560964D01*
X158099342Y-97563889D01*
X158115638Y-97566207D01*
X158141739Y-97567989D01*
X158179469Y-97569305D01*
X158230654Y-97570224D01*
X158297118Y-97570816D01*
X158380685Y-97571153D01*
X158483181Y-97571303D01*
X158606430Y-97571338D01*
X159137994Y-97571338D01*
X159099221Y-97513721D01*
X159093130Y-97504831D01*
X159082674Y-97490007D01*
X159073277Y-97476360D01*
X159064881Y-97462703D01*
X159057431Y-97447849D01*
X159050871Y-97430608D01*
X159045144Y-97409793D01*
X159040193Y-97384218D01*
X159035964Y-97352693D01*
X159032399Y-97314031D01*
X159029442Y-97267045D01*
X159027038Y-97210546D01*
X159025129Y-97143347D01*
X159023660Y-97064260D01*
X159022574Y-96972098D01*
X159021816Y-96865672D01*
X159021328Y-96743795D01*
X159021056Y-96605279D01*
X159020941Y-96448937D01*
X159020929Y-96273580D01*
X159020963Y-96078020D01*
X159020987Y-95861071D01*
X159020978Y-95738451D01*
X159020941Y-95533385D01*
X159020925Y-95349054D01*
X159020986Y-95184272D01*
X159021182Y-95037854D01*
X159021568Y-94908612D01*
X159022203Y-94795360D01*
X159023142Y-94696913D01*
X159024443Y-94612082D01*
X159026162Y-94539682D01*
X159028357Y-94478527D01*
X159031083Y-94427430D01*
X159034399Y-94385205D01*
X159038360Y-94350665D01*
X159043023Y-94322624D01*
X159048445Y-94299896D01*
X159054684Y-94281294D01*
X159061795Y-94265631D01*
X159069836Y-94251722D01*
X159078864Y-94238379D01*
X159088934Y-94224417D01*
X159100105Y-94208649D01*
X159139895Y-94150805D01*
X158080012Y-94150805D01*
X158118009Y-94213904D01*
X158132691Y-94238943D01*
X158147229Y-94266524D01*
X158159325Y-94294638D01*
X158169230Y-94325489D01*
X158177192Y-94361282D01*
X158183459Y-94404221D01*
X158188280Y-94456512D01*
X158191904Y-94520357D01*
X158194579Y-94597963D01*
X158196555Y-94691532D01*
X158198080Y-94803271D01*
X158199402Y-94935383D01*
X158200311Y-95055372D01*
X158200718Y-95172001D01*
X158200465Y-95267469D01*
X158199555Y-95341494D01*
X158197991Y-95393793D01*
X158195777Y-95424087D01*
X158192918Y-95432094D01*
X158189859Y-95428796D01*
X158171704Y-95407346D01*
X158141973Y-95370827D01*
X158102337Y-95321380D01*
X158054469Y-95261145D01*
X158000041Y-95192265D01*
X157940725Y-95116881D01*
X157878193Y-95037134D01*
X157814119Y-94955166D01*
X157750173Y-94873118D01*
X157688029Y-94793132D01*
X157629359Y-94717349D01*
X157575835Y-94647911D01*
X157529128Y-94586959D01*
X157490912Y-94536634D01*
X157462859Y-94499078D01*
X157446641Y-94476433D01*
X157401333Y-94404150D01*
X157361359Y-94324401D01*
X157339828Y-94256126D01*
X157336525Y-94198782D01*
X157341814Y-94150805D01*
X156210054Y-94151055D01*
X156249565Y-94181660D01*
X156258946Y-94189027D01*
X156321881Y-94243376D01*
X156390695Y-94311197D01*
X156467294Y-94394454D01*
X156553586Y-94495116D01*
X156570750Y-94515785D01*
X156611531Y-94565347D01*
X156661286Y-94626264D01*
X156718653Y-94696836D01*
X156782267Y-94775362D01*
X156850767Y-94860142D01*
X156922788Y-94949475D01*
X156996968Y-95041660D01*
X157012215Y-95060640D01*
X157071944Y-95134998D01*
X157146351Y-95227786D01*
X157218829Y-95318326D01*
X157288012Y-95404916D01*
X157352539Y-95485856D01*
X157411045Y-95559444D01*
X157462168Y-95623982D01*
X157504545Y-95677767D01*
X157536813Y-95719100D01*
X157557608Y-95746280D01*
X157565567Y-95757606D01*
X157563809Y-95761709D01*
X157550928Y-95782272D01*
X157526583Y-95818499D01*
X157491945Y-95868762D01*
X157448184Y-95931430D01*
X157396473Y-96004874D01*
X157337982Y-96087465D01*
X157273882Y-96177574D01*
X157205344Y-96273569D01*
X157133541Y-96373823D01*
X157059642Y-96476706D01*
X156984819Y-96580588D01*
X156910243Y-96683839D01*
X156837085Y-96784830D01*
X156766517Y-96881932D01*
X156699709Y-96973515D01*
X156637833Y-97057949D01*
X156582059Y-97133605D01*
X156533560Y-97198854D01*
X156493505Y-97252066D01*
X156463067Y-97291611D01*
X156442642Y-97316964D01*
X156396597Y-97371233D01*
X156346310Y-97427713D01*
X156299513Y-97477607D01*
X156208349Y-97571338D01*
X155510143Y-97571338D01*
X155579054Y-97571287D01*
X155677305Y-97571029D01*
X155766728Y-97570575D01*
X155845031Y-97569948D01*
X155909921Y-97569173D01*
X155959109Y-97568273D01*
X155990302Y-97567272D01*
X156001209Y-97566195D01*
X156000020Y-97562975D01*
X155989874Y-97545390D01*
X155972738Y-97519096D01*
X155964238Y-97506629D01*
X155955027Y-97492560D01*
X155946931Y-97478289D01*
X155939883Y-97462417D01*
X155933815Y-97443547D01*
X155928659Y-97420279D01*
X155924349Y-97391216D01*
X155920817Y-97354959D01*
X155917995Y-97310108D01*
X155915816Y-97255266D01*
X155914212Y-97189035D01*
X155913117Y-97110015D01*
X155912463Y-97016809D01*
X155912182Y-96908017D01*
X155912207Y-96782241D01*
X155912470Y-96638083D01*
X155912904Y-96474145D01*
X155913443Y-96289027D01*
X155913977Y-96110170D01*
X155914503Y-95951312D01*
X155915048Y-95812254D01*
X155915643Y-95691603D01*
X155916317Y-95587966D01*
X155917101Y-95499949D01*
X155918024Y-95426161D01*
X155919117Y-95365207D01*
X155920410Y-95315695D01*
X155921933Y-95276231D01*
X155923717Y-95245422D01*
X155925790Y-95221876D01*
X155928184Y-95204198D01*
X155930928Y-95190997D01*
X155934054Y-95180878D01*
X155937590Y-95172449D01*
X155941489Y-95164313D01*
X155961136Y-95127482D01*
X155979923Y-95097329D01*
X155980970Y-95095846D01*
X155995300Y-95073597D01*
X156001209Y-95060640D01*
X156000202Y-95060187D01*
X155983003Y-95058741D01*
X155946354Y-95057418D01*
X155892660Y-95056254D01*
X155824328Y-95055285D01*
X155743762Y-95054549D01*
X155653368Y-95054080D01*
X155555551Y-95053916D01*
X155109893Y-95053916D01*
X155106818Y-96230783D01*
X155103743Y-97407649D01*
X155077105Y-97466560D01*
X155065183Y-97491121D01*
X155047944Y-97521372D01*
X155034772Y-97538498D01*
X155026774Y-97546529D01*
X155019076Y-97561431D01*
X154727640Y-97561431D01*
X154727172Y-97468967D01*
X154726748Y-97353555D01*
X154726404Y-97223098D01*
X154726132Y-97076654D01*
X154725925Y-96913282D01*
X154725774Y-96732039D01*
X154725670Y-96531986D01*
X154725606Y-96312179D01*
X154725574Y-96071677D01*
X154725565Y-95809540D01*
X154725565Y-93617969D01*
X154763947Y-93579587D01*
X154791053Y-93555849D01*
X154817951Y-93544049D01*
X154854258Y-93541205D01*
X154906187Y-93541205D01*
X154906187Y-93629144D01*
X154908125Y-93679040D01*
X154926897Y-93789461D01*
X154963915Y-93890925D01*
X155017067Y-93982090D01*
X155084244Y-94061611D01*
X155163336Y-94128143D01*
X155252232Y-94180344D01*
X155348823Y-94216868D01*
X155450998Y-94236372D01*
X155556648Y-94237511D01*
X155663662Y-94218943D01*
X155769930Y-94179322D01*
X155866917Y-94121454D01*
X155951991Y-94046622D01*
X156020713Y-93958553D01*
X156071616Y-93859554D01*
X156103233Y-93751931D01*
X156114098Y-93637992D01*
X156114098Y-93541205D01*
X157734451Y-93541205D01*
X157945595Y-93541218D01*
X158149718Y-93541268D01*
X158333384Y-93541368D01*
X158497689Y-93541530D01*
X158643727Y-93541767D01*
X158772592Y-93542091D01*
X158885381Y-93542513D01*
X158983186Y-93543047D01*
X159067102Y-93543705D01*
X159138225Y-93544499D01*
X159197648Y-93545442D01*
X159246466Y-93546546D01*
X159285775Y-93547822D01*
X159316667Y-93549285D01*
X159340239Y-93550945D01*
X159357584Y-93552816D01*
X159369797Y-93554910D01*
X159377973Y-93557238D01*
X159383206Y-93559814D01*
X159389202Y-93563383D01*
X159395977Y-93566916D01*
X159402176Y-93570426D01*
X159407824Y-93574856D01*
X159412945Y-93581146D01*
X159417567Y-93590239D01*
X159421713Y-93603077D01*
X159425411Y-93620600D01*
X159428685Y-93643751D01*
X159431561Y-93673472D01*
X159434065Y-93710703D01*
X159436222Y-93756387D01*
X159438058Y-93811465D01*
X159439598Y-93876879D01*
X159440868Y-93953571D01*
X159441893Y-94042482D01*
X159442699Y-94144555D01*
X159442732Y-94150805D01*
X159443312Y-94260730D01*
G37*
D13*
%TO.C,C2*%
X168720018Y-125231238D02*
X168720018Y-123808734D01*
X170540018Y-125231238D02*
X170540018Y-123808734D01*
D12*
%TO.C,REF\u002A\u002A*%
X177921971Y-108808822D02*
X174401178Y-108808822D01*
X174401178Y-107941198D01*
X177921971Y-107941198D01*
X177921971Y-108808822D01*
G36*
X177921971Y-108808822D02*
G01*
X174401178Y-108808822D01*
X174401178Y-107941198D01*
X177921971Y-107941198D01*
X177921971Y-108808822D01*
G37*
X176890894Y-103266718D02*
X176891388Y-103279668D01*
X176897819Y-103301411D01*
X176916123Y-103319851D01*
X176951830Y-103341801D01*
X176983174Y-103361854D01*
X177030893Y-103400356D01*
X177074138Y-103443579D01*
X177107219Y-103485627D01*
X177124442Y-103520604D01*
X177128662Y-103534081D01*
X177136480Y-103543334D01*
X177139116Y-103546454D01*
X177160662Y-103551696D01*
X177200314Y-103552782D01*
X177268109Y-103552782D01*
X177268109Y-103665951D01*
X177108577Y-103665951D01*
X177093682Y-103843732D01*
X177091682Y-103868037D01*
X177087023Y-103928880D01*
X177083731Y-103978389D01*
X177082092Y-104011992D01*
X177082390Y-104025116D01*
X177086724Y-104021343D01*
X177106496Y-104001676D01*
X177140679Y-103966818D01*
X177187541Y-103918576D01*
X177245354Y-103858757D01*
X177312387Y-103789167D01*
X177386912Y-103711615D01*
X177467197Y-103627907D01*
X177551513Y-103539849D01*
X177638130Y-103449250D01*
X177725319Y-103357915D01*
X177811349Y-103267653D01*
X177894492Y-103180269D01*
X177973016Y-103097572D01*
X178045192Y-103021368D01*
X178109291Y-102953463D01*
X178163583Y-102895666D01*
X178260592Y-102792040D01*
X178261034Y-102880315D01*
X178261475Y-102968589D01*
X177660938Y-103600158D01*
X177060401Y-104231726D01*
X177048396Y-104375674D01*
X177000365Y-104951635D01*
X176991876Y-105053791D01*
X176981343Y-105181612D01*
X176971621Y-105300767D01*
X176962898Y-105408914D01*
X176955358Y-105503713D01*
X176949187Y-105582819D01*
X176944573Y-105643892D01*
X176941700Y-105684590D01*
X176940754Y-105702570D01*
X176943251Y-105710808D01*
X176954471Y-105728599D01*
X176975751Y-105755411D01*
X176986021Y-105767129D01*
X177008225Y-105792466D01*
X177053023Y-105840986D01*
X177111281Y-105902192D01*
X177184129Y-105977307D01*
X177272703Y-106067550D01*
X177378134Y-106174145D01*
X177447492Y-106244093D01*
X177544179Y-106341658D01*
X177640526Y-106438941D01*
X177733638Y-106533014D01*
X177820618Y-106620950D01*
X177898569Y-106699820D01*
X177964596Y-106766699D01*
X178015802Y-106818658D01*
X178216514Y-107022620D01*
X178180058Y-107060671D01*
X178171460Y-107069245D01*
X178146095Y-107090297D01*
X178128695Y-107098723D01*
X178115071Y-107091530D01*
X178089743Y-107069944D01*
X178059379Y-107038995D01*
X178040896Y-107019448D01*
X178006427Y-106983752D01*
X177957712Y-106933684D01*
X177896469Y-106871001D01*
X177824420Y-106797457D01*
X177743285Y-106714810D01*
X177654784Y-106624815D01*
X177560637Y-106529228D01*
X177462565Y-106429805D01*
X176920161Y-105880343D01*
X176898066Y-106165746D01*
X176893250Y-106226662D01*
X176886216Y-106308548D01*
X176879872Y-106370569D01*
X176873748Y-106415987D01*
X176867373Y-106448062D01*
X176860277Y-106470052D01*
X176851991Y-106485219D01*
X176840393Y-106506416D01*
X176830850Y-106545386D01*
X176828010Y-106601531D01*
X176828010Y-106683773D01*
X176601674Y-106683773D01*
X176601674Y-106507733D01*
X175756082Y-106507733D01*
X175707203Y-106563262D01*
X175693836Y-106577722D01*
X175621388Y-106635813D01*
X175539532Y-106671576D01*
X175450900Y-106683773D01*
X175372692Y-106677306D01*
X175284233Y-106650047D01*
X175208507Y-106601328D01*
X175193748Y-106587403D01*
X175156864Y-106542328D01*
X175124503Y-106489819D01*
X175101297Y-106438061D01*
X175091879Y-106395239D01*
X175091697Y-106389023D01*
X175090342Y-106366246D01*
X175086800Y-106350513D01*
X175079390Y-106343068D01*
X175066431Y-106345156D01*
X175046243Y-106358020D01*
X175017145Y-106382905D01*
X174977456Y-106421053D01*
X174925496Y-106473710D01*
X174859584Y-106542119D01*
X174778040Y-106627524D01*
X174734604Y-106673112D01*
X174662000Y-106749441D01*
X174593309Y-106821808D01*
X174531223Y-106887366D01*
X174478434Y-106943274D01*
X174437634Y-106986686D01*
X174411515Y-107014758D01*
X174340119Y-107092436D01*
X174251863Y-107004416D01*
X174797690Y-106432287D01*
X174832105Y-106396188D01*
X174954546Y-106267272D01*
X175059651Y-106155754D01*
X175147736Y-106061288D01*
X175219116Y-105983529D01*
X175269588Y-105927174D01*
X175476247Y-105927174D01*
X175477872Y-105940434D01*
X175478156Y-105941819D01*
X175491698Y-105973228D01*
X175518748Y-105987863D01*
X175602129Y-106019063D01*
X175676418Y-106071038D01*
X175734846Y-106139791D01*
X175774890Y-106222315D01*
X175794026Y-106315606D01*
X175800364Y-106394565D01*
X176749838Y-106394565D01*
X176756458Y-106366273D01*
X176757629Y-106359329D01*
X176761268Y-106328281D01*
X176766234Y-106278081D01*
X176772157Y-106212727D01*
X176778669Y-106136219D01*
X176785401Y-106052555D01*
X176807724Y-105767129D01*
X176506826Y-105461565D01*
X176451636Y-105405704D01*
X176384109Y-105337888D01*
X176323529Y-105277643D01*
X176272021Y-105227052D01*
X176231710Y-105188200D01*
X176204722Y-105163170D01*
X176193182Y-105154046D01*
X176185444Y-105158405D01*
X176162395Y-105178241D01*
X176127709Y-105211375D01*
X176084487Y-105254820D01*
X176035832Y-105305587D01*
X176023140Y-105319051D01*
X175966229Y-105379275D01*
X175898414Y-105450864D01*
X175824800Y-105528437D01*
X175750493Y-105606611D01*
X175680599Y-105680005D01*
X175676401Y-105684409D01*
X175611420Y-105752785D01*
X175561836Y-105805732D01*
X175525688Y-105845767D01*
X175501016Y-105875411D01*
X175485858Y-105897181D01*
X175478256Y-105913595D01*
X175476247Y-105927174D01*
X175269588Y-105927174D01*
X175274105Y-105922131D01*
X175313019Y-105876748D01*
X175336173Y-105847035D01*
X175343882Y-105832644D01*
X175343883Y-105832559D01*
X175342825Y-105814624D01*
X175339737Y-105774421D01*
X175334858Y-105714687D01*
X175328432Y-105638158D01*
X175320700Y-105547569D01*
X175311905Y-105445657D01*
X175302287Y-105335159D01*
X175292091Y-105218811D01*
X175281556Y-105099348D01*
X175270926Y-104979507D01*
X175260442Y-104862025D01*
X175250346Y-104749637D01*
X175240881Y-104645081D01*
X175232288Y-104551091D01*
X175224809Y-104470405D01*
X175218687Y-104405759D01*
X175214162Y-104359888D01*
X175211478Y-104335530D01*
X175206067Y-104294732D01*
X175335253Y-104294732D01*
X175336908Y-104325653D01*
X175340549Y-104377653D01*
X175345995Y-104448487D01*
X175353063Y-104535911D01*
X175361570Y-104637681D01*
X175371335Y-104751552D01*
X175382174Y-104875279D01*
X175393907Y-105006618D01*
X175403079Y-105107908D01*
X175414566Y-105233526D01*
X175425322Y-105349762D01*
X175435131Y-105454380D01*
X175443781Y-105545140D01*
X175451057Y-105619804D01*
X175456746Y-105676134D01*
X175460634Y-105711891D01*
X175462506Y-105724837D01*
X175468188Y-105720826D01*
X175489020Y-105701138D01*
X175522872Y-105667322D01*
X175567412Y-105621837D01*
X175620310Y-105567146D01*
X175679236Y-105505710D01*
X175741858Y-105439990D01*
X175805848Y-105372449D01*
X175868874Y-105305547D01*
X175928606Y-105241746D01*
X175982713Y-105183507D01*
X176028865Y-105133292D01*
X176064733Y-105093563D01*
X176087984Y-105066780D01*
X176094778Y-105057477D01*
X176276601Y-105057477D01*
X176552305Y-105332968D01*
X176619726Y-105400224D01*
X176683267Y-105463162D01*
X176732490Y-105511100D01*
X176769196Y-105545594D01*
X176795190Y-105568199D01*
X176812276Y-105580471D01*
X176822256Y-105583966D01*
X176826935Y-105580238D01*
X176828116Y-105570844D01*
X176828873Y-105555749D01*
X176831601Y-105516883D01*
X176836108Y-105457895D01*
X176842179Y-105381473D01*
X176849596Y-105290305D01*
X176858142Y-105187080D01*
X176867602Y-105074483D01*
X176877758Y-104955205D01*
X176886723Y-104850077D01*
X176896066Y-104739351D01*
X176904443Y-104638814D01*
X176911653Y-104550943D01*
X176917496Y-104478215D01*
X176921769Y-104423110D01*
X176924273Y-104388104D01*
X176924805Y-104375674D01*
X176924384Y-104375908D01*
X176912509Y-104387350D01*
X176886130Y-104414198D01*
X176847570Y-104454018D01*
X176799153Y-104504372D01*
X176743203Y-104562828D01*
X176682042Y-104626948D01*
X176617995Y-104694298D01*
X176553385Y-104762443D01*
X176490535Y-104828948D01*
X176431768Y-104891377D01*
X176379409Y-104947295D01*
X176278533Y-105055406D01*
X176276601Y-105057477D01*
X176094778Y-105057477D01*
X176096290Y-105055406D01*
X176088148Y-105044383D01*
X176064478Y-105017999D01*
X176027478Y-104978527D01*
X175979350Y-104928191D01*
X175922296Y-104869217D01*
X175858520Y-104803830D01*
X175790222Y-104734255D01*
X175719605Y-104662716D01*
X175648871Y-104591438D01*
X175580222Y-104522647D01*
X175515861Y-104458566D01*
X175457989Y-104401422D01*
X175408810Y-104353439D01*
X175370524Y-104316841D01*
X175345334Y-104293854D01*
X175335442Y-104286703D01*
X175335253Y-104294732D01*
X175206067Y-104294732D01*
X175204390Y-104282089D01*
X174929297Y-104282089D01*
X174928968Y-104071471D01*
X174928797Y-103962172D01*
X175029891Y-103962172D01*
X175029891Y-104181495D01*
X175111624Y-104181495D01*
X175118895Y-104181489D01*
X175159950Y-104180613D01*
X175182277Y-104176867D01*
X175191529Y-104168270D01*
X175193357Y-104152840D01*
X175185306Y-104130159D01*
X175157730Y-104092428D01*
X175111624Y-104043179D01*
X175029891Y-103962172D01*
X174928797Y-103962172D01*
X174928639Y-103860852D01*
X174476914Y-103401891D01*
X174025189Y-102942931D01*
X174024570Y-102855848D01*
X174023951Y-102768767D01*
X174565769Y-103317952D01*
X174618137Y-103370998D01*
X174726803Y-103480772D01*
X174819709Y-103574114D01*
X174898055Y-103652173D01*
X174963043Y-103716097D01*
X175015872Y-103767035D01*
X175057743Y-103806135D01*
X175089855Y-103834548D01*
X175113410Y-103853420D01*
X175129608Y-103863901D01*
X175139649Y-103867139D01*
X175156579Y-103866158D01*
X175166084Y-103858996D01*
X175167723Y-103839401D01*
X175163782Y-103801124D01*
X175161065Y-103777025D01*
X175157284Y-103736744D01*
X175155760Y-103709961D01*
X175155015Y-103700728D01*
X175147746Y-103690839D01*
X175127668Y-103687562D01*
X175088689Y-103688992D01*
X175078737Y-103689553D01*
X175038898Y-103688921D01*
X175010560Y-103680167D01*
X174990586Y-103665951D01*
X175273852Y-103665951D01*
X175278013Y-103713104D01*
X175279935Y-103734498D01*
X175285924Y-103792909D01*
X175291826Y-103831381D01*
X175298727Y-103853912D01*
X175307712Y-103864498D01*
X175319870Y-103867139D01*
X175330801Y-103868937D01*
X175338050Y-103877530D01*
X175342100Y-103897505D01*
X175343863Y-103933450D01*
X175344248Y-103989952D01*
X175344248Y-104112766D01*
X175384447Y-104152840D01*
X175482565Y-104250654D01*
X175620881Y-104388542D01*
X175620881Y-104282089D01*
X176375337Y-104282089D01*
X176375337Y-104521000D01*
X175756831Y-104521000D01*
X175966592Y-104737906D01*
X176006770Y-104779334D01*
X176062328Y-104836200D01*
X176110570Y-104885082D01*
X176148971Y-104923441D01*
X176175003Y-104948741D01*
X176186140Y-104958442D01*
X176190373Y-104955767D01*
X176210224Y-104937782D01*
X176244451Y-104904481D01*
X176291227Y-104857712D01*
X176348724Y-104799325D01*
X176415112Y-104731169D01*
X176488564Y-104655094D01*
X176567251Y-104572950D01*
X176646341Y-104489943D01*
X176723871Y-104408136D01*
X176786746Y-104341083D01*
X176836502Y-104287007D01*
X176874678Y-104244129D01*
X176902811Y-104210673D01*
X176922440Y-104184861D01*
X176935101Y-104164914D01*
X176942334Y-104149056D01*
X176945675Y-104135509D01*
X176946561Y-104128910D01*
X176950488Y-104092548D01*
X176955459Y-104039018D01*
X176960927Y-103974421D01*
X176966344Y-103904862D01*
X176968181Y-103880635D01*
X176973488Y-103815178D01*
X176978548Y-103758717D01*
X176982863Y-103716618D01*
X176985934Y-103694243D01*
X176991955Y-103665951D01*
X175273852Y-103665951D01*
X174990586Y-103665951D01*
X174982630Y-103660289D01*
X174977820Y-103656104D01*
X174938482Y-103605427D01*
X174922903Y-103552782D01*
X175263698Y-103552782D01*
X176678221Y-103552782D01*
X176676172Y-103502485D01*
X176890881Y-103502485D01*
X176890881Y-103552782D01*
X176947908Y-103552782D01*
X176964993Y-103552662D01*
X176990308Y-103550462D01*
X176997616Y-103543334D01*
X176991943Y-103528508D01*
X176990267Y-103525682D01*
X176971448Y-103503944D01*
X176944183Y-103479820D01*
X176916987Y-103460254D01*
X176898371Y-103452188D01*
X176896697Y-103453463D01*
X176892544Y-103470976D01*
X176890881Y-103502485D01*
X176676172Y-103502485D01*
X176674526Y-103462095D01*
X176670832Y-103371407D01*
X176595386Y-103356252D01*
X176557551Y-103349379D01*
X176494368Y-103339756D01*
X176435065Y-103332496D01*
X176350188Y-103323893D01*
X176350188Y-103427040D01*
X175771773Y-103427040D01*
X175771773Y-103336122D01*
X175699471Y-103344753D01*
X175588998Y-103363249D01*
X175477816Y-103396691D01*
X175385850Y-103443324D01*
X175311542Y-103503786D01*
X175263698Y-103552782D01*
X174922903Y-103552782D01*
X174921172Y-103546934D01*
X174926474Y-103485575D01*
X174954975Y-103426297D01*
X174957733Y-103422606D01*
X174995822Y-103390851D01*
X175045476Y-103372067D01*
X175099002Y-103367071D01*
X175148707Y-103376678D01*
X175186900Y-103401704D01*
X175199831Y-103414480D01*
X175212428Y-103417576D01*
X175230467Y-103407998D01*
X175260928Y-103384082D01*
X175270274Y-103376731D01*
X175342430Y-103330339D01*
X175427915Y-103289084D01*
X175497830Y-103263575D01*
X175872367Y-103263575D01*
X175872367Y-103326446D01*
X176249594Y-103326446D01*
X176249594Y-103263575D01*
X175872367Y-103263575D01*
X175497830Y-103263575D01*
X175518767Y-103255936D01*
X175607027Y-103233868D01*
X175684736Y-103225852D01*
X175692991Y-103225788D01*
X175738879Y-103221321D01*
X175764079Y-103208795D01*
X175771773Y-103186784D01*
X175772676Y-103179849D01*
X175777615Y-103173885D01*
X175789611Y-103169519D01*
X175811680Y-103166503D01*
X175846836Y-103164590D01*
X175898094Y-103163530D01*
X175968471Y-103163077D01*
X176060980Y-103162980D01*
X176147660Y-103163150D01*
X176221332Y-103163834D01*
X176275265Y-103165215D01*
X176312288Y-103167470D01*
X176335230Y-103170778D01*
X176346920Y-103175320D01*
X176350188Y-103181272D01*
X176360937Y-103195888D01*
X176391055Y-103205215D01*
X176402582Y-103206847D01*
X176441886Y-103212591D01*
X176494188Y-103220378D01*
X176551376Y-103229003D01*
X176582916Y-103233393D01*
X176629074Y-103238148D01*
X176661641Y-103239295D01*
X176675023Y-103236495D01*
X176677308Y-103234671D01*
X176698405Y-103230165D01*
X176736355Y-103227029D01*
X176785048Y-103225852D01*
X176890881Y-103225852D01*
X176890894Y-103263575D01*
X176890894Y-103266718D01*
G36*
X176890894Y-103266718D02*
G01*
X176891388Y-103279668D01*
X176897819Y-103301411D01*
X176916123Y-103319851D01*
X176951830Y-103341801D01*
X176983174Y-103361854D01*
X177030893Y-103400356D01*
X177074138Y-103443579D01*
X177107219Y-103485627D01*
X177124442Y-103520604D01*
X177128662Y-103534081D01*
X177136480Y-103543334D01*
X177139116Y-103546454D01*
X177160662Y-103551696D01*
X177200314Y-103552782D01*
X177268109Y-103552782D01*
X177268109Y-103665951D01*
X177108577Y-103665951D01*
X177093682Y-103843732D01*
X177091682Y-103868037D01*
X177087023Y-103928880D01*
X177083731Y-103978389D01*
X177082092Y-104011992D01*
X177082390Y-104025116D01*
X177086724Y-104021343D01*
X177106496Y-104001676D01*
X177140679Y-103966818D01*
X177187541Y-103918576D01*
X177245354Y-103858757D01*
X177312387Y-103789167D01*
X177386912Y-103711615D01*
X177467197Y-103627907D01*
X177551513Y-103539849D01*
X177638130Y-103449250D01*
X177725319Y-103357915D01*
X177811349Y-103267653D01*
X177894492Y-103180269D01*
X177973016Y-103097572D01*
X178045192Y-103021368D01*
X178109291Y-102953463D01*
X178163583Y-102895666D01*
X178260592Y-102792040D01*
X178261034Y-102880315D01*
X178261475Y-102968589D01*
X177660938Y-103600158D01*
X177060401Y-104231726D01*
X177048396Y-104375674D01*
X177000365Y-104951635D01*
X176991876Y-105053791D01*
X176981343Y-105181612D01*
X176971621Y-105300767D01*
X176962898Y-105408914D01*
X176955358Y-105503713D01*
X176949187Y-105582819D01*
X176944573Y-105643892D01*
X176941700Y-105684590D01*
X176940754Y-105702570D01*
X176943251Y-105710808D01*
X176954471Y-105728599D01*
X176975751Y-105755411D01*
X176986021Y-105767129D01*
X177008225Y-105792466D01*
X177053023Y-105840986D01*
X177111281Y-105902192D01*
X177184129Y-105977307D01*
X177272703Y-106067550D01*
X177378134Y-106174145D01*
X177447492Y-106244093D01*
X177544179Y-106341658D01*
X177640526Y-106438941D01*
X177733638Y-106533014D01*
X177820618Y-106620950D01*
X177898569Y-106699820D01*
X177964596Y-106766699D01*
X178015802Y-106818658D01*
X178216514Y-107022620D01*
X178180058Y-107060671D01*
X178171460Y-107069245D01*
X178146095Y-107090297D01*
X178128695Y-107098723D01*
X178115071Y-107091530D01*
X178089743Y-107069944D01*
X178059379Y-107038995D01*
X178040896Y-107019448D01*
X178006427Y-106983752D01*
X177957712Y-106933684D01*
X177896469Y-106871001D01*
X177824420Y-106797457D01*
X177743285Y-106714810D01*
X177654784Y-106624815D01*
X177560637Y-106529228D01*
X177462565Y-106429805D01*
X176920161Y-105880343D01*
X176898066Y-106165746D01*
X176893250Y-106226662D01*
X176886216Y-106308548D01*
X176879872Y-106370569D01*
X176873748Y-106415987D01*
X176867373Y-106448062D01*
X176860277Y-106470052D01*
X176851991Y-106485219D01*
X176840393Y-106506416D01*
X176830850Y-106545386D01*
X176828010Y-106601531D01*
X176828010Y-106683773D01*
X176601674Y-106683773D01*
X176601674Y-106507733D01*
X175756082Y-106507733D01*
X175707203Y-106563262D01*
X175693836Y-106577722D01*
X175621388Y-106635813D01*
X175539532Y-106671576D01*
X175450900Y-106683773D01*
X175372692Y-106677306D01*
X175284233Y-106650047D01*
X175208507Y-106601328D01*
X175193748Y-106587403D01*
X175156864Y-106542328D01*
X175124503Y-106489819D01*
X175101297Y-106438061D01*
X175091879Y-106395239D01*
X175091697Y-106389023D01*
X175090342Y-106366246D01*
X175086800Y-106350513D01*
X175079390Y-106343068D01*
X175066431Y-106345156D01*
X175046243Y-106358020D01*
X175017145Y-106382905D01*
X174977456Y-106421053D01*
X174925496Y-106473710D01*
X174859584Y-106542119D01*
X174778040Y-106627524D01*
X174734604Y-106673112D01*
X174662000Y-106749441D01*
X174593309Y-106821808D01*
X174531223Y-106887366D01*
X174478434Y-106943274D01*
X174437634Y-106986686D01*
X174411515Y-107014758D01*
X174340119Y-107092436D01*
X174251863Y-107004416D01*
X174797690Y-106432287D01*
X174832105Y-106396188D01*
X174954546Y-106267272D01*
X175059651Y-106155754D01*
X175147736Y-106061288D01*
X175219116Y-105983529D01*
X175269588Y-105927174D01*
X175476247Y-105927174D01*
X175477872Y-105940434D01*
X175478156Y-105941819D01*
X175491698Y-105973228D01*
X175518748Y-105987863D01*
X175602129Y-106019063D01*
X175676418Y-106071038D01*
X175734846Y-106139791D01*
X175774890Y-106222315D01*
X175794026Y-106315606D01*
X175800364Y-106394565D01*
X176749838Y-106394565D01*
X176756458Y-106366273D01*
X176757629Y-106359329D01*
X176761268Y-106328281D01*
X176766234Y-106278081D01*
X176772157Y-106212727D01*
X176778669Y-106136219D01*
X176785401Y-106052555D01*
X176807724Y-105767129D01*
X176506826Y-105461565D01*
X176451636Y-105405704D01*
X176384109Y-105337888D01*
X176323529Y-105277643D01*
X176272021Y-105227052D01*
X176231710Y-105188200D01*
X176204722Y-105163170D01*
X176193182Y-105154046D01*
X176185444Y-105158405D01*
X176162395Y-105178241D01*
X176127709Y-105211375D01*
X176084487Y-105254820D01*
X176035832Y-105305587D01*
X176023140Y-105319051D01*
X175966229Y-105379275D01*
X175898414Y-105450864D01*
X175824800Y-105528437D01*
X175750493Y-105606611D01*
X175680599Y-105680005D01*
X175676401Y-105684409D01*
X175611420Y-105752785D01*
X175561836Y-105805732D01*
X175525688Y-105845767D01*
X175501016Y-105875411D01*
X175485858Y-105897181D01*
X175478256Y-105913595D01*
X175476247Y-105927174D01*
X175269588Y-105927174D01*
X175274105Y-105922131D01*
X175313019Y-105876748D01*
X175336173Y-105847035D01*
X175343882Y-105832644D01*
X175343883Y-105832559D01*
X175342825Y-105814624D01*
X175339737Y-105774421D01*
X175334858Y-105714687D01*
X175328432Y-105638158D01*
X175320700Y-105547569D01*
X175311905Y-105445657D01*
X175302287Y-105335159D01*
X175292091Y-105218811D01*
X175281556Y-105099348D01*
X175270926Y-104979507D01*
X175260442Y-104862025D01*
X175250346Y-104749637D01*
X175240881Y-104645081D01*
X175232288Y-104551091D01*
X175224809Y-104470405D01*
X175218687Y-104405759D01*
X175214162Y-104359888D01*
X175211478Y-104335530D01*
X175206067Y-104294732D01*
X175335253Y-104294732D01*
X175336908Y-104325653D01*
X175340549Y-104377653D01*
X175345995Y-104448487D01*
X175353063Y-104535911D01*
X175361570Y-104637681D01*
X175371335Y-104751552D01*
X175382174Y-104875279D01*
X175393907Y-105006618D01*
X175403079Y-105107908D01*
X175414566Y-105233526D01*
X175425322Y-105349762D01*
X175435131Y-105454380D01*
X175443781Y-105545140D01*
X175451057Y-105619804D01*
X175456746Y-105676134D01*
X175460634Y-105711891D01*
X175462506Y-105724837D01*
X175468188Y-105720826D01*
X175489020Y-105701138D01*
X175522872Y-105667322D01*
X175567412Y-105621837D01*
X175620310Y-105567146D01*
X175679236Y-105505710D01*
X175741858Y-105439990D01*
X175805848Y-105372449D01*
X175868874Y-105305547D01*
X175928606Y-105241746D01*
X175982713Y-105183507D01*
X176028865Y-105133292D01*
X176064733Y-105093563D01*
X176087984Y-105066780D01*
X176094778Y-105057477D01*
X176276601Y-105057477D01*
X176552305Y-105332968D01*
X176619726Y-105400224D01*
X176683267Y-105463162D01*
X176732490Y-105511100D01*
X176769196Y-105545594D01*
X176795190Y-105568199D01*
X176812276Y-105580471D01*
X176822256Y-105583966D01*
X176826935Y-105580238D01*
X176828116Y-105570844D01*
X176828873Y-105555749D01*
X176831601Y-105516883D01*
X176836108Y-105457895D01*
X176842179Y-105381473D01*
X176849596Y-105290305D01*
X176858142Y-105187080D01*
X176867602Y-105074483D01*
X176877758Y-104955205D01*
X176886723Y-104850077D01*
X176896066Y-104739351D01*
X176904443Y-104638814D01*
X176911653Y-104550943D01*
X176917496Y-104478215D01*
X176921769Y-104423110D01*
X176924273Y-104388104D01*
X176924805Y-104375674D01*
X176924384Y-104375908D01*
X176912509Y-104387350D01*
X176886130Y-104414198D01*
X176847570Y-104454018D01*
X176799153Y-104504372D01*
X176743203Y-104562828D01*
X176682042Y-104626948D01*
X176617995Y-104694298D01*
X176553385Y-104762443D01*
X176490535Y-104828948D01*
X176431768Y-104891377D01*
X176379409Y-104947295D01*
X176278533Y-105055406D01*
X176276601Y-105057477D01*
X176094778Y-105057477D01*
X176096290Y-105055406D01*
X176088148Y-105044383D01*
X176064478Y-105017999D01*
X176027478Y-104978527D01*
X175979350Y-104928191D01*
X175922296Y-104869217D01*
X175858520Y-104803830D01*
X175790222Y-104734255D01*
X175719605Y-104662716D01*
X175648871Y-104591438D01*
X175580222Y-104522647D01*
X175515861Y-104458566D01*
X175457989Y-104401422D01*
X175408810Y-104353439D01*
X175370524Y-104316841D01*
X175345334Y-104293854D01*
X175335442Y-104286703D01*
X175335253Y-104294732D01*
X175206067Y-104294732D01*
X175204390Y-104282089D01*
X174929297Y-104282089D01*
X174928968Y-104071471D01*
X174928797Y-103962172D01*
X175029891Y-103962172D01*
X175029891Y-104181495D01*
X175111624Y-104181495D01*
X175118895Y-104181489D01*
X175159950Y-104180613D01*
X175182277Y-104176867D01*
X175191529Y-104168270D01*
X175193357Y-104152840D01*
X175185306Y-104130159D01*
X175157730Y-104092428D01*
X175111624Y-104043179D01*
X175029891Y-103962172D01*
X174928797Y-103962172D01*
X174928639Y-103860852D01*
X174476914Y-103401891D01*
X174025189Y-102942931D01*
X174024570Y-102855848D01*
X174023951Y-102768767D01*
X174565769Y-103317952D01*
X174618137Y-103370998D01*
X174726803Y-103480772D01*
X174819709Y-103574114D01*
X174898055Y-103652173D01*
X174963043Y-103716097D01*
X175015872Y-103767035D01*
X175057743Y-103806135D01*
X175089855Y-103834548D01*
X175113410Y-103853420D01*
X175129608Y-103863901D01*
X175139649Y-103867139D01*
X175156579Y-103866158D01*
X175166084Y-103858996D01*
X175167723Y-103839401D01*
X175163782Y-103801124D01*
X175161065Y-103777025D01*
X175157284Y-103736744D01*
X175155760Y-103709961D01*
X175155015Y-103700728D01*
X175147746Y-103690839D01*
X175127668Y-103687562D01*
X175088689Y-103688992D01*
X175078737Y-103689553D01*
X175038898Y-103688921D01*
X175010560Y-103680167D01*
X174990586Y-103665951D01*
X175273852Y-103665951D01*
X175278013Y-103713104D01*
X175279935Y-103734498D01*
X175285924Y-103792909D01*
X175291826Y-103831381D01*
X175298727Y-103853912D01*
X175307712Y-103864498D01*
X175319870Y-103867139D01*
X175330801Y-103868937D01*
X175338050Y-103877530D01*
X175342100Y-103897505D01*
X175343863Y-103933450D01*
X175344248Y-103989952D01*
X175344248Y-104112766D01*
X175384447Y-104152840D01*
X175482565Y-104250654D01*
X175620881Y-104388542D01*
X175620881Y-104282089D01*
X176375337Y-104282089D01*
X176375337Y-104521000D01*
X175756831Y-104521000D01*
X175966592Y-104737906D01*
X176006770Y-104779334D01*
X176062328Y-104836200D01*
X176110570Y-104885082D01*
X176148971Y-104923441D01*
X176175003Y-104948741D01*
X176186140Y-104958442D01*
X176190373Y-104955767D01*
X176210224Y-104937782D01*
X176244451Y-104904481D01*
X176291227Y-104857712D01*
X176348724Y-104799325D01*
X176415112Y-104731169D01*
X176488564Y-104655094D01*
X176567251Y-104572950D01*
X176646341Y-104489943D01*
X176723871Y-104408136D01*
X176786746Y-104341083D01*
X176836502Y-104287007D01*
X176874678Y-104244129D01*
X176902811Y-104210673D01*
X176922440Y-104184861D01*
X176935101Y-104164914D01*
X176942334Y-104149056D01*
X176945675Y-104135509D01*
X176946561Y-104128910D01*
X176950488Y-104092548D01*
X176955459Y-104039018D01*
X176960927Y-103974421D01*
X176966344Y-103904862D01*
X176968181Y-103880635D01*
X176973488Y-103815178D01*
X176978548Y-103758717D01*
X176982863Y-103716618D01*
X176985934Y-103694243D01*
X176991955Y-103665951D01*
X175273852Y-103665951D01*
X174990586Y-103665951D01*
X174982630Y-103660289D01*
X174977820Y-103656104D01*
X174938482Y-103605427D01*
X174922903Y-103552782D01*
X175263698Y-103552782D01*
X176678221Y-103552782D01*
X176676172Y-103502485D01*
X176890881Y-103502485D01*
X176890881Y-103552782D01*
X176947908Y-103552782D01*
X176964993Y-103552662D01*
X176990308Y-103550462D01*
X176997616Y-103543334D01*
X176991943Y-103528508D01*
X176990267Y-103525682D01*
X176971448Y-103503944D01*
X176944183Y-103479820D01*
X176916987Y-103460254D01*
X176898371Y-103452188D01*
X176896697Y-103453463D01*
X176892544Y-103470976D01*
X176890881Y-103502485D01*
X176676172Y-103502485D01*
X176674526Y-103462095D01*
X176670832Y-103371407D01*
X176595386Y-103356252D01*
X176557551Y-103349379D01*
X176494368Y-103339756D01*
X176435065Y-103332496D01*
X176350188Y-103323893D01*
X176350188Y-103427040D01*
X175771773Y-103427040D01*
X175771773Y-103336122D01*
X175699471Y-103344753D01*
X175588998Y-103363249D01*
X175477816Y-103396691D01*
X175385850Y-103443324D01*
X175311542Y-103503786D01*
X175263698Y-103552782D01*
X174922903Y-103552782D01*
X174921172Y-103546934D01*
X174926474Y-103485575D01*
X174954975Y-103426297D01*
X174957733Y-103422606D01*
X174995822Y-103390851D01*
X175045476Y-103372067D01*
X175099002Y-103367071D01*
X175148707Y-103376678D01*
X175186900Y-103401704D01*
X175199831Y-103414480D01*
X175212428Y-103417576D01*
X175230467Y-103407998D01*
X175260928Y-103384082D01*
X175270274Y-103376731D01*
X175342430Y-103330339D01*
X175427915Y-103289084D01*
X175497830Y-103263575D01*
X175872367Y-103263575D01*
X175872367Y-103326446D01*
X176249594Y-103326446D01*
X176249594Y-103263575D01*
X175872367Y-103263575D01*
X175497830Y-103263575D01*
X175518767Y-103255936D01*
X175607027Y-103233868D01*
X175684736Y-103225852D01*
X175692991Y-103225788D01*
X175738879Y-103221321D01*
X175764079Y-103208795D01*
X175771773Y-103186784D01*
X175772676Y-103179849D01*
X175777615Y-103173885D01*
X175789611Y-103169519D01*
X175811680Y-103166503D01*
X175846836Y-103164590D01*
X175898094Y-103163530D01*
X175968471Y-103163077D01*
X176060980Y-103162980D01*
X176147660Y-103163150D01*
X176221332Y-103163834D01*
X176275265Y-103165215D01*
X176312288Y-103167470D01*
X176335230Y-103170778D01*
X176346920Y-103175320D01*
X176350188Y-103181272D01*
X176360937Y-103195888D01*
X176391055Y-103205215D01*
X176402582Y-103206847D01*
X176441886Y-103212591D01*
X176494188Y-103220378D01*
X176551376Y-103229003D01*
X176582916Y-103233393D01*
X176629074Y-103238148D01*
X176661641Y-103239295D01*
X176675023Y-103236495D01*
X176677308Y-103234671D01*
X176698405Y-103230165D01*
X176736355Y-103227029D01*
X176785048Y-103225852D01*
X176890881Y-103225852D01*
X176890894Y-103263575D01*
X176890894Y-103266718D01*
G37*
%TD*%
D14*
X135001000Y-109270800D03*
X138811000Y-109270800D03*
X171577000Y-109601000D03*
X167767000Y-109601000D03*
X172543018Y-124519986D03*
X171687770Y-122455234D03*
X169623018Y-121599986D03*
X167558266Y-122455234D03*
X166703018Y-124519986D03*
X167558266Y-126584738D03*
X169623018Y-127439986D03*
X171687770Y-126584738D03*
X148080000Y-125130000D03*
X153160000Y-125130000D03*
X155700000Y-125130000D03*
X158240000Y-125130000D03*
X148080000Y-128940000D03*
X150620000Y-128940000D03*
X153160000Y-128940000D03*
X155700000Y-128940000D03*
X158240000Y-128940000D03*
X138811000Y-116890800D03*
X135001000Y-116890800D03*
X174713949Y-131466051D03*
X164563949Y-117576051D03*
X143713200Y-131445000D03*
X174955200Y-100177600D03*
X143715000Y-115443000D03*
X143715000Y-117983000D03*
X171715000Y-95122000D03*
X173994999Y-95122000D03*
X176275000Y-95122000D03*
X134073840Y-96696051D03*
X177495200Y-100177600D03*
X143713200Y-128905000D03*
X158250000Y-103020000D03*
X155710000Y-103020000D03*
X153170000Y-103020000D03*
X150630000Y-103020000D03*
X148090000Y-103020000D03*
X148090000Y-99210000D03*
X150630000Y-99210000D03*
X153170000Y-99210000D03*
X155710000Y-99210000D03*
X158250000Y-99210000D03*
M02*
