%TF.GenerationSoftware,KiCad,Pcbnew,8.0.6*%
%TF.CreationDate,2024-11-19T20:08:15+01:00*%
%TF.ProjectId,3458A Ref A9 Clone,33343538-4120-4526-9566-20413920436c,rev?*%
%TF.SameCoordinates,Original*%
%TF.FileFunction,Soldermask,Top*%
%TF.FilePolarity,Negative*%
%FSLAX46Y46*%
G04 Gerber Fmt 4.6, Leading zero omitted, Abs format (unit mm)*
G04 Created by KiCad (PCBNEW 8.0.6) date 2024-11-19 20:08:15*
%MOMM*%
%LPD*%
G01*
G04 APERTURE LIST*
G04 Aperture macros list*
%AMRoundRect*
0 Rectangle with rounded corners*
0 $1 Rounding radius*
0 $2 $3 $4 $5 $6 $7 $8 $9 X,Y pos of 4 corners*
0 Add a 4 corners polygon primitive as box body*
4,1,4,$2,$3,$4,$5,$6,$7,$8,$9,$2,$3,0*
0 Add four circle primitives for the rounded corners*
1,1,$1+$1,$2,$3*
1,1,$1+$1,$4,$5*
1,1,$1+$1,$6,$7*
1,1,$1+$1,$8,$9*
0 Add four rect primitives between the rounded corners*
20,1,$1+$1,$2,$3,$4,$5,0*
20,1,$1+$1,$4,$5,$6,$7,0*
20,1,$1+$1,$6,$7,$8,$9,0*
20,1,$1+$1,$8,$9,$2,$3,0*%
G04 Aperture macros list end*
%ADD10C,1.500000*%
%ADD11RoundRect,0.250000X-0.362500X-1.425000X0.362500X-1.425000X0.362500X1.425000X-0.362500X1.425000X0*%
%ADD12RoundRect,0.405613X-0.588137X-0.919387X0.588137X-0.919387X0.588137X0.919387X-0.588137X0.919387X0*%
%ADD13RoundRect,0.420919X-0.610331X-0.904081X0.610331X-0.904081X0.610331X0.904081X-0.610331X0.904081X0*%
%ADD14C,7.200000*%
%ADD15RoundRect,0.250000X0.362500X1.425000X-0.362500X1.425000X-0.362500X-1.425000X0.362500X-1.425000X0*%
%ADD16RoundRect,0.405613X0.588137X0.919387X-0.588137X0.919387X-0.588137X-0.919387X0.588137X-0.919387X0*%
%ADD17RoundRect,0.420919X0.610331X0.904081X-0.610331X0.904081X-0.610331X-0.904081X0.610331X-0.904081X0*%
%ADD18RoundRect,0.150000X0.825000X0.150000X-0.825000X0.150000X-0.825000X-0.150000X0.825000X-0.150000X0*%
%ADD19RoundRect,0.225000X-0.375000X0.225000X-0.375000X-0.225000X0.375000X-0.225000X0.375000X0.225000X0*%
%ADD20RoundRect,0.250000X0.262500X0.450000X-0.262500X0.450000X-0.262500X-0.450000X0.262500X-0.450000X0*%
%ADD21RoundRect,0.250000X-0.450000X0.262500X-0.450000X-0.262500X0.450000X-0.262500X0.450000X0.262500X0*%
%ADD22RoundRect,0.250000X-0.650000X0.325000X-0.650000X-0.325000X0.650000X-0.325000X0.650000X0.325000X0*%
%ADD23RoundRect,0.250000X-0.262500X-0.450000X0.262500X-0.450000X0.262500X0.450000X-0.262500X0.450000X0*%
%ADD24RoundRect,0.250000X0.650000X-0.325000X0.650000X0.325000X-0.650000X0.325000X-0.650000X-0.325000X0*%
%ADD25C,2.000000*%
%ADD26R,1.700000X1.524000*%
%ADD27C,1.700000*%
%ADD28RoundRect,0.150000X-0.825000X-0.150000X0.825000X-0.150000X0.825000X0.150000X-0.825000X0.150000X0*%
%ADD29C,4.000000*%
%ADD30RoundRect,0.250000X-0.312500X-0.625000X0.312500X-0.625000X0.312500X0.625000X-0.312500X0.625000X0*%
%ADD31RoundRect,0.250000X-0.325000X-0.650000X0.325000X-0.650000X0.325000X0.650000X-0.325000X0.650000X0*%
%ADD32RoundRect,0.250000X0.325000X0.650000X-0.325000X0.650000X-0.325000X-0.650000X0.325000X-0.650000X0*%
%ADD33RoundRect,0.225000X0.225000X0.375000X-0.225000X0.375000X-0.225000X-0.375000X0.225000X-0.375000X0*%
%ADD34RoundRect,0.250000X0.450000X-0.262500X0.450000X0.262500X-0.450000X0.262500X-0.450000X-0.262500X0*%
%ADD35R,1.710000X1.800000*%
%ADD36O,1.710000X1.800000*%
%ADD37RoundRect,0.150000X-0.587500X-0.150000X0.587500X-0.150000X0.587500X0.150000X-0.587500X0.150000X0*%
%ADD38R,0.500000X0.500000*%
G04 APERTURE END LIST*
D10*
%TO.C,R3*%
X171551600Y-109524800D03*
X167741600Y-109524800D03*
D11*
X166709500Y-111252000D03*
D12*
X167740750Y-111252000D03*
D13*
X171565750Y-111252000D03*
D11*
X172634500Y-111252000D03*
%TD*%
D14*
%TO.C,REF\u002A\u002A*%
X134073840Y-96696051D03*
%TD*%
D11*
%TO.C,R415*%
X139893900Y-110998000D03*
D13*
X138861800Y-110998000D03*
D10*
X138811000Y-109270800D03*
D12*
X135036800Y-110998000D03*
D10*
X135001000Y-109270800D03*
D11*
X133968900Y-110998000D03*
%TD*%
%TO.C,R413*%
X172634500Y-104444800D03*
D13*
X171602400Y-104444800D03*
D10*
X171577000Y-106172000D03*
D12*
X167777400Y-104444800D03*
D10*
X167767000Y-106172000D03*
D11*
X166709500Y-104444800D03*
%TD*%
D10*
%TO.C,R414*%
X135001000Y-116890800D03*
X138811000Y-116890800D03*
D15*
X139868500Y-118618000D03*
D16*
X138800600Y-118618000D03*
D17*
X134975600Y-118618000D03*
D15*
X133943500Y-118618000D03*
%TD*%
D18*
%TO.C,U402*%
X155637000Y-112776000D03*
X155637000Y-111506000D03*
X155637000Y-110236000D03*
X155637000Y-108966000D03*
X150687000Y-108966000D03*
X150687000Y-110236000D03*
X150687000Y-111506000D03*
X150687000Y-112776000D03*
%TD*%
D19*
%TO.C,D401*%
X167894000Y-95251000D03*
X167894000Y-98551000D03*
%TD*%
D20*
%TO.C,R416*%
X154074500Y-114935000D03*
X152249500Y-114935000D03*
%TD*%
D21*
%TO.C,R1*%
X145542000Y-110847500D03*
X145542000Y-112672500D03*
%TD*%
D22*
%TO.C,C412*%
X161163000Y-109776999D03*
X161163000Y-112727001D03*
%TD*%
D23*
%TO.C,R5*%
X135993500Y-102997000D03*
X137818500Y-102997000D03*
%TD*%
D24*
%TO.C,C1*%
X158369000Y-115013001D03*
X158369000Y-112062999D03*
%TD*%
D10*
%TO.C,U401*%
X172543018Y-124519986D03*
X171687770Y-122455234D03*
X169623018Y-121599986D03*
X167558266Y-122455234D03*
X166703018Y-124519986D03*
X167558266Y-126584738D03*
X169623018Y-127439986D03*
X171687770Y-126584738D03*
%TD*%
D25*
%TO.C,J400*%
X148080000Y-125130000D03*
X153160000Y-125130000D03*
X155700000Y-125130000D03*
X158240000Y-125130000D03*
D26*
X148080000Y-128940000D03*
D27*
X150620000Y-128940000D03*
X153160000Y-128940000D03*
X155700000Y-128940000D03*
X158240000Y-128940000D03*
%TD*%
D20*
%TO.C,R6*%
X144295500Y-104267000D03*
X142470500Y-104267000D03*
%TD*%
D28*
%TO.C,RN1*%
X134431000Y-122682000D03*
X134431000Y-123952000D03*
X134431000Y-125222000D03*
X134431000Y-126492000D03*
X134431000Y-127762000D03*
X134431000Y-129032000D03*
X134431000Y-130302000D03*
X134431000Y-131572000D03*
X139381000Y-131572000D03*
X139381000Y-130302000D03*
X139381000Y-129032000D03*
X139381000Y-127762000D03*
X139381000Y-126492000D03*
X139381000Y-125222000D03*
X139381000Y-123952000D03*
X139381000Y-122682000D03*
%TD*%
D29*
%TO.C,REF\u002A\u002A*%
X174713949Y-131466051D03*
%TD*%
%TO.C,REF\u002A\u002A*%
X164563949Y-117576051D03*
%TD*%
D30*
%TO.C,R2*%
X138368500Y-106807000D03*
X135443500Y-106807000D03*
%TD*%
D21*
%TO.C,R417*%
X158369000Y-117705500D03*
X158369000Y-119530500D03*
%TD*%
D27*
%TO.C,TP2*%
X143891000Y-131445000D03*
%TD*%
D30*
%TO.C,R419*%
X139888500Y-100203000D03*
X142813500Y-100203000D03*
%TD*%
D22*
%TO.C,C3*%
X147955000Y-110284999D03*
X147955000Y-113235001D03*
%TD*%
D31*
%TO.C,C413*%
X151686999Y-106934000D03*
X154637001Y-106934000D03*
%TD*%
D32*
%TO.C,C414*%
X161163000Y-106172000D03*
X158212998Y-106172000D03*
%TD*%
D27*
%TO.C,TP6*%
X174955200Y-100177600D03*
%TD*%
D33*
%TO.C,D400*%
X154812000Y-117475000D03*
X151512000Y-117475000D03*
%TD*%
D34*
%TO.C,R421*%
X161036000Y-97940500D03*
X161036000Y-96115500D03*
%TD*%
D27*
%TO.C,TP3*%
X143129000Y-115443000D03*
%TD*%
%TO.C,TP4*%
X143129000Y-117983000D03*
%TD*%
D35*
%TO.C,Q401*%
X171715000Y-95122000D03*
D36*
X173994999Y-95122000D03*
X176275000Y-95122000D03*
%TD*%
D27*
%TO.C,TP5*%
X177495200Y-100177600D03*
%TD*%
D34*
%TO.C,R420*%
X163703000Y-112037500D03*
X163703000Y-110212500D03*
%TD*%
%TO.C,R4*%
X158369000Y-110132500D03*
X158369000Y-108307500D03*
%TD*%
D32*
%TO.C,C411*%
X145620001Y-108331000D03*
X142669999Y-108331000D03*
%TD*%
D27*
%TO.C,TP1*%
X143891000Y-128905000D03*
%TD*%
D21*
%TO.C,R418*%
X170688000Y-97616000D03*
X170688000Y-99441000D03*
%TD*%
D37*
%TO.C,Q1*%
X163400500Y-94554000D03*
X163400500Y-96454000D03*
X165275501Y-95504000D03*
%TD*%
D31*
%TO.C,C4*%
X145239001Y-124460000D03*
X142288999Y-124460000D03*
%TD*%
D38*
%TO.C,JP1*%
X168340799Y-111252000D03*
X170880799Y-111252000D03*
%TD*%
D32*
%TO.C,C5*%
X138381001Y-114427000D03*
X135430999Y-114427000D03*
%TD*%
D25*
%TO.C,J401*%
X158250000Y-103020000D03*
X155710000Y-103020000D03*
X153170000Y-103020000D03*
X150630000Y-103020000D03*
X148090000Y-103020000D03*
D26*
X148090000Y-99210000D03*
D27*
X150630000Y-99210000D03*
X153170000Y-99210000D03*
X155710000Y-99210000D03*
X158250000Y-99210000D03*
%TD*%
M02*
