M48
; DRILL file {KiCad 8.0.6} date 2025-01-21T00:38:55+0100
; FORMAT={-:-/ absolute / metric / decimal}
; #@! TF.CreationDate,2025-01-21T00:38:55+01:00
; #@! TF.GenerationSoftware,Kicad,Pcbnew,8.0.6
; #@! TF.FileFunction,MixedPlating,1,4
FMAT,2
METRIC
; #@! TA.AperFunction,Plated,PTH,ViaDrill
T1C0.300
; #@! TA.AperFunction,Plated,PTH,ComponentDrill
T2C0.700
; #@! TA.AperFunction,Plated,PTH,ComponentDrill
T3C0.800
; #@! TA.AperFunction,Plated,PTH,ComponentDrill
T4C1.000
; #@! TA.AperFunction,NonPlated,NPTH,ComponentDrill
T5C1.800
; #@! TA.AperFunction,NonPlated,NPTH,ComponentDrill
T6C3.700
%
G90
G05
T1
X132.588Y-126.619
X132.588Y-127.127
X132.588Y-127.635
X137.211Y-122.682
X137.719Y-122.682
X138.227Y-122.682
X138.532Y-102.489
X138.532Y-102.997
X138.532Y-103.505
X139.165Y-99.695
X139.165Y-100.203
X139.165Y-100.711
X142.699Y-108.458
X142.699Y-108.966
X142.699Y-109.474
X143.561Y-99.695
X143.561Y-100.203
X143.561Y-100.711
X143.637Y-113.665
X144.145Y-113.665
X144.526Y-101.522
X144.653Y-113.665
X145.034Y-101.522
X145.542Y-101.522
X145.796Y-108.458
X145.796Y-108.966
X145.796Y-109.474
X148.463Y-117.983
X148.971Y-117.983
X149.479Y-117.983
X150.876Y-117.221
X150.876Y-117.729
X150.876Y-118.237
X151.56Y-119.634
X151.56Y-120.142
X151.56Y-120.65
X152.408Y-106.305
X152.408Y-106.813
X152.408Y-107.321
X157.796Y-111.174
X158.369Y-111.174
X158.939Y-111.174
X161.29Y-104.775
X161.863Y-104.775
X162.433Y-104.775
X162.433Y-99.441
X162.941Y-99.441
X163.195Y-111.455
X163.449Y-99.441
X163.703Y-111.455
X164.211Y-111.455
X164.61Y-125.451
X164.614Y-123.55
X164.915Y-126.467
X164.919Y-122.563
X165.397Y-127.381
X165.422Y-121.629
X165.423Y-125.451
X165.44Y-123.55
X165.982Y-126.797
X165.997Y-122.203
X166.083Y-125.977
X166.092Y-123.042
X166.739Y-128.728
X166.769Y-120.287
X167.313Y-128.153
X167.353Y-120.872
X167.386Y-99.314
X167.673Y-129.231
X167.683Y-119.805
X167.894Y-99.314
X168.152Y-128.058
X168.173Y-120.973
X168.216Y-124.103
X168.216Y-124.942
X168.402Y-99.314
X168.572Y-124.519
X168.66Y-128.71
X168.66Y-129.536
X168.699Y-119.5
X168.699Y-120.313
X169.08Y-124.519
X169.113Y-113.411
X169.621Y-113.411
X169.63Y-124.52
X170.129Y-113.411
X170.149Y-100.254
X170.18Y-124.52
X170.561Y-128.727
X170.561Y-129.54
X170.6Y-119.504
X170.6Y-120.33
X170.688Y-100.254
X170.688Y-124.52
X171.044Y-124.104
X171.044Y-124.943
X171.087Y-128.067
X171.108Y-120.982
X171.227Y-100.254
X171.577Y-101.219
X171.577Y-129.235
X171.587Y-119.809
X171.907Y-128.168
X171.947Y-120.887
X171.958Y-100.838
X172.339Y-100.457
X172.491Y-128.753
X172.521Y-120.312
X173.168Y-125.998
X173.177Y-123.063
X173.263Y-126.837
X173.278Y-122.243
X173.82Y-125.49
X173.837Y-123.589
X173.838Y-127.411
X173.863Y-121.659
X174.341Y-126.477
X174.345Y-122.573
X174.646Y-125.49
X174.65Y-123.589
X175.768Y-110.998
X175.768Y-111.506
X175.768Y-112.014
X176.657Y-112.903
X176.657Y-113.411
X176.657Y-113.919
T2
X166.703Y-124.52
X167.558Y-122.455
X167.558Y-126.585
X169.623Y-121.6
X169.623Y-127.44
X171.688Y-122.455
X171.688Y-126.585
X172.543Y-124.52
T3
X135.001Y-109.271
X135.001Y-116.891
X138.811Y-109.271
X138.811Y-116.891
X167.767Y-109.601
X171.577Y-109.601
T4
X143.713Y-128.905
X143.713Y-131.445
X144.145Y-118.491
X144.145Y-121.031
X148.08Y-128.94
X148.09Y-99.21
X150.62Y-128.94
X150.63Y-99.21
X153.16Y-128.94
X153.17Y-99.21
X155.7Y-128.94
X155.71Y-99.21
X158.24Y-128.94
X158.25Y-99.21
X171.704Y-94.615
X173.984Y-94.615
X174.955Y-100.178
X176.264Y-94.615
X177.495Y-100.178
T5
X148.08Y-125.13
X148.09Y-103.02
X150.63Y-103.02
X153.16Y-125.13
X153.17Y-103.02
X155.7Y-125.13
X155.71Y-103.02
X158.24Y-125.13
X158.25Y-103.02
T6
X134.074Y-96.696
X164.564Y-117.576
X174.714Y-131.466
M30
