%TF.GenerationSoftware,KiCad,Pcbnew,8.0.6*%
%TF.CreationDate,2025-01-21T00:38:54+01:00*%
%TF.ProjectId,3458A Ref A9 Clone,33343538-4120-4526-9566-20413920436c,B*%
%TF.SameCoordinates,Original*%
%TF.FileFunction,Copper,L1,Top*%
%TF.FilePolarity,Positive*%
%FSLAX46Y46*%
G04 Gerber Fmt 4.6, Leading zero omitted, Abs format (unit mm)*
G04 Created by KiCad (PCBNEW 8.0.6) date 2025-01-21 00:38:54*
%MOMM*%
%LPD*%
G01*
G04 APERTURE LIST*
G04 Aperture macros list*
%AMRoundRect*
0 Rectangle with rounded corners*
0 $1 Rounding radius*
0 $2 $3 $4 $5 $6 $7 $8 $9 X,Y pos of 4 corners*
0 Add a 4 corners polygon primitive as box body*
4,1,4,$2,$3,$4,$5,$6,$7,$8,$9,$2,$3,0*
0 Add four circle primitives for the rounded corners*
1,1,$1+$1,$2,$3*
1,1,$1+$1,$4,$5*
1,1,$1+$1,$6,$7*
1,1,$1+$1,$8,$9*
0 Add four rect primitives between the rounded corners*
20,1,$1+$1,$2,$3,$4,$5,0*
20,1,$1+$1,$4,$5,$6,$7,0*
20,1,$1+$1,$6,$7,$8,$9,0*
20,1,$1+$1,$8,$9,$2,$3,0*%
G04 Aperture macros list end*
%TA.AperFunction,Conductor*%
%ADD10C,0.254000*%
%TD*%
%TA.AperFunction,SMDPad,CuDef*%
%ADD11RoundRect,0.150000X-0.825000X-0.150000X0.825000X-0.150000X0.825000X0.150000X-0.825000X0.150000X0*%
%TD*%
%TA.AperFunction,SMDPad,CuDef*%
%ADD12RoundRect,0.250000X-0.362500X-1.425000X0.362500X-1.425000X0.362500X1.425000X-0.362500X1.425000X0*%
%TD*%
%TA.AperFunction,ComponentPad*%
%ADD13C,1.500000*%
%TD*%
%TA.AperFunction,SMDPad,CuDef*%
%ADD14RoundRect,0.405613X-0.588137X-0.919387X0.588137X-0.919387X0.588137X0.919387X-0.588137X0.919387X0*%
%TD*%
%TA.AperFunction,SMDPad,CuDef*%
%ADD15RoundRect,0.420919X-0.610331X-0.904081X0.610331X-0.904081X0.610331X0.904081X-0.610331X0.904081X0*%
%TD*%
%TA.AperFunction,SMDPad,CuDef*%
%ADD16RoundRect,0.225000X-0.375000X0.225000X-0.375000X-0.225000X0.375000X-0.225000X0.375000X0.225000X0*%
%TD*%
%TA.AperFunction,SMDPad,CuDef*%
%ADD17RoundRect,0.250000X0.262500X0.450000X-0.262500X0.450000X-0.262500X-0.450000X0.262500X-0.450000X0*%
%TD*%
%TA.AperFunction,SMDPad,CuDef*%
%ADD18RoundRect,0.250000X0.362500X1.425000X-0.362500X1.425000X-0.362500X-1.425000X0.362500X-1.425000X0*%
%TD*%
%TA.AperFunction,SMDPad,CuDef*%
%ADD19RoundRect,0.405613X0.588137X0.919387X-0.588137X0.919387X-0.588137X-0.919387X0.588137X-0.919387X0*%
%TD*%
%TA.AperFunction,SMDPad,CuDef*%
%ADD20RoundRect,0.420919X0.610331X0.904081X-0.610331X0.904081X-0.610331X-0.904081X0.610331X-0.904081X0*%
%TD*%
%TA.AperFunction,SMDPad,CuDef*%
%ADD21RoundRect,0.250000X-0.650000X0.325000X-0.650000X-0.325000X0.650000X-0.325000X0.650000X0.325000X0*%
%TD*%
%TA.AperFunction,SMDPad,CuDef*%
%ADD22RoundRect,0.250000X-0.262500X-0.450000X0.262500X-0.450000X0.262500X0.450000X-0.262500X0.450000X0*%
%TD*%
%TA.AperFunction,SMDPad,CuDef*%
%ADD23RoundRect,0.250000X0.650000X-0.325000X0.650000X0.325000X-0.650000X0.325000X-0.650000X-0.325000X0*%
%TD*%
%TA.AperFunction,ComponentPad*%
%ADD24R,1.700000X1.524000*%
%TD*%
%TA.AperFunction,ComponentPad*%
%ADD25C,1.700000*%
%TD*%
%TA.AperFunction,SMDPad,CuDef*%
%ADD26RoundRect,0.250000X0.450000X-0.262500X0.450000X0.262500X-0.450000X0.262500X-0.450000X-0.262500X0*%
%TD*%
%TA.AperFunction,SMDPad,CuDef*%
%ADD27RoundRect,0.250000X-0.312500X-0.625000X0.312500X-0.625000X0.312500X0.625000X-0.312500X0.625000X0*%
%TD*%
%TA.AperFunction,SMDPad,CuDef*%
%ADD28RoundRect,0.250000X-0.450000X0.262500X-0.450000X-0.262500X0.450000X-0.262500X0.450000X0.262500X0*%
%TD*%
%TA.AperFunction,SMDPad,CuDef*%
%ADD29RoundRect,0.250000X-0.325000X-0.650000X0.325000X-0.650000X0.325000X0.650000X-0.325000X0.650000X0*%
%TD*%
%TA.AperFunction,SMDPad,CuDef*%
%ADD30RoundRect,0.250000X0.325000X0.650000X-0.325000X0.650000X-0.325000X-0.650000X0.325000X-0.650000X0*%
%TD*%
%TA.AperFunction,SMDPad,CuDef*%
%ADD31RoundRect,0.225000X-0.225000X-0.375000X0.225000X-0.375000X0.225000X0.375000X-0.225000X0.375000X0*%
%TD*%
%TA.AperFunction,ComponentPad*%
%ADD32R,1.710000X1.710000*%
%TD*%
%TA.AperFunction,ComponentPad*%
%ADD33O,1.710000X1.800000*%
%TD*%
%TA.AperFunction,SMDPad,CuDef*%
%ADD34RoundRect,0.150000X-0.587500X-0.150000X0.587500X-0.150000X0.587500X0.150000X-0.587500X0.150000X0*%
%TD*%
%TA.AperFunction,ViaPad*%
%ADD35C,0.600000*%
%TD*%
%TA.AperFunction,Conductor*%
%ADD36C,0.508000*%
%TD*%
%TA.AperFunction,Conductor*%
%ADD37C,0.600000*%
%TD*%
%TA.AperFunction,Conductor*%
%ADD38C,0.200000*%
%TD*%
%ADD39C,0.300000*%
%ADD40C,0.350000*%
G04 APERTURE END LIST*
D10*
%TO.N,Net-(C414-Pad1)*%
X146304000Y-108331000D02*
X146304000Y-109601000D01*
X146177000Y-109728000D01*
X145161000Y-109728000D01*
X145161000Y-108204000D01*
X146177000Y-108204000D01*
X146304000Y-108331000D01*
%TA.AperFunction,Conductor*%
G36*
X146304000Y-108331000D02*
G01*
X146304000Y-109601000D01*
X146177000Y-109728000D01*
X145161000Y-109728000D01*
X145161000Y-108204000D01*
X146177000Y-108204000D01*
X146304000Y-108331000D01*
G37*
%TD.AperFunction*%
%TD*%
D11*
%TO.P,U402,1,+*%
%TO.N,Net-(U402A-+)*%
X150687000Y-108966000D03*
%TO.P,U402,2,V-*%
%TO.N,J400 (2): REF GND*%
X150687000Y-110236000D03*
%TO.P,U402,3,+*%
%TO.N,Net-(U402B-+)*%
X150687000Y-111506000D03*
%TO.P,U402,4,-*%
%TO.N,Net-(U402B--)*%
X150687000Y-112776000D03*
%TO.P,U402,5*%
%TO.N,Net-(D400-A)*%
X155637000Y-112776000D03*
%TO.P,U402,6,V+*%
%TO.N,+18*%
X155637000Y-111506000D03*
%TO.P,U402,7*%
%TO.N,Net-(C1-Pad1)*%
X155637000Y-110236000D03*
%TO.P,U402,8,-*%
%TO.N,Net-(U402A--)*%
X155637000Y-108966000D03*
%TD*%
D12*
%TO.P,R415,1*%
%TO.N,+7V REF*%
X133968900Y-110998000D03*
D13*
X135001000Y-109270800D03*
D14*
X135036800Y-110998000D03*
D13*
%TO.P,R415,2*%
%TO.N,Net-(C411-Pad1)*%
X138811000Y-109270800D03*
D15*
X138861800Y-110998000D03*
D12*
X139893900Y-110998000D03*
%TD*%
D16*
%TO.P,D401,1,K*%
%TO.N,J401 (3): GND Heater*%
X167894000Y-95251000D03*
%TO.P,D401,2,A*%
%TO.N,Net-(D401-A)*%
X167894000Y-98551000D03*
%TD*%
D17*
%TO.P,R416,1*%
%TO.N,Net-(U402A--)*%
X154074500Y-120142000D03*
%TO.P,R416,2*%
%TO.N,J400 (1): Temp*%
X152249500Y-120142000D03*
%TD*%
%TO.P,R1,1*%
%TO.N,Net-(U402B--)*%
X149629500Y-114808000D03*
%TO.P,R1,2*%
%TO.N,ZD-*%
X147804500Y-114808000D03*
%TD*%
D18*
%TO.P,R413,1*%
%TO.N,+7V REF*%
X172634500Y-111328200D03*
D13*
X171577000Y-109601000D03*
D19*
X171566600Y-111328200D03*
D13*
%TO.P,R413,2*%
%TO.N,Net-(C414-Pad1)*%
X167767000Y-109601000D03*
D20*
X167741600Y-111328200D03*
D18*
X166709500Y-111328200D03*
%TD*%
D21*
%TO.P,C412,1*%
%TO.N,Net-(C412-Pad1)*%
X161163000Y-109014999D03*
%TO.P,C412,2*%
%TO.N,Net-(U402A--)*%
X161163000Y-111965001D03*
%TD*%
D22*
%TO.P,R5,1*%
%TO.N,J400 (2): REF GND*%
X135993500Y-102997000D03*
%TO.P,R5,2*%
%TO.N,-15*%
X137818500Y-102997000D03*
%TD*%
D23*
%TO.P,C1,1*%
%TO.N,Net-(C1-Pad1)*%
X158369000Y-111965001D03*
%TO.P,C1,2*%
%TO.N,Net-(U402A--)*%
X158369000Y-109014999D03*
%TD*%
D13*
%TO.P,U401,1*%
%TO.N,Net-(Q401-E)*%
X172543018Y-124519986D03*
%TO.P,U401,2*%
%TO.N,Net-(D401-A)*%
X171687770Y-122455234D03*
%TO.P,U401,3*%
%TO.N,+7V REF*%
X169623018Y-121599986D03*
%TO.P,U401,4*%
%TO.N,ZD-*%
X167558266Y-122455234D03*
%TO.P,U401,5*%
%TO.N,Net-(C411-Pad1)*%
X166703018Y-124519986D03*
%TO.P,U401,6*%
%TO.N,J400 (1): Temp*%
X167558266Y-126584738D03*
%TO.P,U401,7*%
%TO.N,J400 (2): REF GND*%
X169623018Y-127439986D03*
%TO.P,U401,8*%
%TO.N,Net-(C414-Pad1)*%
X171687770Y-126584738D03*
%TD*%
D24*
%TO.P,J400,1,Pin_1*%
%TO.N,J400 (1): Temp*%
X148080000Y-128940000D03*
D25*
%TO.P,J400,2,Pin_2*%
%TO.N,unconnected-(J400-Pin_2-Pad2)*%
X150620000Y-128940000D03*
%TO.P,J400,3,Pin_3*%
%TO.N,J400 (2): REF GND*%
X153160000Y-128940000D03*
%TO.P,J400,4,Pin_4*%
%TO.N,+7V REF*%
X155700000Y-128940000D03*
%TO.P,J400,5,Pin_5*%
%TO.N,J400 (2): REF GND*%
X158240000Y-128940000D03*
%TD*%
D18*
%TO.P,R414,1*%
%TO.N,ZD-*%
X139868500Y-118618000D03*
D13*
X138811000Y-116890800D03*
D19*
X138800600Y-118618000D03*
D13*
%TO.P,R414,2*%
%TO.N,J400 (2): REF GND*%
X135001000Y-116890800D03*
D20*
X134975600Y-118618000D03*
D18*
X133943500Y-118618000D03*
%TD*%
D26*
%TO.P,R6,1*%
%TO.N,J400 (2): REF GND*%
X145034000Y-104036500D03*
%TO.P,R6,2*%
%TO.N,-15*%
X145034000Y-102211500D03*
%TD*%
D11*
%TO.P,RN1,1,R1.1*%
%TO.N,Net-(RN1A-R1.1)*%
X134431000Y-122682000D03*
%TO.P,RN1,2,R2.1*%
%TO.N,J400 (2): REF GND*%
X134431000Y-123952000D03*
%TO.P,RN1,3,R3.1*%
%TO.N,Net-(RN1A-R1.1)*%
X134431000Y-125222000D03*
%TO.P,RN1,4,R4.1*%
%TO.N,J400 (2): REF GND*%
X134431000Y-126492000D03*
%TO.P,RN1,5,R5.1*%
X134431000Y-127762000D03*
%TO.P,RN1,6,R6.1*%
%TO.N,Net-(RN1F-R6.1)*%
X134431000Y-129032000D03*
%TO.P,RN1,7,R7.1*%
%TO.N,J400 (2): REF GND*%
X134431000Y-130302000D03*
%TO.P,RN1,8,R8.1*%
%TO.N,Net-(RN1F-R6.1)*%
X134431000Y-131572000D03*
%TO.P,RN1,9,R8.2*%
%TO.N,J400 (1): Temp*%
X139381000Y-131572000D03*
%TO.P,RN1,10,R7.2*%
X139381000Y-130302000D03*
%TO.P,RN1,11,R6.2*%
%TO.N,Net-(RN1C-R3.2)*%
X139381000Y-129032000D03*
%TO.P,RN1,12,R5.2*%
%TO.N,J400 (1): Temp*%
X139381000Y-127762000D03*
%TO.P,RN1,13,R4.2*%
%TO.N,unconnected-(RN1D-R4.2-Pad13)*%
X139381000Y-126492000D03*
%TO.P,RN1,14,R3.2*%
%TO.N,Net-(RN1C-R3.2)*%
X139381000Y-125222000D03*
%TO.P,RN1,15,R2.2*%
%TO.N,J400 (1): Temp*%
X139381000Y-123952000D03*
%TO.P,RN1,16,R1.2*%
%TO.N,+7V REF*%
X139381000Y-122682000D03*
%TD*%
D27*
%TO.P,R2,1*%
%TO.N,+7V REF*%
X135443500Y-106807000D03*
%TO.P,R2,2*%
%TO.N,Net-(C411-Pad1)*%
X138368500Y-106807000D03*
%TD*%
D28*
%TO.P,R417,1*%
%TO.N,Net-(Q401-E)*%
X158369000Y-118571000D03*
%TO.P,R417,2*%
%TO.N,ZD-*%
X158369000Y-120396000D03*
%TD*%
D25*
%TO.P,TP2,1,1*%
%TO.N,J400 (2): REF GND*%
X143713200Y-131445000D03*
%TD*%
D27*
%TO.P,R419,1*%
%TO.N,J400 (2): REF GND*%
X139888500Y-100203000D03*
%TO.P,R419,2*%
%TO.N,-15*%
X142813500Y-100203000D03*
%TD*%
D29*
%TO.P,C3,1*%
%TO.N,Net-(U402B--)*%
X151686999Y-115062000D03*
%TO.P,C3,2*%
%TO.N,Net-(D400-A)*%
X154637001Y-115062000D03*
%TD*%
D30*
%TO.P,C413,1*%
%TO.N,+18*%
X154618070Y-106812593D03*
%TO.P,C413,2*%
%TO.N,J400 (2): REF GND*%
X151668068Y-106812593D03*
%TD*%
%TO.P,C414,1*%
%TO.N,Net-(C414-Pad1)*%
X144858001Y-108966000D03*
%TO.P,C414,2*%
%TO.N,J400 (2): REF GND*%
X141907999Y-108966000D03*
%TD*%
D25*
%TO.P,TP6,1,1*%
%TO.N,Net-(D401-A)*%
X174955200Y-100177600D03*
%TD*%
D31*
%TO.P,D400,1,K*%
%TO.N,+7V REF*%
X151512000Y-117729000D03*
%TO.P,D400,2,A*%
%TO.N,Net-(D400-A)*%
X154812000Y-117729000D03*
%TD*%
D28*
%TO.P,R421,1*%
%TO.N,Net-(Q1-S)*%
X161036000Y-96115500D03*
%TO.P,R421,2*%
%TO.N,+7V REF*%
X161036000Y-97940500D03*
%TD*%
D22*
%TO.P,R7,1*%
%TO.N,Net-(C411-Pad1)*%
X146661500Y-111506000D03*
%TO.P,R7,2*%
%TO.N,Net-(U402B-+)*%
X148486500Y-111506000D03*
%TD*%
D25*
%TO.P,TP3,1,1*%
%TO.N,ZD-*%
X144145000Y-121031000D03*
%TD*%
%TO.P,TP4,1,1*%
%TO.N,J400 (2): REF GND*%
X144144999Y-118491000D03*
%TD*%
D32*
%TO.P,Q401,1,B*%
%TO.N,J401 (1): Heater*%
X171704000Y-94615000D03*
D33*
%TO.P,Q401,2,C*%
%TO.N,+18H*%
X173984001Y-94615000D03*
%TO.P,Q401,3,E*%
%TO.N,Net-(Q401-E)*%
X176264000Y-94615000D03*
%TD*%
D25*
%TO.P,TP5,1,1*%
%TO.N,Net-(Q401-E)*%
X177495200Y-100177600D03*
%TD*%
D26*
%TO.P,R420,1*%
%TO.N,Net-(Q401-E)*%
X163703000Y-110767500D03*
%TO.P,R420,2*%
%TO.N,Net-(C412-Pad1)*%
X163703000Y-108942500D03*
%TD*%
D17*
%TO.P,R4,1*%
%TO.N,Net-(U402A-+)*%
X148510000Y-108966000D03*
%TO.P,R4,2*%
%TO.N,Net-(C414-Pad1)*%
X146685000Y-108966000D03*
%TD*%
D21*
%TO.P,C411,1*%
%TO.N,Net-(C411-Pad1)*%
X144145000Y-111554999D03*
%TO.P,C411,2*%
%TO.N,J400 (2): REF GND*%
X144145000Y-114505001D03*
%TD*%
D17*
%TO.P,R3,1*%
%TO.N,Net-(Q1-G)*%
X164996500Y-98552000D03*
%TO.P,R3,2*%
%TO.N,+7V REF*%
X163171500Y-98552000D03*
%TD*%
D25*
%TO.P,TP1,1,1*%
%TO.N,J400 (1): Temp*%
X143713200Y-128905000D03*
%TD*%
D28*
%TO.P,R418,1*%
%TO.N,J401 (1): Heater*%
X170688000Y-97743000D03*
%TO.P,R418,2*%
%TO.N,Net-(C1-Pad1)*%
X170688000Y-99568000D03*
%TD*%
D34*
%TO.P,Q1,1,D*%
%TO.N,+18*%
X163400500Y-94554000D03*
%TO.P,Q1,2,S*%
%TO.N,Net-(Q1-S)*%
X163400500Y-96454000D03*
%TO.P,Q1,3,G*%
%TO.N,Net-(Q1-G)*%
X165275501Y-95504000D03*
%TD*%
D23*
%TO.P,C4,1*%
%TO.N,J400 (1): Temp*%
X148971000Y-120093001D03*
%TO.P,C4,2*%
%TO.N,J400 (2): REF GND*%
X148971000Y-117142999D03*
%TD*%
D30*
%TO.P,C5,1*%
%TO.N,ZD-*%
X138381001Y-114427000D03*
%TO.P,C5,2*%
%TO.N,J400 (2): REF GND*%
X135430999Y-114427000D03*
%TD*%
D24*
%TO.P,J401,1,Pin_1*%
%TO.N,J401 (1): Heater*%
X148090000Y-99210000D03*
D25*
%TO.P,J401,2,Pin_2*%
%TO.N,+18*%
X150630000Y-99210000D03*
%TO.P,J401,3,Pin_3*%
%TO.N,J401 (3): GND Heater*%
X153170000Y-99210000D03*
%TO.P,J401,4,Pin_4*%
%TO.N,-15*%
X155710000Y-99210000D03*
%TO.P,J401,5,Pin_5*%
%TO.N,+18H*%
X158250000Y-99210000D03*
%TD*%
D35*
%TO.N,+7V REF*%
X162433001Y-99441001D03*
X137718800Y-122682000D03*
X150876000Y-117221000D03*
X169113200Y-113411000D03*
X150876000Y-118237000D03*
X150876000Y-117729000D03*
X138226800Y-122682000D03*
X137210801Y-122682001D03*
X170129199Y-113410999D03*
X169621200Y-113411000D03*
X162941000Y-99441000D03*
X163449000Y-99441000D03*
%TO.N,J400 (2): REF GND*%
X139164699Y-100203001D03*
X142699002Y-108966002D03*
X152408370Y-107320594D03*
X148462999Y-117983001D03*
X142699002Y-109474002D03*
X142699001Y-108458001D03*
X144653001Y-113665001D03*
X132588000Y-127635000D03*
X149478999Y-117982999D03*
X132588000Y-127127000D03*
X144145000Y-113665000D03*
X143637001Y-113665003D03*
X139164700Y-100710998D03*
X152408368Y-106304593D03*
X132588000Y-126619000D03*
X139164699Y-99694998D03*
X152408370Y-106812593D03*
X148971002Y-117983000D03*
%TO.N,J400 (1): Temp*%
X151559900Y-120142000D03*
X151559900Y-119634000D03*
X151559900Y-120650000D03*
%TO.N,Net-(D401-A)*%
X167386000Y-99314000D03*
X175768000Y-111506000D03*
X167894000Y-99314000D03*
X168402000Y-99314000D03*
X175768001Y-112013999D03*
X175768000Y-110998000D03*
%TO.N,unconnected-(J400-Pin_2-Pad2)*%
X167672582Y-129230870D03*
X168660411Y-129536199D03*
X173263271Y-126836632D03*
X170688000Y-124519986D03*
X168216436Y-124941614D03*
X167352836Y-120871572D03*
X170599625Y-120329957D03*
X168660411Y-128710015D03*
X165981604Y-126797168D03*
X170561000Y-128727200D03*
X173176832Y-123063000D03*
X164610004Y-125450968D03*
X165422804Y-125450968D03*
X170561000Y-129540000D03*
X168216436Y-124103414D03*
X173837232Y-123589004D03*
X164613805Y-123550379D03*
X164914804Y-126466968D03*
X173168239Y-125997718D03*
X174646231Y-125489593D03*
X168173032Y-120973172D03*
X171946664Y-120886733D03*
X174650032Y-123589004D03*
X166768636Y-120287372D03*
X171587454Y-119809102D03*
X171107750Y-120981765D03*
X165422028Y-121628604D03*
X165439989Y-123550379D03*
X171907200Y-128168400D03*
X166083204Y-125976972D03*
X167683036Y-119804772D03*
X170180000Y-124519986D03*
X173278432Y-122242804D03*
X173820047Y-125489593D03*
X172521400Y-120311996D03*
X171043600Y-124942600D03*
X168699036Y-120312772D03*
X171043600Y-124104400D03*
X174340902Y-126477422D03*
X166091797Y-123042254D03*
X164919134Y-122562550D03*
X173862632Y-121658604D03*
X174345232Y-122573004D03*
X166738636Y-128727976D03*
X167313372Y-128153239D03*
X165996765Y-122203340D03*
X172491400Y-128752600D03*
X169630018Y-124519986D03*
X165397404Y-127381368D03*
X173838008Y-127411368D03*
X171577000Y-129235200D03*
X170599625Y-119503773D03*
X168572036Y-124519000D03*
X169080036Y-124519000D03*
X171087004Y-128066800D03*
X168699036Y-119499972D03*
X168152286Y-128058207D03*
%TO.N,-15*%
X145034000Y-101521900D03*
X138531600Y-103505000D03*
X143560800Y-100710999D03*
X144526001Y-101521901D03*
X143560799Y-99695000D03*
X138531600Y-102997000D03*
X138531599Y-102489001D03*
X143560800Y-100203001D03*
X145542000Y-101521900D03*
%TO.N,Net-(Q401-E)*%
X164211000Y-111455200D03*
X176657001Y-113918999D03*
X176657000Y-112903000D03*
X163195000Y-111455200D03*
X172339000Y-100457000D03*
X176657000Y-113411000D03*
X171577000Y-101219000D03*
X163703000Y-111455200D03*
X171958000Y-100838000D03*
%TO.N,Net-(C1-Pad1)*%
X170149185Y-100253800D03*
X171226815Y-100253800D03*
X157796000Y-111173999D03*
X158939000Y-111173999D03*
X158369000Y-111173999D03*
X170688000Y-100253800D03*
%TO.N,Net-(C414-Pad1)*%
X161863000Y-104775000D03*
X162433000Y-104775000D03*
X161290000Y-104775000D03*
%TD*%
D36*
%TO.N,+7V REF*%
X162433000Y-99441000D02*
X161036000Y-98044000D01*
X161036000Y-98044000D02*
X161036000Y-97940500D01*
X163449000Y-99441000D02*
X162433000Y-99441000D01*
X169113200Y-113411000D02*
X170129198Y-113411000D01*
D37*
X135443500Y-108828300D02*
X135443500Y-106934000D01*
X135001000Y-109270800D02*
X135443500Y-108828300D01*
D36*
X163449000Y-99441000D02*
X163449000Y-98829500D01*
X170129198Y-113411000D02*
X170129199Y-113410999D01*
X162433001Y-99290499D02*
X163171500Y-98552000D01*
D38*
X169623018Y-121599986D02*
X169623018Y-113412818D01*
X169623018Y-113412818D02*
X169621200Y-113411000D01*
D37*
X151384000Y-117729000D02*
X150876000Y-118237000D01*
X139381000Y-122682000D02*
X137210802Y-122682000D01*
D36*
X161010601Y-97965899D02*
X161036000Y-97940500D01*
X162433001Y-99441001D02*
X162433001Y-99290499D01*
D37*
X151510001Y-117729000D02*
X151384000Y-117729000D01*
D36*
X163449000Y-98829500D02*
X163171500Y-98552000D01*
D37*
X150876000Y-117221000D02*
X150876000Y-118237000D01*
X151384000Y-117729000D02*
X150876000Y-117221000D01*
D36*
%TO.N,J400 (2): REF GND*%
X135255000Y-102997000D02*
X135993500Y-102997000D01*
D37*
X151892000Y-110236000D02*
X152654000Y-109474000D01*
D36*
X157734000Y-133604000D02*
X153160000Y-129030000D01*
D37*
X142699002Y-109474002D02*
X142367002Y-109474001D01*
D36*
X132715000Y-127762000D02*
X132588000Y-127635000D01*
X133096000Y-130302000D02*
X134431000Y-130302000D01*
D37*
X142367002Y-109474001D02*
X141859000Y-108966003D01*
D36*
X132588000Y-127127000D02*
X132588000Y-127635000D01*
X131953000Y-127127000D02*
X131445000Y-126619000D01*
D37*
X149478999Y-117752500D02*
X148970999Y-117244501D01*
D36*
X148971000Y-117475000D02*
X148970999Y-117244501D01*
D37*
X142367001Y-108458002D02*
X141859000Y-108966003D01*
X148462999Y-117983001D02*
X148463000Y-117752501D01*
D38*
X169623018Y-133144982D02*
X169623018Y-127449990D01*
D37*
X139164699Y-99694998D02*
X139395199Y-99694998D01*
X144652999Y-113665000D02*
X143637000Y-113665000D01*
X150687000Y-110236000D02*
X151892000Y-110236000D01*
X152654000Y-109474000D02*
X152654000Y-106550225D01*
X151668068Y-106456068D02*
X151668068Y-106812593D01*
D36*
X135430999Y-116460801D02*
X135430999Y-114554000D01*
D37*
X142699002Y-109474002D02*
X142699001Y-108458001D01*
D36*
X134258300Y-117633500D02*
X135430999Y-116460801D01*
D37*
X152177871Y-107320594D02*
X151669870Y-106812593D01*
D36*
X134431000Y-126492000D02*
X132842000Y-126492000D01*
D37*
X148462999Y-117983001D02*
X149478998Y-117983001D01*
D36*
X133943500Y-117633500D02*
X134258300Y-117633500D01*
D38*
X164973000Y-133604000D02*
X169164000Y-133604000D01*
D37*
X145034000Y-104036500D02*
X145772500Y-104775000D01*
D36*
X151900369Y-106812592D02*
X151669870Y-106812593D01*
D37*
X152408368Y-106304593D02*
X152177868Y-106304593D01*
X139164700Y-100710998D02*
X139395200Y-100710998D01*
D36*
X132588000Y-124460000D02*
X132588000Y-126619000D01*
X132588000Y-127635000D02*
X132588000Y-129794000D01*
D37*
X143637000Y-113665000D02*
X143637001Y-113891799D01*
X139164699Y-99694998D02*
X139164699Y-100710997D01*
X145772500Y-104775000D02*
X149987000Y-104775000D01*
X139395199Y-99694998D02*
X139903199Y-100202999D01*
X152408370Y-107320594D02*
X152177871Y-107320594D01*
X148463000Y-117752501D02*
X148970999Y-117244501D01*
X149478998Y-117983001D02*
X149478999Y-117982999D01*
D36*
X132588000Y-127127000D02*
X131953000Y-127127000D01*
X134431000Y-123952000D02*
X133096000Y-123952000D01*
X133096000Y-123952000D02*
X132588000Y-124460000D01*
X139672699Y-100202999D02*
X139903199Y-100202999D01*
D37*
X149478999Y-117982999D02*
X149478999Y-117752500D01*
D36*
X139164699Y-100710997D02*
X139164700Y-100710998D01*
X132588000Y-126619000D02*
X132588000Y-127127000D01*
D37*
X144652999Y-113665000D02*
X144652997Y-113891799D01*
D36*
X131445000Y-126619000D02*
X131445000Y-106807000D01*
D37*
X152408368Y-106304593D02*
X152408369Y-107320591D01*
X152177868Y-106304593D02*
X151669870Y-106812593D01*
D38*
X169164000Y-133604000D02*
X169623018Y-133144982D01*
X169623018Y-127449990D02*
X169613014Y-127439986D01*
D37*
X152408369Y-107320591D02*
X152408370Y-107320594D01*
X152654000Y-106550225D02*
X152408368Y-106304593D01*
D36*
X132588000Y-129794000D02*
X133096000Y-130302000D01*
X132715000Y-126492000D02*
X132588000Y-126619000D01*
X131445000Y-106807000D02*
X135255000Y-102997000D01*
X164973000Y-133604000D02*
X157734000Y-133604000D01*
D37*
X139395200Y-100710998D02*
X139903199Y-100202999D01*
D36*
X134431000Y-127762000D02*
X132842000Y-127762000D01*
D37*
X149987000Y-104775000D02*
X151668068Y-106456068D01*
X142699001Y-108458001D02*
X142367001Y-108458002D01*
D36*
%TO.N,Net-(D400-A)*%
X154637001Y-115062000D02*
X154637001Y-117554001D01*
X154637001Y-117554001D02*
X154812000Y-117729000D01*
X154637001Y-114475999D02*
X154637001Y-115062000D01*
X155637000Y-113476000D02*
X154637001Y-114475999D01*
X155637000Y-112776000D02*
X155637000Y-113476000D01*
%TO.N,Net-(U402B--)*%
X150687000Y-113685500D02*
X150622000Y-113750500D01*
X149629500Y-114657500D02*
X150536500Y-113750500D01*
X149629500Y-114808000D02*
X149629500Y-114657500D01*
X151686999Y-114602999D02*
X151686999Y-115062000D01*
X150687000Y-112776000D02*
X150687000Y-113685500D01*
X150536500Y-113750500D02*
X150834500Y-113750500D01*
X150834500Y-113750500D02*
X151686999Y-114602999D01*
%TO.N,Net-(U402B-+)*%
X150687000Y-111506000D02*
X148486500Y-111506000D01*
%TO.N,J400 (1): Temp*%
X159512000Y-126873000D02*
X150147000Y-126873000D01*
X141224000Y-131064000D02*
X141224000Y-124460000D01*
D38*
X165619004Y-128524000D02*
X167558266Y-126584738D01*
D37*
X151559900Y-120142000D02*
X151559900Y-120650000D01*
D36*
X140716000Y-131572000D02*
X141224000Y-131064000D01*
X139381000Y-130302000D02*
X141097000Y-130302000D01*
D38*
X161163000Y-128524000D02*
X165619004Y-128524000D01*
D37*
X151559900Y-120142000D02*
X151559900Y-119634000D01*
D38*
X159512000Y-126873000D02*
X161163000Y-128524000D01*
D37*
X152067900Y-120142000D02*
X151559900Y-119634000D01*
X149019999Y-120142000D02*
X148971000Y-120093001D01*
X152067900Y-120142000D02*
X151559900Y-120650000D01*
D36*
X139381000Y-131572000D02*
X140716000Y-131572000D01*
D37*
X152298400Y-120142000D02*
X152067900Y-120142000D01*
D36*
X142621000Y-127762000D02*
X139381000Y-127762000D01*
X143799000Y-128940000D02*
X142621000Y-127762000D01*
X150147000Y-126873000D02*
X148080000Y-128940000D01*
X140716000Y-123952000D02*
X139381000Y-123952000D01*
D37*
X151559900Y-120142000D02*
X149019999Y-120142000D01*
D36*
X148080000Y-128940000D02*
X143799000Y-128940000D01*
X140716000Y-123952000D02*
X141224000Y-124460000D01*
D38*
%TO.N,ZD-*%
X165499032Y-120396000D02*
X167558266Y-122455234D01*
D36*
X147804500Y-114808000D02*
X147804500Y-114958500D01*
X158242000Y-120396000D02*
X157099000Y-121539000D01*
X146431000Y-116332000D02*
X146431000Y-121539000D01*
X140122500Y-118364000D02*
X139868500Y-118618000D01*
X139868500Y-117948300D02*
X139868500Y-118618000D01*
D38*
X158369000Y-120396000D02*
X165499032Y-120396000D01*
D36*
X138381001Y-114554000D02*
X138381001Y-116460801D01*
X158369000Y-120396000D02*
X158242000Y-120396000D01*
X147804500Y-114958500D02*
X146431000Y-116332000D01*
X157099000Y-121539000D02*
X144018000Y-121539000D01*
X138381001Y-116460801D02*
X139868500Y-117948300D01*
X141097000Y-118618000D02*
X138800600Y-118618000D01*
X144018000Y-121539000D02*
X141097000Y-118618000D01*
%TO.N,Net-(C412-Pad1)*%
X163630501Y-109014999D02*
X163703000Y-108942500D01*
X161163000Y-109014999D02*
X163630501Y-109014999D01*
%TO.N,Net-(U402A--)*%
X158320001Y-108966000D02*
X158369000Y-109014999D01*
X156464000Y-119380000D02*
X156464000Y-117602000D01*
X155702000Y-120142000D02*
X156464000Y-119380000D01*
X158393499Y-109014999D02*
X160528000Y-111149500D01*
X158369000Y-109014999D02*
X158393499Y-109014999D01*
X155637000Y-108966000D02*
X158320001Y-108966000D01*
X161163000Y-112903000D02*
X161163000Y-111965001D01*
X160656801Y-111965001D02*
X161163000Y-111965001D01*
X160528000Y-111836200D02*
X160656801Y-111965001D01*
X160528000Y-111149500D02*
X160528000Y-111836200D01*
X154074500Y-120142000D02*
X155702000Y-120142000D01*
X156464000Y-117602000D02*
X161163000Y-112903000D01*
%TO.N,+18*%
X154618070Y-106731070D02*
X154618070Y-106812593D01*
D37*
X155637000Y-111506000D02*
X154305000Y-111506000D01*
D38*
X163007000Y-94554000D02*
X163400500Y-94554000D01*
D36*
X154405070Y-107025594D02*
X154618071Y-106812593D01*
X154618071Y-106812593D02*
X154618069Y-107115591D01*
D37*
X154618070Y-107128930D02*
X154618070Y-106812593D01*
X153670000Y-108077000D02*
X154618070Y-107128930D01*
D36*
X150630000Y-100846000D02*
X150630000Y-99210000D01*
X151900000Y-104013000D02*
X154618070Y-106731070D01*
X151384000Y-101600000D02*
X150630000Y-100846000D01*
X154194000Y-93726000D02*
X162179000Y-93726000D01*
X162179000Y-93726000D02*
X163007000Y-94554000D01*
X150630000Y-97290000D02*
X154194000Y-93726000D01*
D37*
X153670000Y-110871000D02*
X153670000Y-108077000D01*
X154305000Y-111506000D02*
X153670000Y-110871000D01*
D38*
X151900000Y-104013000D02*
X151900000Y-102116000D01*
X151900000Y-102116000D02*
X151384000Y-101600000D01*
D36*
X150630000Y-99210000D02*
X150630000Y-97290000D01*
%TO.N,Net-(U402A-+)*%
X150687000Y-108966000D02*
X148510000Y-108966000D01*
D37*
%TO.N,Net-(D401-A)*%
X168402000Y-99314000D02*
X167386000Y-99314000D01*
X168402000Y-99059000D02*
X167894000Y-98551000D01*
X167386000Y-99059000D02*
X167894000Y-98551000D01*
D36*
X175768000Y-116586000D02*
X175768000Y-110998000D01*
D37*
X167386000Y-99314000D02*
X167386000Y-99059000D01*
X168402000Y-99314000D02*
X168402000Y-99059000D01*
D36*
X167894000Y-99314000D02*
X167894000Y-98551000D01*
D38*
X175768000Y-118375004D02*
X171687770Y-122455234D01*
X175768000Y-116586000D02*
X175768000Y-118375004D01*
D36*
%TO.N,J401 (3): GND Heater*%
X153170000Y-99210000D02*
X155052000Y-101092000D01*
X166370000Y-99822000D02*
X166370000Y-97536000D01*
X167894000Y-96012000D02*
X167894000Y-95251000D01*
X165100000Y-101092000D02*
X166370000Y-99822000D01*
X155052000Y-101092000D02*
X165100000Y-101092000D01*
X166370000Y-97536000D02*
X167894000Y-96012000D01*
%TO.N,J401 (1): Heater*%
X171704000Y-96774000D02*
X171704000Y-94615000D01*
X170688000Y-97743000D02*
X170862000Y-97743000D01*
X170735000Y-97743000D02*
X171704000Y-96774000D01*
D37*
%TO.N,-15*%
X138301099Y-102489001D02*
X137793100Y-102997000D01*
X143560799Y-99695000D02*
X143560799Y-100710998D01*
X138531599Y-102489001D02*
X138531599Y-103504999D01*
X138531599Y-102489001D02*
X138301099Y-102489001D01*
X143330299Y-99695000D02*
X142822300Y-100202999D01*
X143560799Y-100710998D02*
X143560800Y-100710999D01*
X143330300Y-100710999D02*
X142822300Y-100202999D01*
X138531599Y-103504999D02*
X138531600Y-103505000D01*
X138301100Y-103505000D02*
X137793100Y-102997000D01*
X144526001Y-101752401D02*
X145034000Y-102260400D01*
X145542000Y-101521900D02*
X145542000Y-101752400D01*
X144526001Y-101521901D02*
X145541999Y-101521901D01*
X145541999Y-101521901D02*
X145542000Y-101521900D01*
D36*
X138023600Y-102997000D02*
X137793100Y-102997000D01*
D37*
X143560799Y-99695000D02*
X143330299Y-99695000D01*
D36*
X145034000Y-102029900D02*
X145034000Y-102260400D01*
D37*
X144526001Y-101521901D02*
X144526001Y-101752401D01*
D36*
X143052800Y-100202999D02*
X142822300Y-100202999D01*
D37*
X145542000Y-101752400D02*
X145034000Y-102260400D01*
X138531600Y-103505000D02*
X138301100Y-103505000D01*
X143560800Y-100710999D02*
X143330300Y-100710999D01*
%TO.N,Net-(Q401-E)*%
X164211000Y-111455200D02*
X163195000Y-111455200D01*
D36*
X158543000Y-118571000D02*
X163703000Y-113411000D01*
X158369000Y-118571000D02*
X158543000Y-118571000D01*
D37*
X164211000Y-111455200D02*
X164211000Y-111304700D01*
D36*
X163703000Y-113411000D02*
X163703000Y-111275500D01*
D38*
X176657000Y-117475000D02*
X176657000Y-123190000D01*
D37*
X163195000Y-111304700D02*
X163703000Y-110796700D01*
X164211000Y-111304700D02*
X163703000Y-110796700D01*
D38*
X175327014Y-124519986D02*
X172543018Y-124519986D01*
D36*
X176657000Y-117475000D02*
X176657000Y-112903000D01*
D37*
X163195000Y-111455200D02*
X163195000Y-111304700D01*
D36*
X176264000Y-96532000D02*
X176264000Y-94615000D01*
X171577000Y-101219000D02*
X176264000Y-96532000D01*
D38*
X176657000Y-123190000D02*
X175327014Y-124519986D01*
D37*
%TO.N,Net-(C1-Pad1)*%
X170149185Y-100155715D02*
X170688000Y-99616900D01*
D36*
X155637000Y-110236000D02*
X156972000Y-110236000D01*
D37*
X170149185Y-100253800D02*
X170149185Y-100155715D01*
X158369000Y-111887000D02*
X158939000Y-111317000D01*
D36*
X170688000Y-100101400D02*
X170688000Y-99616900D01*
D37*
X170149185Y-100253800D02*
X171226815Y-100253800D01*
D36*
X156972000Y-110236000D02*
X157988000Y-111252000D01*
D37*
X171226815Y-100155715D02*
X170688000Y-99616900D01*
X158939000Y-111317000D02*
X158939000Y-111173999D01*
X171226815Y-100253800D02*
X171226815Y-100155715D01*
D36*
X157988000Y-111173999D02*
X158369000Y-111173999D01*
D37*
X157796000Y-111173999D02*
X157796000Y-111314000D01*
X157796000Y-111314000D02*
X158369000Y-111887000D01*
X157796000Y-111173999D02*
X158939000Y-111173999D01*
D36*
%TO.N,Net-(RN1C-R3.2)*%
X139381000Y-125222000D02*
X138176000Y-125222000D01*
X138176000Y-129032000D02*
X139381000Y-129032000D01*
X137541000Y-128397000D02*
X138176000Y-129032000D01*
X137541000Y-125857000D02*
X137541000Y-128397000D01*
X138176000Y-125222000D02*
X137541000Y-125857000D01*
%TO.N,Net-(RN1F-R6.1)*%
X135636000Y-131572000D02*
X134431000Y-131572000D01*
X134431000Y-129032000D02*
X135636000Y-129032000D01*
X135636000Y-129032000D02*
X136271000Y-129667000D01*
X136271000Y-129667000D02*
X136271000Y-130937000D01*
X136271000Y-130937000D02*
X135636000Y-131572000D01*
%TO.N,Net-(RN1A-R1.1)*%
X136271000Y-123317000D02*
X136271000Y-124587000D01*
X135636000Y-125222000D02*
X134431000Y-125222000D01*
X134431000Y-122682000D02*
X135636000Y-122682000D01*
X136271000Y-124587000D02*
X135636000Y-125222000D01*
X135636000Y-122682000D02*
X136271000Y-123317000D01*
D38*
%TO.N,Net-(C414-Pad1)*%
X177292000Y-128524000D02*
X173627032Y-128524000D01*
D36*
X174498000Y-107823000D02*
X167767000Y-107823000D01*
X167767000Y-109601000D02*
X167767000Y-107823000D01*
D38*
X173627032Y-128524000D02*
X171687770Y-126584738D01*
X178054000Y-120015000D02*
X178054000Y-127762000D01*
D36*
X178054000Y-111379000D02*
X174498000Y-107823000D01*
D38*
X178054000Y-127762000D02*
X177292000Y-128524000D01*
D36*
X167767000Y-107823000D02*
X164719000Y-104775000D01*
X178054000Y-120015000D02*
X178054000Y-111379000D01*
X164719000Y-104775000D02*
X161290000Y-104775000D01*
%TO.N,Net-(Q1-S)*%
X163400500Y-96454000D02*
X162367000Y-96454000D01*
X162028500Y-96115500D02*
X161036000Y-96115500D01*
X162367000Y-96454000D02*
X162028500Y-96115500D01*
%TO.N,Net-(C411-Pad1)*%
X159131000Y-123190000D02*
X142875000Y-123190000D01*
X140970000Y-121285000D02*
X137795000Y-121285000D01*
X140401900Y-111506000D02*
X139893900Y-110998000D01*
X137795000Y-121285000D02*
X136906000Y-120396000D01*
D38*
X160460986Y-124519986D02*
X166703018Y-124519986D01*
D37*
X138368500Y-108828300D02*
X138368500Y-106934000D01*
X138811000Y-109270800D02*
X138368500Y-108828300D01*
D38*
X159131000Y-123190000D02*
X160460986Y-124519986D01*
D36*
X136906000Y-113157000D02*
X138861800Y-111201200D01*
X138861800Y-111201200D02*
X138861800Y-110998000D01*
X136906000Y-120396000D02*
X136906000Y-113157000D01*
X142875000Y-123190000D02*
X140970000Y-121285000D01*
X146661500Y-111506000D02*
X140401900Y-111506000D01*
%TO.N,Net-(Q1-G)*%
X164996500Y-96750500D02*
X165275501Y-96471499D01*
X164996500Y-98552000D02*
X164996500Y-96750500D01*
X165275501Y-96471499D02*
X165275501Y-95504000D01*
%TD*%
%TA.AperFunction,Conductor*%
%TO.N,unconnected-(J400-Pin_2-Pad2)*%
G36*
X170908715Y-127438693D02*
G01*
X170936259Y-127456460D01*
X170971733Y-127488799D01*
X170991468Y-127506790D01*
X170991469Y-127506791D01*
X171095159Y-127570993D01*
X171172751Y-127619036D01*
X171371572Y-127696059D01*
X171581160Y-127735238D01*
X171794380Y-127735238D01*
X172003968Y-127696059D01*
X172006730Y-127694988D01*
X172007975Y-127694919D01*
X172008374Y-127694806D01*
X172008399Y-127694895D01*
X172067817Y-127691587D01*
X172112511Y-127717293D01*
X173034656Y-128639438D01*
X173062433Y-128693955D01*
X173052862Y-128754387D01*
X173023440Y-128789097D01*
X172705242Y-129023937D01*
X172699125Y-129028108D01*
X172360053Y-129241162D01*
X172353658Y-129244854D01*
X171999617Y-129431969D01*
X171992961Y-129435175D01*
X171625911Y-129595317D01*
X171619020Y-129598021D01*
X171241056Y-129730277D01*
X171233981Y-129732460D01*
X170847181Y-129836102D01*
X170839963Y-129837749D01*
X170446503Y-129912196D01*
X170439182Y-129913300D01*
X170233602Y-129936463D01*
X170173661Y-129924189D01*
X170132381Y-129879027D01*
X170123518Y-129838085D01*
X170123518Y-128538416D01*
X170142425Y-128480225D01*
X170170401Y-128454245D01*
X170319318Y-128362039D01*
X170319316Y-128362039D01*
X170319320Y-128362038D01*
X170476890Y-128218393D01*
X170605384Y-128048241D01*
X170700423Y-127857375D01*
X170758774Y-127652296D01*
X170770987Y-127520486D01*
X170795183Y-127464291D01*
X170847790Y-127433047D01*
X170908715Y-127438693D01*
G37*
%TD.AperFunction*%
%TA.AperFunction,Conductor*%
G36*
X168425441Y-127443583D02*
G01*
X168466662Y-127488799D01*
X168475048Y-127520484D01*
X168484180Y-127619032D01*
X168487262Y-127652297D01*
X168510467Y-127733853D01*
X168545613Y-127857375D01*
X168640652Y-128048241D01*
X168769146Y-128218393D01*
X168769153Y-128218399D01*
X168926710Y-128362033D01*
X168926717Y-128362039D01*
X169075635Y-128454245D01*
X169115156Y-128500953D01*
X169122518Y-128538416D01*
X169122518Y-129836508D01*
X169103611Y-129894699D01*
X169054111Y-129930663D01*
X169012434Y-129934886D01*
X168820852Y-129913300D01*
X168813531Y-129912196D01*
X168420071Y-129837749D01*
X168412853Y-129836102D01*
X168026053Y-129732460D01*
X168018978Y-129730277D01*
X167641014Y-129598021D01*
X167634123Y-129595317D01*
X167267073Y-129435175D01*
X167260427Y-129431974D01*
X166906365Y-129244847D01*
X166899989Y-129241167D01*
X166705867Y-129119192D01*
X166560909Y-129028108D01*
X166554792Y-129023937D01*
X166232601Y-128786151D01*
X166226825Y-128781545D01*
X166223014Y-128778266D01*
X166191243Y-128725979D01*
X166196273Y-128665001D01*
X166217587Y-128633229D01*
X167133525Y-127717291D01*
X167188040Y-127689516D01*
X167237660Y-127694811D01*
X167237662Y-127694806D01*
X167237692Y-127694814D01*
X167239298Y-127694986D01*
X167242066Y-127696059D01*
X167451656Y-127735238D01*
X167664876Y-127735238D01*
X167874464Y-127696059D01*
X168073285Y-127619036D01*
X168254568Y-127506790D01*
X168309775Y-127456461D01*
X168365515Y-127431231D01*
X168425441Y-127443583D01*
G37*
%TD.AperFunction*%
%TA.AperFunction,Conductor*%
G36*
X175005521Y-125039393D02*
G01*
X175041485Y-125088893D01*
X175045707Y-125130571D01*
X175023331Y-125329151D01*
X175022228Y-125336471D01*
X174947781Y-125729931D01*
X174946134Y-125737149D01*
X174842492Y-126123949D01*
X174840309Y-126131024D01*
X174708053Y-126508988D01*
X174705349Y-126515879D01*
X174545207Y-126882929D01*
X174542001Y-126889585D01*
X174354886Y-127243626D01*
X174351194Y-127250021D01*
X174138140Y-127589093D01*
X174133969Y-127595210D01*
X173896182Y-127917402D01*
X173891566Y-127923190D01*
X173888301Y-127926984D01*
X173836013Y-127958758D01*
X173775035Y-127953730D01*
X173743258Y-127932412D01*
X172816900Y-127006054D01*
X172789123Y-126951537D01*
X172791684Y-126908956D01*
X172798127Y-126886315D01*
X172823526Y-126797048D01*
X172843199Y-126584738D01*
X172823526Y-126372428D01*
X172765175Y-126167349D01*
X172670136Y-125976483D01*
X172558871Y-125829146D01*
X172538893Y-125771316D01*
X172556722Y-125712785D01*
X172605549Y-125675913D01*
X172637876Y-125670486D01*
X172649628Y-125670486D01*
X172859216Y-125631307D01*
X173058037Y-125554284D01*
X173239320Y-125442038D01*
X173396890Y-125298393D01*
X173525384Y-125128241D01*
X173551716Y-125075357D01*
X173594578Y-125031696D01*
X173640337Y-125020486D01*
X174947330Y-125020486D01*
X175005521Y-125039393D01*
G37*
%TD.AperFunction*%
%TA.AperFunction,Conductor*%
G36*
X165663890Y-125039393D02*
G01*
X165694319Y-125075356D01*
X165720652Y-125128241D01*
X165849146Y-125298393D01*
X165890915Y-125336471D01*
X166006710Y-125442033D01*
X166006717Y-125442039D01*
X166110407Y-125506241D01*
X166187999Y-125554284D01*
X166386820Y-125631307D01*
X166596408Y-125670486D01*
X166608160Y-125670486D01*
X166666351Y-125689393D01*
X166702315Y-125738893D01*
X166702315Y-125800079D01*
X166687164Y-125829147D01*
X166575901Y-125976481D01*
X166575896Y-125976490D01*
X166480862Y-126167346D01*
X166422510Y-126372426D01*
X166402837Y-126584738D01*
X166422510Y-126797049D01*
X166454351Y-126908958D01*
X166452090Y-126970101D01*
X166429134Y-127006054D01*
X165510564Y-127924624D01*
X165456047Y-127952401D01*
X165395615Y-127942830D01*
X165360905Y-127913408D01*
X165126065Y-127595210D01*
X165121894Y-127589093D01*
X164908830Y-127250004D01*
X164905159Y-127243646D01*
X164718022Y-126889564D01*
X164714834Y-126882944D01*
X164554683Y-126515875D01*
X164551981Y-126508988D01*
X164504196Y-126372428D01*
X164419724Y-126131021D01*
X164417542Y-126123949D01*
X164313900Y-125737149D01*
X164312253Y-125729931D01*
X164299529Y-125662686D01*
X164263718Y-125473417D01*
X164237806Y-125336471D01*
X164236703Y-125329151D01*
X164214328Y-125130571D01*
X164226601Y-125070629D01*
X164271763Y-125029349D01*
X164312705Y-125020486D01*
X165605699Y-125020486D01*
X165663890Y-125039393D01*
G37*
%TD.AperFunction*%
%TA.AperFunction,Conductor*%
G36*
X170490193Y-122458831D02*
G01*
X170531414Y-122504047D01*
X170539800Y-122535732D01*
X170548932Y-122634280D01*
X170552014Y-122667545D01*
X170564466Y-122711307D01*
X170610365Y-122872623D01*
X170705404Y-123063489D01*
X170833898Y-123233641D01*
X170904504Y-123298007D01*
X170991462Y-123377281D01*
X170991469Y-123377287D01*
X171095159Y-123441489D01*
X171172751Y-123489532D01*
X171371572Y-123566555D01*
X171581160Y-123605734D01*
X171592912Y-123605734D01*
X171651103Y-123624641D01*
X171687067Y-123674141D01*
X171687067Y-123735327D01*
X171671916Y-123764395D01*
X171560653Y-123911729D01*
X171560648Y-123911738D01*
X171465614Y-124102594D01*
X171407262Y-124307674D01*
X171387589Y-124519986D01*
X171407262Y-124732297D01*
X171465614Y-124937377D01*
X171560648Y-125128233D01*
X171560653Y-125128242D01*
X171671916Y-125275577D01*
X171691895Y-125333408D01*
X171674066Y-125391939D01*
X171625239Y-125428811D01*
X171592912Y-125434238D01*
X171581160Y-125434238D01*
X171371574Y-125473416D01*
X171172750Y-125550440D01*
X171172745Y-125550443D01*
X170991469Y-125662684D01*
X170991462Y-125662690D01*
X170833905Y-125806324D01*
X170833901Y-125806327D01*
X170833898Y-125806331D01*
X170833895Y-125806335D01*
X170705405Y-125976481D01*
X170705400Y-125976490D01*
X170610366Y-126167346D01*
X170552014Y-126372426D01*
X170539800Y-126504235D01*
X170515603Y-126560433D01*
X170462996Y-126591676D01*
X170402072Y-126586030D01*
X170374527Y-126568262D01*
X170319320Y-126517934D01*
X170319319Y-126517933D01*
X170319318Y-126517932D01*
X170138042Y-126405691D01*
X170138037Y-126405688D01*
X169939213Y-126328664D01*
X169729628Y-126289486D01*
X169516408Y-126289486D01*
X169306822Y-126328664D01*
X169107998Y-126405688D01*
X169107993Y-126405691D01*
X168926717Y-126517932D01*
X168926716Y-126517933D01*
X168871509Y-126568262D01*
X168815768Y-126593492D01*
X168755842Y-126581140D01*
X168714622Y-126535923D01*
X168706235Y-126504235D01*
X168694022Y-126372428D01*
X168635671Y-126167349D01*
X168540632Y-125976483D01*
X168412138Y-125806331D01*
X168337931Y-125738682D01*
X168254573Y-125662690D01*
X168254566Y-125662684D01*
X168073290Y-125550443D01*
X168073285Y-125550440D01*
X167874461Y-125473416D01*
X167664876Y-125434238D01*
X167653124Y-125434238D01*
X167594933Y-125415331D01*
X167558969Y-125365831D01*
X167558969Y-125304645D01*
X167574120Y-125275577D01*
X167620031Y-125214781D01*
X167685384Y-125128241D01*
X167780423Y-124937375D01*
X167838774Y-124732296D01*
X167858447Y-124519986D01*
X167838774Y-124307676D01*
X167780423Y-124102597D01*
X167685384Y-123911731D01*
X167574119Y-123764394D01*
X167554141Y-123706564D01*
X167571970Y-123648033D01*
X167620797Y-123611161D01*
X167653124Y-123605734D01*
X167664876Y-123605734D01*
X167874464Y-123566555D01*
X168073285Y-123489532D01*
X168254568Y-123377286D01*
X168412138Y-123233641D01*
X168540632Y-123063489D01*
X168635671Y-122872623D01*
X168694022Y-122667544D01*
X168706235Y-122535734D01*
X168730431Y-122479539D01*
X168783038Y-122448295D01*
X168843963Y-122453941D01*
X168871507Y-122471708D01*
X168906981Y-122504047D01*
X168926716Y-122522038D01*
X168926717Y-122522039D01*
X168992844Y-122562983D01*
X169107999Y-122634284D01*
X169306820Y-122711307D01*
X169516408Y-122750486D01*
X169729628Y-122750486D01*
X169939216Y-122711307D01*
X170138037Y-122634284D01*
X170319320Y-122522038D01*
X170374527Y-122471709D01*
X170430267Y-122446479D01*
X170490193Y-122458831D01*
G37*
%TD.AperFunction*%
%TA.AperFunction,Conductor*%
G36*
X165471856Y-121091427D02*
G01*
X165510564Y-121115346D01*
X166429134Y-122033916D01*
X166456911Y-122088433D01*
X166454351Y-122131012D01*
X166422510Y-122242922D01*
X166402837Y-122455234D01*
X166422510Y-122667545D01*
X166434962Y-122711307D01*
X166480861Y-122872623D01*
X166575900Y-123063489D01*
X166687164Y-123210825D01*
X166707143Y-123268656D01*
X166689314Y-123327187D01*
X166640487Y-123364059D01*
X166608160Y-123369486D01*
X166596408Y-123369486D01*
X166386822Y-123408664D01*
X166187998Y-123485688D01*
X166187993Y-123485691D01*
X166006717Y-123597932D01*
X166006710Y-123597938D01*
X165849153Y-123741572D01*
X165849149Y-123741575D01*
X165849146Y-123741579D01*
X165849143Y-123741583D01*
X165720653Y-123911729D01*
X165720652Y-123911731D01*
X165694319Y-123964614D01*
X165651458Y-124008276D01*
X165605699Y-124019486D01*
X164312705Y-124019486D01*
X164254514Y-124000579D01*
X164218550Y-123951079D01*
X164214328Y-123909401D01*
X164236703Y-123710819D01*
X164237806Y-123703499D01*
X164257780Y-123597934D01*
X164312254Y-123310030D01*
X164313900Y-123302821D01*
X164417545Y-122916010D01*
X164419725Y-122908946D01*
X164551986Y-122530968D01*
X164554679Y-122524104D01*
X164714839Y-122157015D01*
X164718016Y-122150417D01*
X164905165Y-121796312D01*
X164908823Y-121789977D01*
X165121902Y-121450864D01*
X165126055Y-121444773D01*
X165360905Y-121126561D01*
X165410672Y-121090969D01*
X165471856Y-121091427D01*
G37*
%TD.AperFunction*%
%TA.AperFunction,Conductor*%
G36*
X173858207Y-121089352D02*
G01*
X173888297Y-121112982D01*
X173891577Y-121116793D01*
X173896183Y-121122569D01*
X174133969Y-121444760D01*
X174138140Y-121450877D01*
X174351194Y-121789949D01*
X174354879Y-121796333D01*
X174542006Y-122150395D01*
X174545207Y-122157041D01*
X174705349Y-122524091D01*
X174708053Y-122530982D01*
X174840309Y-122908946D01*
X174842492Y-122916021D01*
X174946134Y-123302821D01*
X174947781Y-123310039D01*
X175022228Y-123703499D01*
X175023331Y-123710819D01*
X175045707Y-123909401D01*
X175033435Y-123969343D01*
X174988273Y-124010623D01*
X174947330Y-124019486D01*
X173640337Y-124019486D01*
X173582146Y-124000579D01*
X173551716Y-123964615D01*
X173525384Y-123911731D01*
X173396890Y-123741579D01*
X173268616Y-123624641D01*
X173239325Y-123597938D01*
X173239318Y-123597932D01*
X173058042Y-123485691D01*
X173058037Y-123485688D01*
X172859213Y-123408664D01*
X172649628Y-123369486D01*
X172637876Y-123369486D01*
X172579685Y-123350579D01*
X172543721Y-123301079D01*
X172543721Y-123239893D01*
X172558872Y-123210825D01*
X172670136Y-123063489D01*
X172765175Y-122872623D01*
X172823526Y-122667544D01*
X172843199Y-122455234D01*
X172823526Y-122242924D01*
X172791683Y-122131010D01*
X172793944Y-122069870D01*
X172816898Y-122033918D01*
X173743260Y-121107556D01*
X173797775Y-121079781D01*
X173858207Y-121089352D01*
G37*
%TD.AperFunction*%
%TA.AperFunction,Conductor*%
G36*
X170439185Y-119126671D02*
G01*
X170446498Y-119127773D01*
X170839966Y-119202221D01*
X170847178Y-119203867D01*
X171233984Y-119307511D01*
X171241053Y-119309692D01*
X171619025Y-119441951D01*
X171625907Y-119444651D01*
X171992976Y-119604802D01*
X171999596Y-119607990D01*
X172353678Y-119795127D01*
X172360036Y-119798798D01*
X172568219Y-119929608D01*
X172699125Y-120011862D01*
X172705242Y-120016033D01*
X173023440Y-120250873D01*
X173059033Y-120300640D01*
X173058575Y-120361824D01*
X173034656Y-120400532D01*
X172112511Y-121322677D01*
X172057994Y-121350454D01*
X172008373Y-121345164D01*
X172008373Y-121345166D01*
X172008365Y-121345163D01*
X172006754Y-121344992D01*
X172003967Y-121343912D01*
X171794380Y-121304734D01*
X171581160Y-121304734D01*
X171371574Y-121343912D01*
X171172750Y-121420936D01*
X171172745Y-121420939D01*
X170991469Y-121533180D01*
X170991468Y-121533181D01*
X170936261Y-121583510D01*
X170880520Y-121608740D01*
X170820594Y-121596388D01*
X170779374Y-121551171D01*
X170770987Y-121519483D01*
X170764063Y-121444760D01*
X170758774Y-121387676D01*
X170700423Y-121182597D01*
X170605384Y-120991731D01*
X170476890Y-120821579D01*
X170409563Y-120760202D01*
X170319325Y-120677938D01*
X170319318Y-120677932D01*
X170170401Y-120585726D01*
X170130880Y-120539017D01*
X170123518Y-120501555D01*
X170123518Y-119201884D01*
X170142425Y-119143693D01*
X170191925Y-119107729D01*
X170233603Y-119103507D01*
X170439185Y-119126671D01*
G37*
%TD.AperFunction*%
%TA.AperFunction,Conductor*%
G36*
X169072375Y-119117356D02*
G01*
X169113655Y-119162518D01*
X169122518Y-119203460D01*
X169122518Y-120501555D01*
X169103611Y-120559746D01*
X169075635Y-120585726D01*
X168926717Y-120677932D01*
X168926710Y-120677938D01*
X168769153Y-120821572D01*
X168769149Y-120821575D01*
X168769146Y-120821579D01*
X168769143Y-120821583D01*
X168640653Y-120991729D01*
X168640648Y-120991738D01*
X168545614Y-121182594D01*
X168487262Y-121387674D01*
X168475048Y-121519483D01*
X168450851Y-121575681D01*
X168398244Y-121606924D01*
X168337320Y-121601278D01*
X168309775Y-121583510D01*
X168254568Y-121533182D01*
X168254567Y-121533181D01*
X168254566Y-121533180D01*
X168073290Y-121420939D01*
X168073285Y-121420936D01*
X167891348Y-121350454D01*
X167874464Y-121343913D01*
X167874463Y-121343912D01*
X167874461Y-121343912D01*
X167664876Y-121304734D01*
X167451656Y-121304734D01*
X167242068Y-121343912D01*
X167239288Y-121344990D01*
X167238037Y-121345059D01*
X167237663Y-121345166D01*
X167237638Y-121345081D01*
X167178197Y-121348378D01*
X167133524Y-121322678D01*
X166217590Y-120406744D01*
X166189813Y-120352227D01*
X166199384Y-120291795D01*
X166223011Y-120261707D01*
X166226841Y-120258411D01*
X166232581Y-120253834D01*
X166554805Y-120016023D01*
X166560896Y-120011870D01*
X166900009Y-119798791D01*
X166906344Y-119795133D01*
X167260449Y-119607984D01*
X167267047Y-119604807D01*
X167634136Y-119444647D01*
X167641000Y-119441954D01*
X168018989Y-119309689D01*
X168026042Y-119307513D01*
X168412862Y-119203865D01*
X168420056Y-119202223D01*
X168813571Y-119127766D01*
X168820811Y-119126674D01*
X169012438Y-119105083D01*
X169072375Y-119117356D01*
G37*
%TD.AperFunction*%
%TD*%
%TA.AperFunction,Conductor*%
%TO.N,-15*%
G36*
X146577239Y-93310185D02*
G01*
X146622994Y-93362989D01*
X146634200Y-93414500D01*
X146634200Y-103850500D01*
X146614515Y-103917539D01*
X146561711Y-103963294D01*
X146510200Y-103974500D01*
X146358499Y-103974500D01*
X146291460Y-103954815D01*
X146245705Y-103902011D01*
X146234499Y-103850500D01*
X146234499Y-103723998D01*
X146234498Y-103723981D01*
X146223999Y-103621203D01*
X146223998Y-103621200D01*
X146182845Y-103497009D01*
X146168814Y-103454666D01*
X146076712Y-103305344D01*
X145952656Y-103181288D01*
X145803334Y-103089186D01*
X145636797Y-103034001D01*
X145636795Y-103034000D01*
X145534010Y-103023500D01*
X144533998Y-103023500D01*
X144533980Y-103023501D01*
X144431203Y-103034000D01*
X144431200Y-103034001D01*
X144264668Y-103089185D01*
X144264663Y-103089187D01*
X144115342Y-103181289D01*
X143991289Y-103305342D01*
X143899187Y-103454663D01*
X143899185Y-103454668D01*
X143871349Y-103538670D01*
X143844001Y-103621203D01*
X143844001Y-103621204D01*
X143844000Y-103621204D01*
X143833500Y-103723983D01*
X143833500Y-103723991D01*
X143833500Y-104005263D01*
X143833501Y-104193800D01*
X143813817Y-104260839D01*
X143761013Y-104306594D01*
X143709501Y-104317800D01*
X136711041Y-104317800D01*
X136644002Y-104298115D01*
X136598247Y-104245311D01*
X136588303Y-104176153D01*
X136617328Y-104112597D01*
X136645945Y-104088261D01*
X136724656Y-104039712D01*
X136848712Y-103915656D01*
X136940814Y-103766334D01*
X136995999Y-103599797D01*
X137006500Y-103497009D01*
X137006499Y-102496992D01*
X136995999Y-102394203D01*
X136940814Y-102227666D01*
X136848712Y-102078344D01*
X136724656Y-101954288D01*
X136575334Y-101862186D01*
X136408797Y-101807001D01*
X136408795Y-101807000D01*
X136306010Y-101796500D01*
X135680998Y-101796500D01*
X135680980Y-101796501D01*
X135578203Y-101807000D01*
X135578200Y-101807001D01*
X135411668Y-101862185D01*
X135411663Y-101862187D01*
X135262342Y-101954289D01*
X135138289Y-102078342D01*
X135046181Y-102227673D01*
X135043926Y-102232510D01*
X134997749Y-102284944D01*
X134979122Y-102294605D01*
X134978164Y-102295003D01*
X134978045Y-102295053D01*
X134897608Y-102328371D01*
X134774033Y-102410941D01*
X134721487Y-102463487D01*
X134668941Y-102516034D01*
X132903494Y-104281481D01*
X132842171Y-104314966D01*
X132815813Y-104317800D01*
X130794500Y-104317800D01*
X130727461Y-104298115D01*
X130681706Y-104245311D01*
X130670500Y-104193800D01*
X130670500Y-99123715D01*
X130690185Y-99056676D01*
X130742989Y-99010921D01*
X130812147Y-99000977D01*
X130875703Y-99030002D01*
X130892556Y-99047814D01*
X131055767Y-99258666D01*
X131063745Y-99268972D01*
X131298318Y-99515743D01*
X131339421Y-99558983D01*
X131643018Y-99819613D01*
X131643021Y-99819615D01*
X131971432Y-100048196D01*
X132321283Y-100242379D01*
X132688984Y-100400172D01*
X132688994Y-100400175D01*
X132688999Y-100400177D01*
X133070751Y-100519953D01*
X133070754Y-100519953D01*
X133070762Y-100519956D01*
X133462700Y-100600501D01*
X133781160Y-100632885D01*
X133860775Y-100640981D01*
X133860776Y-100640981D01*
X134260905Y-100640981D01*
X134327250Y-100634234D01*
X134658980Y-100600501D01*
X135050918Y-100519956D01*
X135432696Y-100400172D01*
X135800397Y-100242379D01*
X136150248Y-100048196D01*
X136478659Y-99819615D01*
X136623823Y-99694996D01*
X138359134Y-99694996D01*
X138359134Y-99694999D01*
X138363419Y-99733027D01*
X138364199Y-99746912D01*
X138364199Y-100151086D01*
X138363419Y-100164970D01*
X138359134Y-100202999D01*
X138359134Y-100203002D01*
X138363419Y-100241030D01*
X138364199Y-100254915D01*
X138364199Y-100659092D01*
X138363419Y-100672976D01*
X138359135Y-100710996D01*
X138359135Y-100710999D01*
X138363419Y-100749018D01*
X138364199Y-100762903D01*
X138364199Y-100789839D01*
X138371990Y-100829012D01*
X138373592Y-100839314D01*
X138379332Y-100890253D01*
X138379332Y-100890255D01*
X138387673Y-100914091D01*
X138392248Y-100930853D01*
X138394960Y-100944488D01*
X138394961Y-100944491D01*
X138415207Y-100993371D01*
X138417686Y-100999866D01*
X138438907Y-101060512D01*
X138438910Y-101060517D01*
X138438911Y-101060520D01*
X138445411Y-101070865D01*
X138454968Y-101089363D01*
X138455305Y-101090176D01*
X138491928Y-101144986D01*
X138493815Y-101147899D01*
X138534884Y-101213260D01*
X138662438Y-101340814D01*
X138727831Y-101381903D01*
X138730740Y-101383788D01*
X138785521Y-101420392D01*
X138786306Y-101420717D01*
X138804834Y-101430287D01*
X138815178Y-101436787D01*
X138875875Y-101458026D01*
X138882307Y-101460482D01*
X138910721Y-101472251D01*
X138931197Y-101480733D01*
X138931198Y-101480733D01*
X138931203Y-101480735D01*
X138944839Y-101483447D01*
X138961598Y-101488021D01*
X138985445Y-101496366D01*
X139036414Y-101502108D01*
X139046692Y-101503707D01*
X139073840Y-101509107D01*
X139085857Y-101511498D01*
X139085858Y-101511498D01*
X139112785Y-101511498D01*
X139126669Y-101512278D01*
X139164698Y-101516563D01*
X139164700Y-101516563D01*
X139164702Y-101516563D01*
X139202731Y-101512278D01*
X139216615Y-101511498D01*
X139232685Y-101511498D01*
X139271688Y-101517791D01*
X139423203Y-101567999D01*
X139525991Y-101578500D01*
X140251008Y-101578499D01*
X140251016Y-101578498D01*
X140251019Y-101578498D01*
X140307302Y-101572748D01*
X140353797Y-101567999D01*
X140520334Y-101512814D01*
X140669656Y-101420712D01*
X140793712Y-101296656D01*
X140885814Y-101147334D01*
X140940999Y-100980797D01*
X140951500Y-100878009D01*
X140951499Y-99527992D01*
X140950247Y-99515740D01*
X140940999Y-99425203D01*
X140940998Y-99425200D01*
X140914580Y-99345476D01*
X140885814Y-99258666D01*
X140793712Y-99109344D01*
X140669656Y-98985288D01*
X140560520Y-98917973D01*
X140520336Y-98893187D01*
X140520331Y-98893185D01*
X140505299Y-98888204D01*
X140353797Y-98838001D01*
X140353795Y-98838000D01*
X140251010Y-98827500D01*
X139525998Y-98827500D01*
X139525980Y-98827501D01*
X139423203Y-98838000D01*
X139423200Y-98838001D01*
X139271701Y-98888204D01*
X139232697Y-98894498D01*
X139216614Y-98894498D01*
X139202730Y-98893718D01*
X139164701Y-98889433D01*
X139164697Y-98889433D01*
X139126668Y-98893718D01*
X139112784Y-98894498D01*
X139085851Y-98894498D01*
X139046693Y-98902286D01*
X139036395Y-98903888D01*
X138985441Y-98909630D01*
X138985434Y-98909632D01*
X138961597Y-98917973D01*
X138944839Y-98922548D01*
X138931201Y-98925261D01*
X138931195Y-98925262D01*
X138882330Y-98945502D01*
X138875839Y-98947980D01*
X138815176Y-98969208D01*
X138815173Y-98969210D01*
X138804826Y-98975711D01*
X138786338Y-98985264D01*
X138785531Y-98985598D01*
X138785523Y-98985602D01*
X138785520Y-98985603D01*
X138785520Y-98985604D01*
X138747630Y-99010921D01*
X138730746Y-99022202D01*
X138727831Y-99024090D01*
X138662441Y-99065178D01*
X138662434Y-99065184D01*
X138534885Y-99192733D01*
X138534879Y-99192740D01*
X138493791Y-99258130D01*
X138491903Y-99261045D01*
X138455303Y-99315822D01*
X138455299Y-99315830D01*
X138454965Y-99316637D01*
X138445412Y-99335125D01*
X138438911Y-99345472D01*
X138438909Y-99345475D01*
X138417681Y-99406138D01*
X138415203Y-99412629D01*
X138394963Y-99461494D01*
X138394962Y-99461500D01*
X138392249Y-99475138D01*
X138387674Y-99491896D01*
X138379333Y-99515733D01*
X138379331Y-99515740D01*
X138373589Y-99566694D01*
X138371987Y-99576992D01*
X138364199Y-99616150D01*
X138364199Y-99643083D01*
X138363419Y-99656967D01*
X138359134Y-99694996D01*
X136623823Y-99694996D01*
X136782259Y-99558983D01*
X137057935Y-99268972D01*
X137302856Y-98952560D01*
X137514509Y-98612994D01*
X137690723Y-98253757D01*
X137829690Y-97878535D01*
X137929983Y-97491180D01*
X137990574Y-97095666D01*
X138010840Y-96696051D01*
X137990574Y-96296436D01*
X137929983Y-95900922D01*
X137829690Y-95513567D01*
X137690723Y-95138345D01*
X137514509Y-94779108D01*
X137514504Y-94779099D01*
X137302855Y-94439541D01*
X137057939Y-94123135D01*
X137057938Y-94123134D01*
X137057935Y-94123130D01*
X136782259Y-93833119D01*
X136594289Y-93671752D01*
X136478661Y-93572488D01*
X136397897Y-93516275D01*
X136354118Y-93461821D01*
X136346730Y-93392343D01*
X136378076Y-93329900D01*
X136438206Y-93294317D01*
X136468734Y-93290500D01*
X146510200Y-93290500D01*
X146577239Y-93310185D01*
G37*
%TD.AperFunction*%
%TD*%
D39*
X162433001Y-99441001D03*
X137718800Y-122682000D03*
X150876000Y-117221000D03*
X169113200Y-113411000D03*
X150876000Y-118237000D03*
X150876000Y-117729000D03*
X138226800Y-122682000D03*
X137210801Y-122682001D03*
X170129199Y-113410999D03*
X169621200Y-113411000D03*
X162941000Y-99441000D03*
X163449000Y-99441000D03*
X139164699Y-100203001D03*
X142699002Y-108966002D03*
X152408370Y-107320594D03*
X148462999Y-117983001D03*
X142699002Y-109474002D03*
X142699001Y-108458001D03*
X144653001Y-113665001D03*
X132588000Y-127635000D03*
X149478999Y-117982999D03*
X132588000Y-127127000D03*
X144145000Y-113665000D03*
X143637001Y-113665003D03*
X139164700Y-100710998D03*
X152408368Y-106304593D03*
X132588000Y-126619000D03*
X139164699Y-99694998D03*
X152408370Y-106812593D03*
X148971002Y-117983000D03*
X151559900Y-120142000D03*
X151559900Y-119634000D03*
X151559900Y-120650000D03*
X167386000Y-99314000D03*
X175768000Y-111506000D03*
X167894000Y-99314000D03*
X168402000Y-99314000D03*
X175768001Y-112013999D03*
X175768000Y-110998000D03*
X167672582Y-129230870D03*
X168660411Y-129536199D03*
X173263271Y-126836632D03*
X170688000Y-124519986D03*
X168216436Y-124941614D03*
X167352836Y-120871572D03*
X170599625Y-120329957D03*
X168660411Y-128710015D03*
X165981604Y-126797168D03*
X170561000Y-128727200D03*
X173176832Y-123063000D03*
X164610004Y-125450968D03*
X165422804Y-125450968D03*
X170561000Y-129540000D03*
X168216436Y-124103414D03*
X173837232Y-123589004D03*
X164613805Y-123550379D03*
X164914804Y-126466968D03*
X173168239Y-125997718D03*
X174646231Y-125489593D03*
X168173032Y-120973172D03*
X171946664Y-120886733D03*
X174650032Y-123589004D03*
X166768636Y-120287372D03*
X171587454Y-119809102D03*
X171107750Y-120981765D03*
X165422028Y-121628604D03*
X165439989Y-123550379D03*
X171907200Y-128168400D03*
X166083204Y-125976972D03*
X167683036Y-119804772D03*
X170180000Y-124519986D03*
X173278432Y-122242804D03*
X173820047Y-125489593D03*
X172521400Y-120311996D03*
X171043600Y-124942600D03*
X168699036Y-120312772D03*
X171043600Y-124104400D03*
X174340902Y-126477422D03*
X166091797Y-123042254D03*
X164919134Y-122562550D03*
X173862632Y-121658604D03*
X174345232Y-122573004D03*
X166738636Y-128727976D03*
X167313372Y-128153239D03*
X165996765Y-122203340D03*
X172491400Y-128752600D03*
X169630018Y-124519986D03*
X165397404Y-127381368D03*
X173838008Y-127411368D03*
X171577000Y-129235200D03*
X170599625Y-119503773D03*
X168572036Y-124519000D03*
X169080036Y-124519000D03*
X171087004Y-128066800D03*
X168699036Y-119499972D03*
X168152286Y-128058207D03*
X145034000Y-101521900D03*
X138531600Y-103505000D03*
X143560800Y-100710999D03*
X144526001Y-101521901D03*
X143560799Y-99695000D03*
X138531600Y-102997000D03*
X138531599Y-102489001D03*
X143560800Y-100203001D03*
X145542000Y-101521900D03*
X164211000Y-111455200D03*
X176657001Y-113918999D03*
X176657000Y-112903000D03*
X163195000Y-111455200D03*
X172339000Y-100457000D03*
X176657000Y-113411000D03*
X171577000Y-101219000D03*
X163703000Y-111455200D03*
X171958000Y-100838000D03*
X170149185Y-100253800D03*
X171226815Y-100253800D03*
X157796000Y-111173999D03*
X158939000Y-111173999D03*
X158369000Y-111173999D03*
X170688000Y-100253800D03*
X145796000Y-108966000D03*
X145795999Y-108457999D03*
X161863000Y-104775000D03*
X162433000Y-104775000D03*
X145796000Y-109474000D03*
X161290000Y-104775000D03*
D40*
X135001000Y-109270800D03*
X138811000Y-109270800D03*
X171577000Y-109601000D03*
X167767000Y-109601000D03*
X172543018Y-124519986D03*
X171687770Y-122455234D03*
X169623018Y-121599986D03*
X167558266Y-122455234D03*
X166703018Y-124519986D03*
X167558266Y-126584738D03*
X169623018Y-127439986D03*
X171687770Y-126584738D03*
X148080000Y-125130000D03*
X153160000Y-125130000D03*
X155700000Y-125130000D03*
X158240000Y-125130000D03*
X148080000Y-128940000D03*
X150620000Y-128940000D03*
X153160000Y-128940000D03*
X155700000Y-128940000D03*
X158240000Y-128940000D03*
X138811000Y-116890800D03*
X135001000Y-116890800D03*
X174713949Y-131466051D03*
X164563949Y-117576051D03*
X143713200Y-131445000D03*
X174955200Y-100177600D03*
X144145000Y-121031000D03*
X144144999Y-118491000D03*
X171704000Y-94615000D03*
X173984001Y-94615000D03*
X176264000Y-94615000D03*
X134073840Y-96696051D03*
X177495200Y-100177600D03*
X143713200Y-128905000D03*
X158250000Y-103020000D03*
X155710000Y-103020000D03*
X153170000Y-103020000D03*
X150630000Y-103020000D03*
X148090000Y-103020000D03*
X148090000Y-99210000D03*
X150630000Y-99210000D03*
X153170000Y-99210000D03*
X155710000Y-99210000D03*
X158250000Y-99210000D03*
M02*
