%TF.GenerationSoftware,KiCad,Pcbnew,8.0.6*%
%TF.CreationDate,2024-11-19T20:08:15+01:00*%
%TF.ProjectId,3458A Ref A9 Clone,33343538-4120-4526-9566-20413920436c,rev?*%
%TF.SameCoordinates,Original*%
%TF.FileFunction,Legend,Bot*%
%TF.FilePolarity,Positive*%
%FSLAX46Y46*%
G04 Gerber Fmt 4.6, Leading zero omitted, Abs format (unit mm)*
G04 Created by KiCad (PCBNEW 8.0.6) date 2024-11-19 20:08:15*
%MOMM*%
%LPD*%
G01*
G04 APERTURE LIST*
%ADD10C,0.026458*%
%ADD11C,0.000000*%
%ADD12C,0.300000*%
%ADD13C,0.150000*%
%ADD14C,0.010000*%
%ADD15C,0.120000*%
%ADD16C,0.350000*%
G04 APERTURE END LIST*
D10*
X147173662Y-105806894D02*
X147189438Y-105853149D01*
X147162933Y-105760614D02*
X147173662Y-105806894D01*
X147572083Y-105148927D02*
X147531076Y-105161824D01*
X147176979Y-105535782D02*
X147165906Y-105579214D01*
X147255730Y-105375656D02*
X147231331Y-105413252D01*
X147655976Y-105134530D02*
X147613793Y-105139764D01*
X147414553Y-105220934D02*
X147378640Y-105246785D01*
X147740848Y-105136647D02*
X147698404Y-105133426D01*
X148019202Y-105296937D02*
X147983047Y-105257896D01*
X147231331Y-105413252D02*
X147209920Y-105452603D01*
D11*
G36*
X147369488Y-105408345D02*
G01*
X147383974Y-105413109D01*
X147395311Y-105419341D01*
X147405360Y-105427947D01*
X147414144Y-105438728D01*
X147421686Y-105451488D01*
X147428008Y-105466030D01*
X147433132Y-105482155D01*
X147437081Y-105499666D01*
X147439877Y-105518366D01*
X147441543Y-105538058D01*
X147442100Y-105558544D01*
X147439981Y-105601109D01*
X147433698Y-105644481D01*
X147423431Y-105687080D01*
X147416860Y-105707597D01*
X147409360Y-105727328D01*
X147400953Y-105746077D01*
X147391663Y-105763646D01*
X147381510Y-105779837D01*
X147370519Y-105794453D01*
X147358711Y-105807297D01*
X147346108Y-105818171D01*
X147332734Y-105826877D01*
X147318610Y-105833219D01*
X147303758Y-105836999D01*
X147288202Y-105838019D01*
X147271964Y-105836083D01*
X147255066Y-105830992D01*
X147237530Y-105822549D01*
X147219379Y-105810557D01*
X147211709Y-105803461D01*
X147205089Y-105794570D01*
X147199498Y-105784028D01*
X147194913Y-105771980D01*
X147191311Y-105758573D01*
X147188670Y-105743951D01*
X147186967Y-105728259D01*
X147186181Y-105711643D01*
X147187268Y-105676219D01*
X147191751Y-105638839D01*
X147199452Y-105600666D01*
X147210191Y-105562862D01*
X147223788Y-105526589D01*
X147231603Y-105509389D01*
X147240065Y-105493007D01*
X147249153Y-105477589D01*
X147258844Y-105463279D01*
X147269114Y-105450224D01*
X147279943Y-105438567D01*
X147291307Y-105428455D01*
X147303185Y-105420032D01*
X147315553Y-105413444D01*
X147328390Y-105408836D01*
X147341673Y-105406354D01*
X147355380Y-105406141D01*
X147369488Y-105408345D01*
G37*
D10*
X147165906Y-105579214D02*
X147158737Y-105623611D01*
X148053544Y-105341885D02*
X148019202Y-105296937D01*
X147155699Y-105668776D02*
X147157021Y-105714509D01*
X147191727Y-105493513D02*
X147176979Y-105535782D01*
X147157021Y-105714509D02*
X147162933Y-105760614D01*
X147378640Y-105246785D02*
X147344573Y-105275381D01*
X147531076Y-105161824D02*
X147490999Y-105178256D01*
X147824870Y-105156859D02*
X147783079Y-105144392D01*
X147906213Y-105196748D02*
X147865990Y-105174245D01*
X147945308Y-105224566D02*
X147906213Y-105196748D01*
X147312580Y-105306523D02*
X147282889Y-105340014D01*
X147158737Y-105623611D02*
X147155699Y-105668776D01*
X147865990Y-105174245D02*
X147824870Y-105156859D01*
X147698404Y-105133426D02*
X147655976Y-105134530D01*
X147452082Y-105198025D02*
X147414553Y-105220934D01*
X147209920Y-105452603D02*
X147191727Y-105493513D01*
D11*
G36*
X148251525Y-105915674D02*
G01*
X148271095Y-105920165D01*
X148288355Y-105927179D01*
X148303382Y-105936518D01*
X148316250Y-105947982D01*
X148327038Y-105961375D01*
X148335822Y-105976496D01*
X148342677Y-105993147D01*
X148347681Y-106011131D01*
X148350908Y-106030248D01*
X148352437Y-106050299D01*
X148352343Y-106071087D01*
X148350703Y-106092413D01*
X148347593Y-106114077D01*
X148343089Y-106135883D01*
X148337268Y-106157630D01*
X148330206Y-106179121D01*
X148321980Y-106200157D01*
X148312665Y-106220539D01*
X148302339Y-106240069D01*
X148291077Y-106258549D01*
X148278956Y-106275779D01*
X148266053Y-106291562D01*
X148252443Y-106305698D01*
X148238204Y-106317989D01*
X148223410Y-106328237D01*
X148208140Y-106336244D01*
X148192469Y-106341809D01*
X148176473Y-106344736D01*
X148160230Y-106344825D01*
X148143814Y-106341878D01*
X148127304Y-106335697D01*
X148112445Y-106327520D01*
X148099039Y-106317903D01*
X148075058Y-106286054D01*
X148062716Y-106268072D01*
X148053084Y-106253131D01*
X148052585Y-106251988D01*
X148047232Y-106236039D01*
X148043128Y-106219428D01*
X148040243Y-106202270D01*
X148038550Y-106184677D01*
X148038022Y-106166761D01*
X148038632Y-106148634D01*
X148040351Y-106130410D01*
X148043152Y-106112200D01*
X148047008Y-106094117D01*
X148051890Y-106076275D01*
X148057771Y-106058784D01*
X148061368Y-106049847D01*
X148068950Y-106038300D01*
X148085432Y-106015633D01*
X148102884Y-105993820D01*
X148121232Y-105972871D01*
X148140400Y-105952799D01*
X148160312Y-105933616D01*
X148167633Y-105927112D01*
X148180519Y-105921812D01*
X148196238Y-105917324D01*
X148212597Y-105914651D01*
X148229569Y-105913905D01*
X148251525Y-105915674D01*
G37*
D10*
X147783079Y-105144392D02*
X147740848Y-105136647D01*
X147983047Y-105257896D02*
X147945308Y-105224566D01*
D11*
G36*
X150062156Y-106196044D02*
G01*
X150078335Y-106230239D01*
X150091955Y-106266657D01*
X150102857Y-106305349D01*
X150110885Y-106346366D01*
X150153089Y-106302517D01*
X150204364Y-106243912D01*
X150327473Y-106094929D01*
X150466903Y-105924403D01*
X150609343Y-105757318D01*
X150677533Y-105682874D01*
X150741484Y-105618660D01*
X150799533Y-105567798D01*
X150825824Y-105548351D01*
X150850015Y-105533412D01*
X150871900Y-105523374D01*
X150891268Y-105518626D01*
X150907914Y-105519558D01*
X150921628Y-105526561D01*
X150932203Y-105540026D01*
X150939430Y-105560342D01*
X150943103Y-105587900D01*
X150943012Y-105623091D01*
X150965751Y-105624302D01*
X150990109Y-105621090D01*
X151015988Y-105613794D01*
X151043291Y-105602750D01*
X151071919Y-105588296D01*
X151101776Y-105570770D01*
X151164783Y-105527852D01*
X151231531Y-105476698D01*
X151301240Y-105420008D01*
X151446413Y-105300825D01*
X151520316Y-105243735D01*
X151594055Y-105191914D01*
X151630619Y-105168824D01*
X151666850Y-105148064D01*
X151702649Y-105129971D01*
X151737918Y-105114884D01*
X151772561Y-105103141D01*
X151806480Y-105095078D01*
X151839577Y-105091033D01*
X151871754Y-105091345D01*
X151902914Y-105096350D01*
X151932959Y-105106387D01*
X151961792Y-105121793D01*
X151989315Y-105142905D01*
X151965223Y-105180792D01*
X151945681Y-105214296D01*
X151930446Y-105243662D01*
X151919276Y-105269135D01*
X151911929Y-105290962D01*
X151908163Y-105309387D01*
X151907735Y-105324657D01*
X151910403Y-105337016D01*
X151915925Y-105346710D01*
X151924059Y-105353984D01*
X151934562Y-105359085D01*
X151947193Y-105362258D01*
X151961708Y-105363747D01*
X151977866Y-105363799D01*
X152014142Y-105360573D01*
X152095746Y-105347675D01*
X152137200Y-105341930D01*
X152176504Y-105339273D01*
X152194744Y-105339717D01*
X152211720Y-105341669D01*
X152227189Y-105345375D01*
X152240910Y-105351081D01*
X152252640Y-105359031D01*
X152262137Y-105369473D01*
X152269158Y-105382650D01*
X152273462Y-105398809D01*
X152326172Y-105412461D01*
X152382823Y-105431570D01*
X152442756Y-105455841D01*
X152505309Y-105484979D01*
X152569823Y-105518691D01*
X152635639Y-105556680D01*
X152702096Y-105598653D01*
X152768534Y-105644315D01*
X152834295Y-105693371D01*
X152898717Y-105745526D01*
X152961142Y-105800485D01*
X153020908Y-105857955D01*
X153077357Y-105917639D01*
X153129828Y-105979244D01*
X153177662Y-106042474D01*
X153220199Y-106107035D01*
X153257907Y-106166113D01*
X153294802Y-106228711D01*
X153330135Y-106294286D01*
X153363161Y-106362292D01*
X153393130Y-106432186D01*
X153419297Y-106503421D01*
X153440914Y-106575453D01*
X153457233Y-106647738D01*
X153463172Y-106683804D01*
X153467507Y-106719729D01*
X153467964Y-106725920D01*
X153470144Y-106755445D01*
X153470989Y-106790884D01*
X153469950Y-106825977D01*
X153466932Y-106860656D01*
X153461842Y-106894853D01*
X153454588Y-106928501D01*
X153445075Y-106961530D01*
X153433210Y-106993874D01*
X153418899Y-107025463D01*
X153402050Y-107056230D01*
X153382569Y-107086106D01*
X153360362Y-107115024D01*
X153335336Y-107142915D01*
X153307398Y-107169712D01*
X153273275Y-107170253D01*
X153239443Y-107167313D01*
X153205885Y-107161196D01*
X153172584Y-107152204D01*
X153139522Y-107140642D01*
X153106681Y-107126813D01*
X153074044Y-107111020D01*
X153041595Y-107093566D01*
X152977186Y-107054890D01*
X152913317Y-107013212D01*
X152849847Y-106970959D01*
X152786637Y-106930558D01*
X152723548Y-106894436D01*
X152692006Y-106878738D01*
X152660442Y-106865020D01*
X152628839Y-106853584D01*
X152597179Y-106844736D01*
X152565445Y-106838777D01*
X152533619Y-106836012D01*
X152501685Y-106836743D01*
X152469624Y-106841275D01*
X152437420Y-106849909D01*
X152405055Y-106862951D01*
X152372511Y-106880702D01*
X152339772Y-106903467D01*
X152306819Y-106931549D01*
X152273636Y-106965251D01*
X152283594Y-107018019D01*
X152295313Y-107080118D01*
X152326630Y-107225061D01*
X152345648Y-107303315D01*
X152366769Y-107382493D01*
X152389892Y-107460396D01*
X152414913Y-107534826D01*
X152441732Y-107603585D01*
X152470245Y-107664474D01*
X152485106Y-107691280D01*
X152500351Y-107715295D01*
X152515970Y-107736243D01*
X152531948Y-107753849D01*
X152548273Y-107767840D01*
X152564932Y-107777939D01*
X152581913Y-107783872D01*
X152599202Y-107785365D01*
X152616788Y-107782143D01*
X152634656Y-107773930D01*
X152652796Y-107760452D01*
X152671192Y-107741434D01*
X152676425Y-107781764D01*
X152684486Y-107822551D01*
X152694953Y-107863943D01*
X152707404Y-107906091D01*
X152736572Y-107993248D01*
X152768615Y-108085212D01*
X152800159Y-108183178D01*
X152814690Y-108234783D01*
X152827831Y-108288336D01*
X152839160Y-108343985D01*
X152848255Y-108401879D01*
X152854695Y-108462167D01*
X152858058Y-108524999D01*
X152859508Y-108562383D01*
X152861863Y-108599811D01*
X152869082Y-108674299D01*
X152879298Y-108747464D01*
X152892096Y-108818311D01*
X152907060Y-108885843D01*
X152923772Y-108949063D01*
X152941816Y-109006975D01*
X152960777Y-109058582D01*
X152980238Y-109102887D01*
X152990026Y-109121991D01*
X152999783Y-109138895D01*
X153009456Y-109153475D01*
X153018995Y-109165607D01*
X153028346Y-109175167D01*
X153037457Y-109182029D01*
X153046278Y-109186069D01*
X153054755Y-109187162D01*
X153062837Y-109185184D01*
X153070471Y-109180010D01*
X153077606Y-109171517D01*
X153084189Y-109159578D01*
X153090169Y-109144070D01*
X153095493Y-109124868D01*
X153116940Y-109145098D01*
X153136573Y-109166603D01*
X153154487Y-109189347D01*
X153170778Y-109213292D01*
X153185542Y-109238404D01*
X153198874Y-109264645D01*
X153221627Y-109320375D01*
X153239801Y-109380193D01*
X153254162Y-109443812D01*
X153265474Y-109510942D01*
X153274504Y-109581296D01*
X153290001Y-109748136D01*
X153303102Y-109889188D01*
X153312197Y-109971339D01*
X153323601Y-110054985D01*
X153338079Y-110139838D01*
X153356396Y-110225609D01*
X153402797Y-110171514D01*
X153422799Y-110151316D01*
X153440774Y-110135411D01*
X153456802Y-110123595D01*
X153470960Y-110115662D01*
X153483327Y-110111409D01*
X153493983Y-110110630D01*
X153503007Y-110113122D01*
X153510476Y-110118678D01*
X153516471Y-110127095D01*
X153521069Y-110138168D01*
X153524350Y-110151692D01*
X153526392Y-110167463D01*
X153527077Y-110204925D01*
X153523753Y-110248917D01*
X153517052Y-110297801D01*
X153507604Y-110349941D01*
X153496041Y-110403698D01*
X153469088Y-110509517D01*
X153441240Y-110602158D01*
X153417320Y-110631428D01*
X153397898Y-110657738D01*
X153382671Y-110681276D01*
X153371335Y-110702234D01*
X153363588Y-110720800D01*
X153359127Y-110737164D01*
X153357648Y-110751515D01*
X153358849Y-110764043D01*
X153362427Y-110774938D01*
X153368078Y-110784389D01*
X153375500Y-110792586D01*
X153384390Y-110799718D01*
X153405361Y-110811546D01*
X153428566Y-110821390D01*
X153451581Y-110830766D01*
X153471983Y-110841190D01*
X153480446Y-110847270D01*
X153487347Y-110854180D01*
X153492383Y-110862111D01*
X153495250Y-110871252D01*
X153495646Y-110881793D01*
X153493267Y-110893922D01*
X153487811Y-110907830D01*
X153478974Y-110923707D01*
X153466454Y-110941741D01*
X153449947Y-110962122D01*
X153429151Y-110985041D01*
X153403762Y-111010686D01*
X153373792Y-111037519D01*
X153347754Y-111063702D01*
X153325408Y-111089281D01*
X153306515Y-111114302D01*
X153290836Y-111138813D01*
X153278131Y-111162860D01*
X153268161Y-111186490D01*
X153260687Y-111209750D01*
X153255469Y-111232687D01*
X153252268Y-111255347D01*
X153250845Y-111277778D01*
X153250960Y-111300025D01*
X153252374Y-111322137D01*
X153254848Y-111344159D01*
X153262017Y-111388122D01*
X153278541Y-111477035D01*
X153284066Y-111522733D01*
X153285306Y-111546056D01*
X153285213Y-111569758D01*
X153283547Y-111593885D01*
X153280068Y-111618484D01*
X153274538Y-111643602D01*
X153266717Y-111669286D01*
X153256365Y-111695582D01*
X153243244Y-111722538D01*
X153227113Y-111750199D01*
X153207734Y-111778614D01*
X153153353Y-111821566D01*
X153095112Y-111864488D01*
X152972504Y-111949489D01*
X152850823Y-112032114D01*
X152793740Y-112072065D01*
X152740981Y-112110859D01*
X152693910Y-112148308D01*
X152653891Y-112184223D01*
X152636952Y-112201547D01*
X152622287Y-112218417D01*
X152610068Y-112234810D01*
X152600464Y-112250702D01*
X152593645Y-112266070D01*
X152589784Y-112280890D01*
X152589049Y-112295139D01*
X152591612Y-112308794D01*
X152597643Y-112321830D01*
X152607313Y-112334225D01*
X152620791Y-112345954D01*
X152638249Y-112356995D01*
X152630954Y-112380991D01*
X152617591Y-112403465D01*
X152598660Y-112424488D01*
X152574664Y-112444135D01*
X152546104Y-112462479D01*
X152513482Y-112479592D01*
X152438057Y-112510423D01*
X152352400Y-112537214D01*
X152260525Y-112560550D01*
X152074164Y-112599209D01*
X151911074Y-112631089D01*
X151848285Y-112645953D01*
X151803350Y-112660882D01*
X151788831Y-112668554D01*
X151780280Y-112676462D01*
X151778199Y-112684680D01*
X151783089Y-112693280D01*
X151795452Y-112702337D01*
X151815788Y-112711922D01*
X151882390Y-112732975D01*
X151883102Y-112761051D01*
X151879711Y-112787029D01*
X151872434Y-112810957D01*
X151861488Y-112832879D01*
X151847091Y-112852842D01*
X151829460Y-112870894D01*
X151808813Y-112887080D01*
X151785368Y-112901447D01*
X151759341Y-112914042D01*
X151730950Y-112924910D01*
X151700413Y-112934098D01*
X151667947Y-112941654D01*
X151598098Y-112952050D01*
X151523144Y-112956471D01*
X151444822Y-112955288D01*
X151364874Y-112948873D01*
X151285039Y-112937597D01*
X151207057Y-112921833D01*
X151132667Y-112901951D01*
X151063609Y-112878324D01*
X151001623Y-112851323D01*
X150948448Y-112821320D01*
X150976262Y-112865002D01*
X150997989Y-112904213D01*
X151013930Y-112939125D01*
X151024388Y-112969913D01*
X151029664Y-112996748D01*
X151030061Y-113019804D01*
X151025881Y-113039253D01*
X151017426Y-113055269D01*
X151004997Y-113068024D01*
X150988898Y-113077691D01*
X150969430Y-113084443D01*
X150946896Y-113088454D01*
X150921596Y-113089896D01*
X150893835Y-113088942D01*
X150832131Y-113080537D01*
X150764203Y-113064623D01*
X150692467Y-113042584D01*
X150619338Y-113015802D01*
X150547235Y-112985662D01*
X150478574Y-112953547D01*
X150415770Y-112920840D01*
X150361242Y-112888924D01*
X150317406Y-112859183D01*
X150256766Y-112824564D01*
X150215620Y-112804103D01*
X150201544Y-112798647D01*
X150191366Y-112796091D01*
X150184760Y-112796220D01*
X150181401Y-112798823D01*
X150180964Y-112803684D01*
X150183123Y-112810592D01*
X150193930Y-112829692D01*
X150232385Y-112883061D01*
X150254829Y-112913916D01*
X150275947Y-112945276D01*
X150293136Y-112975436D01*
X150299444Y-112989532D01*
X150303794Y-113002688D01*
X150305860Y-113014690D01*
X150305318Y-113025326D01*
X150301841Y-113034382D01*
X150295105Y-113041645D01*
X150284784Y-113046901D01*
X150270554Y-113049937D01*
X150252088Y-113050540D01*
X150229061Y-113048496D01*
X150195789Y-113042955D01*
X150163717Y-113035630D01*
X150132840Y-113026720D01*
X150103152Y-113016423D01*
X150074649Y-113004939D01*
X150047327Y-112992466D01*
X150021179Y-112979203D01*
X149996202Y-112965350D01*
X149949740Y-112936666D01*
X149907901Y-112908008D01*
X149837940Y-112857130D01*
X149809741Y-112838093D01*
X149797319Y-112830872D01*
X149786010Y-112825448D01*
X149775809Y-112822019D01*
X149766711Y-112820784D01*
X149758710Y-112821943D01*
X149751803Y-112825694D01*
X149745984Y-112832237D01*
X149741248Y-112841770D01*
X149737591Y-112854492D01*
X149735008Y-112870602D01*
X149733494Y-112890299D01*
X149733044Y-112913782D01*
X149733653Y-112941250D01*
X149735317Y-112972902D01*
X149758350Y-113269842D01*
X149762898Y-113347767D01*
X149765392Y-113422484D01*
X149765049Y-113491652D01*
X149761083Y-113552930D01*
X149757496Y-113579878D01*
X149752709Y-113603975D01*
X149746624Y-113624929D01*
X149739143Y-113642446D01*
X149730167Y-113656235D01*
X149719600Y-113666001D01*
X149707342Y-113671454D01*
X149693295Y-113672299D01*
X149677362Y-113668245D01*
X149659444Y-113658998D01*
X149639444Y-113644266D01*
X149617263Y-113623756D01*
X149592802Y-113597176D01*
X149565965Y-113564232D01*
X149536653Y-113524633D01*
X149504767Y-113478084D01*
X149498328Y-113470898D01*
X149491135Y-113467397D01*
X149483226Y-113467270D01*
X149474642Y-113470208D01*
X149465419Y-113475898D01*
X149455596Y-113484032D01*
X149434307Y-113506387D01*
X149386226Y-113566752D01*
X149360050Y-113599795D01*
X149332861Y-113631432D01*
X149304968Y-113659181D01*
X149290853Y-113670821D01*
X149276677Y-113680558D01*
X149262479Y-113688080D01*
X149248297Y-113693078D01*
X149234170Y-113695240D01*
X149220136Y-113694258D01*
X149206233Y-113689819D01*
X149192501Y-113681614D01*
X149178978Y-113669332D01*
X149165701Y-113652662D01*
X149152710Y-113631295D01*
X149140043Y-113604919D01*
X149127739Y-113573225D01*
X149115835Y-113535901D01*
X149111469Y-113527970D01*
X149104056Y-113522996D01*
X149093854Y-113520733D01*
X149081120Y-113520931D01*
X149066111Y-113523345D01*
X149049084Y-113527726D01*
X149010005Y-113541400D01*
X148965941Y-113559975D01*
X148918949Y-113581470D01*
X148824409Y-113625301D01*
X148780975Y-113643677D01*
X148742843Y-113657054D01*
X148726407Y-113661249D01*
X148712068Y-113663452D01*
X148700083Y-113663415D01*
X148690709Y-113660891D01*
X148684202Y-113655633D01*
X148680822Y-113647392D01*
X148680823Y-113635921D01*
X148684464Y-113620973D01*
X148692002Y-113602301D01*
X148703694Y-113579657D01*
X148719797Y-113552793D01*
X148740567Y-113521462D01*
X148957332Y-113394538D01*
X149015497Y-113358580D01*
X149072895Y-113320546D01*
X149128349Y-113280241D01*
X149180682Y-113237473D01*
X149205309Y-113215105D01*
X149228714Y-113192048D01*
X149250750Y-113168280D01*
X149271268Y-113143774D01*
X149290124Y-113118508D01*
X149307167Y-113092456D01*
X149322253Y-113065596D01*
X149335233Y-113037902D01*
X149345960Y-113009351D01*
X149354287Y-112979919D01*
X149360067Y-112949581D01*
X149363152Y-112918313D01*
X149363396Y-112886091D01*
X149360650Y-112852891D01*
X149354768Y-112818689D01*
X149345603Y-112783460D01*
X149283235Y-112770718D01*
X149220104Y-112761352D01*
X149092160Y-112747680D01*
X149027653Y-112740843D01*
X148962993Y-112732318D01*
X148898333Y-112720839D01*
X148833825Y-112705139D01*
X148801677Y-112695312D01*
X148769623Y-112683954D01*
X148737684Y-112670909D01*
X148705878Y-112656018D01*
X148674225Y-112639122D01*
X148642744Y-112620064D01*
X148611454Y-112598685D01*
X148580374Y-112574826D01*
X148549522Y-112548331D01*
X148518919Y-112519040D01*
X148488583Y-112486795D01*
X148458533Y-112451439D01*
X148428789Y-112412812D01*
X148399369Y-112370757D01*
X148370293Y-112325115D01*
X148341579Y-112275728D01*
X148304491Y-112299240D01*
X148265080Y-112319231D01*
X148223576Y-112335883D01*
X148180210Y-112349379D01*
X148135210Y-112359900D01*
X148088805Y-112367628D01*
X148041226Y-112372746D01*
X147992702Y-112375434D01*
X147943462Y-112375876D01*
X147893736Y-112374252D01*
X147843753Y-112370745D01*
X147793743Y-112365537D01*
X147694560Y-112350744D01*
X147598022Y-112331330D01*
X147505965Y-112308749D01*
X147420226Y-112284457D01*
X147342640Y-112259909D01*
X147275044Y-112236560D01*
X147177163Y-112199284D01*
X147141272Y-112184272D01*
X147141252Y-112226838D01*
X147146437Y-112266645D01*
X147156236Y-112303878D01*
X147170061Y-112338721D01*
X147187320Y-112371360D01*
X147207424Y-112401980D01*
X147253809Y-112457907D01*
X147304495Y-112507984D01*
X147354764Y-112553694D01*
X147399895Y-112596520D01*
X147435169Y-112637945D01*
X147447636Y-112658595D01*
X147455868Y-112679451D01*
X147459277Y-112700698D01*
X147457272Y-112722522D01*
X147449264Y-112745108D01*
X147434661Y-112768640D01*
X147412876Y-112793305D01*
X147383317Y-112819289D01*
X147345395Y-112846775D01*
X147298520Y-112875950D01*
X147242101Y-112906999D01*
X147175550Y-112940107D01*
X147009688Y-113013244D01*
X146796216Y-113096842D01*
X146674553Y-113140955D01*
X146541376Y-113186199D01*
X146398863Y-113231154D01*
X146249191Y-113274399D01*
X146094537Y-113314513D01*
X145937078Y-113350076D01*
X145778992Y-113379668D01*
X145700394Y-113391781D01*
X145622455Y-113401868D01*
X145530658Y-113404133D01*
X145446273Y-113409758D01*
X145367473Y-113418036D01*
X145292428Y-113428264D01*
X144993261Y-113474539D01*
X144909583Y-113483920D01*
X144818695Y-113491015D01*
X144718770Y-113495118D01*
X144607979Y-113495522D01*
X144484496Y-113491522D01*
X144346491Y-113482413D01*
X144192139Y-113467487D01*
X144019610Y-113446041D01*
X144055938Y-113408692D01*
X144092811Y-113373752D01*
X144130200Y-113341163D01*
X144168079Y-113310866D01*
X144206418Y-113282804D01*
X144245190Y-113256920D01*
X144284366Y-113233155D01*
X144323919Y-113211451D01*
X144363820Y-113191752D01*
X144404042Y-113173999D01*
X144485336Y-113144100D01*
X144567574Y-113121292D01*
X144650534Y-113105115D01*
X144733990Y-113095105D01*
X144817719Y-113090800D01*
X144901495Y-113091739D01*
X144985095Y-113097460D01*
X145068295Y-113107500D01*
X145150869Y-113121397D01*
X145232594Y-113138690D01*
X145313245Y-113158916D01*
X145400380Y-113141372D01*
X145487792Y-113121671D01*
X145662939Y-113076428D01*
X145837678Y-113024450D01*
X146011001Y-112966999D01*
X146181902Y-112905338D01*
X146349371Y-112840730D01*
X146512401Y-112774437D01*
X146669985Y-112707721D01*
X146694788Y-112695204D01*
X146715357Y-112680953D01*
X146731878Y-112665080D01*
X146744540Y-112647696D01*
X146753529Y-112628913D01*
X146759032Y-112608843D01*
X146761236Y-112587597D01*
X146760328Y-112565288D01*
X146756496Y-112542025D01*
X146749926Y-112517923D01*
X146740805Y-112493091D01*
X146729321Y-112467642D01*
X146715661Y-112441687D01*
X146700011Y-112415338D01*
X146663490Y-112361904D01*
X146621257Y-112308234D01*
X146574807Y-112255220D01*
X146525637Y-112203757D01*
X146475244Y-112154737D01*
X146425123Y-112109053D01*
X146376771Y-112067600D01*
X146331685Y-112031269D01*
X146291360Y-112000954D01*
X146247188Y-111970272D01*
X146200136Y-111939439D01*
X146100044Y-111876628D01*
X145996379Y-111811139D01*
X145944862Y-111776959D01*
X145894438Y-111741591D01*
X145845768Y-111704862D01*
X145799516Y-111666600D01*
X145756343Y-111626632D01*
X145736118Y-111605954D01*
X145716911Y-111584785D01*
X145698805Y-111563103D01*
X145681882Y-111540887D01*
X145666226Y-111518114D01*
X145651918Y-111494764D01*
X145639043Y-111470815D01*
X145627682Y-111446244D01*
X145617918Y-111421031D01*
X145609834Y-111395154D01*
X145600042Y-111343090D01*
X145594454Y-111289831D01*
X145592889Y-111235478D01*
X145595165Y-111180134D01*
X145601100Y-111123899D01*
X145610513Y-111066875D01*
X145623221Y-111009166D01*
X145639044Y-110950871D01*
X145657799Y-110892093D01*
X145679305Y-110832933D01*
X145729844Y-110713877D01*
X145789205Y-110594516D01*
X145855936Y-110475664D01*
X145928583Y-110358136D01*
X146005693Y-110242745D01*
X146085812Y-110130304D01*
X146167486Y-110021629D01*
X146329689Y-109818830D01*
X146480672Y-109640859D01*
X146514500Y-109566495D01*
X146546000Y-109490725D01*
X146575380Y-109413699D01*
X146602849Y-109335566D01*
X146652886Y-109176580D01*
X146697781Y-109014963D01*
X146847102Y-108415139D01*
X149033586Y-108415139D01*
X149035527Y-108513418D01*
X149042766Y-108613167D01*
X149048706Y-108662927D01*
X149056370Y-108712258D01*
X149065893Y-108760892D01*
X149077408Y-108808564D01*
X149091048Y-108855008D01*
X149106947Y-108899959D01*
X149125239Y-108943150D01*
X149146056Y-108984315D01*
X149169533Y-109023189D01*
X149195803Y-109059506D01*
X149225000Y-109093000D01*
X149257257Y-109123404D01*
X149317312Y-109175865D01*
X149371659Y-109226006D01*
X149420550Y-109273679D01*
X149464239Y-109318738D01*
X149502978Y-109361036D01*
X149537021Y-109400427D01*
X149566621Y-109436762D01*
X149592030Y-109469897D01*
X149613502Y-109499683D01*
X149631291Y-109525974D01*
X149656827Y-109567483D01*
X149674827Y-109602100D01*
X149688556Y-109597070D01*
X149703426Y-109593417D01*
X149719396Y-109591065D01*
X149736426Y-109589938D01*
X149754476Y-109589961D01*
X149773507Y-109591057D01*
X149814350Y-109596168D01*
X149858635Y-109604663D01*
X149906042Y-109615938D01*
X150008944Y-109644398D01*
X150120496Y-109676699D01*
X150178717Y-109692773D01*
X150238141Y-109707989D01*
X150298450Y-109721739D01*
X150359321Y-109733418D01*
X150420438Y-109742419D01*
X150481478Y-109748136D01*
X150460725Y-109709868D01*
X150434973Y-109669972D01*
X150370401Y-109585967D01*
X150291609Y-109497478D01*
X150202445Y-109405859D01*
X149819037Y-109035180D01*
X149735738Y-108948234D01*
X149665156Y-108866287D01*
X149635837Y-108827612D01*
X149611140Y-108790695D01*
X149591546Y-108755705D01*
X149577537Y-108722811D01*
X149569594Y-108692184D01*
X149568197Y-108663992D01*
X149573827Y-108638405D01*
X149586966Y-108615592D01*
X149608094Y-108595722D01*
X149637694Y-108578965D01*
X149676244Y-108565491D01*
X149724228Y-108555468D01*
X149665465Y-108498328D01*
X149637125Y-108470037D01*
X149609658Y-108441486D01*
X149583196Y-108412342D01*
X149557872Y-108382271D01*
X149533819Y-108350940D01*
X149511171Y-108318015D01*
X149500416Y-108300851D01*
X149490061Y-108283163D01*
X149480124Y-108264910D01*
X149470621Y-108246050D01*
X149461569Y-108226541D01*
X149452985Y-108206342D01*
X149444885Y-108185410D01*
X149437286Y-108163705D01*
X149430204Y-108141185D01*
X149423656Y-108117807D01*
X149417659Y-108093530D01*
X149412230Y-108068313D01*
X149407384Y-108042113D01*
X149403140Y-108014890D01*
X149399512Y-107986601D01*
X149396518Y-107957204D01*
X149384513Y-107958632D01*
X149372460Y-107960502D01*
X149347367Y-107964883D01*
X149333905Y-107967052D01*
X149319552Y-107968976D01*
X149304096Y-107970484D01*
X149287327Y-107971406D01*
X149269033Y-107971569D01*
X149249004Y-107970801D01*
X149238273Y-107970015D01*
X149227028Y-107968931D01*
X149215244Y-107967530D01*
X149202895Y-107965788D01*
X149189953Y-107963685D01*
X149176393Y-107961200D01*
X149162187Y-107958310D01*
X149147311Y-107954994D01*
X149131737Y-107951232D01*
X149115439Y-107947001D01*
X149098390Y-107942280D01*
X149080565Y-107937047D01*
X149080565Y-107937046D01*
X149073356Y-107975434D01*
X149057426Y-108079257D01*
X149048861Y-108150388D01*
X149041321Y-108231497D01*
X149035873Y-108320456D01*
X149033586Y-108415139D01*
X146847102Y-108415139D01*
X146859297Y-108366153D01*
X146877150Y-108299230D01*
X146727100Y-108270291D01*
X146548342Y-108236025D01*
X146407216Y-108209990D01*
X146290885Y-108190548D01*
X146186513Y-108176062D01*
X146081263Y-108164895D01*
X145962300Y-108155408D01*
X145631884Y-108134925D01*
X145459030Y-108125610D01*
X145292048Y-108118481D01*
X145132187Y-108113572D01*
X144980696Y-108110918D01*
X144838826Y-108110554D01*
X144707823Y-108112515D01*
X144588939Y-108116835D01*
X144483422Y-108123549D01*
X144419009Y-108183955D01*
X144359013Y-108242223D01*
X144303257Y-108298369D01*
X144251561Y-108352412D01*
X144203751Y-108404369D01*
X144159647Y-108454258D01*
X144119072Y-108502095D01*
X144081850Y-108547898D01*
X144047803Y-108591685D01*
X144016752Y-108633474D01*
X143988522Y-108673281D01*
X143962934Y-108711124D01*
X143939812Y-108747021D01*
X143918977Y-108780989D01*
X143900252Y-108813046D01*
X143883461Y-108843209D01*
X143854967Y-108897922D01*
X143832075Y-108945269D01*
X143797425Y-109018423D01*
X143790046Y-109032325D01*
X143782827Y-109044509D01*
X143775589Y-109054990D01*
X143768155Y-109063788D01*
X143760348Y-109070918D01*
X143751991Y-109076399D01*
X143742905Y-109080247D01*
X143732914Y-109082482D01*
X143721611Y-109082264D01*
X143711261Y-109078356D01*
X143700568Y-109070875D01*
X143688237Y-109059936D01*
X143653472Y-109028149D01*
X143628446Y-109007532D01*
X143596597Y-108983923D01*
X143556628Y-108957435D01*
X143507242Y-108928186D01*
X143447145Y-108896292D01*
X143375039Y-108861867D01*
X143289628Y-108825030D01*
X143189617Y-108785894D01*
X143073708Y-108744577D01*
X142940607Y-108701195D01*
X142886357Y-108682272D01*
X142832102Y-108659485D01*
X142777938Y-108633023D01*
X142723963Y-108603076D01*
X142670272Y-108569834D01*
X142616963Y-108533486D01*
X142511874Y-108452234D01*
X142409468Y-108360838D01*
X142310519Y-108260815D01*
X142215799Y-108153684D01*
X142126079Y-108040963D01*
X142042133Y-107924170D01*
X141964733Y-107804824D01*
X141894652Y-107684442D01*
X141832662Y-107564543D01*
X141779535Y-107446644D01*
X141736045Y-107332265D01*
X141702962Y-107222922D01*
X141681061Y-107120134D01*
X141674152Y-107080573D01*
X141667049Y-107045815D01*
X141659730Y-107015570D01*
X141652171Y-106989550D01*
X141644351Y-106967464D01*
X141636247Y-106949025D01*
X141627837Y-106933943D01*
X141619098Y-106921929D01*
X141610007Y-106912693D01*
X141600542Y-106905947D01*
X141590681Y-106901402D01*
X141580401Y-106898767D01*
X141569679Y-106897755D01*
X141558494Y-106898076D01*
X141534640Y-106901561D01*
X141508661Y-106906909D01*
X141480375Y-106911806D01*
X141465312Y-106913364D01*
X141449604Y-106913941D01*
X141433229Y-106913249D01*
X141416166Y-106910999D01*
X141398391Y-106906901D01*
X141379881Y-106900668D01*
X141360616Y-106892008D01*
X141340571Y-106880634D01*
X141319724Y-106866256D01*
X141298054Y-106848585D01*
X141275537Y-106827332D01*
X141252150Y-106802208D01*
X141226817Y-106737323D01*
X141208989Y-106673476D01*
X141198313Y-106610723D01*
X141194434Y-106549119D01*
X141196997Y-106488718D01*
X141205648Y-106429574D01*
X141220033Y-106371743D01*
X141239797Y-106315278D01*
X141264585Y-106260235D01*
X141294044Y-106206667D01*
X141327818Y-106154630D01*
X141365553Y-106104179D01*
X141406895Y-106055367D01*
X141451489Y-106008250D01*
X141498981Y-105962881D01*
X141549016Y-105919317D01*
X141655298Y-105837816D01*
X141767499Y-105764186D01*
X141882783Y-105698862D01*
X141998315Y-105642281D01*
X142111259Y-105594880D01*
X142218779Y-105557096D01*
X142318039Y-105529365D01*
X142406203Y-105512126D01*
X142439544Y-105505594D01*
X142470367Y-105495933D01*
X142498643Y-105483406D01*
X142524345Y-105468281D01*
X142547446Y-105450822D01*
X142567917Y-105431295D01*
X142585731Y-105409966D01*
X142600862Y-105387101D01*
X142613280Y-105362965D01*
X142622958Y-105337824D01*
X142629870Y-105311943D01*
X142633986Y-105285588D01*
X142635280Y-105259026D01*
X142633725Y-105232520D01*
X142629291Y-105206338D01*
X142621953Y-105180745D01*
X142611681Y-105156005D01*
X142598450Y-105132387D01*
X142582230Y-105110153D01*
X142562995Y-105089571D01*
X142540716Y-105070906D01*
X142515367Y-105054424D01*
X142486920Y-105040390D01*
X142455346Y-105029070D01*
X142420619Y-105020730D01*
X142382711Y-105015635D01*
X142341594Y-105014051D01*
X142297240Y-105016244D01*
X142249623Y-105022478D01*
X142198714Y-105033021D01*
X142144486Y-105048137D01*
X142086911Y-105068093D01*
X142054497Y-105038919D01*
X142030403Y-105011111D01*
X142014155Y-104984714D01*
X142005278Y-104959772D01*
X142003297Y-104936331D01*
X142007736Y-104914435D01*
X142018122Y-104894128D01*
X142033977Y-104875457D01*
X142054829Y-104858465D01*
X142080201Y-104843197D01*
X142109619Y-104829698D01*
X142142607Y-104818013D01*
X142178691Y-104808187D01*
X142217395Y-104800265D01*
X142300765Y-104790310D01*
X142388916Y-104788508D01*
X142478048Y-104795216D01*
X142521795Y-104801873D01*
X142564362Y-104810793D01*
X142605274Y-104822019D01*
X142644056Y-104835597D01*
X142680233Y-104851572D01*
X142713331Y-104869988D01*
X142742873Y-104890890D01*
X142768386Y-104914323D01*
X142789393Y-104940332D01*
X142805420Y-104968961D01*
X142815993Y-105000256D01*
X142820635Y-105034261D01*
X142823132Y-105078410D01*
X142826658Y-105118574D01*
X142831216Y-105154910D01*
X142836808Y-105187576D01*
X142843437Y-105216730D01*
X142851104Y-105242530D01*
X142859814Y-105265133D01*
X142869568Y-105284697D01*
X142880368Y-105301380D01*
X142892218Y-105315340D01*
X142905120Y-105326734D01*
X142919076Y-105335719D01*
X142934088Y-105342455D01*
X142950161Y-105347098D01*
X142967295Y-105349806D01*
X142985494Y-105350736D01*
X143004759Y-105350048D01*
X143025095Y-105347898D01*
X143068984Y-105339843D01*
X143117181Y-105327834D01*
X143169708Y-105313133D01*
X143287827Y-105280702D01*
X143353461Y-105265496D01*
X143423504Y-105252644D01*
X143549658Y-105235862D01*
X143667894Y-105225804D01*
X143778440Y-105222069D01*
X143881519Y-105224258D01*
X143977359Y-105231969D01*
X144066185Y-105244803D01*
X144148222Y-105262359D01*
X144223697Y-105284238D01*
X144292836Y-105310038D01*
X144355863Y-105339361D01*
X144413006Y-105371806D01*
X144464489Y-105406972D01*
X144510538Y-105444460D01*
X144551380Y-105483869D01*
X144587241Y-105524800D01*
X144618345Y-105566851D01*
X144644919Y-105609623D01*
X144667188Y-105652715D01*
X144685379Y-105695728D01*
X144699717Y-105738262D01*
X144710428Y-105779915D01*
X144717738Y-105820289D01*
X144721872Y-105858982D01*
X144723056Y-105895594D01*
X144721517Y-105929726D01*
X144717480Y-105960978D01*
X144711170Y-105988948D01*
X144702815Y-106013237D01*
X144692638Y-106033445D01*
X144680867Y-106049171D01*
X144667726Y-106060016D01*
X144653443Y-106065579D01*
X144609102Y-106077586D01*
X144578124Y-106094917D01*
X144567120Y-106105942D01*
X144558824Y-106118733D01*
X144549517Y-106150195D01*
X144548515Y-106190464D01*
X144554134Y-106240702D01*
X144578490Y-106375729D01*
X144609098Y-106564565D01*
X144622532Y-106682065D01*
X144632471Y-106816500D01*
X144637229Y-106969033D01*
X144635122Y-107140824D01*
X144624462Y-107333035D01*
X144603565Y-107546826D01*
X144773448Y-107537027D01*
X145002417Y-107526724D01*
X145290597Y-107511760D01*
X145456930Y-107501231D01*
X145638113Y-107487979D01*
X145714978Y-107480268D01*
X145759416Y-107471663D01*
X145770628Y-107466905D01*
X145775115Y-107461779D01*
X145773339Y-107456236D01*
X145765760Y-107450230D01*
X145735038Y-107436630D01*
X145686635Y-107420594D01*
X145551531Y-107379669D01*
X145472204Y-107354010D01*
X145389941Y-107324371D01*
X145308428Y-107290367D01*
X145271157Y-107271627D01*
X146213861Y-107271627D01*
X146221463Y-107292868D01*
X146227704Y-107312508D01*
X146237222Y-107347181D01*
X146244661Y-107376037D01*
X146248301Y-107388406D01*
X146252263Y-107399469D01*
X146256827Y-107409273D01*
X146262273Y-107417868D01*
X146268883Y-107425302D01*
X146276935Y-107431626D01*
X146286712Y-107436887D01*
X146298494Y-107441134D01*
X146312560Y-107444418D01*
X146329193Y-107446785D01*
X146348671Y-107448287D01*
X146371276Y-107448971D01*
X146397288Y-107448887D01*
X146426988Y-107448083D01*
X146498572Y-107444513D01*
X146588274Y-107438652D01*
X146831003Y-107421628D01*
X146988520Y-107411248D01*
X147173130Y-107400145D01*
X147242702Y-107344925D01*
X147307266Y-107291441D01*
X147426910Y-107190471D01*
X147484759Y-107143377D01*
X147513796Y-107120764D01*
X147543139Y-107098806D01*
X147572961Y-107077528D01*
X147603435Y-107056955D01*
X147634734Y-107037110D01*
X147667031Y-107018019D01*
X147649173Y-106989998D01*
X147630320Y-106964085D01*
X147610529Y-106940211D01*
X147589857Y-106918304D01*
X147568359Y-106898297D01*
X147546094Y-106880117D01*
X147523117Y-106863696D01*
X147499485Y-106848963D01*
X147475255Y-106835849D01*
X147450484Y-106824282D01*
X147425228Y-106814194D01*
X147399544Y-106805513D01*
X147373488Y-106798171D01*
X147347118Y-106792097D01*
X147320489Y-106787220D01*
X147293659Y-106783472D01*
X147239622Y-106779078D01*
X147185459Y-106778355D01*
X147131625Y-106780743D01*
X147078571Y-106785681D01*
X147026752Y-106792609D01*
X146976622Y-106800967D01*
X146883239Y-106819730D01*
X146830340Y-106832228D01*
X146778074Y-106846744D01*
X146726621Y-106863296D01*
X146676162Y-106881902D01*
X146626877Y-106902577D01*
X146578946Y-106925341D01*
X146532551Y-106950209D01*
X146487871Y-106977200D01*
X146445088Y-107006331D01*
X146404381Y-107037620D01*
X146365932Y-107071083D01*
X146329920Y-107106738D01*
X146296527Y-107144602D01*
X146265932Y-107184694D01*
X146238317Y-107227029D01*
X146213861Y-107271627D01*
X145271157Y-107271627D01*
X145231353Y-107251613D01*
X145195631Y-107230334D01*
X145162401Y-107207722D01*
X145132124Y-107183730D01*
X145105259Y-107158310D01*
X145082269Y-107131412D01*
X145063614Y-107102990D01*
X145049754Y-107072994D01*
X145041150Y-107041376D01*
X145010654Y-106985798D01*
X144985798Y-106934588D01*
X144966294Y-106887593D01*
X144951856Y-106844661D01*
X144942196Y-106805639D01*
X144937029Y-106770375D01*
X144936067Y-106738717D01*
X144937439Y-106725622D01*
X149423176Y-106725622D01*
X149424565Y-106730611D01*
X149436694Y-106746908D01*
X149462346Y-106772935D01*
X149559286Y-106860417D01*
X149641001Y-106945978D01*
X149669406Y-106974910D01*
X149691128Y-106995201D01*
X149699863Y-107002245D01*
X149707382Y-107007294D01*
X149713838Y-107010404D01*
X149719382Y-107011631D01*
X149724166Y-107011030D01*
X149728342Y-107008656D01*
X149732062Y-107004564D01*
X149735478Y-106998811D01*
X149770057Y-106899600D01*
X149777563Y-106881381D01*
X149786283Y-106862054D01*
X149796368Y-106841674D01*
X149807971Y-106820297D01*
X149821242Y-106797977D01*
X149836334Y-106774771D01*
X149853398Y-106750734D01*
X149872587Y-106725920D01*
X149847220Y-106737772D01*
X149821273Y-106747180D01*
X149794906Y-106754338D01*
X149768277Y-106759443D01*
X149741545Y-106762689D01*
X149714867Y-106764272D01*
X149662308Y-106763226D01*
X149611869Y-106757865D01*
X149564816Y-106749751D01*
X149485937Y-106731501D01*
X149456645Y-106724487D01*
X149435808Y-106720960D01*
X149428955Y-106720992D01*
X149424692Y-106722481D01*
X149423176Y-106725622D01*
X144937439Y-106725622D01*
X144939023Y-106710512D01*
X144945609Y-106685609D01*
X144955541Y-106663854D01*
X144968529Y-106645096D01*
X144984288Y-106629182D01*
X145002530Y-106615960D01*
X145022969Y-106605278D01*
X145045317Y-106596982D01*
X145069287Y-106590922D01*
X145094594Y-106586944D01*
X145120949Y-106584897D01*
X145148066Y-106584627D01*
X145175658Y-106585984D01*
X145231119Y-106592963D01*
X145285036Y-106604618D01*
X145335114Y-106619729D01*
X145379058Y-106637077D01*
X145414572Y-106655444D01*
X145428450Y-106664629D01*
X145439360Y-106673612D01*
X145765505Y-106414401D01*
X145904144Y-106306080D01*
X146029193Y-106211034D01*
X146093931Y-106163995D01*
X148003761Y-106163995D01*
X148015147Y-106186809D01*
X148026747Y-106208591D01*
X148038550Y-106229373D01*
X148050543Y-106249190D01*
X148053084Y-106253131D01*
X148059213Y-106267165D01*
X148067143Y-106281457D01*
X148076404Y-106294751D01*
X148087023Y-106306934D01*
X148099028Y-106317895D01*
X148099039Y-106317903D01*
X148100199Y-106319444D01*
X148125876Y-106349622D01*
X148151997Y-106376849D01*
X148178469Y-106401387D01*
X148205203Y-106423497D01*
X148232105Y-106443441D01*
X148259084Y-106461480D01*
X148286050Y-106477875D01*
X148312909Y-106492889D01*
X148339571Y-106506783D01*
X148365944Y-106519817D01*
X148417457Y-106544356D01*
X148458321Y-106562310D01*
X148497775Y-106576696D01*
X148535808Y-106587655D01*
X148572410Y-106595328D01*
X148607570Y-106599859D01*
X148641280Y-106601387D01*
X148673528Y-106600054D01*
X148704304Y-106596002D01*
X148733599Y-106589373D01*
X148761402Y-106580307D01*
X148787702Y-106568947D01*
X148812491Y-106555433D01*
X148835756Y-106539908D01*
X148857490Y-106522513D01*
X148877680Y-106503389D01*
X148896318Y-106482677D01*
X148913392Y-106460521D01*
X148928893Y-106437060D01*
X148942811Y-106412436D01*
X148955135Y-106386791D01*
X148965855Y-106360267D01*
X148974962Y-106333004D01*
X148982444Y-106305145D01*
X148988292Y-106276830D01*
X148992496Y-106248202D01*
X148995045Y-106219402D01*
X148995929Y-106190571D01*
X148995138Y-106161851D01*
X148992663Y-106133383D01*
X148988492Y-106105309D01*
X148982615Y-106077771D01*
X148975023Y-106050909D01*
X148962433Y-106024025D01*
X148949585Y-105998028D01*
X148936283Y-105972978D01*
X148922333Y-105948935D01*
X148907541Y-105925961D01*
X148891712Y-105904116D01*
X148874650Y-105883461D01*
X148856162Y-105864055D01*
X148846323Y-105854840D01*
X148836053Y-105845961D01*
X148825330Y-105837424D01*
X148814128Y-105829238D01*
X148802424Y-105821410D01*
X148790192Y-105813947D01*
X148777410Y-105806858D01*
X148764052Y-105800149D01*
X148750093Y-105793829D01*
X148735511Y-105787905D01*
X148720280Y-105782384D01*
X148704375Y-105777275D01*
X148687774Y-105772584D01*
X148670451Y-105768319D01*
X148652382Y-105764488D01*
X148633542Y-105761099D01*
X148616398Y-105757650D01*
X148598334Y-105755358D01*
X148579425Y-105754209D01*
X148559748Y-105754193D01*
X148539377Y-105755296D01*
X148518388Y-105757507D01*
X148474861Y-105765204D01*
X148429771Y-105777185D01*
X148383723Y-105793355D01*
X148337324Y-105813614D01*
X148291178Y-105837867D01*
X148245890Y-105866017D01*
X148202067Y-105897965D01*
X148180893Y-105915334D01*
X148167633Y-105927112D01*
X148165468Y-105928003D01*
X148151113Y-105935783D01*
X148137481Y-105945041D01*
X148124600Y-105955663D01*
X148112497Y-105967538D01*
X148101200Y-105980553D01*
X148090737Y-105994594D01*
X148081135Y-106009551D01*
X148072421Y-106025310D01*
X148064624Y-106041758D01*
X148061368Y-106049847D01*
X148053516Y-106061806D01*
X148039204Y-106086141D01*
X148026091Y-106111293D01*
X148014251Y-106137248D01*
X148003761Y-106163995D01*
X146093931Y-106163995D01*
X146142676Y-106128577D01*
X146246619Y-106058024D01*
X146343046Y-105998689D01*
X146389074Y-105973013D01*
X146433982Y-105949885D01*
X146478023Y-105929219D01*
X146521452Y-105910928D01*
X146564519Y-105894928D01*
X146607480Y-105881132D01*
X146650586Y-105869454D01*
X146694091Y-105859810D01*
X146738248Y-105852112D01*
X146783310Y-105846276D01*
X146829530Y-105842216D01*
X146877161Y-105839846D01*
X146977670Y-105839834D01*
X147086861Y-105845553D01*
X147206759Y-105856317D01*
X147249483Y-105860699D01*
X147360802Y-105866748D01*
X147434285Y-105867071D01*
X147515436Y-105863819D01*
X147601097Y-105855660D01*
X147688106Y-105841265D01*
X147731129Y-105831312D01*
X147773304Y-105819302D01*
X147814237Y-105805067D01*
X147853532Y-105788441D01*
X147890794Y-105769258D01*
X147925628Y-105747351D01*
X147957639Y-105722554D01*
X147986433Y-105694702D01*
X148011614Y-105663626D01*
X148032787Y-105629162D01*
X148049558Y-105591142D01*
X148061530Y-105549401D01*
X148068311Y-105503772D01*
X148069503Y-105454089D01*
X148064712Y-105400186D01*
X148053544Y-105341895D01*
X148069515Y-105337395D01*
X148090043Y-105334812D01*
X148114562Y-105334249D01*
X148142507Y-105335810D01*
X148173314Y-105339600D01*
X148206417Y-105345722D01*
X148241251Y-105354279D01*
X148277252Y-105365376D01*
X148313854Y-105379116D01*
X148350492Y-105395603D01*
X148386602Y-105414941D01*
X148421618Y-105437234D01*
X148438540Y-105449521D01*
X148454976Y-105462585D01*
X148470856Y-105476440D01*
X148486110Y-105491099D01*
X148500666Y-105506574D01*
X148514455Y-105522878D01*
X148527405Y-105540025D01*
X148539447Y-105558027D01*
X148580920Y-105516220D01*
X148595710Y-105501805D01*
X148612275Y-105486575D01*
X148630620Y-105470916D01*
X148650746Y-105455212D01*
X148672658Y-105439848D01*
X148696359Y-105425210D01*
X148721851Y-105411683D01*
X148749139Y-105399651D01*
X148763458Y-105394316D01*
X148778226Y-105389500D01*
X148793445Y-105385250D01*
X148809115Y-105381615D01*
X148825236Y-105378642D01*
X148841809Y-105376381D01*
X148858834Y-105374878D01*
X148876312Y-105374183D01*
X148893833Y-105374546D01*
X148911802Y-105376147D01*
X148930110Y-105378949D01*
X148948649Y-105382914D01*
X148967312Y-105388003D01*
X148985989Y-105394178D01*
X149004573Y-105401403D01*
X149022956Y-105409637D01*
X149041030Y-105418845D01*
X149058687Y-105428988D01*
X149075818Y-105440027D01*
X149092315Y-105451925D01*
X149108070Y-105464644D01*
X149122976Y-105478146D01*
X149136924Y-105492392D01*
X149149805Y-105507346D01*
X149161513Y-105522969D01*
X149171938Y-105539223D01*
X149180972Y-105556069D01*
X149188508Y-105573471D01*
X149194438Y-105591391D01*
X149198653Y-105609789D01*
X149201045Y-105628628D01*
X149201505Y-105647871D01*
X149199927Y-105667479D01*
X149196202Y-105687415D01*
X149190221Y-105707640D01*
X149181877Y-105728116D01*
X149171061Y-105748806D01*
X149157666Y-105769671D01*
X149141583Y-105790673D01*
X149122704Y-105811775D01*
X149114984Y-105820164D01*
X149108015Y-105828460D01*
X149101791Y-105836644D01*
X149096304Y-105844695D01*
X149091547Y-105852592D01*
X149087513Y-105860317D01*
X149084193Y-105867848D01*
X149081582Y-105875165D01*
X149079671Y-105882248D01*
X149078452Y-105889076D01*
X149077920Y-105895630D01*
X149078066Y-105901890D01*
X149078883Y-105907835D01*
X149080364Y-105913444D01*
X149082501Y-105918698D01*
X149085287Y-105923577D01*
X149088714Y-105928059D01*
X149092776Y-105932126D01*
X149097465Y-105935756D01*
X149102774Y-105938929D01*
X149108695Y-105941626D01*
X149115221Y-105943826D01*
X149122344Y-105945509D01*
X149130057Y-105946654D01*
X149138354Y-105947242D01*
X149147226Y-105947251D01*
X149156666Y-105946663D01*
X149166667Y-105945456D01*
X149177222Y-105943610D01*
X149188322Y-105941106D01*
X149199962Y-105937922D01*
X149212133Y-105934040D01*
X149261273Y-105920152D01*
X149317253Y-105909648D01*
X149378810Y-105902936D01*
X149444678Y-105900423D01*
X149513591Y-105902518D01*
X149584286Y-105909629D01*
X149619905Y-105915193D01*
X149655496Y-105922164D01*
X149690899Y-105930592D01*
X149725957Y-105940530D01*
X149760512Y-105952027D01*
X149794404Y-105965136D01*
X149827478Y-105979906D01*
X149859573Y-105996390D01*
X149890532Y-106014637D01*
X149920197Y-106034699D01*
X149948410Y-106056628D01*
X149975012Y-106080473D01*
X149999846Y-106106286D01*
X150022754Y-106134118D01*
X150043576Y-106164021D01*
X150058981Y-106190571D01*
X150062156Y-106196044D01*
G37*
D10*
X147490999Y-105178256D02*
X147452082Y-105198025D01*
X147282889Y-105340014D02*
X147255730Y-105375656D01*
X147613793Y-105139764D02*
X147572083Y-105148927D01*
X147344573Y-105275381D02*
X147312580Y-105306523D01*
D12*
X164807441Y-134105638D02*
X164807441Y-132105638D01*
X164807441Y-132105638D02*
X164140774Y-133534209D01*
X164140774Y-133534209D02*
X163474108Y-132105638D01*
X163474108Y-132105638D02*
X163474108Y-134105638D01*
X162521727Y-134105638D02*
X162521727Y-132772304D01*
X162521727Y-132105638D02*
X162616965Y-132200876D01*
X162616965Y-132200876D02*
X162521727Y-132296114D01*
X162521727Y-132296114D02*
X162426489Y-132200876D01*
X162426489Y-132200876D02*
X162521727Y-132105638D01*
X162521727Y-132105638D02*
X162521727Y-132296114D01*
X160712203Y-134010400D02*
X160902679Y-134105638D01*
X160902679Y-134105638D02*
X161283632Y-134105638D01*
X161283632Y-134105638D02*
X161474108Y-134010400D01*
X161474108Y-134010400D02*
X161569346Y-133915161D01*
X161569346Y-133915161D02*
X161664584Y-133724685D01*
X161664584Y-133724685D02*
X161664584Y-133153257D01*
X161664584Y-133153257D02*
X161569346Y-132962780D01*
X161569346Y-132962780D02*
X161474108Y-132867542D01*
X161474108Y-132867542D02*
X161283632Y-132772304D01*
X161283632Y-132772304D02*
X160902679Y-132772304D01*
X160902679Y-132772304D02*
X160712203Y-132867542D01*
X159855060Y-134105638D02*
X159855060Y-132105638D01*
X158997917Y-134105638D02*
X158997917Y-133058019D01*
X158997917Y-133058019D02*
X159093155Y-132867542D01*
X159093155Y-132867542D02*
X159283631Y-132772304D01*
X159283631Y-132772304D02*
X159569346Y-132772304D01*
X159569346Y-132772304D02*
X159759822Y-132867542D01*
X159759822Y-132867542D02*
X159855060Y-132962780D01*
X157188393Y-134105638D02*
X157188393Y-133058019D01*
X157188393Y-133058019D02*
X157283631Y-132867542D01*
X157283631Y-132867542D02*
X157474107Y-132772304D01*
X157474107Y-132772304D02*
X157855060Y-132772304D01*
X157855060Y-132772304D02*
X158045536Y-132867542D01*
X157188393Y-134010400D02*
X157378869Y-134105638D01*
X157378869Y-134105638D02*
X157855060Y-134105638D01*
X157855060Y-134105638D02*
X158045536Y-134010400D01*
X158045536Y-134010400D02*
X158140774Y-133819923D01*
X158140774Y-133819923D02*
X158140774Y-133629447D01*
X158140774Y-133629447D02*
X158045536Y-133438971D01*
X158045536Y-133438971D02*
X157855060Y-133343733D01*
X157855060Y-133343733D02*
X157378869Y-133343733D01*
X157378869Y-133343733D02*
X157188393Y-133248495D01*
X155474107Y-134010400D02*
X155664583Y-134105638D01*
X155664583Y-134105638D02*
X156045536Y-134105638D01*
X156045536Y-134105638D02*
X156236012Y-134010400D01*
X156236012Y-134010400D02*
X156331250Y-133819923D01*
X156331250Y-133819923D02*
X156331250Y-133058019D01*
X156331250Y-133058019D02*
X156236012Y-132867542D01*
X156236012Y-132867542D02*
X156045536Y-132772304D01*
X156045536Y-132772304D02*
X155664583Y-132772304D01*
X155664583Y-132772304D02*
X155474107Y-132867542D01*
X155474107Y-132867542D02*
X155378869Y-133058019D01*
X155378869Y-133058019D02*
X155378869Y-133248495D01*
X155378869Y-133248495D02*
X156331250Y-133438971D01*
X154236012Y-134105638D02*
X154426488Y-134010400D01*
X154426488Y-134010400D02*
X154521726Y-133819923D01*
X154521726Y-133819923D02*
X154521726Y-132105638D01*
X151950297Y-134105638D02*
X151950297Y-132105638D01*
X151950297Y-132105638D02*
X151474107Y-132105638D01*
X151474107Y-132105638D02*
X151188392Y-132200876D01*
X151188392Y-132200876D02*
X150997916Y-132391352D01*
X150997916Y-132391352D02*
X150902678Y-132581828D01*
X150902678Y-132581828D02*
X150807440Y-132962780D01*
X150807440Y-132962780D02*
X150807440Y-133248495D01*
X150807440Y-133248495D02*
X150902678Y-133629447D01*
X150902678Y-133629447D02*
X150997916Y-133819923D01*
X150997916Y-133819923D02*
X151188392Y-134010400D01*
X151188392Y-134010400D02*
X151474107Y-134105638D01*
X151474107Y-134105638D02*
X151950297Y-134105638D01*
X149950297Y-133915161D02*
X149855059Y-134010400D01*
X149855059Y-134010400D02*
X149950297Y-134105638D01*
X149950297Y-134105638D02*
X150045535Y-134010400D01*
X150045535Y-134010400D02*
X149950297Y-133915161D01*
X149950297Y-133915161D02*
X149950297Y-134105638D01*
X146426487Y-134105638D02*
X147569344Y-134105638D01*
X146997916Y-134105638D02*
X146997916Y-132105638D01*
X146997916Y-132105638D02*
X147188392Y-132391352D01*
X147188392Y-132391352D02*
X147378868Y-132581828D01*
X147378868Y-132581828D02*
X147569344Y-132677066D01*
X144521725Y-134105638D02*
X145664582Y-134105638D01*
X145093154Y-134105638D02*
X145093154Y-132105638D01*
X145093154Y-132105638D02*
X145283630Y-132391352D01*
X145283630Y-132391352D02*
X145474106Y-132581828D01*
X145474106Y-132581828D02*
X145664582Y-132677066D01*
X142236011Y-132010400D02*
X143950296Y-134581828D01*
X141664582Y-132296114D02*
X141569344Y-132200876D01*
X141569344Y-132200876D02*
X141378868Y-132105638D01*
X141378868Y-132105638D02*
X140902677Y-132105638D01*
X140902677Y-132105638D02*
X140712201Y-132200876D01*
X140712201Y-132200876D02*
X140616963Y-132296114D01*
X140616963Y-132296114D02*
X140521725Y-132486590D01*
X140521725Y-132486590D02*
X140521725Y-132677066D01*
X140521725Y-132677066D02*
X140616963Y-132962780D01*
X140616963Y-132962780D02*
X141759820Y-134105638D01*
X141759820Y-134105638D02*
X140521725Y-134105638D01*
X139283630Y-132105638D02*
X139093153Y-132105638D01*
X139093153Y-132105638D02*
X138902677Y-132200876D01*
X138902677Y-132200876D02*
X138807439Y-132296114D01*
X138807439Y-132296114D02*
X138712201Y-132486590D01*
X138712201Y-132486590D02*
X138616963Y-132867542D01*
X138616963Y-132867542D02*
X138616963Y-133343733D01*
X138616963Y-133343733D02*
X138712201Y-133724685D01*
X138712201Y-133724685D02*
X138807439Y-133915161D01*
X138807439Y-133915161D02*
X138902677Y-134010400D01*
X138902677Y-134010400D02*
X139093153Y-134105638D01*
X139093153Y-134105638D02*
X139283630Y-134105638D01*
X139283630Y-134105638D02*
X139474106Y-134010400D01*
X139474106Y-134010400D02*
X139569344Y-133915161D01*
X139569344Y-133915161D02*
X139664582Y-133724685D01*
X139664582Y-133724685D02*
X139759820Y-133343733D01*
X139759820Y-133343733D02*
X139759820Y-132867542D01*
X139759820Y-132867542D02*
X139664582Y-132486590D01*
X139664582Y-132486590D02*
X139569344Y-132296114D01*
X139569344Y-132296114D02*
X139474106Y-132200876D01*
X139474106Y-132200876D02*
X139283630Y-132105638D01*
X137855058Y-132296114D02*
X137759820Y-132200876D01*
X137759820Y-132200876D02*
X137569344Y-132105638D01*
X137569344Y-132105638D02*
X137093153Y-132105638D01*
X137093153Y-132105638D02*
X136902677Y-132200876D01*
X136902677Y-132200876D02*
X136807439Y-132296114D01*
X136807439Y-132296114D02*
X136712201Y-132486590D01*
X136712201Y-132486590D02*
X136712201Y-132677066D01*
X136712201Y-132677066D02*
X136807439Y-132962780D01*
X136807439Y-132962780D02*
X137950296Y-134105638D01*
X137950296Y-134105638D02*
X136712201Y-134105638D01*
X134997915Y-132772304D02*
X134997915Y-134105638D01*
X135474106Y-132010400D02*
X135950296Y-133438971D01*
X135950296Y-133438971D02*
X134712201Y-133438971D01*
D13*
X169838666Y-133709580D02*
X169886285Y-133757200D01*
X169886285Y-133757200D02*
X170029142Y-133804819D01*
X170029142Y-133804819D02*
X170124380Y-133804819D01*
X170124380Y-133804819D02*
X170267237Y-133757200D01*
X170267237Y-133757200D02*
X170362475Y-133661961D01*
X170362475Y-133661961D02*
X170410094Y-133566723D01*
X170410094Y-133566723D02*
X170457713Y-133376247D01*
X170457713Y-133376247D02*
X170457713Y-133233390D01*
X170457713Y-133233390D02*
X170410094Y-133042914D01*
X170410094Y-133042914D02*
X170362475Y-132947676D01*
X170362475Y-132947676D02*
X170267237Y-132852438D01*
X170267237Y-132852438D02*
X170124380Y-132804819D01*
X170124380Y-132804819D02*
X170029142Y-132804819D01*
X170029142Y-132804819D02*
X169886285Y-132852438D01*
X169886285Y-132852438D02*
X169838666Y-132900057D01*
X169457713Y-132900057D02*
X169410094Y-132852438D01*
X169410094Y-132852438D02*
X169314856Y-132804819D01*
X169314856Y-132804819D02*
X169076761Y-132804819D01*
X169076761Y-132804819D02*
X168981523Y-132852438D01*
X168981523Y-132852438D02*
X168933904Y-132900057D01*
X168933904Y-132900057D02*
X168886285Y-132995295D01*
X168886285Y-132995295D02*
X168886285Y-133090533D01*
X168886285Y-133090533D02*
X168933904Y-133233390D01*
X168933904Y-133233390D02*
X169505332Y-133804819D01*
X169505332Y-133804819D02*
X168886285Y-133804819D01*
D14*
%TO.C,REF\u002A\u002A*%
X155622260Y-93181788D02*
X155705011Y-93208991D01*
X155780104Y-93254422D01*
X155851996Y-93320240D01*
X155890544Y-93364505D01*
X155929954Y-93422899D01*
X155955144Y-93483524D01*
X155968559Y-93552803D01*
X155972646Y-93637160D01*
X155972367Y-93683245D01*
X155970158Y-93724388D01*
X155964592Y-93756520D01*
X155954284Y-93787060D01*
X155937846Y-93823427D01*
X155923898Y-93850666D01*
X155865363Y-93936367D01*
X155793317Y-94005555D01*
X155709645Y-94056679D01*
X155616229Y-94088188D01*
X155583132Y-94095163D01*
X155542658Y-94102032D01*
X155509697Y-94103857D01*
X155475396Y-94100885D01*
X155430898Y-94093364D01*
X155379632Y-94080940D01*
X155289132Y-94043050D01*
X155210043Y-93988774D01*
X155144226Y-93920708D01*
X155093538Y-93841449D01*
X155059838Y-93753592D01*
X155044984Y-93659733D01*
X155050834Y-93562468D01*
X155077097Y-93466158D01*
X155122116Y-93377432D01*
X155183071Y-93302357D01*
X155257882Y-93242579D01*
X155344466Y-93199747D01*
X155440741Y-93175509D01*
X155544626Y-93171514D01*
X155622260Y-93181788D01*
G36*
X155622260Y-93181788D02*
G01*
X155705011Y-93208991D01*
X155780104Y-93254422D01*
X155851996Y-93320240D01*
X155890544Y-93364505D01*
X155929954Y-93422899D01*
X155955144Y-93483524D01*
X155968559Y-93552803D01*
X155972646Y-93637160D01*
X155972367Y-93683245D01*
X155970158Y-93724388D01*
X155964592Y-93756520D01*
X155954284Y-93787060D01*
X155937846Y-93823427D01*
X155923898Y-93850666D01*
X155865363Y-93936367D01*
X155793317Y-94005555D01*
X155709645Y-94056679D01*
X155616229Y-94088188D01*
X155583132Y-94095163D01*
X155542658Y-94102032D01*
X155509697Y-94103857D01*
X155475396Y-94100885D01*
X155430898Y-94093364D01*
X155379632Y-94080940D01*
X155289132Y-94043050D01*
X155210043Y-93988774D01*
X155144226Y-93920708D01*
X155093538Y-93841449D01*
X155059838Y-93753592D01*
X155044984Y-93659733D01*
X155050834Y-93562468D01*
X155077097Y-93466158D01*
X155122116Y-93377432D01*
X155183071Y-93302357D01*
X155257882Y-93242579D01*
X155344466Y-93199747D01*
X155440741Y-93175509D01*
X155544626Y-93171514D01*
X155622260Y-93181788D01*
G37*
X153156409Y-94110971D02*
X153251966Y-94128461D01*
X153416256Y-94173502D01*
X153570287Y-94236594D01*
X153716207Y-94318853D01*
X153856164Y-94421395D01*
X153992306Y-94545337D01*
X154036171Y-94590599D01*
X154148456Y-94722803D01*
X154241670Y-94860770D01*
X154318417Y-95008688D01*
X154381301Y-95170741D01*
X154385118Y-95182329D01*
X154435205Y-95368330D01*
X154468597Y-95564459D01*
X154485282Y-95766506D01*
X154485249Y-95970263D01*
X154468489Y-96171519D01*
X154434990Y-96366066D01*
X154384742Y-96549694D01*
X154340888Y-96666991D01*
X154263046Y-96829889D01*
X154169526Y-96983804D01*
X154062520Y-97125609D01*
X153944217Y-97252177D01*
X153816809Y-97360379D01*
X153739304Y-97413058D01*
X153612423Y-97482688D01*
X153474941Y-97541406D01*
X153333414Y-97586525D01*
X153194400Y-97615360D01*
X153180295Y-97617044D01*
X153136851Y-97620372D01*
X153079421Y-97623213D01*
X153013820Y-97625311D01*
X152945865Y-97626406D01*
X152819076Y-97624078D01*
X152671371Y-97611074D01*
X152533477Y-97586071D01*
X152399712Y-97548256D01*
X152376260Y-97539827D01*
X152328310Y-97520346D01*
X152271838Y-97495411D01*
X152210077Y-97466660D01*
X152146261Y-97435728D01*
X152083624Y-97404253D01*
X152025401Y-97373872D01*
X151974825Y-97346221D01*
X151935131Y-97322937D01*
X151909552Y-97305656D01*
X151901323Y-97296017D01*
X151902774Y-97292922D01*
X151913948Y-97273017D01*
X151934832Y-97237358D01*
X151963963Y-97188397D01*
X151999879Y-97128584D01*
X152041118Y-97060371D01*
X152086215Y-96986209D01*
X152267483Y-96688946D01*
X152314013Y-96733477D01*
X152405421Y-96811803D01*
X152519032Y-96886377D01*
X152636820Y-96940412D01*
X152757257Y-96973228D01*
X152878815Y-96984149D01*
X152920283Y-96982806D01*
X153037778Y-96964550D01*
X153147787Y-96925555D01*
X153249128Y-96866608D01*
X153340619Y-96788495D01*
X153421078Y-96692002D01*
X153489325Y-96577916D01*
X153505606Y-96543662D01*
X153551680Y-96420178D01*
X153586804Y-96281856D01*
X153610895Y-96132499D01*
X153623871Y-95975911D01*
X153625647Y-95815894D01*
X153616141Y-95656252D01*
X153595270Y-95500788D01*
X153562950Y-95353304D01*
X153519097Y-95217605D01*
X153481680Y-95131014D01*
X153416883Y-95017626D01*
X153341470Y-94924008D01*
X153255116Y-94849897D01*
X153157493Y-94795032D01*
X153048275Y-94759150D01*
X152927137Y-94741989D01*
X152857736Y-94740818D01*
X152734866Y-94755079D01*
X152619362Y-94790179D01*
X152512651Y-94845620D01*
X152416162Y-94920902D01*
X152400418Y-94935378D01*
X152369848Y-94961900D01*
X152347507Y-94979076D01*
X152337389Y-94983725D01*
X152335404Y-94981535D01*
X152320939Y-94962659D01*
X152297098Y-94929335D01*
X152265727Y-94884318D01*
X152228672Y-94830363D01*
X152187781Y-94770223D01*
X152144900Y-94706656D01*
X152101876Y-94642414D01*
X152060555Y-94580253D01*
X152022784Y-94522929D01*
X151990410Y-94473195D01*
X151965280Y-94433806D01*
X151949240Y-94407518D01*
X151944137Y-94397085D01*
X151948748Y-94392879D01*
X151967965Y-94387871D01*
X151977536Y-94385324D01*
X152005507Y-94374187D01*
X152047146Y-94355740D01*
X152098693Y-94331663D01*
X152156388Y-94303637D01*
X152167655Y-94298092D01*
X152345385Y-94218827D01*
X152515188Y-94159323D01*
X152679128Y-94119183D01*
X152839269Y-94098009D01*
X152997675Y-94095404D01*
X153156409Y-94110971D01*
G36*
X153156409Y-94110971D02*
G01*
X153251966Y-94128461D01*
X153416256Y-94173502D01*
X153570287Y-94236594D01*
X153716207Y-94318853D01*
X153856164Y-94421395D01*
X153992306Y-94545337D01*
X154036171Y-94590599D01*
X154148456Y-94722803D01*
X154241670Y-94860770D01*
X154318417Y-95008688D01*
X154381301Y-95170741D01*
X154385118Y-95182329D01*
X154435205Y-95368330D01*
X154468597Y-95564459D01*
X154485282Y-95766506D01*
X154485249Y-95970263D01*
X154468489Y-96171519D01*
X154434990Y-96366066D01*
X154384742Y-96549694D01*
X154340888Y-96666991D01*
X154263046Y-96829889D01*
X154169526Y-96983804D01*
X154062520Y-97125609D01*
X153944217Y-97252177D01*
X153816809Y-97360379D01*
X153739304Y-97413058D01*
X153612423Y-97482688D01*
X153474941Y-97541406D01*
X153333414Y-97586525D01*
X153194400Y-97615360D01*
X153180295Y-97617044D01*
X153136851Y-97620372D01*
X153079421Y-97623213D01*
X153013820Y-97625311D01*
X152945865Y-97626406D01*
X152819076Y-97624078D01*
X152671371Y-97611074D01*
X152533477Y-97586071D01*
X152399712Y-97548256D01*
X152376260Y-97539827D01*
X152328310Y-97520346D01*
X152271838Y-97495411D01*
X152210077Y-97466660D01*
X152146261Y-97435728D01*
X152083624Y-97404253D01*
X152025401Y-97373872D01*
X151974825Y-97346221D01*
X151935131Y-97322937D01*
X151909552Y-97305656D01*
X151901323Y-97296017D01*
X151902774Y-97292922D01*
X151913948Y-97273017D01*
X151934832Y-97237358D01*
X151963963Y-97188397D01*
X151999879Y-97128584D01*
X152041118Y-97060371D01*
X152086215Y-96986209D01*
X152267483Y-96688946D01*
X152314013Y-96733477D01*
X152405421Y-96811803D01*
X152519032Y-96886377D01*
X152636820Y-96940412D01*
X152757257Y-96973228D01*
X152878815Y-96984149D01*
X152920283Y-96982806D01*
X153037778Y-96964550D01*
X153147787Y-96925555D01*
X153249128Y-96866608D01*
X153340619Y-96788495D01*
X153421078Y-96692002D01*
X153489325Y-96577916D01*
X153505606Y-96543662D01*
X153551680Y-96420178D01*
X153586804Y-96281856D01*
X153610895Y-96132499D01*
X153623871Y-95975911D01*
X153625647Y-95815894D01*
X153616141Y-95656252D01*
X153595270Y-95500788D01*
X153562950Y-95353304D01*
X153519097Y-95217605D01*
X153481680Y-95131014D01*
X153416883Y-95017626D01*
X153341470Y-94924008D01*
X153255116Y-94849897D01*
X153157493Y-94795032D01*
X153048275Y-94759150D01*
X152927137Y-94741989D01*
X152857736Y-94740818D01*
X152734866Y-94755079D01*
X152619362Y-94790179D01*
X152512651Y-94845620D01*
X152416162Y-94920902D01*
X152400418Y-94935378D01*
X152369848Y-94961900D01*
X152347507Y-94979076D01*
X152337389Y-94983725D01*
X152335404Y-94981535D01*
X152320939Y-94962659D01*
X152297098Y-94929335D01*
X152265727Y-94884318D01*
X152228672Y-94830363D01*
X152187781Y-94770223D01*
X152144900Y-94706656D01*
X152101876Y-94642414D01*
X152060555Y-94580253D01*
X152022784Y-94522929D01*
X151990410Y-94473195D01*
X151965280Y-94433806D01*
X151949240Y-94407518D01*
X151944137Y-94397085D01*
X151948748Y-94392879D01*
X151967965Y-94387871D01*
X151977536Y-94385324D01*
X152005507Y-94374187D01*
X152047146Y-94355740D01*
X152098693Y-94331663D01*
X152156388Y-94303637D01*
X152167655Y-94298092D01*
X152345385Y-94218827D01*
X152515188Y-94159323D01*
X152679128Y-94119183D01*
X152839269Y-94098009D01*
X152997675Y-94095404D01*
X153156409Y-94110971D01*
G37*
X149353692Y-96391649D02*
X149352966Y-96469096D01*
X149344387Y-96620532D01*
X149325531Y-96757221D01*
X149295535Y-96883214D01*
X149253534Y-97002563D01*
X149198667Y-97119319D01*
X149131865Y-97230117D01*
X149041061Y-97343677D01*
X148937406Y-97439149D01*
X148821585Y-97516011D01*
X148694284Y-97573735D01*
X148556187Y-97611796D01*
X148518491Y-97617604D01*
X148439450Y-97623334D01*
X148351327Y-97623521D01*
X148261934Y-97618477D01*
X148179082Y-97608516D01*
X148110585Y-97593950D01*
X148079733Y-97584302D01*
X148002428Y-97554061D01*
X147925377Y-97516555D01*
X147855898Y-97475552D01*
X147801313Y-97434817D01*
X147778614Y-97415443D01*
X147755899Y-97397600D01*
X147744477Y-97390716D01*
X147743235Y-97392362D01*
X147740426Y-97410143D01*
X147738474Y-97443308D01*
X147737743Y-97486671D01*
X147737743Y-97582627D01*
X146879594Y-97582627D01*
X146913859Y-97521912D01*
X146919053Y-97512806D01*
X146927413Y-97498187D01*
X146934986Y-97484111D01*
X146941810Y-97469478D01*
X146947925Y-97453187D01*
X146953371Y-97434136D01*
X146958185Y-97411224D01*
X146962406Y-97383351D01*
X146966075Y-97349416D01*
X146969229Y-97308317D01*
X146971909Y-97258953D01*
X146974152Y-97200224D01*
X146975997Y-97131028D01*
X146977485Y-97050264D01*
X146978653Y-96956832D01*
X146979542Y-96849630D01*
X146980189Y-96727558D01*
X146980634Y-96589514D01*
X146980916Y-96434397D01*
X146981073Y-96261106D01*
X146981146Y-96068541D01*
X146981172Y-95855600D01*
X146981183Y-95719468D01*
X147782898Y-95719468D01*
X147782898Y-96869659D01*
X147853454Y-96916027D01*
X147894115Y-96939729D01*
X147948244Y-96965577D01*
X147997387Y-96983767D01*
X148060863Y-96999489D01*
X148157029Y-97010479D01*
X148241598Y-97002303D01*
X148314917Y-96974743D01*
X148377335Y-96927580D01*
X148429200Y-96860596D01*
X148470858Y-96773571D01*
X148502660Y-96666288D01*
X148505243Y-96653947D01*
X148513698Y-96592710D01*
X148519361Y-96515630D01*
X148522274Y-96427940D01*
X148522481Y-96334872D01*
X148520028Y-96241658D01*
X148514959Y-96153532D01*
X148507317Y-96075726D01*
X148497146Y-96013471D01*
X148495865Y-96007604D01*
X148466824Y-95897059D01*
X148432308Y-95806513D01*
X148391154Y-95733891D01*
X148342197Y-95677119D01*
X148284272Y-95634122D01*
X148252318Y-95618553D01*
X148179482Y-95599660D01*
X148098141Y-95596403D01*
X148013017Y-95608327D01*
X147928831Y-95634978D01*
X147850306Y-95675900D01*
X147782898Y-95719468D01*
X146981183Y-95719468D01*
X146981191Y-95621183D01*
X146981387Y-93936316D01*
X147886715Y-93936316D01*
X147862283Y-93973005D01*
X147856016Y-93982585D01*
X147829906Y-94028919D01*
X147812167Y-94076040D01*
X147800606Y-94131189D01*
X147793029Y-94201605D01*
X147792537Y-94208588D01*
X147790760Y-94246579D01*
X147789142Y-94300514D01*
X147787697Y-94367641D01*
X147786438Y-94445209D01*
X147785378Y-94530466D01*
X147784527Y-94620662D01*
X147783901Y-94713045D01*
X147783510Y-94804863D01*
X147783368Y-94893365D01*
X147783488Y-94975800D01*
X147783881Y-95049417D01*
X147784560Y-95111464D01*
X147785539Y-95159189D01*
X147786830Y-95189842D01*
X147788445Y-95200671D01*
X147796655Y-95196271D01*
X147818345Y-95181300D01*
X147847712Y-95159386D01*
X147896577Y-95125174D01*
X147984823Y-95078652D01*
X148083614Y-95044984D01*
X148196208Y-95023169D01*
X148325862Y-95012203D01*
X148418368Y-95011157D01*
X148539709Y-95020952D01*
X148649797Y-95045112D01*
X148753087Y-95084723D01*
X148854036Y-95140870D01*
X148899201Y-95171821D01*
X149004609Y-95263053D01*
X149096236Y-95372044D01*
X149174030Y-95498664D01*
X149237939Y-95642783D01*
X149287912Y-95804270D01*
X149323896Y-95982997D01*
X149345841Y-96178833D01*
X149351598Y-96334872D01*
X149353692Y-96391649D01*
G36*
X149353692Y-96391649D02*
G01*
X149352966Y-96469096D01*
X149344387Y-96620532D01*
X149325531Y-96757221D01*
X149295535Y-96883214D01*
X149253534Y-97002563D01*
X149198667Y-97119319D01*
X149131865Y-97230117D01*
X149041061Y-97343677D01*
X148937406Y-97439149D01*
X148821585Y-97516011D01*
X148694284Y-97573735D01*
X148556187Y-97611796D01*
X148518491Y-97617604D01*
X148439450Y-97623334D01*
X148351327Y-97623521D01*
X148261934Y-97618477D01*
X148179082Y-97608516D01*
X148110585Y-97593950D01*
X148079733Y-97584302D01*
X148002428Y-97554061D01*
X147925377Y-97516555D01*
X147855898Y-97475552D01*
X147801313Y-97434817D01*
X147778614Y-97415443D01*
X147755899Y-97397600D01*
X147744477Y-97390716D01*
X147743235Y-97392362D01*
X147740426Y-97410143D01*
X147738474Y-97443308D01*
X147737743Y-97486671D01*
X147737743Y-97582627D01*
X146879594Y-97582627D01*
X146913859Y-97521912D01*
X146919053Y-97512806D01*
X146927413Y-97498187D01*
X146934986Y-97484111D01*
X146941810Y-97469478D01*
X146947925Y-97453187D01*
X146953371Y-97434136D01*
X146958185Y-97411224D01*
X146962406Y-97383351D01*
X146966075Y-97349416D01*
X146969229Y-97308317D01*
X146971909Y-97258953D01*
X146974152Y-97200224D01*
X146975997Y-97131028D01*
X146977485Y-97050264D01*
X146978653Y-96956832D01*
X146979542Y-96849630D01*
X146980189Y-96727558D01*
X146980634Y-96589514D01*
X146980916Y-96434397D01*
X146981073Y-96261106D01*
X146981146Y-96068541D01*
X146981172Y-95855600D01*
X146981183Y-95719468D01*
X147782898Y-95719468D01*
X147782898Y-96869659D01*
X147853454Y-96916027D01*
X147894115Y-96939729D01*
X147948244Y-96965577D01*
X147997387Y-96983767D01*
X148060863Y-96999489D01*
X148157029Y-97010479D01*
X148241598Y-97002303D01*
X148314917Y-96974743D01*
X148377335Y-96927580D01*
X148429200Y-96860596D01*
X148470858Y-96773571D01*
X148502660Y-96666288D01*
X148505243Y-96653947D01*
X148513698Y-96592710D01*
X148519361Y-96515630D01*
X148522274Y-96427940D01*
X148522481Y-96334872D01*
X148520028Y-96241658D01*
X148514959Y-96153532D01*
X148507317Y-96075726D01*
X148497146Y-96013471D01*
X148495865Y-96007604D01*
X148466824Y-95897059D01*
X148432308Y-95806513D01*
X148391154Y-95733891D01*
X148342197Y-95677119D01*
X148284272Y-95634122D01*
X148252318Y-95618553D01*
X148179482Y-95599660D01*
X148098141Y-95596403D01*
X148013017Y-95608327D01*
X147928831Y-95634978D01*
X147850306Y-95675900D01*
X147782898Y-95719468D01*
X146981183Y-95719468D01*
X146981191Y-95621183D01*
X146981387Y-93936316D01*
X147886715Y-93936316D01*
X147862283Y-93973005D01*
X147856016Y-93982585D01*
X147829906Y-94028919D01*
X147812167Y-94076040D01*
X147800606Y-94131189D01*
X147793029Y-94201605D01*
X147792537Y-94208588D01*
X147790760Y-94246579D01*
X147789142Y-94300514D01*
X147787697Y-94367641D01*
X147786438Y-94445209D01*
X147785378Y-94530466D01*
X147784527Y-94620662D01*
X147783901Y-94713045D01*
X147783510Y-94804863D01*
X147783368Y-94893365D01*
X147783488Y-94975800D01*
X147783881Y-95049417D01*
X147784560Y-95111464D01*
X147785539Y-95159189D01*
X147786830Y-95189842D01*
X147788445Y-95200671D01*
X147796655Y-95196271D01*
X147818345Y-95181300D01*
X147847712Y-95159386D01*
X147896577Y-95125174D01*
X147984823Y-95078652D01*
X148083614Y-95044984D01*
X148196208Y-95023169D01*
X148325862Y-95012203D01*
X148418368Y-95011157D01*
X148539709Y-95020952D01*
X148649797Y-95045112D01*
X148753087Y-95084723D01*
X148854036Y-95140870D01*
X148899201Y-95171821D01*
X149004609Y-95263053D01*
X149096236Y-95372044D01*
X149174030Y-95498664D01*
X149237939Y-95642783D01*
X149287912Y-95804270D01*
X149323896Y-95982997D01*
X149345841Y-96178833D01*
X149351598Y-96334872D01*
X149353692Y-96391649D01*
G37*
X151895453Y-96792405D02*
X151894959Y-96826301D01*
X151891330Y-96901140D01*
X151883720Y-96963339D01*
X151871386Y-97019922D01*
X151827011Y-97146014D01*
X151764098Y-97260617D01*
X151683936Y-97361506D01*
X151587438Y-97447862D01*
X151475520Y-97518870D01*
X151349095Y-97573714D01*
X151209076Y-97611576D01*
X151172847Y-97617289D01*
X151093853Y-97623251D01*
X151005539Y-97623584D01*
X150915773Y-97618597D01*
X150832420Y-97608604D01*
X150763349Y-97593916D01*
X150676885Y-97563687D01*
X150566984Y-97508995D01*
X150469654Y-97441481D01*
X150407565Y-97390494D01*
X150404303Y-97486560D01*
X150401041Y-97582627D01*
X149978148Y-97582627D01*
X149967241Y-97582624D01*
X149872754Y-97582318D01*
X149786029Y-97581554D01*
X149709535Y-97580389D01*
X149645741Y-97578880D01*
X149597116Y-97577085D01*
X149566131Y-97575059D01*
X149555254Y-97572860D01*
X149555276Y-97572401D01*
X149562312Y-97556848D01*
X149578132Y-97534009D01*
X149582432Y-97528576D01*
X149593475Y-97514544D01*
X149603009Y-97501124D01*
X149611159Y-97486660D01*
X149618050Y-97469494D01*
X149623809Y-97447972D01*
X149628560Y-97420436D01*
X149632429Y-97385230D01*
X149635542Y-97340698D01*
X149638023Y-97285184D01*
X149639998Y-97217031D01*
X149641592Y-97134583D01*
X149642932Y-97036184D01*
X149644142Y-96920177D01*
X149645347Y-96784906D01*
X149646293Y-96673524D01*
X150447076Y-96673524D01*
X150447076Y-96869400D01*
X150491746Y-96925911D01*
X150504483Y-96941150D01*
X150551302Y-96983782D01*
X150611953Y-97019610D01*
X150622595Y-97024788D01*
X150661374Y-97041683D01*
X150696390Y-97051847D01*
X150736420Y-97057263D01*
X150790239Y-97059916D01*
X150808346Y-97060321D01*
X150883709Y-97057478D01*
X150944441Y-97045558D01*
X150996150Y-97022975D01*
X151044444Y-96988149D01*
X151049501Y-96983736D01*
X151097970Y-96928098D01*
X151126157Y-96864271D01*
X151135450Y-96789220D01*
X151128218Y-96717631D01*
X151103494Y-96654583D01*
X151058947Y-96596696D01*
X151004017Y-96549746D01*
X150931592Y-96509899D01*
X150845038Y-96482201D01*
X150742368Y-96466034D01*
X150621592Y-96460780D01*
X150612705Y-96460795D01*
X150557358Y-96461593D01*
X150510434Y-96463426D01*
X150476651Y-96466049D01*
X150460726Y-96469212D01*
X150456641Y-96475679D01*
X150452270Y-96497813D01*
X150449302Y-96536926D01*
X150447612Y-96594877D01*
X150447076Y-96673524D01*
X149646293Y-96673524D01*
X149646673Y-96628716D01*
X149647926Y-96485950D01*
X149649349Y-96340880D01*
X149650874Y-96214965D01*
X149652631Y-96106374D01*
X149654749Y-96013272D01*
X149657358Y-95933829D01*
X149660588Y-95866211D01*
X149664567Y-95808587D01*
X149669426Y-95759123D01*
X149675295Y-95715988D01*
X149682302Y-95677348D01*
X149690578Y-95641372D01*
X149700252Y-95606227D01*
X149711454Y-95570080D01*
X149724314Y-95531099D01*
X149739788Y-95488029D01*
X149782692Y-95395809D01*
X149836433Y-95316037D01*
X149905274Y-95241903D01*
X149982883Y-95178343D01*
X150087459Y-95116663D01*
X150206942Y-95069140D01*
X150342206Y-95035505D01*
X150494124Y-95015490D01*
X150663570Y-95008827D01*
X150721588Y-95009225D01*
X150787096Y-95011273D01*
X150848391Y-95015642D01*
X150909795Y-95022973D01*
X150975630Y-95033907D01*
X151050218Y-95049085D01*
X151137882Y-95069147D01*
X151242943Y-95094735D01*
X151271504Y-95101758D01*
X151346752Y-95119714D01*
X151417086Y-95135758D01*
X151478265Y-95148966D01*
X151526052Y-95158412D01*
X151556209Y-95163169D01*
X151584481Y-95166848D01*
X151610758Y-95172125D01*
X151620757Y-95176880D01*
X151617650Y-95185719D01*
X151606892Y-95213010D01*
X151589562Y-95255844D01*
X151566824Y-95311363D01*
X151539845Y-95376710D01*
X151509788Y-95449027D01*
X151503191Y-95464817D01*
X151464605Y-95555422D01*
X151433466Y-95625155D01*
X151409615Y-95674343D01*
X151392896Y-95703312D01*
X151383152Y-95712390D01*
X151375464Y-95710343D01*
X151349113Y-95700698D01*
X151310680Y-95685128D01*
X151265520Y-95665753D01*
X151170991Y-95627752D01*
X151034178Y-95586718D01*
X150892987Y-95561550D01*
X150855012Y-95557549D01*
X150751757Y-95555385D01*
X150664650Y-95568560D01*
X150592827Y-95597694D01*
X150535429Y-95643404D01*
X150491594Y-95706310D01*
X150460460Y-95787030D01*
X150441168Y-95886183D01*
X150433748Y-95945162D01*
X150595634Y-95938383D01*
X150722193Y-95936751D01*
X150873649Y-95943132D01*
X151022094Y-95957715D01*
X151158276Y-95979820D01*
X151222943Y-95994759D01*
X151355188Y-96037679D01*
X151477460Y-96094278D01*
X151587383Y-96162955D01*
X151682581Y-96242108D01*
X151760678Y-96330134D01*
X151819297Y-96425431D01*
X151843293Y-96477802D01*
X151868930Y-96548528D01*
X151885176Y-96619750D01*
X151893520Y-96698650D01*
X151895388Y-96789220D01*
X151895453Y-96792405D01*
G36*
X151895453Y-96792405D02*
G01*
X151894959Y-96826301D01*
X151891330Y-96901140D01*
X151883720Y-96963339D01*
X151871386Y-97019922D01*
X151827011Y-97146014D01*
X151764098Y-97260617D01*
X151683936Y-97361506D01*
X151587438Y-97447862D01*
X151475520Y-97518870D01*
X151349095Y-97573714D01*
X151209076Y-97611576D01*
X151172847Y-97617289D01*
X151093853Y-97623251D01*
X151005539Y-97623584D01*
X150915773Y-97618597D01*
X150832420Y-97608604D01*
X150763349Y-97593916D01*
X150676885Y-97563687D01*
X150566984Y-97508995D01*
X150469654Y-97441481D01*
X150407565Y-97390494D01*
X150404303Y-97486560D01*
X150401041Y-97582627D01*
X149978148Y-97582627D01*
X149967241Y-97582624D01*
X149872754Y-97582318D01*
X149786029Y-97581554D01*
X149709535Y-97580389D01*
X149645741Y-97578880D01*
X149597116Y-97577085D01*
X149566131Y-97575059D01*
X149555254Y-97572860D01*
X149555276Y-97572401D01*
X149562312Y-97556848D01*
X149578132Y-97534009D01*
X149582432Y-97528576D01*
X149593475Y-97514544D01*
X149603009Y-97501124D01*
X149611159Y-97486660D01*
X149618050Y-97469494D01*
X149623809Y-97447972D01*
X149628560Y-97420436D01*
X149632429Y-97385230D01*
X149635542Y-97340698D01*
X149638023Y-97285184D01*
X149639998Y-97217031D01*
X149641592Y-97134583D01*
X149642932Y-97036184D01*
X149644142Y-96920177D01*
X149645347Y-96784906D01*
X149646293Y-96673524D01*
X150447076Y-96673524D01*
X150447076Y-96869400D01*
X150491746Y-96925911D01*
X150504483Y-96941150D01*
X150551302Y-96983782D01*
X150611953Y-97019610D01*
X150622595Y-97024788D01*
X150661374Y-97041683D01*
X150696390Y-97051847D01*
X150736420Y-97057263D01*
X150790239Y-97059916D01*
X150808346Y-97060321D01*
X150883709Y-97057478D01*
X150944441Y-97045558D01*
X150996150Y-97022975D01*
X151044444Y-96988149D01*
X151049501Y-96983736D01*
X151097970Y-96928098D01*
X151126157Y-96864271D01*
X151135450Y-96789220D01*
X151128218Y-96717631D01*
X151103494Y-96654583D01*
X151058947Y-96596696D01*
X151004017Y-96549746D01*
X150931592Y-96509899D01*
X150845038Y-96482201D01*
X150742368Y-96466034D01*
X150621592Y-96460780D01*
X150612705Y-96460795D01*
X150557358Y-96461593D01*
X150510434Y-96463426D01*
X150476651Y-96466049D01*
X150460726Y-96469212D01*
X150456641Y-96475679D01*
X150452270Y-96497813D01*
X150449302Y-96536926D01*
X150447612Y-96594877D01*
X150447076Y-96673524D01*
X149646293Y-96673524D01*
X149646673Y-96628716D01*
X149647926Y-96485950D01*
X149649349Y-96340880D01*
X149650874Y-96214965D01*
X149652631Y-96106374D01*
X149654749Y-96013272D01*
X149657358Y-95933829D01*
X149660588Y-95866211D01*
X149664567Y-95808587D01*
X149669426Y-95759123D01*
X149675295Y-95715988D01*
X149682302Y-95677348D01*
X149690578Y-95641372D01*
X149700252Y-95606227D01*
X149711454Y-95570080D01*
X149724314Y-95531099D01*
X149739788Y-95488029D01*
X149782692Y-95395809D01*
X149836433Y-95316037D01*
X149905274Y-95241903D01*
X149982883Y-95178343D01*
X150087459Y-95116663D01*
X150206942Y-95069140D01*
X150342206Y-95035505D01*
X150494124Y-95015490D01*
X150663570Y-95008827D01*
X150721588Y-95009225D01*
X150787096Y-95011273D01*
X150848391Y-95015642D01*
X150909795Y-95022973D01*
X150975630Y-95033907D01*
X151050218Y-95049085D01*
X151137882Y-95069147D01*
X151242943Y-95094735D01*
X151271504Y-95101758D01*
X151346752Y-95119714D01*
X151417086Y-95135758D01*
X151478265Y-95148966D01*
X151526052Y-95158412D01*
X151556209Y-95163169D01*
X151584481Y-95166848D01*
X151610758Y-95172125D01*
X151620757Y-95176880D01*
X151617650Y-95185719D01*
X151606892Y-95213010D01*
X151589562Y-95255844D01*
X151566824Y-95311363D01*
X151539845Y-95376710D01*
X151509788Y-95449027D01*
X151503191Y-95464817D01*
X151464605Y-95555422D01*
X151433466Y-95625155D01*
X151409615Y-95674343D01*
X151392896Y-95703312D01*
X151383152Y-95712390D01*
X151375464Y-95710343D01*
X151349113Y-95700698D01*
X151310680Y-95685128D01*
X151265520Y-95665753D01*
X151170991Y-95627752D01*
X151034178Y-95586718D01*
X150892987Y-95561550D01*
X150855012Y-95557549D01*
X150751757Y-95555385D01*
X150664650Y-95568560D01*
X150592827Y-95597694D01*
X150535429Y-95643404D01*
X150491594Y-95706310D01*
X150460460Y-95787030D01*
X150441168Y-95886183D01*
X150433748Y-95945162D01*
X150595634Y-95938383D01*
X150722193Y-95936751D01*
X150873649Y-95943132D01*
X151022094Y-95957715D01*
X151158276Y-95979820D01*
X151222943Y-95994759D01*
X151355188Y-96037679D01*
X151477460Y-96094278D01*
X151587383Y-96162955D01*
X151682581Y-96242108D01*
X151760678Y-96330134D01*
X151819297Y-96425431D01*
X151843293Y-96477802D01*
X151868930Y-96548528D01*
X151885176Y-96619750D01*
X151893520Y-96698650D01*
X151895388Y-96789220D01*
X151895453Y-96792405D01*
G37*
X159443312Y-94260730D02*
X159443757Y-94391949D01*
X159444060Y-94539154D01*
X159444246Y-94703287D01*
X159444340Y-94885290D01*
X159444369Y-95086103D01*
X159444359Y-95306670D01*
X159444334Y-95547930D01*
X159444320Y-95810827D01*
X159444320Y-95852978D01*
X159444344Y-96113606D01*
X159444383Y-96352734D01*
X159444406Y-96571298D01*
X159444385Y-96770233D01*
X159444291Y-96950473D01*
X159444093Y-97112953D01*
X159443761Y-97258608D01*
X159443267Y-97388372D01*
X159442581Y-97503181D01*
X159441674Y-97603968D01*
X159440515Y-97691668D01*
X159439076Y-97767217D01*
X159437327Y-97831549D01*
X159435238Y-97885599D01*
X159432781Y-97930301D01*
X159429925Y-97966590D01*
X159426641Y-97995401D01*
X159422900Y-98017669D01*
X159418672Y-98034328D01*
X159413927Y-98046313D01*
X159408637Y-98054559D01*
X159402771Y-98060000D01*
X159396300Y-98063572D01*
X159389195Y-98066208D01*
X159381426Y-98068844D01*
X159372964Y-98072415D01*
X159368606Y-98074083D01*
X159360093Y-98076049D01*
X159347392Y-98077849D01*
X159329583Y-98079493D01*
X159305747Y-98080985D01*
X159274964Y-98082335D01*
X159236315Y-98083549D01*
X159188880Y-98084635D01*
X159131741Y-98085599D01*
X159063977Y-98086449D01*
X158984669Y-98087191D01*
X158892897Y-98087835D01*
X158787742Y-98088385D01*
X158668285Y-98088851D01*
X158533606Y-98089238D01*
X158382786Y-98089554D01*
X158214904Y-98089807D01*
X158029043Y-98090004D01*
X157824281Y-98090151D01*
X157599700Y-98090256D01*
X157354380Y-98090327D01*
X157087402Y-98090370D01*
X157049019Y-98090375D01*
X156783620Y-98090418D01*
X156539748Y-98090463D01*
X156316481Y-98090486D01*
X156112894Y-98090462D01*
X155928065Y-98090368D01*
X155761071Y-98090181D01*
X155610988Y-98089877D01*
X155476894Y-98089432D01*
X155357864Y-98088823D01*
X155252977Y-98088027D01*
X155161308Y-98087018D01*
X155081935Y-98085775D01*
X155013935Y-98084273D01*
X154956384Y-98082489D01*
X154908360Y-98080399D01*
X154868938Y-98077980D01*
X154837197Y-98075208D01*
X154812212Y-98072059D01*
X154793062Y-98068510D01*
X154778821Y-98064536D01*
X154768569Y-98060116D01*
X154761380Y-98055224D01*
X154756333Y-98049838D01*
X154752503Y-98043934D01*
X154748969Y-98037487D01*
X154744806Y-98030475D01*
X154743723Y-98028625D01*
X154741511Y-98023118D01*
X154739484Y-98014806D01*
X154737636Y-98002747D01*
X154735959Y-97986001D01*
X154734443Y-97963625D01*
X154733081Y-97934678D01*
X154731865Y-97898218D01*
X154730787Y-97853305D01*
X154729838Y-97798995D01*
X154729010Y-97734348D01*
X154728295Y-97658422D01*
X154727685Y-97570276D01*
X154727640Y-97561431D01*
X155019076Y-97561431D01*
X155022958Y-97562703D01*
X155046218Y-97564729D01*
X155088572Y-97566564D01*
X155147830Y-97568165D01*
X155221805Y-97569487D01*
X155308308Y-97570486D01*
X155405150Y-97571118D01*
X155510143Y-97571338D01*
X156208349Y-97571338D01*
X157362788Y-97571338D01*
X157362154Y-97495138D01*
X157363272Y-97453098D01*
X157369002Y-97417272D01*
X157381588Y-97379710D01*
X157403266Y-97331515D01*
X157406487Y-97324835D01*
X157431886Y-97275297D01*
X157458694Y-97227307D01*
X157481615Y-97190404D01*
X157486183Y-97183772D01*
X157508214Y-97152531D01*
X157540391Y-97107592D01*
X157581155Y-97051085D01*
X157628943Y-96985142D01*
X157682196Y-96911895D01*
X157739353Y-96833474D01*
X157798853Y-96752010D01*
X157859135Y-96669636D01*
X157918638Y-96588482D01*
X157975803Y-96510680D01*
X158029068Y-96438361D01*
X158076872Y-96373656D01*
X158117655Y-96318697D01*
X158149856Y-96275614D01*
X158171914Y-96246540D01*
X158182269Y-96233605D01*
X158186742Y-96229289D01*
X158190934Y-96227250D01*
X158194341Y-96229864D01*
X158197023Y-96238924D01*
X158199039Y-96256223D01*
X158200446Y-96283552D01*
X158201303Y-96322703D01*
X158201668Y-96375471D01*
X158201601Y-96443645D01*
X158201158Y-96529020D01*
X158200400Y-96633387D01*
X158199383Y-96758538D01*
X158199006Y-96803238D01*
X158197867Y-96924333D01*
X158196670Y-97025626D01*
X158195334Y-97109200D01*
X158193775Y-97177142D01*
X158191913Y-97231537D01*
X158189664Y-97274470D01*
X158186946Y-97308027D01*
X158183677Y-97334293D01*
X158179776Y-97355354D01*
X158175159Y-97373295D01*
X158166890Y-97399708D01*
X158143281Y-97461710D01*
X158117383Y-97514511D01*
X158092233Y-97551583D01*
X158091037Y-97553013D01*
X158088866Y-97557362D01*
X158091026Y-97560964D01*
X158099342Y-97563889D01*
X158115638Y-97566207D01*
X158141739Y-97567989D01*
X158179469Y-97569305D01*
X158230654Y-97570224D01*
X158297118Y-97570816D01*
X158380685Y-97571153D01*
X158483181Y-97571303D01*
X158606430Y-97571338D01*
X159137994Y-97571338D01*
X159099221Y-97513721D01*
X159093130Y-97504831D01*
X159082674Y-97490007D01*
X159073277Y-97476360D01*
X159064881Y-97462703D01*
X159057431Y-97447849D01*
X159050871Y-97430608D01*
X159045144Y-97409793D01*
X159040193Y-97384218D01*
X159035964Y-97352693D01*
X159032399Y-97314031D01*
X159029442Y-97267045D01*
X159027038Y-97210546D01*
X159025129Y-97143347D01*
X159023660Y-97064260D01*
X159022574Y-96972098D01*
X159021816Y-96865672D01*
X159021328Y-96743795D01*
X159021056Y-96605279D01*
X159020941Y-96448937D01*
X159020929Y-96273580D01*
X159020963Y-96078020D01*
X159020987Y-95861071D01*
X159020978Y-95738451D01*
X159020941Y-95533385D01*
X159020925Y-95349054D01*
X159020986Y-95184272D01*
X159021182Y-95037854D01*
X159021568Y-94908612D01*
X159022203Y-94795360D01*
X159023142Y-94696913D01*
X159024443Y-94612082D01*
X159026162Y-94539682D01*
X159028357Y-94478527D01*
X159031083Y-94427430D01*
X159034399Y-94385205D01*
X159038360Y-94350665D01*
X159043023Y-94322624D01*
X159048445Y-94299896D01*
X159054684Y-94281294D01*
X159061795Y-94265631D01*
X159069836Y-94251722D01*
X159078864Y-94238379D01*
X159088934Y-94224417D01*
X159100105Y-94208649D01*
X159139895Y-94150805D01*
X158080012Y-94150805D01*
X158118009Y-94213904D01*
X158132691Y-94238943D01*
X158147229Y-94266524D01*
X158159325Y-94294638D01*
X158169230Y-94325489D01*
X158177192Y-94361282D01*
X158183459Y-94404221D01*
X158188280Y-94456512D01*
X158191904Y-94520357D01*
X158194579Y-94597963D01*
X158196555Y-94691532D01*
X158198080Y-94803271D01*
X158199402Y-94935383D01*
X158200311Y-95055372D01*
X158200718Y-95172001D01*
X158200465Y-95267469D01*
X158199555Y-95341494D01*
X158197991Y-95393793D01*
X158195777Y-95424087D01*
X158192918Y-95432094D01*
X158189859Y-95428796D01*
X158171704Y-95407346D01*
X158141973Y-95370827D01*
X158102337Y-95321380D01*
X158054469Y-95261145D01*
X158000041Y-95192265D01*
X157940725Y-95116881D01*
X157878193Y-95037134D01*
X157814119Y-94955166D01*
X157750173Y-94873118D01*
X157688029Y-94793132D01*
X157629359Y-94717349D01*
X157575835Y-94647911D01*
X157529128Y-94586959D01*
X157490912Y-94536634D01*
X157462859Y-94499078D01*
X157446641Y-94476433D01*
X157401333Y-94404150D01*
X157361359Y-94324401D01*
X157339828Y-94256126D01*
X157336525Y-94198782D01*
X157341814Y-94150805D01*
X156210054Y-94151055D01*
X156249565Y-94181660D01*
X156258946Y-94189027D01*
X156321881Y-94243376D01*
X156390695Y-94311197D01*
X156467294Y-94394454D01*
X156553586Y-94495116D01*
X156570750Y-94515785D01*
X156611531Y-94565347D01*
X156661286Y-94626264D01*
X156718653Y-94696836D01*
X156782267Y-94775362D01*
X156850767Y-94860142D01*
X156922788Y-94949475D01*
X156996968Y-95041660D01*
X157012215Y-95060640D01*
X157071944Y-95134998D01*
X157146351Y-95227786D01*
X157218829Y-95318326D01*
X157288012Y-95404916D01*
X157352539Y-95485856D01*
X157411045Y-95559444D01*
X157462168Y-95623982D01*
X157504545Y-95677767D01*
X157536813Y-95719100D01*
X157557608Y-95746280D01*
X157565567Y-95757606D01*
X157563809Y-95761709D01*
X157550928Y-95782272D01*
X157526583Y-95818499D01*
X157491945Y-95868762D01*
X157448184Y-95931430D01*
X157396473Y-96004874D01*
X157337982Y-96087465D01*
X157273882Y-96177574D01*
X157205344Y-96273569D01*
X157133541Y-96373823D01*
X157059642Y-96476706D01*
X156984819Y-96580588D01*
X156910243Y-96683839D01*
X156837085Y-96784830D01*
X156766517Y-96881932D01*
X156699709Y-96973515D01*
X156637833Y-97057949D01*
X156582059Y-97133605D01*
X156533560Y-97198854D01*
X156493505Y-97252066D01*
X156463067Y-97291611D01*
X156442642Y-97316964D01*
X156396597Y-97371233D01*
X156346310Y-97427713D01*
X156299513Y-97477607D01*
X156208349Y-97571338D01*
X155510143Y-97571338D01*
X155579054Y-97571287D01*
X155677305Y-97571029D01*
X155766728Y-97570575D01*
X155845031Y-97569948D01*
X155909921Y-97569173D01*
X155959109Y-97568273D01*
X155990302Y-97567272D01*
X156001209Y-97566195D01*
X156000020Y-97562975D01*
X155989874Y-97545390D01*
X155972738Y-97519096D01*
X155964238Y-97506629D01*
X155955027Y-97492560D01*
X155946931Y-97478289D01*
X155939883Y-97462417D01*
X155933815Y-97443547D01*
X155928659Y-97420279D01*
X155924349Y-97391216D01*
X155920817Y-97354959D01*
X155917995Y-97310108D01*
X155915816Y-97255266D01*
X155914212Y-97189035D01*
X155913117Y-97110015D01*
X155912463Y-97016809D01*
X155912182Y-96908017D01*
X155912207Y-96782241D01*
X155912470Y-96638083D01*
X155912904Y-96474145D01*
X155913443Y-96289027D01*
X155913977Y-96110170D01*
X155914503Y-95951312D01*
X155915048Y-95812254D01*
X155915643Y-95691603D01*
X155916317Y-95587966D01*
X155917101Y-95499949D01*
X155918024Y-95426161D01*
X155919117Y-95365207D01*
X155920410Y-95315695D01*
X155921933Y-95276231D01*
X155923717Y-95245422D01*
X155925790Y-95221876D01*
X155928184Y-95204198D01*
X155930928Y-95190997D01*
X155934054Y-95180878D01*
X155937590Y-95172449D01*
X155941489Y-95164313D01*
X155961136Y-95127482D01*
X155979923Y-95097329D01*
X155980970Y-95095846D01*
X155995300Y-95073597D01*
X156001209Y-95060640D01*
X156000202Y-95060187D01*
X155983003Y-95058741D01*
X155946354Y-95057418D01*
X155892660Y-95056254D01*
X155824328Y-95055285D01*
X155743762Y-95054549D01*
X155653368Y-95054080D01*
X155555551Y-95053916D01*
X155109893Y-95053916D01*
X155106818Y-96230783D01*
X155103743Y-97407649D01*
X155077105Y-97466560D01*
X155065183Y-97491121D01*
X155047944Y-97521372D01*
X155034772Y-97538498D01*
X155026774Y-97546529D01*
X155019076Y-97561431D01*
X154727640Y-97561431D01*
X154727172Y-97468967D01*
X154726748Y-97353555D01*
X154726404Y-97223098D01*
X154726132Y-97076654D01*
X154725925Y-96913282D01*
X154725774Y-96732039D01*
X154725670Y-96531986D01*
X154725606Y-96312179D01*
X154725574Y-96071677D01*
X154725565Y-95809540D01*
X154725565Y-93617969D01*
X154763947Y-93579587D01*
X154791053Y-93555849D01*
X154817951Y-93544049D01*
X154854258Y-93541205D01*
X154906187Y-93541205D01*
X154906187Y-93629144D01*
X154908125Y-93679040D01*
X154926897Y-93789461D01*
X154963915Y-93890925D01*
X155017067Y-93982090D01*
X155084244Y-94061611D01*
X155163336Y-94128143D01*
X155252232Y-94180344D01*
X155348823Y-94216868D01*
X155450998Y-94236372D01*
X155556648Y-94237511D01*
X155663662Y-94218943D01*
X155769930Y-94179322D01*
X155866917Y-94121454D01*
X155951991Y-94046622D01*
X156020713Y-93958553D01*
X156071616Y-93859554D01*
X156103233Y-93751931D01*
X156114098Y-93637992D01*
X156114098Y-93541205D01*
X157734451Y-93541205D01*
X157945595Y-93541218D01*
X158149718Y-93541268D01*
X158333384Y-93541368D01*
X158497689Y-93541530D01*
X158643727Y-93541767D01*
X158772592Y-93542091D01*
X158885381Y-93542513D01*
X158983186Y-93543047D01*
X159067102Y-93543705D01*
X159138225Y-93544499D01*
X159197648Y-93545442D01*
X159246466Y-93546546D01*
X159285775Y-93547822D01*
X159316667Y-93549285D01*
X159340239Y-93550945D01*
X159357584Y-93552816D01*
X159369797Y-93554910D01*
X159377973Y-93557238D01*
X159383206Y-93559814D01*
X159389202Y-93563383D01*
X159395977Y-93566916D01*
X159402176Y-93570426D01*
X159407824Y-93574856D01*
X159412945Y-93581146D01*
X159417567Y-93590239D01*
X159421713Y-93603077D01*
X159425411Y-93620600D01*
X159428685Y-93643751D01*
X159431561Y-93673472D01*
X159434065Y-93710703D01*
X159436222Y-93756387D01*
X159438058Y-93811465D01*
X159439598Y-93876879D01*
X159440868Y-93953571D01*
X159441893Y-94042482D01*
X159442699Y-94144555D01*
X159442732Y-94150805D01*
X159443312Y-94260730D01*
G36*
X159443312Y-94260730D02*
G01*
X159443757Y-94391949D01*
X159444060Y-94539154D01*
X159444246Y-94703287D01*
X159444340Y-94885290D01*
X159444369Y-95086103D01*
X159444359Y-95306670D01*
X159444334Y-95547930D01*
X159444320Y-95810827D01*
X159444320Y-95852978D01*
X159444344Y-96113606D01*
X159444383Y-96352734D01*
X159444406Y-96571298D01*
X159444385Y-96770233D01*
X159444291Y-96950473D01*
X159444093Y-97112953D01*
X159443761Y-97258608D01*
X159443267Y-97388372D01*
X159442581Y-97503181D01*
X159441674Y-97603968D01*
X159440515Y-97691668D01*
X159439076Y-97767217D01*
X159437327Y-97831549D01*
X159435238Y-97885599D01*
X159432781Y-97930301D01*
X159429925Y-97966590D01*
X159426641Y-97995401D01*
X159422900Y-98017669D01*
X159418672Y-98034328D01*
X159413927Y-98046313D01*
X159408637Y-98054559D01*
X159402771Y-98060000D01*
X159396300Y-98063572D01*
X159389195Y-98066208D01*
X159381426Y-98068844D01*
X159372964Y-98072415D01*
X159368606Y-98074083D01*
X159360093Y-98076049D01*
X159347392Y-98077849D01*
X159329583Y-98079493D01*
X159305747Y-98080985D01*
X159274964Y-98082335D01*
X159236315Y-98083549D01*
X159188880Y-98084635D01*
X159131741Y-98085599D01*
X159063977Y-98086449D01*
X158984669Y-98087191D01*
X158892897Y-98087835D01*
X158787742Y-98088385D01*
X158668285Y-98088851D01*
X158533606Y-98089238D01*
X158382786Y-98089554D01*
X158214904Y-98089807D01*
X158029043Y-98090004D01*
X157824281Y-98090151D01*
X157599700Y-98090256D01*
X157354380Y-98090327D01*
X157087402Y-98090370D01*
X157049019Y-98090375D01*
X156783620Y-98090418D01*
X156539748Y-98090463D01*
X156316481Y-98090486D01*
X156112894Y-98090462D01*
X155928065Y-98090368D01*
X155761071Y-98090181D01*
X155610988Y-98089877D01*
X155476894Y-98089432D01*
X155357864Y-98088823D01*
X155252977Y-98088027D01*
X155161308Y-98087018D01*
X155081935Y-98085775D01*
X155013935Y-98084273D01*
X154956384Y-98082489D01*
X154908360Y-98080399D01*
X154868938Y-98077980D01*
X154837197Y-98075208D01*
X154812212Y-98072059D01*
X154793062Y-98068510D01*
X154778821Y-98064536D01*
X154768569Y-98060116D01*
X154761380Y-98055224D01*
X154756333Y-98049838D01*
X154752503Y-98043934D01*
X154748969Y-98037487D01*
X154744806Y-98030475D01*
X154743723Y-98028625D01*
X154741511Y-98023118D01*
X154739484Y-98014806D01*
X154737636Y-98002747D01*
X154735959Y-97986001D01*
X154734443Y-97963625D01*
X154733081Y-97934678D01*
X154731865Y-97898218D01*
X154730787Y-97853305D01*
X154729838Y-97798995D01*
X154729010Y-97734348D01*
X154728295Y-97658422D01*
X154727685Y-97570276D01*
X154727640Y-97561431D01*
X155019076Y-97561431D01*
X155022958Y-97562703D01*
X155046218Y-97564729D01*
X155088572Y-97566564D01*
X155147830Y-97568165D01*
X155221805Y-97569487D01*
X155308308Y-97570486D01*
X155405150Y-97571118D01*
X155510143Y-97571338D01*
X156208349Y-97571338D01*
X157362788Y-97571338D01*
X157362154Y-97495138D01*
X157363272Y-97453098D01*
X157369002Y-97417272D01*
X157381588Y-97379710D01*
X157403266Y-97331515D01*
X157406487Y-97324835D01*
X157431886Y-97275297D01*
X157458694Y-97227307D01*
X157481615Y-97190404D01*
X157486183Y-97183772D01*
X157508214Y-97152531D01*
X157540391Y-97107592D01*
X157581155Y-97051085D01*
X157628943Y-96985142D01*
X157682196Y-96911895D01*
X157739353Y-96833474D01*
X157798853Y-96752010D01*
X157859135Y-96669636D01*
X157918638Y-96588482D01*
X157975803Y-96510680D01*
X158029068Y-96438361D01*
X158076872Y-96373656D01*
X158117655Y-96318697D01*
X158149856Y-96275614D01*
X158171914Y-96246540D01*
X158182269Y-96233605D01*
X158186742Y-96229289D01*
X158190934Y-96227250D01*
X158194341Y-96229864D01*
X158197023Y-96238924D01*
X158199039Y-96256223D01*
X158200446Y-96283552D01*
X158201303Y-96322703D01*
X158201668Y-96375471D01*
X158201601Y-96443645D01*
X158201158Y-96529020D01*
X158200400Y-96633387D01*
X158199383Y-96758538D01*
X158199006Y-96803238D01*
X158197867Y-96924333D01*
X158196670Y-97025626D01*
X158195334Y-97109200D01*
X158193775Y-97177142D01*
X158191913Y-97231537D01*
X158189664Y-97274470D01*
X158186946Y-97308027D01*
X158183677Y-97334293D01*
X158179776Y-97355354D01*
X158175159Y-97373295D01*
X158166890Y-97399708D01*
X158143281Y-97461710D01*
X158117383Y-97514511D01*
X158092233Y-97551583D01*
X158091037Y-97553013D01*
X158088866Y-97557362D01*
X158091026Y-97560964D01*
X158099342Y-97563889D01*
X158115638Y-97566207D01*
X158141739Y-97567989D01*
X158179469Y-97569305D01*
X158230654Y-97570224D01*
X158297118Y-97570816D01*
X158380685Y-97571153D01*
X158483181Y-97571303D01*
X158606430Y-97571338D01*
X159137994Y-97571338D01*
X159099221Y-97513721D01*
X159093130Y-97504831D01*
X159082674Y-97490007D01*
X159073277Y-97476360D01*
X159064881Y-97462703D01*
X159057431Y-97447849D01*
X159050871Y-97430608D01*
X159045144Y-97409793D01*
X159040193Y-97384218D01*
X159035964Y-97352693D01*
X159032399Y-97314031D01*
X159029442Y-97267045D01*
X159027038Y-97210546D01*
X159025129Y-97143347D01*
X159023660Y-97064260D01*
X159022574Y-96972098D01*
X159021816Y-96865672D01*
X159021328Y-96743795D01*
X159021056Y-96605279D01*
X159020941Y-96448937D01*
X159020929Y-96273580D01*
X159020963Y-96078020D01*
X159020987Y-95861071D01*
X159020978Y-95738451D01*
X159020941Y-95533385D01*
X159020925Y-95349054D01*
X159020986Y-95184272D01*
X159021182Y-95037854D01*
X159021568Y-94908612D01*
X159022203Y-94795360D01*
X159023142Y-94696913D01*
X159024443Y-94612082D01*
X159026162Y-94539682D01*
X159028357Y-94478527D01*
X159031083Y-94427430D01*
X159034399Y-94385205D01*
X159038360Y-94350665D01*
X159043023Y-94322624D01*
X159048445Y-94299896D01*
X159054684Y-94281294D01*
X159061795Y-94265631D01*
X159069836Y-94251722D01*
X159078864Y-94238379D01*
X159088934Y-94224417D01*
X159100105Y-94208649D01*
X159139895Y-94150805D01*
X158080012Y-94150805D01*
X158118009Y-94213904D01*
X158132691Y-94238943D01*
X158147229Y-94266524D01*
X158159325Y-94294638D01*
X158169230Y-94325489D01*
X158177192Y-94361282D01*
X158183459Y-94404221D01*
X158188280Y-94456512D01*
X158191904Y-94520357D01*
X158194579Y-94597963D01*
X158196555Y-94691532D01*
X158198080Y-94803271D01*
X158199402Y-94935383D01*
X158200311Y-95055372D01*
X158200718Y-95172001D01*
X158200465Y-95267469D01*
X158199555Y-95341494D01*
X158197991Y-95393793D01*
X158195777Y-95424087D01*
X158192918Y-95432094D01*
X158189859Y-95428796D01*
X158171704Y-95407346D01*
X158141973Y-95370827D01*
X158102337Y-95321380D01*
X158054469Y-95261145D01*
X158000041Y-95192265D01*
X157940725Y-95116881D01*
X157878193Y-95037134D01*
X157814119Y-94955166D01*
X157750173Y-94873118D01*
X157688029Y-94793132D01*
X157629359Y-94717349D01*
X157575835Y-94647911D01*
X157529128Y-94586959D01*
X157490912Y-94536634D01*
X157462859Y-94499078D01*
X157446641Y-94476433D01*
X157401333Y-94404150D01*
X157361359Y-94324401D01*
X157339828Y-94256126D01*
X157336525Y-94198782D01*
X157341814Y-94150805D01*
X156210054Y-94151055D01*
X156249565Y-94181660D01*
X156258946Y-94189027D01*
X156321881Y-94243376D01*
X156390695Y-94311197D01*
X156467294Y-94394454D01*
X156553586Y-94495116D01*
X156570750Y-94515785D01*
X156611531Y-94565347D01*
X156661286Y-94626264D01*
X156718653Y-94696836D01*
X156782267Y-94775362D01*
X156850767Y-94860142D01*
X156922788Y-94949475D01*
X156996968Y-95041660D01*
X157012215Y-95060640D01*
X157071944Y-95134998D01*
X157146351Y-95227786D01*
X157218829Y-95318326D01*
X157288012Y-95404916D01*
X157352539Y-95485856D01*
X157411045Y-95559444D01*
X157462168Y-95623982D01*
X157504545Y-95677767D01*
X157536813Y-95719100D01*
X157557608Y-95746280D01*
X157565567Y-95757606D01*
X157563809Y-95761709D01*
X157550928Y-95782272D01*
X157526583Y-95818499D01*
X157491945Y-95868762D01*
X157448184Y-95931430D01*
X157396473Y-96004874D01*
X157337982Y-96087465D01*
X157273882Y-96177574D01*
X157205344Y-96273569D01*
X157133541Y-96373823D01*
X157059642Y-96476706D01*
X156984819Y-96580588D01*
X156910243Y-96683839D01*
X156837085Y-96784830D01*
X156766517Y-96881932D01*
X156699709Y-96973515D01*
X156637833Y-97057949D01*
X156582059Y-97133605D01*
X156533560Y-97198854D01*
X156493505Y-97252066D01*
X156463067Y-97291611D01*
X156442642Y-97316964D01*
X156396597Y-97371233D01*
X156346310Y-97427713D01*
X156299513Y-97477607D01*
X156208349Y-97571338D01*
X155510143Y-97571338D01*
X155579054Y-97571287D01*
X155677305Y-97571029D01*
X155766728Y-97570575D01*
X155845031Y-97569948D01*
X155909921Y-97569173D01*
X155959109Y-97568273D01*
X155990302Y-97567272D01*
X156001209Y-97566195D01*
X156000020Y-97562975D01*
X155989874Y-97545390D01*
X155972738Y-97519096D01*
X155964238Y-97506629D01*
X155955027Y-97492560D01*
X155946931Y-97478289D01*
X155939883Y-97462417D01*
X155933815Y-97443547D01*
X155928659Y-97420279D01*
X155924349Y-97391216D01*
X155920817Y-97354959D01*
X155917995Y-97310108D01*
X155915816Y-97255266D01*
X155914212Y-97189035D01*
X155913117Y-97110015D01*
X155912463Y-97016809D01*
X155912182Y-96908017D01*
X155912207Y-96782241D01*
X155912470Y-96638083D01*
X155912904Y-96474145D01*
X155913443Y-96289027D01*
X155913977Y-96110170D01*
X155914503Y-95951312D01*
X155915048Y-95812254D01*
X155915643Y-95691603D01*
X155916317Y-95587966D01*
X155917101Y-95499949D01*
X155918024Y-95426161D01*
X155919117Y-95365207D01*
X155920410Y-95315695D01*
X155921933Y-95276231D01*
X155923717Y-95245422D01*
X155925790Y-95221876D01*
X155928184Y-95204198D01*
X155930928Y-95190997D01*
X155934054Y-95180878D01*
X155937590Y-95172449D01*
X155941489Y-95164313D01*
X155961136Y-95127482D01*
X155979923Y-95097329D01*
X155980970Y-95095846D01*
X155995300Y-95073597D01*
X156001209Y-95060640D01*
X156000202Y-95060187D01*
X155983003Y-95058741D01*
X155946354Y-95057418D01*
X155892660Y-95056254D01*
X155824328Y-95055285D01*
X155743762Y-95054549D01*
X155653368Y-95054080D01*
X155555551Y-95053916D01*
X155109893Y-95053916D01*
X155106818Y-96230783D01*
X155103743Y-97407649D01*
X155077105Y-97466560D01*
X155065183Y-97491121D01*
X155047944Y-97521372D01*
X155034772Y-97538498D01*
X155026774Y-97546529D01*
X155019076Y-97561431D01*
X154727640Y-97561431D01*
X154727172Y-97468967D01*
X154726748Y-97353555D01*
X154726404Y-97223098D01*
X154726132Y-97076654D01*
X154725925Y-96913282D01*
X154725774Y-96732039D01*
X154725670Y-96531986D01*
X154725606Y-96312179D01*
X154725574Y-96071677D01*
X154725565Y-95809540D01*
X154725565Y-93617969D01*
X154763947Y-93579587D01*
X154791053Y-93555849D01*
X154817951Y-93544049D01*
X154854258Y-93541205D01*
X154906187Y-93541205D01*
X154906187Y-93629144D01*
X154908125Y-93679040D01*
X154926897Y-93789461D01*
X154963915Y-93890925D01*
X155017067Y-93982090D01*
X155084244Y-94061611D01*
X155163336Y-94128143D01*
X155252232Y-94180344D01*
X155348823Y-94216868D01*
X155450998Y-94236372D01*
X155556648Y-94237511D01*
X155663662Y-94218943D01*
X155769930Y-94179322D01*
X155866917Y-94121454D01*
X155951991Y-94046622D01*
X156020713Y-93958553D01*
X156071616Y-93859554D01*
X156103233Y-93751931D01*
X156114098Y-93637992D01*
X156114098Y-93541205D01*
X157734451Y-93541205D01*
X157945595Y-93541218D01*
X158149718Y-93541268D01*
X158333384Y-93541368D01*
X158497689Y-93541530D01*
X158643727Y-93541767D01*
X158772592Y-93542091D01*
X158885381Y-93542513D01*
X158983186Y-93543047D01*
X159067102Y-93543705D01*
X159138225Y-93544499D01*
X159197648Y-93545442D01*
X159246466Y-93546546D01*
X159285775Y-93547822D01*
X159316667Y-93549285D01*
X159340239Y-93550945D01*
X159357584Y-93552816D01*
X159369797Y-93554910D01*
X159377973Y-93557238D01*
X159383206Y-93559814D01*
X159389202Y-93563383D01*
X159395977Y-93566916D01*
X159402176Y-93570426D01*
X159407824Y-93574856D01*
X159412945Y-93581146D01*
X159417567Y-93590239D01*
X159421713Y-93603077D01*
X159425411Y-93620600D01*
X159428685Y-93643751D01*
X159431561Y-93673472D01*
X159434065Y-93710703D01*
X159436222Y-93756387D01*
X159438058Y-93811465D01*
X159439598Y-93876879D01*
X159440868Y-93953571D01*
X159441893Y-94042482D01*
X159442699Y-94144555D01*
X159442732Y-94150805D01*
X159443312Y-94260730D01*
G37*
D15*
%TO.C,C2*%
X168720018Y-125231238D02*
X168720018Y-123808734D01*
X170540018Y-125231238D02*
X170540018Y-123808734D01*
D14*
%TO.C,REF\u002A\u002A*%
X177921971Y-108808822D02*
X174401178Y-108808822D01*
X174401178Y-107941198D01*
X177921971Y-107941198D01*
X177921971Y-108808822D01*
G36*
X177921971Y-108808822D02*
G01*
X174401178Y-108808822D01*
X174401178Y-107941198D01*
X177921971Y-107941198D01*
X177921971Y-108808822D01*
G37*
X176890894Y-103266718D02*
X176891388Y-103279668D01*
X176897819Y-103301411D01*
X176916123Y-103319851D01*
X176951830Y-103341801D01*
X176983174Y-103361854D01*
X177030893Y-103400356D01*
X177074138Y-103443579D01*
X177107219Y-103485627D01*
X177124442Y-103520604D01*
X177128662Y-103534081D01*
X177136480Y-103543334D01*
X177139116Y-103546454D01*
X177160662Y-103551696D01*
X177200314Y-103552782D01*
X177268109Y-103552782D01*
X177268109Y-103665951D01*
X177108577Y-103665951D01*
X177093682Y-103843732D01*
X177091682Y-103868037D01*
X177087023Y-103928880D01*
X177083731Y-103978389D01*
X177082092Y-104011992D01*
X177082390Y-104025116D01*
X177086724Y-104021343D01*
X177106496Y-104001676D01*
X177140679Y-103966818D01*
X177187541Y-103918576D01*
X177245354Y-103858757D01*
X177312387Y-103789167D01*
X177386912Y-103711615D01*
X177467197Y-103627907D01*
X177551513Y-103539849D01*
X177638130Y-103449250D01*
X177725319Y-103357915D01*
X177811349Y-103267653D01*
X177894492Y-103180269D01*
X177973016Y-103097572D01*
X178045192Y-103021368D01*
X178109291Y-102953463D01*
X178163583Y-102895666D01*
X178260592Y-102792040D01*
X178261034Y-102880315D01*
X178261475Y-102968589D01*
X177660938Y-103600158D01*
X177060401Y-104231726D01*
X177048396Y-104375674D01*
X177000365Y-104951635D01*
X176991876Y-105053791D01*
X176981343Y-105181612D01*
X176971621Y-105300767D01*
X176962898Y-105408914D01*
X176955358Y-105503713D01*
X176949187Y-105582819D01*
X176944573Y-105643892D01*
X176941700Y-105684590D01*
X176940754Y-105702570D01*
X176943251Y-105710808D01*
X176954471Y-105728599D01*
X176975751Y-105755411D01*
X176986021Y-105767129D01*
X177008225Y-105792466D01*
X177053023Y-105840986D01*
X177111281Y-105902192D01*
X177184129Y-105977307D01*
X177272703Y-106067550D01*
X177378134Y-106174145D01*
X177447492Y-106244093D01*
X177544179Y-106341658D01*
X177640526Y-106438941D01*
X177733638Y-106533014D01*
X177820618Y-106620950D01*
X177898569Y-106699820D01*
X177964596Y-106766699D01*
X178015802Y-106818658D01*
X178216514Y-107022620D01*
X178180058Y-107060671D01*
X178171460Y-107069245D01*
X178146095Y-107090297D01*
X178128695Y-107098723D01*
X178115071Y-107091530D01*
X178089743Y-107069944D01*
X178059379Y-107038995D01*
X178040896Y-107019448D01*
X178006427Y-106983752D01*
X177957712Y-106933684D01*
X177896469Y-106871001D01*
X177824420Y-106797457D01*
X177743285Y-106714810D01*
X177654784Y-106624815D01*
X177560637Y-106529228D01*
X177462565Y-106429805D01*
X176920161Y-105880343D01*
X176898066Y-106165746D01*
X176893250Y-106226662D01*
X176886216Y-106308548D01*
X176879872Y-106370569D01*
X176873748Y-106415987D01*
X176867373Y-106448062D01*
X176860277Y-106470052D01*
X176851991Y-106485219D01*
X176840393Y-106506416D01*
X176830850Y-106545386D01*
X176828010Y-106601531D01*
X176828010Y-106683773D01*
X176601674Y-106683773D01*
X176601674Y-106507733D01*
X175756082Y-106507733D01*
X175707203Y-106563262D01*
X175693836Y-106577722D01*
X175621388Y-106635813D01*
X175539532Y-106671576D01*
X175450900Y-106683773D01*
X175372692Y-106677306D01*
X175284233Y-106650047D01*
X175208507Y-106601328D01*
X175193748Y-106587403D01*
X175156864Y-106542328D01*
X175124503Y-106489819D01*
X175101297Y-106438061D01*
X175091879Y-106395239D01*
X175091697Y-106389023D01*
X175090342Y-106366246D01*
X175086800Y-106350513D01*
X175079390Y-106343068D01*
X175066431Y-106345156D01*
X175046243Y-106358020D01*
X175017145Y-106382905D01*
X174977456Y-106421053D01*
X174925496Y-106473710D01*
X174859584Y-106542119D01*
X174778040Y-106627524D01*
X174734604Y-106673112D01*
X174662000Y-106749441D01*
X174593309Y-106821808D01*
X174531223Y-106887366D01*
X174478434Y-106943274D01*
X174437634Y-106986686D01*
X174411515Y-107014758D01*
X174340119Y-107092436D01*
X174251863Y-107004416D01*
X174797690Y-106432287D01*
X174832105Y-106396188D01*
X174954546Y-106267272D01*
X175059651Y-106155754D01*
X175147736Y-106061288D01*
X175219116Y-105983529D01*
X175269588Y-105927174D01*
X175476247Y-105927174D01*
X175477872Y-105940434D01*
X175478156Y-105941819D01*
X175491698Y-105973228D01*
X175518748Y-105987863D01*
X175602129Y-106019063D01*
X175676418Y-106071038D01*
X175734846Y-106139791D01*
X175774890Y-106222315D01*
X175794026Y-106315606D01*
X175800364Y-106394565D01*
X176749838Y-106394565D01*
X176756458Y-106366273D01*
X176757629Y-106359329D01*
X176761268Y-106328281D01*
X176766234Y-106278081D01*
X176772157Y-106212727D01*
X176778669Y-106136219D01*
X176785401Y-106052555D01*
X176807724Y-105767129D01*
X176506826Y-105461565D01*
X176451636Y-105405704D01*
X176384109Y-105337888D01*
X176323529Y-105277643D01*
X176272021Y-105227052D01*
X176231710Y-105188200D01*
X176204722Y-105163170D01*
X176193182Y-105154046D01*
X176185444Y-105158405D01*
X176162395Y-105178241D01*
X176127709Y-105211375D01*
X176084487Y-105254820D01*
X176035832Y-105305587D01*
X176023140Y-105319051D01*
X175966229Y-105379275D01*
X175898414Y-105450864D01*
X175824800Y-105528437D01*
X175750493Y-105606611D01*
X175680599Y-105680005D01*
X175676401Y-105684409D01*
X175611420Y-105752785D01*
X175561836Y-105805732D01*
X175525688Y-105845767D01*
X175501016Y-105875411D01*
X175485858Y-105897181D01*
X175478256Y-105913595D01*
X175476247Y-105927174D01*
X175269588Y-105927174D01*
X175274105Y-105922131D01*
X175313019Y-105876748D01*
X175336173Y-105847035D01*
X175343882Y-105832644D01*
X175343883Y-105832559D01*
X175342825Y-105814624D01*
X175339737Y-105774421D01*
X175334858Y-105714687D01*
X175328432Y-105638158D01*
X175320700Y-105547569D01*
X175311905Y-105445657D01*
X175302287Y-105335159D01*
X175292091Y-105218811D01*
X175281556Y-105099348D01*
X175270926Y-104979507D01*
X175260442Y-104862025D01*
X175250346Y-104749637D01*
X175240881Y-104645081D01*
X175232288Y-104551091D01*
X175224809Y-104470405D01*
X175218687Y-104405759D01*
X175214162Y-104359888D01*
X175211478Y-104335530D01*
X175206067Y-104294732D01*
X175335253Y-104294732D01*
X175336908Y-104325653D01*
X175340549Y-104377653D01*
X175345995Y-104448487D01*
X175353063Y-104535911D01*
X175361570Y-104637681D01*
X175371335Y-104751552D01*
X175382174Y-104875279D01*
X175393907Y-105006618D01*
X175403079Y-105107908D01*
X175414566Y-105233526D01*
X175425322Y-105349762D01*
X175435131Y-105454380D01*
X175443781Y-105545140D01*
X175451057Y-105619804D01*
X175456746Y-105676134D01*
X175460634Y-105711891D01*
X175462506Y-105724837D01*
X175468188Y-105720826D01*
X175489020Y-105701138D01*
X175522872Y-105667322D01*
X175567412Y-105621837D01*
X175620310Y-105567146D01*
X175679236Y-105505710D01*
X175741858Y-105439990D01*
X175805848Y-105372449D01*
X175868874Y-105305547D01*
X175928606Y-105241746D01*
X175982713Y-105183507D01*
X176028865Y-105133292D01*
X176064733Y-105093563D01*
X176087984Y-105066780D01*
X176094778Y-105057477D01*
X176276601Y-105057477D01*
X176552305Y-105332968D01*
X176619726Y-105400224D01*
X176683267Y-105463162D01*
X176732490Y-105511100D01*
X176769196Y-105545594D01*
X176795190Y-105568199D01*
X176812276Y-105580471D01*
X176822256Y-105583966D01*
X176826935Y-105580238D01*
X176828116Y-105570844D01*
X176828873Y-105555749D01*
X176831601Y-105516883D01*
X176836108Y-105457895D01*
X176842179Y-105381473D01*
X176849596Y-105290305D01*
X176858142Y-105187080D01*
X176867602Y-105074483D01*
X176877758Y-104955205D01*
X176886723Y-104850077D01*
X176896066Y-104739351D01*
X176904443Y-104638814D01*
X176911653Y-104550943D01*
X176917496Y-104478215D01*
X176921769Y-104423110D01*
X176924273Y-104388104D01*
X176924805Y-104375674D01*
X176924384Y-104375908D01*
X176912509Y-104387350D01*
X176886130Y-104414198D01*
X176847570Y-104454018D01*
X176799153Y-104504372D01*
X176743203Y-104562828D01*
X176682042Y-104626948D01*
X176617995Y-104694298D01*
X176553385Y-104762443D01*
X176490535Y-104828948D01*
X176431768Y-104891377D01*
X176379409Y-104947295D01*
X176278533Y-105055406D01*
X176276601Y-105057477D01*
X176094778Y-105057477D01*
X176096290Y-105055406D01*
X176088148Y-105044383D01*
X176064478Y-105017999D01*
X176027478Y-104978527D01*
X175979350Y-104928191D01*
X175922296Y-104869217D01*
X175858520Y-104803830D01*
X175790222Y-104734255D01*
X175719605Y-104662716D01*
X175648871Y-104591438D01*
X175580222Y-104522647D01*
X175515861Y-104458566D01*
X175457989Y-104401422D01*
X175408810Y-104353439D01*
X175370524Y-104316841D01*
X175345334Y-104293854D01*
X175335442Y-104286703D01*
X175335253Y-104294732D01*
X175206067Y-104294732D01*
X175204390Y-104282089D01*
X174929297Y-104282089D01*
X174928968Y-104071471D01*
X174928797Y-103962172D01*
X175029891Y-103962172D01*
X175029891Y-104181495D01*
X175111624Y-104181495D01*
X175118895Y-104181489D01*
X175159950Y-104180613D01*
X175182277Y-104176867D01*
X175191529Y-104168270D01*
X175193357Y-104152840D01*
X175185306Y-104130159D01*
X175157730Y-104092428D01*
X175111624Y-104043179D01*
X175029891Y-103962172D01*
X174928797Y-103962172D01*
X174928639Y-103860852D01*
X174476914Y-103401891D01*
X174025189Y-102942931D01*
X174024570Y-102855848D01*
X174023951Y-102768767D01*
X174565769Y-103317952D01*
X174618137Y-103370998D01*
X174726803Y-103480772D01*
X174819709Y-103574114D01*
X174898055Y-103652173D01*
X174963043Y-103716097D01*
X175015872Y-103767035D01*
X175057743Y-103806135D01*
X175089855Y-103834548D01*
X175113410Y-103853420D01*
X175129608Y-103863901D01*
X175139649Y-103867139D01*
X175156579Y-103866158D01*
X175166084Y-103858996D01*
X175167723Y-103839401D01*
X175163782Y-103801124D01*
X175161065Y-103777025D01*
X175157284Y-103736744D01*
X175155760Y-103709961D01*
X175155015Y-103700728D01*
X175147746Y-103690839D01*
X175127668Y-103687562D01*
X175088689Y-103688992D01*
X175078737Y-103689553D01*
X175038898Y-103688921D01*
X175010560Y-103680167D01*
X174990586Y-103665951D01*
X175273852Y-103665951D01*
X175278013Y-103713104D01*
X175279935Y-103734498D01*
X175285924Y-103792909D01*
X175291826Y-103831381D01*
X175298727Y-103853912D01*
X175307712Y-103864498D01*
X175319870Y-103867139D01*
X175330801Y-103868937D01*
X175338050Y-103877530D01*
X175342100Y-103897505D01*
X175343863Y-103933450D01*
X175344248Y-103989952D01*
X175344248Y-104112766D01*
X175384447Y-104152840D01*
X175482565Y-104250654D01*
X175620881Y-104388542D01*
X175620881Y-104282089D01*
X176375337Y-104282089D01*
X176375337Y-104521000D01*
X175756831Y-104521000D01*
X175966592Y-104737906D01*
X176006770Y-104779334D01*
X176062328Y-104836200D01*
X176110570Y-104885082D01*
X176148971Y-104923441D01*
X176175003Y-104948741D01*
X176186140Y-104958442D01*
X176190373Y-104955767D01*
X176210224Y-104937782D01*
X176244451Y-104904481D01*
X176291227Y-104857712D01*
X176348724Y-104799325D01*
X176415112Y-104731169D01*
X176488564Y-104655094D01*
X176567251Y-104572950D01*
X176646341Y-104489943D01*
X176723871Y-104408136D01*
X176786746Y-104341083D01*
X176836502Y-104287007D01*
X176874678Y-104244129D01*
X176902811Y-104210673D01*
X176922440Y-104184861D01*
X176935101Y-104164914D01*
X176942334Y-104149056D01*
X176945675Y-104135509D01*
X176946561Y-104128910D01*
X176950488Y-104092548D01*
X176955459Y-104039018D01*
X176960927Y-103974421D01*
X176966344Y-103904862D01*
X176968181Y-103880635D01*
X176973488Y-103815178D01*
X176978548Y-103758717D01*
X176982863Y-103716618D01*
X176985934Y-103694243D01*
X176991955Y-103665951D01*
X175273852Y-103665951D01*
X174990586Y-103665951D01*
X174982630Y-103660289D01*
X174977820Y-103656104D01*
X174938482Y-103605427D01*
X174922903Y-103552782D01*
X175263698Y-103552782D01*
X176678221Y-103552782D01*
X176676172Y-103502485D01*
X176890881Y-103502485D01*
X176890881Y-103552782D01*
X176947908Y-103552782D01*
X176964993Y-103552662D01*
X176990308Y-103550462D01*
X176997616Y-103543334D01*
X176991943Y-103528508D01*
X176990267Y-103525682D01*
X176971448Y-103503944D01*
X176944183Y-103479820D01*
X176916987Y-103460254D01*
X176898371Y-103452188D01*
X176896697Y-103453463D01*
X176892544Y-103470976D01*
X176890881Y-103502485D01*
X176676172Y-103502485D01*
X176674526Y-103462095D01*
X176670832Y-103371407D01*
X176595386Y-103356252D01*
X176557551Y-103349379D01*
X176494368Y-103339756D01*
X176435065Y-103332496D01*
X176350188Y-103323893D01*
X176350188Y-103427040D01*
X175771773Y-103427040D01*
X175771773Y-103336122D01*
X175699471Y-103344753D01*
X175588998Y-103363249D01*
X175477816Y-103396691D01*
X175385850Y-103443324D01*
X175311542Y-103503786D01*
X175263698Y-103552782D01*
X174922903Y-103552782D01*
X174921172Y-103546934D01*
X174926474Y-103485575D01*
X174954975Y-103426297D01*
X174957733Y-103422606D01*
X174995822Y-103390851D01*
X175045476Y-103372067D01*
X175099002Y-103367071D01*
X175148707Y-103376678D01*
X175186900Y-103401704D01*
X175199831Y-103414480D01*
X175212428Y-103417576D01*
X175230467Y-103407998D01*
X175260928Y-103384082D01*
X175270274Y-103376731D01*
X175342430Y-103330339D01*
X175427915Y-103289084D01*
X175497830Y-103263575D01*
X175872367Y-103263575D01*
X175872367Y-103326446D01*
X176249594Y-103326446D01*
X176249594Y-103263575D01*
X175872367Y-103263575D01*
X175497830Y-103263575D01*
X175518767Y-103255936D01*
X175607027Y-103233868D01*
X175684736Y-103225852D01*
X175692991Y-103225788D01*
X175738879Y-103221321D01*
X175764079Y-103208795D01*
X175771773Y-103186784D01*
X175772676Y-103179849D01*
X175777615Y-103173885D01*
X175789611Y-103169519D01*
X175811680Y-103166503D01*
X175846836Y-103164590D01*
X175898094Y-103163530D01*
X175968471Y-103163077D01*
X176060980Y-103162980D01*
X176147660Y-103163150D01*
X176221332Y-103163834D01*
X176275265Y-103165215D01*
X176312288Y-103167470D01*
X176335230Y-103170778D01*
X176346920Y-103175320D01*
X176350188Y-103181272D01*
X176360937Y-103195888D01*
X176391055Y-103205215D01*
X176402582Y-103206847D01*
X176441886Y-103212591D01*
X176494188Y-103220378D01*
X176551376Y-103229003D01*
X176582916Y-103233393D01*
X176629074Y-103238148D01*
X176661641Y-103239295D01*
X176675023Y-103236495D01*
X176677308Y-103234671D01*
X176698405Y-103230165D01*
X176736355Y-103227029D01*
X176785048Y-103225852D01*
X176890881Y-103225852D01*
X176890894Y-103263575D01*
X176890894Y-103266718D01*
G36*
X176890894Y-103266718D02*
G01*
X176891388Y-103279668D01*
X176897819Y-103301411D01*
X176916123Y-103319851D01*
X176951830Y-103341801D01*
X176983174Y-103361854D01*
X177030893Y-103400356D01*
X177074138Y-103443579D01*
X177107219Y-103485627D01*
X177124442Y-103520604D01*
X177128662Y-103534081D01*
X177136480Y-103543334D01*
X177139116Y-103546454D01*
X177160662Y-103551696D01*
X177200314Y-103552782D01*
X177268109Y-103552782D01*
X177268109Y-103665951D01*
X177108577Y-103665951D01*
X177093682Y-103843732D01*
X177091682Y-103868037D01*
X177087023Y-103928880D01*
X177083731Y-103978389D01*
X177082092Y-104011992D01*
X177082390Y-104025116D01*
X177086724Y-104021343D01*
X177106496Y-104001676D01*
X177140679Y-103966818D01*
X177187541Y-103918576D01*
X177245354Y-103858757D01*
X177312387Y-103789167D01*
X177386912Y-103711615D01*
X177467197Y-103627907D01*
X177551513Y-103539849D01*
X177638130Y-103449250D01*
X177725319Y-103357915D01*
X177811349Y-103267653D01*
X177894492Y-103180269D01*
X177973016Y-103097572D01*
X178045192Y-103021368D01*
X178109291Y-102953463D01*
X178163583Y-102895666D01*
X178260592Y-102792040D01*
X178261034Y-102880315D01*
X178261475Y-102968589D01*
X177660938Y-103600158D01*
X177060401Y-104231726D01*
X177048396Y-104375674D01*
X177000365Y-104951635D01*
X176991876Y-105053791D01*
X176981343Y-105181612D01*
X176971621Y-105300767D01*
X176962898Y-105408914D01*
X176955358Y-105503713D01*
X176949187Y-105582819D01*
X176944573Y-105643892D01*
X176941700Y-105684590D01*
X176940754Y-105702570D01*
X176943251Y-105710808D01*
X176954471Y-105728599D01*
X176975751Y-105755411D01*
X176986021Y-105767129D01*
X177008225Y-105792466D01*
X177053023Y-105840986D01*
X177111281Y-105902192D01*
X177184129Y-105977307D01*
X177272703Y-106067550D01*
X177378134Y-106174145D01*
X177447492Y-106244093D01*
X177544179Y-106341658D01*
X177640526Y-106438941D01*
X177733638Y-106533014D01*
X177820618Y-106620950D01*
X177898569Y-106699820D01*
X177964596Y-106766699D01*
X178015802Y-106818658D01*
X178216514Y-107022620D01*
X178180058Y-107060671D01*
X178171460Y-107069245D01*
X178146095Y-107090297D01*
X178128695Y-107098723D01*
X178115071Y-107091530D01*
X178089743Y-107069944D01*
X178059379Y-107038995D01*
X178040896Y-107019448D01*
X178006427Y-106983752D01*
X177957712Y-106933684D01*
X177896469Y-106871001D01*
X177824420Y-106797457D01*
X177743285Y-106714810D01*
X177654784Y-106624815D01*
X177560637Y-106529228D01*
X177462565Y-106429805D01*
X176920161Y-105880343D01*
X176898066Y-106165746D01*
X176893250Y-106226662D01*
X176886216Y-106308548D01*
X176879872Y-106370569D01*
X176873748Y-106415987D01*
X176867373Y-106448062D01*
X176860277Y-106470052D01*
X176851991Y-106485219D01*
X176840393Y-106506416D01*
X176830850Y-106545386D01*
X176828010Y-106601531D01*
X176828010Y-106683773D01*
X176601674Y-106683773D01*
X176601674Y-106507733D01*
X175756082Y-106507733D01*
X175707203Y-106563262D01*
X175693836Y-106577722D01*
X175621388Y-106635813D01*
X175539532Y-106671576D01*
X175450900Y-106683773D01*
X175372692Y-106677306D01*
X175284233Y-106650047D01*
X175208507Y-106601328D01*
X175193748Y-106587403D01*
X175156864Y-106542328D01*
X175124503Y-106489819D01*
X175101297Y-106438061D01*
X175091879Y-106395239D01*
X175091697Y-106389023D01*
X175090342Y-106366246D01*
X175086800Y-106350513D01*
X175079390Y-106343068D01*
X175066431Y-106345156D01*
X175046243Y-106358020D01*
X175017145Y-106382905D01*
X174977456Y-106421053D01*
X174925496Y-106473710D01*
X174859584Y-106542119D01*
X174778040Y-106627524D01*
X174734604Y-106673112D01*
X174662000Y-106749441D01*
X174593309Y-106821808D01*
X174531223Y-106887366D01*
X174478434Y-106943274D01*
X174437634Y-106986686D01*
X174411515Y-107014758D01*
X174340119Y-107092436D01*
X174251863Y-107004416D01*
X174797690Y-106432287D01*
X174832105Y-106396188D01*
X174954546Y-106267272D01*
X175059651Y-106155754D01*
X175147736Y-106061288D01*
X175219116Y-105983529D01*
X175269588Y-105927174D01*
X175476247Y-105927174D01*
X175477872Y-105940434D01*
X175478156Y-105941819D01*
X175491698Y-105973228D01*
X175518748Y-105987863D01*
X175602129Y-106019063D01*
X175676418Y-106071038D01*
X175734846Y-106139791D01*
X175774890Y-106222315D01*
X175794026Y-106315606D01*
X175800364Y-106394565D01*
X176749838Y-106394565D01*
X176756458Y-106366273D01*
X176757629Y-106359329D01*
X176761268Y-106328281D01*
X176766234Y-106278081D01*
X176772157Y-106212727D01*
X176778669Y-106136219D01*
X176785401Y-106052555D01*
X176807724Y-105767129D01*
X176506826Y-105461565D01*
X176451636Y-105405704D01*
X176384109Y-105337888D01*
X176323529Y-105277643D01*
X176272021Y-105227052D01*
X176231710Y-105188200D01*
X176204722Y-105163170D01*
X176193182Y-105154046D01*
X176185444Y-105158405D01*
X176162395Y-105178241D01*
X176127709Y-105211375D01*
X176084487Y-105254820D01*
X176035832Y-105305587D01*
X176023140Y-105319051D01*
X175966229Y-105379275D01*
X175898414Y-105450864D01*
X175824800Y-105528437D01*
X175750493Y-105606611D01*
X175680599Y-105680005D01*
X175676401Y-105684409D01*
X175611420Y-105752785D01*
X175561836Y-105805732D01*
X175525688Y-105845767D01*
X175501016Y-105875411D01*
X175485858Y-105897181D01*
X175478256Y-105913595D01*
X175476247Y-105927174D01*
X175269588Y-105927174D01*
X175274105Y-105922131D01*
X175313019Y-105876748D01*
X175336173Y-105847035D01*
X175343882Y-105832644D01*
X175343883Y-105832559D01*
X175342825Y-105814624D01*
X175339737Y-105774421D01*
X175334858Y-105714687D01*
X175328432Y-105638158D01*
X175320700Y-105547569D01*
X175311905Y-105445657D01*
X175302287Y-105335159D01*
X175292091Y-105218811D01*
X175281556Y-105099348D01*
X175270926Y-104979507D01*
X175260442Y-104862025D01*
X175250346Y-104749637D01*
X175240881Y-104645081D01*
X175232288Y-104551091D01*
X175224809Y-104470405D01*
X175218687Y-104405759D01*
X175214162Y-104359888D01*
X175211478Y-104335530D01*
X175206067Y-104294732D01*
X175335253Y-104294732D01*
X175336908Y-104325653D01*
X175340549Y-104377653D01*
X175345995Y-104448487D01*
X175353063Y-104535911D01*
X175361570Y-104637681D01*
X175371335Y-104751552D01*
X175382174Y-104875279D01*
X175393907Y-105006618D01*
X175403079Y-105107908D01*
X175414566Y-105233526D01*
X175425322Y-105349762D01*
X175435131Y-105454380D01*
X175443781Y-105545140D01*
X175451057Y-105619804D01*
X175456746Y-105676134D01*
X175460634Y-105711891D01*
X175462506Y-105724837D01*
X175468188Y-105720826D01*
X175489020Y-105701138D01*
X175522872Y-105667322D01*
X175567412Y-105621837D01*
X175620310Y-105567146D01*
X175679236Y-105505710D01*
X175741858Y-105439990D01*
X175805848Y-105372449D01*
X175868874Y-105305547D01*
X175928606Y-105241746D01*
X175982713Y-105183507D01*
X176028865Y-105133292D01*
X176064733Y-105093563D01*
X176087984Y-105066780D01*
X176094778Y-105057477D01*
X176276601Y-105057477D01*
X176552305Y-105332968D01*
X176619726Y-105400224D01*
X176683267Y-105463162D01*
X176732490Y-105511100D01*
X176769196Y-105545594D01*
X176795190Y-105568199D01*
X176812276Y-105580471D01*
X176822256Y-105583966D01*
X176826935Y-105580238D01*
X176828116Y-105570844D01*
X176828873Y-105555749D01*
X176831601Y-105516883D01*
X176836108Y-105457895D01*
X176842179Y-105381473D01*
X176849596Y-105290305D01*
X176858142Y-105187080D01*
X176867602Y-105074483D01*
X176877758Y-104955205D01*
X176886723Y-104850077D01*
X176896066Y-104739351D01*
X176904443Y-104638814D01*
X176911653Y-104550943D01*
X176917496Y-104478215D01*
X176921769Y-104423110D01*
X176924273Y-104388104D01*
X176924805Y-104375674D01*
X176924384Y-104375908D01*
X176912509Y-104387350D01*
X176886130Y-104414198D01*
X176847570Y-104454018D01*
X176799153Y-104504372D01*
X176743203Y-104562828D01*
X176682042Y-104626948D01*
X176617995Y-104694298D01*
X176553385Y-104762443D01*
X176490535Y-104828948D01*
X176431768Y-104891377D01*
X176379409Y-104947295D01*
X176278533Y-105055406D01*
X176276601Y-105057477D01*
X176094778Y-105057477D01*
X176096290Y-105055406D01*
X176088148Y-105044383D01*
X176064478Y-105017999D01*
X176027478Y-104978527D01*
X175979350Y-104928191D01*
X175922296Y-104869217D01*
X175858520Y-104803830D01*
X175790222Y-104734255D01*
X175719605Y-104662716D01*
X175648871Y-104591438D01*
X175580222Y-104522647D01*
X175515861Y-104458566D01*
X175457989Y-104401422D01*
X175408810Y-104353439D01*
X175370524Y-104316841D01*
X175345334Y-104293854D01*
X175335442Y-104286703D01*
X175335253Y-104294732D01*
X175206067Y-104294732D01*
X175204390Y-104282089D01*
X174929297Y-104282089D01*
X174928968Y-104071471D01*
X174928797Y-103962172D01*
X175029891Y-103962172D01*
X175029891Y-104181495D01*
X175111624Y-104181495D01*
X175118895Y-104181489D01*
X175159950Y-104180613D01*
X175182277Y-104176867D01*
X175191529Y-104168270D01*
X175193357Y-104152840D01*
X175185306Y-104130159D01*
X175157730Y-104092428D01*
X175111624Y-104043179D01*
X175029891Y-103962172D01*
X174928797Y-103962172D01*
X174928639Y-103860852D01*
X174476914Y-103401891D01*
X174025189Y-102942931D01*
X174024570Y-102855848D01*
X174023951Y-102768767D01*
X174565769Y-103317952D01*
X174618137Y-103370998D01*
X174726803Y-103480772D01*
X174819709Y-103574114D01*
X174898055Y-103652173D01*
X174963043Y-103716097D01*
X175015872Y-103767035D01*
X175057743Y-103806135D01*
X175089855Y-103834548D01*
X175113410Y-103853420D01*
X175129608Y-103863901D01*
X175139649Y-103867139D01*
X175156579Y-103866158D01*
X175166084Y-103858996D01*
X175167723Y-103839401D01*
X175163782Y-103801124D01*
X175161065Y-103777025D01*
X175157284Y-103736744D01*
X175155760Y-103709961D01*
X175155015Y-103700728D01*
X175147746Y-103690839D01*
X175127668Y-103687562D01*
X175088689Y-103688992D01*
X175078737Y-103689553D01*
X175038898Y-103688921D01*
X175010560Y-103680167D01*
X174990586Y-103665951D01*
X175273852Y-103665951D01*
X175278013Y-103713104D01*
X175279935Y-103734498D01*
X175285924Y-103792909D01*
X175291826Y-103831381D01*
X175298727Y-103853912D01*
X175307712Y-103864498D01*
X175319870Y-103867139D01*
X175330801Y-103868937D01*
X175338050Y-103877530D01*
X175342100Y-103897505D01*
X175343863Y-103933450D01*
X175344248Y-103989952D01*
X175344248Y-104112766D01*
X175384447Y-104152840D01*
X175482565Y-104250654D01*
X175620881Y-104388542D01*
X175620881Y-104282089D01*
X176375337Y-104282089D01*
X176375337Y-104521000D01*
X175756831Y-104521000D01*
X175966592Y-104737906D01*
X176006770Y-104779334D01*
X176062328Y-104836200D01*
X176110570Y-104885082D01*
X176148971Y-104923441D01*
X176175003Y-104948741D01*
X176186140Y-104958442D01*
X176190373Y-104955767D01*
X176210224Y-104937782D01*
X176244451Y-104904481D01*
X176291227Y-104857712D01*
X176348724Y-104799325D01*
X176415112Y-104731169D01*
X176488564Y-104655094D01*
X176567251Y-104572950D01*
X176646341Y-104489943D01*
X176723871Y-104408136D01*
X176786746Y-104341083D01*
X176836502Y-104287007D01*
X176874678Y-104244129D01*
X176902811Y-104210673D01*
X176922440Y-104184861D01*
X176935101Y-104164914D01*
X176942334Y-104149056D01*
X176945675Y-104135509D01*
X176946561Y-104128910D01*
X176950488Y-104092548D01*
X176955459Y-104039018D01*
X176960927Y-103974421D01*
X176966344Y-103904862D01*
X176968181Y-103880635D01*
X176973488Y-103815178D01*
X176978548Y-103758717D01*
X176982863Y-103716618D01*
X176985934Y-103694243D01*
X176991955Y-103665951D01*
X175273852Y-103665951D01*
X174990586Y-103665951D01*
X174982630Y-103660289D01*
X174977820Y-103656104D01*
X174938482Y-103605427D01*
X174922903Y-103552782D01*
X175263698Y-103552782D01*
X176678221Y-103552782D01*
X176676172Y-103502485D01*
X176890881Y-103502485D01*
X176890881Y-103552782D01*
X176947908Y-103552782D01*
X176964993Y-103552662D01*
X176990308Y-103550462D01*
X176997616Y-103543334D01*
X176991943Y-103528508D01*
X176990267Y-103525682D01*
X176971448Y-103503944D01*
X176944183Y-103479820D01*
X176916987Y-103460254D01*
X176898371Y-103452188D01*
X176896697Y-103453463D01*
X176892544Y-103470976D01*
X176890881Y-103502485D01*
X176676172Y-103502485D01*
X176674526Y-103462095D01*
X176670832Y-103371407D01*
X176595386Y-103356252D01*
X176557551Y-103349379D01*
X176494368Y-103339756D01*
X176435065Y-103332496D01*
X176350188Y-103323893D01*
X176350188Y-103427040D01*
X175771773Y-103427040D01*
X175771773Y-103336122D01*
X175699471Y-103344753D01*
X175588998Y-103363249D01*
X175477816Y-103396691D01*
X175385850Y-103443324D01*
X175311542Y-103503786D01*
X175263698Y-103552782D01*
X174922903Y-103552782D01*
X174921172Y-103546934D01*
X174926474Y-103485575D01*
X174954975Y-103426297D01*
X174957733Y-103422606D01*
X174995822Y-103390851D01*
X175045476Y-103372067D01*
X175099002Y-103367071D01*
X175148707Y-103376678D01*
X175186900Y-103401704D01*
X175199831Y-103414480D01*
X175212428Y-103417576D01*
X175230467Y-103407998D01*
X175260928Y-103384082D01*
X175270274Y-103376731D01*
X175342430Y-103330339D01*
X175427915Y-103289084D01*
X175497830Y-103263575D01*
X175872367Y-103263575D01*
X175872367Y-103326446D01*
X176249594Y-103326446D01*
X176249594Y-103263575D01*
X175872367Y-103263575D01*
X175497830Y-103263575D01*
X175518767Y-103255936D01*
X175607027Y-103233868D01*
X175684736Y-103225852D01*
X175692991Y-103225788D01*
X175738879Y-103221321D01*
X175764079Y-103208795D01*
X175771773Y-103186784D01*
X175772676Y-103179849D01*
X175777615Y-103173885D01*
X175789611Y-103169519D01*
X175811680Y-103166503D01*
X175846836Y-103164590D01*
X175898094Y-103163530D01*
X175968471Y-103163077D01*
X176060980Y-103162980D01*
X176147660Y-103163150D01*
X176221332Y-103163834D01*
X176275265Y-103165215D01*
X176312288Y-103167470D01*
X176335230Y-103170778D01*
X176346920Y-103175320D01*
X176350188Y-103181272D01*
X176360937Y-103195888D01*
X176391055Y-103205215D01*
X176402582Y-103206847D01*
X176441886Y-103212591D01*
X176494188Y-103220378D01*
X176551376Y-103229003D01*
X176582916Y-103233393D01*
X176629074Y-103238148D01*
X176661641Y-103239295D01*
X176675023Y-103236495D01*
X176677308Y-103234671D01*
X176698405Y-103230165D01*
X176736355Y-103227029D01*
X176785048Y-103225852D01*
X176890881Y-103225852D01*
X176890894Y-103263575D01*
X176890894Y-103266718D01*
G37*
%TD*%
D16*
X171551600Y-109524800D03*
X167741600Y-109524800D03*
X134073840Y-96696051D03*
X138811000Y-109270800D03*
X135001000Y-109270800D03*
X171577000Y-106172000D03*
X167767000Y-106172000D03*
X135001000Y-116890800D03*
X138811000Y-116890800D03*
X172543018Y-124519986D03*
X171687770Y-122455234D03*
X169623018Y-121599986D03*
X167558266Y-122455234D03*
X166703018Y-124519986D03*
X167558266Y-126584738D03*
X169623018Y-127439986D03*
X171687770Y-126584738D03*
X148080000Y-125130000D03*
X153160000Y-125130000D03*
X155700000Y-125130000D03*
X158240000Y-125130000D03*
X148080000Y-128940000D03*
X150620000Y-128940000D03*
X153160000Y-128940000D03*
X155700000Y-128940000D03*
X158240000Y-128940000D03*
X174713949Y-131466051D03*
X164563949Y-117576051D03*
X143891000Y-131445000D03*
X174955200Y-100177600D03*
X143129000Y-115443000D03*
X143129000Y-117983000D03*
X171715000Y-95122000D03*
X173994999Y-95122000D03*
X176275000Y-95122000D03*
X177495200Y-100177600D03*
X143891000Y-128905000D03*
X158250000Y-103020000D03*
X155710000Y-103020000D03*
X153170000Y-103020000D03*
X150630000Y-103020000D03*
X148090000Y-103020000D03*
X148090000Y-99210000D03*
X150630000Y-99210000D03*
X153170000Y-99210000D03*
X155710000Y-99210000D03*
X158250000Y-99210000D03*
M02*
