%TF.GenerationSoftware,KiCad,Pcbnew,8.0.6*%
%TF.CreationDate,2024-11-21T00:19:28+01:00*%
%TF.ProjectId,3458A Ref A9 Clone,33343538-4120-4526-9566-20413920436c,rev?*%
%TF.SameCoordinates,Original*%
%TF.FileFunction,Soldermask,Top*%
%TF.FilePolarity,Negative*%
%FSLAX46Y46*%
G04 Gerber Fmt 4.6, Leading zero omitted, Abs format (unit mm)*
G04 Created by KiCad (PCBNEW 8.0.6) date 2024-11-21 00:19:28*
%MOMM*%
%LPD*%
G01*
G04 APERTURE LIST*
G04 Aperture macros list*
%AMRoundRect*
0 Rectangle with rounded corners*
0 $1 Rounding radius*
0 $2 $3 $4 $5 $6 $7 $8 $9 X,Y pos of 4 corners*
0 Add a 4 corners polygon primitive as box body*
4,1,4,$2,$3,$4,$5,$6,$7,$8,$9,$2,$3,0*
0 Add four circle primitives for the rounded corners*
1,1,$1+$1,$2,$3*
1,1,$1+$1,$4,$5*
1,1,$1+$1,$6,$7*
1,1,$1+$1,$8,$9*
0 Add four rect primitives between the rounded corners*
20,1,$1+$1,$2,$3,$4,$5,0*
20,1,$1+$1,$4,$5,$6,$7,0*
20,1,$1+$1,$6,$7,$8,$9,0*
20,1,$1+$1,$8,$9,$2,$3,0*%
G04 Aperture macros list end*
%ADD10RoundRect,0.150000X0.825000X0.150000X-0.825000X0.150000X-0.825000X-0.150000X0.825000X-0.150000X0*%
%ADD11RoundRect,0.250000X-0.362500X-1.425000X0.362500X-1.425000X0.362500X1.425000X-0.362500X1.425000X0*%
%ADD12C,1.500000*%
%ADD13RoundRect,0.405613X-0.588137X-0.919387X0.588137X-0.919387X0.588137X0.919387X-0.588137X0.919387X0*%
%ADD14RoundRect,0.420919X-0.610331X-0.904081X0.610331X-0.904081X0.610331X0.904081X-0.610331X0.904081X0*%
%ADD15RoundRect,0.225000X-0.375000X0.225000X-0.375000X-0.225000X0.375000X-0.225000X0.375000X0.225000X0*%
%ADD16RoundRect,0.250000X0.262500X0.450000X-0.262500X0.450000X-0.262500X-0.450000X0.262500X-0.450000X0*%
%ADD17RoundRect,0.250000X-0.450000X0.262500X-0.450000X-0.262500X0.450000X-0.262500X0.450000X0.262500X0*%
%ADD18RoundRect,0.250000X0.362500X1.425000X-0.362500X1.425000X-0.362500X-1.425000X0.362500X-1.425000X0*%
%ADD19RoundRect,0.405613X0.588137X0.919387X-0.588137X0.919387X-0.588137X-0.919387X0.588137X-0.919387X0*%
%ADD20RoundRect,0.420919X0.610331X0.904081X-0.610331X0.904081X-0.610331X-0.904081X0.610331X-0.904081X0*%
%ADD21RoundRect,0.250000X-0.650000X0.325000X-0.650000X-0.325000X0.650000X-0.325000X0.650000X0.325000X0*%
%ADD22RoundRect,0.250000X-0.262500X-0.450000X0.262500X-0.450000X0.262500X0.450000X-0.262500X0.450000X0*%
%ADD23RoundRect,0.250000X0.650000X-0.325000X0.650000X0.325000X-0.650000X0.325000X-0.650000X-0.325000X0*%
%ADD24C,2.000000*%
%ADD25R,1.700000X1.524000*%
%ADD26C,1.700000*%
%ADD27RoundRect,0.250000X0.450000X-0.262500X0.450000X0.262500X-0.450000X0.262500X-0.450000X-0.262500X0*%
%ADD28RoundRect,0.150000X-0.825000X-0.150000X0.825000X-0.150000X0.825000X0.150000X-0.825000X0.150000X0*%
%ADD29C,4.000000*%
%ADD30RoundRect,0.250000X-0.312500X-0.625000X0.312500X-0.625000X0.312500X0.625000X-0.312500X0.625000X0*%
%ADD31RoundRect,0.250000X-0.325000X-0.650000X0.325000X-0.650000X0.325000X0.650000X-0.325000X0.650000X0*%
%ADD32RoundRect,0.250000X0.325000X0.650000X-0.325000X0.650000X-0.325000X-0.650000X0.325000X-0.650000X0*%
%ADD33RoundRect,0.225000X0.225000X0.375000X-0.225000X0.375000X-0.225000X-0.375000X0.225000X-0.375000X0*%
%ADD34R,1.710000X1.800000*%
%ADD35O,1.710000X1.800000*%
%ADD36C,7.200000*%
%ADD37RoundRect,0.150000X-0.587500X-0.150000X0.587500X-0.150000X0.587500X0.150000X-0.587500X0.150000X0*%
%ADD38C,0.600000*%
G04 APERTURE END LIST*
D10*
%TO.C,U402*%
X155637000Y-112776000D03*
X155637000Y-111506000D03*
X155637000Y-110236000D03*
X155637000Y-108966000D03*
X150687000Y-108966000D03*
X150687000Y-110236000D03*
X150687000Y-111506000D03*
X150687000Y-112776000D03*
%TD*%
D11*
%TO.C,R415*%
X133968900Y-110998000D03*
D12*
X135001000Y-109270800D03*
D13*
X135036800Y-110998000D03*
D12*
X138811000Y-109270800D03*
D14*
X138861800Y-110998000D03*
D11*
X139893900Y-110998000D03*
%TD*%
D15*
%TO.C,D401*%
X167894000Y-95251000D03*
X167894000Y-98551000D03*
%TD*%
D16*
%TO.C,R416*%
X154074500Y-114935000D03*
X152249500Y-114935000D03*
%TD*%
D17*
%TO.C,R1*%
X145542000Y-110847500D03*
X145542000Y-112672500D03*
%TD*%
D18*
%TO.C,R413*%
X172634500Y-111328200D03*
D12*
X171577000Y-109601000D03*
D19*
X171566600Y-111328200D03*
D12*
X167767000Y-109601000D03*
D20*
X167741600Y-111328200D03*
D18*
X166709500Y-111328200D03*
%TD*%
D21*
%TO.C,C412*%
X161163000Y-109776999D03*
X161163000Y-112727001D03*
%TD*%
D22*
%TO.C,R5*%
X135993500Y-102997000D03*
X137818500Y-102997000D03*
%TD*%
D23*
%TO.C,C1*%
X158369000Y-115013001D03*
X158369000Y-112062999D03*
%TD*%
D12*
%TO.C,U401*%
X172543018Y-124519986D03*
X171687770Y-122455234D03*
X169623018Y-121599986D03*
X167558266Y-122455234D03*
X166703018Y-124519986D03*
X167558266Y-126584738D03*
X169623018Y-127439986D03*
X171687770Y-126584738D03*
%TD*%
D24*
%TO.C,J400*%
X148080000Y-125130000D03*
X153160000Y-125130000D03*
X155700000Y-125130000D03*
X158240000Y-125130000D03*
D25*
X148080000Y-128940000D03*
D26*
X150620000Y-128940000D03*
X153160000Y-128940000D03*
X155700000Y-128940000D03*
X158240000Y-128940000D03*
%TD*%
D18*
%TO.C,R414*%
X139868500Y-118618000D03*
D12*
X138811000Y-116890800D03*
D19*
X138800600Y-118618000D03*
D12*
X135001000Y-116890800D03*
D20*
X134975600Y-118618000D03*
D18*
X133943500Y-118618000D03*
%TD*%
D27*
%TO.C,R6*%
X145034000Y-104036500D03*
X145034000Y-102211500D03*
%TD*%
D28*
%TO.C,RN1*%
X134431000Y-122682000D03*
X134431000Y-123952000D03*
X134431000Y-125222000D03*
X134431000Y-126492000D03*
X134431000Y-127762000D03*
X134431000Y-129032000D03*
X134431000Y-130302000D03*
X134431000Y-131572000D03*
X139381000Y-131572000D03*
X139381000Y-130302000D03*
X139381000Y-129032000D03*
X139381000Y-127762000D03*
X139381000Y-126492000D03*
X139381000Y-125222000D03*
X139381000Y-123952000D03*
X139381000Y-122682000D03*
%TD*%
D29*
%TO.C,REF\u002A\u002A*%
X174713949Y-131466051D03*
%TD*%
%TO.C,REF\u002A\u002A*%
X164563949Y-117576051D03*
%TD*%
D30*
%TO.C,R2*%
X135443500Y-106807000D03*
X138368500Y-106807000D03*
%TD*%
D17*
%TO.C,R417*%
X158369000Y-117705500D03*
X158369000Y-119530500D03*
%TD*%
D26*
%TO.C,TP2*%
X143713200Y-131445000D03*
%TD*%
D30*
%TO.C,R419*%
X139888500Y-100203000D03*
X142813500Y-100203000D03*
%TD*%
D21*
%TO.C,C3*%
X147955000Y-110284999D03*
X147955000Y-113235001D03*
%TD*%
D31*
%TO.C,C413*%
X151686999Y-106934000D03*
X154637001Y-106934000D03*
%TD*%
D32*
%TO.C,C414*%
X161163000Y-106172000D03*
X158212998Y-106172000D03*
%TD*%
D26*
%TO.C,TP6*%
X174955200Y-100177600D03*
%TD*%
D33*
%TO.C,D400*%
X154812000Y-117475000D03*
X151512000Y-117475000D03*
%TD*%
D27*
%TO.C,R421*%
X161036000Y-97354399D03*
X161036000Y-95529399D03*
%TD*%
D26*
%TO.C,TP3*%
X143715000Y-115443000D03*
%TD*%
%TO.C,TP4*%
X143715000Y-117983000D03*
%TD*%
D34*
%TO.C,Q401*%
X171715000Y-95122000D03*
D35*
X173994999Y-95122000D03*
X176275000Y-95122000D03*
%TD*%
D36*
%TO.C,REF\u002A\u002A*%
X134073840Y-96696051D03*
%TD*%
D26*
%TO.C,TP5*%
X177495200Y-100177600D03*
%TD*%
D27*
%TO.C,R420*%
X163703000Y-111529500D03*
X163703000Y-109704500D03*
%TD*%
%TO.C,R4*%
X158369000Y-110132500D03*
X158369000Y-108307500D03*
%TD*%
D32*
%TO.C,C411*%
X145620001Y-108331000D03*
X142669999Y-108331000D03*
%TD*%
D26*
%TO.C,TP1*%
X143713200Y-128905000D03*
%TD*%
D17*
%TO.C,R418*%
X170688000Y-97616000D03*
X170688000Y-99441000D03*
%TD*%
D37*
%TO.C,Q1*%
X163400500Y-94554000D03*
X163400500Y-96454000D03*
X165275501Y-95504000D03*
%TD*%
D31*
%TO.C,C4*%
X142238199Y-123444000D03*
X145188201Y-123444000D03*
%TD*%
D32*
%TO.C,C5*%
X138381001Y-114427000D03*
X135430999Y-114427000D03*
%TD*%
D24*
%TO.C,J401*%
X158250000Y-103020000D03*
X155710000Y-103020000D03*
X153170000Y-103020000D03*
X150630000Y-103020000D03*
X148090000Y-103020000D03*
D25*
X148090000Y-99210000D03*
D26*
X150630000Y-99210000D03*
X153170000Y-99210000D03*
X155710000Y-99210000D03*
X158250000Y-99210000D03*
%TD*%
D38*
X162560001Y-95504001D03*
X137718800Y-122682000D03*
X154178000Y-116967000D03*
X169113200Y-113411000D03*
X154178000Y-117983000D03*
X154178000Y-117475000D03*
X138226800Y-122682000D03*
X137210801Y-122682001D03*
X170129199Y-113410999D03*
X169621200Y-113411000D03*
X163068000Y-95504000D03*
X163576000Y-95504000D03*
X139164699Y-100203001D03*
X159004000Y-106172000D03*
X153896699Y-106425999D03*
X145923000Y-123952001D03*
X159004000Y-106680000D03*
X145541999Y-104726099D03*
X159003999Y-105664000D03*
X145034000Y-104726100D03*
X141935200Y-107822999D03*
X144526000Y-104726100D03*
X132588000Y-127635000D03*
X145922999Y-122936001D03*
X132588000Y-127127000D03*
X141935200Y-108331000D03*
X141935201Y-108838999D03*
X139164700Y-100710998D03*
X153896700Y-107441999D03*
X132588000Y-126619000D03*
X139164699Y-99694998D03*
X153896699Y-106934000D03*
X145923000Y-123443998D03*
X141224000Y-126644400D03*
X151559900Y-114935000D03*
X151559900Y-114427000D03*
X141224000Y-127152400D03*
X141224000Y-127660400D03*
X151559900Y-115443000D03*
X167386000Y-99314000D03*
X175768000Y-111506000D03*
X167894000Y-99314000D03*
X168402000Y-99314000D03*
X175768001Y-112013999D03*
X175768000Y-110998000D03*
X167672582Y-129230870D03*
X168660411Y-129536199D03*
X173263271Y-126836632D03*
X170688000Y-124519986D03*
X168216436Y-124941614D03*
X167352836Y-120871572D03*
X170599625Y-120329957D03*
X168660411Y-128710015D03*
X165981604Y-126797168D03*
X170561000Y-128727200D03*
X173176832Y-123063000D03*
X164610004Y-125450968D03*
X165422804Y-125450968D03*
X170561000Y-129540000D03*
X168216436Y-124103414D03*
X173837232Y-123589004D03*
X164613805Y-123550379D03*
X164914804Y-126466968D03*
X173168239Y-125997718D03*
X174646231Y-125489593D03*
X168173032Y-120973172D03*
X171946664Y-120886733D03*
X174650032Y-123589004D03*
X166768636Y-120287372D03*
X171587454Y-119809102D03*
X171107750Y-120981765D03*
X165422028Y-121628604D03*
X165439989Y-123550379D03*
X171907200Y-128168400D03*
X166083204Y-125976972D03*
X167683036Y-119804772D03*
X170180000Y-124519986D03*
X173278432Y-122242804D03*
X173820047Y-125489593D03*
X172521400Y-120311996D03*
X171043600Y-124942600D03*
X168699036Y-120312772D03*
X171043600Y-124104400D03*
X174340902Y-126477422D03*
X166091797Y-123042254D03*
X164919134Y-122562550D03*
X173862632Y-121658604D03*
X174345232Y-122573004D03*
X166738636Y-128727976D03*
X167313372Y-128153239D03*
X165996765Y-122203340D03*
X172491400Y-128752600D03*
X169630018Y-124519986D03*
X165397404Y-127381368D03*
X173838008Y-127411368D03*
X171577000Y-129235200D03*
X170599625Y-119503773D03*
X168572036Y-124519000D03*
X169080036Y-124519000D03*
X171087004Y-128066800D03*
X168699036Y-119499972D03*
X168152286Y-128058207D03*
X145034000Y-101521900D03*
X138531600Y-103505000D03*
X143560800Y-100710999D03*
X144526001Y-101521901D03*
X143560799Y-99695000D03*
X138531600Y-102997000D03*
X138531599Y-102489001D03*
X143560800Y-100203001D03*
X145542000Y-101521900D03*
X164211000Y-112217200D03*
X176657001Y-113918999D03*
X176657000Y-112903000D03*
X163195000Y-112217200D03*
X172339000Y-100330000D03*
X176657000Y-113411000D03*
X171577000Y-101092000D03*
X163703000Y-112217200D03*
X171958000Y-100711000D03*
X170149185Y-100126800D03*
X171226815Y-100126800D03*
X156210000Y-113284000D03*
X155067000Y-113284000D03*
X155637000Y-113284000D03*
X170688000Y-100126800D03*
M02*
