%TF.GenerationSoftware,KiCad,Pcbnew,8.0.6*%
%TF.CreationDate,2025-01-21T00:38:56+01:00*%
%TF.ProjectId,3458A Ref A9 Clone,33343538-4120-4526-9566-20413920436c,B*%
%TF.SameCoordinates,Original*%
%TF.FileFunction,Soldermask,Bot*%
%TF.FilePolarity,Negative*%
%FSLAX46Y46*%
G04 Gerber Fmt 4.6, Leading zero omitted, Abs format (unit mm)*
G04 Created by KiCad (PCBNEW 8.0.6) date 2025-01-21 00:38:56*
%MOMM*%
%LPD*%
G01*
G04 APERTURE LIST*
G04 Aperture macros list*
%AMRoundRect*
0 Rectangle with rounded corners*
0 $1 Rounding radius*
0 $2 $3 $4 $5 $6 $7 $8 $9 X,Y pos of 4 corners*
0 Add a 4 corners polygon primitive as box body*
4,1,4,$2,$3,$4,$5,$6,$7,$8,$9,$2,$3,0*
0 Add four circle primitives for the rounded corners*
1,1,$1+$1,$2,$3*
1,1,$1+$1,$4,$5*
1,1,$1+$1,$6,$7*
1,1,$1+$1,$8,$9*
0 Add four rect primitives between the rounded corners*
20,1,$1+$1,$2,$3,$4,$5,0*
20,1,$1+$1,$4,$5,$6,$7,0*
20,1,$1+$1,$6,$7,$8,$9,0*
20,1,$1+$1,$8,$9,$2,$3,0*%
G04 Aperture macros list end*
%ADD10C,1.500000*%
%ADD11C,2.000000*%
%ADD12R,1.700000X1.524000*%
%ADD13C,1.700000*%
%ADD14C,4.000000*%
%ADD15R,1.710000X1.710000*%
%ADD16O,1.710000X1.800000*%
%ADD17C,7.200000*%
%ADD18RoundRect,0.250000X-0.650000X0.325000X-0.650000X-0.325000X0.650000X-0.325000X0.650000X0.325000X0*%
G04 APERTURE END LIST*
D10*
%TO.C,R415*%
X135001000Y-109270800D03*
X138811000Y-109270800D03*
%TD*%
%TO.C,R413*%
X171577000Y-109601000D03*
X167767000Y-109601000D03*
%TD*%
%TO.C,U401*%
X172543018Y-124519986D03*
X171687770Y-122455234D03*
X169623018Y-121599986D03*
X167558266Y-122455234D03*
X166703018Y-124519986D03*
X167558266Y-126584738D03*
X169623018Y-127439986D03*
X171687770Y-126584738D03*
%TD*%
D11*
%TO.C,J400*%
X148080000Y-125130000D03*
X153160000Y-125130000D03*
X155700000Y-125130000D03*
X158240000Y-125130000D03*
D12*
X148080000Y-128940000D03*
D13*
X150620000Y-128940000D03*
X153160000Y-128940000D03*
X155700000Y-128940000D03*
X158240000Y-128940000D03*
%TD*%
D10*
%TO.C,R414*%
X138811000Y-116890800D03*
X135001000Y-116890800D03*
%TD*%
D14*
%TO.C,REF\u002A\u002A*%
X174713949Y-131466051D03*
%TD*%
%TO.C,REF\u002A\u002A*%
X164563949Y-117576051D03*
%TD*%
D13*
%TO.C,TP2*%
X143713200Y-131445000D03*
%TD*%
%TO.C,TP6*%
X174955200Y-100177600D03*
%TD*%
%TO.C,TP3*%
X144145000Y-121031000D03*
%TD*%
%TO.C,TP4*%
X144144999Y-118491000D03*
%TD*%
D15*
%TO.C,Q401*%
X171704000Y-94615000D03*
D16*
X173984001Y-94615000D03*
X176264000Y-94615000D03*
%TD*%
D17*
%TO.C,REF\u002A\u002A*%
X134073840Y-96696051D03*
%TD*%
D13*
%TO.C,TP5*%
X177495200Y-100177600D03*
%TD*%
%TO.C,TP1*%
X143713200Y-128905000D03*
%TD*%
D11*
%TO.C,J401*%
X158250000Y-103020000D03*
X155710000Y-103020000D03*
X153170000Y-103020000D03*
X150630000Y-103020000D03*
X148090000Y-103020000D03*
D12*
X148090000Y-99210000D03*
D13*
X150630000Y-99210000D03*
X153170000Y-99210000D03*
X155710000Y-99210000D03*
X158250000Y-99210000D03*
%TD*%
D18*
%TO.C,C2*%
X169630018Y-123044985D03*
X169630018Y-125994987D03*
%TD*%
M02*
