M48
METRIC,TZ
T1C0.300
T2C0.700
T3C0.800
T4C1.000
%
G90
G05
T1
X132588Y-126619
X132588Y-127127
X132588Y-127635
X137211Y-122682
X137719Y-122682
X138227Y-122682
X138532Y-102489
X138532Y-102997
X138532Y-103505
X139165Y-99695
X139165Y-100203
X139165Y-100711
X141224Y-126644
X141224Y-127152
X141224Y-127660
X141935Y-107823
X141935Y-108331
X141935Y-108839
X143561Y-99695
X143561Y-100203
X143561Y-100711
X144526Y-104726
X144526Y-101522
X145034Y-101522
X145034Y-104726
X145542Y-104726
X145542Y-101522
X145923Y-122936
X145923Y-123444
X145923Y-123952
X151560Y-114427
X151560Y-114935
X151560Y-115443
X153897Y-106426
X153897Y-106934
X153897Y-107442
X154178Y-116967
X154178Y-117475
X154178Y-117983
X155067Y-113284
X155637Y-113284
X156210Y-113284
X159004Y-105664
X159004Y-106172
X159004Y-106680
X162560Y-95504
X163068Y-95504
X163195Y-112217
X163576Y-95504
X163703Y-112217
X164211Y-112217
X164610Y-125451
X164614Y-123550
X164915Y-126467
X164919Y-122563
X165397Y-127381
X165422Y-121629
X165423Y-125451
X165440Y-123550
X165982Y-126797
X165997Y-122203
X166083Y-125977
X166092Y-123042
X166739Y-128728
X166769Y-120287
X167313Y-128153
X167353Y-120872
X167386Y-99314
X167673Y-129231
X167683Y-119805
X167894Y-99314
X168152Y-128058
X168173Y-120973
X168216Y-124103
X168216Y-124942
X168402Y-99314
X168572Y-124519
X168660Y-128710
X168660Y-129536
X168699Y-119500
X168699Y-120313
X169080Y-124519
X169113Y-113411
X169621Y-113411
X169630Y-124520
X170129Y-113411
X170149Y-100127
X170180Y-124520
X170561Y-128727
X170561Y-129540
X170600Y-119504
X170600Y-120330
X170688Y-100127
X170688Y-124520
X171044Y-124104
X171044Y-124943
X171087Y-128067
X171108Y-120982
X171227Y-100127
X171577Y-101092
X171577Y-129235
X171587Y-119809
X171907Y-128168
X171947Y-120887
X171958Y-100711
X172339Y-100330
X172491Y-128753
X172521Y-120312
X173168Y-125998
X173177Y-123063
X173263Y-126837
X173278Y-122243
X173820Y-125490
X173837Y-123589
X173838Y-127411
X173863Y-121659
X174341Y-126477
X174345Y-122573
X174646Y-125490
X174650Y-123589
X175768Y-110998
X175768Y-111506
X175768Y-112014
X176657Y-112903
X176657Y-113411
X176657Y-113919
T2
X166703Y-124520
X167558Y-122455
X167558Y-126585
X169623Y-121600
X169623Y-127440
X171688Y-122455
X171688Y-126585
X172543Y-124520
T3
X135001Y-109271
X135001Y-116891
X138811Y-109271
X138811Y-116891
X167767Y-109601
X171577Y-109601
T4
X143713Y-128905
X143713Y-131445
X143715Y-115443
X143715Y-117983
X148080Y-128940
X148090Y-99210
X150620Y-128940
X150630Y-99210
X153160Y-128940
X153170Y-99210
X155700Y-128940
X155710Y-99210
X158240Y-128940
X158250Y-99210
X171715Y-95122
X173995Y-95122
X174955Y-100178
X176275Y-95122
X177495Y-100178
M30
