M48
METRIC,TZ
T1C0.300
T2C0.700
T3C0.800
T4C1.000
%
G90
G05
T1
X132588Y-126619
X132588Y-127127
X132588Y-127635
X137211Y-122682
X137719Y-122682
X138227Y-122682
X138532Y-102489
X138532Y-102997
X138532Y-103505
X139165Y-99695
X139165Y-100203
X139165Y-100711
X142699Y-108458
X142699Y-108966
X142699Y-109474
X143561Y-99695
X143561Y-100203
X143561Y-100711
X143637Y-113665
X144145Y-113665
X144526Y-101522
X144653Y-113665
X145034Y-101522
X145542Y-101522
X145796Y-108458
X145796Y-108966
X145796Y-109474
X148463Y-117983
X148971Y-117983
X149479Y-117983
X150876Y-117221
X150876Y-117729
X150876Y-118237
X151560Y-119634
X151560Y-120142
X151560Y-120650
X152408Y-106305
X152408Y-106813
X152408Y-107321
X157796Y-111174
X158369Y-111174
X158939Y-111174
X161290Y-104775
X161863Y-104775
X162433Y-104775
X162433Y-99441
X162941Y-99441
X163195Y-111455
X163449Y-99441
X163703Y-111455
X164211Y-111455
X164610Y-125451
X164614Y-123550
X164915Y-126467
X164919Y-122563
X165397Y-127381
X165422Y-121629
X165423Y-125451
X165440Y-123550
X165982Y-126797
X165997Y-122203
X166083Y-125977
X166092Y-123042
X166739Y-128728
X166769Y-120287
X167313Y-128153
X167353Y-120872
X167386Y-99314
X167673Y-129231
X167683Y-119805
X167894Y-99314
X168152Y-128058
X168173Y-120973
X168216Y-124103
X168216Y-124942
X168402Y-99314
X168572Y-124519
X168660Y-128710
X168660Y-129536
X168699Y-119500
X168699Y-120313
X169080Y-124519
X169113Y-113411
X169621Y-113411
X169630Y-124520
X170129Y-113411
X170149Y-100254
X170180Y-124520
X170561Y-128727
X170561Y-129540
X170600Y-119504
X170600Y-120330
X170688Y-100254
X170688Y-124520
X171044Y-124104
X171044Y-124943
X171087Y-128067
X171108Y-120982
X171227Y-100254
X171577Y-101219
X171577Y-129235
X171587Y-119809
X171907Y-128168
X171947Y-120887
X171958Y-100838
X172339Y-100457
X172491Y-128753
X172521Y-120312
X173168Y-125998
X173177Y-123063
X173263Y-126837
X173278Y-122243
X173820Y-125490
X173837Y-123589
X173838Y-127411
X173863Y-121659
X174341Y-126477
X174345Y-122573
X174646Y-125490
X174650Y-123589
X175768Y-110998
X175768Y-111506
X175768Y-112014
X176657Y-112903
X176657Y-113411
X176657Y-113919
T2
X166703Y-124520
X167558Y-122455
X167558Y-126585
X169623Y-121600
X169623Y-127440
X171688Y-122455
X171688Y-126585
X172543Y-124520
T3
X135001Y-109271
X135001Y-116891
X138811Y-109271
X138811Y-116891
X167767Y-109601
X171577Y-109601
T4
X143713Y-128905
X143713Y-131445
X144145Y-118491
X144145Y-121031
X148080Y-128940
X148090Y-99210
X150620Y-128940
X150630Y-99210
X153160Y-128940
X153170Y-99210
X155700Y-128940
X155710Y-99210
X158240Y-128940
X158250Y-99210
X171704Y-94615
X173984Y-94615
X174955Y-100178
X176264Y-94615
X177495Y-100178
M30
